<?xml version="1.0" encoding="UTF-8" standalone="no"?>
<svg width="119px" height="94px" viewBox="0 0 119 94" version="1.1" xmlns="http://www.w3.org/2000/svg" xmlns:xlink="http://www.w3.org/1999/xlink">
    <!-- Generator: Sketch 3.7.2 (28276) - http://www.bohemiancoding.com/sketch -->
    <title>Shape</title>
    <desc>Created with Sketch.</desc>
    <defs></defs>
    <g id="Page-1" stroke="none" stroke-width="1" fill="none" fill-rule="evenodd">
        <g id="cloud_all" transform="translate(-377.000000, -39.000000)" fill="#FFDC00">
            <g id="millmash_2_">
                <g id="millmash1" transform="translate(311.000000, 28.000000)">
                    <path d="M69.5,67.5 C72.5,69.7 77.1,72.1 80.7,69.6 C80,71 80.7,73.5 80.9,75 C81.2,77.1 82.1,78.3 83.5,79.7 C86,82 88.6,82.5 92,81.9 C92.1,81.9 92.1,81.9 92.2,81.8 C93.4,92.2 105.4,98.6 115.8,94.2 C119.3,92.7 123.2,88.9 124.5,87.4 C124.8,87.1 125,87.2 125,87.4 C125.5,92.8 127.1,97.4 134.6,101.9 C143,106.9 153.8,104.1 158.6,96.1 C160.5,93 162.1,89.3 162.5,85.8 C164.7,86.2 166.9,86.1 169,85.7 C172.3,85 175.2,82.9 176.8,79.9 C177.8,78 178.8,76.2 179.9,74.4 C179.9,74.3 180,74.3 180,74.2 C183.5,70.9 185.3,67.4 185,62.1 C184.8,57.9 183.4,55.1 181.6,53.2 C178.8,49 174.6,47.3 169.5,47.1 C170.1,45.6 170.2,44.6 170.8,40.8 C173,28.5 160,19.2 148.2,23.4 C144.6,24.7 140.5,28.3 139.1,29.7 C138.8,30 138.6,29.8 138.6,29.6 C138.4,24.2 137.1,19.5 129.8,14.6 C121.7,9.1 110.8,11.3 105.5,19 C104.1,21 102.9,23.2 102,25.5 C100.4,25.2 98.7,25 97.2,25.1 C93.8,25.2 90.8,27.7 89.1,30.6 C88.5,31.5 88.1,32.8 87.7,34.1 C86.4,33.6 84.9,33.4 83.5,33.5 C80.3,33.7 78.3,35.6 76.1,37.7 C73.8,39.9 73,42.4 73.8,45.6 C74,46.5 74.4,47.9 74.9,49.3 C70.7,50.9 67,55.1 66.3,59.6 C66.1,62.5 67.1,65.8 69.5,67.5 L69.5,67.5 Z" id="Shape"></path>
                </g>
            </g>
        </g>
    </g>
</svg>