<?xml version="1.0" encoding="UTF-8" standalone="no"?>
<svg width="110px" height="87px" viewBox="0 0 110 87" version="1.1" xmlns="http://www.w3.org/2000/svg" xmlns:xlink="http://www.w3.org/1999/xlink">
    <!-- Generator: Sketch 3.7.2 (28276) - http://www.bohemiancoding.com/sketch -->
    <title>Shape</title>
    <desc>Created with Sketch.</desc>
    <defs></defs>
    <g id="Page-1" stroke="none" stroke-width="1" fill="none" fill-rule="evenodd">
        <g id="cloud_all" transform="translate(-381.000000, -41.000000)" fill="#E85A0C">
            <g id="millmash_2_">
                <g id="millmash1" transform="translate(311.000000, 28.000000)">
                    <path d="M173.2,74.8 C174.3,70.8 175,66.5 173.5,62.6 C173.3,62.2 173.1,61.8 172.9,61.5 C177.6,56.4 182.4,49.7 177.6,43.2 C175.6,40.5 172.6,38 169.5,36.9 C160.7,33.9 156.4,39.1 154,43.1 C146.1,43.4 142.4,36.1 133.8,32.5 C130.2,31 127.5,28.9 123.6,28.8 C122.2,24.5 120.1,21.5 115.3,18.3 C112.7,16.5 108.3,14 105.2,13.5 C101.8,13 96.5,14 93.7,15.7 C84.8,20.8 84.8,25.7 86,31.8 C83.8,32.3 77.3,31.5 75.4,33.4 C73.2,35.7 71.2,37.4 70.4,40.6 C69.8,43.3 69.9,46.6 70.5,49.3 C71.5,54 72.6,58.9 74.8,63.2 C76.2,65.9 77.4,66.3 75.9,69.2 C74.8,71.4 73.8,73.8 73.5,76.2 C72.7,82 76.4,84.9 80.7,88.1 C84.3,90.8 89.4,91.8 93.9,90.7 C94.3,91.4 94.8,92 95.3,92.7 C98.4,96.2 101,98.1 105.9,98.9 C111.8,99.8 115.1,100.1 119.8,96.4 C122.2,94.6 124.8,91.9 125.8,89 C125.9,89 126,89.1 126,89.1 C126.6,91.7 127.9,94.6 130.3,96 C132.9,97.6 137.5,96.6 140.2,95.4 C142.5,94.3 146,92.1 147.2,89.8 C147.2,89.8 147.2,89.7 147.3,89.7 C147.7,89.9 148,90.2 148.4,90.4 C152.1,92.8 156.3,95.1 160.9,94.7 C162.3,94.6 170.5,94.2 175.9,88.1 C177.7,86 181.3,77.8 173.2,74.8 L173.2,74.8 Z" id="Shape"></path>
                </g>
            </g>
        </g>
    </g>
</svg>