<?xml version="1.0" encoding="UTF-8" standalone="no"?>
<svg width="59px" height="37px" viewBox="0 0 59 37" version="1.1" xmlns="http://www.w3.org/2000/svg" xmlns:xlink="http://www.w3.org/1999/xlink">
    <!-- Generator: Sketch 3.7.2 (28276) - http://www.bohemiancoding.com/sketch -->
    <title>Group</title>
    <desc>Created with Sketch.</desc>
    <defs></defs>
    <g id="Page-1" stroke="none" stroke-width="1" fill="none" fill-rule="evenodd">
        <g id="cloud_all" transform="translate(-422.000000, -69.000000)">
            <g id="millmash_2_">
                <g id="millmash1" transform="translate(311.000000, 28.000000)">
                    <g id="XMLID_134_" transform="translate(111.000000, 41.000000)">
                        <g id="Group">
                            <path d="M58.1,19.5 C58.2,20.1 57.9,20.9 57.4,21.3 C55.5,22.5 53.2,22.6 51,22.5 C47.9,22.4 43.2,21.1 41.2,19.9 C40.9,19.7 40.6,19.5 40.3,19.5 C40.2,19.5 39.9,19.7 39.8,19.9 C39.5,20.5 39.2,21.2 38.9,21.8 C37.6,24.9 35.7,27.5 32.8,29.2 C31.7,29.8 30.6,30.5 29.2,30.3 C28.4,30.2 27.6,29.7 26.8,29.5 C25,28.9 23.7,27.5 22.8,26 C21.8,24.4 21.1,22.6 21.4,20.6 C21.6,19.6 21.6,18.6 21.9,17.6 C22.2,16.7 22.4,15.9 22.2,14.9 C22.2,14.8 22,14.6 21.9,14.6 C20.6,14.5 19.7,13.9 18.4,13.9 C16.8,13.8 15.2,13.3 13.8,12.7 C11.8,11.9 9.9,10.9 8.2,9.4 C7.2,8.5 6.1,7.9 5.5,6.7 C5.2,6.2 5.2,5.7 5.7,5.3 C6.2,4.9 6.8,4.9 7.2,5.1 C7.3,5.1 7.3,5.2 7.4,5.2 C8.5,6.2 11.2,7.9 11.7,8.1 C12.1,8.3 12.4,8.4 12.6,8.1 C12.9,7.6 12.7,7.4 13.1,6.1 C13.8,4 15.9,2.8 17.7,3.3 C20.2,4.1 20.4,5.6 20,8.3 C19.9,9.4 19.5,9.8 19.4,10.1 C19.2,10.7 20.2,10.8 20.2,10.8 C20.3,10.9 22.9,11.3 23.5,11.1 C23.8,11 25.4,8.5 26,7.6 C26.3,7.1 26.5,6.5 26.8,6.1 C27.3,5.4 28,5.2 28.6,5.5 C29.1,5.7 29.4,6.5 29.1,7.3 C28.7,8.4 28,9.4 27.5,10.4 C26.9,11.7 26.3,13 25.7,14.4 C25.2,15.6 24.6,16.7 24.4,17.9 C24.1,19.3 24,20.7 24.2,22.1 C24.4,24.4 25.8,25.6 27.9,26.4 C29.5,27 30.7,26.6 32,25.7 C34,24.3 35.3,22 35.5,21.4 C36.2,19.8 36.9,18.2 37.5,16.6 C38,15.3 38.5,13.9 38.9,12.5 C39.2,11.2 39.3,9.9 39.6,8.6 C39.7,8 40.1,7.7 40.8,7.8 C40.9,7.8 41.1,7.9 41.2,7.9 C42,7.9 42.4,8.3 42.3,9.1 C42.1,10.4 41.9,11.8 41.6,13.1 C41.5,13.7 41.3,14.2 41.2,14.8 C41.2,15.1 41,15.7 41.2,15.9 C41.5,16.3 45,17.7 45.4,16.7 C45.8,15.4 46.5,11.3 50,11.8 C52.1,12.1 53.1,13.8 53.3,16.1 C53.3,16.7 53.1,17.6 53.1,18.2 C53.1,18.5 53.3,18.8 53.6,18.8 C54.6,18.6 54.8,18.4 55.8,18.1 C56.6,17.9 57.5,18.1 57.8,18.7 C58,19.2 58.1,19.3 58.1,19.5 L58.1,19.5 Z" id="Shape" fill="#4A509C"></path>
                            <path d="M51.8,10 C56.6,11.7 58.4,18.5 58.1,19.5 C58.1,19.4 58,19.2 58,19.1 C57.6,18.4 56.8,18.2 56,18.5 C55.1,18.8 54.8,19 53.8,19.2 C53.5,19.3 53.2,18.9 53.3,18.6 C53.4,18 53.6,17.1 53.5,16.5 C53.3,14.1 52.3,12.5 50.2,12.2 C46.7,11.6 46,15.7 45.6,17.1 C45.3,18.1 41.8,16.6 41.4,16.3 C43.6,10 46.5,8.1 51.8,10 L51.8,10 Z" id="Shape" fill="#FFFFFF"></path>
                            <path d="M18.1,33.5 C18.8,34 18.8,34.9 18.2,35.5 C17.3,36.4 16.5,36.5 15.1,35.8 C13.8,35.1 12.5,34.5 11.2,33.7 C10.1,33 9.1,32.2 8.5,31 C8.4,30.9 8.2,30.7 8.1,30.7 C7.1,31.1 4.3,32.1 2.5,31.8 C0.4,31.5 0.4,29.8 1,29.4 C1.4,29.2 2,29 2.5,29 C4.7,29.2 6.4,28.4 7.8,26.7 C8.1,26.3 8.4,25.6 8.4,25.1 C8.4,24.3 8.2,23.5 8.1,22.7 C8.1,22.2 8.1,21.6 8.4,21.2 C9.1,20.3 10.5,20.6 11,21.7 C11.8,23.5 11.6,25.4 11,27.2 C10.7,28 10.5,28.7 11.1,29.4 C12.3,30.6 13.7,31.6 15.4,32.2 C16.4,32.5 17.3,33 18.1,33.5 L18.1,33.5 Z" id="Shape" fill="#4A509C"></path>
                            <path d="M23.7,11.4 C23.1,11.6 20.5,11.2 20.4,11.1 C20.4,11.1 19.4,10.9 19.6,10.4 C19.7,10.1 20,9.7 20.2,8.6 C20.6,5.9 20.3,4.3 17.9,3.6 C16.1,3 14,4.3 13.3,6.4 C12.8,7.7 13.1,7.9 12.8,8.4 C12.6,8.7 12.3,8.5 11.9,8.4 C11.4,8.2 8.7,6.5 7.6,5.5 C7.5,5.5 7.5,5.4 7.4,5.4 C8.1,4.5 10.6,2.1 11.4,1.6 C13.5,0.2 15.3,-0.1 17.8,0.4 C20.3,0.8 25.5,3.9 23.7,11.4 L23.7,11.4 Z" id="Shape" fill="#FFFFFF"></path>
                        </g>
                    </g>
                </g>
            </g>
        </g>
    </g>
</svg>