<?xml version="1.0" encoding="UTF-8" standalone="no"?>
<svg width="136px" height="94px" viewBox="0 0 136 94" version="1.1" xmlns="http://www.w3.org/2000/svg" xmlns:xlink="http://www.w3.org/1999/xlink">
    <!-- Generator: Sketch 3.7.2 (28276) - http://www.bohemiancoding.com/sketch -->
    <title>Group</title>
    <desc>Created with Sketch.</desc>
    <defs></defs>
    <g id="Page-1" stroke="none" stroke-width="1" fill="none" fill-rule="evenodd">
        <g id="Group">
            <path d="M107.2,63.8 C108.3,59.8 109,55.5 107.5,51.6 C107.3,51.2 107.1,50.8 106.9,50.5 C111.6,45.4 116.4,38.7 111.6,32.2 C109.6,29.5 106.6,27 103.5,25.9 C94.7,22.9 90.4,28.1 88,32.1 C80.1,32.4 76.4,25.1 67.8,21.5 C64.2,20 61.5,17.9 57.6,17.8 C56.2,13.5 54.1,10.5 49.3,7.3 C46.7,5.5 42.3,3 39.2,2.5 C35.8,2 30.5,3 27.7,4.7 C18.8,9.8 18.8,14.7 20,20.8 C17.8,21.3 11.3,20.5 9.4,22.4 C7.2,24.7 5.2,26.4 4.4,29.6 C3.8,32.3 3.9,35.6 4.5,38.3 C5.5,43 6.6,47.9 8.8,52.2 C10.2,54.9 11.4,55.3 9.9,58.2 C8.8,60.4 7.8,62.8 7.5,65.2 C6.7,71 10.4,73.9 14.7,77.1 C18.3,79.8 23.4,80.8 27.9,79.7 C28.3,80.4 28.8,81 29.3,81.7 C32.4,85.2 35,87.1 39.9,87.9 C45.8,88.8 49.1,89.1 53.8,85.4 C56.2,83.6 58.8,80.9 59.8,78 C59.9,78 60,78.1 60,78.1 C60.6,80.7 61.9,83.6 64.3,85 C66.9,86.6 71.5,85.6 74.2,84.4 C76.5,83.3 80,81.1 81.2,78.8 C81.2,78.8 81.2,78.7 81.3,78.7 C81.7,78.9 82,79.2 82.4,79.4 C86.1,81.8 90.3,84.1 94.9,83.7 C96.3,83.6 104.5,83.2 109.9,77.1 C111.7,75 115.3,66.8 107.2,63.8 L107.2,63.8 Z" id="Shape" fill="#E85A0C"></path>
            <path d="M3.5,56.5 C6.5,58.7 11.1,61.1 14.7,58.6 C14,60 14.7,62.5 14.9,64 C15.2,66.1 16.1,67.3 17.5,68.7 C20,71 22.6,71.5 26,70.9 C26.1,70.9 26.1,70.9 26.2,70.8 C27.4,81.2 39.4,87.6 49.8,83.2 C53.3,81.7 57.2,77.9 58.5,76.4 C58.8,76.1 59,76.2 59,76.4 C59.5,81.8 61.1,86.4 68.6,90.9 C77,95.9 87.8,93.1 92.6,85.1 C94.5,82 96.1,78.3 96.5,74.8 C98.7,75.2 100.9,75.1 103,74.7 C106.3,74 109.2,71.9 110.8,68.9 C111.8,67 112.8,65.2 113.9,63.4 C113.9,63.3 114,63.3 114,63.2 C117.5,59.9 119.3,56.4 119,51.1 C118.8,46.9 117.4,44.1 115.6,42.2 C112.8,38 108.6,36.3 103.5,36.1 C104.1,34.6 104.2,33.6 104.8,29.8 C107,17.5 94,8.2 82.2,12.4 C78.6,13.7 74.5,17.3 73.1,18.7 C72.8,19 72.6,18.8 72.6,18.6 C72.4,13.2 71.1,8.5 63.8,3.6 C55.7,-1.9 44.8,0.3 39.5,8 C38.1,10 36.9,12.2 36,14.5 C34.4,14.2 32.7,14 31.2,14.1 C27.8,14.2 24.8,16.7 23.1,19.6 C22.5,20.5 22.1,21.8 21.7,23.1 C20.4,22.6 18.9,22.4 17.5,22.5 C14.3,22.7 12.3,24.6 10.1,26.7 C7.8,28.9 7,31.4 7.8,34.6 C8,35.5 8.4,36.9 8.9,38.3 C4.7,39.9 1,44.1 0.3,48.6 C0.1,51.5 1.1,54.8 3.5,56.5 L3.5,56.5 Z" id="Shape" fill="#FFDC00"></path>
            <path d="M103.1,49.5 C103.2,50.1 102.9,50.9 102.4,51.3 C100.5,52.5 98.2,52.6 96,52.5 C92.9,52.4 88.2,51.1 86.2,49.9 C85.9,49.7 85.6,49.5 85.3,49.5 C85.2,49.5 84.9,49.7 84.8,49.9 C84.5,50.5 84.2,51.2 83.9,51.8 C82.6,54.9 80.7,57.5 77.8,59.2 C76.7,59.8 75.6,60.5 74.2,60.3 C73.4,60.2 72.6,59.7 71.8,59.5 C70,58.9 68.7,57.5 67.8,56 C66.8,54.4 66.1,52.6 66.4,50.6 C66.6,49.6 66.6,48.6 66.9,47.6 C67.2,46.7 67.4,45.9 67.2,44.9 C67.2,44.8 67,44.6 66.9,44.6 C65.6,44.5 64.7,43.9 63.4,43.9 C61.8,43.8 60.2,43.3 58.8,42.7 C56.8,41.9 54.9,40.9 53.2,39.4 C52.2,38.5 51.1,37.9 50.5,36.7 C50.2,36.2 50.2,35.7 50.7,35.3 C51.2,34.9 51.8,34.9 52.2,35.1 C52.3,35.1 52.3,35.2 52.4,35.2 C53.5,36.2 56.2,37.9 56.7,38.1 C57.1,38.3 57.4,38.4 57.6,38.1 C57.9,37.6 57.7,37.4 58.1,36.1 C58.8,34 60.9,32.8 62.7,33.3 C65.2,34.1 65.4,35.6 65,38.3 C64.9,39.4 64.5,39.8 64.4,40.1 C64.2,40.7 65.2,40.8 65.2,40.8 C65.3,40.9 67.9,41.3 68.5,41.1 C68.8,41 70.4,38.5 71,37.6 C71.3,37.1 71.5,36.5 71.8,36.1 C72.3,35.4 73,35.2 73.6,35.5 C74.1,35.7 74.4,36.5 74.1,37.3 C73.7,38.4 73,39.4 72.5,40.4 C71.9,41.7 71.3,43 70.7,44.4 C70.2,45.6 69.6,46.7 69.4,47.9 C69.1,49.3 69,50.7 69.2,52.1 C69.4,54.4 70.8,55.6 72.9,56.4 C74.5,57 75.7,56.6 77,55.7 C79,54.3 80.3,52 80.5,51.4 C81.2,49.8 81.9,48.2 82.5,46.6 C83,45.3 83.5,43.9 83.9,42.5 C84.2,41.2 84.3,39.9 84.6,38.6 C84.7,38 85.1,37.7 85.8,37.8 C85.9,37.8 86.1,37.9 86.2,37.9 C87,37.9 87.4,38.3 87.3,39.1 C87.1,40.4 86.9,41.8 86.6,43.1 C86.5,43.7 86.3,44.2 86.2,44.8 C86.2,45.1 86,45.7 86.2,45.9 C86.5,46.3 90,47.7 90.4,46.7 C90.8,45.4 91.5,41.3 95,41.8 C97.1,42.1 98.1,43.8 98.3,46.1 C98.3,46.7 98.1,47.6 98.1,48.2 C98.1,48.5 98.3,48.8 98.6,48.8 C99.6,48.6 99.8,48.4 100.8,48.1 C101.6,47.9 102.5,48.1 102.8,48.7 C103,49.2 103.1,49.3 103.1,49.5 L103.1,49.5 Z" id="Shape" fill="#4A509C"></path>
            <path d="M96.8,40 C101.6,41.7 103.4,48.5 103.1,49.5 C103.1,49.4 103,49.2 103,49.1 C102.6,48.4 101.8,48.2 101,48.5 C100.1,48.8 99.8,49 98.8,49.2 C98.5,49.3 98.2,48.9 98.3,48.6 C98.4,48 98.6,47.1 98.5,46.5 C98.3,44.1 97.3,42.5 95.2,42.2 C91.7,41.6 91,45.7 90.6,47.1 C90.3,48.1 86.8,46.6 86.4,46.3 C88.6,40 91.5,38.1 96.8,40 L96.8,40 Z" id="Shape" fill="#FFFFFF"></path>
            <path d="M63.1,63.5 C63.8,64 63.8,64.9 63.2,65.5 C62.3,66.4 61.5,66.5 60.1,65.8 C58.8,65.1 57.5,64.5 56.2,63.7 C55.1,63 54.1,62.2 53.5,61 C53.4,60.9 53.2,60.7 53.1,60.7 C52.1,61.1 49.3,62.1 47.5,61.8 C45.4,61.5 45.4,59.8 46,59.4 C46.4,59.2 47,59 47.5,59 C49.7,59.2 51.4,58.4 52.8,56.7 C53.1,56.3 53.4,55.6 53.4,55.1 C53.4,54.3 53.2,53.5 53.1,52.7 C53.1,52.2 53.1,51.6 53.4,51.2 C54.1,50.3 55.5,50.6 56,51.7 C56.8,53.5 56.6,55.4 56,57.2 C55.7,58 55.5,58.7 56.1,59.4 C57.3,60.6 58.7,61.6 60.4,62.2 C61.4,62.5 62.3,63 63.1,63.5 L63.1,63.5 Z" id="Shape" fill="#4A509C"></path>
            <path d="M68.7,41.4 C68.1,41.6 65.5,41.2 65.4,41.1 C65.4,41.1 64.4,40.9 64.6,40.4 C64.7,40.1 65,39.7 65.2,38.6 C65.6,35.9 65.3,34.3 62.9,33.6 C61.1,33 59,34.3 58.3,36.4 C57.8,37.7 58.1,37.9 57.8,38.4 C57.6,38.7 57.3,38.5 56.9,38.4 C56.4,38.2 53.7,36.5 52.6,35.5 C52.5,35.5 52.5,35.4 52.4,35.4 C53.1,34.5 55.6,32.1 56.4,31.6 C58.5,30.2 60.3,29.9 62.8,30.4 C65.3,30.8 70.5,33.9 68.7,41.4 L68.7,41.4 Z" id="Shape" fill="#FFFFFF"></path>
            <path d="M8,49.9 C9.6,50 10.7,49.2 12.8,48 C13.1,47.8 14.3,47.2 14.8,47.1 C15.3,47.1 15.1,47.3 14.9,47.7 C13.5,50.2 10.6,55.5 14.2,57.6 C18.5,60.1 18.5,53.6 20.9,51.6 C21.6,51 21.9,51.2 21.5,52.1 C20.8,54.1 19.7,55.2 20.1,59.4 C20.3,62.3 22,63.9 24,62.6 C26.1,61.2 26,59.4 26.1,58 C26.2,55.2 28.4,51.5 29.2,50.2 C31.6,46.3 34.3,43.4 37.3,41.9 C38.1,41.5 39.1,41.6 39.2,41 C39.3,40.8 39.2,40.4 36.6,40.2 C33.4,40 28.1,39 26.2,38.9 C19.7,38.3 11.2,37.3 6.3,42.5 C1.6,47.5 5.3,49.7 8,49.9 L8,49.9 Z" id="Shape" fill="#652381"></path>
            <path d="M115.8,81.4 C113.5,80.3 113.8,77.4 114.1,75.3 C114.3,74.2 114.5,73 114.3,71.9 C114.1,70.8 113.6,69.7 113.3,68.6 C112.6,66.3 111.1,64.5 109.3,63 C108.6,62.4 107.4,62.1 106.8,61.3 C106.1,60.4 107.6,60.4 108.2,60.4 C110.6,60.7 113.1,61.2 115.5,61.5 C118.2,61.8 120.8,62.4 123.5,62.5 C125.6,62.6 127.7,62.9 129.7,63.4 C130.8,63.7 131.8,64.2 132.9,64.6 C134,64.9 135,65.6 135.6,66.6 C136.9,68.6 133.8,69.8 132.3,69.9 C131.4,70 130.4,70 129.5,69.8 C129.1,69.7 128.6,69.7 128.2,69.6 C127.8,69.5 127.2,69.3 126.8,69.4 C127,69.7 127.4,70 127.7,70.2 C128.2,70.5 128.5,71 128.9,71.4 C129.6,72.1 130.2,73 130.7,73.8 C131.7,75.3 133.3,77.7 131.7,79.4 C130.2,81 127.4,79.4 126.2,78.2 C125.4,77.5 124.8,76.6 124.1,75.8 C123.7,75.4 123.3,75 122.9,74.6 C122.6,74.3 122.3,73.8 121.9,73.5 C121.8,73.8 121.8,74.4 121.8,74.8 C121.8,75.3 121.7,75.9 121.7,76.4 C121.5,77.6 121.2,78.6 120.6,79.6 C120.2,80.4 119.8,81.5 118.8,81.8 C117.7,82.3 117,81.9 115.8,81.4 C115.4,81.2 116.1,81.5 115.8,81.4 L115.8,81.4 Z" id="Shape" fill="#652381"></path>
        </g>
    </g>
</svg>