<?xml version="1.0" encoding="UTF-8" standalone="no"?>
<svg width="30px" height="22px" viewBox="0 0 30 22" version="1.1" xmlns="http://www.w3.org/2000/svg" xmlns:xlink="http://www.w3.org/1999/xlink">
    <!-- Generator: Sketch 3.7.2 (28276) - http://www.bohemiancoding.com/sketch -->
    <title>Shape</title>
    <desc>Created with Sketch.</desc>
    <defs></defs>
    <g id="Page-1" stroke="none" stroke-width="1" fill="none" fill-rule="evenodd">
        <g id="cloud_all" transform="translate(-483.000000, -99.000000)" fill="#652381">
            <g id="millmash_2_">
                <g id="millmash1" transform="translate(311.000000, 28.000000)">
                    <path d="M181.8,92.4 C179.5,91.3 179.8,88.4 180.1,86.3 C180.3,85.2 180.5,84 180.3,82.9 C180.1,81.8 179.6,80.7 179.3,79.6 C178.6,77.3 177.1,75.5 175.3,74 C174.6,73.4 173.4,73.1 172.8,72.3 C172.1,71.4 173.6,71.4 174.2,71.4 C176.6,71.7 179.1,72.2 181.5,72.5 C184.2,72.8 186.8,73.4 189.5,73.5 C191.6,73.6 193.7,73.9 195.7,74.4 C196.8,74.7 197.8,75.2 198.9,75.6 C200,75.9 201,76.6 201.6,77.6 C202.9,79.6 199.8,80.8 198.3,80.9 C197.4,81 196.4,81 195.5,80.8 C195.1,80.7 194.6,80.7 194.2,80.6 C193.8,80.5 193.2,80.3 192.8,80.4 C193,80.7 193.4,81 193.7,81.2 C194.2,81.5 194.5,82 194.9,82.4 C195.6,83.1 196.2,84 196.7,84.8 C197.7,86.3 199.3,88.7 197.7,90.4 C196.2,92 193.4,90.4 192.2,89.2 C191.4,88.5 190.8,87.6 190.1,86.8 C189.7,86.4 189.3,86 188.9,85.6 C188.6,85.3 188.3,84.8 187.9,84.5 C187.8,84.8 187.8,85.4 187.8,85.8 C187.8,86.3 187.7,86.9 187.7,87.4 C187.5,88.6 187.2,89.6 186.6,90.6 C186.2,91.4 185.8,92.5 184.8,92.8 C183.7,93.3 183,92.9 181.8,92.4 C181.4,92.2 182.1,92.5 181.8,92.4 L181.8,92.4 Z" id="Shape"></path>
                </g>
            </g>
        </g>
    </g>
</svg>