<?xml version="1.0" encoding="UTF-8" standalone="no"?>
<svg width="36px" height="26px" viewBox="0 0 36 26" version="1.1" xmlns="http://www.w3.org/2000/svg" xmlns:xlink="http://www.w3.org/1999/xlink">
    <!-- Generator: Sketch 3.7.2 (28276) - http://www.bohemiancoding.com/sketch -->
    <title>Shape</title>
    <desc>Created with Sketch.</desc>
    <defs></defs>
    <g id="Page-1" stroke="none" stroke-width="1" fill="none" fill-rule="evenodd">
        <g id="cloud_all" transform="translate(-381.000000, -77.000000)" fill="#652381">
            <g id="millmash_2_">
                <g id="millmash1" transform="translate(311.000000, 28.000000)">
                    <path d="M74,60.9 C75.6,61 76.7,60.2 78.8,59 C79.1,58.8 80.3,58.2 80.8,58.1 C81.3,58.1 81.1,58.3 80.9,58.7 C79.5,61.2 76.6,66.5 80.2,68.6 C84.5,71.1 84.5,64.6 86.9,62.6 C87.6,62 87.9,62.2 87.5,63.1 C86.8,65.1 85.7,66.2 86.1,70.4 C86.3,73.3 88,74.9 90,73.6 C92.1,72.2 92,70.4 92.1,69 C92.2,66.2 94.4,62.5 95.2,61.2 C97.6,57.3 100.3,54.4 103.3,52.9 C104.1,52.5 105.1,52.6 105.2,52 C105.3,51.8 105.2,51.4 102.6,51.2 C99.4,51 94.1,50 92.2,49.9 C85.7,49.3 77.2,48.3 72.3,53.5 C67.6,58.5 71.3,60.7 74,60.9 L74,60.9 Z" id="Shape"></path>
                </g>
            </g>
        </g>
    </g>
</svg>