<?xml version="1.0" encoding="UTF-8" standalone="no"?>
<svg width="106px" height="106px" viewBox="0 0 106 106" version="1.1" xmlns="http://www.w3.org/2000/svg" xmlns:xlink="http://www.w3.org/1999/xlink">
    <!-- Generator: Sketch 3.8.3 (29802) - http://www.bohemiancoding.com/sketch -->
    <title>logo</title>
    <desc>Created with Sketch.</desc>
    <defs></defs>
    <g id="Page-1" stroke="none" stroke-width="1" fill="none" fill-rule="evenodd">
        <g id="Brewing-Animation_Splash-Screen" transform="translate(-499.000000, -1285.000000)">
            <g id="logo" transform="translate(499.000000, 1285.000000)">
                <path d="M105.271,53.092 C105.271,82.094 81.765,105.591 52.771,105.591 C23.777,105.591 0.271,82.095 0.271,53.092 C0.271,24.089 23.777,0.592 52.771,0.592 C81.765,0.592 105.271,24.09 105.271,53.092 L105.271,53.092 Z" id="Shape" fill="#FFFFFF"></path>
                <path d="M29.865,41.832 C28.167,40.508 26.339,39.392 24.771,37.769 C23.628,36.586 22.442,35.183 23.351,33.707 C25.435,30.321 31.961,36.709 32.376,37.174 C32.629,37.459 33.04,37.936 33.293,37.741 C33.579,37.521 33.178,37.137 31.226,34.312 C30.266,32.92 29.275,31.526 28.478,29.979 C27.829,28.719 27.666,26.952 28.925,25.731 C30.742,23.969 32.851,25.231 34.213,26.705 C35.902,28.534 37.749,32.922 38.626,34.982 C40.422,39.204 40.969,41.161 41.956,44.627 C42.233,45.597 42.616,47.265 42.948,47.173 C43.149,47.117 43.352,46.135 43.193,44.552 C42.953,42.188 42.02,39.314 40.517,34.815 C39.752,32.523 37.618,26.65 35.063,24.344 C32.97,22.455 30.204,21.373 27.655,23.331 C23.707,26.365 26.704,30.637 26.775,30.748 C27.094,31.24 27.024,31.313 26.776,31.192 C26.002,30.812 24.63,30.416 23.494,30.501 C20.583,30.719 20.07,33.592 20.162,34.815 C20.314,36.821 23.118,38.45 24.493,39.399 C24.576,39.457 25.409,39.908 24.6,39.894 C22.352,39.856 21.387,41.232 20.973,43.17 C20.48,45.476 21.652,47.403 23.226,48.535 C26.016,50.539 34.276,52.727 39.418,58.17 C40.566,59.384 41.5,60.093 41.756,59.707 C42.012,59.322 41.409,58.427 40.054,56.862 C35.462,51.566 27.606,49.05 25.391,47.415 C24.174,46.516 23.338,45.373 23.52,43.499 C23.893,39.673 28.114,41.762 29.486,42.527 C29.84,42.716 30.494,43.056 30.628,42.861 C30.783,42.64 30.501,42.327 29.865,41.832 L29.865,41.832 Z" id="Shape" fill="#000000"></path>
                <path d="M61.239,10.144 C63.303,11.085 65.026,13.241 65.026,15.568 C65.026,17.164 64.728,18.526 63.678,20.495 C63.531,20.772 63.744,20.909 64.018,20.824 C64.979,20.525 65.833,20.197 66.836,20.178 C71.375,20.093 72.942,23.414 72.942,25.691 C72.942,29.452 69.025,31.815 66.634,33.655 C63.431,36.12 61.291,38.561 58.919,42.358 C57.242,45.042 55.624,47.991 55.787,51.218 C55.843,52.346 55.801,53.657 55.291,53.626 C54.778,53.594 54.73,52.076 54.694,51.615 C54.367,47.308 56.273,43.336 58.506,39.671 C59.703,37.709 61.614,35.102 63.988,32.884 C66.144,30.869 70.107,28.609 70.077,25.633 C70.059,23.814 68.83,22.255 65.889,22.383 C64.53,22.443 62.578,23.272 61.68,23.85 C60.62,24.531 60.28,24.909 59.521,25.603 C59.333,25.774 58.967,25.732 59.127,25.302 C59.399,24.569 59.941,23.851 60.32,23.126 C61.028,21.772 61.671,20.345 61.979,18.842 C62.339,17.089 62.373,14.751 60.897,13.506 C59.221,12.093 57.209,12.043 55.376,13.279 C53.849,14.31 52.643,15.88 51.815,17.512 C51.066,18.987 50.62,20.562 50.191,22.149 C50.035,22.722 49.41,22.776 49.531,22.062 C49.963,19.524 49.757,16.437 48.166,14.212 C47.303,13.006 45.818,12.325 44.353,12.294 C42.175,12.247 40.027,13.722 39.507,15.835 C38.896,18.315 39.949,20.793 41.022,23.034 C42.571,26.276 44.408,29.42 45.871,32.701 C47.443,36.228 48.662,40.109 49.121,43.939 C49.445,46.643 49.517,49.397 49.646,52.117 C49.769,54.678 49.848,57.277 49.881,59.808 C49.886,60.183 49.957,61.255 49.463,61.263 C48.974,61.27 48.932,60.292 48.9,59.898 C48.839,59.19 48.798,58.468 48.762,57.753 C48.565,53.721 48.222,49.69 47.673,45.687 C47.078,41.346 45.813,36.9 44.027,32.889 C42.636,29.766 40.767,26.856 39.277,23.786 C38.026,21.207 36.808,18.413 37.161,15.514 C37.511,12.64 40.025,10.379 42.781,9.782 C46.099,9.064 49.783,10.616 51.011,13.729 C51.188,14.176 51.424,14.1 51.651,13.768 C52.553,12.447 53.699,11.141 55.134,10.404 C57.227,9.331 59.238,9.232 61.239,10.144 L61.239,10.144 Z" id="Shape" fill="#000000"></path>
                <path d="M74.916,51.445 C76.899,50.832 84.012,49.686 84.72,47.663 C85.533,45.349 82.957,45.06 81.254,45.263 C80.055,45.407 78.817,45.664 77.738,46.016 C77.355,46.14 77.114,45.795 77.517,45.589 C79.017,44.792 80.63,44.245 81.993,43.244 C83.871,41.864 85.972,39.098 83.819,37.106 C83.161,36.496 82.132,36.409 81.256,36.48 C78.89,36.668 76.993,38.369 75.308,39.866 C75.043,40.1 74.552,40.51 74.362,40.32 C74.204,40.16 74.701,39.565 74.909,39.312 C75.99,38.002 79.746,33.58 77.125,32.145 C75.967,31.511 74.52,32.367 73.651,33.125 C71.948,34.616 70.364,36.294 68.805,37.936 C65.751,41.15 62.867,44.726 60.377,48.386 C60.105,48.787 59.492,49.874 59.194,49.82 C58.808,49.747 59.31,48.42 59.507,48.044 C61.071,45.031 62.856,42.087 65.023,39.444 C67.001,37.032 68.845,34.396 71.236,32.351 C73.359,30.537 76.432,28.288 79.106,30.15 C80.275,30.964 80.346,32.902 79.723,34.265 C79.513,34.723 79.918,34.707 80.171,34.615 C81.76,34.029 83.067,33.69 84.718,34.141 C87.191,34.816 88.836,37.836 87.725,40.167 C87.061,41.56 85.984,42.703 84.727,43.499 C84.469,43.663 84.435,43.768 84.715,43.81 C86.132,44.023 87.572,44.789 87.662,46.373 C87.757,48.04 87.203,49.534 85.671,50.28 C82.806,51.675 78.136,52.293 75.043,53.022 C70.064,54.196 66.354,56.823 64.949,58.009 C64.531,58.363 62.991,59.82 62.751,59.626 C62.34,59.295 63.651,57.847 63.969,57.527 C65.739,55.731 68.588,53.403 74.916,51.445 L74.916,51.445 Z" id="Shape" fill="#000000"></path>
                <path d="M31.283,66.118 C30.102,66.441 26.29,66.802 25.187,65.673 C23.56,64.008 25.32,62.536 26.521,62.059 C27.466,61.684 27.349,61.324 26.757,61.236 C25.567,61.06 23.949,60.881 23.342,59.548 C22.808,58.375 23.189,56.888 24.769,56.498 C27.068,55.93 30.604,57.347 31.948,58.012 C34.512,59.279 36.397,60.296 38.329,62.089 C39.145,62.848 39.524,63.527 39.837,63.338 C40.099,63.181 39.908,62.373 39.061,61.33 C37.875,59.87 35.032,57.473 32.005,55.959 C30.329,55.12 26.103,53.83 23.672,54.758 C22.436,55.229 21.456,56.304 21.278,57.549 C20.922,60.049 22.132,61.111 23.764,61.613 C24.146,61.731 24.115,61.86 23.853,62.027 C23.169,62.465 22.389,63.262 22.557,64.668 C22.789,66.614 24.344,67.617 26.075,68.002 C29.14,68.683 32.138,67.42 33.283,67.197 C36.802,66.517 38.34,66.932 39.553,67.805 C40.137,68.226 40.81,68.656 41.032,68.477 C41.27,68.286 41.059,67.713 40.335,67.077 C38.439,65.408 35.27,65.025 31.283,66.118 L31.283,66.118 Z" id="Shape" fill="#000000"></path>
                <path d="M27.635,74.108 C26.145,72.245 24.026,72.311 22.482,73.394 C19.52,75.473 19.462,79.525 19.464,80.487 C19.466,81.53 19.955,85.954 23.814,86.181 C26.232,86.324 27.355,85.371 28.056,84.395 C28.898,83.223 29.407,81.32 29.372,79.644 C29.317,77.054 28.483,75.168 27.635,74.108 L27.635,74.108 Z M24.449,75.928 C25.731,75.865 26.589,77.241 26.843,79.167 C27.111,81.195 26.433,82.576 25.354,83.093 C23.716,83.875 22.662,82.714 22.434,82.358 C21.962,81.619 21.676,80.301 22.004,78.79 C22.451,76.729 23.532,75.972 24.449,75.928 L24.449,75.928 Z" id="Shape" fill="#000000"></path>
                <path d="M58.916,77.108 C57.058,77.28 56.536,78.658 56.328,81.952 C56.138,84.934 56.664,95.065 56.696,95.482 C56.772,96.466 57.177,96.66 57.705,96.66 C58.336,96.66 58.456,95.994 58.491,95.518 C58.527,95.041 58.637,92.417 58.721,90.573 C58.726,90.47 58.72,90.298 58.907,90.383 C59.307,90.563 60.19,91.142 61.674,91.149 C62.796,91.154 64.538,90.546 65.248,88.757 C66.431,85.784 65.295,81.045 62.949,78.804 C61.969,77.864 60.121,76.997 58.916,77.108 L58.916,77.108 Z M59.261,87.533 C58.871,86.318 58.783,82.181 59.171,80.716 C59.32,80.153 59.398,79.866 59.737,79.773 C60.173,79.655 60.669,80.073 60.954,80.364 C62.362,81.789 63.209,84.718 62.818,87.01 C62.613,88.21 61.747,88.644 60.839,88.642 C59.842,88.639 59.436,88.077 59.261,87.533 L59.261,87.533 Z" id="Shape" fill="#000000"></path>
                <path d="M74.561,76.944 C74.343,76.372 73.923,75.773 73.175,75.91 C72.417,76.047 72.523,76.976 72.628,77.597 C73.008,79.819 73.618,81.093 73.59,83.306 C73.566,85.178 73.098,86.81 71.787,86.828 C70.379,86.849 69.6,85.012 69.569,83.284 C69.54,81.64 69.711,79.266 69.851,78.181 C70.004,76.981 69.731,76.651 69.254,76.537 C68.255,76.3 67.883,77.408 67.777,77.709 C67.426,78.701 67.127,81.07 66.997,82.578 C66.807,84.787 67.216,86.688 67.897,87.751 C68.763,89.103 70.543,89.73 71.806,89.626 C75.122,89.353 75.948,86.612 76.12,84.727 C76.371,82.015 75.251,78.755 74.561,76.944 L74.561,76.944 Z" id="Shape" fill="#000000"></path>
                <path d="M50.94,71.162 C50.94,72.038 51.453,74.847 52.279,74.847 C53.029,74.847 53.67,72.187 53.67,71.182 C53.67,70.519 53.489,69.112 52.298,69.112 C51.029,69.111 50.94,70.633 50.94,71.162 L50.94,71.162 Z" id="Shape" fill="#000000"></path>
                <path d="M37.289,85.96 C36.818,86.016 36.566,86.28 36.149,86.575 C35.045,87.391 34.331,87.29 33.636,86.928 C32.678,86.428 32.658,85.234 32.749,84.617 C32.761,84.527 32.832,84.468 32.995,84.596 C33.499,84.992 34.229,85.417 35.084,85.508 C36.634,85.671 37.936,84.789 38.285,83.368 C38.653,81.882 38.765,79.477 37.379,77.459 C36.763,76.562 35.496,75.785 34.408,75.825 C33.198,75.87 31.949,76.968 31.236,79.113 C30.158,82.352 29.316,87.858 33.192,89.371 C34.503,89.882 36.157,89.534 37.243,88.748 C39.157,87.361 38.732,85.787 37.289,85.96 L37.289,85.96 Z M35.696,79.432 C35.98,80.074 36.107,80.662 36.148,81.244 C36.187,81.795 36.164,83.06 34.996,83.193 C34.032,83.302 33.636,82.792 33.531,81.955 C33.381,80.757 33.579,79.658 33.966,79.012 C34.454,78.194 35.292,78.515 35.696,79.432 L35.696,79.432 Z" id="Shape" fill="#000000"></path>
                <path d="M52.354,77.472 C51.861,77.492 50.972,77.747 50.877,78.721 C50.789,79.627 51.42,89.159 51.625,90.233 C51.659,90.417 51.775,91.194 52.277,91.184 C52.768,91.175 52.892,90.285 52.911,90.208 C52.983,89.884 53.731,81.372 53.744,78.862 C53.749,77.665 52.845,77.453 52.354,77.472 L52.354,77.472 Z" id="Shape" fill="#000000"></path>
                <path d="M48.665,73.823 C48.617,72.463 48.319,71.891 47.584,71.918 C46.76,71.946 46.497,72.629 46.495,73.793 C46.491,75.499 46.481,76.495 46.427,77.347 C46.422,77.434 46.406,77.413 46.333,77.372 C45.958,77.152 45.505,77.138 45.195,77.148 C43.523,77.207 42.007,79.244 41.382,80.319 C39.534,83.493 39.062,86.932 40.351,89.058 C41.649,91.196 44.765,92.041 46.468,89.996 C46.513,90.171 46.497,90.192 46.553,90.406 C46.666,90.836 46.98,91.074 47.718,91.048 C48.566,91.019 48.699,90.72 48.764,90.295 C48.941,89.141 48.683,74.331 48.665,73.823 L48.665,73.823 Z M44.574,88.441 C43.412,89.007 42.379,88.021 42.38,86.531 C42.382,84.557 43.573,82.288 44.295,81.031 C44.71,80.308 45.558,79.477 46.097,79.75 C46.396,79.899 46.491,80.486 46.525,81.493 C46.606,83.854 45.945,87.774 44.574,88.441 L44.574,88.441 Z" id="Shape" fill="#000000"></path>
                <path d="M85.058,80.097 C83.841,79.1 82.115,78.605 80.652,76.705 C80.11,76.001 80.154,74.594 81.883,74.693 C82.643,74.736 82.944,75.272 83.302,75.71 C83.75,76.256 85.601,75.778 84.389,74.062 C83.93,73.411 82.956,72.619 81.195,72.592 C79.234,72.565 77.305,73.783 77.803,76.501 C78.064,77.926 78.913,78.878 80.596,80.203 C82.588,81.773 83.034,81.942 83.061,82.839 C83.084,83.678 82.268,83.965 81.654,83.95 C80.221,83.917 79.618,82.951 79.444,82.231 C79.22,81.31 77.671,81.196 77.549,82.286 C77.5,82.736 77.543,83.096 77.681,83.485 C77.971,84.3 79.165,86.064 82.118,86.234 C85.813,86.447 88.409,82.842 85.058,80.097 L85.058,80.097 Z" id="Shape" fill="#000000"></path>
                <path d="M70.809,68.952 C68.978,68.146 67.227,68.505 65.445,69.286 C65.217,69.417 64.8,69.631 64.603,69.433 C63.955,68.785 66.213,67.715 66.723,67.593 C67.641,67.375 68.577,67.303 69.513,67.447 C70.748,67.635 73.022,69.237 73.987,67.698 C74.425,66.999 74.036,66.36 73.459,65.906 C73.001,65.545 72.544,65.151 72.083,64.798 C71.596,64.425 71.766,64.021 72.368,64.335 C74.031,65.198 76.867,65.996 78.31,64.273 C78.845,63.635 79.124,62.961 78.728,62.198 C78.405,61.576 77.721,61.15 77.124,60.773 C76.769,60.549 76.575,60.08 77.205,60.213 C78.706,60.528 80.407,60.309 81.899,59.735 C82.869,59.362 83.831,58.303 83.576,57.179 C83.255,55.763 81.382,55.771 80.274,56.016 C78.911,56.318 77.593,56.809 76.281,57.307 C74.679,57.913 73.052,58.473 71.58,59.337 C69.647,60.472 67.749,61.652 66.078,63.153 C65.325,63.829 64.623,64.569 63.932,65.319 C63.763,65.505 63.241,66.144 63.077,66.045 C62.678,65.802 63.799,64.214 64.111,63.825 C64.811,62.949 65.59,62.085 66.43,61.368 C67.51,60.446 68.713,59.597 69.896,58.774 C72.532,56.938 75.364,55.457 78.463,54.621 C79.63,54.306 80.824,54.07 82.03,53.992 C84.048,53.859 85.805,55.322 85.794,57.406 C85.783,59.149 84.884,60.654 83.194,61.163 C82.042,61.511 80.922,61.377 79.728,61.271 C79.302,61.233 79.436,61.357 79.595,61.462 C80.829,62.268 81.18,63.526 80.517,64.794 C79.753,66.254 77.817,66.503 76.334,66.252 C75.953,66.187 75.571,66.094 75.191,65.999 C74.743,65.89 74.707,66.047 74.924,66.168 C75.764,66.64 76.253,67.509 75.804,68.434 C75.456,69.151 74.658,69.694 73.862,69.666 C72.804,69.629 71.788,69.385 70.809,68.952 L70.809,68.952 Z" id="Shape" fill="#000000"></path>
            </g>
        </g>
    </g>
</svg>