<?xml version="1.0" encoding="UTF-8" standalone="no"?>
<svg width="106px" height="106px" viewBox="0 0 106 106" version="1.1" xmlns="http://www.w3.org/2000/svg" xmlns:xlink="http://www.w3.org/1999/xlink">
    <g id="Page-1" stroke="none" stroke-width="1" fill="none" fill-rule="evenodd">
        <g id="Brewing-Animation_Splash-Screen" transform="translate(-499.000000, -1285.000000)">
            <g id="Layer_1">
                <g id="splash-screen" transform="translate(288.000000, 1200.000000)">
                    <g id="logo" transform="translate(211.000000, 85.000000)">
                        <path d="M105.942,53.364 C105.942,82.367 82.436,105.863 53.442,105.863 C24.448,105.863 0.942,82.367 0.942,53.364 C0.942,24.362 24.448,0.864 53.442,0.864 C82.436,0.864 105.942,24.362 105.942,53.364 L105.942,53.364 Z" id="Shape" fill="#FFFFFF"></path>
                        <path d="M39.938,32.294 C38.631,30.654 37.551,28.515 36.96,27.386 C36.752,27 37.018,26.607 37.399,26.56 C39.695,26.298 41.17,31.383 42.4,30.899 C43.504,30.075 40.904,26.719 41.548,24.966 C41.697,24.541 42.087,24.865 42.671,25.627 C44.035,27.667 45.01,29.359 45.797,31.673 C46.239,32.996 47.462,37.919 47.959,38.817 C48.103,39.069 48.63,39.462 48.644,39.25 C48.672,38.595 48.322,35.564 48.085,34.445 C47.575,32.07 46.469,28.869 45.243,26.743 C44.393,25.257 43.362,23.25 41.543,22.762 C38.778,22.038 39.546,24.562 39.95,26.33 C39.003,25.573 36.141,23.993 35.448,25.58 C34.797,27.073 35.915,29.147 36.696,30.336 C35.962,30.145 34.471,29.409 33.824,30.083 C33.164,30.76 33.211,32.256 33.799,32.999 C35.463,35.066 41.146,38.542 42.057,39.116 C43.139,39.816 44.239,40.688 45.166,41.57 C46.68,43.011 47.103,43.983 48.288,45.733 C48.441,45.967 49.077,46.588 49.01,45.723 C48.771,42.444 45.452,40.017 42.704,38.141 C40.94,36.951 34.505,33.744 34.758,31.107 C34.787,30.79 35.089,30.839 35.239,30.894 C36.705,31.431 37.913,32.455 39.296,33.208 C39.693,33.418 40.185,32.599 39.938,32.294 L39.938,32.294 Z" id="Shape" fill="#000000"></path>
                        <path d="M63.313,12.927 C64.926,14.245 62.756,17.476 62.508,18.963 C63.958,17.38 67.389,14.877 69.021,17.634 C70.52,20.184 68.233,23.794 66.664,25.722 C65.155,27.565 63.241,29.199 61.978,31.222 C61.645,31.766 59.573,34.398 58.509,41.631 C58.472,41.835 57.855,41.671 57.823,41.368 C57.391,37.572 59.259,32.919 61.158,30.024 C62.331,28.232 63.779,26.41 65.234,24.849 C66.382,23.611 68.152,20.444 67.357,18.767 C66.436,16.849 62.42,20.773 61.924,21.281 C60.823,22.397 59.822,23.667 59.496,23.589 C59.178,23.527 59.829,21.667 60.053,20.847 C60.257,20.084 62.073,15.33 61.588,14.915 C60.514,15.27 59.721,16.508 57.951,19.025 C57.211,20.085 56.516,21.055 56.186,20.765 C54.897,19.667 56.315,16.494 56.516,15.883 C57.333,13.409 58.984,11.339 57.106,10.452 C52.947,9.791 51.538,15.689 51.585,19.509 C51.593,20.383 53.255,30.088 53.648,31.949 C54.41,35.523 55.099,38.9 54.28,42.387 C54.081,43.217 53.893,44.047 53.678,44.891 C53.488,45.666 52.947,44.793 52.871,44.389 C52.701,43.508 53.261,42.385 53.386,41.506 C53.536,40.443 53.57,39.373 53.547,38.305 C53.472,34.289 52.088,30.342 51.357,26.4 C50.665,22.702 49.675,18.802 50.919,15.106 C51.845,12.336 53.953,8.363 57.389,8.498 C58.772,8.549 59.284,9.05 59.435,10.356 C59.546,11.377 59.407,12.234 58.999,13.167 C58.824,13.568 56.725,18.593 57.098,18.083 C57.979,16.862 61.537,11.483 63.313,12.927 L63.313,12.927 Z" id="Shape" fill="#000000"></path>
                        <path d="M63.103,66.533 C61.29,66.404 60.767,66.543 59.756,67.051 C59.652,67.104 59.318,66.848 59.626,66.449 C60.694,65.103 61.213,65.193 62.897,65.275 C64.467,65.369 66.674,65.015 67.432,63.613 C66.926,63.172 63.79,62.185 65.436,61.246 C65.922,60.959 67.239,61.309 67.872,61.152 C68.465,61.002 69.686,60.634 69.972,60.027 C70.763,58.371 68.081,58.652 67.37,58.068 C66.022,56.937 69.382,56.703 70.159,56.187 C70.62,55.882 71.284,55.351 70.841,54.888 C69.457,53.457 65.381,55.941 63.063,58.046 C59.391,61.405 57.676,66.482 56.921,66.29 C55.878,66.038 59.771,59.726 61.496,57.839 C63.108,56.089 64.974,54.761 66.829,53.939 C68.13,53.369 70.62,52.736 71.715,54.14 C73.028,55.841 71.009,56.964 69.152,57.603 C70.743,57.96 71.302,58.943 71.42,59.326 C71.643,60.027 70.943,61.98 69.028,62.326 C68.42,62.431 67.798,62.281 67.673,62.385 C69.337,62.84 70.159,63.924 66.971,65.553 C67.278,65.398 65.003,66.652 63.103,66.533 L63.103,66.533 Z" id="Shape" fill="#000000"></path>
                        <path d="M54.255,59.379 C53.604,57.203 56.673,53.069 62.919,50.814 C69.156,48.558 74.003,46.132 71.956,45.046 C70.011,44.895 69.083,45.675 67.511,45.995 C66.365,46.238 65.543,45.871 66.616,44.916 C68.803,42.992 71.538,40.807 72.879,37.998 C73.102,37.539 73.544,36.289 72.472,36.399 C70.848,36.594 69.512,37.575 68.237,38.615 C66.984,39.658 65.619,40.891 65.151,40.859 C64.675,40.843 64.877,40.097 65.744,37.846 C66.652,35.772 66.857,34.996 67.264,33.722 C67.742,31.819 66.201,32.452 65.572,33.209 C64.54,34.45 63.982,35.686 63.54,37.248 C62.697,40.171 61.987,43.093 60.743,45.872 C60.139,47.205 59.562,48.643 58.748,49.866 C58.322,50.494 57.884,51.074 57.337,51.638 C57.014,51.974 56.26,51.97 56.579,51.405 C57.948,49.041 59.513,46.646 60.386,44.037 C61.384,41.069 61.644,37.879 62.857,34.96 C63.604,33.164 65.547,29.986 67.928,30.999 C70.526,32.093 67.975,36.033 67.368,37.68 C68.621,36.82 70.255,35.46 71.721,35.02 C73.546,34.492 75.39,35.425 75.287,36.922 C75.085,39.843 71.561,42.041 69.829,44.071 C70.96,43.794 72.1,43.406 73.231,43.883 C73.829,44.141 74.343,44.558 74.817,45.011 C75.418,45.588 73.778,47.426 71.011,48.793 C70.648,48.964 67.362,50.338 66.78,50.547 C66.065,50.803 60.929,52.746 57.705,55.465 C55.061,57.264 54.972,60.428 54.255,59.379 L54.255,59.379 Z" id="Shape" fill="#000000"></path>
                        <path d="M45.166,57.871 C43.567,54.793 41.492,53.472 38.648,52.478 C36.729,51.732 35.299,51.774 35.142,50.046 C34.976,48.201 37.653,48.598 39.009,49.567 C39.238,49.727 40.497,50.504 40.799,50.13 C40.902,49.991 40.705,49.299 39.872,48.708 C38.799,47.973 37.668,46.757 38.11,45.169 C38.601,43.417 40.695,43.53 41.808,44.502 C43.05,45.577 43.913,46.745 45.363,48.953 C47.47,52.182 47.341,54.474 48.06,57.349 C48.18,57.814 48.473,58.085 48.49,57.828 C48.537,56.857 48.313,52.865 47.469,50.849 C46.448,48.399 44.001,44.174 41.682,42.717 C40.398,41.928 38.707,41.785 37.604,42.717 C35.162,44.807 37.723,47.055 37.002,47.212 C35.859,47.465 33.623,48.121 33.775,50.24 C33.984,53.203 38.55,52.896 41.343,54.754 C42.858,55.768 43.948,57.459 44.999,59.82 C46.102,62.295 45.338,64.527 45.107,66.392 C45.081,66.626 45.288,68.478 45.563,67.685 C47.141,63.168 47.006,61.402 45.166,57.871 L45.166,57.871 Z" id="Shape" fill="#000000"></path>
                        <path d="M51.591,81.344 C51.537,81.217 51.401,81.207 51.319,81.199 C51.298,81.197 51.283,81.197 51.262,81.193 C51.195,81.166 51.128,81.193 51.063,81.24 L49.76,82.22 C49.72,82.064 49.128,80.695 49.117,80.333 C49.089,77.341 49.332,74.577 49.312,71.618 C49.292,68.792 49.282,64.639 49.247,61.764 C49.246,61.528 48.464,60.889 48.386,60.909 C48.309,60.942 48.24,61.003 48.215,61.089 C48.088,61.476 48.029,61.755 48.029,62.136 C48.029,64.021 47.99,70.74 47.935,71.728 C47.768,71.714 47.397,71.658 47.238,71.658 C46.086,71.658 45.211,72.137 44.704,73.054 C42.927,76.294 42.504,79.511 43.466,82.599 C43.725,83.449 44.288,83.925 45.01,83.925 C45.569,83.925 46.163,83.654 46.735,83.114 C47.19,82.704 47.505,82.184 47.821,81.678 C47.861,81.61 47.909,81.526 47.956,81.459 C47.981,81.525 48.008,81.609 48.034,81.678 C48.208,82.178 48.387,82.69 48.595,83.196 C48.753,83.575 48.975,83.803 49.348,83.803 C49.645,83.803 49.88,83.674 50.273,83.42 C50.417,83.342 51.528,82.645 51.681,82.24 C51.783,81.973 51.754,81.672 51.591,81.344 L51.591,81.344 Z M47.744,77.98 C47.861,79.043 47.262,80.236 46.393,81.503 C46.255,81.821 45.935,81.933 45.693,81.933 C45.393,81.933 45.134,81.781 45.001,81.527 C44.675,80.941 44.365,80.297 44.426,79.714 C44.63,77.827 44.847,75.878 45.949,74.081 C46.004,73.985 46.054,73.888 46.104,73.806 C46.315,73.396 46.466,73.142 46.83,73.142 C46.877,73.142 46.926,73.146 46.976,73.15 C47.605,73.248 47.701,73.668 47.65,74.423 C47.646,74.484 47.654,77.293 47.744,77.98 L47.744,77.98 Z" id="Shape" fill="#000000"></path>
                        <path d="M33.93,75.871 C33.94,75.045 32.981,71.517 32.944,71.404 C32.497,69.662 31.729,68.175 30.399,67.91 C29.708,67.765 29.034,68.283 28.448,69.058 C27.202,70.71 26.53,72.603 26.325,75.007 C26.315,75.142 26.211,76.011 26.175,76.32 C25.986,78.383 26.985,79.818 29.236,81.416 C29.586,81.672 30.035,81.811 30.519,81.811 L30.519,81.811 C32.112,81.754 33.091,80.024 33.16,79.922 C33.936,78.689 33.927,76.09 33.93,75.871 L33.93,75.871 Z M28.324,72.137 C28.887,70.887 29.183,70.451 30.066,69.516 C30.276,69.883 30.494,70.237 30.699,70.584 C31.217,71.453 31.707,72.273 32.061,73.105 C32.936,75.197 32.78,76.943 31.593,78.992 C31.339,79.422 30.736,79.883 30.557,79.883 C30.053,79.863 29.111,79.512 28.811,79.164 C26.78,76.83 27.762,73.402 28.324,72.137 L28.324,72.137 Z" id="Shape" fill="#000000"></path>
                        <path d="M41.055,81.938 C41.031,81.877 40.978,81.831 40.909,81.819 C40.851,81.811 40.371,81.657 40.191,81.673 C39.363,81.782 38.658,81.204 38.131,80.343 C37.705,79.669 37.515,79.087 37.648,77.116 C38.034,77.22 38.607,77.47 38.936,77.47 C39.993,77.47 40.707,76.945 41.004,75.935 C41.47,74.331 40.62,72.113 39.245,71.363 C38.888,71.164 38.429,71.068 37.85,71.068 C37.641,71.068 37.416,71.091 37.165,71.109 C36.908,71.142 36.833,71.463 36.703,72.134 C36.677,72.273 36.447,74.116 36.262,74.63 C36.137,74.958 36.004,75.189 35.465,75.153 C35.385,75.149 35.336,75.255 35.335,75.344 C35.334,75.416 35.375,75.5 35.451,75.522 C36.13,75.813 36.209,76.221 36.183,76.698 C36.167,76.913 36.155,78.505 36.154,78.78 C36.142,80.18 36.654,80.546 37.417,81.569 C37.809,82.11 38.835,82.987 39.58,82.987 C39.835,82.987 40.113,82.948 40.41,82.883 C40.631,82.832 40.98,82.19 41.027,82.131 C41.063,82.076 41.078,82.012 41.055,81.938 L41.055,81.938 Z M39.182,75.734 C39.131,75.771 39.057,75.783 38.959,75.783 C38.732,75.783 38.447,75.711 38.193,75.627 L38.086,75.606 C38.015,75.569 37.754,75.358 37.759,75.274 C37.833,74.534 38.113,72.444 38.14,72.237 C39.106,72.647 39.703,73.518 39.784,74.747 C39.805,75.045 39.494,75.557 39.182,75.734 L39.182,75.734 Z" id="Shape" fill="#000000"></path>
                        <path d="M60.577,71.066 C60.385,71.066 60.231,71.111 60.126,71.201 C60.03,71.269 59.933,71.351 59.843,71.418 C59.136,71.969 57.076,76.072 57.083,76.59 C57.084,76.653 57.085,76.733 57.084,76.797 C57.081,78.377 57.077,79.957 57.074,81.522 C57.061,83.319 57.057,85.116 57.053,86.913 C57.053,87.243 57.06,87.561 57.074,87.872 C57.078,88.065 57.082,88.243 57.085,88.436 C57.103,89.149 57.111,89.862 57.127,90.575 C57.158,92.45 57.19,94.417 57.254,96.329 C57.261,96.686 57.364,97.032 57.465,97.354 C57.511,97.499 57.55,97.649 57.59,97.778 C57.6,97.85 57.641,97.882 57.691,97.915 C57.719,97.925 57.75,97.931 57.781,97.931 C57.805,97.931 57.829,97.929 57.852,97.923 C57.95,97.902 58.038,97.862 58.134,97.823 C58.206,97.807 58.26,97.751 58.281,97.669 C58.289,97.626 58.306,97.597 58.316,97.552 C58.357,97.445 58.394,97.312 58.395,97.189 L58.431,95.423 C58.468,93.044 58.513,90.577 58.525,88.14 L58.536,87.677 C58.545,86.138 58.56,84.579 58.563,83.001 C58.726,83.085 58.899,83.165 59.06,83.257 C59.462,83.47 59.873,83.702 60.33,83.763 C60.393,83.771 60.467,83.773 60.541,83.773 L60.541,83.773 C61.699,83.773 63.215,82.484 63.789,81.003 C65.052,77.716 64.471,74.579 62.074,71.669 C61.78,71.314 61.055,71.066 60.577,71.066 L60.577,71.066 Z M58.564,82.135 C58.564,80.887 58.551,79.623 58.539,78.383 C58.512,76.42 59.279,74.733 60.029,73.346 C60.261,72.907 60.491,72.694 60.705,72.694 C60.879,72.694 61.079,72.813 61.294,73.061 C62.832,74.793 63.64,78.381 62.409,80.594 C61.819,81.66 61.483,81.93 60.768,81.93 C60.566,81.93 60.319,81.914 60.024,81.864 C59.958,81.856 59.896,81.837 59.825,81.837 C59.571,81.837 59.315,81.917 59.064,81.98 C58.93,82.023 58.801,82.062 58.675,82.08 C58.63,82.082 58.594,82.113 58.564,82.135 L58.564,82.135 Z" id="Shape" fill="#000000"></path>
                        <path d="M80.003,76.439 C79.274,75.931 78.463,75.519 77.687,75.115 C77.434,74.994 77.181,74.857 76.929,74.734 C75.847,74.162 75.241,73.42 75.138,72.554 C75.046,71.726 75.44,70.792 76.214,69.986 C76.456,70.129 76.467,70.371 76.386,70.591 C76.208,71.062 75.993,71.663 76.49,72.237 C76.563,72.327 76.689,72.337 76.774,72.276 C77.878,71.463 77.717,70.163 76.747,68.421 C76.72,68.37 76.689,68.323 76.638,68.29 C76.585,68.274 76.521,68.274 76.468,68.288 C75.111,68.841 74.593,69.343 74.058,70.833 C73.405,72.677 73.956,75.114 76.007,75.866 C76.611,76.079 77.159,76.499 77.696,76.909 C77.889,77.055 78.079,77.206 78.276,77.35 C78.559,77.553 78.714,77.766 78.713,77.961 C78.712,78.174 78.509,78.348 78.337,78.475 C76.894,79.457 75.595,79.866 74.229,79.768 C73.958,79.754 73.703,79.879 73.465,80.014 C73.364,80.067 73.277,80.118 73.183,80.143 C73.101,80.182 73.049,80.272 73.052,80.366 L73.072,80.686 C73.075,80.774 73.127,80.84 73.204,80.877 C73.384,80.941 73.564,81.037 73.752,81.137 C74.158,81.342 74.574,81.555 75.003,81.555 C75.032,81.555 75.062,81.553 75.099,81.553 C77.002,81.405 78.768,80.647 80.199,79.369 C80.675,78.945 80.924,78.398 80.891,77.863 C80.851,77.311 80.538,76.805 80.003,76.439 L80.003,76.439 Z" id="Shape" fill="#000000"></path>
                        <path d="M70.622,72.453 C70.481,71.973 69.768,71.566 69.357,71.58 C69.258,71.6 69.159,71.672 69.162,71.771 C69.175,71.878 69.148,72.556 69.252,72.755 C70.281,74.696 70.001,76.792 69.726,78.808 C69.726,78.808 69.667,79.372 69.663,79.527 C69.637,80.263 69.564,80.597 69.052,80.64 C68.907,80.579 68.568,80.011 68.309,79.316 C67.592,77.42 67.546,75.404 67.566,73.318 C67.568,73.037 66.957,72.369 66.897,72.275 C66.851,72.218 66.778,72.179 66.702,72.183 C66.627,72.189 66.565,72.236 66.536,72.298 C66.488,72.398 66.048,73.146 66.052,73.444 C66.08,74.79 66.183,76.161 66.283,77.469 L66.304,77.754 C66.42,79.367 67.031,80.85 68.108,82.141 C68.568,82.696 69.033,82.985 69.492,82.985 L69.492,82.985 C70.664,82.985 71.023,81.192 71.031,80.905 C71.052,80.426 71.405,76.489 71.238,74.6 C71.2,74.125 70.771,72.951 70.622,72.453 L70.622,72.453 Z" id="Shape" fill="#000000"></path>
                        <path d="M54.425,73.223 C54.365,73.2 54.289,73.202 54.231,73.243 C53.647,73.565 53.366,73.886 53.395,74.196 C53.52,75.421 53.54,76.682 53.552,77.884 C53.578,79.78 53.614,81.734 54.032,83.655 C54.053,83.731 54.128,83.809 54.213,83.815 C54.218,83.817 54.232,83.817 54.237,83.817 C54.337,83.817 54.421,83.754 54.443,83.655 C55.231,80.221 54.935,76.842 54.544,73.399 C54.538,73.318 54.492,73.26 54.425,73.223 L54.425,73.223 Z" id="Shape" fill="#000000"></path>
                        <path d="M54.262,71.787 C54.306,71.787 54.794,71.424 54.775,71.349 L54.318,69.14 C54.296,69.036 54.207,68.954 54.101,68.958 L53.493,69.003 C53.384,69.009 53.293,69.103 53.293,69.212 C53.293,69.396 53.26,70.648 53.335,71.103 C53.369,71.354 54.064,71.787 54.262,71.787 L54.262,71.787 Z" id="Shape" fill="#000000"></path>
                    </g>
                </g>
            </g>
        </g>
    </g>
</svg>