<svg xmlns="http://www.w3.org/2000/svg" width="151" height="146" viewBox="0 0 151 146"><title>Imported Layers Copy 13</title><g fill="none" fill-rule="evenodd"><path d="M137.907 95.72c-3.22-.15-6.91 1.447-11.875 10.02-1.666 2.883-1.208 4.994-.877 6.536.137.674.23 1.14.178 1.608-.256-.215-.51-.404-.752-.607-2.624-2.156-4.71-3.832-5.226-7.087l-.353.045c4.14-5.108 8.155-10.614 11.09-16.368.9 1.24 1.82 2.4 3.028 3.415.725.608 1.55 1.156 2.515 1.624.606.29 1.41.575 2.275.815m-42.602 28.757c7.76-2.92 15.055-7.887 21.316-15.35l.038-.042c.997 2.538 2.772 4.295 4.65 5.87l1.138.956c.282.213.553.44.837.68-1.125.88-2.13 1.007-3.503 1.17-2.235.263-5.005.59-9.242 3.82-7.52 5.723-8.502 8.57-9.282 10.857-.24.72-.458 1.27-.86 1.833-.512-.75-1.05-1.493-1.647-2.285-2.367-3.104-3.95-5.405-3.445-7.51m47.706-52.287c.356-.018.68-.087 1.006-.13-2.463 1.29-5.35 3.633-5.826 10.527-.293 4.132 1.685 6.57 3.12 8.357.87 1.07 1.405 1.763 1.47 2.523-.337-.09-.7-.175-1.08-.274-1.616-.38-3.637-.86-4.587-1.32-2.26-1.09-3.448-2.794-4.955-4.96l-.405-.556c1.62-3.867 2.706-7.82 2.945-11.8.042-.89.056-1.8.044-2.71 2.703.273 5.484.54 8.266.346" fill="#FFD03E"/><path d="M114.032 106.954c-6.19 7.376-13.476 12.13-21.22 14.8-18.05 6.2-38.625 1.02-53.78-9.12-1.107-.76-2.194-1.574-3.204-2.42-19.348-16.237-20.08-51.134-1.548-73.22 19.455-23.184 53.28-26.92 75.446-8.32 13.4 11.245 22.486 30.465 21.606 45.7-.686 11.363-9.123 22.834-17.3 32.58" fill="#FFF"/><path d="M78.833 140.584c-.853.67-1.362 1.046-3.146 1.178-.3-3.17 1.262-10.952 3.074-13.978 4.42-.183 8.81-.876 13.098-2.142.17 3.06 2.333 5.945 4.21 8.42.666.85 1.25 1.657 1.764 2.43-1.573.866-2.747.586-4.445.183-1.805-.446-4.03-.974-6.976.054-4.653 1.612-6.397 2.97-7.575 3.852m59.708-94.877c-.856 2.638-1.997 6.25-.52 11.282 1.09 3.64 2.62 6.21 4.838 8.072.71.596 1.398 1.05 2.013 1.444.657.43 1.225.736 1.653 1.266-1.35.57-2.347.95-3.738 1.047-2.52.172-5.075-.076-7.778-.35l-.414-.03c-.588-6.84-2.72-13.978-6.035-20.746.53-.164 1.054-.356 1.55-.546l.694-.246c.69-.246 1.4-.455 2.107-.663.89-.25 1.793-.515 2.663-.83 1.24-.467 2.483-1.053 3.58-1.956-.08.587-.308 1.32-.61 2.26m-85.058 90.065c-.83.325-1.364 1.02-1.872 1.71-.13.184-.26.34-.38.484 1.356-5.548 3.267-9.73 5.978-13.05 5.787 1.744 11.788 2.768 17.806 2.906-1.503 3.554-2.664 8.925-2.737 12.68-.07-.178-.137-.357-.203-.51-.407-1.046-.83-2.13-1.54-2.872-2.235-2.337-11.483-3.508-17.052-1.35m73.13-108.706c-.376 1.605-.92 4.043 1.203 8.303.732 1.44 1.552 2.543 2.534 3.367 1.837 1.54 3.78 1.737 5.35 1.888.535.058.975.11 1.365.195-.703.576-1.564.995-2.664 1.41-.793.282-1.603.526-2.414.77-.788.215-1.548.427-2.29.705l-.768.28c-.678.258-1.37.504-1.968.61-2.543-4.566-5.622-8.9-9.136-12.773.05-.03.126-.064.19-.083 3.154-1.246 6.38-2.55 8.728-5.81.06.247.006.54-.127 1.135m-72.79 96.742c-3.18 4.31-4.837 9.144-5.808 13.046-.085-.534-.113-1.165-.076-1.96.027-.755.067-1.525-.077-2.278-.145-.898-.705-1.733-1.67-2.544-.955-.8-2.275-1.566-3.676-2.353-1.182-.7-2.43-1.407-3.556-2.205-.87-.61-1.705-1.26-2.524-1.875-3.392-2.603-6.587-5.065-9.253-3.072-.21.164-.47.385-.725.632-.268.262-.476.452-.66.614 1.697-2.37 6.49-6.954 8.568-8.42.906.713 1.824 1.41 2.775 2.038 5.07 3.402 10.716 6.267 16.68 8.377m70.09-99.707c-1.75 2.346-4.148 3.325-7.137 4.49-.483.2-.982.39-1.48.605-1.095-1.09-2.23-2.138-3.394-3.117-3.144-2.638-6.514-4.834-10.036-6.646.232-2.186.91-4.12 1.967-5.496.893-1.123 1.508-1.798 1.948-2.207.037.272.1.544.144.897.13.938.276 2.008.856 3.08 2.283 4.126 6.245 6.916 11.162 7.76 2.57.43 4.19.525 5.276.586.28.015.49.023.69.045M23 112.505c-2.325-4.31-4.727-8.757-8.1-11.586-1.292-1.06-2.655-1.114-3.66-1.13-.093-.005-.145 0-.226-.02 1.356-.344 2.67-.725 3.807-1.157 2.307-.838 4.64-1.798 6.537-3.22 2.376 5.98 5.85 11.374 10.423 15.747-2.45 1.91-6.504 5.728-8.584 8.554.022-.055.046-.083.056-.124.595-1.372 1.57-3.69.188-6.26l-.44-.806M5.196 69.924c4.665.508 9.355.87 12.506-.256-.592 7.697.222 15.337 2.435 22.32-1.715 1.698-4.53 2.74-6.473 3.468-1.33.488-2.928.947-4.534 1.3.125-.235.273-.5.472-.794l.28-.42c1.794-2.63 2.74-4.535 1.12-12.92-1.157-6.075-4.32-9.556-6.216-11.632-.363-.405-.774-.87-1.054-1.228.424.043.892.092 1.464.162M80.014 6.88c.082-.588.153-1.136.226-1.656.582.462 1.084 1.078 1.65 1.99.447.74 1.034 1.427 1.76 2.036 2.12 1.78 7.06 4.298 16.396 1.118 1.843-.84 2.854-1.06 3.42-1.07-.685.64-1.42 1.46-2.275 2.565-1.495 1.902-2.204 4.105-2.536 6.06-6.005-2.58-12.358-4.023-18.804-4.372-.647-1.222-.143-4.71.165-6.67m-20.783 3.764c6.133-.98 11.913-2.063 15.084-4.484.483-.375.932-.824 1.358-1.245.742-.74 1.064-.98 1.324-1.03-.06.68-.193 1.59-.34 2.487-.362 2.396-.746 4.99-.354 7.095-5.842.058-11.684 1.04-17.335 2.862-2.156-.787-4.426-4.005-5.57-6.25 2.2 1.306 4.48.84 5.544.613l.286-.052M34.502 26.53c.996.837 2.086 1.53 3.226 2.05-2.133 1.907-4.145 3.988-6.037 6.24-1.96 2.34-3.714 4.808-5.25 7.387-1.026.33-3.76.322-9.846-4.154 1.52.182 3.513.176 5.403-1.642.545-.563 1.13-1.143 1.727-1.71 2.497-2.428 5.322-5.188 6.218-8.885.387-1.645.343-2.922.234-3.89 1.27 1.578 2.708 3.246 4.33 4.606m15.573-15.5c.273.57 2.112 4.3 4.91 6.748-5.024 2.056-9.828 4.833-14.256 8.29l.022-.055c-2.83-.382-5.52-3.245-7.732-5.953.868.12 1.903.187 3.138-.042 3.962-.734 10.534-3.972 13.55-10.023.11.36.22.72.367 1.036m-36.074 29.3c4.237 3.214 7.714 4.965 10.514 5.296-3.2 6.213-5.307 12.883-6.322 19.64l-.37.47c-1.56 1.947-8.94 1.177-12.004.843l.038-.016c7.95-5.95 8.998-17.225 8.916-23.396-.002-.95-.372-1.87-.737-2.735-.017-.038-.02-.064-.036-.102" fill="#FFD03E"/><path d="M21.355 95.394c-1.897 1.423-4.23 2.383-6.534 3.22-1.134.433-2.45.814-3.804 1.16.08.018.133.013.226.018 1.006.016 2.37.067 3.66 1.127 3.374 2.826 5.776 7.273 8.1 11.582l.44.806c1.38 2.57.406 4.887-.188 6.26-.01.04-.033.07-.055.124 2.08-2.826 6.133-6.645 8.582-8.553-4.574-4.373-8.047-9.767-10.423-15.748m79.04 38.878c.4-.564.616-1.11.858-1.833.78-2.287 1.762-5.134 9.282-10.86 4.236-3.228 7.006-3.553 9.24-3.818 1.373-.165 2.378-.294 3.504-1.17-.285-.24-.555-.468-.838-.68l-1.138-.956c-1.878-1.576-3.652-3.332-4.65-5.87l-.035.042c-6.262 7.462-13.556 12.428-21.317 15.35-.505 2.104 1.08 4.406 3.445 7.51.6.79 1.138 1.535 1.65 2.282m29.694-44.403c-2.937 5.754-6.95 11.26-11.09 16.368l.35-.044c.52 3.254 2.603 4.93 5.23 7.086.242.203.496.392.752.607.053-.467-.04-.934-.178-1.608-.33-1.542-.79-3.653.877-6.534 4.964-8.574 8.655-10.17 11.875-10.02-.866-.24-1.67-.525-2.275-.815-.964-.468-1.79-1.015-2.516-1.624-1.21-1.014-2.13-2.173-3.028-3.414m4.61-15.315c-.24 3.983-1.325 7.934-2.946 11.8l.405.56c1.508 2.163 2.697 3.866 4.956 4.96.95.457 2.97.937 4.588 1.322.378.098.742.184 1.08.273-.066-.76-.6-1.45-1.47-2.523-1.435-1.787-3.414-4.225-3.123-8.357.477-6.894 3.365-9.237 5.828-10.526-.328.042-.65.11-1.007.13-2.78.193-5.56-.074-8.264-.35.012.91-.002 1.823-.044 2.71m-55.867 66.033c1.178-.883 2.922-2.24 7.575-3.855 2.947-1.03 5.17-.5 6.978-.055 1.698.403 2.87.682 4.445-.184-.514-.773-1.098-1.58-1.765-2.43-1.876-2.475-4.038-5.36-4.21-8.42-4.286 1.266-8.674 1.96-13.094 2.142-1.81 3.026-3.372 10.81-3.073 13.978 1.785-.13 2.294-.507 3.147-1.177M80.012 6.88c-.306 1.955-.81 5.446-.164 6.67 6.443.35 12.797 1.792 18.8 4.374.334-1.958 1.04-4.16 2.54-6.062.857-1.106 1.59-1.924 2.275-2.565-.566.01-1.577.232-3.42 1.07-9.334 3.18-14.276.662-16.396-1.117-.727-.61-1.314-1.296-1.76-2.035-.567-.913-1.07-1.53-1.65-1.992-.074.52-.145 1.07-.227 1.657m-5.698-.72c-3.17 2.42-8.95 3.502-15.084 4.483l-.285.052c-1.063.226-3.346.693-5.544-.616 1.144 2.245 3.414 5.463 5.567 6.25 5.65-1.824 11.492-2.806 17.334-2.864-.39-2.104-.007-4.7.355-7.095.147-.896.28-1.806.34-2.485-.26.05-.582.29-1.324 1.03-.425.42-.874.87-1.357 1.242M4.79 70.99c1.893 2.076 5.057 5.557 6.214 11.633 1.62 8.385.674 10.29-1.12 12.92l-.28.42c-.2.296-.348.56-.473.795 1.61-.354 3.207-.813 4.537-1.3 1.944-.728 4.758-1.77 6.473-3.468-2.21-6.986-3.028-14.623-2.436-22.32-3.15 1.125-7.84.763-12.504.253-.575-.067-1.04-.118-1.467-.16.282.358.69.823 1.056 1.227m11.8-32.935c6.088 4.476 8.82 4.484 9.848 4.154 1.535-2.58 3.29-5.048 5.253-7.388 1.89-2.254 3.905-4.334 6.037-6.24-1.14-.52-2.23-1.215-3.227-2.05-1.622-1.36-3.06-3.03-4.33-4.606.11.967.154 2.244-.233 3.89-.895 3.696-3.72 6.456-6.217 8.883-.598.57-1.182 1.15-1.727 1.712-1.89 1.818-3.882 1.824-5.403 1.642m38.4-20.274c-2.8-2.444-4.638-6.176-4.91-6.745-.147-.318-.257-.677-.368-1.037-3.016 6.05-9.588 9.29-13.55 10.024-1.235.23-2.27.163-3.14.042 2.214 2.708 4.902 5.57 7.734 5.953l-.022.055c4.428-3.457 9.23-6.234 14.255-8.292M14.773 43.168c.082 6.17-.967 17.447-8.916 23.396l-.04.017c3.066.337 10.444 1.107 12.006-.84l.37-.47c1.014-6.76 3.12-13.43 6.32-19.64-2.8-.33-6.276-2.083-10.513-5.297.018.038.02.064.036.102.364.866.734 1.783.736 2.734m113.788 4.52c3.315 6.768 5.447 13.906 6.035 20.746l.412.03c2.702.274 5.258.522 7.777.35 1.39-.097 2.388-.476 3.738-1.045-.428-.53-.996-.833-1.653-1.263-.617-.394-1.3-.848-2.014-1.445-2.22-1.86-3.747-4.432-4.84-8.07-1.475-5.03-.334-8.645.522-11.283.3-.94.53-1.67.61-2.26-1.098.903-2.34 1.49-3.58 1.955-.87.316-1.773.58-2.66.83-.71.21-1.418.418-2.11.664l-.69.245c-.5.19-1.024.382-1.55.548m-76.95 89.797c.51-.692 1.043-1.386 1.873-1.71 5.57-2.16 14.818-.99 17.05 1.348.71.742 1.135 1.826 1.54 2.873.068.154.136.33.205.51.072-3.755 1.234-9.126 2.736-12.68-6.016-.14-12.02-1.162-17.804-2.905-2.71 3.32-4.62 7.502-5.978 13.05.12-.143.252-.3.38-.484m65.17-108.895c2.988-1.164 5.385-2.143 7.137-4.49-.2-.022-.413-.03-.69-.044-1.09-.06-2.707-.155-5.28-.586-4.916-.844-8.878-3.634-11.16-7.76-.58-1.07-.725-2.14-.86-3.08-.043-.353-.106-.624-.142-.898-.44.41-1.055 1.085-1.95 2.207-1.055 1.374-1.734 3.31-1.968 5.495 3.522 1.812 6.892 4.008 10.036 6.646 1.168.98 2.3 2.027 3.398 3.118.496-.216.994-.406 1.478-.607m11.04 6.78c-2.123-4.26-1.58-6.696-1.204-8.3.134-.594.188-.89.127-1.134-2.346 3.26-5.574 4.563-8.727 5.807-.064.02-.14.053-.19.084 3.514 3.874 6.592 8.208 9.137 12.774.6-.107 1.29-.353 1.968-.61l.768-.28c.74-.278 1.502-.49 2.288-.706.81-.244 1.622-.488 2.416-.77 1.1-.414 1.96-.834 2.663-1.412-.39-.084-.83-.137-1.363-.195-1.57-.15-3.514-.347-5.35-1.887-.98-.824-1.802-1.927-2.533-3.367M46.194 130.08c.968.81 1.528 1.645 1.67 2.544.145.754.106 1.523.078 2.278-.037.795-.01 1.427.076 1.96.973-3.902 2.63-8.736 5.81-13.046-5.964-2.11-11.61-4.975-16.68-8.38-.952-.628-1.87-1.325-2.776-2.037-2.078 1.465-6.87 6.05-8.568 8.42.184-.163.392-.353.66-.614.256-.248.514-.47.725-.633 2.665-1.994 5.86.47 9.252 3.07.818.614 1.653 1.266 2.524 1.875 1.124.798 2.373 1.505 3.555 2.206 1.4.787 2.72 1.554 3.675 2.354m-7.163-17.438c15.154 10.14 35.73 15.32 53.78 9.12 7.744-2.67 15.03-7.424 21.22-14.8 8.176-9.745 16.614-21.216 17.3-32.578.88-15.235-8.205-34.456-21.607-45.7-22.165-18.6-55.99-14.865-75.445 8.32-18.53 22.086-17.8 56.982 1.55 73.217 1.01.846 2.095 1.66 3.203 2.42m5.534 22.125c.03-.583.046-1.152-.026-1.53 0 0-.095-.2-.522-.56-.725-.61-1.92-1.294-3.197-2.026-1.192-.686-2.54-1.478-3.805-2.368-.9-.633-1.79-1.307-2.638-1.97-1.482-1.123-4.563-3.49-5.17-3.026-.112.077-.258.22-.404.367-.976.93-3.547 3.418-6.92.59-.625-.527-1.224-1.2-1.865-2.054-.974-1.353-.35-2.848.124-3.933.584-1.36.903-2.257.32-3.33l-.422-.792c-2.195-4.03-4.44-8.2-7.3-10.6-.37-.31-.782-.34-1.59-.36-1.004-.016-2.38-.052-3.66-1.127-2.537-2.176-2.78-4.835-.698-7.95l.304-.45c1.254-1.84 2.016-2.95.586-10.377-.97-5.14-3.536-7.95-5.387-9.99C1.273 72.147.47 71.254.17 70.226c-.836-3.108 1.164-4.567 2.93-5.833l.745-.54c6.733-5.05 7.624-15.097 7.57-20.637-.013-.303-.282-.965-.498-1.487-.65-1.568-1.737-4.23.675-6.267 1.587-1.34 3.353-1.075 4.77-.86 1.5.24 2.337.31 3.25-.58.522-.532 1.13-1.14 1.763-1.752 2.266-2.21 4.617-4.49 5.278-7.243.357-1.524.205-2.527.05-3.41-.17-1.042-.396-2.448.86-3.655 1.977-1.867 3.823-1.58 5.322-1.346.856.135 1.672.26 2.673.08 3.39-.632 9.553-3.73 11.627-9.38l.113-.22c.1-.207 1.112-1.96 2.982-2.312.922-.174 2.405-.122 4.03 1.728 1.184 1.333 2.608 1.167 3.943.877.17-.028.324-.07.455-.08 5.22-.847 11.03-1.905 13.543-3.832.387-.285.727-.632 1.04-.95 1.086-1.06 2.545-2.51 4.88-1.887 2.8.77 4.736 1.785 6.607 4.813.26.415.613.83 1.054 1.2 1.28 1.077 5.098 3.26 12.998.576 3.16-1.456 5.186-1.702 6.805-.83.51.26.96.562 1.358.896 1.836 1.54 2.093 3.46 2.294 4.867.103.74.186 1.394.467 1.897 1.797 3.234 4.874 5.403 8.773 6.072 2.383.395 3.842.476 4.904.54 1.737.097 2.8.16 4.506 1.593.156.13.327.276.514.457 2.176 1.972 1.785 3.71 1.468 5.098-.32 1.335-.65 2.857.93 6.03.508 1.01 1.076 1.78 1.687 2.293 1.04.873 2.185.98 3.504 1.116 1.437.136 3.062.31 4.5 1.514.483.405.923.92 1.303 1.507 1.32 2.127.61 4.33-.08 6.45-.79 2.473-1.685 5.273-.495 9.286 1.17 3.923 2.71 5.555 3.776 6.45.555.466 1.13.85 1.69 1.223.57.36 1.103.708 1.56 1.09 1.364 1.146 2.035 2.512 2.212 4.41.338 3.443-2.062 4.54-3.79 5.328-2.324 1.066-4.74 2.15-5.146 8.3-.195 2.805 1.048 4.358 2.39 5.994 1.597 1.997 3.606 4.485 1.006 8.48-1.855 2.844-4.18 2.352-5.726 2.027-2.205-.463-4.96-1.05-10.27 8.11-1.024 1.768-.803 2.804-.516 4.14.344 1.552.75 3.497-1.214 5.837-2.682 3.195-4.916 3.46-7.072 3.718-2.013.232-4.09.483-7.583 3.143-6.703 5.1-7.495 7.4-8.114 9.265-.463 1.362-.937 2.764-2.954 4.475-3.736 3.21-6.5 2.545-8.94 1.956-1.63-.397-3.06-.745-5.057-.04-4.14 1.44-5.576 2.543-6.615 3.35-1.908 1.462-3.104 1.99-8.19 1.93-.69-.02-1.33-.266-1.87-.72-.926-.776-1.43-2.025-1.902-3.224-.254-.65-.592-1.517-.853-1.785-1.48-1.24-8.88-2.272-13.39-.537.05-.006-.183.332-.387.575-.863 1.172-2.91 3.902-6.512 2.097-.468-.223-.902-.515-1.272-.825-2.134-1.79-2.027-4.23-1.956-6.018" fill="#000"/><path d="M52.946 50.525c-1.814-1.476-3.497-3.552-4.41-4.644-.322-.383-.12-.865.29-1.01 2.44-.83 5.254 4.375 6.48 3.54 1.015-1.165-2.62-4.19-2.324-6.267.058-.507.567-.236 1.38.454 1.968 1.9 3.432 3.517 4.832 5.856.796 1.337 3.284 6.42 4.045 7.296.21.242.882.537.84.3-.117-.718-1.21-3.95-1.73-5.114-1.115-2.48-3.074-5.698-4.917-7.737-1.278-1.42-2.882-3.37-4.978-3.46-3.188-.133-1.757 2.45-.905 4.265-1.21-.592-4.702-1.636-5.09.264-.362 1.784 1.35 3.772 2.48 4.89-.843-.028-2.647-.484-3.2.41-.56.9-.157 2.532.656 3.187 2.305 1.87 9.338 4.308 10.462 4.726 1.35.496 2.752 1.185 3.973 1.934 1.998 1.216 2.68 2.177 4.39 3.808.22.21 1.06.737.79-.188-1.035-3.523-5.228-5.395-8.673-6.776-2.203-.887-9.982-2.846-10.328-5.8-.05-.355.294-.37.47-.347 1.73.25 3.292 1.077 4.98 1.566.47.133.82-.878.485-1.15M73.93 23.813c2.07 1.05.462 5.098.532 6.78 1.223-2.072 4.384-5.62 6.806-3.003 2.243 2.425.588 6.92-.675 9.393-1.214 2.37-2.917 4.61-3.825 7.13-.234.664-1.877 4.04-1.348 12.2.02.225-.697.188-.804-.133-1.364-4.045-.416-9.563.976-13.19.855-2.238 2.02-4.557 3.24-6.62.96-1.634 2.15-5.508.89-7.14-1.46-1.888-4.92 3.367-5.344 4.036-.942 1.478-1.738 3.098-2.106 3.103-.372 0-.094-2.198-.044-3.146.043-.875.91-6.494.284-6.834-1.09.64-1.66 2.183-3.007 5.358-.56 1.326-1.09 2.548-1.516 2.32-1.673-.907-.865-4.705-.788-5.418.308-2.903 1.633-5.54-.632-6.07-4.7.27-4.855 7.05-3.91 11.198.216.952 4.31 11.166 5.184 13.115 1.67 3.715 3.212 7.237 3.135 11.236-.016.96-.03 1.92-.064 2.873-.028.898-.828.07-1.005-.348-.387-.932-.042-2.285-.112-3.276-.086-1.19-.3-2.368-.57-3.523-1.03-4.378-3.465-8.362-5.2-12.488-1.62-3.88-3.616-7.905-3.133-12.24.363-3.243 1.74-8.073 5.52-8.755 1.524-.27 2.202.145 2.672 1.552.365 1.08.41 2.05.184 3.164-.094.477-1.207 6.47-.925 5.824.678-1.54 3.3-8.26 5.584-7.102m12.355 58.593c-2.006.3-2.546.57-3.526 1.36-.103.084-.53-.113-.284-.617.85-1.73 1.434-1.763 3.29-2.058 1.744-.28 4.07-1.186 4.563-2.906-.65-.35-4.314-.69-2.736-2.117.467-.42 1.988-.356 2.64-.68.613-.3 1.856-.995 2.028-1.726.475-2.004-2.38-1.05-3.293-1.524-1.746-.915 1.87-1.96 2.604-2.71.43-.444 1.03-1.187.432-1.59-1.846-1.233-5.714 2.466-7.747 5.316-3.226 4.532-3.906 10.485-4.78 10.463-1.194-.025 1.574-7.848 3.02-10.32 1.35-2.3 3.07-4.187 4.907-5.528 1.285-.938 3.857-2.23 5.378-.946 1.84 1.548-.102 3.253-1.983 4.38 1.82.013 2.662.96 2.89 1.355.4.71.09 3.01-1.917 3.84-.633.26-1.35.245-1.465.387 1.927.097 3.077 1.09-.027 3.624.3-.24-1.887 1.683-3.993 1.997M74.94 76.71c-1.218-2.236 1.163-7.474 7.452-11.42 6.29-3.95 11.01-7.764 8.522-8.464-2.16.295-2.99 1.378-4.633 2.11-1.195.528-2.18.317-1.23-.97 1.937-2.638 4.41-5.663 5.22-9.047.13-.55.32-2.034-.82-1.656-1.733.596-2.96 1.985-4.11 3.433-1.124 1.417-2.326 3.095-2.85 3.182-.52.085-.47-.765-.056-3.427.51-2.496.55-3.392.692-4.878.07-2.194-1.464-1.128-1.97-.16-.837 1.61-1.15 3.09-1.274 4.893-.23 3.39-.32 6.75-1.03 10.09-.34 1.6-.64 3.307-1.235 4.835-.313.79-.654 1.534-1.126 2.287-.27.43-1.1.604-.88-.088.93-2.913 2.08-5.89 2.423-8.948.393-3.477-.073-7.03.572-10.504.398-2.146 1.77-6.074 4.604-5.54 3.103.58 1.232 5.49.965 7.435 1.166-1.232 2.625-3.115 4.128-3.938 1.868-1.02 4.102-.434 4.34 1.23.47 3.24-2.872 6.476-4.28 9.097 1.173-.562 2.32-1.267 3.668-1.007.72.137 1.38.473 2 .854.797.493-.56 2.886-3.267 5.03-.357.28-3.626 2.563-4.21 2.927-.718.456-5.878 3.797-8.754 7.533-2.47 2.597-1.83 6.068-2.858 5.108m-10.28.506c-2.47-2.983-5.048-3.925-8.387-4.344-2.268-.342-3.82.036-4.395-1.806-.623-1.974 2.398-2.184 4.108-1.457.283.126 1.848.676 2.082.192.083-.167-.293-.894-1.346-1.327-1.345-.558-2.865-1.607-2.754-3.447.13-2.038 2.44-2.406 3.886-1.613 1.603.876 2.83 1.943 4.925 4.012 3.06 3.026 3.457 5.55 4.918 8.522.24.478.63.712.584.43-.18-1.073-1.36-5.374-2.752-7.388-1.69-2.428-5.36-6.468-8.225-7.495-1.593-.562-3.472-.31-4.46.975-2.18 2.855 1.144 4.7.394 5.048-1.19.54-3.48 1.784-2.817 4.074.928 3.182 5.844 1.76 9.333 3.13 1.893.738 3.475 2.328 5.18 4.66 1.784 2.444 1.478 5.053 1.665 7.157.023.25.69 2.225.803 1.306.663-5.313.094-7.22-2.742-10.633m12.53 24.1c-.09-.106-.232-.096-.326-.085-.02.003-.043.004-.062.004-.073-.002-.15.032-.206.098l-1.19 1.38c-.084-.158-1.057-1.506-1.144-1.903-.737-3.27-1.125-6.337-1.837-9.56-.686-3.085-1.68-7.617-2.386-10.755-.056-.243-1.066-.767-1.145-.722-.08.052-.136.138-.143.23-.045.464-.052.77.04 1.197.442 2.052 1.984 9.403 2.156 10.498-.193.022-.606.046-.782.082-1.26.274-2.1 1.012-2.437 2.136-1.18 3.967-.883 7.572.887 10.723.48.853 1.21 1.244 1.998 1.074.608-.135 1.194-.58 1.7-1.29.397-.562.623-1.204.842-1.83l.096-.273c.046.076.092.148.138.23.307.496.62 1.012.97 1.514.26.38.55.57.966.48.32-.073.55-.256.92-.627.134-.136 1.19-1.15 1.263-1.628.047-.325-.058-.644-.317-.974M72.2 98.57c.386 1.128.006 2.58-.647 4.164-.075.384-.394.585-.664.643-.325.07-.644-.032-.85-.275-.494-.578-.984-1.193-1.048-1.853-.22-2.107-.452-4.284.332-6.513.042-.112.07-.233.102-.346.138-.5.24-.81.64-.897.05-.01.103-.014.16-.02.718-.05.917.396 1.037 1.223.01.073.682 3.133.935 3.875m-15.58.986c-.18-.913-2.06-4.532-2.122-4.652-.9-1.796-2.092-3.234-3.607-3.21-.788.01-1.405.74-1.86 1.727-.97 2.106-1.26 4.336-.918 7.005.013.142.102 1.113.142 1.458.276 2.304 1.7 3.636 4.535 4.85.447.193.964.233 1.493.12 1.728-.444 2.394-2.565 2.44-2.69.565-1.533-.057-4.363-.104-4.607m-6.997-2.745c.32-1.51.535-2.037 1.285-3.275.318.352.634.686.937 1.01.77.823 1.5 1.604 2.08 2.436 1.45 2.07 1.69 4.02.87 6.538-.174.537-.717 1.182-.914 1.226-.563.09-1.67-.065-2.074-.37-2.775-2.078-2.503-6.054-2.184-7.563m16.204 7.68c-.042-.06-.11-.1-.185-.103-.065 0-.63-.056-.813.01-.885.32-1.785-.15-2.567-.96-.62-.64-.97-1.234-1.287-3.408.45.02 1.136.153 1.495.077 1.157-.252 1.813-1 1.898-2.166.132-1.87-1.322-4.096-2.993-4.58-.438-.13-.957-.122-1.597.017-.23.05-.468.115-.734.198-.274.092-.28.466-.265 1.232 0 .15.185 2.216.1 2.825-.06.4-.156.672-.75.77-.086.01-.116.14-.1.232.02.087.09.16.18.176.8.153.984.573 1.07 1.106.04.243.394 1.986.455 2.275.322 1.536.968 1.815 2.04 2.753.556.487 1.882 1.2 2.7 1.025.273-.06.57-.164.872-.31.237-.112.466-.878.5-.96.03-.07.022-.15-.017-.21m-3.503-6.328c-.048.045-.127.078-.23.1-.246.053-.574.03-.87.01l-.127-.007c-.085-.017-.42-.186-.43-.272-.095-.84-.284-3.18-.3-3.41 1.146.215 2.01 1.027 2.384 2.345.09.316-.13.95-.426 1.234m22.283-10.2c-.216.05-.373.13-.468.25l-.26.31c-.64.76-1.928 5.735-1.8 6.3.02.076.04.153.054.23.365 1.72.73 3.44 1.093 5.162.416 1.966.83 3.93 1.25 5.898.072.35.16.7.244 1.036l.15.614c.18.774.362 1.55.547 2.323.475 2.052.97 4.18 1.488 6.262.09.38.286.73.47 1.063.082.145.167.297.236.44.033.06.08.1.144.12.032.01.07.01.11.004.023-.005.048-.02.07-.034.097-.052.193-.112.286-.17.07-.04.116-.122.12-.2.002-.053.007-.1.014-.152.015-.126.03-.27.003-.415l-.38-1.922c-.512-2.615-1.05-5.324-1.6-7.98l-.106-.504c-.346-1.685-.7-3.402-1.064-5.12.196.042.4.1.606.163.483.135.986.28 1.5.244.073-.003.154-.012.234-.03 1.272-.28 2.62-2.054 2.893-3.802.61-3.893-.76-7.19-4.066-9.79-.395-.313-1.25-.407-1.77-.294m.396 12.57c-.292-1.372-.598-2.745-.91-4.1-.49-2.142-.052-4.165.446-5.86.153-.526.352-.818.59-.87.185-.04.434.052.728.264 2.09 1.523 3.81 5.252 2.984 7.963-.393 1.304-.7 1.686-1.478 1.857-.22.047-.493.072-.83.09-.072 0-.145.01-.223.03-.27.057-.532.2-.79.333-.14.07-.27.142-.402.198-.045.02-.083.054-.113.095m22.083-11.325c-.92-.38-1.9-.638-2.84-.892-.312-.082-.616-.164-.92-.248-1.32-.373-2.15-1.028-2.464-1.945-.302-.884-.087-2.004.573-3.063.29.093.36.35.323.615-.077.564-.183 1.265.504 1.778.097.075.237.06.32-.03 1.016-1.15.525-2.54-.937-4.207-.042-.05-.09-.094-.154-.108-.064-.012-.126.002-.18.038-1.353.918-1.806 1.588-2.036 3.34-.293 2.17.892 4.715 3.308 5.04.706.095 1.41.424 2.09.746.243.114.488.227.734.335.357.15.575.35.62.56.046.236-.13.483-.288.646-1.347 1.423-2.666 2.178-4.184 2.4-.298.04-.543.252-.777.447-.095.08-.183.16-.274.22-.086.05-.123.158-.095.255l.094.35c.026.09.1.16.194.177.21.03.43.09.66.15.492.13 1 .263 1.466.16.032-.005.062-.014.098-.022 2.05-.613 3.8-1.854 5.06-3.587.426-.582.57-1.233.4-1.82-.167-.59-.628-1.07-1.296-1.338M95.9 87.092c-.276-.5-1.15-.77-1.595-.657-.107.027-.192.146-.162.25.03.12.16.87.318 1.06 1.587 1.872 1.774 4.227 1.954 6.503 0 0 .063.63.095.8.14.792.145 1.186-.41 1.354-.17-.04-.68-.58-1.123-1.27-1.227-1.895-1.75-4.1-2.22-6.37-.065-.323-.887-.906-.98-.99-.06-.057-.146-.073-.224-.046-.083.023-.144.09-.163.17-.027.12-.335 1.03-.263 1.35.35 1.47.785 2.94 1.2 4.357l.087.294c.517 1.747 1.525 3.215 3.01 4.375.63.492 1.202.688 1.705.58 1.274-.278 1.246-2.322 1.195-2.628-.094-.536-.636-4.914-1.256-6.935-.16-.52-.898-1.697-1.17-2.2m-17.515 4.7c-.077-.025-.16-.003-.22.047-.557.503-.786.926-.68 1.26.42 1.3.735 2.667 1.038 3.986.477 2.06.97 4.195 1.876 6.177.04.093.134.147.236.144.007-.008.02-.007.024-.006.114-.026.19-.117.188-.233.054-3.935-1.055-7.552-2.3-11.225-.024-.077-.086-.136-.16-.15m-.523-1.532c.045-.01.495-.52.454-.61l-1.02-2.31c-.046-.107-.166-.166-.28-.133l-.656.193c-.118.035-.192.152-.164.278.04.188.296 1.575.486 2.05.1.26.965.582 1.178.532" fill="#000"/></g></svg>