<?xml version="1.0" encoding="UTF-8" standalone="no"?>
<svg width="566px" height="268px" viewBox="0 0 566 268" version="1.1" xmlns="http://www.w3.org/2000/svg" xmlns:xlink="http://www.w3.org/1999/xlink">
    <g id="Page-1" stroke="none" stroke-width="1" fill="none" fill-rule="evenodd">
        <g id="Brewing-Animation_Splash-Screen" transform="translate(-288.000000, -1200.000000)">
            <g id="Layer_1">
                <g id="splash-screen" transform="translate(288.000000, 1200.000000)">
                    <path d="M161.261,84.644 C147.053,83.971 114.478,81.31 108.193,104.627 C103.712,121.254 121.314,140.927 136.847,145.133 C107.267,169.101 123.476,229.966 158.33,213.025 C116.623,268.854 201.424,290.554 208.237,237.445 C208.237,265.554 266.371,278.969 272.92,227.824 C298.95,275.775 371.122,238.647 343.319,207.059 C357.7,213.361 378.838,220.094 393.192,210.137 C411.607,197.36 400.353,168.195 385.22,155.187 C424.42,143.78 426.803,90.82 390.295,80.723 C397.37,72.297 406,52.096 392.77,36.5 C370.615,10.386 332.086,27.792 319.312,39.238 C312.949,16.347 313.294,1.95 286.272,0.604 C260.966,-0.657 244.324,14.54 231.688,35.682 C209.886,8.686 193.214,15.94 174.196,27.74 C157.972,37.808 150.254,60.548 161.261,84.644 L161.261,84.644 Z" id="Shape" fill="#F9DF00"></path>
                    <path d="M170.784,80.302 C170.005,81.276 169.691,81.987 169.841,82.433 C169.992,82.88 170.609,83.538 171.694,84.405 C172.58,85.113 173.212,85.502 173.593,85.571 C173.974,85.64 174.439,85.331 174.988,84.645 C175.413,84.114 175.792,83.619 176.124,83.158 C176.456,82.698 176.666,82.412 176.755,82.302 C177.481,81.394 178.029,80.925 178.399,80.894 C178.769,80.864 179.341,81.158 180.115,81.777 L180.414,82.016 C181.654,83.008 182.333,83.724 182.453,84.164 C182.573,84.605 182.198,85.367 181.331,86.452 C181.136,86.696 180.797,87.096 180.315,87.654 C179.833,88.213 179.529,88.569 179.405,88.723 C178.98,89.254 178.822,89.655 178.933,89.925 C179.043,90.196 179.542,90.685 180.427,91.393 L185.474,95.431 C185.828,95.714 186.089,95.932 186.257,96.085 C186.425,96.238 186.627,96.463 186.861,96.759 C187.096,97.055 187.226,97.323 187.253,97.562 C187.28,97.801 187.242,98.098 187.14,98.452 C187.038,98.806 186.837,99.171 186.536,99.547 L185.208,101.207 C184.907,101.584 184.595,101.86 184.272,102.037 C183.949,102.214 183.668,102.316 183.428,102.343 C183.189,102.369 182.899,102.301 182.558,102.137 C182.218,101.973 181.954,101.826 181.768,101.696 C181.582,101.566 181.312,101.359 180.957,101.075 L162.696,86.466 C162.342,86.183 162.063,85.942 161.86,85.742 C161.656,85.544 161.438,85.26 161.206,84.892 C160.974,84.525 160.894,84.125 160.967,83.694 C161.04,83.262 161.262,82.814 161.634,82.349 L168.221,74.115 C168.575,73.672 168.96,73.372 169.376,73.215 C169.793,73.058 170.155,73.103 170.465,73.351 L173.287,75.609 C173.619,75.875 173.765,76.146 173.725,76.422 C173.685,76.699 173.426,77.136 172.948,77.734 C172.771,77.955 172.481,78.296 172.078,78.753 C171.676,79.21 171.244,79.726 170.784,80.302 L170.784,80.302 Z" id="Shape" fill="#4D509B"></path>
                    <path d="M196.665,80.239 C197.334,79.67 197.985,79.1 198.615,78.528 C199.245,77.956 199.635,77.606 199.787,77.477 C200.413,76.945 200.944,76.737 201.376,76.853 C201.809,76.969 202.264,77.308 202.741,77.869 L203.099,78.29 C203.392,78.636 203.607,78.9 203.743,79.082 C203.879,79.265 204.034,79.523 204.208,79.859 C204.382,80.195 204.458,80.483 204.439,80.722 C204.42,80.961 204.326,81.246 204.158,81.574 C203.991,81.903 203.723,82.222 203.356,82.534 L196.031,88.754 C195.663,89.066 195.304,89.278 194.953,89.39 C194.602,89.502 194.307,89.549 194.067,89.529 C193.827,89.509 193.556,89.387 193.253,89.161 C192.95,88.935 192.719,88.741 192.562,88.577 C192.404,88.414 192.179,88.159 191.885,87.813 L176.749,69.986 C176.456,69.641 176.241,69.377 176.104,69.194 C175.968,69.012 175.813,68.753 175.64,68.417 C175.467,68.081 175.389,67.793 175.409,67.553 C175.429,67.313 175.522,67.03 175.689,66.701 C175.857,66.373 176.124,66.053 176.492,65.741 L178.113,64.365 C178.48,64.053 178.84,63.842 179.191,63.729 C179.542,63.617 179.837,63.57 180.077,63.59 C180.317,63.61 180.589,63.733 180.892,63.958 C181.195,64.184 181.425,64.379 181.583,64.542 C181.741,64.706 181.966,64.961 182.259,65.306 L194.12,79.276 C194.432,79.644 194.681,79.915 194.868,80.091 C195.054,80.267 195.325,80.4 195.68,80.489 C196.034,80.58 196.362,80.496 196.665,80.239 L196.665,80.239 Z" id="Shape" fill="#4D509B"></path>
                    <path d="M212.914,76.558 L211.063,77.604 C210.643,77.841 210.251,77.982 209.885,78.026 C209.519,78.07 209.22,78.06 208.989,77.996 C208.758,77.932 208.514,77.76 208.259,77.481 C208.004,77.203 207.814,76.968 207.69,76.777 C207.566,76.587 207.393,76.294 207.169,75.899 L204.009,70.31 C203.2,68.879 200.794,66.641 196.793,63.595 L196.536,63.399 C195.428,62.592 193.946,61.396 192.088,59.808 C190.23,58.22 189.169,57.193 188.903,56.724 C188.54,56.082 188.716,55.559 189.432,55.155 L193.652,52.769 C194.022,52.56 194.434,52.555 194.889,52.753 C195.344,52.953 195.72,53.187 196.019,53.457 C196.318,53.728 196.704,54.137 197.177,54.683 C197.54,55.097 198.421,55.991 199.817,57.367 C201.213,58.743 201.919,59.444 201.933,59.468 C202.136,59.712 202.335,59.778 202.533,59.666 C202.755,59.541 202.809,59.348 202.694,59.087 C202.638,58.989 202.496,58.507 202.268,57.643 C202.04,56.779 201.774,55.79 201.47,54.675 C201.165,53.561 200.981,52.86 200.915,52.571 C200.728,51.895 200.595,51.343 200.516,50.916 C200.437,50.489 200.452,50.024 200.559,49.524 C200.666,49.024 200.93,48.655 201.35,48.418 L204.644,46.555 C205.088,46.304 205.404,46.142 205.59,46.069 C205.777,45.997 205.964,45.997 206.152,46.069 C206.34,46.142 206.525,46.34 206.706,46.66 C206.972,47.129 207.315,48.587 207.738,51.034 C208.161,53.481 208.424,55.344 208.528,56.62 C208.555,56.898 208.604,57.303 208.675,57.831 C208.746,58.361 208.838,59.026 208.948,59.826 C209.059,60.627 209.161,61.342 209.258,61.972 C209.503,63.787 209.741,65.044 209.974,65.743 C210.206,66.442 210.776,67.594 211.682,69.197 L213.545,72.491 C213.81,72.96 214,73.325 214.115,73.585 C214.23,73.846 214.316,74.172 214.374,74.562 C214.432,74.953 214.333,75.311 214.076,75.634 C213.819,75.957 213.432,76.265 212.914,76.558 L212.914,76.558 Z" id="Shape" fill="#4D509B"></path>
                    <path d="M244.322,57.563 C244.154,57.586 243.824,59.536 243.333,63.411 C243.209,64.372 243.003,65.103 242.715,65.6 C242.426,66.099 242.132,66.404 241.834,66.517 C241.535,66.631 241.076,66.73 240.459,66.816 L238.143,67.139 C237.554,67.221 237.067,67.224 236.685,67.149 C236.302,67.073 235.967,66.877 235.68,66.559 C235.392,66.242 235.177,65.928 235.034,65.619 C234.89,65.31 234.704,64.843 234.473,64.216 C233.719,62.089 232.251,57.564 230.071,50.641 C227.89,43.718 226.758,39.962 226.676,39.372 C226.613,38.923 226.635,38.62 226.742,38.461 C226.849,38.303 227.127,38.193 227.576,38.13 L232.124,37.496 C232.629,37.426 232.999,37.517 233.235,37.77 C233.47,38.024 233.675,38.467 233.85,39.101 L239.128,56.955 C239.148,57.096 239.213,57.158 239.326,57.143 C239.41,57.131 239.47,57.052 239.507,56.903 C239.507,56.703 239.498,54.945 239.48,51.627 C239.461,48.31 239.433,46.511 239.394,46.23 C239.235,45.709 238.97,44.83 238.598,43.594 C238.225,42.358 237.895,41.274 237.608,40.34 C237.32,39.407 237.143,38.802 237.076,38.525 C237.028,38.389 236.987,38.194 236.952,37.942 C236.85,37.212 237.136,36.8 237.81,36.706 C238.035,36.675 238.486,36.627 239.164,36.56 C239.842,36.495 240.321,36.442 240.602,36.403 C240.714,36.387 241.316,36.289 242.407,36.109 C243.498,35.929 244.099,35.83 244.212,35.815 C244.858,35.725 245.232,36.045 245.333,36.775 C245.341,36.832 245.346,36.923 245.35,37.052 C245.353,37.18 245.361,37.286 245.373,37.37 C245.389,37.483 245.404,38.11 245.42,39.252 C245.436,40.395 245.473,41.535 245.531,42.671 C245.589,43.808 245.665,44.713 245.759,45.387 L249.109,55.567 C249.129,55.708 249.194,55.77 249.307,55.754 C249.391,55.742 249.452,55.663 249.488,55.514 L248.741,36.9 C248.64,35.77 249.025,35.143 249.896,35.022 L254.823,34.335 C255.16,34.288 255.388,34.335 255.508,34.476 C255.628,34.617 255.713,34.87 255.764,35.235 C255.858,35.909 255.891,39.89 255.862,47.177 C255.832,54.465 255.764,59.161 255.657,61.265 C255.637,61.954 255.606,62.446 255.561,62.738 C255.516,63.031 255.427,63.373 255.295,63.762 C255.163,64.153 254.939,64.442 254.622,64.629 C254.305,64.817 253.893,64.945 253.388,65.016 L250.356,65.438 C249.71,65.528 249.242,65.558 248.952,65.526 C248.661,65.495 248.345,65.282 248.004,64.885 C247.662,64.489 247.313,63.829 246.955,62.906 C245.536,59.298 244.658,57.517 244.322,57.563 L244.322,57.563 Z" id="Shape" fill="#4D509B"></path>
                    <path d="M269.505,38.322 L269.022,61.703 C269.012,62.157 268.999,62.496 268.979,62.723 C268.959,62.95 268.905,63.246 268.812,63.613 C268.719,63.98 268.586,64.246 268.413,64.413 C268.24,64.58 267.981,64.73 267.639,64.865 C267.297,65 266.883,65.062 266.402,65.052 L264.277,65.008 C263.795,64.998 263.384,64.919 263.048,64.77 C262.71,64.622 262.458,64.46 262.292,64.287 C262.126,64.113 262.003,63.842 261.926,63.471 C261.849,63.101 261.805,62.803 261.796,62.575 C261.786,62.348 261.786,62.008 261.796,61.554 L262.279,38.174 C262.288,37.721 262.301,37.381 262.321,37.154 C262.341,36.928 262.396,36.631 262.489,36.264 C262.581,35.898 262.715,35.631 262.887,35.464 C263.061,35.297 263.319,35.147 263.662,35.012 C264.005,34.877 264.417,34.815 264.899,34.825 L267.025,34.869 C267.505,34.879 267.916,34.958 268.254,35.107 C268.59,35.256 268.842,35.417 269.009,35.59 C269.176,35.764 269.297,36.036 269.375,36.406 C269.452,36.776 269.495,37.075 269.505,37.302 C269.514,37.528 269.515,37.869 269.505,38.322 L269.505,38.322 Z" id="Shape" fill="#4D509B"></path>
                    <path d="M285.504,43.875 L282.926,63.435 C282.826,63.966 282.738,64.361 282.662,64.623 C282.584,64.885 282.445,65.174 282.246,65.491 C282.047,65.808 281.762,66.021 281.391,66.129 C281.02,66.237 280.553,66.254 279.991,66.18 L277.884,65.902 C277.405,65.839 277.007,65.715 276.689,65.53 C276.371,65.345 276.138,65.157 275.992,64.967 C275.846,64.776 275.754,64.492 275.719,64.116 C275.682,63.74 275.672,63.438 275.688,63.211 C275.704,62.984 275.741,62.647 275.801,62.196 L278.34,42.931 C278.41,42.397 278.385,42.036 278.268,41.849 C278.149,41.661 277.866,41.538 277.416,41.479 C277.332,41.468 277.154,41.452 276.887,41.431 C276.617,41.41 276.385,41.386 276.188,41.36 C274.923,41.193 274.342,40.716 274.447,39.929 L274.919,36.346 C274.972,35.953 275.202,35.669 275.61,35.493 C276.02,35.319 276.505,35.268 277.067,35.342 L288.702,36.876 C289.265,36.95 289.72,37.125 290.069,37.399 C290.419,37.674 290.569,38.008 290.516,38.401 L290.043,41.984 C289.939,42.771 289.256,43.081 287.99,42.915 C287.906,42.904 287.738,42.875 287.488,42.827 C287.236,42.78 287.011,42.743 286.816,42.717 C286.31,42.65 285.984,42.686 285.837,42.823 C285.688,42.963 285.578,43.313 285.504,43.875 L285.504,43.875 Z" id="Shape" fill="#4D509B"></path>
                    <path d="M303.663,44.063 L301.99,49.108 C301.625,50.212 301.505,50.888 301.631,51.139 C301.756,51.39 302.371,51.698 303.475,52.064 C304.578,52.43 305.252,52.557 305.499,52.444 C305.744,52.332 306.042,51.751 306.39,50.701 L308.103,45.535 C308.246,45.105 308.359,44.784 308.445,44.573 C308.529,44.362 308.671,44.095 308.867,43.772 C309.063,43.449 309.269,43.233 309.484,43.126 C309.7,43.018 309.991,42.951 310.358,42.923 C310.725,42.896 311.137,42.958 311.595,43.109 L313.613,43.778 C314.071,43.929 314.438,44.126 314.717,44.368 C314.996,44.61 315.189,44.838 315.297,45.053 C315.404,45.268 315.441,45.564 315.405,45.94 C315.37,46.317 315.323,46.615 315.265,46.835 C315.206,47.055 315.107,47.38 314.964,47.81 L307.605,70.008 C307.461,70.439 307.348,70.759 307.263,70.97 C307.178,71.181 307.037,71.448 306.841,71.771 C306.644,72.094 306.439,72.31 306.223,72.417 C306.008,72.525 305.717,72.593 305.35,72.62 C304.982,72.648 304.57,72.585 304.113,72.433 L302.094,71.764 C301.637,71.612 301.269,71.416 300.99,71.174 C300.712,70.933 300.519,70.704 300.411,70.489 C300.304,70.274 300.266,69.979 300.303,69.602 C300.338,69.226 300.384,68.928 300.443,68.708 C300.5,68.488 300.601,68.163 300.744,67.732 L302.751,61.678 C303.189,60.36 303.339,59.521 303.204,59.163 C303.069,58.805 302.49,58.456 301.468,58.117 L301.025,57.97 C300.298,57.729 299.787,57.672 299.492,57.798 C299.196,57.924 298.888,58.471 298.567,59.44 L298.312,60.207 L296.305,66.261 C296.162,66.692 296.048,67.012 295.963,67.223 C295.878,67.434 295.737,67.701 295.541,68.024 C295.344,68.347 295.139,68.562 294.924,68.67 C294.708,68.778 294.417,68.846 294.05,68.873 C293.683,68.901 293.27,68.838 292.813,68.687 L290.795,68.018 C290.337,67.866 289.969,67.67 289.691,67.428 C289.413,67.186 289.219,66.958 289.111,66.743 C289.004,66.528 288.967,66.233 289.003,65.856 C289.038,65.48 289.084,65.182 289.143,64.961 C289.201,64.741 289.301,64.417 289.444,63.986 L296.803,41.788 C296.946,41.358 297.059,41.037 297.145,40.826 C297.229,40.616 297.371,40.348 297.567,40.025 C297.764,39.703 297.969,39.487 298.185,39.379 C298.4,39.271 298.691,39.204 299.058,39.176 C299.425,39.149 299.837,39.21 300.295,39.362 L302.314,40.031 C302.771,40.183 303.139,40.38 303.418,40.621 C303.695,40.863 303.889,41.091 303.997,41.306 C304.104,41.521 304.141,41.817 304.105,42.193 C304.07,42.569 304.023,42.868 303.965,43.088 C303.907,43.308 303.806,43.633 303.663,44.063 L303.663,44.063 Z" id="Shape" fill="#4D509B"></path>
                    <path d="M347.74,69.384 L336.307,83.543 C335.541,84.492 334.885,85.237 334.337,85.779 C333.79,86.321 333.126,86.805 332.346,87.231 C331.564,87.657 330.783,87.846 330.002,87.798 C329.221,87.75 328.29,87.481 327.21,86.991 C326.13,86.502 324.939,85.731 323.638,84.681 C322.492,83.755 321.557,82.882 320.834,82.062 C320.111,81.242 319.609,80.454 319.327,79.698 C319.045,78.942 318.886,78.248 318.848,77.617 C318.811,76.986 318.951,76.306 319.266,75.577 C319.581,74.848 319.935,74.196 320.328,73.619 C320.72,73.043 321.245,72.347 321.904,71.531 L333.156,57.663 C333.441,57.31 333.66,57.05 333.814,56.882 C333.967,56.715 334.193,56.514 334.491,56.281 C334.788,56.048 335.056,55.918 335.296,55.893 C335.536,55.868 335.831,55.907 336.186,56.01 C336.54,56.114 336.904,56.316 337.279,56.619 L338.933,57.954 C339.308,58.257 339.583,58.57 339.758,58.894 C339.934,59.218 340.034,59.499 340.06,59.738 C340.085,59.977 340.016,60.267 339.851,60.607 C339.685,60.947 339.537,61.21 339.406,61.395 C339.274,61.581 339.066,61.85 338.781,62.203 L327.028,76.759 C326.76,77.09 326.576,77.342 326.473,77.514 C326.369,77.686 326.288,77.911 326.228,78.19 C326.166,78.469 326.233,78.759 326.426,79.061 C326.619,79.363 326.937,79.691 327.378,80.048 C327.841,80.422 328.264,80.609 328.647,80.609 C329.03,80.609 329.323,80.517 329.525,80.334 C329.727,80.151 329.998,79.85 330.336,79.431 L342.116,64.842 C342.401,64.489 342.62,64.229 342.773,64.061 C342.926,63.893 343.148,63.699 343.437,63.476 C343.725,63.254 343.99,63.13 344.229,63.104 C344.468,63.079 344.764,63.118 345.118,63.221 C345.472,63.325 345.836,63.527 346.211,63.83 L347.865,65.165 C348.24,65.468 348.515,65.781 348.691,66.105 C348.866,66.429 348.967,66.71 348.993,66.95 C349.019,67.19 348.953,67.473 348.797,67.803 C348.64,68.133 348.496,68.389 348.364,68.574 C348.232,68.759 348.024,69.032 347.74,69.384 L347.74,69.384 Z" id="Shape" fill="#4D509B"></path>
                    <path d="M348.711,78.383 C349.957,77.4 351.169,76.705 352.348,76.299 C353.526,75.893 354.529,75.734 355.356,75.821 C356.183,75.908 357.003,76.182 357.818,76.641 C358.631,77.1 359.273,77.559 359.745,78.018 C360.215,78.477 360.714,79.04 361.241,79.708 C362.364,81.132 363.134,82.358 363.548,83.386 C363.961,84.414 363.935,85.112 363.467,85.481 L360.898,87.509 C360.23,88.036 359.562,87.877 358.895,87.031 L358.684,86.764 C358.58,86.631 358.329,86.187 357.933,85.434 C357.537,84.681 357.199,84.126 356.918,83.77 C356.162,82.813 355.34,82.686 354.45,83.388 C353.916,83.81 353.559,84.262 353.382,84.746 C353.203,85.229 353.102,86.004 353.077,87.071 C353.016,90.152 352.617,92.517 351.878,94.165 C351.139,95.813 350.024,97.227 348.533,98.403 C346.619,99.914 344.969,100.728 343.583,100.847 C341.687,101.007 339.912,100.475 338.261,99.251 C337.28,98.51 336.314,97.538 335.365,96.337 C334.276,94.957 333.508,93.686 333.059,92.523 C332.61,91.36 332.698,90.533 333.321,90.041 L335.891,88.013 C336.425,87.592 337.017,87.792 337.667,88.616 C337.824,88.816 338.101,89.338 338.496,90.182 C338.892,91.026 339.369,91.804 339.932,92.516 C340.336,93.027 340.899,93.387 341.621,93.593 C342.344,93.8 342.949,93.71 343.439,93.323 C343.751,93.077 343.984,92.847 344.14,92.634 C344.296,92.42 344.474,91.983 344.674,91.32 C344.872,90.657 345.028,89.757 345.143,88.62 C345.388,86.369 345.585,84.777 345.736,83.846 C345.886,82.915 346.197,81.948 346.669,80.944 C347.141,79.94 347.821,79.085 348.711,78.383 L348.711,78.383 Z" id="Shape" fill="#4D509B"></path>
                    <path d="M345.156,110.465 L343.441,107.478 C343.299,107.232 343.202,107.035 343.15,106.885 C343.096,106.736 343.046,106.535 343.001,106.284 C342.955,106.033 343.014,105.794 343.179,105.569 C343.344,105.343 343.598,105.132 343.943,104.935 L347.63,102.817 C348.613,102.253 349.43,102.535 350.079,103.666 L351.159,105.546 C351.879,106.8 352.126,107.671 351.9,108.16 C351.674,108.649 350.713,109.381 349.017,110.355 C347.617,111.16 346.724,111.557 346.343,111.547 C345.961,111.539 345.566,111.178 345.156,110.465 L345.156,110.465 Z M369.387,92.037 L371.504,95.724 C371.886,96.388 371.938,96.905 371.661,97.277 C371.384,97.649 370.877,98.046 370.139,98.47 C368.689,99.303 366.593,100.335 363.852,101.567 C361.11,102.798 359.116,103.723 357.87,104.341 C357.635,104.444 357.333,104.601 356.964,104.812 C355.521,105.543 354.606,105.914 354.219,105.923 C353.832,105.932 353.42,105.556 352.983,104.794 L352.242,103.504 C351.804,102.742 351.68,102.2 351.872,101.878 C352.062,101.556 352.806,100.957 354.101,100.083 C354.273,99.984 354.459,99.869 354.662,99.736 C354.863,99.604 355.002,99.516 355.076,99.474 C356.262,98.694 358.072,97.434 360.505,95.694 C362.938,93.953 364.879,92.667 366.329,91.834 C366.82,91.552 367.2,91.358 367.467,91.254 C367.734,91.15 368.054,91.138 368.427,91.217 C368.797,91.297 369.118,91.57 369.387,92.037 L369.387,92.037 Z" id="Shape" fill="#4D509B"></path>
                    <path d="M178.359,165.258 C179.798,164.59 181.138,164.194 182.379,164.071 C183.618,163.948 184.631,164.025 185.416,164.301 C186.2,164.577 186.936,165.032 187.621,165.667 C188.307,166.303 188.825,166.897 189.177,167.453 C189.529,168.009 189.884,168.673 190.242,169.443 C191.006,171.089 191.471,172.46 191.636,173.554 C191.8,174.65 191.614,175.323 191.073,175.574 L188.103,176.953 C187.332,177.311 186.719,177.001 186.265,176.024 L186.122,175.715 C186.05,175.561 185.908,175.071 185.698,174.248 C185.487,173.424 185.286,172.806 185.095,172.394 C184.581,171.289 183.81,170.974 182.782,171.453 C182.165,171.739 181.713,172.097 181.428,172.526 C181.142,172.955 180.865,173.685 180.594,174.718 C179.823,177.7 178.887,179.909 177.786,181.342 C176.685,182.775 175.274,183.892 173.552,184.692 C171.341,185.718 169.547,186.13 168.171,185.925 C166.289,185.642 164.686,184.714 163.362,183.142 C162.578,182.193 161.863,181.025 161.218,179.636 C160.478,178.042 160.025,176.627 159.857,175.393 C159.69,174.158 159.966,173.372 160.686,173.039 L163.656,171.66 C164.273,171.374 164.802,171.706 165.244,172.658 C165.351,172.888 165.5,173.461 165.689,174.373 C165.878,175.285 166.164,176.152 166.546,176.976 C166.82,177.567 167.284,178.046 167.941,178.414 C168.595,178.781 169.206,178.834 169.772,178.572 C170.131,178.404 170.413,178.234 170.614,178.063 C170.816,177.891 171.09,177.505 171.437,176.908 C171.784,176.308 172.144,175.47 172.518,174.389 C173.277,172.255 173.837,170.753 174.199,169.882 C174.561,169.011 175.086,168.141 175.777,167.274 C176.471,166.408 177.331,165.736 178.359,165.258 L178.359,165.258 Z" id="Shape" fill="#4D509B"></path>
                    <path d="M181.216,184.65 C182.818,183.527 184.363,182.659 185.856,182.046 C187.347,181.433 188.715,181.089 189.96,181.013 C191.205,180.937 192.37,181.019 193.457,181.261 C194.544,181.503 195.545,181.918 196.459,182.507 C197.373,183.095 198.187,183.736 198.898,184.431 C199.61,185.126 200.275,185.915 200.894,186.797 C201.512,187.679 201.45,188.38 200.706,188.901 L197.643,191.047 C197.527,191.129 197.43,191.188 197.352,191.226 C197.274,191.262 197.149,191.282 196.976,191.282 C196.802,191.282 196.623,191.2 196.439,191.035 C196.255,190.87 196.056,190.637 195.845,190.335 C195.665,190.079 195.519,189.846 195.404,189.632 C195.289,189.419 195.199,189.265 195.134,189.173 C194.695,188.546 194.09,188.165 193.32,188.029 C192.55,187.893 191.819,187.913 191.128,188.087 C190.436,188.26 189.643,188.573 188.749,189.026 C187.854,189.479 187.213,189.835 186.822,190.091 C186.43,190.348 186.003,190.639 185.539,190.965 C184.935,191.388 184.359,191.825 183.811,192.278 C183.263,192.731 182.534,193.408 181.623,194.304 C180.712,195.202 180.103,196.114 179.799,197.036 C179.494,197.96 179.594,198.78 180.099,199.501 C180.18,199.616 180.305,199.772 180.475,199.964 C180.645,200.157 180.835,200.403 181.047,200.706 C181.665,201.587 181.44,202.403 180.372,203.151 L178.039,204.786 C177.181,205.388 176.442,205.248 175.824,204.366 C175.075,203.298 174.476,202.221 174.026,201.135 C173.576,200.049 173.299,198.814 173.196,197.433 C173.093,196.051 173.265,194.693 173.715,193.357 C174.163,192.021 175.015,190.593 176.27,189.074 C177.523,187.557 179.173,186.082 181.216,184.65 L181.216,184.65 Z" id="Shape" fill="#4D509B"></path>
                    <path d="M203.647,190.543 L209.837,196.059 C213.879,199.662 213.779,203.843 209.536,208.606 C208.706,209.537 208.057,210.211 207.59,210.629 C207.121,211.048 206.49,211.426 205.697,211.762 C204.903,212.1 204.004,212.256 202.999,212.235 C202.617,212.236 202.237,212.163 201.857,212.014 C201.476,211.866 201.182,211.812 200.974,211.854 C200.765,211.896 200.5,212.097 200.18,212.458 C199.52,213.198 199.047,213.974 198.763,214.782 C198.478,215.592 198.579,216.214 199.067,216.647 C199.236,216.797 199.404,216.928 199.571,217.04 C199.738,217.152 199.884,217.233 200.008,217.286 C200.131,217.339 200.203,217.375 200.225,217.393 C200.69,217.808 200.837,218.272 200.666,218.784 C200.494,219.296 200.051,219.954 199.334,220.758 C199.146,220.97 198.796,221.351 198.286,221.903 C197.775,222.455 197.369,222.9 197.067,223.238 C196.728,223.619 196.337,223.802 195.894,223.788 C195.451,223.774 194.849,223.426 194.087,222.748 C192.733,221.541 192.02,220.146 191.949,218.564 C191.877,216.982 192.257,215.384 193.088,213.77 C193.647,212.673 194.033,211.707 194.246,210.873 C194.459,210.037 194.542,209.476 194.495,209.187 C194.448,208.898 194.372,208.707 194.266,208.613 C194.096,208.462 193.786,208.64 193.333,209.148 L189.316,213.656 C189.014,213.995 188.782,214.244 188.621,214.404 C188.459,214.564 188.225,214.754 187.916,214.971 C187.607,215.19 187.333,215.306 187.093,215.32 C186.853,215.334 186.559,215.281 186.21,215.16 C185.862,215.04 185.508,214.819 185.148,214.498 L182.925,212.519 C182.629,212.254 182.443,211.975 182.365,211.678 C182.287,211.381 182.344,211.051 182.534,210.69 C182.723,210.327 182.907,210.036 183.086,209.815 C183.263,209.593 183.541,209.272 183.918,208.848 L199.477,191.388 C199.778,191.049 200.009,190.8 200.171,190.64 C200.332,190.481 200.567,190.291 200.876,190.073 C201.185,189.855 201.459,189.738 201.699,189.724 C201.939,189.71 202.233,189.764 202.582,189.884 C202.934,190.002 203.288,190.223 203.647,190.543 L203.647,190.543 Z M204.75,199.213 C204.114,198.648 203.637,198.374 203.317,198.393 C202.996,198.411 202.582,198.706 202.073,199.278 C201.96,199.405 201.724,199.678 201.367,200.102 C201.01,200.524 200.719,200.862 200.492,201.116 C200.284,201.348 200.015,201.639 199.684,201.991 C199.352,202.341 199.14,202.569 199.045,202.675 C198.573,203.204 198.357,203.618 198.395,203.917 C198.431,204.216 198.768,204.648 199.403,205.214 C200.567,206.251 201.988,205.829 203.667,203.944 C205.553,201.828 205.913,200.25 204.75,199.213 L204.75,199.213 Z" id="Shape" fill="#4D509B"></path>
                    <path d="M208.74,216.743 C209.088,216.045 209.347,215.517 209.518,215.159 C209.689,214.801 209.932,214.273 210.249,213.576 C210.565,212.879 210.803,212.365 210.962,212.032 C211.645,210.599 212.241,209.447 212.751,208.576 C213.261,207.704 213.923,206.842 214.738,205.99 C215.551,205.137 216.394,204.574 217.263,204.297 C218.132,204.022 219.2,203.957 220.464,204.105 C221.728,204.253 223.153,204.704 224.74,205.46 C226.25,206.18 227.434,206.973 228.294,207.838 C229.154,208.703 229.739,209.548 230.053,210.372 C230.366,211.197 230.442,212.176 230.28,213.307 C230.117,214.438 229.86,215.47 229.51,216.403 C229.159,217.335 228.643,218.517 227.959,219.95 C227.581,220.743 227.061,221.885 226.397,223.374 C225.734,224.864 225.244,225.941 224.926,226.606 C224.28,227.962 223.679,229.089 223.125,229.987 C222.571,230.885 221.902,231.728 221.118,232.516 C220.334,233.304 219.507,233.836 218.638,234.112 C217.768,234.389 216.73,234.46 215.523,234.323 C214.317,234.187 212.997,233.778 211.564,233.094 C209.977,232.337 208.729,231.514 207.818,230.625 C206.907,229.735 206.286,228.865 205.953,228.016 C205.62,227.167 205.525,226.163 205.669,225.007 C205.812,223.851 206.062,222.8 206.418,221.856 C206.774,220.911 207.294,219.722 207.978,218.289 C208.138,217.956 208.391,217.441 208.74,216.743 L208.74,216.743 Z M223.158,211.747 C222.967,211.357 222.576,211.022 221.988,210.742 C221.399,210.461 220.893,210.369 220.47,210.466 C220.047,210.563 219.759,210.724 219.605,210.948 C219.451,211.174 219.27,211.503 219.062,211.937 L213.297,224.027 C213.102,224.437 212.965,224.756 212.887,224.986 C212.809,225.216 212.745,225.515 212.695,225.882 C212.645,226.251 212.724,226.579 212.932,226.867 C213.14,227.155 213.475,227.409 213.936,227.628 C214.396,227.848 214.803,227.948 215.159,227.929 C215.513,227.909 215.818,227.765 216.073,227.493 C216.327,227.222 216.519,226.983 216.649,226.778 C216.778,226.573 216.94,226.266 217.135,225.856 L222.9,213.766 C223.108,213.331 223.25,212.983 223.328,212.721 C223.405,212.462 223.349,212.137 223.158,211.747 L223.158,211.747 Z" id="Shape" fill="#4D509B"></path>
                    <path d="M236.795,234.861 C237.653,235.049 238.501,235.22 239.338,235.375 C240.175,235.53 240.69,235.627 240.884,235.669 C241.687,235.845 242.174,236.141 242.344,236.555 C242.515,236.969 242.521,237.537 242.364,238.256 L242.246,238.797 C242.149,239.24 242.069,239.57 242.007,239.789 C241.945,240.008 241.832,240.287 241.671,240.629 C241.509,240.971 241.327,241.207 241.124,241.336 C240.922,241.467 240.639,241.565 240.276,241.63 C239.913,241.695 239.497,241.677 239.026,241.574 L229.639,239.519 C229.167,239.415 228.782,239.259 228.48,239.047 C228.177,238.836 227.961,238.629 227.832,238.427 C227.703,238.224 227.636,237.934 227.632,237.556 C227.627,237.178 227.642,236.876 227.677,236.652 C227.711,236.427 227.778,236.093 227.874,235.65 L232.874,212.805 C232.972,212.363 233.051,212.032 233.113,211.813 C233.176,211.595 233.288,211.314 233.45,210.972 C233.611,210.631 233.794,210.395 233.996,210.265 C234.199,210.135 234.481,210.038 234.844,209.972 C235.207,209.906 235.623,209.925 236.094,210.028 L238.171,210.482 C238.642,210.586 239.028,210.743 239.33,210.954 C239.632,211.166 239.848,211.372 239.977,211.574 C240.107,211.777 240.173,212.068 240.178,212.445 C240.182,212.824 240.166,213.125 240.132,213.349 C240.098,213.573 240.031,213.908 239.935,214.351 L236.017,232.253 C235.913,232.724 235.849,233.087 235.822,233.341 C235.795,233.597 235.854,233.893 235.998,234.229 C236.142,234.566 236.407,234.776 236.795,234.861 L236.795,234.861 Z" id="Shape" fill="#4D509B"></path>
                    <path d="M256.152,237.152 C257.029,237.197 257.894,237.226 258.746,237.241 C259.596,237.256 260.12,237.268 260.318,237.278 C261.139,237.32 261.668,237.531 261.904,237.912 C262.14,238.293 262.24,238.851 262.203,239.588 L262.174,240.141 C262.152,240.594 262.127,240.933 262.102,241.159 C262.077,241.386 262.012,241.68 261.909,242.043 C261.805,242.407 261.664,242.669 261.485,242.831 C261.307,242.991 261.044,243.135 260.698,243.259 C260.35,243.384 259.936,243.433 259.455,243.409 L249.858,242.922 C249.376,242.898 248.97,242.806 248.637,242.648 C248.304,242.49 248.057,242.32 247.896,242.142 C247.735,241.963 247.622,241.688 247.555,241.316 C247.488,240.944 247.453,240.644 247.451,240.416 C247.448,240.189 247.459,239.85 247.481,239.396 L248.667,216.041 C248.689,215.588 248.714,215.248 248.739,215.022 C248.764,214.796 248.829,214.501 248.933,214.138 C249.037,213.775 249.178,213.511 249.356,213.351 C249.535,213.189 249.797,213.046 250.144,212.921 C250.491,212.798 250.905,212.747 251.386,212.773 L253.51,212.88 C253.991,212.903 254.398,212.995 254.731,213.154 C255.064,213.313 255.311,213.481 255.472,213.66 C255.633,213.839 255.746,214.114 255.813,214.486 C255.88,214.858 255.914,215.159 255.917,215.385 C255.919,215.613 255.909,215.953 255.887,216.405 L254.958,234.708 C254.934,235.19 254.929,235.559 254.944,235.814 C254.959,236.071 255.066,236.352 255.263,236.661 C255.459,236.969 255.756,237.133 256.152,237.152 L256.152,237.152 Z" id="Shape" fill="#4D509B"></path>
                    <path d="M276.045,212.482 L284.147,210.719 C289.438,209.568 292.761,212.108 294.118,218.339 C294.384,219.559 294.548,220.48 294.61,221.105 C294.674,221.73 294.608,222.461 294.415,223.301 C294.22,224.142 293.819,224.961 293.21,225.761 C292.986,226.071 292.704,226.335 292.36,226.555 C292.016,226.776 291.799,226.982 291.712,227.175 C291.623,227.368 291.63,227.7 291.733,228.171 C291.944,229.141 292.293,229.979 292.781,230.685 C293.267,231.392 293.83,231.675 294.467,231.537 C294.69,231.488 294.894,231.43 295.082,231.359 C295.27,231.29 295.422,231.22 295.537,231.152 C295.652,231.083 295.724,231.046 295.752,231.039 C296.361,230.907 296.822,231.06 297.136,231.5 C297.45,231.94 297.721,232.686 297.949,233.738 C298.01,234.015 298.112,234.522 298.258,235.259 C298.404,235.996 298.526,236.586 298.622,237.03 C298.73,237.528 298.648,237.953 298.377,238.301 C298.105,238.651 297.47,238.934 296.473,239.151 C294.7,239.538 293.153,239.294 291.832,238.421 C290.51,237.549 289.441,236.302 288.624,234.681 C288.066,233.583 287.512,232.704 286.961,232.04 C286.41,231.376 286.006,230.979 285.744,230.847 C285.483,230.716 285.284,230.665 285.145,230.695 C284.923,230.744 284.885,231.099 285.03,231.765 L286.314,237.663 C286.411,238.106 286.476,238.44 286.51,238.665 C286.544,238.891 286.56,239.192 286.554,239.569 C286.55,239.948 286.482,240.237 286.353,240.44 C286.222,240.642 286.006,240.849 285.705,241.059 C285.402,241.271 285.016,241.427 284.545,241.53 L281.637,242.163 C281.248,242.247 280.912,242.233 280.627,242.122 C280.342,242.01 280.107,241.77 279.927,241.403 C279.745,241.038 279.617,240.717 279.543,240.442 C279.469,240.169 279.372,239.754 279.252,239.201 L274.277,216.35 C274.181,215.907 274.115,215.573 274.082,215.348 C274.047,215.123 274.033,214.823 274.037,214.444 C274.042,214.066 274.109,213.776 274.239,213.573 C274.369,213.371 274.586,213.165 274.887,212.954 C275.188,212.743 275.574,212.586 276.045,212.482 L276.045,212.482 Z M283.706,216.689 C282.875,216.871 282.373,217.096 282.199,217.366 C282.025,217.637 282.021,218.144 282.183,218.892 C282.219,219.058 282.302,219.41 282.435,219.947 C282.566,220.484 282.667,220.92 282.74,221.252 C282.806,221.557 282.885,221.945 282.972,222.42 C283.061,222.895 283.12,223.199 283.151,223.338 C283.301,224.031 283.508,224.45 283.773,224.596 C284.037,224.742 284.584,224.723 285.415,224.543 C286.937,224.211 287.432,222.813 286.895,220.348 C286.293,217.578 285.229,216.358 283.706,216.689 L283.706,216.689 Z" id="Shape" fill="#4D509B"></path>
                    <path d="M301.152,208.441 L310.258,229.981 C310.435,230.399 310.56,230.714 310.636,230.929 C310.71,231.144 310.781,231.437 310.846,231.81 C310.911,232.182 310.899,232.48 310.808,232.703 C310.718,232.926 310.544,233.169 310.286,233.432 C310.028,233.696 309.677,233.92 309.233,234.108 L307.275,234.936 C306.83,235.124 306.425,235.219 306.056,235.221 C305.687,235.223 305.392,235.178 305.169,235.088 C304.945,234.996 304.724,234.799 304.501,234.492 C304.28,234.185 304.118,233.931 304.017,233.727 C303.915,233.524 303.777,233.213 303.6,232.795 L294.494,211.255 C294.318,210.837 294.191,210.522 294.117,210.307 C294.041,210.093 293.971,209.799 293.906,209.427 C293.842,209.054 293.853,208.756 293.944,208.533 C294.035,208.309 294.209,208.067 294.466,207.804 C294.725,207.542 295.075,207.316 295.519,207.128 L297.478,206.3 C297.921,206.112 298.328,206.019 298.697,206.017 C299.065,206.015 299.361,206.059 299.584,206.15 C299.807,206.24 300.029,206.439 300.251,206.745 C300.473,207.052 300.635,207.307 300.736,207.51 C300.837,207.713 300.977,208.023 301.152,208.441 L301.152,208.441 Z" id="Shape" fill="#4D509B"></path>
                    <path d="M324.84,216.004 L322.669,212.904 C322.327,212.416 322.002,212.186 321.691,212.213 C321.38,212.24 321.017,212.4 320.599,212.692 C320.064,213.067 319.635,213.195 319.31,213.076 C318.986,212.958 318.636,212.632 318.261,212.097 L318.017,211.748 C317.009,210.309 316.484,209.396 316.439,209.012 C316.395,208.629 316.779,208.153 317.592,207.582 L322.573,204.095 C322.921,203.852 323.229,203.688 323.499,203.602 C323.769,203.518 324.001,203.529 324.196,203.633 C324.39,203.739 324.54,203.842 324.645,203.942 C324.749,204.043 324.883,204.208 325.045,204.44 L332.654,215.307 C333.109,215.957 333.361,216.602 333.412,217.242 C333.461,217.882 333.406,218.432 333.243,218.891 C333.08,219.352 332.75,219.842 332.25,220.365 C331.751,220.887 331.336,221.272 331.009,221.52 C330.68,221.767 330.238,222.086 329.68,222.476 C328.496,223.305 327.304,223.975 326.105,224.487 C324.906,224.998 323.582,225.319 322.134,225.45 C320.686,225.582 319.272,225.439 317.889,225.022 C316.508,224.606 315.054,223.79 313.528,222.574 C312.003,221.358 310.549,219.764 309.167,217.79 C307.834,215.887 306.88,214.019 306.308,212.188 C305.736,210.357 305.507,208.745 305.62,207.349 C305.733,205.955 306.088,204.633 306.684,203.385 C307.28,202.137 307.959,201.091 308.718,200.248 C309.477,199.404 310.321,198.658 311.25,198.008 C313.084,196.723 314.467,195.919 315.4,195.595 C316.332,195.272 316.986,195.376 317.359,195.91 L319.286,198.661 C319.676,199.219 319.535,199.732 318.861,200.205 C318.536,200.432 317.92,200.752 317.013,201.16 C316.107,201.57 315.374,201.971 314.817,202.361 C313.795,203.076 313.144,204 312.863,205.131 C312.582,206.262 312.625,207.409 312.989,208.572 C313.354,209.736 313.718,210.701 314.082,211.467 C314.445,212.234 314.814,212.883 315.187,213.418 C315.789,214.276 316.419,215.064 317.076,215.78 C317.734,216.497 318.494,217.201 319.359,217.892 C320.224,218.584 321.13,218.988 322.077,219.104 C323.024,219.22 323.914,218.986 324.75,218.4 C325.541,217.848 325.57,217.049 324.84,216.004 L324.84,216.004 Z" id="Shape" fill="#4D509B"></path>
                    <path d="M324.821,190.186 L328.924,193.565 C329.822,194.305 330.41,194.661 330.69,194.633 C330.968,194.607 331.477,194.145 332.216,193.246 C332.955,192.35 333.317,191.766 333.301,191.496 C333.284,191.225 332.85,190.738 331.996,190.035 L327.795,186.576 C327.445,186.287 327.187,186.066 327.021,185.91 C326.855,185.756 326.657,185.528 326.426,185.228 C326.195,184.928 326.069,184.658 326.046,184.418 C326.023,184.179 326.065,183.883 326.172,183.53 C326.278,183.177 326.485,182.815 326.791,182.442 L328.143,180.801 C328.45,180.43 328.766,180.156 329.091,179.985 C329.416,179.814 329.699,179.714 329.938,179.692 C330.178,179.669 330.467,179.741 330.805,179.91 C331.144,180.079 331.405,180.229 331.589,180.362 C331.774,180.497 332.041,180.707 332.391,180.995 L350.442,195.862 C350.793,196.151 351.051,196.372 351.217,196.527 C351.383,196.682 351.58,196.911 351.811,197.21 C352.041,197.511 352.168,197.78 352.192,198.019 C352.215,198.259 352.172,198.555 352.066,198.908 C351.96,199.262 351.753,199.623 351.446,199.995 L350.094,201.637 C349.787,202.008 349.473,202.282 349.147,202.453 C348.821,202.624 348.539,202.723 348.299,202.746 C348.059,202.769 347.771,202.697 347.432,202.528 C347.094,202.359 346.832,202.209 346.649,202.075 C346.464,201.942 346.198,201.731 345.847,201.443 L340.924,197.388 C339.852,196.505 339.123,196.062 338.74,196.058 C338.357,196.055 337.824,196.47 337.138,197.3 L336.841,197.661 C336.355,198.252 336.116,198.708 336.128,199.029 C336.138,199.35 336.538,199.835 337.325,200.483 L337.949,200.997 L342.872,205.052 C343.223,205.341 343.48,205.563 343.646,205.718 C343.812,205.873 344.01,206.101 344.241,206.4 C344.471,206.701 344.598,206.97 344.621,207.21 C344.644,207.449 344.602,207.746 344.495,208.098 C344.39,208.452 344.182,208.814 343.876,209.186 L342.524,210.827 C342.217,211.199 341.902,211.472 341.577,211.643 C341.251,211.816 340.968,211.914 340.729,211.936 C340.489,211.959 340.2,211.887 339.862,211.719 C339.524,211.55 339.262,211.399 339.078,211.266 C338.894,211.133 338.627,210.922 338.276,210.633 L320.225,195.766 C319.875,195.478 319.617,195.256 319.451,195.101 C319.285,194.946 319.087,194.719 318.856,194.418 C318.626,194.119 318.499,193.849 318.475,193.609 C318.452,193.369 318.495,193.074 318.601,192.72 C318.707,192.368 318.914,192.005 319.221,191.633 L320.573,189.992 C320.879,189.62 321.195,189.348 321.52,189.175 C321.846,189.003 322.128,188.905 322.368,188.882 C322.608,188.859 322.897,188.932 323.235,189.101 C323.574,189.269 323.835,189.42 324.018,189.553 C324.205,189.688 324.472,189.898 324.821,190.186 L324.821,190.186 Z" id="Shape" fill="#4D509B"></path>
                    <path d="M341.813,171.438 L359.251,180.667 C359.714,180.944 360.054,181.165 360.272,181.327 C360.491,181.491 360.713,181.722 360.94,182.018 C361.169,182.315 361.268,182.657 361.241,183.042 C361.213,183.429 361.065,183.872 360.801,184.373 L359.807,186.252 C359.581,186.678 359.328,187.008 359.042,187.242 C358.758,187.476 358.501,187.629 358.271,187.699 C358.041,187.77 357.744,187.758 357.378,187.66 C357.013,187.563 356.726,187.469 356.519,187.374 C356.312,187.281 356.008,187.128 355.607,186.916 L338.433,177.826 C337.956,177.574 337.611,177.471 337.394,177.516 C337.177,177.561 336.962,177.786 336.75,178.186 C336.71,178.261 336.634,178.421 336.521,178.665 C336.408,178.911 336.304,179.12 336.211,179.296 C335.614,180.423 334.966,180.801 334.264,180.43 L331.07,178.74 C330.719,178.554 330.533,178.239 330.511,177.795 C330.489,177.351 330.612,176.879 330.876,176.377 L336.366,166.004 C336.632,165.504 336.954,165.137 337.333,164.904 C337.713,164.673 338.077,164.649 338.429,164.835 L341.622,166.525 C342.324,166.896 342.376,167.646 341.78,168.773 C341.74,168.848 341.655,168.996 341.522,169.214 C341.39,169.433 341.278,169.63 341.185,169.806 C340.946,170.256 340.866,170.576 340.944,170.76 C341.021,170.947 341.312,171.172 341.813,171.438 L341.813,171.438 Z" id="Shape" fill="#4D509B"></path>
                    <path d="M102.948,227.289 C105.728,225.425 106.534,222.509 108.421,217.862 C108.734,217.095 109.823,214.57 110.608,213.834 C111.351,213.139 111.349,213.888 111.497,214.749 C112.517,220.659 114.573,233.184 123.311,231.975 C133.706,230.539 125.215,219.886 126.504,213.413 C126.894,211.452 127.571,211.51 128.162,213.324 C129.526,217.515 129.278,220.702 135.308,227.216 C139.502,231.743 144.326,232.163 145.912,227.384 C147.567,222.39 145.114,219.571 143.35,217.16 C139.864,212.403 138.634,203.421 138.269,200.204 C137.195,190.694 137.803,182.41 140.843,176.094 C141.678,174.353 143.342,173.221 142.777,172.067 C142.558,171.616 141.934,171.059 137.439,174.128 C131.79,177.984 121.981,183.209 118.575,185.425 C107.044,192.938 91.697,202.243 90.411,217.243 C89.191,231.517 98.287,230.415 102.948,227.289 L102.948,227.289 Z" id="Shape" fill="#4D509B"></path>
                    <path d="M362.444,227.996 C361.052,222.907 366.058,219.395 369.827,216.971 C371.792,215.707 373.947,214.416 375.448,212.576 C376.961,210.723 377.997,208.322 379.304,206.311 C382.058,202.082 382.746,197.123 382.731,192.221 C382.724,190.161 381.497,187.975 381.915,185.968 C382.416,183.579 384.539,186.003 385.161,186.939 C388.032,191.235 390.663,195.711 393.548,199.99 C396.712,204.681 399.429,209.721 402.962,214.158 C405.673,217.567 408.051,221.33 410.008,225.307 C411.084,227.489 411.635,229.83 412.598,232.038 C413.526,234.162 413.869,236.834 413.223,239.106 C411.872,243.867 405.619,240.649 403.388,238.439 C402.005,237.066 400.667,235.485 399.578,233.875 C399.067,233.121 398.621,232.327 398.117,231.566 C397.653,230.867 397.188,229.535 396.546,229.009 C396.303,229.7 396.455,230.703 396.514,231.427 C396.611,232.618 396.378,233.859 396.258,235.045 C396.046,237.158 395.535,239.185 394.952,241.218 C393.889,244.931 392.448,250.749 387.448,250.596 C382.857,250.45 381.6,243.755 381.73,240.228 C381.815,237.996 382.267,235.797 382.574,233.589 C382.738,232.415 382.849,231.245 382.947,230.066 C383.029,229.075 383.357,227.964 383.26,226.983 C382.596,227.328 381.655,228.121 381.13,228.636 C380.384,229.365 379.3,230.025 378.412,230.587 C376.302,231.929 374.25,232.704 371.844,233.342 C369.977,233.839 367.708,234.608 365.936,233.587 C363.563,232.216 363.137,230.512 362.444,227.996 C362.191,227.06 362.631,228.663 362.444,227.996 L362.444,227.996 Z" id="Shape" fill="#4D509B"></path>
                    <path d="M79.052,112.579 C78.215,111.66 69.475,111.039 66.855,110.601 C62.264,109.831 57.947,108.003 53.62,106.326 C45.005,102.986 36.136,99.747 26.941,98.497 C22.292,97.867 17.51,96.868 12.801,97.077 C10.68,97.172 8.56,97.422 6.494,97.927 C4.67,98.372 1.747,98.717 0.639,100.434 C-1.207,103.292 9.457,104.997 11.066,105.367 C13.63,105.956 16.174,106.606 18.751,107.138 C20.688,107.535 25.433,107.631 25.591,108.67 C25.749,109.709 17.148,109.272 13.907,109.657 C10.666,110.042 1.829,111.702 4.722,115.112 C6.86,117.632 12.354,117.326 15.263,117.506 C17.151,117.621 27.916,117.377 28.083,118.21 C28.25,119.043 17.713,121.421 15.682,122.51 C14.552,123.117 10.964,124.977 11.583,126.712 C12.219,128.495 15.284,128.649 16.835,128.559 C20.511,128.339 24.332,127.283 27.807,126.127 C29.202,125.666 48.122,119.064 49.308,118.7 C51.417,118.055 53.465,117.311 55.619,116.801 C59.681,115.838 63.501,114.477 67.639,113.797 C69.617,113.474 77.961,113.513 79.052,112.579 C78.995,112.52 78.979,112.643 79.052,112.579 L79.052,112.579 Z" id="Shape" fill="#FF8338"></path>
                    <path d="M68.08,40.515 C64.418,41.286 65.048,46.304 66.579,48.495 C67.528,49.858 68.602,51.163 69.989,52.102 C70.871,52.696 73.553,53.67 73.977,54.687 C72.605,54.788 70.246,53.469 68.899,53.085 C66.817,52.492 64.767,51.823 62.585,51.741 C58.938,51.603 53.058,53.115 54.266,57.991 C55.221,61.847 59.39,63.975 62.693,65.536 C64.838,66.549 67.092,67.347 69.409,67.862 C69.88,67.967 74.586,68.812 74.693,68.598 C74.229,69.528 66.12,73.471 64.482,74.411 C61.801,75.951 59.038,79.621 60.116,82.895 C61.995,88.602 69.24,85.002 72.403,82.861 C77.549,79.379 83.039,76.328 88.491,73.356 C93.272,70.749 104.751,63.727 105.084,62.936 C105.417,62.145 97.7,58.137 95.346,56.612 C90.673,53.586 86.55,49.798 81.941,46.684 C77.782,43.882 73.704,39.345 68.08,40.515 C66.755,40.794 69.028,40.317 68.08,40.515 L68.08,40.515 Z" id="Shape" fill="#FF8338"></path>
                    <path d="M93.618,147.564 C91.366,146.558 81.323,145.684 78.723,145.385 C73.848,144.826 69.002,144.318 64.116,143.945 C59.25,143.576 40.843,141.795 36.481,142.152 C32.727,142.46 28.231,142.935 24.898,144.866 C23.066,145.93 21.025,146.983 20.748,149.292 C20.481,151.512 22.127,153.6 23.787,154.895 C27.234,157.583 33.136,158.645 37.408,158.717 C39.942,158.758 42.277,158.594 44.788,158.272 C46.794,158.015 50.508,156.846 52.408,157.622 C51.64,158.492 50.268,158.953 49.289,159.562 C47.767,160.508 46.224,161.413 44.698,162.361 C41.561,164.312 38.309,166.364 35.681,168.983 C33.199,171.458 30.78,173.99 28.839,176.923 C27.993,178.198 27.483,180.006 28.25,181.452 C29.077,183.008 31.604,182.985 33.106,183.139 C36.421,183.476 40.416,182.22 43.536,181.195 C47.289,179.96 50.951,178.626 54.559,177.019 C57.889,175.537 61.11,173.956 64.314,172.225 C66.021,171.301 65.647,172.057 65.309,173.526 C64.831,175.606 64.339,177.682 63.883,179.767 C62.541,185.946 60.243,193.654 62.613,199.823 C63.774,202.844 66.915,203.863 69.792,202.413 C73.107,200.743 75.534,197.382 77.161,194.141 C80.505,187.482 83.107,180.292 85.671,173.305 C87.001,169.682 88.268,166.016 89.374,162.317 C90.521,158.491 94.697,148.048 93.618,147.564 C93.37,147.453 94.086,147.773 93.618,147.564 L93.618,147.564 Z" id="Shape" fill="#FF8338"></path>
                </g>
            </g>
        </g>
    </g>
</svg>