<?xml version="1.0" encoding="UTF-8" standalone="no"?>
<svg width="5251px" height="242px" viewBox="0 0 5251 242" version="1.1" xmlns="http://www.w3.org/2000/svg" xmlns:xlink="http://www.w3.org/1999/xlink">
    <!-- Generator: Sketch 3.8.3 (29802) - http://www.bohemiancoding.com/sketch -->
    <title>brewing_pipes</title>
    <desc>Created with Sketch.</desc>
    <defs></defs>
    <g id="Page-1" stroke="none" stroke-width="1" fill="none" fill-rule="evenodd">
        <g id="brewing_pipes">
            <g id="Page-1">
                <g id="brewing_pipes">
                    <g id="Pipes">
                        <g id="Page-1">
                            <g id="Pipes">
                                <g id="Group">
                                    <g id="Pipes">
                                        <path d="M1107.89633,181.824564 C1103.42525,181.824564 1099.78888,184.210764 1099.78888,187.145618 L1099.78888,187.376709 L1018.25779,187.376709 L1018.25779,187.145618 C1018.25779,184.210764 1014.62141,181.824564 1010.15147,181.824564 C1005.79963,181.824564 1002.24957,184.087764 1002.06218,186.913782 L495.588668,186.913782 L495.588668,184.3688 C495.588668,181.434691 491.952294,179.047 487.481213,179.047 C486.875907,179.047 486.286501,179.093964 485.719809,179.178945 L485.719809,157.352782 C485.719809,149.144582 476.290448,142.956564 463.785728,142.956564 L358.211643,142.956564 C345.340106,142.956564 334.868212,149.414436 334.868212,157.352782 L334.868212,181.615836 C331.602062,182.3024 329.229675,184.313636 329.229675,186.683436 L329.229675,186.914527 L92.3179877,186.914527 L92.3179877,186.683436 C92.3179877,183.748582 88.6827495,181.362382 84.2116677,181.362382 C79.7417216,181.362382 76.1064834,183.748582 76.1064834,186.683436 L76.1064834,186.914527 L16.986449,186.914527 L16.986449,186.683436 C16.986449,183.748582 13.3489395,181.362382 8.87899336,181.362382 C4.40904724,181.362382 0.772673384,183.748582 0.772673384,186.683436 L0.772673384,202.415509 C0.772673384,205.349618 4.40904724,207.736564 8.87899336,207.736564 C13.3489395,207.736564 16.986449,205.349618 16.986449,202.415509 L16.986449,201.258564 L76.1064834,201.258564 L76.1064834,202.415509 C76.1064834,205.349618 79.7428572,207.736564 84.2116677,207.736564 C88.6827495,207.736564 92.3179877,205.349618 92.3179877,202.415509 L92.3179877,201.258564 L329.229675,201.258564 L329.229675,202.415509 C329.229675,204.785309 331.602062,206.7958 334.868212,207.483109 L334.868212,226.6562 C334.868212,234.817436 345.775062,241.977527 358.211643,241.977527 L463.785728,241.977527 C475.880476,241.977527 485.719809,235.104436 485.719809,226.6562 L485.719809,205.292964 C486.287637,205.376455 486.875907,205.424164 487.481213,205.424164 C491.345854,205.424164 494.580205,203.638055 495.389928,201.259309 L1002.04401,201.259309 L1002.04401,202.879182 C1002.04401,205.813291 1005.68152,208.199491 1010.15147,208.199491 C1014.62141,208.199491 1018.25779,205.813291 1018.25779,202.879182 L1018.25779,201.722236 L1099.78888,201.722236 L1099.78888,202.879182 C1099.78888,205.813291 1103.42525,208.199491 1107.89633,208.199491 C1112.36628,208.199491 1116.00265,205.813291 1116.00265,202.879182 L1116.00265,187.147109 C1116.00265,184.210764 1112.36628,181.824564 1107.89633,181.824564 L1107.89633,181.824564 L1107.89633,181.824564 L1107.89633,181.824564 Z M465.276846,224.856673 L465.276846,217.915745 L475.852084,217.915745 L475.852084,224.856673 L465.276846,224.856673 L465.276846,224.856673 L465.276846,224.856673 L465.276846,224.856673 Z M461.047659,235.498036 L450.474692,235.498036 L450.474692,227.632 L461.047659,227.632 L461.047659,235.498036 L461.047659,235.498036 L461.047659,235.498036 L461.047659,235.498036 Z M361.654955,227.632 L372.229058,227.632 L372.229058,235.498036 L361.654955,235.498036 L361.654955,227.632 L361.654955,227.632 L361.654955,227.632 L361.654955,227.632 Z M357.425768,159.613745 L357.425768,166.554673 L344.738207,166.554673 L344.738207,159.613745 L357.425768,159.613745 L357.425768,159.613745 L357.425768,159.613745 L357.425768,159.613745 Z M361.654955,149.434564 L372.229058,149.434564 L372.229058,156.838418 L361.654955,156.838418 L361.654955,149.434564 L361.654955,149.434564 L361.654955,149.434564 L361.654955,149.434564 Z M461.047659,156.838418 L450.474692,156.838418 L450.474692,149.434564 L461.047659,149.434564 L461.047659,156.838418 L461.047659,156.838418 L461.047659,156.838418 L461.047659,156.838418 Z M475.850949,176.270927 L465.27571,176.270927 L465.27571,169.330745 L475.850949,169.330745 L475.850949,176.270927 L475.850949,176.270927 L475.850949,176.270927 L475.850949,176.270927 Z M357.425768,188.765491 L357.425768,195.705673 L345.442315,195.705673 L345.442315,188.765491 L357.425768,188.765491 L357.425768,188.765491 L357.425768,188.765491 L357.425768,188.765491 Z M446.24437,185.989418 L435.670267,185.989418 L435.670267,179.047 L446.24437,179.047 L446.24437,185.989418 L446.24437,185.989418 L446.24437,185.989418 L446.24437,185.989418 Z M450.474692,179.047745 L461.047659,179.047745 L461.047659,185.990164 L450.474692,185.990164 L450.474692,179.047745 L450.474692,179.047745 L450.474692,179.047745 L450.474692,179.047745 Z M406.064823,195.704927 L406.064823,188.764745 L416.637791,188.764745 L416.637791,195.704927 L406.064823,195.704927 L406.064823,195.704927 L406.064823,195.704927 L406.064823,195.704927 Z M416.637791,198.482491 L416.637791,205.423418 L406.064823,205.423418 L406.064823,198.482491 L416.637791,198.482491 L416.637791,198.482491 L416.637791,198.482491 L416.637791,198.482491 Z M391.261534,188.765491 L401.835637,188.765491 L401.835637,195.705673 L391.261534,195.705673 L391.261534,188.765491 L391.261534,188.765491 L391.261534,188.765491 L391.261534,188.765491 Z M387.032347,195.704927 L376.457109,195.704927 L376.457109,188.764745 L387.032347,188.764745 L387.032347,195.704927 L387.032347,195.704927 L387.032347,195.704927 L387.032347,195.704927 Z M406.064823,185.989418 L406.064823,179.047 L416.637791,179.047 L416.637791,185.989418 L406.064823,185.989418 L406.064823,185.989418 L406.064823,185.989418 L406.064823,185.989418 Z M420.868113,188.765491 L431.443351,188.765491 L431.443351,195.705673 L420.868113,195.705673 L420.868113,188.765491 L420.868113,188.765491 L420.868113,188.765491 L420.868113,188.765491 Z M435.671403,188.765491 L446.245505,188.765491 L446.245505,195.705673 L435.671403,195.705673 L435.671403,188.765491 L435.671403,188.765491 L435.671403,188.765491 L435.671403,188.765491 Z M431.442216,185.989418 L420.866977,185.989418 L420.866977,179.047 L431.442216,179.047 L431.442216,185.989418 L431.442216,185.989418 L431.442216,185.989418 L431.442216,185.989418 Z M420.868113,176.270927 L420.868113,169.330745 L431.443351,169.330745 L431.443351,176.270927 L420.868113,176.270927 L420.868113,176.270927 L420.868113,176.270927 L420.868113,176.270927 Z M416.637791,176.270927 L406.064823,176.270927 L406.064823,169.330745 L416.637791,169.330745 L416.637791,176.270927 L416.637791,176.270927 L416.637791,176.270927 L416.637791,176.270927 Z M401.835637,176.270927 L391.261534,176.270927 L391.261534,169.330745 L401.835637,169.330745 L401.835637,176.270927 L401.835637,176.270927 L401.835637,176.270927 L401.835637,176.270927 Z M401.835637,179.047745 L401.835637,185.990164 L391.261534,185.990164 L391.261534,179.047745 L401.835637,179.047745 L401.835637,179.047745 L401.835637,179.047745 L401.835637,179.047745 Z M387.032347,185.989418 L376.457109,185.989418 L376.457109,179.047 L387.032347,179.047 L387.032347,185.989418 L387.032347,185.989418 L387.032347,185.989418 L387.032347,185.989418 Z M372.229058,185.989418 L361.654955,185.989418 L361.654955,179.047 L372.229058,179.047 L372.229058,185.989418 L372.229058,185.989418 L372.229058,185.989418 L372.229058,185.989418 Z M372.229058,188.765491 L372.229058,195.705673 L361.654955,195.705673 L361.654955,188.765491 L372.229058,188.765491 L372.229058,188.765491 L372.229058,188.765491 L372.229058,188.765491 Z M345.442315,202.414764 L345.442315,198.482491 L357.425768,198.482491 L357.425768,205.423418 L344.738207,205.423418 L344.738207,204.575836 C345.187928,203.914618 345.442315,203.184073 345.442315,202.414764 L345.442315,202.414764 L345.442315,202.414764 L345.442315,202.414764 Z M361.654955,198.482491 L372.229058,198.482491 L372.229058,205.423418 L361.654955,205.423418 L361.654955,198.482491 L361.654955,198.482491 L361.654955,198.482491 L361.654955,198.482491 Z M376.458244,198.482491 L387.033483,198.482491 L387.033483,205.423418 L376.458244,205.423418 L376.458244,198.482491 L376.458244,198.482491 L376.458244,198.482491 L376.458244,198.482491 Z M391.261534,198.482491 L401.835637,198.482491 L401.835637,205.423418 L391.261534,205.423418 L391.261534,198.482491 L391.261534,198.482491 L391.261534,198.482491 L391.261534,198.482491 Z M401.835637,208.198 L401.835637,215.139673 L391.261534,215.139673 L391.261534,208.198 L401.835637,208.198 L401.835637,208.198 L401.835637,208.198 L401.835637,208.198 Z M406.064823,208.198 L416.637791,208.198 L416.637791,215.139673 L406.064823,215.139673 L406.064823,208.198 L406.064823,208.198 L406.064823,208.198 L406.064823,208.198 Z M420.868113,208.198 L431.443351,208.198 L431.443351,215.139673 L420.868113,215.139673 L420.868113,208.198 L420.868113,208.198 L420.868113,208.198 L420.868113,208.198 Z M420.868113,205.422673 L420.868113,198.481745 L431.443351,198.481745 L431.443351,205.422673 L420.868113,205.422673 L420.868113,205.422673 L420.868113,205.422673 L420.868113,205.422673 Z M435.671403,198.482491 L446.245505,198.482491 L446.245505,205.423418 L435.671403,205.423418 L435.671403,198.482491 L435.671403,198.482491 L435.671403,198.482491 L435.671403,198.482491 Z M450.474692,198.482491 L461.047659,198.482491 L461.047659,205.423418 L450.474692,205.423418 L450.474692,198.482491 L450.474692,198.482491 L450.474692,198.482491 L450.474692,198.482491 Z M450.474692,195.704927 L450.474692,188.764745 L461.047659,188.764745 L461.047659,195.704927 L450.474692,195.704927 L450.474692,195.704927 L450.474692,195.704927 L450.474692,195.704927 Z M465.276846,188.765491 L475.852084,188.765491 L475.852084,195.705673 L465.276846,195.705673 L465.276846,188.765491 L465.276846,188.765491 L465.276846,188.765491 L465.276846,188.765491 Z M465.276846,185.989418 L465.276846,179.047 L475.852084,179.047 L475.852084,185.989418 L465.276846,185.989418 L465.276846,185.989418 L465.276846,185.989418 L465.276846,185.989418 Z M461.047659,176.270927 L450.474692,176.270927 L450.474692,169.330745 L461.047659,169.330745 L461.047659,176.270927 L461.047659,176.270927 L461.047659,176.270927 L461.047659,176.270927 Z M446.24437,176.270927 L435.670267,176.270927 L435.670267,169.330745 L446.24437,169.330745 L446.24437,176.270927 L446.24437,176.270927 L446.24437,176.270927 L446.24437,176.270927 Z M435.671403,166.554673 L435.671403,159.613745 L446.245505,159.613745 L446.245505,166.554673 L435.671403,166.554673 L435.671403,166.554673 L435.671403,166.554673 L435.671403,166.554673 Z M431.442216,166.554673 L420.866977,166.554673 L420.866977,159.613745 L431.442216,159.613745 L431.442216,166.554673 L431.442216,166.554673 L431.442216,166.554673 L431.442216,166.554673 Z M416.637791,166.554673 L406.064823,166.554673 L406.064823,159.613745 L416.637791,159.613745 L416.637791,166.554673 L416.637791,166.554673 L416.637791,166.554673 L416.637791,166.554673 Z M401.835637,166.554673 L391.261534,166.554673 L391.261534,159.613745 L401.835637,159.613745 L401.835637,166.554673 L401.835637,166.554673 L401.835637,166.554673 L401.835637,166.554673 Z M387.032347,166.554673 L376.457109,166.554673 L376.457109,159.613745 L387.032347,159.613745 L387.032347,166.554673 L387.032347,166.554673 L387.032347,166.554673 L387.032347,166.554673 Z M387.032347,169.330745 L387.032347,176.270927 L376.457109,176.270927 L376.457109,169.330745 L387.032347,169.330745 L387.032347,169.330745 L387.032347,169.330745 L387.032347,169.330745 Z M372.229058,176.270927 L361.654955,176.270927 L361.654955,169.330745 L372.229058,169.330745 L372.229058,176.270927 L372.229058,176.270927 L372.229058,176.270927 L372.229058,176.270927 Z M357.425768,176.270927 L344.738207,176.270927 L344.738207,169.330745 L357.425768,169.330745 L357.425768,176.270927 L357.425768,176.270927 L357.425768,176.270927 L357.425768,176.270927 Z M357.425768,179.047745 L357.425768,185.990164 L345.366226,185.990164 C345.262881,185.474309 345.049377,184.981564 344.738207,184.523109 L344.738207,179.047745 L357.425768,179.047745 L357.425768,179.047745 L357.425768,179.047745 L357.425768,179.047745 Z M344.738207,208.198 L357.425768,208.198 L357.425768,215.139673 L344.738207,215.139673 L344.738207,208.198 L344.738207,208.198 L344.738207,208.198 L344.738207,208.198 Z M361.654955,208.198 L372.229058,208.198 L372.229058,215.139673 L361.654955,215.139673 L361.654955,208.198 L361.654955,208.198 L361.654955,208.198 L361.654955,208.198 Z M376.458244,208.198 L387.033483,208.198 L387.033483,215.139673 L376.458244,215.139673 L376.458244,208.198 L376.458244,208.198 L376.458244,208.198 L376.458244,208.198 Z M387.032347,217.915745 L387.032347,224.856673 L376.457109,224.856673 L376.457109,217.915745 L387.032347,217.915745 L387.032347,217.915745 L387.032347,217.915745 L387.032347,217.915745 Z M391.261534,217.915745 L401.835637,217.915745 L401.835637,224.856673 L391.261534,224.856673 L391.261534,217.915745 L391.261534,217.915745 L391.261534,217.915745 L391.261534,217.915745 Z M406.064823,217.915745 L416.637791,217.915745 L416.637791,224.856673 L406.064823,224.856673 L406.064823,217.915745 L406.064823,217.915745 L406.064823,217.915745 L406.064823,217.915745 Z M420.868113,217.915745 L431.443351,217.915745 L431.443351,224.856673 L420.868113,224.856673 L420.868113,217.915745 L420.868113,217.915745 L420.868113,217.915745 L420.868113,217.915745 Z M435.671403,217.915745 L446.245505,217.915745 L446.245505,224.856673 L435.671403,224.856673 L435.671403,217.915745 L435.671403,217.915745 L435.671403,217.915745 L435.671403,217.915745 Z M435.671403,215.139673 L435.671403,208.198 L446.245505,208.198 L446.245505,215.139673 L435.671403,215.139673 L435.671403,215.139673 L435.671403,215.139673 L435.671403,215.139673 Z M450.474692,208.198 L461.047659,208.198 L461.047659,215.139673 L450.474692,215.139673 L450.474692,208.198 L450.474692,208.198 L450.474692,208.198 L450.474692,208.198 Z M465.276846,208.198 L475.852084,208.198 L475.852084,215.139673 L465.276846,215.139673 L465.276846,208.198 L465.276846,208.198 L465.276846,208.198 L465.276846,208.198 Z M465.276846,205.422673 L465.276846,198.481745 L475.852084,198.481745 L475.852084,205.422673 L465.276846,205.422673 L465.276846,205.422673 L465.276846,205.422673 L465.276846,205.422673 Z M475.850949,166.554673 L465.27571,166.554673 L465.27571,159.613745 L475.850949,159.613745 L475.850949,166.554673 L475.850949,166.554673 L475.850949,166.554673 L475.850949,166.554673 Z M461.047659,166.554673 L450.474692,166.554673 L450.474692,159.613745 L461.047659,159.613745 L461.047659,166.554673 L461.047659,166.554673 L461.047659,166.554673 L461.047659,166.554673 Z M446.24437,156.838418 L435.670267,156.838418 L435.670267,149.434564 L446.24437,149.434564 L446.24437,156.838418 L446.24437,156.838418 L446.24437,156.838418 L446.24437,156.838418 Z M431.442216,156.838418 L420.866977,156.838418 L420.866977,149.434564 L431.442216,149.434564 L431.442216,156.838418 L431.442216,156.838418 L431.442216,156.838418 L431.442216,156.838418 Z M416.637791,156.838418 L406.064823,156.838418 L406.064823,149.434564 L416.637791,149.434564 L416.637791,156.838418 L416.637791,156.838418 L416.637791,156.838418 L416.637791,156.838418 Z M401.835637,156.838418 L391.261534,156.838418 L391.261534,149.434564 L401.835637,149.434564 L401.835637,156.838418 L401.835637,156.838418 L401.835637,156.838418 L401.835637,156.838418 Z M387.032347,156.838418 L376.457109,156.838418 L376.457109,149.434564 L387.032347,149.434564 L387.032347,156.838418 L387.032347,156.838418 L387.032347,156.838418 L387.032347,156.838418 Z M372.229058,159.613745 L372.229058,166.554673 L361.654955,166.554673 L361.654955,159.613745 L372.229058,159.613745 L372.229058,159.613745 L372.229058,159.613745 L372.229058,159.613745 Z M344.738207,217.915745 L357.425768,217.915745 L357.425768,224.856673 L344.738207,224.856673 L344.738207,217.915745 L344.738207,217.915745 L344.738207,217.915745 L344.738207,217.915745 Z M361.654955,217.915745 L372.229058,217.915745 L372.229058,224.856673 L361.654955,224.856673 L361.654955,217.915745 L361.654955,217.915745 L361.654955,217.915745 L361.654955,217.915745 Z M376.458244,227.632 L387.033483,227.632 L387.033483,235.498036 L376.458244,235.498036 L376.458244,227.632 L376.458244,227.632 L376.458244,227.632 L376.458244,227.632 Z M391.261534,227.632 L401.835637,227.632 L401.835637,235.498036 L391.261534,235.498036 L391.261534,227.632 L391.261534,227.632 L391.261534,227.632 L391.261534,227.632 Z M406.064823,227.632 L416.637791,227.632 L416.637791,235.498036 L406.064823,235.498036 L406.064823,227.632 L406.064823,227.632 L406.064823,227.632 L406.064823,227.632 Z M420.868113,227.632 L431.443351,227.632 L431.443351,235.498036 L420.868113,235.498036 L420.868113,227.632 L420.868113,227.632 L420.868113,227.632 L420.868113,227.632 Z M435.671403,227.632 L446.245505,227.632 L446.245505,235.498036 L435.671403,235.498036 L435.671403,227.632 L435.671403,227.632 L435.671403,227.632 L435.671403,227.632 Z M450.474692,224.856673 L450.474692,217.915745 L461.047659,217.915745 L461.047659,224.856673 L450.474692,224.856673 L450.474692,224.856673 L450.474692,224.856673 L450.474692,224.856673 Z M475.816879,156.838418 L465.276846,156.838418 L465.276846,149.489727 C471.317406,149.896745 475.488674,152.781655 475.816879,156.838418 L475.816879,156.838418 L475.816879,156.838418 L475.816879,156.838418 Z M357.425768,149.457673 L357.425768,156.837673 L344.782498,156.837673 C345.219726,152.865145 350.653845,149.690255 357.425768,149.457673 L357.425768,149.457673 L357.425768,149.457673 L357.425768,149.457673 Z M16.986449,196.167109 L16.986449,192.003 L76.1064834,192.003 L76.1064834,196.167109 L16.986449,196.167109 L16.986449,196.167109 L16.986449,196.167109 L16.986449,196.167109 Z M92.3179877,196.167109 L92.3179877,192.003 L329.229675,192.003 L329.229675,196.167109 L92.3179877,196.167109 L92.3179877,196.167109 L92.3179877,196.167109 L92.3179877,196.167109 Z M344.840417,227.632 L357.425768,227.632 L357.425768,235.469709 C351.187604,235.193145 345.627427,231.690255 344.840417,227.632 L344.840417,227.632 L344.840417,227.632 L344.840417,227.632 Z M465.276846,235.424236 L465.276846,227.632 L475.772588,227.632 C475.161605,231.690255 470.790461,234.922545 465.276846,235.424236 L465.276846,235.424236 L465.276846,235.424236 L465.276846,235.424236 Z M495.588668,196.167109 L495.588668,192.003 L1002.04401,192.003 L1002.04401,196.167109 L495.588668,196.167109 L495.588668,196.167109 L495.588668,196.167109 L495.588668,196.167109 Z M1018.25779,196.631527 L1018.25779,192.466673 L1099.78888,192.466673 L1099.78888,196.631527 L1018.25779,196.631527 L1018.25779,196.631527 L1018.25779,196.631527 L1018.25779,196.631527 Z" id="Shape" fill="#FFFFFF"></path>
                                        <path d="M2459.97148,183.636364 C2456.64074,183.636364 2453.94179,185.343336 2453.94179,187.449889 L2453.94179,187.858762 C2453.14386,187.741532 2452.31428,187.673625 2451.45984,187.673625 L1394.68025,187.673625 C1394.49602,185.672865 1391.87845,184.084551 1388.6709,184.084551 C1385.34016,184.084551 1382.64121,185.792238 1382.64121,187.897362 L1382.64121,188.121813 L1347.48703,188.121813 L1347.48703,187.897362 C1347.48703,185.792238 1344.78695,184.084551 1341.45734,184.084551 C1338.12659,184.084551 1335.42764,185.792238 1335.42764,187.897362 L1335.42764,194.063335 C1335.35757,194.395723 1335.3101,194.730255 1335.3101,195.076224 C1335.3101,195.420049 1335.35757,195.756726 1335.42764,196.086969 L1335.42764,203.150748 C1335.42764,205.2573 1338.12659,206.964273 1341.45734,206.964273 C1344.78695,206.964273 1347.48703,205.2573 1347.48703,203.150748 L1347.48703,202.029921 L1382.64121,202.029921 L1382.64121,203.150748 C1382.64121,205.2573 1385.34016,206.964273 1388.6709,206.964273 C1391.99825,206.964273 1394.69946,205.2573 1394.69946,203.150748 L1394.69946,201.581019 L2451.45984,201.581019 C2452.31428,201.581019 2453.14386,201.513827 2453.94179,201.395883 L2453.94179,202.70256 C2453.94179,204.808398 2456.64187,206.516085 2459.97148,206.516085 C2463.30109,206.516085 2466.00004,204.808398 2466.00004,202.70256 L2466.00004,187.449174 C2466.00004,185.343336 2463.30109,183.636364 2459.97148,183.636364 L2459.97148,183.636364 L2459.97148,183.636364 L2459.97148,183.636364 Z M1347.48477,197.09557 L1347.48477,193.058308 L1382.63895,193.058308 L1382.63895,197.09557 L1347.48477,197.09557 L1347.48477,197.09557 L1347.48477,197.09557 L1347.48477,197.09557 Z M2451.45871,196.646668 L1394.69833,196.646668 L1394.69833,192.609406 L2451.10382,192.609406 L2451.28126,192.609406 C2452.3561,192.609406 2453.33599,192.949657 2453.94066,193.466466 L2453.94066,195.838215 C2453.38346,196.326432 2452.4985,196.646668 2451.45871,196.646668 L2451.45871,196.646668 L2451.45871,196.646668 L2451.45871,196.646668 Z" id="Shape" fill="#FFFFFF"></path>
                                        <path d="M3834.00001,64.6547455 C3830.68952,64.6547455 3828.00227,66.4371273 3828.00227,68.6369636 L3828.00227,68.8829636 C3827.88324,68.8814727 3827.76758,68.8710364 3827.64854,68.8710364 L2686.17571,68.8710364 C2685.06734,68.8710364 2684.00278,68.9821091 2682.99773,69.1841273 L2682.99773,68.6369636 C2682.99773,66.4371273 2680.31048,64.6547455 2676.99999,64.6547455 C2673.68612,64.6547455 2671,66.4371273 2671,68.6369636 L2671,84.5665818 C2671,86.7656727 2673.68612,88.5480545 2676.99999,88.5480545 C2680.31048,88.5480545 2682.99773,86.7649273 2682.99773,84.5665818 L2682.99773,83.0816364 C2684.0039,83.2836545 2685.06734,83.3947273 2686.17571,83.3947273 L3827.64854,83.3947273 C3827.76758,83.3947273 3827.88324,83.3850364 3828.00227,83.3828 L3828.00227,84.5665818 C3828.00227,86.7656727 3830.68952,88.5480545 3834.00001,88.5480545 C3837.31388,88.5480545 3840,86.7649273 3840,84.5665818 L3840,68.6369636 C3840,66.4371273 3837.315,64.6547455 3834.00001,64.6547455 L3834.00001,64.6547455 L3834.00001,64.6547455 L3834.00001,64.6547455 Z M3828.0034,78.2175455 C3827.88549,78.2264909 3827.77319,78.2406545 3827.64966,78.2406545 L2686.17571,78.2406545 C2684.42164,78.2406545 2682.99773,77.2946727 2682.99773,76.1325091 C2682.99773,74.9703455 2684.42276,74.0243636 2686.17571,74.0243636 L3827.29818,74.0243636 L3827.47448,74.0243636 C3827.65528,74.0243636 3827.82822,74.0400182 3828.0034,74.0601455 L3828.0034,78.2175455 L3828.0034,78.2175455 L3828.0034,78.2175455 L3828.0034,78.2175455 Z" id="Shape" fill="#FFFFFF"></path>
                                        <path d="M5248.32049,53.5484348 L5233.6889,53.5484348 C5233.6889,43.9152027 5230.17731,37.2286062 5223.22731,32.0153276 C5211.59519,23.2887526 5193.45202,22.3820956 5193.45202,22.3820956 L5022.4087,22.3820956 L5022.4087,11.0488812 L5193.15938,11.0488812 C5193.15938,11.0488812 5217.74046,12.1822026 5233.46942,24.0254116 C5243.34574,31.4486669 5248.32049,40.5152384 5248.32049,53.5484348 L5248.32049,53.5484348 L5248.32049,53.5484348 Z" id="Shape" stroke="#FFFFFF" stroke-width="6" fill="#FFFFFF" transform="translate(5135.364597, 32.298658) rotate(1.000000) translate(-5135.364597, -32.298658) "></path>
                                        <path d="M5017.07731,0.726072727 C5013.97272,0.726072727 5011.44374,2.89534545 5011.44374,5.56332727 L5011.44374,19.8648727 C5011.44374,22.5328545 5013.97272,24.7021273 5017.07731,24.7021273 C5020.18189,24.7021273 5022.71088,22.5328545 5022.71088,19.8648727 L5022.71088,5.56332727 C5022.71175,2.89534545 5020.18276,0.726072727 5017.07731,0.726072727 L5017.07731,0.726072727 L5017.07731,0.726072727 L5017.07731,0.726072727 Z" id="Shape" fill="#FFFFFF"></path>
                                        <path d="M3959.1414,238.609564 C3937.21058,238.609564 3924.34437,238.1772 3924,238.164527 L3924.86647,229.234727 C3925.78601,229.268273 4018.19836,232.3552 4133.17841,221.548345 C4238.81491,211.620382 4385.70993,187.598109 4485.61563,129.536891 C4577.82308,75.9498909 4669.93549,41.5098909 4767.21833,24.2488909 C4851.43994,9.30550909 4925.75516,9.52541818 4991.33409,9.72296364 C4998.60774,9.74458182 5005.77032,9.7662 5012.82674,9.7662 L5012.82674,18.7116545 C5005.74686,18.7116545 4998.55837,18.6900364 4991.26003,18.6684182 C4861.14391,18.2867455 4699.24612,17.7984727 4495.88367,135.983582 C4450.42116,162.404727 4391.98011,184.214491 4322.18486,200.808309 C4266.56539,214.030436 4203.63401,223.993436 4135.13599,230.418509 C4061.46384,237.328127 3996.88591,238.609564 3959.1414,238.609564 L3959.1414,238.609564 L3959.1414,238.609564 L3959.1414,238.609564 Z" id="Shape" stroke="#FFFFFF" stroke-width="5"></path>
                                    </g>
                                </g>
                            </g>
                        </g>
                    </g>
                </g>
            </g>
        </g>
    </g>
</svg>