<?xml version="1.0" encoding="UTF-8" standalone="no"?>
<svg width="5265px" height="223px" viewBox="0 0 5265 223" version="1.1" xmlns="http://www.w3.org/2000/svg" xmlns:xlink="http://www.w3.org/1999/xlink">
    <g id="Page-1" stroke="none" stroke-width="1" fill="none" fill-rule="evenodd">
        <g id="brewing_pipes_mobile">
            <g id="Page-1">
                <g id="brewing_pipes">
                    <g id="Page-1">
                        <g id="brewing_pipes">
                            <g id="Pipes">
                                <g id="Page-1">
                                    <g id="Pipes">
                                        <g id="Group">
                                            <g id="Pipes">
                                                <path d="M1128.43265,177.682739 C1123.8783,177.682739 1120.1742,179.320857 1120.1742,181.335623 L1120.1742,181.494266 L1037.12468,181.494266 L1037.12468,181.335623 C1037.12468,179.320857 1033.42057,177.682739 1028.86739,177.682739 C1024.4345,177.682739 1020.81832,179.236418 1020.62744,181.176469 L504.721357,181.176469 L504.721357,179.429348 C504.721357,177.415093 501.017259,175.775952 496.462908,175.775952 C495.846329,175.775952 495.245946,175.808192 494.6687,175.866531 L494.6687,160.882951 C494.6687,155.248052 485.063726,151 472.326118,151 L364.785819,151 C351.674563,151 341.00764,155.433305 341.00764,160.882951 L341.00764,177.539448 C337.680661,178.010772 335.264091,179.391478 335.264091,181.018337 L335.264091,181.17698 L93.9401559,181.17698 L93.9401559,181.018337 C93.9401559,179.00357 90.237215,177.365453 85.6828637,177.365453 C81.1296692,177.365453 77.4267283,179.00357 77.4267283,181.018337 L77.4267283,181.17698 L17.2056413,181.17698 L17.2056413,181.018337 C17.2056413,179.00357 13.5003867,177.365453 8.94719223,177.365453 C4.39399775,177.365453 0.6899,179.00357 0.6899,181.018337 L0.6899,191.818347 C0.6899,193.832602 4.39399775,195.471232 8.94719223,195.471232 C13.5003867,195.471232 17.2056413,193.832602 17.2056413,191.818347 L17.2056413,191.024109 L77.4267283,191.024109 L77.4267283,191.818347 C77.4267283,193.832602 81.130826,195.471232 85.6828637,195.471232 C90.237215,195.471232 93.9401559,193.832602 93.9401559,191.818347 L93.9401559,191.024109 L335.264091,191.024109 L335.264091,191.818347 C335.264091,193.445206 337.680661,194.825401 341.00764,195.297236 L341.00764,208.459492 C341.00764,214.062151 352.117619,218.977527 364.785819,218.977527 L472.326118,218.977527 C484.646119,218.977527 494.6687,214.259175 494.6687,208.459492 L494.6687,193.793709 C495.247103,193.851026 495.846329,193.883778 496.462908,193.883778 C500.399524,193.883778 503.694112,192.65762 504.518915,191.02462 L1020.60893,191.02462 L1020.60893,192.136657 C1020.60893,194.150912 1024.31419,195.789029 1028.86739,195.789029 C1033.42057,195.789029 1037.12468,194.150912 1037.12468,192.136657 L1037.12468,191.342418 L1120.1742,191.342418 L1120.1742,192.136657 C1120.1742,194.150912 1123.8783,195.789029 1128.43265,195.789029 C1132.98585,195.789029 1136.68994,194.150912 1136.68994,192.136657 L1136.68994,181.336647 C1136.68994,179.320857 1132.98585,177.682739 1128.43265,177.682739 L1128.43265,177.682739 L1128.43265,177.682739 L1128.43265,177.682739 L1128.43265,177.682739 Z M473.845007,207.224124 L473.845007,202.459202 L484.617198,202.459202 L484.617198,207.224124 L473.845007,207.224124 L473.845007,207.224124 L473.845007,207.224124 L473.845007,207.224124 L473.845007,207.224124 Z M469.537055,214.52938 L458.767177,214.52938 L458.767177,209.129375 L469.537055,209.129375 L469.537055,214.52938 L469.537055,214.52938 L469.537055,214.52938 L469.537055,214.52938 L469.537055,214.52938 Z M368.29326,209.129375 L379.064295,209.129375 L379.064295,214.52938 L368.29326,214.52938 L368.29326,209.129375 L368.29326,209.129375 L368.29326,209.129375 L368.29326,209.129375 L368.29326,209.129375 Z M363.985308,162.435094 L363.985308,167.200015 L351.061454,167.200015 L351.061454,162.435094 L363.985308,162.435094 L363.985308,162.435094 L363.985308,162.435094 L363.985308,162.435094 L363.985308,162.435094 Z M368.29326,155.447123 L379.064295,155.447123 L379.064295,160.529842 L368.29326,160.529842 L368.29326,155.447123 L368.29326,155.447123 L368.29326,155.447123 L368.29326,155.447123 L368.29326,155.447123 Z M469.537055,160.529842 L458.767177,160.529842 L458.767177,155.447123 L469.537055,155.447123 L469.537055,160.529842 L469.537055,160.529842 L469.537055,160.529842 L469.537055,160.529842 L469.537055,160.529842 Z M484.616042,173.870188 L473.84385,173.870188 L473.84385,169.105778 L484.616042,169.105778 L484.616042,173.870188 L484.616042,173.870188 L484.616042,173.870188 L484.616042,173.870188 L484.616042,173.870188 Z M363.985308,182.44766 L363.985308,187.212069 L351.778675,187.212069 L351.778675,182.44766 L363.985308,182.44766 L363.985308,182.44766 L363.985308,182.44766 L363.985308,182.44766 L363.985308,182.44766 Z M454.45807,180.541896 L443.687034,180.541896 L443.687034,175.775952 L454.45807,175.775952 L454.45807,180.541896 L454.45807,180.541896 L454.45807,180.541896 L454.45807,180.541896 L454.45807,180.541896 Z M458.767177,175.776463 L469.537055,175.776463 L469.537055,180.542408 L458.767177,180.542408 L458.767177,175.776463 L458.767177,175.776463 L458.767177,175.776463 L458.767177,175.776463 L458.767177,175.776463 Z M413.530218,187.211557 L413.530218,182.447148 L424.300097,182.447148 L424.300097,187.211557 L413.530218,187.211557 L413.530218,187.211557 L413.530218,187.211557 L413.530218,187.211557 L413.530218,187.211557 Z M424.300097,189.118345 L424.300097,193.883266 L413.530218,193.883266 L413.530218,189.118345 L424.300097,189.118345 L424.300097,189.118345 L424.300097,189.118345 L424.300097,189.118345 L424.300097,189.118345 Z M398.451232,182.44766 L409.222268,182.44766 L409.222268,187.212069 L398.451232,187.212069 L398.451232,182.44766 L398.451232,182.44766 L398.451232,182.44766 L398.451232,182.44766 L398.451232,182.44766 Z M394.143281,187.211557 L383.371089,187.211557 L383.371089,182.447148 L394.143281,182.447148 L394.143281,187.211557 L394.143281,187.211557 L394.143281,187.211557 L394.143281,187.211557 L394.143281,187.211557 Z M413.530218,180.541896 L413.530218,175.775952 L424.300097,175.775952 L424.300097,180.541896 L413.530218,180.541896 L413.530218,180.541896 L413.530218,180.541896 L413.530218,180.541896 L413.530218,180.541896 Z M428.609205,182.44766 L439.381396,182.44766 L439.381396,187.212069 L428.609205,187.212069 L428.609205,182.44766 L428.609205,182.44766 L428.609205,182.44766 L428.609205,182.44766 L428.609205,182.44766 Z M443.688191,182.44766 L454.459226,182.44766 L454.459226,187.212069 L443.688191,187.212069 L443.688191,182.44766 L443.688191,182.44766 L443.688191,182.44766 L443.688191,182.44766 L443.688191,182.44766 Z M439.38024,180.541896 L428.608048,180.541896 L428.608048,175.775952 L439.38024,175.775952 L439.38024,180.541896 L439.38024,180.541896 L439.38024,180.541896 L439.38024,180.541896 L439.38024,180.541896 Z M428.609205,173.870188 L428.609205,169.105778 L439.381396,169.105778 L439.381396,173.870188 L428.609205,173.870188 L428.609205,173.870188 L428.609205,173.870188 L428.609205,173.870188 L428.609205,173.870188 Z M424.300097,173.870188 L413.530218,173.870188 L413.530218,169.105778 L424.300097,169.105778 L424.300097,173.870188 L424.300097,173.870188 L424.300097,173.870188 L424.300097,173.870188 L424.300097,173.870188 Z M409.222268,173.870188 L398.451232,173.870188 L398.451232,169.105778 L409.222268,169.105778 L409.222268,173.870188 L409.222268,173.870188 L409.222268,173.870188 L409.222268,173.870188 L409.222268,173.870188 Z M409.222268,175.776463 L409.222268,180.542408 L398.451232,180.542408 L398.451232,175.776463 L409.222268,175.776463 L409.222268,175.776463 L409.222268,175.776463 L409.222268,175.776463 L409.222268,175.776463 Z M394.143281,180.541896 L383.371089,180.541896 L383.371089,175.775952 L394.143281,175.775952 L394.143281,180.541896 L394.143281,180.541896 L394.143281,180.541896 L394.143281,180.541896 L394.143281,180.541896 Z M379.064295,180.541896 L368.29326,180.541896 L368.29326,175.775952 L379.064295,175.775952 L379.064295,180.541896 L379.064295,180.541896 L379.064295,180.541896 L379.064295,180.541896 L379.064295,180.541896 Z M379.064295,182.44766 L379.064295,187.212069 L368.29326,187.212069 L368.29326,182.44766 L379.064295,182.44766 L379.064295,182.44766 L379.064295,182.44766 L379.064295,182.44766 L379.064295,182.44766 Z M351.778675,191.817836 L351.778675,189.118345 L363.985308,189.118345 L363.985308,193.883266 L351.061454,193.883266 L351.061454,193.301404 C351.519551,192.84748 351.778675,192.345963 351.778675,191.817836 L351.778675,191.817836 L351.778675,191.817836 L351.778675,191.817836 L351.778675,191.817836 Z M368.29326,189.118345 L379.064295,189.118345 L379.064295,193.883266 L368.29326,193.883266 L368.29326,189.118345 L368.29326,189.118345 L368.29326,189.118345 L368.29326,189.118345 L368.29326,189.118345 Z M383.372246,189.118345 L394.144438,189.118345 L394.144438,193.883266 L383.372246,193.883266 L383.372246,189.118345 L383.372246,189.118345 L383.372246,189.118345 L383.372246,189.118345 L383.372246,189.118345 Z M398.451232,189.118345 L409.222268,189.118345 L409.222268,193.883266 L398.451232,193.883266 L398.451232,189.118345 L398.451232,189.118345 L398.451232,189.118345 L398.451232,189.118345 L398.451232,189.118345 Z M409.222268,195.788006 L409.222268,200.553439 L398.451232,200.553439 L398.451232,195.788006 L409.222268,195.788006 L409.222268,195.788006 L409.222268,195.788006 L409.222268,195.788006 L409.222268,195.788006 Z M413.530218,195.788006 L424.300097,195.788006 L424.300097,200.553439 L413.530218,200.553439 L413.530218,195.788006 L413.530218,195.788006 L413.530218,195.788006 L413.530218,195.788006 L413.530218,195.788006 Z M428.609205,195.788006 L439.381396,195.788006 L439.381396,200.553439 L428.609205,200.553439 L428.609205,195.788006 L428.609205,195.788006 L428.609205,195.788006 L428.609205,195.788006 L428.609205,195.788006 Z M428.609205,193.882754 L428.609205,189.117833 L439.381396,189.117833 L439.381396,193.882754 L428.609205,193.882754 L428.609205,193.882754 L428.609205,193.882754 L428.609205,193.882754 L428.609205,193.882754 Z M443.688191,189.118345 L454.459226,189.118345 L454.459226,193.883266 L443.688191,193.883266 L443.688191,189.118345 L443.688191,189.118345 L443.688191,189.118345 L443.688191,189.118345 L443.688191,189.118345 Z M458.767177,189.118345 L469.537055,189.118345 L469.537055,193.883266 L458.767177,193.883266 L458.767177,189.118345 L458.767177,189.118345 L458.767177,189.118345 L458.767177,189.118345 L458.767177,189.118345 Z M458.767177,187.211557 L458.767177,182.447148 L469.537055,182.447148 L469.537055,187.211557 L458.767177,187.211557 L458.767177,187.211557 L458.767177,187.211557 L458.767177,187.211557 L458.767177,187.211557 Z M473.845007,182.44766 L484.617198,182.44766 L484.617198,187.212069 L473.845007,187.212069 L473.845007,182.44766 L473.845007,182.44766 L473.845007,182.44766 L473.845007,182.44766 L473.845007,182.44766 Z M473.845007,180.541896 L473.845007,175.775952 L484.617198,175.775952 L484.617198,180.541896 L473.845007,180.541896 L473.845007,180.541896 L473.845007,180.541896 L473.845007,180.541896 L473.845007,180.541896 Z M469.537055,173.870188 L458.767177,173.870188 L458.767177,169.105778 L469.537055,169.105778 L469.537055,173.870188 L469.537055,173.870188 L469.537055,173.870188 L469.537055,173.870188 L469.537055,173.870188 Z M454.45807,173.870188 L443.687034,173.870188 L443.687034,169.105778 L454.45807,169.105778 L454.45807,173.870188 L454.45807,173.870188 L454.45807,173.870188 L454.45807,173.870188 L454.45807,173.870188 Z M443.688191,167.200015 L443.688191,162.435094 L454.459226,162.435094 L454.459226,167.200015 L443.688191,167.200015 L443.688191,167.200015 L443.688191,167.200015 L443.688191,167.200015 L443.688191,167.200015 Z M439.38024,167.200015 L428.608048,167.200015 L428.608048,162.435094 L439.38024,162.435094 L439.38024,167.200015 L439.38024,167.200015 L439.38024,167.200015 L439.38024,167.200015 L439.38024,167.200015 Z M424.300097,167.200015 L413.530218,167.200015 L413.530218,162.435094 L424.300097,162.435094 L424.300097,167.200015 L424.300097,167.200015 L424.300097,167.200015 L424.300097,167.200015 L424.300097,167.200015 Z M409.222268,167.200015 L398.451232,167.200015 L398.451232,162.435094 L409.222268,162.435094 L409.222268,167.200015 L409.222268,167.200015 L409.222268,167.200015 L409.222268,167.200015 L409.222268,167.200015 Z M394.143281,167.200015 L383.371089,167.200015 L383.371089,162.435094 L394.143281,162.435094 L394.143281,167.200015 L394.143281,167.200015 L394.143281,167.200015 L394.143281,167.200015 L394.143281,167.200015 Z M394.143281,169.105778 L394.143281,173.870188 L383.371089,173.870188 L383.371089,169.105778 L394.143281,169.105778 L394.143281,169.105778 L394.143281,169.105778 L394.143281,169.105778 L394.143281,169.105778 Z M379.064295,173.870188 L368.29326,173.870188 L368.29326,169.105778 L379.064295,169.105778 L379.064295,173.870188 L379.064295,173.870188 L379.064295,173.870188 L379.064295,173.870188 L379.064295,173.870188 Z M363.985308,173.870188 L351.061454,173.870188 L351.061454,169.105778 L363.985308,169.105778 L363.985308,173.870188 L363.985308,173.870188 L363.985308,173.870188 L363.985308,173.870188 L363.985308,173.870188 Z M363.985308,175.776463 L363.985308,180.542408 L351.701169,180.542408 C351.5959,180.188276 351.378419,179.850008 351.061454,179.53528 L351.061454,175.776463 L363.985308,175.776463 L363.985308,175.776463 L363.985308,175.776463 L363.985308,175.776463 L363.985308,175.776463 Z M351.061454,195.788006 L363.985308,195.788006 L363.985308,200.553439 L351.061454,200.553439 L351.061454,195.788006 L351.061454,195.788006 L351.061454,195.788006 L351.061454,195.788006 L351.061454,195.788006 Z M368.29326,195.788006 L379.064295,195.788006 L379.064295,200.553439 L368.29326,200.553439 L368.29326,195.788006 L368.29326,195.788006 L368.29326,195.788006 L368.29326,195.788006 L368.29326,195.788006 Z M383.372246,195.788006 L394.144438,195.788006 L394.144438,200.553439 L383.372246,200.553439 L383.372246,195.788006 L383.372246,195.788006 L383.372246,195.788006 L383.372246,195.788006 L383.372246,195.788006 Z M394.143281,202.459202 L394.143281,207.224124 L383.371089,207.224124 L383.371089,202.459202 L394.143281,202.459202 L394.143281,202.459202 L394.143281,202.459202 L394.143281,202.459202 L394.143281,202.459202 Z M398.451232,202.459202 L409.222268,202.459202 L409.222268,207.224124 L398.451232,207.224124 L398.451232,202.459202 L398.451232,202.459202 L398.451232,202.459202 L398.451232,202.459202 L398.451232,202.459202 Z M413.530218,202.459202 L424.300097,202.459202 L424.300097,207.224124 L413.530218,207.224124 L413.530218,202.459202 L413.530218,202.459202 L413.530218,202.459202 L413.530218,202.459202 L413.530218,202.459202 Z M428.609205,202.459202 L439.381396,202.459202 L439.381396,207.224124 L428.609205,207.224124 L428.609205,202.459202 L428.609205,202.459202 L428.609205,202.459202 L428.609205,202.459202 L428.609205,202.459202 Z M443.688191,202.459202 L454.459226,202.459202 L454.459226,207.224124 L443.688191,207.224124 L443.688191,202.459202 L443.688191,202.459202 L443.688191,202.459202 L443.688191,202.459202 L443.688191,202.459202 Z M443.688191,200.553439 L443.688191,195.788006 L454.459226,195.788006 L454.459226,200.553439 L443.688191,200.553439 L443.688191,200.553439 L443.688191,200.553439 L443.688191,200.553439 L443.688191,200.553439 Z M458.767177,195.788006 L469.537055,195.788006 L469.537055,200.553439 L458.767177,200.553439 L458.767177,195.788006 L458.767177,195.788006 L458.767177,195.788006 L458.767177,195.788006 L458.767177,195.788006 Z M473.845007,195.788006 L484.617198,195.788006 L484.617198,200.553439 L473.845007,200.553439 L473.845007,195.788006 L473.845007,195.788006 L473.845007,195.788006 L473.845007,195.788006 L473.845007,195.788006 Z M473.845007,193.882754 L473.845007,189.117833 L484.617198,189.117833 L484.617198,193.882754 L473.845007,193.882754 L473.845007,193.882754 L473.845007,193.882754 L473.845007,193.882754 L473.845007,193.882754 Z M484.616042,167.200015 L473.84385,167.200015 L473.84385,162.435094 L484.616042,162.435094 L484.616042,167.200015 L484.616042,167.200015 L484.616042,167.200015 L484.616042,167.200015 L484.616042,167.200015 Z M469.537055,167.200015 L458.767177,167.200015 L458.767177,162.435094 L469.537055,162.435094 L469.537055,167.200015 L469.537055,167.200015 L469.537055,167.200015 L469.537055,167.200015 L469.537055,167.200015 Z M454.45807,160.529842 L443.687034,160.529842 L443.687034,155.447123 L454.45807,155.447123 L454.45807,160.529842 L454.45807,160.529842 L454.45807,160.529842 L454.45807,160.529842 L454.45807,160.529842 Z M439.38024,160.529842 L428.608048,160.529842 L428.608048,155.447123 L439.38024,155.447123 L439.38024,160.529842 L439.38024,160.529842 L439.38024,160.529842 L439.38024,160.529842 L439.38024,160.529842 Z M424.300097,160.529842 L413.530218,160.529842 L413.530218,155.447123 L424.300097,155.447123 L424.300097,160.529842 L424.300097,160.529842 L424.300097,160.529842 L424.300097,160.529842 L424.300097,160.529842 Z M409.222268,160.529842 L398.451232,160.529842 L398.451232,155.447123 L409.222268,155.447123 L409.222268,160.529842 L409.222268,160.529842 L409.222268,160.529842 L409.222268,160.529842 L409.222268,160.529842 Z M394.143281,160.529842 L383.371089,160.529842 L383.371089,155.447123 L394.143281,155.447123 L394.143281,160.529842 L394.143281,160.529842 L394.143281,160.529842 L394.143281,160.529842 L394.143281,160.529842 Z M379.064295,162.435094 L379.064295,167.200015 L368.29326,167.200015 L368.29326,162.435094 L379.064295,162.435094 L379.064295,162.435094 L379.064295,162.435094 L379.064295,162.435094 L379.064295,162.435094 Z M351.061454,202.459202 L363.985308,202.459202 L363.985308,207.224124 L351.061454,207.224124 L351.061454,202.459202 L351.061454,202.459202 L351.061454,202.459202 L351.061454,202.459202 L351.061454,202.459202 Z M368.29326,202.459202 L379.064295,202.459202 L379.064295,207.224124 L368.29326,207.224124 L368.29326,202.459202 L368.29326,202.459202 L368.29326,202.459202 L368.29326,202.459202 L368.29326,202.459202 Z M383.372246,209.129375 L394.144438,209.129375 L394.144438,214.52938 L383.372246,214.52938 L383.372246,209.129375 L383.372246,209.129375 L383.372246,209.129375 L383.372246,209.129375 L383.372246,209.129375 Z M398.451232,209.129375 L409.222268,209.129375 L409.222268,214.52938 L398.451232,214.52938 L398.451232,209.129375 L398.451232,209.129375 L398.451232,209.129375 L398.451232,209.129375 L398.451232,209.129375 Z M413.530218,209.129375 L424.300097,209.129375 L424.300097,214.52938 L413.530218,214.52938 L413.530218,209.129375 L413.530218,209.129375 L413.530218,209.129375 L413.530218,209.129375 L413.530218,209.129375 Z M428.609205,209.129375 L439.381396,209.129375 L439.381396,214.52938 L428.609205,214.52938 L428.609205,209.129375 L428.609205,209.129375 L428.609205,209.129375 L428.609205,209.129375 L428.609205,209.129375 Z M443.688191,209.129375 L454.459226,209.129375 L454.459226,214.52938 L443.688191,214.52938 L443.688191,209.129375 L443.688191,209.129375 L443.688191,209.129375 L443.688191,209.129375 L443.688191,209.129375 Z M458.767177,207.224124 L458.767177,202.459202 L469.537055,202.459202 L469.537055,207.224124 L458.767177,207.224124 L458.767177,207.224124 L458.767177,207.224124 L458.767177,207.224124 L458.767177,207.224124 Z M484.581338,160.529842 L473.845007,160.529842 L473.845007,155.484992 C479.998066,155.764409 484.24702,157.744889 484.581338,160.529842 L484.581338,160.529842 L484.581338,160.529842 L484.581338,160.529842 L484.581338,160.529842 Z M363.985308,155.462987 L363.985308,160.52933 L351.10657,160.52933 C351.551941,157.802204 357.087265,155.622654 363.985308,155.462987 L363.985308,155.462987 L363.985308,155.462987 L363.985308,155.462987 L363.985308,155.462987 Z M17.2056413,187.528843 L17.2056413,184.670198 L77.4267283,184.670198 L77.4267283,187.528843 L17.2056413,187.528843 L17.2056413,187.528843 L17.2056413,187.528843 L17.2056413,187.528843 L17.2056413,187.528843 Z M93.9401559,187.528843 L93.9401559,184.670198 L335.264091,184.670198 L335.264091,187.528843 L93.9401559,187.528843 L93.9401559,187.528843 L93.9401559,187.528843 L93.9401559,187.528843 L93.9401559,187.528843 Z M351.165568,209.129375 L363.985308,209.129375 L363.985308,214.509934 C357.630965,214.320074 351.967235,211.915353 351.165568,209.129375 L351.165568,209.129375 L351.165568,209.129375 L351.165568,209.129375 L351.165568,209.129375 Z M473.845007,214.478717 L473.845007,209.129375 L484.536222,209.129375 C483.91386,211.915353 479.461307,214.134308 473.845007,214.478717 L473.845007,214.478717 L473.845007,214.478717 L473.845007,214.478717 L473.845007,214.478717 Z M504.721357,187.528843 L504.721357,184.670198 L1020.60893,184.670198 L1020.60893,187.528843 L504.721357,187.528843 L504.721357,187.528843 L504.721357,187.528843 L504.721357,187.528843 L504.721357,187.528843 Z M1037.12468,187.847665 L1037.12468,184.988508 L1120.1742,184.988508 L1120.1742,187.847665 L1037.12468,187.847665 L1037.12468,187.847665 L1037.12468,187.847665 L1037.12468,187.847665 L1037.12468,187.847665 Z" id="Shape" fill="#FFFFFF"></path>
                                                <path d="M2473.92717,178.988763 C2470.57195,178.988763 2467.85317,180.084894 2467.85317,181.437616 L2467.85317,181.700173 C2467.04937,181.624894 2466.2137,181.581288 2465.35298,181.581288 L1400.8065,181.581288 C1400.62091,180.296501 1397.9841,179.276566 1394.75298,179.276566 C1391.39776,179.276566 1388.67897,180.373156 1388.67897,181.72496 L1388.67897,181.869091 L1353.26643,181.869091 L1353.26643,181.72496 C1353.26643,180.373156 1350.5465,179.276566 1347.19242,179.276566 C1343.83719,179.276566 1341.1184,180.373156 1341.1184,181.72496 L1341.1184,185.684435 C1341.04782,185.897878 1341,186.112697 1341,186.334861 C1341,186.555648 1341.04782,186.771845 1341.1184,186.98391 L1341.1184,191.519911 C1341.1184,192.872632 1343.83719,193.968763 1347.19242,193.968763 C1350.5465,193.968763 1353.26643,192.872632 1353.26643,191.519911 L1353.26643,190.800173 L1388.67897,190.800173 L1388.67897,191.519911 C1388.67897,192.872632 1391.39776,193.968763 1394.75298,193.968763 C1398.10478,193.968763 1400.82585,192.872632 1400.82585,191.519911 L1400.82585,190.51191 L2465.35298,190.51191 C2466.2137,190.51191 2467.04937,190.468763 2467.85317,190.393026 L2467.85317,191.232107 C2467.85317,192.58437 2470.57309,193.680959 2473.92717,193.680959 C2477.28125,193.680959 2480.00004,192.58437 2480.00004,191.232107 L2480.00004,181.437157 C2480.00004,180.084894 2477.28125,178.988763 2473.92717,178.988763 L2473.92717,178.988763 L2473.92717,178.988763 L2473.92717,178.988763 L2473.92717,178.988763 Z M1353.26415,187.631583 L1353.26415,185.039058 L1388.6767,185.039058 L1388.6767,187.631583 L1353.26415,187.631583 L1353.26415,187.631583 L1353.26415,187.631583 L1353.26415,187.631583 L1353.26415,187.631583 Z M2465.35184,187.343321 L1400.82471,187.343321 L1400.82471,184.750796 L2464.99434,184.750796 L2465.17308,184.750796 C2466.25582,184.750796 2467.24291,184.969288 2467.85203,185.301156 L2467.85203,186.824173 C2467.29073,187.137681 2466.39927,187.343321 2465.35184,187.343321 L2465.35184,187.343321 L2465.35184,187.343321 L2465.35184,187.343321 L2465.35184,187.343321 Z" id="Shape" fill="#FFFFFF"></path>
                                                <path d="M3832.03594,59.6547455 C3828.74527,59.6547455 3826.07411,60.7655027 3826.07411,62.1364122 L3826.07411,62.2897162 C3825.9558,62.2887871 3825.84083,62.2822833 3825.7225,62.2822833 L2691.08484,62.2822833 C2689.9831,62.2822833 2688.92492,62.3515024 2687.92589,62.4773975 L2687.92589,62.1364122 C2687.92589,60.7655027 2685.25473,59.6547455 2681.96406,59.6547455 C2678.67004,59.6547455 2676,60.7655027 2676,62.1364122 L2676,72.0635437 C2676,73.4339886 2678.67004,74.5447458 2681.96406,74.5447458 C2685.25473,74.5447458 2687.92589,73.4335241 2687.92589,72.0635437 L2687.92589,71.138145 C2688.92603,71.26404 2689.9831,71.3332592 2691.08484,71.3332592 L3825.7225,71.3332592 C3825.84083,71.3332592 3825.9558,71.3272199 3826.07411,71.3258262 L3826.07411,72.0635437 C3826.07411,73.4339886 3828.74527,74.5447458 3832.03594,74.5447458 C3835.32996,74.5447458 3838,73.4335241 3838,72.0635437 L3838,62.1364122 C3838,60.7655027 3835.33108,59.6547455 3832.03594,59.6547455 L3832.03594,59.6547455 L3832.03594,59.6547455 L3832.03594,59.6547455 L3832.03594,59.6547455 Z M3826.07524,68.1069066 C3825.95803,68.1124812 3825.8464,68.1213078 3825.72361,68.1213078 L2691.08484,68.1213078 C2689.34127,68.1213078 2687.92589,67.5317842 2687.92589,66.8075389 C2687.92589,66.0832937 2689.34238,65.49377 2691.08484,65.49377 L3825.37424,65.49377 L3825.54948,65.49377 C3825.7292,65.49377 3825.9011,65.5035257 3826.07524,65.5160688 L3826.07524,68.1069066 L3826.07524,68.1069066 L3826.07524,68.1069066 L3826.07524,68.1069066 L3826.07524,68.1069066 Z" id="Shape" fill="#FFFFFF"></path>
                                                <path d="M5262.32049,53.5484348 L5247.6889,53.5484348 C5247.6889,43.9152027 5244.17731,37.2286062 5237.22731,32.0153276 C5225.59519,23.2887526 5207.45202,22.3820956 5207.45202,22.3820956 L5036.4087,22.3820956 L5036.4087,11.0488812 L5207.15938,11.0488812 C5207.15938,11.0488812 5231.74046,12.1822026 5247.46942,24.0254116 C5257.34574,31.4486669 5262.32049,40.5152384 5262.32049,53.5484348 L5262.32049,53.5484348 L5262.32049,53.5484348 L5262.32049,53.5484348 Z" id="Shape" stroke="#FFFFFF" stroke-width="6" fill="#FFFFFF" transform="translate(5149.364595, 32.298658) rotate(1.000000) translate(-5149.364595, -32.298658) "></path>
                                                <path d="M5031.07731,0.726072727 C5027.97272,0.726072727 5025.44374,2.89534545 5025.44374,5.56332727 L5025.44374,19.8648727 C5025.44374,22.5328545 5027.97272,24.7021273 5031.07731,24.7021273 C5034.18189,24.7021273 5036.71088,22.5328545 5036.71088,19.8648727 L5036.71088,5.56332727 C5036.71175,2.89534545 5034.18276,0.726072727 5031.07731,0.726072727 L5031.07731,0.726072727 L5031.07731,0.726072727 L5031.07731,0.726072727 L5031.07731,0.726072727 Z" id="Shape" fill="#FFFFFF"></path>
                                                <path d="M4066.04304,220.60701 C4046.04583,220.60701 4034.31401,220.208646 4034,220.196969 L4034.79007,211.969381 C4035.62854,212.000289 4119.89305,214.84447 4224.73551,204.887433 C4321.05822,195.740174 4455.00175,173.606939 4546.09894,120.111478 C4630.17661,70.7383951 4714.16763,39.0066512 4802.87321,23.1030034 C4879.66914,9.33472335 4947.43211,9.53733946 5007.22906,9.71935055 C5013.86141,9.73926874 5020.39247,9.75918693 5026.82674,9.75918693 L5026.82674,18.0011983 C5020.37108,18.0011983 5013.81639,17.9812802 5007.16153,17.961362 C4888.51753,17.6097028 4740.89399,17.1598263 4555.46166,126.051221 C4514.0075,150.394688 4460.7191,170.489399 4397.07758,185.77833 C4346.36198,197.960709 4288.97916,207.140249 4226.52049,213.060074 C4159.34389,219.426341 4100.45968,220.60701 4066.04304,220.60701 L4066.04304,220.60701 L4066.04304,220.60701 L4066.04304,220.60701 L4066.04304,220.60701 Z" id="Shape" stroke="#FFFFFF" stroke-width="3"></path>
                                            </g>
                                        </g>
                                    </g>
                                </g>
                            </g>
                        </g>
                    </g>
                </g>
            </g>
        </g>
    </g>
</svg>