<svg xmlns="http://www.w3.org/2000/svg" xmlns:xlink="http://www.w3.org/1999/xlink" width="5176" height="330" viewBox="0 0 5176 330" version="1.1">
  <g id="Page-1" stroke="none" stroke-width="1" fill="none" fill-rule="evenodd">
    <g id="brewing_pipes">
      <g id="Pipes">
        <g id="Page-1">
          <g id="Pipes">
            <g id="Group">
              <g id="Pipes">
                <path d="M975.77 243.91C971.83 243.91 968.63 247.11 968.63 251.05L968.63 251.36 896.83 251.36 896.83 251.05C896.83 247.11 893.63 243.91 889.7 243.91 885.86 243.91 882.74 246.95 882.57 250.74L436.6 250.74 436.6 247.32C436.6 243.39 433.4 240.19 429.46 240.19 428.93 240.19 428.41 240.25 427.91 240.36L427.91 211.08C427.91 200.07 419.61 191.77 408.6 191.77L315.63 191.77C304.3 191.77 295.08 200.43 295.08 211.08L295.08 243.63C292.2 244.55 290.11 247.25 290.11 250.43L290.11 250.74 81.5 250.74 81.5 250.43C81.5 246.49 78.3 243.29 74.36 243.29 70.43 243.29 67.22 246.49 67.22 250.43L67.22 250.74 15.17 250.74 15.17 250.43C15.17 246.49 11.96 243.29 8.03 243.29 4.09 243.29 0.89 246.49 0.89 250.43L0.89 271.53C0.89 275.47 4.09 278.67 8.03 278.67 11.96 278.67 15.17 275.47 15.17 271.53L15.17 269.98 67.22 269.98 67.22 271.53C67.22 275.47 70.43 278.67 74.36 278.67 78.3 278.67 81.5 275.47 81.5 271.53L81.5 269.98 290.11 269.98 290.11 271.53C290.11 274.71 292.2 277.41 295.08 278.33L295.08 304.05C295.08 315 304.68 324.6 315.63 324.6L408.6 324.6C419.25 324.6 427.91 315.38 427.91 304.05L427.91 275.39C428.41 275.51 428.93 275.57 429.46 275.57 432.86 275.57 435.71 273.17 436.42 269.98L882.56 269.98 882.56 272.15C882.56 276.09 885.76 279.29 889.7 279.29 893.63 279.29 896.83 276.09 896.83 272.15L896.83 270.6 968.63 270.6 968.63 272.15C968.63 276.09 971.83 279.29 975.77 279.29 979.7 279.29 982.9 276.09 982.9 272.15L982.9 251.05C982.9 247.11 979.7 243.91 975.77 243.91L975.77 243.91 975.77 243.91ZM409.91 301.64L409.91 292.33 419.22 292.33 419.22 301.64 409.91 301.64 409.91 301.64 409.91 301.64ZM406.18 315.91L396.87 315.91 396.87 305.36 406.18 305.36 406.18 315.91 406.18 315.91 406.18 315.91ZM318.66 305.36L327.98 305.36 327.98 315.91 318.66 315.91 318.66 305.36 318.66 305.36 318.66 305.36ZM314.94 214.12L314.94 223.43 303.77 223.43 303.77 214.12 314.94 214.12 314.94 214.12 314.94 214.12ZM318.66 200.46L327.98 200.46 327.98 210.39 318.66 210.39 318.66 200.46 318.66 200.46 318.66 200.46ZM406.18 210.39L396.87 210.39 396.87 200.46 406.18 200.46 406.18 210.39 406.18 210.39 406.18 210.39ZM419.22 236.46L409.91 236.46 409.91 227.15 419.22 227.15 419.22 236.46 419.22 236.46 419.22 236.46ZM314.94 253.22L314.94 262.53 304.39 262.53 304.39 253.22 314.94 253.22 314.94 253.22 314.94 253.22ZM393.15 249.5L383.84 249.5 383.84 240.19 393.15 240.19 393.15 249.5 393.15 249.5 393.15 249.5ZM396.87 240.19L406.18 240.19 406.18 249.5 396.87 249.5 396.87 240.19 396.87 240.19 396.87 240.19ZM357.77 262.53L357.77 253.22 367.08 253.22 367.08 262.53 357.77 262.53 357.77 262.53 357.77 262.53ZM367.08 266.26L367.08 275.57 357.77 275.57 357.77 266.26 367.08 266.26 367.08 266.26 367.08 266.26ZM344.73 253.22L354.05 253.22 354.05 262.53 344.73 262.53 344.73 253.22 344.73 253.22 344.73 253.22ZM341.01 262.53L331.7 262.53 331.7 253.22 341.01 253.22 341.01 262.53 341.01 262.53 341.01 262.53ZM357.77 249.5L357.77 240.19 367.08 240.19 367.08 249.5 357.77 249.5 357.77 249.5 357.77 249.5ZM370.8 253.22L380.12 253.22 380.12 262.53 370.8 262.53 370.8 253.22 370.8 253.22 370.8 253.22ZM383.84 253.22L393.15 253.22 393.15 262.53 383.84 262.53 383.84 253.22 383.84 253.22 383.84 253.22ZM380.12 249.5L370.8 249.5 370.8 240.19 380.12 240.19 380.12 249.5 380.12 249.5 380.12 249.5ZM370.8 236.46L370.8 227.15 380.12 227.15 380.12 236.46 370.8 236.46 370.8 236.46 370.8 236.46ZM367.08 236.46L357.77 236.46 357.77 227.15 367.08 227.15 367.08 236.46 367.08 236.46 367.08 236.46ZM354.05 236.46L344.73 236.46 344.73 227.15 354.05 227.15 354.05 236.46 354.05 236.46 354.05 236.46ZM354.05 240.19L354.05 249.5 344.73 249.5 344.73 240.19 354.05 240.19 354.05 240.19 354.05 240.19ZM341.01 249.5L331.7 249.5 331.7 240.19 341.01 240.19 341.01 249.5 341.01 249.5 341.01 249.5ZM327.98 249.5L318.66 249.5 318.66 240.19 327.98 240.19 327.98 249.5 327.98 249.5 327.98 249.5ZM327.98 253.22L327.98 262.53 318.66 262.53 318.66 253.22 327.98 253.22 327.98 253.22 327.98 253.22ZM304.39 271.53L304.39 266.26 314.94 266.26 314.94 275.57 303.77 275.57 303.77 274.43C304.16 273.54 304.39 272.56 304.39 271.53L304.39 271.53 304.39 271.53ZM318.66 266.26L327.98 266.26 327.98 275.57 318.66 275.57 318.66 266.26 318.66 266.26 318.66 266.26ZM331.7 266.26L341.01 266.26 341.01 275.57 331.7 275.57 331.7 266.26 331.7 266.26 331.7 266.26ZM344.73 266.26L354.05 266.26 354.05 275.57 344.73 275.57 344.73 266.26 344.73 266.26 344.73 266.26ZM354.05 279.29L354.05 288.6 344.73 288.6 344.73 279.29 354.05 279.29 354.05 279.29 354.05 279.29ZM357.77 279.29L367.08 279.29 367.08 288.6 357.77 288.6 357.77 279.29 357.77 279.29 357.77 279.29ZM370.8 279.29L380.12 279.29 380.12 288.6 370.8 288.6 370.8 279.29 370.8 279.29 370.8 279.29ZM370.8 275.57L370.8 266.26 380.12 266.26 380.12 275.57 370.8 275.57 370.8 275.57 370.8 275.57ZM383.84 266.26L393.15 266.26 393.15 275.57 383.84 275.57 383.84 266.26 383.84 266.26 383.84 266.26ZM396.87 266.26L406.18 266.26 406.18 275.57 396.87 275.57 396.87 266.26 396.87 266.26 396.87 266.26ZM396.87 262.53L396.87 253.22 406.18 253.22 406.18 262.53 396.87 262.53 396.87 262.53 396.87 262.53ZM409.91 253.22L419.22 253.22 419.22 262.53 409.91 262.53 409.91 253.22 409.91 253.22 409.91 253.22ZM409.91 249.5L409.91 240.19 419.22 240.19 419.22 249.5 409.91 249.5 409.91 249.5 409.91 249.5ZM406.18 236.46L396.87 236.46 396.87 227.15 406.18 227.15 406.18 236.46 406.18 236.46 406.18 236.46ZM393.15 236.46L383.84 236.46 383.84 227.15 393.15 227.15 393.15 236.46 393.15 236.46 393.15 236.46ZM383.84 223.43L383.84 214.12 393.15 214.12 393.15 223.43 383.84 223.43 383.84 223.43 383.84 223.43ZM380.12 223.43L370.8 223.43 370.8 214.12 380.12 214.12 380.12 223.43 380.12 223.43 380.12 223.43ZM367.08 223.43L357.77 223.43 357.77 214.12 367.08 214.12 367.08 223.43 367.08 223.43 367.08 223.43ZM354.05 223.43L344.73 223.43 344.73 214.12 354.05 214.12 354.05 223.43 354.05 223.43 354.05 223.43ZM341.01 223.43L331.7 223.43 331.7 214.12 341.01 214.12 341.01 223.43 341.01 223.43 341.01 223.43ZM341.01 227.15L341.01 236.46 331.7 236.46 331.7 227.15 341.01 227.15 341.01 227.15 341.01 227.15ZM327.98 236.46L318.66 236.46 318.66 227.15 327.98 227.15 327.98 236.46 327.98 236.46 327.98 236.46ZM314.94 236.46L303.77 236.46 303.77 227.15 314.94 227.15 314.94 236.46 314.94 236.46 314.94 236.46ZM314.94 240.19L314.94 249.5 304.32 249.5C304.23 248.81 304.04 248.15 303.77 247.53L303.77 240.19 314.94 240.19 314.94 240.19 314.94 240.19ZM303.77 279.29L314.94 279.29 314.94 288.6 303.77 288.6 303.77 279.29 303.77 279.29 303.77 279.29ZM318.66 279.29L327.98 279.29 327.98 288.6 318.66 288.6 318.66 279.29 318.66 279.29 318.66 279.29ZM331.7 279.29L341.01 279.29 341.01 288.6 331.7 288.6 331.7 279.29 331.7 279.29 331.7 279.29ZM341.01 292.33L341.01 301.64 331.7 301.64 331.7 292.33 341.01 292.33 341.01 292.33 341.01 292.33ZM344.73 292.33L354.05 292.33 354.05 301.64 344.73 301.64 344.73 292.33 344.73 292.33 344.73 292.33ZM357.77 292.33L367.08 292.33 367.08 301.64 357.77 301.64 357.77 292.33 357.77 292.33 357.77 292.33ZM370.8 292.33L380.12 292.33 380.12 301.64 370.8 301.64 370.8 292.33 370.8 292.33 370.8 292.33ZM383.84 292.33L393.15 292.33 393.15 301.64 383.84 301.64 383.84 292.33 383.84 292.33 383.84 292.33ZM383.84 288.6L383.84 279.29 393.15 279.29 393.15 288.6 383.84 288.6 383.84 288.6 383.84 288.6ZM396.87 279.29L406.18 279.29 406.18 288.6 396.87 288.6 396.87 279.29 396.87 279.29 396.87 279.29ZM409.91 279.29L419.22 279.29 419.22 288.6 409.91 288.6 409.91 279.29 409.91 279.29 409.91 279.29ZM409.91 275.57L409.91 266.26 419.22 266.26 419.22 275.57 409.91 275.57 409.91 275.57 409.91 275.57ZM419.22 223.43L409.91 223.43 409.91 214.12 419.22 214.12 419.22 223.43 419.22 223.43 419.22 223.43ZM406.18 223.43L396.87 223.43 396.87 214.12 406.18 214.12 406.18 223.43 406.18 223.43 406.18 223.43ZM393.15 210.39L383.84 210.39 383.84 200.46 393.15 200.46 393.15 210.39 393.15 210.39 393.15 210.39ZM380.12 210.39L370.8 210.39 370.8 200.46 380.12 200.46 380.12 210.39 380.12 210.39 380.12 210.39ZM367.08 210.39L357.77 210.39 357.77 200.46 367.08 200.46 367.08 210.39 367.08 210.39 367.08 210.39ZM354.05 210.39L344.73 210.39 344.73 200.46 354.05 200.46 354.05 210.39 354.05 210.39 354.05 210.39ZM341.01 210.39L331.7 210.39 331.7 200.46 341.01 200.46 341.01 210.39 341.01 210.39 341.01 210.39ZM327.98 214.12L327.98 223.43 318.66 223.43 318.66 214.12 327.98 214.12 327.98 214.12 327.98 214.12ZM303.77 292.33L314.94 292.33 314.94 301.64 303.77 301.64 303.77 292.33 303.77 292.33 303.77 292.33ZM318.66 292.33L327.98 292.33 327.98 301.64 318.66 301.64 318.66 292.33 318.66 292.33 318.66 292.33ZM331.7 305.36L341.01 305.36 341.01 315.91 331.7 315.91 331.7 305.36 331.7 305.36 331.7 305.36ZM344.73 305.36L354.05 305.36 354.05 315.91 344.73 315.91 344.73 305.36 344.73 305.36 344.73 305.36ZM357.77 305.36L367.08 305.36 367.08 315.91 357.77 315.91 357.77 305.36 357.77 305.36 357.77 305.36ZM370.8 305.36L380.12 305.36 380.12 315.91 370.8 315.91 370.8 305.36 370.8 305.36 370.8 305.36ZM383.84 305.36L393.15 305.36 393.15 315.91 383.84 315.91 383.84 305.36 383.84 305.36 383.84 305.36ZM396.87 301.64L396.87 292.33 406.18 292.33 406.18 301.64 396.87 301.64 396.87 301.64 396.87 301.64ZM419.19 210.39L409.91 210.39 409.91 200.54C415.23 201.08 418.9 204.95 419.19 210.39L419.19 210.39 419.19 210.39ZM314.94 200.49L314.94 210.39 303.81 210.39C304.19 205.06 308.98 200.8 314.94 200.49L314.94 200.49 314.94 200.49ZM15.17 263.15L15.17 257.57 67.22 257.57 67.22 263.15 15.17 263.15 15.17 263.15 15.17 263.15ZM81.5 263.15L81.5 257.57 290.11 257.57 290.11 263.15 81.5 263.15 81.5 263.15 81.5 263.15ZM303.86 305.36L314.94 305.36 314.94 315.87C309.45 315.5 304.55 310.8 303.86 305.36L303.86 305.36 303.86 305.36ZM409.91 315.81L409.91 305.36 419.15 305.36C418.61 310.8 414.76 315.14 409.91 315.81L409.91 315.81 409.91 315.81ZM436.6 263.15L436.6 257.57 882.56 257.57 882.56 263.15 436.6 263.15 436.6 263.15 436.6 263.15ZM896.83 263.77L896.83 258.19 968.63 258.19 968.63 263.77 896.83 263.77 896.83 263.77 896.83 263.77Z" id="Shape" fill="#FFFFFF"/>
                <path d="M2328.04 245C2325.09 245 2322.71 247.39 2322.71 250.34L2322.71 250.91C2322 250.74 2321.27 250.65 2320.51 250.65L1385.48 250.65C1385.32 247.85 1383.01 245.63 1380.17 245.63 1377.22 245.63 1374.83 248.02 1374.83 250.96L1374.83 251.28 1343.73 251.28 1343.73 250.96C1343.73 248.02 1341.34 245.63 1338.39 245.63 1335.45 245.63 1333.06 248.02 1333.06 250.96L1333.06 259.59C1333 260.05 1332.95 260.52 1332.95 261 1332.95 261.49 1333 261.96 1333.06 262.42L1333.06 272.3C1333.06 275.25 1335.45 277.64 1338.39 277.64 1341.34 277.64 1343.73 275.25 1343.73 272.3L1343.73 270.73 1374.83 270.73 1374.83 272.3C1374.83 275.25 1377.22 277.64 1380.17 277.64 1383.11 277.64 1385.5 275.25 1385.5 272.3L1385.5 270.1 2320.51 270.1C2321.27 270.1 2322 270.01 2322.71 269.85L2322.71 271.67C2322.71 274.62 2325.09 277.01 2328.04 277.01 2330.99 277.01 2333.38 274.62 2333.38 271.67L2333.38 250.33C2333.38 247.39 2330.99 245 2328.04 245L2328.04 245 2328.04 245ZM1343.73 263.83L1343.73 258.18 1374.83 258.18 1374.83 263.83 1343.73 263.83 1343.73 263.83 1343.73 263.83ZM2320.51 263.2L1385.5 263.2 1385.5 257.55 2320.2 257.55 2320.35 257.55C2321.3 257.55 2322.17 258.03 2322.71 258.75L2322.71 262.07C2322.21 262.75 2321.43 263.2 2320.51 263.2L2320.51 263.2 2320.51 263.2Z" id="Shape" fill="#FFFFFF"/>
                <path d="M3703.16 49.17C3700.21 49.17 3697.82 51.56 3697.82 54.51L3697.82 54.84C3697.71 54.84 3697.61 54.83 3697.5 54.83L2681.02 54.83C2680.03 54.83 2679.08 54.98 2678.19 55.25L2678.19 54.51C2678.19 51.56 2675.79 49.17 2672.85 49.17 2669.9 49.17 2667.5 51.56 2667.5 54.51L2667.5 75.88C2667.5 78.83 2669.9 81.22 2672.85 81.22 2675.79 81.22 2678.19 78.83 2678.19 75.88L2678.19 73.89C2679.08 74.16 2680.03 74.31 2681.02 74.31L3697.5 74.31C3697.61 74.31 3697.71 74.3 3697.82 74.29L3697.82 75.88C3697.82 78.83 3700.21 81.22 3703.16 81.22 3706.11 81.22 3708.5 78.83 3708.5 75.88L3708.5 54.51C3708.5 51.56 3706.11 49.17 3703.16 49.17L3703.16 49.17 3703.16 49.17ZM3697.82 67.36C3697.71 67.38 3697.61 67.4 3697.5 67.4L2681.02 67.4C2679.46 67.4 2678.19 66.13 2678.19 64.57 2678.19 63.01 2679.46 61.74 2681.02 61.74L3697.19 61.74 3697.35 61.74C3697.51 61.74 3697.66 61.76 3697.82 61.79L3697.82 67.36 3697.82 67.36 3697.82 67.36Z" id="Shape" fill="#FFFFFF"/>
                <path d="M5173.22 71.83L5156.36 71.83C5156.36 58.91 5152.32 49.94 5144.31 42.95 5130.92 31.24 5110.02 30.02 5110.02 30.02L4913 30.02 4913 14.82 5109.68 14.82C5109.68 14.82 5137.99 16.34 5156.11 32.23 5167.49 42.19 5173.22 54.35 5173.22 71.83L5173.22 71.83Z" id="Shape" stroke="#FFFFFF" stroke-width="6" fill="#FFFFFF" transform="translate(5043.109623, 43.327468) rotate(1.000000) translate(-5043.109623, -43.327468) "/>
                <path d="M4017.66 297.21C4014.08 297.21 4011.17 300.12 4011.17 303.7L4011.17 322.88C4011.17 326.46 4014.08 329.37 4017.66 329.37 4021.23 329.37 4024.15 326.46 4024.15 322.88L4024.15 303.7C4024.15 300.12 4021.23 297.21 4017.66 297.21L4017.66 297.21 4017.66 297.21Z" id="Shape" fill="#FFFFFF"/>
                <path d="M4906.86 0.97C4903.29 0.97 4900.37 3.88 4900.37 7.46L4900.37 26.65C4900.37 30.23 4903.29 33.14 4906.86 33.14 4910.44 33.14 4913.35 30.23 4913.35 26.65L4913.35 7.46C4913.35 3.88 4910.44 0.97 4906.86 0.97L4906.86 0.97 4906.86 0.97Z" id="Shape" fill="#FFFFFF"/>
                <path d="M4048.29 320.09C4030.52 320.09 4020.09 319.51 4019.82 319.49L4020.52 307.51C4021.26 307.56 4096.13 311.7 4189.29 297.2 4274.87 283.88 4393.89 251.66 4474.83 173.77 4549.53 101.88 4624.16 55.68 4702.98 32.53 4771.21 12.48 4831.42 12.78 4884.55 13.04 4890.45 13.07 4896.25 13.1 4901.97 13.1L4901.97 25.1C4896.23 25.1 4890.41 25.07 4884.49 25.04 4779.07 24.53 4647.91 23.88 4483.15 182.42 4446.31 217.86 4398.97 247.12 4342.42 269.38 4297.36 287.11 4246.37 300.48 4190.87 309.1 4131.19 318.37 4078.87 320.09 4048.29 320.09L4048.29 320.09 4048.29 320.09Z" id="Shape" stroke="#FFFFFF" stroke-width="7"/>
              </g>
            </g>
          </g>
        </g>
      </g>
    </g>
  </g>
</svg>
