<?xml version="1.0" encoding="UTF-8" standalone="no"?>
<svg width="4920px" height="500px" viewBox="0 0 4920 500" version="1.1" xmlns="http://www.w3.org/2000/svg" xmlns:xlink="http://www.w3.org/1999/xlink">
    <!-- Generator: Sketch 3.8.3 (29802) - http://www.bohemiancoding.com/sketch -->
    <title>Brewing Animation Film (3)</title>
    <desc>Created with Sketch.</desc>
    <defs>
        <rect id="path-1" x="0.386990608" y="94.5389527" width="3448.46532" height="351.922095"></rect>
        <mask id="mask-2" maskContentUnits="userSpaceOnUse" maskUnits="objectBoundingBox" x="0" y="0" width="3448.46532" height="351.922095" fill="white">
            <use xlink:href="#path-1"></use>
        </mask>
        <rect id="path-3" x="0.603077861" y="0" width="4910" height="500"></rect>
        <mask id="mask-4" maskContentUnits="userSpaceOnUse" maskUnits="objectBoundingBox" x="0" y="0" width="4910" height="500" fill="white">
            <use xlink:href="#path-3"></use>
        </mask>
    </defs>
    <g id="Page-1" stroke="none" stroke-width="1" fill="none" fill-rule="evenodd">
        <g id="Brewing-Animation-Film-(3)" transform="translate(3.000000, 0.000000)">
            <g id="Group">
                <g id="Brewing_machines" transform="translate(0.396922, 0.000000)">
                    <use id="Rectangle-4" stroke="#979797" mask="url(#mask-2)" stroke-width="2" fill="#EC8C06" xlink:href="#path-1"></use>
                    <use id="Rectangle-4" stroke="#979797" mask="url(#mask-4)" stroke-width="2" fill="#22BC00" xlink:href="#path-3"></use>
                    <path d="M252.455138,343.833694 C253.799129,343.833694 254.874321,344.861696 254.874321,346.146698 C254.874321,347.4317 253.799129,348.459702 252.455138,348.459702 L75.0484185,348.459702 C73.7044282,348.459702 72.6292359,347.4317 72.6292359,346.146698 C72.6292359,344.861696 73.7044282,343.833694 75.0484185,343.833694 L252.455138,343.833694 L252.455138,343.833694 Z M252.455138,338.179684 L75.0484185,338.179684 C70.4250918,338.179684 66.7156786,341.72629 66.7156786,346.146698 C66.7156786,350.567106 70.4250918,354.113712 75.0484185,354.113712 L252.455138,354.113712 C257.078465,354.113712 260.787878,350.567106 260.787878,346.146698 C260.787878,341.72629 257.024705,338.179684 252.455138,338.179684 L252.455138,338.179684 L252.455138,338.179684 Z" id="Shape" fill="#FFFFFF"></path>
                    <path d="M261.594272,354.884713 C261.594272,357.300517 259.551407,359.253721 257.024705,359.253721 L257.024705,359.253721 C254.498004,359.253721 252.455138,357.300517 252.455138,354.884713 L252.455138,337.408683 C252.455138,334.992879 254.498004,333.039675 257.024705,333.039675 L257.024705,333.039675 C259.551407,333.039675 261.594272,334.992879 261.594272,337.408683 L261.594272,354.884713 L261.594272,354.884713 Z" id="Shape" stroke="#FFFFFF" stroke-width="6" fill="#FFFFFF"></path>
                    <path d="M68.597265,343.833694 C69.9412553,343.833694 71.0164476,344.861696 71.0164476,346.146698 C71.0164476,347.4317 69.9412553,348.459702 68.597265,348.459702 L9.99928785,348.459702 C8.65529755,348.459702 7.5801053,347.4317 7.5801053,346.146698 C7.5801053,344.861696 8.65529755,343.833694 9.99928785,343.833694 L68.597265,343.833694 L68.597265,343.833694 Z M68.597265,338.179684 L9.99928785,338.179684 C5.37596121,338.179684 1.66654797,341.72629 1.66654797,346.146698 C1.66654797,350.567106 5.37596121,354.113712 9.99928785,354.113712 L68.597265,354.113712 C73.2205917,354.113712 76.9300049,350.567106 76.9300049,346.146698 C76.9300049,341.72629 73.166832,338.179684 68.597265,338.179684 L68.597265,338.179684 L68.597265,338.179684 Z" id="Shape" fill="#FFFFFF"></path>
                    <path d="M9.46169173,354.884713 C9.46169173,357.300517 7.41882647,359.253721 4.8921247,359.253721 L4.8921247,359.253721 C2.36542293,359.253721 0.322557673,357.300517 0.322557673,354.884713 L0.322557673,337.408683 C0.322557673,334.992879 2.36542293,333.039675 4.8921247,333.039675 L4.8921247,333.039675 C7.41882647,333.039675 9.46169173,334.992879 9.46169173,337.408683 L9.46169173,354.884713 L9.46169173,354.884713 Z" id="Shape" stroke="#FFFFFF" stroke-width="6" fill="#FFFFFF"></path>
                    <path d="M76.1236107,354.884713 C76.1236107,357.300517 74.0807455,359.253721 71.5540437,359.253721 L71.5540437,359.253721 C69.0273419,359.253721 66.9844767,357.300517 66.9844767,354.884713 L66.9844767,337.408683 C66.9844767,334.992879 69.0273419,333.039675 71.5540437,333.039675 L71.5540437,333.039675 C74.0807455,333.039675 76.1236107,334.992879 76.1236107,337.408683 L76.1236107,354.884713 L76.1236107,354.884713 Z" id="Shape" stroke="#FFFFFF" stroke-width="6" fill="#FFFFFF"></path>
                    <path d="M972.945736,333.553676 C975.472438,333.553676 977.515303,335.506879 977.515303,337.922684 L977.515303,355.398714 C977.515303,357.814518 975.472438,359.767722 972.945736,359.767722 L972.945736,359.767722 C970.419034,359.767722 968.376169,357.814518 968.376169,355.398714 L968.376169,337.922684 C968.376169,335.506879 970.419034,333.553676 972.945736,333.553676 L972.945736,333.553676 L972.945736,333.553676 Z" id="Shape" stroke="#FFFFFF" stroke-width="6" fill="#FFFFFF"></path>
                    <path d="M887.438095,333.553676 C889.964797,333.553676 892.007662,335.506879 892.007662,337.922684 L892.007662,355.398714 C892.007662,357.814518 889.964797,359.767722 887.438095,359.767722 L887.438095,359.767722 C884.911393,359.767722 882.868528,357.814518 882.868528,355.398714 L882.868528,337.922684 C882.868528,335.506879 884.911393,333.553676 887.438095,333.553676 L887.438095,333.553676 L887.438095,333.553676 Z" id="Shape" stroke="#FFFFFF" stroke-width="6" fill="#FFFFFF"></path>
                    <path d="M1338.19963,333.553676 C1340.72634,333.553676 1342.7692,335.506879 1342.7692,337.922684 L1342.7692,355.398714 C1342.7692,357.814518 1340.72634,359.767722 1338.19963,359.767722 L1338.19963,359.767722 C1335.67293,359.767722 1333.63007,357.814518 1333.63007,355.398714 L1333.63007,337.922684 C1333.63007,335.506879 1335.67293,333.553676 1338.19963,333.553676 L1338.19963,333.553676 L1338.19963,333.553676 Z" id="Shape" stroke="#FFFFFF" stroke-width="6" fill="#FFFFFF"></path>
                    <path d="M1377.22983,333.553676 C1379.75653,333.553676 1381.79939,335.506879 1381.79939,337.922684 L1381.79939,355.398714 C1381.79939,357.814518 1379.75653,359.767722 1377.22983,359.767722 L1377.22983,359.767722 C1374.70312,359.767722 1372.66026,357.814518 1372.66026,355.398714 L1372.66026,337.922684 C1372.66026,335.506879 1374.70312,333.553676 1377.22983,333.553676 L1377.22983,333.553676 L1377.22983,333.553676 Z" id="Shape" stroke="#FFFFFF" stroke-width="6" fill="#FFFFFF"></path>
                    <path d="M961.364399,343.320478 C962.536674,343.320478 964.881223,344.707927 964.881223,346.789101 C964.881223,348.870275 962.536674,350.257724 961.364399,350.257724 L901.724925,350.257724 C900.55265,350.257724 898.208101,348.870275 898.208101,346.789101 C898.208101,344.707927 900.55265,343.320478 901.724925,343.320478 L961.950536,343.320478 L961.364399,343.320478 Z M961.364399,334.841621 L901.724925,334.841621 C890.881384,334.841621 882.089324,340.160176 882.089324,346.789101 C882.089324,353.418026 890.881384,358.736581 901.724925,358.736581 L961.364399,358.736581 C972.20794,358.736581 981,353.418026 981,346.789101 C981,340.160176 972.20794,334.841621 961.364399,334.841621 L961.364399,334.841621 L961.364399,334.841621 Z" id="Shape" fill="#FFFFFF"></path>
                    <path d="M1371.17809,344.347695 C1372.10213,344.347695 1373.08777,345.272897 1373.08777,346.660699 C1373.08777,348.048501 1372.04053,348.973703 1371.17809,348.973703 L1344.75061,348.973703 C1343.82657,348.973703 1342.84093,348.048501 1342.84093,346.660699 C1342.84093,345.272897 1343.88817,344.347695 1344.75061,344.347695 L1370.93168,344.347695 L1371.17809,344.347695 Z M1371.17809,338.693685 L1344.75061,338.693685 C1339.94561,338.693685 1336.06465,342.240291 1336.06465,346.660699 C1336.06465,351.081107 1339.94561,354.627713 1344.75061,354.627713 L1371.17809,354.627713 C1375.98309,354.627713 1379.86405,351.081107 1379.86405,346.660699 C1379.86405,342.240291 1376.04469,338.693685 1371.17809,338.693685 L1371.17809,338.693685 L1371.17809,338.693685 Z" id="Shape" fill="#FFFFFF"></path>
                    <path d="M2325.79875,333 C2322.59238,333 2320,334.953203 2320,337.369008 L2320,354.845038 C2320,357.260842 2322.59238,359.214046 2325.79875,359.214046 L2325.79875,359.214046 C2329.00511,359.214046 2331.59749,357.260842 2331.59749,354.845038 L2331.59749,337.369008 C2331.59749,334.953203 2329.00511,333 2325.79875,333 L2325.79875,333 L2325.79875,333 Z" id="Shape" stroke="#FFFFFF" stroke-width="6" fill="#FFFFFF"></path>
                    <path d="M2670.56957,136 C2668.04287,136 2666,137.953203 2666,140.369008 L2666,157.845038 C2666,160.260842 2668.04287,162.214046 2670.56957,162.214046 L2670.56957,162.214046 C2673.09627,162.214046 2675.13913,160.260842 2675.13913,157.845038 L2675.13913,140.369008 C2675.13913,137.953203 2673.09627,136 2670.56957,136 L2670.56957,136 L2670.56957,136 Z" id="Shape" stroke="#FFFFFF" stroke-width="6" fill="#FFFFFF"></path>
                    <path d="M3684.03251,136.055356 C3681.50581,136.055356 3679.46294,138.00856 3679.46294,140.424364 L3679.46294,157.900394 C3679.46294,160.316198 3681.50581,162.269402 3684.03251,162.269402 L3684.03251,162.269402 C3686.55921,162.269402 3688.60208,160.316198 3688.60208,157.900394 L3688.60208,140.424364 C3688.60208,138.00856 3686.55921,136.055356 3684.03251,136.055356 L3684.03251,136.055356 L3684.03251,136.055356 Z" id="Shape" stroke="#FFFFFF" stroke-width="6" fill="#FFFFFF"></path>
                    <path d="M4011.20808,408.17778 C4013.73478,408.17778 4015.77764,406.224577 4015.77764,403.808772 L4015.77764,386.332742 C4015.77764,383.916938 4013.73478,381.963734 4011.20808,381.963734 L4011.20808,381.963734 C4008.68137,381.963734 4006.63851,383.916938 4006.63851,386.332742 L4006.63851,403.808772 C4006.63851,406.224577 4008.68137,408.17778 4011.20808,408.17778 L4011.20808,408.17778 L4011.20808,408.17778 Z" id="Shape" stroke="#FFFFFF" stroke-width="6" fill="#FFFFFF"></path>
                    <path d="M4904.96939,108.951414 C4907.49609,108.951414 4909.53896,106.99821 4909.53896,104.582406 L4909.53896,87.1063754 C4909.53896,84.6905712 4907.49609,82.7373678 4904.96939,82.7373678 L4904.96939,82.7373678 C4902.44269,82.7373678 4900.39982,84.6905712 4900.39982,87.1063754 L4900.39982,104.582406 C4900.39982,106.99821 4902.44269,108.951414 4904.96939,108.951414 L4904.96939,108.951414 L4904.96939,108.951414 Z" id="Shape" stroke="#FFFFFF" stroke-width="6" fill="#FFFFFF"></path>
                    <path d="M874.626629,342.549673 C878.30064,342.549673 881.239848,344.091283 881.239848,346.018296 C881.239848,347.945309 878.30064,349.486919 874.626629,349.486919 L383.778863,349.486919 C380.104853,349.486919 377.165645,347.945309 377.165645,346.018296 C377.165645,344.091283 380.104853,342.549673 383.778863,342.549673 L874.626629,342.549673 L874.626629,342.549673 Z M874.626629,334.070815 L383.778863,334.070815 C371.140268,334.070815 361,339.389371 361,346.018296 C361,352.64722 371.140268,357.965776 383.778863,357.965776 L874.626629,357.965776 C887.265225,357.965776 897.405493,352.64722 897.405493,346.018296 C897.405493,339.389371 887.118264,334.070815 874.626629,334.070815 L874.626629,334.070815 L874.626629,334.070815 Z" id="Shape" fill="#FFFFFF"></path>
                    <path d="M2317.59604,343.833694 C2320.24184,343.833694 2322.35848,344.861696 2322.35848,346.146698 C2322.35848,347.4317 2320.24184,348.459702 2317.59604,348.459702 L1387.33301,348.459702 C1384.68721,348.459702 1382.57057,347.4317 1382.57057,346.146698 C1382.57057,344.861696 1384.68721,343.833694 1387.33301,343.833694 L2317.59604,343.833694 L2317.59604,343.833694 Z M2317.59604,338.179684 L1387.33301,338.179684 C1378.23146,338.179684 1370.92906,341.72629 1370.92906,346.146698 C1370.92906,350.567106 1378.23146,354.113712 1387.33301,354.113712 L2317.59604,354.113712 C2326.69759,354.113712 2334,350.567106 2334,346.146698 C2334,341.72629 2326.59176,338.179684 2317.59604,338.179684 L2317.59604,338.179684 L2317.59604,338.179684 Z" id="Shape" fill="#FFFFFF"></path>
                    <path d="M3688.25165,146.849375 C3691.11429,146.849375 3693.4044,147.877377 3693.4044,149.162379 C3693.4044,150.447381 3691.11429,151.475383 3688.25165,151.475383 L2681.74835,151.475383 C2678.88571,151.475383 2676.5956,150.447381 2676.5956,149.162379 C2676.5956,147.877377 2678.88571,146.849375 2681.74835,146.849375 L3688.25165,146.849375 L3688.25165,146.849375 Z M3688.25165,141.195365 L2681.74835,141.195365 C2671.90088,141.195365 2664,144.741971 2664,149.162379 C2664,153.582787 2671.90088,157.129393 2681.74835,157.129393 L3688.25165,157.129393 C3698.09912,157.129393 3706,153.582787 3706,149.162379 C3706,144.741971 3697.98462,141.195365 3688.25165,141.195365 L3688.25165,141.195365 L3688.25165,141.195365 Z" id="Shape" fill="#FFFFFF"></path>
                    <path d="M371.532679,330.469671 C369.005977,330.469671 366.963112,332.422874 366.963112,334.838678 L366.963112,352.314709 C366.963112,354.730513 369.005977,356.683716 371.532679,356.683716 L371.532679,356.683716 C374.059381,356.683716 376.102246,354.730513 376.102246,352.314709 L376.102246,334.838678 C376.102246,332.422874 374.059381,330.469671 371.532679,330.469671 L371.532679,330.469671 L371.532679,330.469671 Z" id="Shape" stroke="#FFFFFF" stroke-width="6" fill="#FFFFFF"></path>
                    <path d="M366.425516,382.075361 C366.425516,389.219973 360.673237,395.233784 353.200651,395.233784 L272.668752,395.233784 C265.196166,395.233784 258.906292,389.219973 258.906292,382.075361 L258.906292,305.078026 C258.906292,297.933414 265.196166,292.433604 272.668752,292.433604 L353.200651,292.433604 C360.673237,292.433604 366.425516,297.933414 366.425516,305.078026 L366.425516,382.075361 L366.425516,382.075361 Z" id="Shape" stroke="#FFFFFF" stroke-width="14"></path>
                    <g id="Group" transform="translate(273.636426, 291.559803)" stroke="#FFFFFF" stroke-width="6">
                        <path d="M0.322557673,0.359800627 L0.322557673,103.15998" id="Shape"></path>
                        <path d="M11.6120762,0.359800627 L11.6120762,103.15998" id="Shape"></path>
                        <path d="M22.9015947,0.359800627 L22.9015947,103.15998" id="Shape"></path>
                        <path d="M34.1911133,0.359800627 L34.1911133,103.15998" id="Shape"></path>
                        <path d="M45.4806318,0.359800627 L45.4806318,103.15998" id="Shape"></path>
                        <path d="M56.7701504,0.359800627 L56.7701504,103.15998" id="Shape"></path>
                        <path d="M68.0596689,0.359800627 L68.0596689,103.15998" id="Shape"></path>
                        <path d="M79.3491874,0.359800627 L79.3491874,103.15998" id="Shape"></path>
                    </g>
                    <g id="Group" transform="translate(259.121330, 305.437827)" stroke="#FFFFFF" stroke-width="6">
                        <path d="M107.841782,0.359800627 L0.322557673,0.359800627" id="Shape"></path>
                        <path d="M107.841782,11.1538194 L0.322557673,11.1538194" id="Shape"></path>
                        <path d="M107.841782,21.9478383 L0.322557673,21.9478383" id="Shape"></path>
                        <path d="M107.841782,32.7418571 L0.322557673,32.7418571" id="Shape"></path>
                        <path d="M107.841782,43.5358759 L0.322557673,43.5358759" id="Shape"></path>
                        <path d="M107.841782,54.3298947 L0.322557673,54.3298947" id="Shape"></path>
                        <path d="M107.841782,65.1239135 L0.322557673,65.1239135" id="Shape"></path>
                        <path d="M107.841782,75.9179323 L0.322557673,75.9179323" id="Shape"></path>
                    </g>
                    <path d="M4092.59947,402.210766 L4019.58105,402.210766 C4014.15401,402.210766 4009.7137,398.932979 4009.7137,394.926795 C4009.7137,390.920611 4014.15401,387.642824 4019.58105,387.642824 L4092.59947,387.642824 C4169.17013,387.642824 4330.50136,295.427747 4472.88728,214.065787 C4612.21431,134.451981 4732.59602,89 4792.19484,89 L4900.73572,89 C4906.16277,89 4910.60308,92.2777871 4910.60308,96.2839713 C4910.60308,100.290156 4906.16277,103.567943 4900.73572,103.567943 L4792.19484,103.567943 C4739.30582,103.567943 4610.04349,154.118703 4484.92545,225.574462 C4332.9682,312.47224 4175.87993,402.210766 4092.59947,402.210766 L4092.59947,402.210766 Z" id="Shape" stroke="#FFFFFF" stroke-width="11"></path>
                </g>
            </g>
        </g>
    </g>
</svg>