<?xml version="1.0" encoding="UTF-8" standalone="no"?>
<svg width="5176px" height="330px" viewBox="0 0 5176 330" version="1.1" xmlns="http://www.w3.org/2000/svg" xmlns:xlink="http://www.w3.org/1999/xlink">
    <!-- Generator: Sketch 3.8.3 (29802) - http://www.bohemiancoding.com/sketch -->
    <title>Page-1</title>
    <desc>Created with Sketch.</desc>
    <defs></defs>
    <g id="Page-1" stroke="none" stroke-width="1" fill="none" fill-rule="evenodd">
        <g id="brewing_pipes">
            <g>
                <g id="Pipes">
                    <g id="Page-1">
                        <g id="Pipes">
                            <g id="Group">
                                <g id="Pipes">
                                    <path d="M974.875,243.14 C970.938,243.14 967.736,246.341 967.736,250.278 L967.736,250.588 L895.944,250.588 L895.944,250.278 C895.944,246.341 892.742,243.14 888.806,243.14 C884.974,243.14 881.848,246.176 881.683,249.967 L550.785,249.967 L550.785,246.553 C550.785,242.617 547.583,239.414 543.646,239.414 C543.113,239.414 542.594,239.477 542.095,239.591 L542.095,210.312 C542.095,199.301 533.792,191 522.781,191 L429.818,191 C418.484,191 409.263,199.663 409.263,210.312 L409.263,242.86 C406.387,243.781 404.298,246.479 404.298,249.658 L404.298,249.968 L80.61,249.968 L80.61,249.658 C80.61,245.721 77.409,242.52 73.472,242.52 C69.536,242.52 66.335,245.721 66.335,249.658 L66.335,249.968 L14.277,249.968 L14.277,249.658 C14.277,245.721 11.074,242.52 7.138,242.52 C3.202,242.52 0,245.721 0,249.658 L0,270.762 C0,274.698 3.202,277.9 7.138,277.9 C11.074,277.9 14.277,274.698 14.277,270.762 L14.277,269.21 L66.335,269.21 L66.335,270.762 C66.335,274.698 69.537,277.9 73.472,277.9 C77.409,277.9 80.61,274.698 80.61,270.762 L80.61,269.21 L404.298,269.21 L404.298,270.762 C404.298,273.941 406.387,276.638 409.263,277.56 L409.263,303.28 C409.263,314.228 418.867,323.833 429.818,323.833 L522.781,323.833 C533.431,323.833 542.095,314.613 542.095,303.28 L542.095,274.622 C542.595,274.734 543.113,274.798 543.646,274.798 C547.049,274.798 549.897,272.402 550.61,269.211 L881.667,269.211 L881.667,271.384 C881.667,275.32 884.87,278.521 888.806,278.521 C892.742,278.521 895.944,275.32 895.944,271.384 L895.944,269.832 L967.736,269.832 L967.736,271.384 C967.736,275.32 970.938,278.521 974.875,278.521 C978.811,278.521 982.013,275.32 982.013,271.384 L982.013,250.28 C982.013,246.341 978.811,243.14 974.875,243.14 L974.875,243.14 L974.875,243.14 Z M524.094,300.866 L524.094,291.555 L533.406,291.555 L533.406,300.866 L524.094,300.866 L524.094,300.866 L524.094,300.866 Z M520.37,315.141 L511.06,315.141 L511.06,304.589 L520.37,304.589 L520.37,315.141 L520.37,315.141 L520.37,315.141 Z M432.85,304.589 L442.161,304.589 L442.161,315.141 L432.85,315.141 L432.85,304.589 L432.85,304.589 L432.85,304.589 Z M429.126,213.345 L429.126,222.656 L417.954,222.656 L417.954,213.345 L429.126,213.345 L429.126,213.345 L429.126,213.345 Z M432.85,199.69 L442.161,199.69 L442.161,209.622 L432.85,209.622 L432.85,199.69 L432.85,199.69 L432.85,199.69 Z M520.37,209.622 L511.06,209.622 L511.06,199.69 L520.37,199.69 L520.37,209.622 L520.37,209.622 L520.37,209.622 Z M533.405,235.69 L524.093,235.69 L524.093,226.38 L533.405,226.38 L533.405,235.69 L533.405,235.69 L533.405,235.69 Z M429.126,252.451 L429.126,261.761 L418.574,261.761 L418.574,252.451 L429.126,252.451 L429.126,252.451 L429.126,252.451 Z M507.335,248.727 L498.024,248.727 L498.024,239.414 L507.335,239.414 L507.335,248.727 L507.335,248.727 L507.335,248.727 Z M511.06,239.415 L520.37,239.415 L520.37,248.728 L511.06,248.728 L511.06,239.415 L511.06,239.415 L511.06,239.415 Z M471.955,261.76 L471.955,252.45 L481.265,252.45 L481.265,261.76 L471.955,261.76 L471.955,261.76 L471.955,261.76 Z M481.265,265.486 L481.265,274.797 L471.955,274.797 L471.955,265.486 L481.265,265.486 L481.265,265.486 L481.265,265.486 Z M458.92,252.451 L468.231,252.451 L468.231,261.761 L458.92,261.761 L458.92,252.451 L458.92,252.451 L458.92,252.451 Z M455.196,261.76 L445.884,261.76 L445.884,252.45 L455.196,252.45 L455.196,261.76 L455.196,261.76 L455.196,261.76 Z M471.955,248.727 L471.955,239.414 L481.265,239.414 L481.265,248.727 L471.955,248.727 L471.955,248.727 L471.955,248.727 Z M484.99,252.451 L494.302,252.451 L494.302,261.761 L484.99,261.761 L484.99,252.451 L484.99,252.451 L484.99,252.451 Z M498.024,252.451 L507.335,252.451 L507.335,261.761 L498.024,261.761 L498.024,252.451 L498.024,252.451 L498.024,252.451 Z M494.301,248.727 L484.989,248.727 L484.989,239.414 L494.301,239.414 L494.301,248.727 L494.301,248.727 L494.301,248.727 Z M484.99,235.69 L484.99,226.38 L494.302,226.38 L494.302,235.69 L484.99,235.69 L484.99,235.69 L484.99,235.69 Z M481.265,235.69 L471.955,235.69 L471.955,226.38 L481.265,226.38 L481.265,235.69 L481.265,235.69 L481.265,235.69 Z M468.231,235.69 L458.92,235.69 L458.92,226.38 L468.231,226.38 L468.231,235.69 L468.231,235.69 L468.231,235.69 Z M468.231,239.415 L468.231,248.728 L458.92,248.728 L458.92,239.415 L468.231,239.415 L468.231,239.415 L468.231,239.415 Z M455.196,248.727 L445.884,248.727 L445.884,239.414 L455.196,239.414 L455.196,248.727 L455.196,248.727 L455.196,248.727 Z M442.161,248.727 L432.85,248.727 L432.85,239.414 L442.161,239.414 L442.161,248.727 L442.161,248.727 L442.161,248.727 Z M442.161,252.451 L442.161,261.761 L432.85,261.761 L432.85,252.451 L442.161,252.451 L442.161,252.451 L442.161,252.451 Z M418.574,270.761 L418.574,265.486 L429.126,265.486 L429.126,274.797 L417.954,274.797 L417.954,273.66 C418.35,272.773 418.574,271.793 418.574,270.761 L418.574,270.761 L418.574,270.761 Z M432.85,265.486 L442.161,265.486 L442.161,274.797 L432.85,274.797 L432.85,265.486 L432.85,265.486 L432.85,265.486 Z M445.885,265.486 L455.197,265.486 L455.197,274.797 L445.885,274.797 L445.885,265.486 L445.885,265.486 L445.885,265.486 Z M458.92,265.486 L468.231,265.486 L468.231,274.797 L458.92,274.797 L458.92,265.486 L458.92,265.486 L458.92,265.486 Z M468.231,278.519 L468.231,287.831 L458.92,287.831 L458.92,278.519 L468.231,278.519 L468.231,278.519 L468.231,278.519 Z M471.955,278.519 L481.265,278.519 L481.265,287.831 L471.955,287.831 L471.955,278.519 L471.955,278.519 L471.955,278.519 Z M484.99,278.519 L494.302,278.519 L494.302,287.831 L484.99,287.831 L484.99,278.519 L484.99,278.519 L484.99,278.519 Z M484.99,274.796 L484.99,265.485 L494.302,265.485 L494.302,274.796 L484.99,274.796 L484.99,274.796 L484.99,274.796 Z M498.024,265.486 L507.335,265.486 L507.335,274.797 L498.024,274.797 L498.024,265.486 L498.024,265.486 L498.024,265.486 Z M511.06,265.486 L520.37,265.486 L520.37,274.797 L511.06,274.797 L511.06,265.486 L511.06,265.486 L511.06,265.486 Z M511.06,261.76 L511.06,252.45 L520.37,252.45 L520.37,261.76 L511.06,261.76 L511.06,261.76 L511.06,261.76 Z M524.094,252.451 L533.406,252.451 L533.406,261.761 L524.094,261.761 L524.094,252.451 L524.094,252.451 L524.094,252.451 Z M524.094,248.727 L524.094,239.414 L533.406,239.414 L533.406,248.727 L524.094,248.727 L524.094,248.727 L524.094,248.727 Z M520.37,235.69 L511.06,235.69 L511.06,226.38 L520.37,226.38 L520.37,235.69 L520.37,235.69 L520.37,235.69 Z M507.335,235.69 L498.024,235.69 L498.024,226.38 L507.335,226.38 L507.335,235.69 L507.335,235.69 L507.335,235.69 Z M498.024,222.656 L498.024,213.345 L507.335,213.345 L507.335,222.656 L498.024,222.656 L498.024,222.656 L498.024,222.656 Z M494.301,222.656 L484.989,222.656 L484.989,213.345 L494.301,213.345 L494.301,222.656 L494.301,222.656 L494.301,222.656 Z M481.265,222.656 L471.955,222.656 L471.955,213.345 L481.265,213.345 L481.265,222.656 L481.265,222.656 L481.265,222.656 Z M468.231,222.656 L458.92,222.656 L458.92,213.345 L468.231,213.345 L468.231,222.656 L468.231,222.656 L468.231,222.656 Z M455.196,222.656 L445.884,222.656 L445.884,213.345 L455.196,213.345 L455.196,222.656 L455.196,222.656 L455.196,222.656 Z M455.196,226.38 L455.196,235.69 L445.884,235.69 L445.884,226.38 L455.196,226.38 L455.196,226.38 L455.196,226.38 Z M442.161,235.69 L432.85,235.69 L432.85,226.38 L442.161,226.38 L442.161,235.69 L442.161,235.69 L442.161,235.69 Z M429.126,235.69 L417.954,235.69 L417.954,226.38 L429.126,226.38 L429.126,235.69 L429.126,235.69 L429.126,235.69 Z M429.126,239.415 L429.126,248.728 L418.507,248.728 C418.416,248.036 418.228,247.375 417.954,246.76 L417.954,239.415 L429.126,239.415 L429.126,239.415 L429.126,239.415 Z M417.954,278.519 L429.126,278.519 L429.126,287.831 L417.954,287.831 L417.954,278.519 L417.954,278.519 L417.954,278.519 Z M432.85,278.519 L442.161,278.519 L442.161,287.831 L432.85,287.831 L432.85,278.519 L432.85,278.519 L432.85,278.519 Z M445.885,278.519 L455.197,278.519 L455.197,287.831 L445.885,287.831 L445.885,278.519 L445.885,278.519 L445.885,278.519 Z M455.196,291.555 L455.196,300.866 L445.884,300.866 L445.884,291.555 L455.196,291.555 L455.196,291.555 L455.196,291.555 Z M458.92,291.555 L468.231,291.555 L468.231,300.866 L458.92,300.866 L458.92,291.555 L458.92,291.555 L458.92,291.555 Z M471.955,291.555 L481.265,291.555 L481.265,300.866 L471.955,300.866 L471.955,291.555 L471.955,291.555 L471.955,291.555 Z M484.99,291.555 L494.302,291.555 L494.302,300.866 L484.99,300.866 L484.99,291.555 L484.99,291.555 L484.99,291.555 Z M498.024,291.555 L507.335,291.555 L507.335,300.866 L498.024,300.866 L498.024,291.555 L498.024,291.555 L498.024,291.555 Z M498.024,287.831 L498.024,278.519 L507.335,278.519 L507.335,287.831 L498.024,287.831 L498.024,287.831 L498.024,287.831 Z M511.06,278.519 L520.37,278.519 L520.37,287.831 L511.06,287.831 L511.06,278.519 L511.06,278.519 L511.06,278.519 Z M524.094,278.519 L533.406,278.519 L533.406,287.831 L524.094,287.831 L524.094,278.519 L524.094,278.519 L524.094,278.519 Z M524.094,274.796 L524.094,265.485 L533.406,265.485 L533.406,274.796 L524.094,274.796 L524.094,274.796 L524.094,274.796 Z M533.405,222.656 L524.093,222.656 L524.093,213.345 L533.405,213.345 L533.405,222.656 L533.405,222.656 L533.405,222.656 Z M520.37,222.656 L511.06,222.656 L511.06,213.345 L520.37,213.345 L520.37,222.656 L520.37,222.656 L520.37,222.656 Z M507.335,209.622 L498.024,209.622 L498.024,199.69 L507.335,199.69 L507.335,209.622 L507.335,209.622 L507.335,209.622 Z M494.301,209.622 L484.989,209.622 L484.989,199.69 L494.301,199.69 L494.301,209.622 L494.301,209.622 L494.301,209.622 Z M481.265,209.622 L471.955,209.622 L471.955,199.69 L481.265,199.69 L481.265,209.622 L481.265,209.622 L481.265,209.622 Z M468.231,209.622 L458.92,209.622 L458.92,199.69 L468.231,199.69 L468.231,209.622 L468.231,209.622 L468.231,209.622 Z M455.196,209.622 L445.884,209.622 L445.884,199.69 L455.196,199.69 L455.196,209.622 L455.196,209.622 L455.196,209.622 Z M442.161,213.345 L442.161,222.656 L432.85,222.656 L432.85,213.345 L442.161,213.345 L442.161,213.345 L442.161,213.345 Z M417.954,291.555 L429.126,291.555 L429.126,300.866 L417.954,300.866 L417.954,291.555 L417.954,291.555 L417.954,291.555 Z M432.85,291.555 L442.161,291.555 L442.161,300.866 L432.85,300.866 L432.85,291.555 L432.85,291.555 L432.85,291.555 Z M445.885,304.589 L455.197,304.589 L455.197,315.141 L445.885,315.141 L445.885,304.589 L445.885,304.589 L445.885,304.589 Z M458.92,304.589 L468.231,304.589 L468.231,315.141 L458.92,315.141 L458.92,304.589 L458.92,304.589 L458.92,304.589 Z M471.955,304.589 L481.265,304.589 L481.265,315.141 L471.955,315.141 L471.955,304.589 L471.955,304.589 L471.955,304.589 Z M484.99,304.589 L494.302,304.589 L494.302,315.141 L484.99,315.141 L484.99,304.589 L484.99,304.589 L484.99,304.589 Z M498.024,304.589 L507.335,304.589 L507.335,315.141 L498.024,315.141 L498.024,304.589 L498.024,304.589 L498.024,304.589 Z M511.06,300.866 L511.06,291.555 L520.37,291.555 L520.37,300.866 L511.06,300.866 L511.06,300.866 L511.06,300.866 Z M533.375,209.622 L524.094,209.622 L524.094,199.764 C529.413,200.31 533.086,204.18 533.375,209.622 L533.375,209.622 L533.375,209.622 Z M429.126,199.721 L429.126,209.621 L417.993,209.621 C418.378,204.292 423.163,200.033 429.126,199.721 L429.126,199.721 L429.126,199.721 Z M14.277,262.38 L14.277,256.794 L66.335,256.794 L66.335,262.38 L14.277,262.38 L14.277,262.38 L14.277,262.38 Z M80.61,262.38 L80.61,256.794 L404.298,256.794 L404.298,262.38 L80.61,262.38 L80.61,262.38 L80.61,262.38 Z M418.044,304.589 L429.126,304.589 L429.126,315.103 C423.633,314.732 418.737,310.033 418.044,304.589 L418.044,304.589 L418.044,304.589 Z M524.094,315.042 L524.094,304.589 L533.336,304.589 C532.798,310.033 528.949,314.369 524.094,315.042 L524.094,315.042 L524.094,315.042 Z M550.785,262.38 L550.785,256.794 L881.667,256.794 L881.667,262.38 L550.785,262.38 L550.785,262.38 L550.785,262.38 Z M895.944,263.003 L895.944,257.416 L967.736,257.416 L967.736,263.003 L895.944,263.003 L895.944,263.003 L895.944,263.003 Z" id="Shape" fill="#FFFFFF"></path>
                                    <path d="M2328.04,245 C2325.09,245 2322.71,247.39 2322.71,250.34 L2322.71,250.91 C2322,250.74 2321.27,250.65 2320.51,250.65 L1385.48,250.65 C1385.32,247.85 1383.01,245.63 1380.17,245.63 C1377.22,245.63 1374.83,248.02 1374.83,250.96 L1374.83,251.28 L1343.73,251.28 L1343.73,250.96 C1343.73,248.02 1341.34,245.63 1338.39,245.63 C1335.45,245.63 1333.06,248.02 1333.06,250.96 L1333.06,259.59 C1333,260.05 1332.95,260.52 1332.95,261 C1332.95,261.49 1333,261.96 1333.06,262.42 L1333.06,272.3 C1333.06,275.25 1335.45,277.64 1338.39,277.64 C1341.34,277.64 1343.73,275.25 1343.73,272.3 L1343.73,270.73 L1374.83,270.73 L1374.83,272.3 C1374.83,275.25 1377.22,277.64 1380.17,277.64 C1383.11,277.64 1385.5,275.25 1385.5,272.3 L1385.5,270.1 L2320.51,270.1 C2321.27,270.1 2322,270.01 2322.71,269.85 L2322.71,271.67 C2322.71,274.62 2325.09,277.01 2328.04,277.01 C2330.99,277.01 2333.38,274.62 2333.38,271.67 L2333.38,250.33 C2333.38,247.39 2330.99,245 2328.04,245 L2328.04,245 L2328.04,245 L2328.04,245 Z M1343.73,263.83 L1343.73,258.18 L1374.83,258.18 L1374.83,263.83 L1343.73,263.83 L1343.73,263.83 L1343.73,263.83 L1343.73,263.83 Z M2320.51,263.2 L1385.5,263.2 L1385.5,257.55 L2320.2,257.55 L2320.35,257.55 C2321.3,257.55 2322.17,258.03 2322.71,258.75 L2322.71,262.07 C2322.21,262.75 2321.43,263.2 2320.51,263.2 L2320.51,263.2 L2320.51,263.2 L2320.51,263.2 Z" id="Shape" fill="#FFFFFF"></path>
                                    <path d="M3703.16,49.17 C3700.21,49.17 3697.82,51.56 3697.82,54.51 L3697.82,54.84 C3697.71,54.84 3697.61,54.83 3697.5,54.83 L2681.02,54.83 C2680.03,54.83 2679.08,54.98 2678.19,55.25 L2678.19,54.51 C2678.19,51.56 2675.79,49.17 2672.85,49.17 C2669.9,49.17 2667.5,51.56 2667.5,54.51 L2667.5,75.88 C2667.5,78.83 2669.9,81.22 2672.85,81.22 C2675.79,81.22 2678.19,78.83 2678.19,75.88 L2678.19,73.89 C2679.08,74.16 2680.03,74.31 2681.02,74.31 L3697.5,74.31 C3697.61,74.31 3697.71,74.3 3697.82,74.29 L3697.82,75.88 C3697.82,78.83 3700.21,81.22 3703.16,81.22 C3706.11,81.22 3708.5,78.83 3708.5,75.88 L3708.5,54.51 C3708.5,51.56 3706.11,49.17 3703.16,49.17 L3703.16,49.17 L3703.16,49.17 L3703.16,49.17 Z M3697.82,67.36 C3697.71,67.38 3697.61,67.4 3697.5,67.4 L2681.02,67.4 C2679.46,67.4 2678.19,66.13 2678.19,64.57 C2678.19,63.01 2679.46,61.74 2681.02,61.74 L3697.19,61.74 L3697.35,61.74 C3697.51,61.74 3697.66,61.76 3697.82,61.79 L3697.82,67.36 L3697.82,67.36 L3697.82,67.36 L3697.82,67.36 Z" id="Shape" fill="#FFFFFF"></path>
                                    <path d="M5173.22004,71.830007 L5156.36004,71.830007 C5156.36004,58.910007 5152.32004,49.940007 5144.31004,42.950007 C5130.92004,31.240007 5110.02004,30.020007 5110.02004,30.020007 L4913.00004,30.020007 L4913.00004,14.820007 L5109.68004,14.820007 C5109.68004,14.820007 5137.99004,16.340007 5156.11004,32.230007 C5167.49004,42.190007 5173.22004,54.350007 5173.22004,71.830007 L5173.22004,71.830007 L5173.22004,71.830007 Z" id="Shape" stroke="#FFFFFF" stroke-width="6" fill="#FFFFFF" transform="translate(5043.110043, 43.325007) rotate(1.000000) translate(-5043.110043, -43.325007) "></path>
                                    <path d="M4017.66,297.21 C4014.08,297.21 4011.17,300.12 4011.17,303.7 L4011.17,322.88 C4011.17,326.46 4014.08,329.37 4017.66,329.37 C4021.23,329.37 4024.15,326.46 4024.15,322.88 L4024.15,303.7 C4024.15,300.12 4021.23,297.21 4017.66,297.21 L4017.66,297.21 L4017.66,297.21 L4017.66,297.21 Z" id="Shape" fill="#FFFFFF"></path>
                                    <path d="M4906.86,0.97 C4903.29,0.97 4900.37,3.88 4900.37,7.46 L4900.37,26.65 C4900.37,30.23 4903.29,33.14 4906.86,33.14 C4910.44,33.14 4913.35,30.23 4913.35,26.65 L4913.35,7.46 C4913.35,3.88 4910.44,0.97 4906.86,0.97 L4906.86,0.97 L4906.86,0.97 L4906.86,0.97 Z" id="Shape" fill="#FFFFFF"></path>
                                    <path d="M4048.29,320.09 C4030.52,320.09 4020.09,319.51 4019.82,319.49 L4020.52,307.51 C4021.26,307.56 4096.13,311.7 4189.29,297.2 C4274.87,283.88 4393.89,251.66 4474.83,173.77 C4549.53,101.88 4624.16,55.68 4702.98,32.53 C4771.21,12.48 4831.42,12.78 4884.55,13.04 C4890.45,13.07 4896.25,13.1 4901.97,13.1 L4901.97,25.1 C4896.23,25.1 4890.41,25.07 4884.49,25.04 C4779.07,24.53 4647.91,23.88 4483.15,182.42 C4446.31,217.86 4398.97,247.12 4342.42,269.38 C4297.36,287.11 4246.37,300.48 4190.87,309.1 C4131.19,318.37 4078.87,320.09 4048.29,320.09 L4048.29,320.09 L4048.29,320.09 L4048.29,320.09 Z" id="Shape" stroke="#FFFFFF" stroke-width="7"></path>
                                </g>
                            </g>
                        </g>
                    </g>
                </g>
            </g>
        </g>
    </g>
</svg>