<svg xmlns="http://www.w3.org/2000/svg" width="5265" height="223" viewBox="0 0 5265 223" version="1.1"><g stroke="none" stroke-width="1" fill="none" fill-rule="evenodd"><path d="M1128.4 177.7C1123.9 177.7 1120.2 179.3 1120.2 181.3L1120.2 181.5 1037.1 181.5 1037.1 181.3C1037.1 179.3 1033.4 177.7 1028.9 177.7 1024.4 177.7 1020.8 179.2 1020.6 181.2L504.7 181.2 504.7 179.4C504.7 177.4 501 175.8 496.5 175.8 495.8 175.8 495.2 175.8 494.7 175.9L494.7 160.9C494.7 155.2 485.1 151 472.3 151L364.8 151C351.7 151 341 155.4 341 160.9L341 177.5C337.7 178 335.3 179.4 335.3 181L335.3 181.2 93.9 181.2 93.9 181C93.9 179 90.2 177.4 85.7 177.4 81.1 177.4 77.4 179 77.4 181L77.4 181.2 17.2 181.2 17.2 181C17.2 179 13.5 177.4 8.9 177.4 4.4 177.4 0.7 179 0.7 181L0.7 191.8C0.7 193.8 4.4 195.5 8.9 195.5 13.5 195.5 17.2 193.8 17.2 191.8L17.2 191 77.4 191 77.4 191.8C77.4 193.8 81.1 195.5 85.7 195.5 90.2 195.5 93.9 193.8 93.9 191.8L93.9 191 335.3 191 335.3 191.8C335.3 193.4 337.7 194.8 341 195.3L341 208.5C341 214.1 352.1 219 364.8 219L472.3 219C484.6 219 494.7 214.3 494.7 208.5L494.7 193.8C495.2 193.9 495.8 193.9 496.5 193.9 500.4 193.9 503.7 192.7 504.5 191L1020.6 191 1020.6 192.1C1020.6 194.2 1024.3 195.8 1028.9 195.8 1033.4 195.8 1037.1 194.2 1037.1 192.1L1037.1 191.3 1120.2 191.3 1120.2 192.1C1120.2 194.2 1123.9 195.8 1128.4 195.8 1133 195.8 1136.7 194.2 1136.7 192.1L1136.7 181.3C1136.7 179.3 1133 177.7 1128.4 177.7L1128.4 177.7 1128.4 177.7 1128.4 177.7 1128.4 177.7ZM473.8 207.2L473.8 202.5 484.6 202.5 484.6 207.2 473.8 207.2 473.8 207.2 473.8 207.2 473.8 207.2 473.8 207.2ZM469.5 214.5L458.8 214.5 458.8 209.1 469.5 209.1 469.5 214.5 469.5 214.5 469.5 214.5 469.5 214.5 469.5 214.5ZM368.3 209.1L379.1 209.1 379.1 214.5 368.3 214.5 368.3 209.1 368.3 209.1 368.3 209.1 368.3 209.1 368.3 209.1ZM364 162.4L364 167.2 351.1 167.2 351.1 162.4 364 162.4 364 162.4 364 162.4 364 162.4 364 162.4ZM368.3 155.4L379.1 155.4 379.1 160.5 368.3 160.5 368.3 155.4 368.3 155.4 368.3 155.4 368.3 155.4 368.3 155.4ZM469.5 160.5L458.8 160.5 458.8 155.4 469.5 155.4 469.5 160.5 469.5 160.5 469.5 160.5 469.5 160.5 469.5 160.5ZM484.6 173.9L473.8 173.9 473.8 169.1 484.6 169.1 484.6 173.9 484.6 173.9 484.6 173.9 484.6 173.9 484.6 173.9ZM364 182.4L364 187.2 351.8 187.2 351.8 182.4 364 182.4 364 182.4 364 182.4 364 182.4 364 182.4ZM454.5 180.5L443.7 180.5 443.7 175.8 454.5 175.8 454.5 180.5 454.5 180.5 454.5 180.5 454.5 180.5 454.5 180.5ZM458.8 175.8L469.5 175.8 469.5 180.5 458.8 180.5 458.8 175.8 458.8 175.8 458.8 175.8 458.8 175.8 458.8 175.8ZM413.5 187.2L413.5 182.4 424.3 182.4 424.3 187.2 413.5 187.2 413.5 187.2 413.5 187.2 413.5 187.2 413.5 187.2ZM424.3 189.1L424.3 193.9 413.5 193.9 413.5 189.1 424.3 189.1 424.3 189.1 424.3 189.1 424.3 189.1 424.3 189.1ZM398.5 182.4L409.2 182.4 409.2 187.2 398.5 187.2 398.5 182.4 398.5 182.4 398.5 182.4 398.5 182.4 398.5 182.4ZM394.1 187.2L383.4 187.2 383.4 182.4 394.1 182.4 394.1 187.2 394.1 187.2 394.1 187.2 394.1 187.2 394.1 187.2ZM413.5 180.5L413.5 175.8 424.3 175.8 424.3 180.5 413.5 180.5 413.5 180.5 413.5 180.5 413.5 180.5 413.5 180.5ZM428.6 182.4L439.4 182.4 439.4 187.2 428.6 187.2 428.6 182.4 428.6 182.4 428.6 182.4 428.6 182.4 428.6 182.4ZM443.7 182.4L454.5 182.4 454.5 187.2 443.7 187.2 443.7 182.4 443.7 182.4 443.7 182.4 443.7 182.4 443.7 182.4ZM439.4 180.5L428.6 180.5 428.6 175.8 439.4 175.8 439.4 180.5 439.4 180.5 439.4 180.5 439.4 180.5 439.4 180.5ZM428.6 173.9L428.6 169.1 439.4 169.1 439.4 173.9 428.6 173.9 428.6 173.9 428.6 173.9 428.6 173.9 428.6 173.9ZM424.3 173.9L413.5 173.9 413.5 169.1 424.3 169.1 424.3 173.9 424.3 173.9 424.3 173.9 424.3 173.9 424.3 173.9ZM409.2 173.9L398.5 173.9 398.5 169.1 409.2 169.1 409.2 173.9 409.2 173.9 409.2 173.9 409.2 173.9 409.2 173.9ZM409.2 175.8L409.2 180.5 398.5 180.5 398.5 175.8 409.2 175.8 409.2 175.8 409.2 175.8 409.2 175.8 409.2 175.8ZM394.1 180.5L383.4 180.5 383.4 175.8 394.1 175.8 394.1 180.5 394.1 180.5 394.1 180.5 394.1 180.5 394.1 180.5ZM379.1 180.5L368.3 180.5 368.3 175.8 379.1 175.8 379.1 180.5 379.1 180.5 379.1 180.5 379.1 180.5 379.1 180.5ZM379.1 182.4L379.1 187.2 368.3 187.2 368.3 182.4 379.1 182.4 379.1 182.4 379.1 182.4 379.1 182.4 379.1 182.4ZM351.8 191.8L351.8 189.1 364 189.1 364 193.9 351.1 193.9 351.1 193.3C351.5 192.8 351.8 192.3 351.8 191.8L351.8 191.8 351.8 191.8 351.8 191.8 351.8 191.8ZM368.3 189.1L379.1 189.1 379.1 193.9 368.3 193.9 368.3 189.1 368.3 189.1 368.3 189.1 368.3 189.1 368.3 189.1ZM383.4 189.1L394.1 189.1 394.1 193.9 383.4 193.9 383.4 189.1 383.4 189.1 383.4 189.1 383.4 189.1 383.4 189.1ZM398.5 189.1L409.2 189.1 409.2 193.9 398.5 193.9 398.5 189.1 398.5 189.1 398.5 189.1 398.5 189.1 398.5 189.1ZM409.2 195.8L409.2 200.6 398.5 200.6 398.5 195.8 409.2 195.8 409.2 195.8 409.2 195.8 409.2 195.8 409.2 195.8ZM413.5 195.8L424.3 195.8 424.3 200.6 413.5 200.6 413.5 195.8 413.5 195.8 413.5 195.8 413.5 195.8 413.5 195.8ZM428.6 195.8L439.4 195.8 439.4 200.6 428.6 200.6 428.6 195.8 428.6 195.8 428.6 195.8 428.6 195.8 428.6 195.8ZM428.6 193.9L428.6 189.1 439.4 189.1 439.4 193.9 428.6 193.9 428.6 193.9 428.6 193.9 428.6 193.9 428.6 193.9ZM443.7 189.1L454.5 189.1 454.5 193.9 443.7 193.9 443.7 189.1 443.7 189.1 443.7 189.1 443.7 189.1 443.7 189.1ZM458.8 189.1L469.5 189.1 469.5 193.9 458.8 193.9 458.8 189.1 458.8 189.1 458.8 189.1 458.8 189.1 458.8 189.1ZM458.8 187.2L458.8 182.4 469.5 182.4 469.5 187.2 458.8 187.2 458.8 187.2 458.8 187.2 458.8 187.2 458.8 187.2ZM473.8 182.4L484.6 182.4 484.6 187.2 473.8 187.2 473.8 182.4 473.8 182.4 473.8 182.4 473.8 182.4 473.8 182.4ZM473.8 180.5L473.8 175.8 484.6 175.8 484.6 180.5 473.8 180.5 473.8 180.5 473.8 180.5 473.8 180.5 473.8 180.5ZM469.5 173.9L458.8 173.9 458.8 169.1 469.5 169.1 469.5 173.9 469.5 173.9 469.5 173.9 469.5 173.9 469.5 173.9ZM454.5 173.9L443.7 173.9 443.7 169.1 454.5 169.1 454.5 173.9 454.5 173.9 454.5 173.9 454.5 173.9 454.5 173.9ZM443.7 167.2L443.7 162.4 454.5 162.4 454.5 167.2 443.7 167.2 443.7 167.2 443.7 167.2 443.7 167.2 443.7 167.2ZM439.4 167.2L428.6 167.2 428.6 162.4 439.4 162.4 439.4 167.2 439.4 167.2 439.4 167.2 439.4 167.2 439.4 167.2ZM424.3 167.2L413.5 167.2 413.5 162.4 424.3 162.4 424.3 167.2 424.3 167.2 424.3 167.2 424.3 167.2 424.3 167.2ZM409.2 167.2L398.5 167.2 398.5 162.4 409.2 162.4 409.2 167.2 409.2 167.2 409.2 167.2 409.2 167.2 409.2 167.2ZM394.1 167.2L383.4 167.2 383.4 162.4 394.1 162.4 394.1 167.2 394.1 167.2 394.1 167.2 394.1 167.2 394.1 167.2ZM394.1 169.1L394.1 173.9 383.4 173.9 383.4 169.1 394.1 169.1 394.1 169.1 394.1 169.1 394.1 169.1 394.1 169.1ZM379.1 173.9L368.3 173.9 368.3 169.1 379.1 169.1 379.1 173.9 379.1 173.9 379.1 173.9 379.1 173.9 379.1 173.9ZM364 173.9L351.1 173.9 351.1 169.1 364 169.1 364 173.9 364 173.9 364 173.9 364 173.9 364 173.9ZM364 175.8L364 180.5 351.7 180.5C351.6 180.2 351.4 179.9 351.1 179.5L351.1 175.8 364 175.8 364 175.8 364 175.8 364 175.8 364 175.8ZM351.1 195.8L364 195.8 364 200.6 351.1 200.6 351.1 195.8 351.1 195.8 351.1 195.8 351.1 195.8 351.1 195.8ZM368.3 195.8L379.1 195.8 379.1 200.6 368.3 200.6 368.3 195.8 368.3 195.8 368.3 195.8 368.3 195.8 368.3 195.8ZM383.4 195.8L394.1 195.8 394.1 200.6 383.4 200.6 383.4 195.8 383.4 195.8 383.4 195.8 383.4 195.8 383.4 195.8ZM394.1 202.5L394.1 207.2 383.4 207.2 383.4 202.5 394.1 202.5 394.1 202.5 394.1 202.5 394.1 202.5 394.1 202.5ZM398.5 202.5L409.2 202.5 409.2 207.2 398.5 207.2 398.5 202.5 398.5 202.5 398.5 202.5 398.5 202.5 398.5 202.5ZM413.5 202.5L424.3 202.5 424.3 207.2 413.5 207.2 413.5 202.5 413.5 202.5 413.5 202.5 413.5 202.5 413.5 202.5ZM428.6 202.5L439.4 202.5 439.4 207.2 428.6 207.2 428.6 202.5 428.6 202.5 428.6 202.5 428.6 202.5 428.6 202.5ZM443.7 202.5L454.5 202.5 454.5 207.2 443.7 207.2 443.7 202.5 443.7 202.5 443.7 202.5 443.7 202.5 443.7 202.5ZM443.7 200.6L443.7 195.8 454.5 195.8 454.5 200.6 443.7 200.6 443.7 200.6 443.7 200.6 443.7 200.6 443.7 200.6ZM458.8 195.8L469.5 195.8 469.5 200.6 458.8 200.6 458.8 195.8 458.8 195.8 458.8 195.8 458.8 195.8 458.8 195.8ZM473.8 195.8L484.6 195.8 484.6 200.6 473.8 200.6 473.8 195.8 473.8 195.8 473.8 195.8 473.8 195.8 473.8 195.8ZM473.8 193.9L473.8 189.1 484.6 189.1 484.6 193.9 473.8 193.9 473.8 193.9 473.8 193.9 473.8 193.9 473.8 193.9ZM484.6 167.2L473.8 167.2 473.8 162.4 484.6 162.4 484.6 167.2 484.6 167.2 484.6 167.2 484.6 167.2 484.6 167.2ZM469.5 167.2L458.8 167.2 458.8 162.4 469.5 162.4 469.5 167.2 469.5 167.2 469.5 167.2 469.5 167.2 469.5 167.2ZM454.5 160.5L443.7 160.5 443.7 155.4 454.5 155.4 454.5 160.5 454.5 160.5 454.5 160.5 454.5 160.5 454.5 160.5ZM439.4 160.5L428.6 160.5 428.6 155.4 439.4 155.4 439.4 160.5 439.4 160.5 439.4 160.5 439.4 160.5 439.4 160.5ZM424.3 160.5L413.5 160.5 413.5 155.4 424.3 155.4 424.3 160.5 424.3 160.5 424.3 160.5 424.3 160.5 424.3 160.5ZM409.2 160.5L398.5 160.5 398.5 155.4 409.2 155.4 409.2 160.5 409.2 160.5 409.2 160.5 409.2 160.5 409.2 160.5ZM394.1 160.5L383.4 160.5 383.4 155.4 394.1 155.4 394.1 160.5 394.1 160.5 394.1 160.5 394.1 160.5 394.1 160.5ZM379.1 162.4L379.1 167.2 368.3 167.2 368.3 162.4 379.1 162.4 379.1 162.4 379.1 162.4 379.1 162.4 379.1 162.4ZM351.1 202.5L364 202.5 364 207.2 351.1 207.2 351.1 202.5 351.1 202.5 351.1 202.5 351.1 202.5 351.1 202.5ZM368.3 202.5L379.1 202.5 379.1 207.2 368.3 207.2 368.3 202.5 368.3 202.5 368.3 202.5 368.3 202.5 368.3 202.5ZM383.4 209.1L394.1 209.1 394.1 214.5 383.4 214.5 383.4 209.1 383.4 209.1 383.4 209.1 383.4 209.1 383.4 209.1ZM398.5 209.1L409.2 209.1 409.2 214.5 398.5 214.5 398.5 209.1 398.5 209.1 398.5 209.1 398.5 209.1 398.5 209.1ZM413.5 209.1L424.3 209.1 424.3 214.5 413.5 214.5 413.5 209.1 413.5 209.1 413.5 209.1 413.5 209.1 413.5 209.1ZM428.6 209.1L439.4 209.1 439.4 214.5 428.6 214.5 428.6 209.1 428.6 209.1 428.6 209.1 428.6 209.1 428.6 209.1ZM443.7 209.1L454.5 209.1 454.5 214.5 443.7 214.5 443.7 209.1 443.7 209.1 443.7 209.1 443.7 209.1 443.7 209.1ZM458.8 207.2L458.8 202.5 469.5 202.5 469.5 207.2 458.8 207.2 458.8 207.2 458.8 207.2 458.8 207.2 458.8 207.2ZM484.6 160.5L473.8 160.5 473.8 155.5C480 155.8 484.2 157.7 484.6 160.5L484.6 160.5 484.6 160.5 484.6 160.5 484.6 160.5ZM364 155.5L364 160.5 351.1 160.5C351.6 157.8 357.1 155.6 364 155.5L364 155.5 364 155.5 364 155.5 364 155.5ZM17.2 187.5L17.2 184.7 77.4 184.7 77.4 187.5 17.2 187.5 17.2 187.5 17.2 187.5 17.2 187.5 17.2 187.5ZM93.9 187.5L93.9 184.7 335.3 184.7 335.3 187.5 93.9 187.5 93.9 187.5 93.9 187.5 93.9 187.5 93.9 187.5ZM351.2 209.1L364 209.1 364 214.5C357.6 214.3 352 211.9 351.2 209.1L351.2 209.1 351.2 209.1 351.2 209.1 351.2 209.1ZM473.8 214.5L473.8 209.1 484.5 209.1C483.9 211.9 479.5 214.1 473.8 214.5L473.8 214.5 473.8 214.5 473.8 214.5 473.8 214.5ZM504.7 187.5L504.7 184.7 1020.6 184.7 1020.6 187.5 504.7 187.5 504.7 187.5 504.7 187.5 504.7 187.5 504.7 187.5ZM1037.1 187.8L1037.1 185 1120.2 185 1120.2 187.8 1037.1 187.8 1037.1 187.8 1037.1 187.8 1037.1 187.8 1037.1 187.8ZM2473.9 179C2470.6 179 2467.9 180.1 2467.9 181.4L2467.9 181.7C2467 181.6 2466.2 181.6 2465.4 181.6L1400.8 181.6C1400.6 180.3 1398 179.3 1394.8 179.3 1391.4 179.3 1388.7 180.4 1388.7 181.7L1388.7 181.9 1353.3 181.9 1353.3 181.7C1353.3 180.4 1350.5 179.3 1347.2 179.3 1343.8 179.3 1341.1 180.4 1341.1 181.7L1341.1 185.7C1341 185.9 1341 186.1 1341 186.3 1341 186.6 1341 186.8 1341.1 187L1341.1 191.5C1341.1 192.9 1343.8 194 1347.2 194 1350.5 194 1353.3 192.9 1353.3 191.5L1353.3 190.8 1388.7 190.8 1388.7 191.5C1388.7 192.9 1391.4 194 1394.8 194 1398.1 194 1400.8 192.9 1400.8 191.5L1400.8 190.5 2465.4 190.5C2466.2 190.5 2467 190.5 2467.9 190.4L2467.9 191.2C2467.9 192.6 2470.6 193.7 2473.9 193.7 2477.3 193.7 2480 192.6 2480 191.2L2480 181.4C2480 180.1 2477.3 179 2473.9 179L2473.9 179 2473.9 179 2473.9 179 2473.9 179ZM1353.3 187.6L1353.3 185 1388.7 185 1388.7 187.6 1353.3 187.6 1353.3 187.6 1353.3 187.6 1353.3 187.6 1353.3 187.6ZM2465.4 187.3L1400.8 187.3 1400.8 184.8 2465 184.8 2465.2 184.8C2466.3 184.8 2467.2 185 2467.9 185.3L2467.9 186.8C2467.3 187.1 2466.4 187.3 2465.4 187.3L2465.4 187.3 2465.4 187.3 2465.4 187.3 2465.4 187.3ZM3832 59.7C3828.7 59.7 3826.1 60.8 3826.1 62.1L3826.1 62.3C3826 62.3 3825.8 62.3 3825.7 62.3L2691.1 62.3C2690 62.3 2688.9 62.4 2687.9 62.5L2687.9 62.1C2687.9 60.8 2685.3 59.7 2682 59.7 2678.7 59.7 2676 60.8 2676 62.1L2676 72.1C2676 73.4 2678.7 74.5 2682 74.5 2685.3 74.5 2687.9 73.4 2687.9 72.1L2687.9 71.1C2688.9 71.3 2690 71.3 2691.1 71.3L3825.7 71.3C3825.8 71.3 3826 71.3 3826.1 71.3L3826.1 72.1C3826.1 73.4 3828.7 74.5 3832 74.5 3835.3 74.5 3838 73.4 3838 72.1L3838 62.1C3838 60.8 3835.3 59.7 3832 59.7L3832 59.7 3832 59.7 3832 59.7 3832 59.7ZM3826.1 68.1C3826 68.1 3825.8 68.1 3825.7 68.1L2691.1 68.1C2689.3 68.1 2687.9 67.5 2687.9 66.8 2687.9 66.1 2689.3 65.5 2691.1 65.5L3825.4 65.5 3825.5 65.5C3825.7 65.5 3825.9 65.5 3826.1 65.5L3826.1 68.1 3826.1 68.1 3826.1 68.1 3826.1 68.1 3826.1 68.1ZM5262.3 53.5L5247.7 53.5C5247.7 43.9 5244.2 37.2 5237.2 32 5225.6 23.3 5207.5 22.4 5207.5 22.4L5036.4 22.4 5036.4 11 5207.2 11C5207.2 11 5231.7 12.2 5247.5 24 5257.3 31.4 5262.3 40.5 5262.3 53.5L5262.3 53.5 5262.3 53.5 5262.3 53.5ZM5031.1 0.7C5028 0.7 5025.4 2.9 5025.4 5.6L5025.4 19.9C5025.4 22.5 5028 24.7 5031.1 24.7 5034.2 24.7 5036.7 22.5 5036.7 19.9L5036.7 5.6C5036.7 2.9 5034.2 0.7 5031.1 0.7L5031.1 0.7 5031.1 0.7 5031.1 0.7 5031.1 0.7ZM4066 220.6C4046 220.6 4034.3 220.2 4034 220.2L4034.8 212C4035.6 212 4119.9 214.8 4224.7 204.9 4321.1 195.7 4455 173.6 4546.1 120.1 4630.2 70.7 4714.2 39 4802.9 23.1 4879.7 9.3 4947.4 9.5 5007.2 9.7 5013.9 9.7 5020.4 9.8 5026.8 9.8L5026.8 18C5020.4 18 5013.8 18 5007.2 18 4888.5 17.6 4740.9 17.2 4555.5 126.1 4514 150.4 4460.7 170.5 4397.1 185.8 4346.4 198 4289 207.1 4226.5 213.1 4159.3 219.4 4100.5 220.6 4066 220.6L4066 220.6 4066 220.6 4066 220.6 4066 220.6Z" fill="#FFFFFF"/></g></svg>