<?xml version="1.0" encoding="UTF-8" standalone="no"?>
<svg width="5176px" height="330px" viewBox="0 0 5176 330" version="1.1" xmlns="http://www.w3.org/2000/svg" xmlns:xlink="http://www.w3.org/1999/xlink">
    <g id="Page-1" stroke="none" stroke-width="1" fill="none" fill-rule="evenodd">
        <g id="brewing_pipes">
            <g id="Pipes">
                <g id="Page-1">
                    <g id="Pipes">
                        <g id="Group">
                            <g id="Pipes">
                                <path d="M975.765,243.911 C971.828,243.911 968.626,247.112 968.626,251.049 L968.626,251.359 L896.834,251.359 L896.834,251.049 C896.834,247.112 893.632,243.911 889.696,243.911 C885.864,243.911 882.738,246.947 882.573,250.738 L436.599,250.738 L436.599,247.324 C436.599,243.388 433.397,240.185 429.46,240.185 C428.927,240.185 428.408,240.248 427.909,240.362 L427.909,211.083 C427.909,200.072 419.606,191.771 408.595,191.771 L315.632,191.771 C304.298,191.771 295.077,200.434 295.077,211.083 L295.077,243.631 C292.201,244.552 290.112,247.25 290.112,250.429 L290.112,250.739 L81.5,250.739 L81.5,250.429 C81.5,246.492 78.299,243.291 74.362,243.291 C70.426,243.291 67.225,246.492 67.225,250.429 L67.225,250.739 L15.167,250.739 L15.167,250.429 C15.167,246.492 11.964,243.291 8.028,243.291 C4.092,243.291 0.89,246.492 0.89,250.429 L0.89,271.533 C0.89,275.469 4.092,278.671 8.028,278.671 C11.964,278.671 15.167,275.469 15.167,271.533 L15.167,269.981 L67.225,269.981 L67.225,271.533 C67.225,275.469 70.427,278.671 74.362,278.671 C78.299,278.671 81.5,275.469 81.5,271.533 L81.5,269.981 L290.112,269.981 L290.112,271.533 C290.112,274.712 292.201,277.409 295.077,278.331 L295.077,304.051 C295.077,314.999 304.681,324.604 315.632,324.604 L408.595,324.604 C419.245,324.604 427.909,315.384 427.909,304.051 L427.909,275.393 C428.409,275.505 428.927,275.569 429.46,275.569 C432.863,275.569 435.711,273.173 436.424,269.982 L882.557,269.982 L882.557,272.155 C882.557,276.091 885.76,279.292 889.696,279.292 C893.632,279.292 896.834,276.091 896.834,272.155 L896.834,270.603 L968.626,270.603 L968.626,272.155 C968.626,276.091 971.828,279.292 975.765,279.292 C979.701,279.292 982.903,276.091 982.903,272.155 L982.903,251.051 C982.903,247.112 979.701,243.911 975.765,243.911 L975.765,243.911 L975.765,243.911 Z M409.908,301.637 L409.908,292.326 L419.22,292.326 L419.22,301.637 L409.908,301.637 L409.908,301.637 L409.908,301.637 Z M406.184,315.912 L396.874,315.912 L396.874,305.36 L406.184,305.36 L406.184,315.912 L406.184,315.912 L406.184,315.912 Z M318.664,305.36 L327.975,305.36 L327.975,315.912 L318.664,315.912 L318.664,305.36 L318.664,305.36 L318.664,305.36 Z M314.94,214.116 L314.94,223.427 L303.768,223.427 L303.768,214.116 L314.94,214.116 L314.94,214.116 L314.94,214.116 Z M318.664,200.461 L327.975,200.461 L327.975,210.393 L318.664,210.393 L318.664,200.461 L318.664,200.461 L318.664,200.461 Z M406.184,210.393 L396.874,210.393 L396.874,200.461 L406.184,200.461 L406.184,210.393 L406.184,210.393 L406.184,210.393 Z M419.219,236.461 L409.907,236.461 L409.907,227.151 L419.219,227.151 L419.219,236.461 L419.219,236.461 L419.219,236.461 Z M314.94,253.222 L314.94,262.532 L304.388,262.532 L304.388,253.222 L314.94,253.222 L314.94,253.222 L314.94,253.222 Z M393.149,249.498 L383.838,249.498 L383.838,240.185 L393.149,240.185 L393.149,249.498 L393.149,249.498 L393.149,249.498 Z M396.874,240.186 L406.184,240.186 L406.184,249.499 L396.874,249.499 L396.874,240.186 L396.874,240.186 L396.874,240.186 Z M357.769,262.531 L357.769,253.221 L367.079,253.221 L367.079,262.531 L357.769,262.531 L357.769,262.531 L357.769,262.531 Z M367.079,266.257 L367.079,275.568 L357.769,275.568 L357.769,266.257 L367.079,266.257 L367.079,266.257 L367.079,266.257 Z M344.734,253.222 L354.045,253.222 L354.045,262.532 L344.734,262.532 L344.734,253.222 L344.734,253.222 L344.734,253.222 Z M341.01,262.531 L331.698,262.531 L331.698,253.221 L341.01,253.221 L341.01,262.531 L341.01,262.531 L341.01,262.531 Z M357.769,249.498 L357.769,240.185 L367.079,240.185 L367.079,249.498 L357.769,249.498 L357.769,249.498 L357.769,249.498 Z M370.804,253.222 L380.116,253.222 L380.116,262.532 L370.804,262.532 L370.804,253.222 L370.804,253.222 L370.804,253.222 Z M383.839,253.222 L393.15,253.222 L393.15,262.532 L383.839,262.532 L383.839,253.222 L383.839,253.222 L383.839,253.222 Z M380.115,249.498 L370.803,249.498 L370.803,240.185 L380.115,240.185 L380.115,249.498 L380.115,249.498 L380.115,249.498 Z M370.804,236.461 L370.804,227.151 L380.116,227.151 L380.116,236.461 L370.804,236.461 L370.804,236.461 L370.804,236.461 Z M367.079,236.461 L357.769,236.461 L357.769,227.151 L367.079,227.151 L367.079,236.461 L367.079,236.461 L367.079,236.461 Z M354.045,236.461 L344.734,236.461 L344.734,227.151 L354.045,227.151 L354.045,236.461 L354.045,236.461 L354.045,236.461 Z M354.045,240.186 L354.045,249.499 L344.734,249.499 L344.734,240.186 L354.045,240.186 L354.045,240.186 L354.045,240.186 Z M341.01,249.498 L331.698,249.498 L331.698,240.185 L341.01,240.185 L341.01,249.498 L341.01,249.498 L341.01,249.498 Z M327.975,249.498 L318.664,249.498 L318.664,240.185 L327.975,240.185 L327.975,249.498 L327.975,249.498 L327.975,249.498 Z M327.975,253.222 L327.975,262.532 L318.664,262.532 L318.664,253.222 L327.975,253.222 L327.975,253.222 L327.975,253.222 Z M304.388,271.532 L304.388,266.257 L314.94,266.257 L314.94,275.568 L303.768,275.568 L303.768,274.431 C304.164,273.544 304.388,272.564 304.388,271.532 L304.388,271.532 L304.388,271.532 Z M318.664,266.257 L327.975,266.257 L327.975,275.568 L318.664,275.568 L318.664,266.257 L318.664,266.257 L318.664,266.257 Z M331.699,266.257 L341.011,266.257 L341.011,275.568 L331.699,275.568 L331.699,266.257 L331.699,266.257 L331.699,266.257 Z M344.734,266.257 L354.045,266.257 L354.045,275.568 L344.734,275.568 L344.734,266.257 L344.734,266.257 L344.734,266.257 Z M354.045,279.29 L354.045,288.602 L344.734,288.602 L344.734,279.29 L354.045,279.29 L354.045,279.29 L354.045,279.29 Z M357.769,279.29 L367.079,279.29 L367.079,288.602 L357.769,288.602 L357.769,279.29 L357.769,279.29 L357.769,279.29 Z M370.804,279.29 L380.116,279.29 L380.116,288.602 L370.804,288.602 L370.804,279.29 L370.804,279.29 L370.804,279.29 Z M370.804,275.567 L370.804,266.256 L380.116,266.256 L380.116,275.567 L370.804,275.567 L370.804,275.567 L370.804,275.567 Z M383.839,266.257 L393.15,266.257 L393.15,275.568 L383.839,275.568 L383.839,266.257 L383.839,266.257 L383.839,266.257 Z M396.874,266.257 L406.184,266.257 L406.184,275.568 L396.874,275.568 L396.874,266.257 L396.874,266.257 L396.874,266.257 Z M396.874,262.531 L396.874,253.221 L406.184,253.221 L406.184,262.531 L396.874,262.531 L396.874,262.531 L396.874,262.531 Z M409.908,253.222 L419.22,253.222 L419.22,262.532 L409.908,262.532 L409.908,253.222 L409.908,253.222 L409.908,253.222 Z M409.908,249.498 L409.908,240.185 L419.22,240.185 L419.22,249.498 L409.908,249.498 L409.908,249.498 L409.908,249.498 Z M406.184,236.461 L396.874,236.461 L396.874,227.151 L406.184,227.151 L406.184,236.461 L406.184,236.461 L406.184,236.461 Z M393.149,236.461 L383.838,236.461 L383.838,227.151 L393.149,227.151 L393.149,236.461 L393.149,236.461 L393.149,236.461 Z M383.839,223.427 L383.839,214.116 L393.15,214.116 L393.15,223.427 L383.839,223.427 L383.839,223.427 L383.839,223.427 Z M380.115,223.427 L370.803,223.427 L370.803,214.116 L380.115,214.116 L380.115,223.427 L380.115,223.427 L380.115,223.427 Z M367.079,223.427 L357.769,223.427 L357.769,214.116 L367.079,214.116 L367.079,223.427 L367.079,223.427 L367.079,223.427 Z M354.045,223.427 L344.734,223.427 L344.734,214.116 L354.045,214.116 L354.045,223.427 L354.045,223.427 L354.045,223.427 Z M341.01,223.427 L331.698,223.427 L331.698,214.116 L341.01,214.116 L341.01,223.427 L341.01,223.427 L341.01,223.427 Z M341.01,227.151 L341.01,236.461 L331.698,236.461 L331.698,227.151 L341.01,227.151 L341.01,227.151 L341.01,227.151 Z M327.975,236.461 L318.664,236.461 L318.664,227.151 L327.975,227.151 L327.975,236.461 L327.975,236.461 L327.975,236.461 Z M314.94,236.461 L303.768,236.461 L303.768,227.151 L314.94,227.151 L314.94,236.461 L314.94,236.461 L314.94,236.461 Z M314.94,240.186 L314.94,249.499 L304.321,249.499 C304.23,248.807 304.042,248.146 303.768,247.531 L303.768,240.186 L314.94,240.186 L314.94,240.186 L314.94,240.186 Z M303.768,279.29 L314.94,279.29 L314.94,288.602 L303.768,288.602 L303.768,279.29 L303.768,279.29 L303.768,279.29 Z M318.664,279.29 L327.975,279.29 L327.975,288.602 L318.664,288.602 L318.664,279.29 L318.664,279.29 L318.664,279.29 Z M331.699,279.29 L341.011,279.29 L341.011,288.602 L331.699,288.602 L331.699,279.29 L331.699,279.29 L331.699,279.29 Z M341.01,292.326 L341.01,301.637 L331.698,301.637 L331.698,292.326 L341.01,292.326 L341.01,292.326 L341.01,292.326 Z M344.734,292.326 L354.045,292.326 L354.045,301.637 L344.734,301.637 L344.734,292.326 L344.734,292.326 L344.734,292.326 Z M357.769,292.326 L367.079,292.326 L367.079,301.637 L357.769,301.637 L357.769,292.326 L357.769,292.326 L357.769,292.326 Z M370.804,292.326 L380.116,292.326 L380.116,301.637 L370.804,301.637 L370.804,292.326 L370.804,292.326 L370.804,292.326 Z M383.839,292.326 L393.15,292.326 L393.15,301.637 L383.839,301.637 L383.839,292.326 L383.839,292.326 L383.839,292.326 Z M383.839,288.602 L383.839,279.29 L393.15,279.29 L393.15,288.602 L383.839,288.602 L383.839,288.602 L383.839,288.602 Z M396.874,279.29 L406.184,279.29 L406.184,288.602 L396.874,288.602 L396.874,279.29 L396.874,279.29 L396.874,279.29 Z M409.908,279.29 L419.22,279.29 L419.22,288.602 L409.908,288.602 L409.908,279.29 L409.908,279.29 L409.908,279.29 Z M409.908,275.567 L409.908,266.256 L419.22,266.256 L419.22,275.567 L409.908,275.567 L409.908,275.567 L409.908,275.567 Z M419.219,223.427 L409.907,223.427 L409.907,214.116 L419.219,214.116 L419.219,223.427 L419.219,223.427 L419.219,223.427 Z M406.184,223.427 L396.874,223.427 L396.874,214.116 L406.184,214.116 L406.184,223.427 L406.184,223.427 L406.184,223.427 Z M393.149,210.393 L383.838,210.393 L383.838,200.461 L393.149,200.461 L393.149,210.393 L393.149,210.393 L393.149,210.393 Z M380.115,210.393 L370.803,210.393 L370.803,200.461 L380.115,200.461 L380.115,210.393 L380.115,210.393 L380.115,210.393 Z M367.079,210.393 L357.769,210.393 L357.769,200.461 L367.079,200.461 L367.079,210.393 L367.079,210.393 L367.079,210.393 Z M354.045,210.393 L344.734,210.393 L344.734,200.461 L354.045,200.461 L354.045,210.393 L354.045,210.393 L354.045,210.393 Z M341.01,210.393 L331.698,210.393 L331.698,200.461 L341.01,200.461 L341.01,210.393 L341.01,210.393 L341.01,210.393 Z M327.975,214.116 L327.975,223.427 L318.664,223.427 L318.664,214.116 L327.975,214.116 L327.975,214.116 L327.975,214.116 Z M303.768,292.326 L314.94,292.326 L314.94,301.637 L303.768,301.637 L303.768,292.326 L303.768,292.326 L303.768,292.326 Z M318.664,292.326 L327.975,292.326 L327.975,301.637 L318.664,301.637 L318.664,292.326 L318.664,292.326 L318.664,292.326 Z M331.699,305.36 L341.011,305.36 L341.011,315.912 L331.699,315.912 L331.699,305.36 L331.699,305.36 L331.699,305.36 Z M344.734,305.36 L354.045,305.36 L354.045,315.912 L344.734,315.912 L344.734,305.36 L344.734,305.36 L344.734,305.36 Z M357.769,305.36 L367.079,305.36 L367.079,315.912 L357.769,315.912 L357.769,305.36 L357.769,305.36 L357.769,305.36 Z M370.804,305.36 L380.116,305.36 L380.116,315.912 L370.804,315.912 L370.804,305.36 L370.804,305.36 L370.804,305.36 Z M383.839,305.36 L393.15,305.36 L393.15,315.912 L383.839,315.912 L383.839,305.36 L383.839,305.36 L383.839,305.36 Z M396.874,301.637 L396.874,292.326 L406.184,292.326 L406.184,301.637 L396.874,301.637 L396.874,301.637 L396.874,301.637 Z M419.189,210.393 L409.908,210.393 L409.908,200.535 C415.227,201.081 418.9,204.951 419.189,210.393 L419.189,210.393 L419.189,210.393 Z M314.94,200.492 L314.94,210.392 L303.807,210.392 C304.192,205.063 308.977,200.804 314.94,200.492 L314.94,200.492 L314.94,200.492 Z M15.167,263.151 L15.167,257.565 L67.225,257.565 L67.225,263.151 L15.167,263.151 L15.167,263.151 L15.167,263.151 Z M81.5,263.151 L81.5,257.565 L290.112,257.565 L290.112,263.151 L81.5,263.151 L81.5,263.151 L81.5,263.151 Z M303.858,305.36 L314.94,305.36 L314.94,315.874 C309.447,315.503 304.551,310.804 303.858,305.36 L303.858,305.36 L303.858,305.36 Z M409.908,315.813 L409.908,305.36 L419.15,305.36 C418.612,310.804 414.763,315.14 409.908,315.813 L409.908,315.813 L409.908,315.813 Z M436.599,263.151 L436.599,257.565 L882.557,257.565 L882.557,263.151 L436.599,263.151 L436.599,263.151 L436.599,263.151 Z M896.834,263.774 L896.834,258.187 L968.626,258.187 L968.626,263.774 L896.834,263.774 L896.834,263.774 L896.834,263.774 Z" id="Shape" fill="#FFFFFF"></path>
                                <path d="M2328.041,245 C2325.094,245 2322.706,247.388 2322.706,250.335 L2322.706,250.907 C2322,250.743 2321.266,250.648 2320.51,250.648 L1385.484,250.648 C1385.321,247.849 1383.005,245.627 1380.167,245.627 C1377.22,245.627 1374.832,248.016 1374.832,250.961 L1374.832,251.275 L1343.728,251.275 L1343.728,250.961 C1343.728,248.016 1341.339,245.627 1338.393,245.627 C1335.446,245.627 1333.058,248.016 1333.058,250.961 L1333.058,259.587 C1332.996,260.052 1332.954,260.52 1332.954,261.004 C1332.954,261.485 1332.996,261.956 1333.058,262.418 L1333.058,272.3 C1333.058,275.247 1335.446,277.635 1338.393,277.635 C1341.339,277.635 1343.728,275.247 1343.728,272.3 L1343.728,270.732 L1374.832,270.732 L1374.832,272.3 C1374.832,275.247 1377.22,277.635 1380.167,277.635 C1383.111,277.635 1385.501,275.247 1385.501,272.3 L1385.501,270.104 L2320.51,270.104 C2321.266,270.104 2322,270.01 2322.706,269.845 L2322.706,271.673 C2322.706,274.619 2325.095,277.008 2328.041,277.008 C2330.987,277.008 2333.375,274.619 2333.375,271.673 L2333.375,250.334 C2333.375,247.388 2330.987,245 2328.041,245 L2328.041,245 L2328.041,245 Z M1343.726,263.829 L1343.726,258.181 L1374.83,258.181 L1374.83,263.829 L1343.726,263.829 L1343.726,263.829 L1343.726,263.829 Z M2320.509,263.201 L1385.5,263.201 L1385.5,257.553 L2320.195,257.553 L2320.352,257.553 C2321.303,257.553 2322.17,258.029 2322.705,258.752 L2322.705,262.07 C2322.212,262.753 2321.429,263.201 2320.509,263.201 L2320.509,263.201 L2320.509,263.201 Z" id="Shape" fill="#FFFFFF"></path>
                                <path d="M3703.157,49.171 C3700.209,49.171 3697.816,51.562 3697.816,54.513 L3697.816,54.843 C3697.71,54.841 3697.607,54.827 3697.501,54.827 L2681.017,54.827 C2680.03,54.827 2679.082,54.976 2678.187,55.247 L2678.187,54.513 C2678.187,51.562 2675.794,49.171 2672.846,49.171 C2669.895,49.171 2667.503,51.562 2667.503,54.513 L2667.503,75.882 C2667.503,78.832 2669.895,81.223 2672.846,81.223 C2675.794,81.223 2678.187,78.831 2678.187,75.882 L2678.187,73.89 C2679.083,74.161 2680.03,74.31 2681.017,74.31 L3697.501,74.31 C3697.607,74.31 3697.71,74.297 3697.816,74.294 L3697.816,75.882 C3697.816,78.832 3700.209,81.223 3703.157,81.223 C3706.108,81.223 3708.5,78.831 3708.5,75.882 L3708.5,54.513 C3708.5,51.562 3706.109,49.171 3703.157,49.171 L3703.157,49.171 L3703.157,49.171 Z M3697.817,67.365 C3697.712,67.377 3697.612,67.396 3697.502,67.396 L2681.017,67.396 C2679.455,67.396 2678.187,66.127 2678.187,64.568 C2678.187,63.009 2679.456,61.74 2681.017,61.74 L3697.189,61.74 L3697.346,61.74 C3697.507,61.74 3697.661,61.761 3697.817,61.788 L3697.817,67.365 L3697.817,67.365 L3697.817,67.365 Z" id="Shape" fill="#FFFFFF"></path>
                                <path d="M5173.21731,71.8332662 L5156.36398,71.8332662 C5156.36398,58.9106377 5152.31918,49.9408132 5144.31385,42.9473907 C5130.91546,31.2410096 5110.01733,30.0247623 5110.01733,30.0247623 L4913.00194,30.0247623 L4913.00194,14.8216699 L5109.68026,14.8216699 C5109.68026,14.8216699 5137.99385,16.3419791 5156.11118,32.2292106 C5167.48717,42.1872361 5173.21731,54.34971 5173.21731,71.8332662 L5173.21731,71.8332662 Z" id="Shape" stroke="#FFFFFF" stroke-width="6" fill="#FFFFFF" transform="translate(5043.109623, 43.327468) rotate(1.000000) translate(-5043.109623, -43.327468) "></path>
                                <path d="M4017.656,297.209 C4014.08,297.209 4011.167,300.119 4011.167,303.698 L4011.167,322.883 C4011.167,326.462 4014.08,329.372 4017.656,329.372 C4021.232,329.372 4024.145,326.462 4024.145,322.883 L4024.145,303.698 C4024.145,300.119 4021.232,297.209 4017.656,297.209 L4017.656,297.209 L4017.656,297.209 Z" id="Shape" fill="#FFFFFF"></path>
                                <path d="M4906.861,0.974 C4903.285,0.974 4900.372,3.884 4900.372,7.463 L4900.372,26.648 C4900.372,30.227 4903.285,33.137 4906.861,33.137 C4910.437,33.137 4913.35,30.227 4913.35,26.648 L4913.35,7.463 C4913.351,3.884 4910.438,0.974 4906.861,0.974 L4906.861,0.974 L4906.861,0.974 Z" id="Shape" fill="#FFFFFF"></path>
                                <path d="M4048.286,320.086 C4030.518,320.086 4020.094,319.506 4019.815,319.489 L4020.517,307.51 C4021.262,307.555 4096.133,311.696 4189.288,297.199 C4274.873,283.881 4393.885,251.656 4474.827,173.769 C4549.532,101.884 4624.16,55.684 4702.977,32.529 C4771.212,12.483 4831.421,12.778 4884.552,13.043 C4890.445,13.072 4896.248,13.101 4901.965,13.101 L4901.965,25.101 C4896.229,25.101 4890.405,25.072 4884.492,25.043 C4779.074,24.531 4647.907,23.876 4483.146,182.417 C4446.313,217.86 4398.965,247.117 4342.418,269.377 C4297.356,287.114 4246.37,300.479 4190.874,309.098 C4131.186,318.367 4078.866,320.086 4048.286,320.086 L4048.286,320.086 L4048.286,320.086 Z" id="Shape" stroke="#FFFFFF" stroke-width="7"></path>
                            </g>
                        </g>
                    </g>
                </g>
            </g>
        </g>
    </g>
</svg>