<?xml version="1.0" encoding="UTF-8" standalone="no"?>
<svg width="70px" height="44px" viewBox="0 0 70 44" version="1.1" xmlns="http://www.w3.org/2000/svg" xmlns:xlink="http://www.w3.org/1999/xlink">
    <!-- Generator: Sketch 3.6.1 (26313) - http://www.bohemiancoding.com/sketch -->
    <title>Slice 1</title>
    <desc>Created with Sketch.</desc>
    <defs></defs>
    <g id="Page-1" stroke="none" stroke-width="1" fill="none" fill-rule="evenodd">
        <g id="basics-illustration-brewing" transform="translate(-516.000000, -254.000000)" fill="#000000">
            <g id="Group">
                <path d="M38.09,76.53 C44.858,69.592 51.15,60.925 56.063,52.583 C61.588,43.186 68.218,34.128 69.175,22.969 C69.722,16.614 69.845,9.255 65.839,3.945 C61.629,-1.621 53.135,-0.095 47.801,2.589 C29.046,12.016 13.858,29.999 5.651,49.129 C2.344,56.829 -4.987,82.284 7.563,86.124 C9.943,86.854 10.956,83.129 8.583,82.407 C3.49,80.849 4.807,70.809 5.117,66.941 C5.752,59.231 8.347,51.761 11.927,44.965 C19.447,30.717 30.132,18.435 43.512,9.442 C50.492,4.752 62.207,-0.085 65.056,11.469 C66.856,18.782 65.092,27.815 62.099,34.409 C55.872,48.126 45.891,63.009 35.363,73.804 C33.623,75.584 36.35,78.308 38.088,76.528 L38.09,76.53 Z M588.89,66.792 C596.38,66.642 602.312,59.4 606.896,53.372 C609.82,49.512 617.876,35.268 623.862,36.158 C624.599,36.268 624.445,36.943 624.298,37.274 C622.875,40.544 620.403,43.171 618.541,46.226 C618.011,47.089 619.817,48.306 620.539,47.793 C624.429,45.017 629.409,42.819 632.049,41.607 C632.983,41.18 633.823,41.842 633.883,42.714 C634.199,47.954 622.449,50.707 623.423,53.564 C625.168,56.177 633.089,50.659 637.008,52.344 C637.971,52.728 637.165,53.579 635.368,54.809 C630.574,57.669 626.608,59.679 621.243,61.183 C618.19,62.037 606.843,64.208 604.711,65.243 C604.124,65.525 603.181,66.695 603.673,66.74 C605.147,66.888 612.089,66.464 614.658,66.058 C620.133,65.186 627.524,63.054 632.528,60.528 C636.008,58.772 640.708,56.668 642.02,52.588 C644.004,46.395 638.156,47.835 634.116,48.528 C635.936,46.473 639.874,40.168 636.342,38.39 C633.022,36.72 628.199,39.03 625.39,40.65 C625.895,39.012 627.77,35.707 626.307,34.147 C624.833,32.571 621.419,32.493 619.687,33.735 C614.762,37.268 606.18,49.787 604.757,51.777 C603.049,54.162 600.931,56.553 598.805,58.562 C595.333,61.827 593.077,62.654 588.941,65.15 C588.413,65.47 586.921,66.837 588.891,66.792 L588.89,66.792 Z M744.35,148.556 C742.723,140.896 732.793,138.436 726.16,137.926 C717.307,137.243 709.234,141.586 701.437,145.173 C693.15,148.986 685.199,154.237 676.353,156.633 C674.013,157.271 671.633,157.783 669.213,158.041 C667.205,158.261 664.413,157.654 662.553,158.514 C661.703,158.899 660.07,160.58 661.905,160.58 C663.855,160.573 665.805,160.53 667.755,160.504 C675.91,160.38 682.985,156.984 690.439,153.326 C694.346,151.41 714.879,142.356 716.813,141.844 C725.197,139.622 739.01,139.466 739.873,149.019 C738.937,153.664 733.481,151.156 727.546,150.729 C726.09,150.627 718.299,149.244 716.572,152.719 C716.124,153.601 718.652,154.599 721.382,155.643 C727.94,158.157 731.119,159.216 732.5,161.39 C731.842,162.687 720.346,161.32 718.553,161.295 C716.619,161.261 712.131,160.849 712.161,161.601 C712.198,162.354 715.551,163.864 718.611,165.671 C720.004,166.495 730.931,173.168 727.184,176.268 C723.941,178.95 715.967,176.803 712.589,174.958 C708.314,172.626 703.501,170.425 698.902,168.831 C691.416,166.248 680.115,164.715 671.972,167.771 C671.325,168.011 671.295,169.466 671.758,169.424 C688.338,167.764 695.318,170.876 696.686,171.309 C701.881,172.979 706.546,176.286 711.453,178.593 C716.563,181.001 725.835,184.045 730.618,179.311 C735.798,174.187 728.374,168.004 724.068,165.665 C727.493,165.403 735.834,168.392 737.838,164.098 C740.051,159.365 726.193,154.496 723.014,153.228 C721.688,152.698 733.954,154.541 734.93,154.701 C737.228,155.077 739.183,154.929 741.37,154.101 C744.2,153.044 745.013,151.641 744.354,148.557 L744.35,148.556 Z M574.63,267.206 C567.68,265.336 560.39,265.709 553.392,264.349 C547.24,263.157 541.384,260.337 535.626,257.976 C534.249,257.42 534.462,259.128 535.296,259.75 C536.742,260.825 538.198,261.643 539.756,262.407 C542.758,263.867 546.176,264.749 549.366,265.703 C556.024,267.687 562.831,268.403 569.696,269.425 C573.326,269.967 576.286,270.842 579.412,272.808 C581.292,273.988 583.208,277.278 578.759,276.778 C575.769,276.248 573.949,276.02 568.969,274.588 C563.629,273.308 561.909,273.085 561.997,274.148 C562.084,275.218 565.287,277.942 567.983,280.456 C570.733,283.009 573.353,285.736 574.27,289.354 C574.848,291.732 571.873,291.11 570.776,290.752 C564.043,288.56 558.31,283.045 553.276,278.682 C550.811,276.549 550.218,278.516 551.106,281.024 C552.309,284.491 554.366,286.347 554.613,290.779 C552.763,295.725 545.818,285.509 538.845,272.101 C531.869,258.691 521.635,253.014 516.889,255.121 C514.767,257.051 521.929,256.313 526.789,261.741 C533.896,268.197 539.825,279.216 540.619,280.746 C541.265,281.994 545.347,289.006 545.865,289.774 C549.765,295.608 554.402,298.756 555.535,297.21 C556.405,296.027 557.195,294.733 557.602,293.293 C558.354,290.593 557.109,288.153 556.176,285.683 C561.256,288.973 567.266,296.279 573.924,295.849 C577.35,295.632 578.911,291.189 577.154,287.227 C575.744,284.042 572.149,280.777 569.844,278.205 C573.754,279.075 583.404,283.655 585.117,277.453 C586.672,271.779 578.917,268.353 574.627,267.205 L574.63,267.206 Z M706.692,38.005 C713.362,33.753 715.932,28.785 717.638,22.135 C718.918,17.637 718.553,14.411 722.424,13.707 C726.572,12.949 726.226,19.111 724.304,22.377 C723.982,22.927 722.46,25.947 723.384,26.544 C723.7,26.752 725.264,26.174 726.416,24.16 C727.884,21.577 730.398,18.77 734.086,19.463 C738.176,20.233 738.331,24.996 736.342,27.72 C734.159,30.745 731.692,32.953 726.966,36.667 C720.056,42.097 714.846,42.257 708.461,44.464 C707.433,44.824 706.858,45.559 707.445,45.534 C709.653,45.441 718.662,44.142 723.09,41.827 C728.43,39.027 737.55,32.619 740.36,27.087 C741.92,24.015 741.895,20.145 739.546,17.83 C734.333,12.703 729.752,18.957 729.246,17.35 C728.446,14.817 726.521,9.873 721.726,10.64 C715.051,11.71 716.661,22.013 712.996,28.713 C711.012,32.36 707.384,35.157 702.234,38.011 C696.822,41.007 691.634,39.726 687.329,39.571 C686.823,39.563 682.657,40.401 684.476,40.865 C695.053,43.545 699.059,42.875 706.691,38.005 L706.692,38.005 Z M522.246,156.08 C519.856,156.492 516.926,156.27 517.431,157.987 C518.011,159.965 545.707,164.637 547.753,165.111 C548.099,165.193 548.415,165.785 548.598,166.209 C550.003,169.539 548.204,169.914 550.208,172.581 C552.218,175.255 554.25,179.645 557.388,176.161 C558.004,184.251 563.96,186.396 569.108,186.354 C572.1,186.324 572.878,185.004 575.8,183.242 C577.496,182.22 579.49,186.332 581.728,186.966 C588.618,188.923 593.035,185.492 593.138,178.916 C593.183,175.959 594.446,175.454 596.762,175.502 C597.182,175.514 597.607,175.626 598.038,175.638 C601.318,175.778 603.97,174.628 605.416,171.578 C608.106,165.891 606.556,160.223 604.893,154.681 C604.358,152.901 603.493,151.621 605.116,149.861 C605.996,148.906 606.22,147.168 606.356,145.746 C607.206,136.859 603.218,129.029 593.971,126.653 C593.166,126.446 592.151,126.166 591.291,126.316 C588.584,126.776 586.674,127.083 584.251,124.286 C579.665,119.012 571.477,118.91 565.919,123.136 C565.224,123.661 564.637,126.094 564.051,126.136 C563.455,126.169 562.288,123.646 560.567,123.363 C553.411,122.2 548.987,122.993 543.557,127.387 C541.477,129.065 540.239,131.72 540.677,136.502 C540.801,137.752 539.649,137.412 539.117,138.599 C537.763,141.567 536.524,149.739 539.481,152.961 C538.051,153.278 536.621,153.594 535.185,153.891 C530.908,154.791 526.561,155.344 522.247,156.081 L522.246,156.08 Z M565.566,151.112 C566.916,150.839 569.406,148.072 569.476,147.847 C570.096,145.961 567.322,146.227 566.281,146.472 C561.876,147.525 557.487,148.672 553.074,149.732 C549.022,150.702 544.974,151.69 540.912,152.625 C541.097,150.673 541.238,145.459 541.362,143.859 C541.56,141.182 542.742,140.445 545.257,141.416 C545.79,141.626 546.597,141.956 546.924,141.729 C548.789,140.424 548.277,137.591 546.202,136.605 C545.314,136.187 543.922,135.237 544,134.695 C544.186,133.3 544.704,131.375 545.738,130.775 C548.205,129.345 550.99,128.293 553.77,127.608 C555.578,127.158 557.623,127.546 559.545,127.694 C562.795,127.934 561.543,130.554 561.795,132.262 C562.223,135.124 565.055,134.072 565.213,133.696 C565.815,132.216 566.08,130.59 566.408,129.006 C567.283,124.786 571.473,124.139 573.522,124.371 C575.572,124.599 577.928,125.511 579.567,126.398 C580.977,127.161 582.644,128.046 581.757,130.49 C581.393,131.495 580.812,133.332 582.605,134.21 C584.395,135.088 584.985,133.69 585.83,133.01 C588.42,130.905 591.6,130.286 594.12,131.693 C597.814,133.773 600.624,136.535 602.085,140.703 C603.878,145.803 602.627,148.025 597.303,148.581 C596.63,148.651 595.46,149.679 595.533,150.109 C595.706,151.295 596.293,153.286 596.946,153.379 C601.666,154.073 603.121,157.279 603.651,161.309 C604.045,164.361 604.091,167.636 601.253,169.461 C598.555,171.205 595.49,171.021 592.68,168.961 C592.118,168.544 590.924,168.715 590.15,168.991 C589.768,169.121 589.51,170.119 589.525,170.711 C589.567,171.921 589.802,173.127 590.009,174.323 C590.566,177.649 588.902,181.441 586.514,182.253 C583.354,183.327 579.058,181.543 577.361,178.681 C576.955,178.011 575.581,177.243 575.051,177.471 C574.281,177.794 573.863,178.976 573.311,179.796 C572.888,180.431 572.631,181.466 572.067,181.666 C566.255,183.726 561.287,180.176 560.897,174.014 C560.837,173.144 559.042,171.512 558.69,171.668 C555.03,173.276 554.894,170.206 553.9,168.29 C553.742,167.99 553.736,167.617 553.667,167.274 C554.013,167.277 554.389,167.194 554.697,167.298 C561.773,169.565 568.83,171.881 575.914,174.106 C576.42,174.259 579.734,175.136 580.384,173.526 C581.031,171.92 574.176,169.884 572.272,169.289 C565.997,167.341 560.357,165.624 555.438,163.077 C554.628,162.659 553.871,162.137 553.083,161.667 C554.036,161.66 554.986,161.597 555.928,161.654 C561.15,161.974 566.36,162.319 571.578,162.654 C572.338,162.707 575.298,162.004 574.898,160.409 C574.503,158.819 571.488,157.956 570.255,158.025 C567.055,158.22 564.591,158.208 561.408,158.043 C555.438,157.727 542.138,158.673 536.18,158.097 C535.63,158.043 535.1,157.73 534.558,157.532 C535.088,157.168 535.568,156.578 536.15,156.458 C542.978,155.023 558.728,152.498 565.57,151.11 L565.566,151.112 Z" id="Shape"></path>
            </g>
        </g>
    </g>
</svg>