<?xml version="1.0" encoding="UTF-8" standalone="no"?>
<svg width="24px" height="33px" viewBox="0 0 24 33" version="1.1" xmlns="http://www.w3.org/2000/svg" xmlns:xlink="http://www.w3.org/1999/xlink">
    <!-- Generator: Sketch 3.6.1 (26313) - http://www.bohemiancoding.com/sketch -->
    <title>Shape</title>
    <desc>Created with Sketch.</desc>
    <defs></defs>
    <g id="Page-1" stroke="none" stroke-width="1" fill="none" fill-rule="evenodd">
        <g id="Botling_assets" transform="translate(-459.000000, -399.000000)" fill="#29ABE2">
            <path d="M459.1,405 C460.8,399.1 471.2,412.6 472.5,413.3 C472.4,409.7 468.7,406.9 469.9,402.9 C471.2,398.6 475.5,409 475.9,409.4 C476.5,407.2 475.6,404.8 476.4,402.5 C477,401 479.1,397.9 481,399.9 C484,403.1 482.5,408.8 482.1,412.7 C481.6,416.9 481.2,421.1 480.9,425.4 C480.8,426.2 480.6,431.9 480.4,432 C479.5,432.4 475.6,425.9 475.1,425.3 C473.1,422.9 470.9,420.9 468.5,418.8 C465.6,416.2 459.1,409.5 459.1,405 C459.2,404.9 459.1,405.1 459.1,405 L459.1,405 Z" id="Shape"></path>
        </g>
    </g>
</svg>