<?xml version="1.0" encoding="utf-8"?>
<!-- Generator: Adobe Illustrator 16.0.3, SVG Export Plug-In . SVG Version: 6.00 Build 0)  -->
<!DOCTYPE svg PUBLIC "-//W3C//DTD SVG 1.1//EN" "http://www.w3.org/Graphics/SVG/1.1/DTD/svg11.dtd">
<svg version="1.1" id="Layer_1" xmlns="http://www.w3.org/2000/svg" xmlns:xlink="http://www.w3.org/1999/xlink" x="0px" y="0px"
	 width="239.274px" height="285px" viewBox="0 0 239.274 285" enable-background="new 0 0 239.274 285" xml:space="preserve">
<path fill-rule="evenodd" clip-rule="evenodd" fill="#4998D2" d="M238.922,271.963c-14.205,0.291-26.207-5.241-39.534-9.456
	c-5.179-1.639-11.279-4.865-14.944-8.942c-1.848-2.058-2.57-6.008,0.861-6.856c2.955-0.731,5.521,2.107,8.231,1.545
	c-1.487-4.397-6.931-7.335-8.599-12.057c-2.695-7.633,5.263-2.437,7.859-0.277c-0.313-0.261,4.62,3.793,3.629,1.513
	c-1.246-2.862-2.754-5.596-3.954-8.486c-1.081-2.6-2.88-5.774-1.47-8.59c1.405-2.808,5.971,1.193,7.109,2.354
	c8.574,8.746,11.878,21.461,19.359,31.02c3.354,4.283,7.107,8.446,11.566,11.616c1.947,1.386,3.637,3.037,5.809,4.098
	C235.585,269.805,240.635,271.764,238.922,271.963C238.473,271.973,239.132,271.938,238.922,271.963z"/>
<path fill-rule="evenodd" clip-rule="evenodd" fill="#BFD983" d="M223.926,132.697c-12.136-7.386-19.286-18.502-28.261-29.217
	c-3.487-4.164-6.898-10.163-7.798-15.571c-0.453-2.728,1.06-6.448,4.41-5.319c2.885,0.97,3.525,4.744,6.111,5.726
	c1.108-4.509-1.904-9.91-0.774-14.789c1.828-7.887,5.749,0.771,6.779,3.989c-0.124-0.389,1.856,5.682,2.247,3.227
	c0.488-3.084,0.686-6.201,1.225-9.282c0.486-2.774,0.674-6.419,3.377-8.036c2.693-1.612,4.393,4.216,4.729,5.807
	c2.533,11.984-1.514,24.482-0.339,36.565c0.527,5.412,1.455,10.941,3.512,16.011c0.899,2.214,1.438,4.514,2.699,6.576
	C222.273,129.085,225.48,133.451,223.926,132.697C223.543,132.464,224.118,132.791,223.926,132.697z"/>
<path fill-rule="evenodd" clip-rule="evenodd" fill="#FFFF00" d="M165.029,150.031c-13.648-3.939-23.469-12.788-34.941-20.77
	c-4.459-3.102-9.326-7.995-11.614-12.977c-1.153-2.514-0.671-6.501,2.858-6.292c3.039,0.179,4.646,3.653,7.402,3.92
	c-0.115-4.641-4.441-9.063-4.631-14.064c-0.309-8.092,5.748-0.767,7.588,2.068c-0.223-0.343,3.283,4.994,3.014,2.521
	c-0.338-3.104-0.965-6.162-1.254-9.278c-0.26-2.804-1.035-6.368,1.148-8.639c2.176-2.264,5.346,2.913,6.088,4.359
	c5.59,10.898,4.969,24.021,9.275,35.37c1.93,5.086,4.277,10.177,7.592,14.527c1.449,1.9,2.572,3.979,4.332,5.637
	C162.484,146.979,166.727,150.352,165.029,150.031C164.598,149.907,165.238,150.07,165.029,150.031z"/>
<path fill="#DB4EB2" d="M5.198,167.294c-3.739-7.968,14.772-9.296,15.666-6.165c-1.44-5.041-11.693-13.762-3.454-17.983
	c8.569-4.394,11.887,10.104,16.257,14.21c2.882-4.806-0.388-19.07,10.953-17.188c8.693,1.442,5.536,13.502,4.903,19.06
	c-0.734,6.442,0.429,12.147,4.132,17.45c0.7,1.004,8.932,12.74,9.621,12.221c-2.473,1.87-22.572-5.905-25.623-6.443
	C26.111,180.408,10.959,179.555,5.198,167.294C5.867,168.72,4.113,164.983,5.198,167.294C3.576,163.839,5.636,168.229,5.198,167.294
	z"/>
<g>
	<path fill-rule="evenodd" clip-rule="evenodd" fill="#DB4EB2" d="M176.635,159.456c-8.441,2.271-0.589,11.523-1.443,16.088
		c-3.442-2.287-12.87-11.763-15.031-2.375c-1.789,7.76,6.677,14,12.673,17.054c11.597,5.907,29.884,12.871,42.827,13.287
		c-3.68-6.802-12.724-7.499-15.327-16.063c-2.341-7.703,2.898-14.726,5.78-21.424c2.744-6.374-1.166-11.795-8.168-9.667
		c-3.74,1.136-6.373,3.463-7.863,6.943c-0.152,0.356-2.645,6.423-2.166,6.538c-0.643-0.157-3.357-6.552-4.082-7.396
		C181.831,160.112,178.947,159.136,176.635,159.456C175.016,159.891,177.034,159.401,176.635,159.456z"/>
</g>
<path fill-rule="evenodd" clip-rule="evenodd" fill="#FF8338" d="M135.842,176.341c-14.204,0.291-26.207-5.241-39.534-9.456
	c-5.179-1.639-11.279-4.865-14.944-8.942c-1.848-2.058-2.57-6.008,0.861-6.856c2.956-0.731,5.521,2.107,8.231,1.545
	c-1.487-4.397-6.931-7.335-8.598-12.057c-2.696-7.633,5.262-2.437,7.859-0.277c-0.313-0.261,4.62,3.793,3.629,1.513
	c-1.247-2.862-2.754-5.596-3.955-8.486c-1.081-2.6-2.88-5.774-1.47-8.59c1.406-2.808,5.971,1.193,7.109,2.354
	c8.575,8.746,11.878,21.461,19.36,31.02c3.354,4.283,7.106,8.446,11.565,11.616c1.947,1.386,3.637,3.037,5.81,4.098
	C132.506,174.183,137.556,176.142,135.842,176.341C135.393,176.351,136.053,176.316,135.842,176.341z"/>
<path fill-rule="evenodd" clip-rule="evenodd" fill="#BF66CC" d="M154.053,75.473c-12.137-7.387-19.287-18.502-28.262-29.217
	c-3.488-4.164-6.898-10.163-7.798-15.571c-0.453-2.728,1.06-6.448,4.41-5.319c2.884,0.97,3.524,4.744,6.112,5.726
	c1.107-4.509-1.904-9.91-0.775-14.789c1.828-7.887,5.748,0.771,6.779,3.989c-0.124-0.389,1.857,5.682,2.246,3.227
	c0.488-3.084,0.686-6.201,1.226-9.282c0.485-2.774,0.674-6.419,3.376-8.036c2.694-1.612,4.394,4.216,4.73,5.807
	c2.533,11.984-1.514,24.482-0.338,36.565c0.525,5.412,1.454,10.941,3.512,16.011c0.898,2.213,1.436,4.514,2.698,6.576
	C152.399,71.859,155.607,76.227,154.053,75.473C153.669,75.238,154.244,75.566,154.053,75.473z"/>
<g>
	<path fill-rule="evenodd" clip-rule="evenodd" fill="#FFFF00" d="M110.104,215.116c-5.347,6.916,6.505,9.53,8.586,13.681
		c-4.125,0.263-17.364-1.576-13.404,7.206c3.272,7.26,13.788,7.104,20.41,5.907c12.807-2.314,31.58-7.838,42.136-15.339
		c-7.045-3.188-14.668,1.729-21.922-3.512c-6.525-4.717-6.604-13.478-8.363-20.554c-1.672-6.735-8.065-8.685-12.353-2.753
		c-2.29,3.167-2.978,6.613-2.058,10.285c0.094,0.376,1.781,6.714,2.232,6.516c-0.607,0.264-6.638-3.184-7.727-3.418
		C114.639,212.494,111.752,213.461,110.104,215.116C109.079,216.441,110.39,214.83,110.104,215.116z"/>
</g>
<g>
	<path fill-rule="evenodd" clip-rule="evenodd" fill="#A3D01A" d="M48.308,65.752c0.007-2.646,1.441-4.939,4.04-5.591
		c2.553-0.641,5.078,1.917,6.662,3.591c1.665,1.76,3.051,3.722,4.534,5.631c1.275,1.643,3.21,5.068,5.272,5.732
		c-0.61-1.768-2.33-3.297-3.387-4.827c-1.238-1.793-2.171-3.636-2.792-5.729c-1.009-3.404-0.008-8.83,4.771-7.62
		c3.55,0.898,5.905,6.076,7.177,9.144c1.136,2.745,3.479,8.685,6.884,9.235c-2.18-5.016-5.972-10.05-4.211-15.976
		c0.706-2.375,3.805-3.068,5.5-1.392c2.058,2.036,3.324,4.229,4.431,6.9c1.132,2.735,1.271,5.923,1.837,8.789
		c0.646,3.273,1.325,6.485,2.849,9.485c1.493,2.937,3.567,4.754,6.121,6.799c0.738,0.591,6.603,4.159,6.56,4.216
		c-0.601,0.799-5.562-0.923-6.585-1.045c-2.873-0.346-5.638-1.201-8.379-2.112c-6.081-2.023-11.949-4.704-18.053-6.635
		C61.999,81.332,48.541,78.247,48.308,65.752C48.311,64.688,48.334,67.171,48.308,65.752z"/>
</g>
</svg>
