<?xml version="1.0" encoding="UTF-8" standalone="no"?>
<svg width="27px" height="30px" viewBox="0 0 27 30" version="1.1" xmlns="http://www.w3.org/2000/svg" xmlns:xlink="http://www.w3.org/1999/xlink">
    <!-- Generator: Sketch 3.6.1 (26313) - http://www.bohemiancoding.com/sketch -->
    <title>Shape</title>
    <desc>Created with Sketch.</desc>
    <defs></defs>
    <g id="Page-1" stroke="none" stroke-width="1" fill="none" fill-rule="evenodd">
        <g id="Botling_assets" transform="translate(-338.000000, -360.000000)" fill="#29ABE2">
            <path d="M341.1,362 C345.7,362.1 345.5,369.2 347.3,371.8 C348.3,370.2 347.7,358.9 352.3,360.7 C355.5,361.9 352.4,367.4 353.2,369.4 C354.5,368.5 355.5,365.8 356.8,364.6 C358.3,363.2 360.5,361.7 362.6,362.7 C364.9,363.8 364.2,366.7 363.4,368.5 C363.2,369.1 362.8,369.9 362.4,370.5 C361.9,371.2 360.2,372.3 359.9,373 C359.1,375.1 355.9,376.5 354.3,377.9 C352.6,379.2 350.5,380.8 349.2,382.5 C347.2,385.1 345,387.9 342.4,389.8 C342.2,387.9 344.5,385.6 344.6,383.6 C344.8,380.9 343.9,378.9 342.5,376.6 C341.6,374.7 335.8,361.8 341.1,362 C341.7,362 340.8,362 341.1,362 L341.1,362 Z" id="Shape"></path>
        </g>
    </g>
</svg>