<?xml version="1.0" encoding="UTF-8" standalone="no"?>
<svg width="28px" height="29px" viewBox="0 0 28 29" version="1.1" xmlns="http://www.w3.org/2000/svg" xmlns:xlink="http://www.w3.org/1999/xlink">
    <!-- Generator: Sketch 3.6.1 (26313) - http://www.bohemiancoding.com/sketch -->
    <title>Shape</title>
    <desc>Created with Sketch.</desc>
    <defs></defs>
    <g id="Page-1" stroke="none" stroke-width="1" fill="none" fill-rule="evenodd">
        <g id="Botling_assets" transform="translate(-419.000000, -277.000000)" fill="#29ABE2">
            <path d="M443.4,302.1 C441.6,304.1 438.7,302.9 436.7,301.9 C433.7,300.5 430.3,300.2 427.1,301 C425.9,301.3 424.8,301.8 423.7,302.4 C422.5,303.1 421.5,304.6 420.2,305.1 C418.5,305.8 422.1,298.4 422.4,297.7 C425.3,291.4 427.7,285.1 431.6,279.3 C433.1,277.1 436.3,275.8 436.9,279.2 C437.4,282.2 435,284.3 434.7,287 C437.5,286.4 443.9,280.8 446.4,285 C449,289.4 439.5,291.6 437.4,293.2 C440.9,295.5 447.5,297.7 443.4,302.1 C441.6,304.1 443.7,301.8 443.4,302.1 L443.4,302.1 Z" id="Shape"></path>
        </g>
    </g>
</svg>