<?xml version="1.0" encoding="UTF-8" standalone="no"?>
<svg width="35px" height="34px" viewBox="0 0 35 34" version="1.1" xmlns="http://www.w3.org/2000/svg" xmlns:xlink="http://www.w3.org/1999/xlink">
    <!-- Generator: Sketch 3.6.1 (26313) - http://www.bohemiancoding.com/sketch -->
    <title>Shape</title>
    <desc>Created with Sketch.</desc>
    <defs></defs>
    <g id="Page-1" stroke="none" stroke-width="1" fill="none" fill-rule="evenodd">
        <g id="Botling_assets" transform="translate(-425.000000, -322.000000)" fill="#29ABE2">
            <path d="M450.4,344.4 C445.4,344.6 438.4,342.4 433.6,343.9 C430.1,344.9 427.7,349.1 427.7,352.6 C427.7,352.9 426,355.5 425.9,355.1 C425.4,353.8 425.9,352.4 426.2,351.1 C427.5,346.9 428.3,342.1 430.7,338.4 C433.2,334.6 437.5,333.4 440.9,330.6 C443.9,328.1 446.1,323.1 450.1,322.1 C452.6,321.5 454.1,324 453.5,326.2 C453,328.1 451.5,329.3 450.5,330.9 C452.2,330.7 457.9,327.5 458.6,330.8 C459.3,333.9 454.5,335.4 452.9,337.1 C454,337.3 462.4,338.4 458.8,341.5 C458.4,342.1 450.5,345.6 450.4,344.4 C449.9,344.4 450.4,344.4 450.4,344.4 L450.4,344.4 Z" id="Shape"></path>
        </g>
    </g>
</svg>