<?xml version="1.0" encoding="UTF-8" standalone="no"?>
<svg width="22px" height="38px" viewBox="0 0 22 38" version="1.1" xmlns="http://www.w3.org/2000/svg" xmlns:xlink="http://www.w3.org/1999/xlink">
    <!-- Generator: Sketch 3.6.1 (26313) - http://www.bohemiancoding.com/sketch -->
    <title>Shape</title>
    <desc>Created with Sketch.</desc>
    <defs></defs>
    <g id="Page-1" stroke="none" stroke-width="1" fill="none" fill-rule="evenodd">
        <g id="Botling_assets" transform="translate(-393.000000, -406.000000)" fill="#29ABE2">
            <path d="M407.1,437.5 C407.2,437.2 407.1,437 407,436.7 C405.4,438.4 405.8,440.7 403.4,442.1 C399.1,444.6 401.3,437.6 400.8,436 C399.4,436.4 394,444.9 393.6,438.5 C393.3,433.9 397,429.7 399.6,426.3 C402.5,422.5 405.6,418.9 408.4,415 C410,412.8 412.1,408.2 414.7,406.9 C414.6,407 414.4,410 414.3,410.5 C413.9,412.7 413.9,414.9 413.8,417.1 C413.6,421.5 413.6,425.9 413.1,430.2 C412.7,433.4 413.1,438.3 411.6,441.1 C408.3,447.3 407.2,437.5 407.1,437.5 C407.1,437.3 407.1,437.5 407.1,437.5 L407.1,437.5 Z" id="Shape"></path>
        </g>
    </g>
</svg>