<?xml version="1.0" encoding="UTF-8" standalone="no"?>
<svg width="27px" height="32px" viewBox="0 0 27 32" version="1.1" xmlns="http://www.w3.org/2000/svg" xmlns:xlink="http://www.w3.org/1999/xlink">
    <!-- Generator: Sketch 3.6.1 (26313) - http://www.bohemiancoding.com/sketch -->
    <title>Shape</title>
    <desc>Created with Sketch.</desc>
    <defs></defs>
    <g id="Page-1" stroke="none" stroke-width="1" fill="none" fill-rule="evenodd">
        <g id="Botling_assets" transform="translate(-402.000000, -366.000000)" fill="#29ABE2">
            <path d="M402.3,379.9 C402.8,376.6 402.8,368.1 406.8,366.7 C413.2,364.4 410.6,372.9 410.3,375.6 C412.3,374.1 415.4,366.9 419,369.1 C421.9,370.9 417.6,375 417.4,377 C419.3,376.4 422.6,372.6 424.9,374.4 C427.8,376.7 421.2,382.5 419.7,384 C418.5,385.3 426.5,386.3 427.1,387.9 C428.1,390.7 429.3,394.8 427.2,397.6 C425.7,395.2 426.9,392.3 423.3,391.3 C419.6,390.2 415.8,391.5 412.1,391.8 C405.8,392.2 402.3,385.4 402.3,379.9 C402.3,379.8 402.3,379.9 402.3,379.9 L402.3,379.9 Z" id="Shape"></path>
        </g>
    </g>
</svg>