<?xml version="1.0" encoding="utf-8"?>
<!-- Generator: Adobe Illustrator 16.0.3, SVG Export Plug-In . SVG Version: 6.00 Build 0)  -->
<!DOCTYPE svg PUBLIC "-//W3C//DTD SVG 1.1//EN" "http://www.w3.org/Graphics/SVG/1.1/DTD/svg11.dtd">
<svg version="1.1" id="Layer_1" xmlns="http://www.w3.org/2000/svg" xmlns:xlink="http://www.w3.org/1999/xlink" x="0px" y="0px"
	 width="239.274px" height="285px" viewBox="0 0 239.274 285" enable-background="new 0 0 239.274 285" xml:space="preserve">
<path fill="#A3D01A" d="M96.827,227.091c-3.191,3.359-0.226,8.146,1.56,11.375c2.462,4.453,2.836,10.188,1.608,15.068
	c-0.988,3.932-3.316,6.221-5.081,9.604c-1.883,3.604,7.314-1.838,7.988-2.217c9.477-5.297,21.091-9.361,29.173-16.73
	c2.271-2.072,6.955-7.941,1.321-9.26c-5.229-1.225-7.99,3.262-12.531,4.154c0.649-4.254,3.612-8.035,4.1-12.615
	c0.33-3.111-1.905-7.787-5.734-6c-5.416,2.529-5.391,10.666-8.337,15.072c-3.203-4.67-7.414-15.441-14.229-8.279
	c0.691-0.727-0.728,0.768-1.024,1.078C96.037,227.925,96.435,227.507,96.827,227.091C93.654,230.431,97.203,226.696,96.827,227.091z
	"/>
<path fill="#FFFF00" d="M94.5,85.477c0.94-8.751-16.994-3.979-16.819-0.728c-0.28-5.235,6.574-16.819-2.591-18.128
	c-9.532-1.362-7.948,13.425-10.743,18.73c-4.29-3.605-5.844-18.157-15.953-12.684c-7.749,4.194-0.837,14.568,1.57,19.617
	c2.792,5.853,3.551,11.625,1.775,17.845c-0.335,1.177-4.296,14.954-5.117,14.688c2.947,0.963,19.419-12.934,22.128-14.436
	C78.998,104.687,93.046,98.946,94.5,85.477C94.332,87.043,94.773,82.939,94.5,85.477C94.909,81.682,94.391,86.504,94.5,85.477z"/>
<path fill-rule="evenodd" clip-rule="evenodd" fill="#FFFF00" d="M111.54,281.8c14.204,0.291,26.207-5.242,39.534-9.457
	c5.179-1.639,11.279-4.865,14.943-8.941c1.848-2.059,2.57-6.008-0.861-6.857c-2.955-0.73-5.521,2.107-8.23,1.545
	c1.486-4.396,6.931-7.334,8.598-12.057c2.696-7.633-5.262-2.436-7.859-0.277c0.313-0.26-4.619,3.793-3.629,1.514
	c1.246-2.863,2.754-5.596,3.955-8.486c1.08-2.6,2.879-5.775,1.47-8.59c-1.405-2.809-5.971,1.193-7.109,2.354
	c-8.575,8.746-11.878,21.461-19.36,31.02c-3.354,4.283-7.107,8.447-11.565,11.617c-1.948,1.385-3.638,3.037-5.81,4.098
	C114.877,279.642,109.826,281.601,111.54,281.8C111.989,281.81,111.33,281.774,111.54,281.8z"/>
<path fill-rule="evenodd" clip-rule="evenodd" fill="#BFD983" d="M82.729,224.237c-5.64,12.883-11.392,26.369-21.232,36.783
	c-3.841,4.064-10.114,8.086-15.411,9.877c-1.371,0.463-12.969,5.275-13.669,3.311c0.048,0.137,6.345-4.293,6.78-4.658
	c2.9-2.416,5.164-5.182,7.486-8.129c4.771-6.053,8.845-12.549,10.56-20.166c0.791-3.51,1.443-6.723,1.332-10.332
	c-0.116-3.766-1.739-7.555-1.317-11.344c0.349-3.115,2.427-6.238,5.476-3.051c1.015,1.059,2.735,7.754,3.286,7.766
	c0.952,0.018,2.004-10.527,2.685-11.859c0.859-1.682,3.444-3.885,5.117-1.861c1.523,1.842,1.283,5.504,1.561,7.717
	c0.494,3.938,5.782-8.738,8.541-6.285C86.673,214.452,83.679,221.421,82.729,224.237C82.521,224.714,82.979,223.495,82.729,224.237z
	"/>
<g>
	<path fill-rule="evenodd" clip-rule="evenodd" fill="#FF8338" d="M86.801,166.714c-0.623,2-0.981,4.057-2.195,5.801
		c-1.26,1.811-2.82,3.297-4.183,5.025c-2.337,2.969-7.129,5.502-10.681,6.76c-4.867,1.688-9.431,5.148-14.054,7.459
		c-2.16,1.08-4.396,1.99-6.58,3.016c-2.479,1.164-5.443,3.303-8.202,3.576c-0.274,0.029,1.39-2.766,1.521-2.977
		c0.825-1.307,2.183-2.744,3.391-3.693c3.349-2.631,4.47-5.738,3.853-9.846c-0.505-3.355-1.461-6.645-2.083-9.98
		c-0.6-3.217-1.846-6.131-1.785-9.465c0.096-5.391,3.512-15.201,10.693-13.166c6.42,1.82,4.641,11.348,4.82,16.174
		c0.936-0.67,1.553-3.059,2.065-4.107c0.623-1.283,1.492-2.479,2.242-3.689c1.261-2.037,4.111-4.313,6.675-3.322
		c2.55,0.99,2.824,3.059,2.88,5.563c0.046,2.09-1.276,4.064-1.341,6.063c1.236-0.521,2.448-2.162,3.553-2.994
		c1.18-0.893,2.479-1.604,3.925-1.973C85.67,159.829,86.927,163.024,86.801,166.714C86.639,167.235,86.815,166.272,86.801,166.714z"
		/>
</g>
<path fill="#4998D2" d="M80.43,12.015c-3.191,3.36-0.226,8.146,1.56,11.376c2.462,4.453,2.836,10.187,1.608,15.067
	c-0.988,3.932-3.316,6.222-5.081,9.604c-1.883,3.604,7.314-1.838,7.988-2.216c9.477-5.298,21.091-9.361,29.173-16.73
	c2.271-2.072,6.955-7.941,1.321-9.261c-5.229-1.225-7.99,3.263-12.531,4.155c0.649-4.254,3.612-8.036,4.1-12.616
	c0.33-3.111-1.905-7.786-5.734-5.999c-5.416,2.529-5.391,10.666-8.337,15.072c-3.203-4.671-7.414-15.441-14.229-8.279
	c0.691-0.727-0.728,0.767-1.024,1.078C79.64,12.849,80.037,12.432,80.43,12.015C77.257,15.356,80.806,11.622,80.43,12.015z"/>
<path fill-rule="evenodd" clip-rule="evenodd" fill="#DB4EB2" d="M104.143,112.513c14.188-0.711,25.772-7.078,38.768-12.222
	c5.051-1.998,10.909-5.647,14.276-9.973c1.698-2.183,2.141-6.175-1.342-6.78c-2.999-0.521-5.36,2.494-8.103,2.123
	c1.174-4.492,6.396-7.807,7.728-12.632c2.151-7.806-5.422-2.062-7.861,0.277c0.296-0.283-4.34,4.109-3.511,1.764
	c1.039-2.943,2.351-5.777,3.345-8.744c0.895-2.67,2.466-5.963,0.86-8.673c-1.601-2.701-5.871,1.612-6.925,2.851
	c-7.937,9.33-10.336,22.246-17.125,32.308c-3.043,4.51-6.493,8.928-10.717,12.404c-1.846,1.519-3.415,3.285-5.506,4.495
	C107.318,110.125,102.417,112.435,104.143,112.513C104.591,112.491,103.93,112.503,104.143,112.513z"/>
<g>
	<path fill-rule="evenodd" clip-rule="evenodd" fill="#4998D2" d="M199.419,183.788c-0.623,2-0.981,4.059-2.195,5.801
		c-1.26,1.813-2.82,3.299-4.183,5.025c-2.337,2.971-7.129,5.504-10.681,6.76c-4.867,1.688-9.431,5.148-14.054,7.461
		c-2.16,1.078-4.396,1.988-6.58,3.014c-2.479,1.164-5.443,3.303-8.202,3.578c-0.274,0.029,1.39-2.768,1.521-2.977
		c0.825-1.309,2.183-2.744,3.391-3.693c3.349-2.631,4.47-5.738,3.853-9.846c-0.505-3.355-1.461-6.645-2.083-9.982
		c-0.6-3.217-1.846-6.131-1.785-9.465c0.096-5.389,3.512-15.201,10.693-13.164c6.42,1.82,4.641,11.346,4.82,16.174
		c0.936-0.672,1.553-3.059,2.065-4.109c0.623-1.281,1.492-2.479,2.242-3.689c1.261-2.035,4.111-4.313,6.675-3.32
		c2.55,0.99,2.824,3.057,2.88,5.563c0.046,2.088-1.276,4.064-1.341,6.063c1.236-0.523,2.448-2.164,3.553-2.996
		c1.18-0.891,2.479-1.604,3.925-1.971C198.288,176.905,199.545,180.101,199.419,183.788
		C199.257,184.31,199.434,183.349,199.419,183.788z"/>
</g>
<g>
	<path fill-rule="evenodd" clip-rule="evenodd" fill="#FFFF00" d="M208.111,97.85c8.441,2.271,0.589,11.523,1.443,16.088
		c3.442-2.287,12.87-11.763,15.031-2.375c1.789,7.76-6.677,14-12.673,17.053c-11.597,5.908-29.884,12.871-42.827,13.287
		c3.68-6.801,12.724-7.498,15.327-16.062c2.341-7.703-2.898-14.726-5.78-21.424c-2.744-6.374,1.166-11.795,8.168-9.667
		c3.74,1.136,6.373,3.463,7.863,6.943c0.152,0.356,2.645,6.423,2.166,6.538c0.643-0.157,3.357-6.552,4.082-7.396
		C202.915,98.506,205.799,97.53,208.111,97.85C209.73,98.285,207.712,97.795,208.111,97.85z"/>
</g>
<g>
	<path fill-rule="evenodd" clip-rule="evenodd" fill="#DB4EB2" d="M151.804,145.089c-0.739-2.541-2.753-4.348-5.431-4.254
		c-2.631,0.092-4.349,3.248-5.407,5.297c-1.112,2.15-1.9,4.42-2.797,6.666c-0.771,1.932-1.681,5.758-3.479,6.969
		c0.097-1.867,1.326-3.814,1.917-5.576c0.693-2.066,1.079-4.096,1.097-6.279c0.026-3.549-2.438-8.486-6.695-6
		c-3.162,1.848-3.991,7.475-4.364,10.773c-0.33,2.953-0.938,9.309-4.056,10.781c0.705-5.424,2.954-11.311-0.379-16.518
		c-1.337-2.086-4.506-1.895-5.671,0.188c-1.413,2.525-2.022,4.982-2.346,7.857c-0.33,2.941,0.419,6.043,0.67,8.953
		c0.286,3.324,0.522,6.6-0.11,9.904c-0.621,3.234-2.111,5.555-3.999,8.229c-0.545,0.771-5.191,5.824-5.135,5.867
		c0.799,0.602,5.088-2.428,6.038-2.828c2.665-1.129,5.084-2.715,7.466-4.35c5.283-3.629,10.179-7.83,15.509-11.377
		C142.964,163.851,155.041,157.159,151.804,145.089C151.506,144.067,152.171,146.46,151.804,145.089z"/>
</g>
</svg>
