<?xml version="1.0" encoding="UTF-8" standalone="no"?>
<svg width="29px" height="31px" viewBox="0 0 29 31" version="1.1" xmlns="http://www.w3.org/2000/svg" xmlns:xlink="http://www.w3.org/1999/xlink">
    <!-- Generator: Sketch 3.6.1 (26313) - http://www.bohemiancoding.com/sketch -->
    <title>Shape</title>
    <desc>Created with Sketch.</desc>
    <defs></defs>
    <g id="Page-1" stroke="none" stroke-width="1" fill="none" fill-rule="evenodd">
        <g id="Botling_assets" transform="translate(-355.000000, -296.000000)" fill="#29ABE2">
            <path d="M379.2,324.3 C373.8,318 365.7,313.9 358.6,309.8 C357.6,309.2 355.1,308.4 355.2,306.9 C355.3,305 357.8,305 359.2,305.3 C362.8,305.9 365.4,308.9 368.9,309.9 C368.5,308.1 358.5,296 365.4,296.8 C370.2,297.4 374.7,305.1 376.3,309.1 C376.4,305.9 376.6,302.8 378.2,300 C380.3,296.2 384,297.9 383.8,301.9 C383.6,306 382.2,309.9 381.8,313.9 C381.7,315 381.1,326.2 381.1,326.2 C380.3,326.1 379.6,324.8 379.2,324.3 C377.6,322.6 380,325.3 379.2,324.3 L379.2,324.3 Z" id="Shape"></path>
        </g>
    </g>
</svg>