<?xml version="1.0" encoding="utf-8"?>
<!-- Generator: Adobe Illustrator 16.0.3, SVG Export Plug-In . SVG Version: 6.00 Build 0)  -->
<!DOCTYPE svg PUBLIC "-//W3C//DTD SVG 1.1//EN" "http://www.w3.org/Graphics/SVG/1.1/DTD/svg11.dtd">
<svg version="1.1" id="Layer_1" xmlns="http://www.w3.org/2000/svg" xmlns:xlink="http://www.w3.org/1999/xlink" x="0px" y="0px"
	 width="33.5px" height="15.166px" viewBox="0 0 33.5 15.166" enable-background="new 0 0 33.5 15.166" xml:space="preserve">
<g id="XMLID_3_">
	<g>
		<path fill="#FF7BAC" d="M19.762,13.104C12.351,14.637,4.787,10.377,1.01,4.339l0.042-0.027c1.365-2.816,2.086-3.304,5.172-3.146
			C9.609,1.34,29.195,0.524,29.815,0.739c0.437,0.154,1.207,0.377,1.802,0.68c-1.428,2.667-1.318,6.595-3.631,8.719
			C25.701,12.23,22.641,12.512,19.762,13.104z"/>
		<path fill="#A3D01A" d="M17.023,14.838c-3.641-0.091-6.556-0.134-10.098-1.763c-2.579-1.187-6.692-5.59-5.965-8.812
			c0.017,0.024,0.033,0.05,0.05,0.075c3.777,6.038,11.341,10.298,18.751,8.766c2.879-0.593,5.939-0.874,8.225-2.967
			c2.313-2.124,2.203-6.052,3.631-8.719c3.488,0.695-0.936,8.319-1.926,9.343c-3.12,3.207-7.021,4.175-11.304,4.111l-0.014-0.003
			c-0.009,0.005-0.03,0.008-0.044,0.005c0.044-0.005,0.021-0.003-0.101-0.006c-0.044,0.005-0.094,0.002-0.144-0.001
			c0.014,0.003-0.15-0.009-0.344-0.013l-0.353-0.008l-0.136-0.006c0,0-0.145-0.001-0.028-0.006c-0.036,0-0.071,0-0.094,0.003
			C17.01,14.835,17.001,14.841,17.023,14.838z"/>
		<path fill="#A3D01A" d="M17.226,14.836c-0.116,0.005,0.028,0.006,0.028,0.006c-0.072,0-0.152,0.005-0.23-0.004
			c-0.022,0.003-0.014-0.003,0.108,0.001C17.154,14.836,17.189,14.836,17.226,14.836z"/>
	</g>
	<g>
	</g>
</g>
<path fill="#FF00FF" d="M7.68,4.737C7.031,5.06,6.77,5.688,6.546,6.304c-0.117,0.32-0.516,1.24,0.263,1.153
	C7.2,7.413,7.544,6.509,7.671,6.16c0.173-0.482,0.154-0.77-0.013-1.237L7.68,4.737z"/>
<path fill="#FF00FF" d="M10.655,6.042C10.099,6.506,9.99,7.178,9.915,7.828c-0.04,0.339-0.216,1.325,0.521,1.06
	c0.372-0.133,0.498-1.091,0.54-1.46c0.057-0.509-0.027-0.784-0.298-1.201L10.655,6.042z"/>
<path fill="#FF00FF" d="M14.811,6.895c-0.556,0.464-0.666,1.137-0.74,1.787c-0.039,0.338-0.217,1.325,0.521,1.06
	c0.372-0.133,0.498-1.091,0.54-1.46c0.058-0.509-0.027-0.784-0.298-1.201L14.811,6.895z"/>
<path fill="#FF00FF" d="M19.802,7.198c-0.557,0.464-0.665,1.136-0.74,1.786c-0.039,0.338-0.217,1.325,0.521,1.061
	c0.371-0.134,0.498-1.092,0.54-1.461c0.057-0.509-0.027-0.784-0.299-1.201L19.802,7.198z"/>
<path fill="#FF00FF" d="M24.315,5.261c-0.487,0.535-0.503,1.216-0.489,1.871c0.009,0.341-0.031,1.343,0.663,0.979
	c0.35-0.183,0.343-1.15,0.334-1.521c-0.013-0.512-0.135-0.772-0.46-1.148L24.315,5.261z"/>
</svg>
