<?xml version="1.0" encoding="utf-8"?>
<!-- Generator: Adobe Illustrator 16.0.3, SVG Export Plug-In . SVG Version: 6.00 Build 0)  -->
<!DOCTYPE svg PUBLIC "-//W3C//DTD SVG 1.1//EN" "http://www.w3.org/Graphics/SVG/1.1/DTD/svg11.dtd">
<svg version="1.1" id="Layer_1" xmlns="http://www.w3.org/2000/svg" xmlns:xlink="http://www.w3.org/1999/xlink" x="0px" y="0px"
	 width="24.5px" height="22.5px" viewBox="0 0 24.5 22.5" enable-background="new 0 0 24.5 22.5" xml:space="preserve">
<g id="XMLID_4_">
	<g>
		<polygon fill="#F7931E" points="13.589,8.5 13.629,8.51 13.62,8.51 		"/>
		<path fill="#F7931E" d="M18.469,11.79c0.07,1.37-0.26,2.94-1.41,4.22c-0.29,0.3-0.64,0.58-1,0.8
			c-0.39,0.181-0.79,0.421-1.199,0.48l-0.62,0.13l-0.08-0.21c0.09-0.01-0.17-0.21-0.15-0.21H13.98l-0.12,0.23l-0.24,0.119
			c-0.33,0-0.61,0.091-0.99,0.051c-0.42-0.061-0.84-0.101-1.26-0.181c-0.4-0.109-0.76-0.26-1.14-0.41
			c-0.73-0.359-1.4-0.85-1.95-1.449c-1.1-1.21-1.68-2.761-1.84-4.301C6.27,9.48,6.49,7.84,7.08,6.35
			c0.25,0.07,0.45,0.101,0.59,0.091l0.46,0.149c-0.45,1.38-0.49,2.87-0.12,4.19c0.33,1.239,0.99,2.31,1.83,3
			c0.42,0.35,0.89,0.59,1.37,0.77c0.24,0.061,0.49,0.16,0.72,0.2c0.23,0.02,0.46,0.04,0.681,0.08c0.26,0,0.62-0.03,0.93-0.04
			l0.229-0.01h0.061l0.04-0.011l0.3-0.079c0.4-0.091,0.69-0.301,0.96-0.53c0.521-0.521,0.811-1.4,0.8-2.271
			c-0.01-0.859-0.27-1.71-0.71-2.31c-0.12-0.14-0.22-0.3-0.359-0.4c-0.13-0.12-0.261-0.26-0.36-0.3c-0.11-0.07-0.18-0.18-0.45-0.24
			l-0.34-0.1l-0.08-0.03l-0.04-0.01h-0.04c-0.52-0.08-1,0.11-1.38,0.58c-0.36,0.46-0.55,1.07-0.58,1.6
			c-0.03,0.551,0.12,1.011,0.32,1.37c0.12,0.17,0.22,0.351,0.38,0.45c0.14,0.12,0.27,0.22,0.41,0.28c0.25,0.16,0.54,0.21,0.71,0.26
			c0.18,0.04,0.28,0.06,0.28,0.06L13.65,13.4c0,0-0.091,0-0.271,0.01c-0.189,0.01-0.439,0.05-0.86-0.061
			c-0.21-0.02-0.42-0.109-0.64-0.229c-0.24-0.101-0.439-0.29-0.68-0.49c-0.42-0.439-0.76-1.09-0.88-1.87
			c-0.11-0.77-0.01-1.66,0.46-2.56c0.25-0.431,0.59-0.88,1.11-1.21c0.25-0.16,0.53-0.311,0.851-0.37c0.31-0.11,0.62-0.12,0.95-0.11
			h0.239l0.28,0.05l0.35,0.07c0.2,0.01,0.551,0.15,0.881,0.3c0.35,0.141,0.59,0.33,0.859,0.521c0.271,0.18,0.48,0.43,0.7,0.67
			C17.86,9.12,18.37,10.41,18.469,11.79z"/>
		<path fill="#00FFFF" d="M11.919,19.09c-2.24-0.109-4.36-0.88-5.99-2.05c-1.66-1.12-2.79-2.65-3.41-4.15
			C1.93,11.36,1.89,9.86,2.049,8.64c0.16-1.239,0.54-2.189,0.81-2.83C2.95,5.62,3.02,5.45,3.08,5.31c0.96-0.05,2.91,0.78,4,1.04
			c-0.59,1.49-0.81,3.131-0.64,4.71c0.16,1.54,0.74,3.091,1.84,4.301c0.55,0.6,1.22,1.09,1.95,1.449c0.38,0.15,0.74,0.301,1.14,0.41
			c0.42,0.08,0.84,0.12,1.26,0.181c0.38,0.04,0.66-0.051,0.99-0.051l0.24-0.119L13.98,17h0.029c-0.02,0,0.24,0.2,0.15,0.21
			l0.08,0.21l0.62-0.13c0.409-0.06,0.81-0.3,1.199-0.48c0.36-0.22,0.71-0.5,1-0.8c1.15-1.279,1.48-2.85,1.41-4.22
			c-0.1-1.38-0.609-2.67-1.47-3.67c-0.22-0.24-0.43-0.49-0.7-0.67c-0.27-0.19-0.51-0.38-0.859-0.521
			c-0.33-0.149-0.681-0.29-0.881-0.3l-0.35-0.07l-0.28-0.05H13.69c-0.33-0.01-0.641,0-0.95,0.11c-0.32,0.06-0.601,0.21-0.851,0.37
			c-0.52,0.33-0.86,0.779-1.11,1.21c-0.47,0.899-0.57,1.79-0.46,2.56c0.12,0.78,0.46,1.431,0.88,1.87c0.24,0.2,0.439,0.39,0.68,0.49
			c0.22,0.12,0.43,0.21,0.64,0.229c0.421,0.11,0.671,0.07,0.86,0.061c0.18-0.01,0.271-0.01,0.271-0.01l0.04-0.301
			c0,0-0.101-0.02-0.28-0.06c-0.17-0.05-0.46-0.1-0.71-0.26c-0.141-0.061-0.271-0.16-0.41-0.28c-0.16-0.1-0.26-0.28-0.38-0.45
			c-0.2-0.359-0.351-0.819-0.32-1.37c0.03-0.529,0.22-1.14,0.58-1.6c0.38-0.47,0.86-0.66,1.38-0.58h0.04l0.03,0.01h0.01l0.08,0.03
			l0.34,0.1c0.271,0.061,0.34,0.17,0.45,0.24c0.1,0.04,0.23,0.18,0.36,0.3C15,9.28,15.099,9.44,15.219,9.58
			c0.44,0.6,0.7,1.45,0.71,2.31c0.011,0.87-0.279,1.75-0.8,2.271c-0.27,0.229-0.56,0.439-0.96,0.53l-0.3,0.079l-0.04,0.011h-0.061
			l-0.229,0.01c-0.31,0.01-0.67,0.04-0.93,0.04c-0.221-0.04-0.45-0.061-0.681-0.08c-0.229-0.04-0.479-0.14-0.72-0.2
			c-0.48-0.18-0.95-0.42-1.37-0.77c-0.84-0.69-1.5-1.761-1.83-3C7.64,9.46,7.68,7.97,8.129,6.59c0.39-1.2,1.1-2.32,2.13-3.149
			c0.54-0.4,1.13-0.75,1.79-0.95c0.66-0.181,1.34-0.23,2.021-0.16c1.359,0.17,2.649,0.81,3.72,1.7c2.13,1.77,3.54,4.41,3.77,6.899
			c0.101,1.25-0.13,2.44-0.699,3.44c-0.061,0.13-0.15,0.25-0.23,0.37l-0.21,0.3l-0.689,0.83c-0.44,0.46-0.811,0.82-1.32,1.21
			c-0.96,0.72-2.01,1.28-3.12,1.6C14.179,19,13.04,19.13,11.919,19.09z"/>
		<path fill="#F7931E" d="M2.359,5.53c0.45-0.561,0.69-0.86,0.69-0.86l0.24,0.16c0,0-0.07,0.16-0.21,0.479
			C3.02,5.45,2.95,5.62,2.859,5.81C2.589,6.45,2.209,7.4,2.049,8.64C1.89,9.86,1.93,11.36,2.52,12.89c0.62,1.5,1.75,3.03,3.41,4.15
			c1.63,1.17,3.75,1.94,5.99,2.05c1.12,0.04,2.26-0.09,3.37-0.41c1.11-0.319,2.16-0.88,3.12-1.6c0.51-0.39,0.88-0.75,1.32-1.21
			l0.689-0.83l0.21-0.3c0.08-0.12,0.17-0.24,0.23-0.37c0.569-1,0.8-2.19,0.699-3.44C21.33,8.44,19.919,5.8,17.79,4.03
			c-1.07-0.891-2.36-1.53-3.72-1.7c-0.681-0.07-1.36-0.021-2.021,0.16c-0.66,0.2-1.25,0.55-1.79,0.95
			C9.229,4.27,8.52,5.39,8.129,6.59L7.669,6.44C7.529,6.45,7.33,6.42,7.08,6.35c0.55-1.38,1.42-2.63,2.57-3.6
			c1.25-1.03,2.85-1.6,4.5-1.54c1.63,0.05,3.21,0.63,4.59,1.48c2.72,1.72,4.92,4.51,5.45,7.92c0.27,1.689,0.04,3.52-0.75,5.1
			c-0.08,0.2-0.19,0.39-0.311,0.57l-0.16,0.279l-0.09,0.141l-0.04,0.069c-0.03,0.04,0.03-0.029-0.07,0.091l-0.02,0.029l-0.65,0.86
			c-0.51,0.61-1.13,1.26-1.729,1.75c-2.46,2.1-5.75,3-8.65,2.71c-2.93-0.229-5.51-1.44-7.43-3.05c-1.93-1.62-3.17-3.7-3.65-5.69
			c-0.48-2-0.21-3.81,0.25-5.12C1.35,7.03,1.939,6.12,2.359,5.53z"/>
	</g>
	<g>
	</g>
</g>
</svg>
