<?xml version="1.0" encoding="utf-8"?>
<!-- Generator: Adobe Illustrator 16.0.3, SVG Export Plug-In . SVG Version: 6.00 Build 0)  -->
<!DOCTYPE svg PUBLIC "-//W3C//DTD SVG 1.1//EN" "http://www.w3.org/Graphics/SVG/1.1/DTD/svg11.dtd">
<svg version="1.1" id="Layer_1" xmlns="http://www.w3.org/2000/svg" xmlns:xlink="http://www.w3.org/1999/xlink" x="0px" y="0px"
	 width="32px" height="31px" viewBox="0 0 32 31" enable-background="new 0 0 32 31" xml:space="preserve">
<path fill-rule="evenodd" clip-rule="evenodd" fill="#F8DC28" d="M14.258,2.246c4.441-1.182,7.459,0.45,10.552,2.576
	c2.88,1.973,4.973,4.965,5.444,8.723c0.604,4.794-2.188,8.135-6.104,11.514c-3.034,2.614-9.156,7.121-18.422-0.441
	c-2.308-1.878-3.724-4.451-3.825-7.672C1.584,7.066,10.899,3.141,14.258,2.246z"/>
<path fill-rule="evenodd" clip-rule="evenodd" fill="#C9447F" d="M7.463,11.313c-0.85,0.076-1.196-1.092-1.162-1.646
	c0.05-0.933,1.034-1.707,1.944-1.461C9.997,8.681,8.309,11.242,7.463,11.313z"/>
<path fill-rule="evenodd" clip-rule="evenodd" fill="#C9447F" d="M13.176,8.08c-2.364,0.246,0.103-3.051,1.492-1.763
	C16.099,7.633,14.934,8.427,13.176,8.08z"/>
<path fill-rule="evenodd" clip-rule="evenodd" fill="#C9447F" d="M20.1,19.49c-0.897-0.19-1.225,1.695-0.641,2.14
	C20.504,22.415,21.6,19.373,20.1,19.49z"/>
<path fill-rule="evenodd" clip-rule="evenodd" fill="#C9447F" d="M12.648,20.764c-0.908,1.064-0.36,3.202,0.799,2.596
	c0.826-0.436,1.076-1.106,1.123-2.072C14.648,19.795,13.556,19.697,12.648,20.764z"/>
<path fill-rule="evenodd" clip-rule="evenodd" fill="#C9447F" d="M7.133,17.099c-1.467-0.296-0.227,3.889,1.003,2.358
	C9.114,18.235,9.307,17.099,7.133,17.099z"/>
<path fill-rule="evenodd" clip-rule="evenodd" fill="#C9447F" d="M14.771,14.525c-0.559,1.489,2.805,1.612,2.752,0.273
	C17.453,13.062,14.883,14.313,14.771,14.525z"/>
<path fill-rule="evenodd" clip-rule="evenodd" fill="#C9447F" d="M24.329,10.701c-0.556,1.491,2.808,1.614,2.755,0.276
	C27.011,9.24,24.443,10.494,24.329,10.701z"/>
<path fill-rule="evenodd" clip-rule="evenodd" fill="#C9447F" d="M24.672,16.609c1.582-0.173,0.174-3.229-0.996-2.581
	C22.155,14.875,24.432,16.607,24.672,16.609z"/>
<path fill-rule="evenodd" clip-rule="evenodd" fill="#C9447F" d="M20.828,5.043c-1.592-0.041-0.611,3.177,0.637,2.693
	C23.086,7.103,21.061,5.08,20.828,5.043z"/>
</svg>
