<?xml version="1.0" encoding="utf-8"?>
<!-- Generator: Adobe Illustrator 16.0.3, SVG Export Plug-In . SVG Version: 6.00 Build 0)  -->
<!DOCTYPE svg PUBLIC "-//W3C//DTD SVG 1.1//EN" "http://www.w3.org/Graphics/SVG/1.1/DTD/svg11.dtd">
<svg version="1.1" id="Layer_1" xmlns="http://www.w3.org/2000/svg" xmlns:xlink="http://www.w3.org/1999/xlink" x="0px" y="0px"
	 width="15.833px" height="37.667px" viewBox="0 0 15.833 37.667" enable-background="new 0 0 15.833 37.667" xml:space="preserve">
<path fill-rule="evenodd" clip-rule="evenodd" fill="#A3D01A" d="M10.771,8.458c0-2.064-0.178-4.201,0-6.255
	c0.035-0.407,0.131-1.321,0.403-1.629c0.397-0.45,0.84-0.001,0.978,0.531c0.315,1.217-0.154,2.757-0.131,3.979
	c0.028,1.447,1.211,2.957,1,4.373"/>
<path fill-rule="evenodd" clip-rule="evenodd" fill="#FF1D25" d="M6.708,8.667c0,3.583-0.85,5.848-1.749,9.729
	c-0.446,1.928-0.857,3.861-1.308,5.795c-0.564,2.428-1.99,4.271-2.624,6.506c-0.265,0.934-1.7,7.435,1.437,5.975
	c1.629-0.758,3.289-3.972,4.182-5.338c3.104-4.748,6.558-10.09,7.574-15.888c0.361-2.058,0.801-2.987,0.926-6.487
	c0.089-2.482-1.729-3.09-4.125-3.375C10.286,5.495,6.708,5.083,6.708,8.667z"/>
<path fill="#FF7BAC" d="M11.958,9.333c0.094,2.906-1.057,10.166-3.25,13.041c-2.797,3.668-5.334,8.084-5.98,11.504
	c0.324,0.121,6.366-9.721,7.096-10.641c1.857-2.346,3.708-10.853,3.364-14.176C13.075,7.972,11.864,6.427,11.958,9.333z"/>
</svg>
