<?xml version="1.0" encoding="utf-8"?>
<svg version="1.1" id="Layer_1" xmlns="http://www.w3.org/2000/svg" xmlns:xlink="http://www.w3.org/1999/xlink" x="0px" y="0px"
	 width="21.667px" height="34.5px" viewBox="0 0 21.667 34.5" enable-background="new 0 0 21.667 34.5" xml:space="preserve">
<path fill="#22B573" d="M4.875,33.5c-0.017-2,3.854-5.315,4.323-8.019c0.715-4.113-3.469-5.413-6.154-7.524
	c-2.047-1.61-2.749-4.274-0.81-6.38c2.135-2.318,3.46-0.787,4.97,2.06C8.2,10.253,4.614,3.222,9.375,1.619
	c0.835,1.153,2.95,5.791,2.788,7.218c1.668-2.502,1.843-7.012,5.225-8.264c2.266,2.726-0.365,9.269-0.53,12.363
	c0.728-1.272,2.198-1.84,2.841-2.991c2.567,4.447-5.557,8.254-6.726,11.597C11.167,26.708,4.875,33.5,4.875,33.5z"/>
<path fill="#8CC63F" d="M17.594,14.344c-0.661,0.32-4.234,2.922-4.984,4.047s2.003-4.925,1.751-6.581
	c-1.035,1.814-2.037,4.846-2.579,6.784c-0.279-0.662-0.608-2.614-0.874-3.498c-0.205-0.677,0.222-3.264-0.514-3.69
	c-1.54,0.771,0.889,7.082,0.7,8.626c-0.761-1.534-3.973-3.011-5.791-3.062c-0.025,3.414,7.565,1.771,5.155,7.072
	c0.418,0.447,0.933-1.089,1.37-2.933s0-1,1.094-1.938S17.874,15.601,17.594,14.344z"/>
</svg>
