<?xml version="1.0" encoding="UTF-8" standalone="no"?>
<svg width="65px" height="52px" viewBox="0 0 65 52" version="1.1" xmlns="http://www.w3.org/2000/svg" xmlns:xlink="http://www.w3.org/1999/xlink">
    <!-- Generator: Sketch 3.7.2 (28276) - http://www.bohemiancoding.com/sketch -->
    <title>group-8svg</title>
    <desc>Created with Sketch.</desc>
    <defs></defs>
    <g id="Page-1" stroke="none" stroke-width="1" fill="none" fill-rule="evenodd">
        <g id="windy-left" transform="translate(-137.000000, -30.000000)">
            <g id="Capa_1">
                <g id="Group" transform="translate(137.000000, 30.000000)">
                    <g id="group-8svg" transform="translate(32.500000, 26.000000) scale(-1, 1) translate(-32.500000, -26.000000) ">
                        <path d="M16.072,32.632 C15.487,32.417 14.386,29.943 14.386,29.943 C11.604,22.716 15.206,14.601 22.434,11.819 C29.66,9.035 37.775,12.638 40.558,19.865 L17.439,33.528 L16.072,32.632 L16.072,32.632 Z" id="path-1_28_" fill="#FF917B"></path>
                        <path d="M59.771,51.918 C62.994,48.821 64.825,44.615 64.887,39.574 C64.981,31.881 59.983,25.003 52.461,23.388 C46.023,22.006 40.042,24.371 36.388,28.802 C34.744,28.104 32.937,27.692 31.038,27.692 C25.23,27.692 20.278,31.302 18.285,36.405 C15.767,35.834 12.906,36.08 9.851,39.002 C7.961,40.808 6.724,43.236 6.735,45.849 C6.739,47.298 7.072,48.618 7.661,49.817 L7.661,49.817" id="path-2_28_" fill="#53ECF4"></path>
                        <path d="M14.298,50.408 C13.471,50.408 12.8,49.51 12.798,48.682 C12.796,47.854 13.466,47.066 14.294,47.063 L38.766,46.941 C43.116,46.932 47.349,42.727 47.475,38.319 C47.538,36.081 46.61,33.42 45.316,32.147 C43.864,30.72 41.935,29.93 39.91,29.953 C37.876,29.97 35.97,30.775 34.543,32.226 C33.458,33.329 32.867,34.787 32.881,36.335 C32.894,37.882 33.509,39.331 34.613,40.416 C36.281,42.056 39.002,42.065 40.678,40.432 C41.355,39.773 41.677,38.818 41.561,37.812 C41.418,36.576 40.807,35.682 39.882,35.36 C39.069,35.076 38.189,35.279 37.579,35.886 C36.993,36.472 36.044,36.472 35.458,35.886 C34.872,35.3 34.872,34.35 35.458,33.765 C36.888,32.335 38.961,31.861 40.87,32.527 C42.894,33.233 44.267,35.08 44.541,37.469 C44.764,39.406 44.118,41.269 42.77,42.581 C39.936,45.342 35.332,45.329 32.51,42.554 C30.835,40.908 29.902,38.707 29.881,36.359 C29.861,34.01 30.757,31.793 32.405,30.118 C34.393,28.096 37.049,26.97 39.885,26.946 C42.76,26.932 45.397,28.005 47.419,29.993 C49.305,31.847 50.561,35.295 50.473,38.375 C50.302,44.386 44.725,50.101 38.773,50.114 L14.302,50.408 C14.301,50.408 14.299,50.408 14.298,50.408 L14.298,50.408 Z" id="path-3_26_" fill="#000000"></path>
                        <path d="M54.925,49.541 C54.531,49.541 54.138,49.386 53.843,49.08 C53.27,48.483 53.288,47.533 53.886,46.959 C56.876,44.086 58.486,40.185 58.54,35.679 C58.628,28.463 54.006,22.417 47.3,20.977 C41.681,19.771 36.226,21.604 32.699,25.879 C32.276,26.392 31.565,26.565 30.956,26.305 C29.408,25.649 27.806,25.315 26.193,25.315 C21.133,25.315 16.676,28.361 14.836,33.074 C14.567,33.766 13.825,34.154 13.108,33.991 C11.32,33.587 8.903,33.473 6.04,36.209 C4.321,37.853 3.379,39.898 3.388,41.966 C3.393,43.129 3.653,44.243 4.161,45.279 C4.527,46.022 4.22,46.921 3.476,47.286 C2.732,47.653 1.833,47.345 1.468,46.601 C0.758,45.155 0.395,43.6 0.388,41.978 C0.376,39.079 1.648,36.26 3.967,34.041 C6.587,31.538 9.403,30.488 12.534,30.853 C15.067,25.628 20.303,22.315 26.193,22.315 C27.856,22.315 29.503,22.596 31.106,23.15 C35.32,18.65 41.666,16.699 47.929,18.044 C55.92,19.76 61.644,27.192 61.54,35.716 C61.475,41.044 59.547,45.679 55.964,49.122 C55.673,49.402 55.299,49.541 54.925,49.541 L54.925,49.541 Z" id="path-4_24_" fill="#000000"></path>
                        <path d="M32.7414764,11.3703664 C32.2504345,11.3703664 31.7497168,11.3192677 31.2731884,11.2095925 C29.4396427,10.789586 28.614789,9.68535536 29.4275481,8.74189871 L35.167659,2.08286455 C35.982837,1.1394079 38.1260052,0.711923578 39.957132,1.13193004 C41.7906778,1.5519365 42.6131125,2.65616713 41.8027724,3.59962378 L36.0602426,10.2599043 C35.460349,10.9565915 34.1347777,11.3703664 32.7414764,11.3703664 L32.7414764,11.3703664 Z" id="path-5_22_" fill="#000000"></path>
                        <path d="M11.2847202,23.2547694 C10.9684721,23.2547694 10.6459925,23.1734927 10.3390916,23.0031985 L2.0138214,18.4110621 C0.832954101,17.7608481 0.301719605,16.0462957 0.825164739,14.581379 C1.347052,13.1164623 2.72888484,12.4527022 3.90975213,13.1067865 L12.2334645,17.6969878 C13.4143318,18.3472018 13.9455663,20.0617542 13.4221211,21.5286061 C13.0357688,22.6103609 12.1804968,23.2547694 11.2847202,23.2547694 L11.2847202,23.2547694 Z" id="path-6_21_" fill="#000000"></path>
                        <path d="M41.5559302,22.9865911 C40.4493854,22.9865911 39.4089031,22.1563942 38.986838,20.8030594 C38.4418234,19.0425869 39.1464887,17.0683102 40.5668297,16.3905056 L48.0612387,12.8149723 C49.4705692,12.1394422 51.0707467,13.0128549 51.6175963,14.7710529 C52.1644459,16.5315254 51.4579456,18.5035275 50.0394397,19.1836066 L42.5450307,22.7591399 C42.220224,22.9138067 41.886242,22.9865911 41.5559302,22.9865911 L41.5559302,22.9865911 Z" id="path-7_17_" fill="#000000"></path>
                        <path d="M2.40562359,37.5346032 C1.44012245,37.5346032 0.529151268,36.7681723 0.161875916,35.5221985 C-0.316063189,33.9013856 0.301408473,32.0858239 1.54116326,31.4596959 L9.73028095,27.3448415 C10.9700357,26.7229017 12.3605498,27.5270259 12.8384889,29.1478388 C13.3164281,30.7665576 12.6989564,32.5842134 11.4592016,33.2061532 L3.27008392,37.3231018 C2.98620734,37.4675928 2.69431164,37.5346032 2.40562359,37.5346032 L2.40562359,37.5346032 Z" id="path-8_15_" fill="#000000"></path>
                        <path d="M22.6264409,11.5280117 C21.1663101,11.5280117 19.7886451,11.1121023 19.2332133,10.4329736 L13.5091123,3.45139348 C12.7887487,2.57057719 13.7201279,1.58151051 15.597439,1.24194614 C17.4723246,0.904660729 19.5752041,1.3410807 20.2979931,2.22303648 L26.0220941,9.2046166 C26.7424576,10.0854329 25.8110785,11.0744996 23.9337674,11.4140639 C23.5044598,11.4915484 23.0630249,11.5280117 22.6264409,11.5280117 L22.6264409,11.5280117 Z" id="path-9_14_" fill="#000000"></path>
                        <path d="M12.072,33.133 C11.902,33.133 11.727,33.103 11.557,33.041 C11.173,32.9 10.374,32.608 9.016,29.552 C7.497,25.613 7.603,21.395 9.285,17.605 C10.968,13.816 14.026,10.908 17.895,9.418 C21.766,7.929 25.982,8.035 29.771,9.717 C33.561,11.4 36.468,14.457 37.957,18.326 C38.255,19.1 37.87,19.968 37.097,20.265 C36.322,20.562 35.455,20.178 35.158,19.404 C33.956,16.283 31.611,13.817 28.554,12.459 C25.495,11.101 22.092,11.016 18.973,12.218 C15.851,13.42 13.385,15.766 12.028,18.823 C10.67,21.88 10.584,25.282 11.786,28.404 C12.12,29.149 12.619,30.06 12.858,30.354 C13.454,30.719 13.731,31.466 13.481,32.147 C13.259,32.755 12.684,33.133 12.072,33.133 L12.072,33.133 Z" id="path-10_13_" fill="#000000"></path>
                    </g>
                </g>
            </g>
        </g>
    </g>
</svg>