<?xml version="1.0" encoding="UTF-8" standalone="no"?>
<svg width="32px" height="119px" viewBox="0 0 32 119" version="1.1" xmlns="http://www.w3.org/2000/svg" xmlns:xlink="http://www.w3.org/1999/xlink">
    <g id="Page-1" stroke="none" stroke-width="1" fill="none" fill-rule="evenodd">
        <g id="beer_bottle">
            <g id="Group">
                <path d="M11.2857143,3.69212411 C11.4,3.09570406 11.4857143,2.49928401 11.6857143,1.90286396 L11.2857143,3.69212411 Z M20.1714286,0.85202864 C20.7428571,0.908830549 21.2857143,0.994033413 21.8285714,1.05083532 C22.1142857,1.07923628 22.2857143,1.44844869 22.0857143,1.64725537 C21.8,1.98806683 22.0571429,2.41408115 22.1428571,2.84009547 C22.3714286,3.74892601 22.6285714,4.68615752 22.8571429,5.59498807 C23.1428571,6.78782816 23.0571429,6.90143198 21.8571429,7.07183771 C21.9714286,7.29904535 22.2,7.55465394 22.2285714,7.81026253 C22.5142857,11.1899761 22.7428571,14.5412888 23.0285714,17.9210024 C23.5714286,24.5952267 24.1714286,31.2694511 24.6571429,37.9720764 C24.8571429,40.6417661 25.2,43.2546539 26.6571429,45.5835322 C26.8857143,45.9527446 27.2,46.2935561 27.5142857,46.6343675 C30.2,49.7016706 31.4857143,53.25179 31.4571429,57.3131265 C31.4,65.4926014 31.4,73.6720764 31.3714286,81.8231504 C31.3428571,87.8441527 31.2857143,93.8651551 31.3428571,99.8861575 C31.3714286,102.783055 31.6857143,105.651551 31.7428571,108.548449 C31.7714286,110.167303 31.6285714,111.814558 31.4285714,113.433413 C31.1714286,115.42148 30.0285714,116.671122 28.0571429,117.125537 C27.4571429,117.267542 26.8571429,117.466348 26.3428571,117.778759 C25.2857143,118.40358 24.1142857,118.204773 22.9714286,118.261575 C21,118.375179 19.0285714,118.346778 17.0857143,118.346778 C15.1714286,118.346778 13.2571429,118.289976 11.3428571,118.261575 C10.3142857,118.233174 9.28571429,118.261575 8.25714286,118.176372 C6.34285714,118.034368 4.45714286,117.665155 2.68571429,116.955131 C2.37142857,116.813126 2.22857143,116.245107 2.02857143,115.875895 C1.97142857,115.762291 1.97142857,115.591885 1.88571429,115.563484 C0.8,114.967064 0.942857143,113.831026 0.885714286,112.922196 C0.742857143,110.110501 0.714285714,107.298807 0.685714286,104.487112 C0.6,96.1940334 0.571428571,87.9009547 0.485714286,79.6078759 C0.428571429,72.3940334 0.285714286,65.2085919 0.257142857,57.9947494 C0.257142857,56.6599045 0.4,55.2966587 0.571428571,53.9618138 C0.885714286,51.4625298 2.02857143,49.3040573 3.77142857,47.5147971 C5.45714286,45.7539379 6.34285714,43.6238663 6.57142857,41.2665871 C6.91428571,37.5176611 7.05714286,33.7403341 7.31428571,29.9914081 C7.68571429,25.049642 8.08571429,20.1078759 8.51428571,15.1945107 C8.71428571,12.8088305 9,10.4515513 9.28571429,8.06587112 C9.31428571,7.78186158 9.48571429,7.49785203 9.6,7.18544153 C8.54285714,7.04343675 8.42857143,6.84463007 8.68571429,5.73699284 C8.94285714,4.71455847 9.17142857,3.66372315 9.42857143,2.64128878 C9.54285714,2.1300716 9.6,1.93126492 9.42857143,1.76085919 C9.22857143,1.56205251 9.28571429,1.22124105 9.57142857,1.16443914 L9.57142857,1.16443914 C9.91428571,1.10763723 10.2857143,1.07923628 10.6285714,1.02243437 L20.1714286,0.85202864 L20.1714286,0.85202864 Z" id="Shape" fill="#FFFFFF"></path>
                <g id="Shape" fill="#000000">
                    <path d="M11.288455,4.40214797 C11.4153995,3.80572792 11.5106079,3.20930788 11.7327608,2.61288783 C11.7962331,2.41408115 11.7327608,2.10167064 11.7327608,1.90286396 C11.7327608,1.70405728 11.6692886,1.39164678 11.7327608,1.1928401 C11.542344,1.78926014 11.4153995,2.38568019 11.288455,2.98210024 C11.1932466,3.43651551 11.3836634,3.9477327 11.288455,4.40214797 L11.288455,4.40214797 L11.288455,4.40214797 Z"></path>
                    <path></path>
                    <path d="M20.1714286,1.56205251 C20.7714286,1.64725537 21.8857143,1.5052506 22.1714286,2.1300716 L22.1714286,0.710023866 C21.4285714,2.95369928 22.9428571,4.94176611 23,7.15704057 L23,5.76539379 C22.8857143,6.30501193 22.3142857,6.30501193 21.8571429,6.36181384 C21.8571429,6.36181384 21.8,7.66825776 21.8571429,7.78186158 C22.4285714,8.66229117 22.3428571,9.74152745 22.4285714,10.7639618 C22.5142857,11.9 22.6,13.0076372 22.6857143,14.1436754 C22.8857143,16.5577566 23.0571429,19.0002387 23.2571429,21.4143198 C23.6285714,26.0436754 24.0285714,30.701432 24.4,35.3307876 C24.7142857,39.1933174 24.5428571,43.851074 27.2,47.00358 C29.7428571,50.0140811 31.4571429,53.4789976 31.4285714,57.5119332 C31.3714286,66.8274463 31.3714286,76.1145585 31.3428571,85.4300716 C31.3142857,89.6050119 31.3142857,93.8083532 31.3142857,97.9832936 C31.3428571,102.32864 31.9714286,106.759189 31.5714286,111.076134 C31.4285714,112.723389 31.2857143,114.285442 30,115.478282 C29.4571429,115.961098 28.7142857,116.216706 28.0285714,116.415513 C26.9428571,116.699523 26,117.324344 24.8857143,117.494749 C22.8857143,117.80716 20.6571429,117.636754 18.6571429,117.636754 C16.3714286,117.636754 14.0857143,117.608353 11.8285714,117.551551 C9.74285714,117.494749 7.68571429,117.466348 5.62857143,117.097136 C4.6,116.898329 3.6,116.585919 2.62857143,116.216706 C2.05714286,115.989499 2.05714286,114.967064 1.51428571,114.597852 C0.857142857,114.171838 0.857142857,113.177804 0.857142857,112.524582 C0.828571429,111.473747 0.771428571,110.451313 0.742857143,109.400477 C0.657142857,106.645585 0.657142857,103.890692 0.628571429,101.1358 C0.542857143,91.7634845 0.514285714,82.3627685 0.4,72.9904535 C0.342857143,68.3610979 0.285714286,63.7601432 0.228571429,59.1307876 C0.2,56.9439141 0.342857143,54.6434368 1,52.5417661 C1.57142857,50.724105 2.74285714,49.2472554 4,47.8556086 C6.11428571,45.5551313 6.42857143,42.6582339 6.65714286,39.7045346 C6.91428571,36.1544153 7.08571429,32.6042959 7.34285714,29.0257757 C7.6,25.5608592 7.88571429,22.0675418 8.17142857,18.6026253 C8.31428571,16.7849642 8.48571429,14.9389021 8.68571429,13.1212411 C8.85714286,11.4171838 8.82857143,9.42911695 9.51428571,7.83866348 C9.57142857,7.72505967 9.54285714,6.41861575 9.51428571,6.41861575 C9.05714286,6.33341289 8.6,6.30501193 8.48571429,5.8221957 L8.48571429,7.15704057 C8.51428571,5.16897375 10.2285714,2.7548926 9.22857143,0.79522673 L9.22857143,2.21527446 C9.45714286,1.27804296 13.9142857,1.67565632 14.6285714,1.64725537 C16.5428571,1.59045346 18.3714286,1.59045346 20.1714286,1.56205251 C20.2,1.56205251 20.1714286,0.142004773 20.1714286,0.142004773 C17.7428571,0.170405728 15.2857143,0.198806683 12.8571429,0.227207637 C11.9428571,0.227207637 11,0.198806683 10.0857143,0.312410501 C9.31428571,0.42601432 9.28571429,0.596420048 9.28571429,1.27804296 C9.28571429,1.8176611 9.25714286,2.1300716 9.51428571,2.58448687 L9.51428571,1.1928401 C9.45714286,2.86849642 8.54285714,4.45894988 8.51428571,6.13460621 C8.51428571,7.12863962 8.4,7.6398568 9.54285714,7.81026253 L9.54285714,6.3902148 C8.74285714,8.2646778 8.8,10.7355609 8.6,12.7520286 C8.37142857,15.1377088 8.17142857,17.4949881 7.97142857,19.8806683 C7.6,24.3112172 7.22857143,28.7417661 6.97142857,33.172315 C6.71428571,37.3756563 7.08571429,42.0902148 4.54285714,45.6687351 C3.51428571,47.1171838 2.25714286,48.253222 1.45714286,49.8436754 C0.628571429,51.4909308 0.4,53.3653938 0.257142857,55.1830549 C1.22402088e-14,58.6195704 0.2,62.1412888 0.228571429,65.5778043 C0.285714286,70.2071599 0.342857143,74.8081146 0.4,79.4374702 C0.485714286,88.8381862 0.514285714,98.2673031 0.628571429,107.668019 C0.657142857,109.599284 0.685714286,111.530549 0.8,113.490215 C0.828571429,114.029833 0.828571429,114.569451 0.942857143,115.109069 C1.08571429,115.790692 1.77142857,116.159905 2.08571429,116.784726 C2.82857143,118.318377 5.57142857,118.488783 7.14285714,118.687589 C9.37142857,118.971599 11.6571429,118.886396 13.8857143,118.943198 C16,118.971599 18.1142857,119 20.2285714,118.971599 C22.3428571,118.943198 24.7714286,119.198807 26.6571429,118.176372 C28.1142857,117.409547 29.5428571,117.494749 30.6285714,116.074702 C31.6857143,114.683055 31.5428571,112.410979 31.6571429,110.763723 C31.8285714,107.611217 31.5142857,104.43031 31.3714286,101.277804 C31.1142857,95.79642 31.2857143,90.2582339 31.3142857,84.7484487 C31.3428571,75.5749403 31.4,66.401432 31.4,57.2279236 C31.4,53.7914081 30.7428571,50.6105012 28.8571429,47.6568019 C27.7428571,45.9243437 26.3428571,44.6463007 25.6,42.6866348 C24.8,40.5849642 24.7142857,38.2844869 24.5428571,36.0692124 C24.1714286,31.0706444 23.7428571,26.0436754 23.3142857,21.0451074 C23.1142857,18.6310263 22.9142857,16.1885442 22.7142857,13.774463 C22.6,12.4680191 22.5142857,11.1615752 22.4,9.85513126 C22.3142857,8.69069212 22.4285714,7.3274463 21.8,6.30501193 L21.8,7.72505967 C23.0285714,7.52625298 22.9428571,7.12863962 22.9428571,6.04940334 C22.9428571,4.40214797 22.2,2.84009547 21.8857143,1.249642 L21.8857143,2.66968974 C22.0857143,2.10167064 22.1142857,1.76085919 22.1142857,1.16443914 C22.1142857,1.229572e-14 21.1428571,0.198806683 20.1142857,0.085202864 C20.2285714,0.142004773 20.1142857,1.56205251 20.1714286,1.56205251 L20.1714286,1.56205251 Z"></path>
                </g>
            </g>
        </g>
    </g>
</svg>