<?xml version="1.0" encoding="utf-8"?>
<!-- Generator: Adobe Illustrator 16.0.3, SVG Export Plug-In . SVG Version: 6.00 Build 0)  -->
<!DOCTYPE svg PUBLIC "-//W3C//DTD SVG 1.1//EN" "http://www.w3.org/Graphics/SVG/1.1/DTD/svg11.dtd">
<svg version="1.1" id="Layer_1" xmlns="http://www.w3.org/2000/svg" xmlns:xlink="http://www.w3.org/1999/xlink" x="0px" y="0px"
	 width="75px" height="75px" viewBox="0 0 75 75" enable-background="new 0 0 75 75" xml:space="preserve">
<path fill="#F8DB29" d="M4.808,44.97c1.744,1.386,4.473,2.963,6.583,1.339c-0.436,0.905-0.02,2.497,0.125,3.466
	c0.202,1.35,0.674,2.144,1.53,3.002c1.464,1.465,2.981,1.765,5.005,1.41c0.046-0.008,0.086-0.022,0.132-0.031
	c0.717,6.638,7.757,10.762,13.838,7.95c2.046-0.942,4.371-3.429,5.128-4.354c0.17-0.209,0.272-0.104,0.285,0.021
	c0.314,3.443,1.224,6.401,5.652,9.275c4.916,3.185,11.254,1.371,14.129-3.737c1.11-1.965,2.056-4.34,2.326-6.622
	c1.272,0.231,2.592,0.205,3.822-0.061c1.941-0.42,3.637-1.812,4.568-3.729c0.59-1.213,1.198-2.376,1.809-3.551
	c0.024-0.045,0.038-0.089,0.061-0.132c2.038-2.141,3.099-4.347,2.93-7.779c-0.134-2.701-0.924-4.484-2.004-5.689
	c-1.625-2.672-4.097-3.806-7.106-3.881c0.377-0.987,0.39-1.579,0.795-4.033c1.303-7.881-6.348-13.823-13.263-11.133
	c-2.096,0.814-4.547,3.149-5.352,4.025c-0.181,0.196-0.277,0.086-0.283-0.039c-0.129-3.457-0.882-6.471-5.15-9.617
	C35.631,7.575,29.208,8.983,26.069,13.9c-0.807,1.257-1.55,2.699-2.072,4.189c-0.962-0.201-1.928-0.315-2.795-0.272
	c-1.975,0.097-3.734,1.641-4.748,3.506c-0.327,0.6-0.614,1.387-0.839,2.215c-0.781-0.307-1.637-0.421-2.437-0.364
	c-1.895,0.136-3.042,1.323-4.333,2.679c-1.337,1.406-1.8,3.003-1.348,5.058c0.132,0.604,0.34,1.491,0.63,2.395
	c-2.489,1.041-4.674,3.754-5.056,6.593C2.822,41.751,3.38,43.837,4.808,44.97z"/>
<g>
	<g>
		<path fill="#4D509B" d="M24.079,37.401c0.444-0.03,0.881-0.069,1.31-0.12c0.429-0.049,0.695-0.082,0.795-0.091
			c0.416-0.039,0.691,0.026,0.827,0.193c0.137,0.168,0.214,0.431,0.23,0.792c0.005,0.108,0.005,0.163,0.01,0.271
			c0.01,0.223,0.013,0.388,0.011,0.5c-0.002,0.112-0.021,0.261-0.055,0.445c-0.035,0.186-0.094,0.324-0.175,0.416
			c-0.081,0.092-0.206,0.181-0.373,0.266c-0.167,0.085-0.368,0.138-0.609,0.158c-1.92,0.166-2.881,0.227-4.801,0.269
			c-0.241,0.005-0.449-0.025-0.624-0.092s-0.307-0.142-0.398-0.224s-0.165-0.215-0.221-0.394s-0.09-0.321-0.104-0.432
			c-0.015-0.11-0.031-0.274-0.047-0.495c-0.329-4.541-0.493-6.81-0.822-11.351c-0.016-0.22-0.025-0.384-0.026-0.495
			c-0.001-0.11,0.015-0.255,0.047-0.435c0.032-0.179,0.09-0.313,0.174-0.397c0.084-0.084,0.213-0.162,0.388-0.236
			s0.39-0.116,0.645-0.126c0.45-0.017,0.674-0.028,1.124-0.052c0.255-0.014,0.475,0.009,0.659,0.067
			c0.184,0.058,0.323,0.124,0.417,0.201c0.094,0.077,0.171,0.204,0.227,0.38c0.055,0.177,0.088,0.319,0.103,0.43
			c0.014,0.11,0.028,0.276,0.041,0.497c0.207,3.574,0.308,5.361,0.515,8.935c0.014,0.235,0.031,0.414,0.053,0.537
			c0.021,0.124,0.091,0.256,0.207,0.395C23.72,37.354,23.878,37.415,24.079,37.401z"/>
		<path fill="#4D509B" d="M31.284,34.324c0.016,0.587,0.023,0.882,0.039,1.469c0.021,0.222,0.122,0.38,0.304,0.474
			s0.387,0.125,0.616,0.093c0.473-0.067,0.918-0.139,1.333-0.214c0.416-0.075,0.666-0.122,0.752-0.135
			c0.444-0.067,0.753-0.047,0.927,0.06s0.263,0.322,0.266,0.646c0.006,0.591,0.009,0.888,0.016,1.479
			c0.003,0.311-0.059,0.535-0.185,0.682c-0.126,0.146-0.345,0.244-0.656,0.29c-2.244,0.334-3.366,0.496-5.609,0.757
			c-0.85,0.099-1.297-0.415-1.343-1.527c-0.188-4.588-0.282-6.883-0.47-11.472c-0.009-0.222-0.012-0.389-0.009-0.501
			c0.002-0.112,0.023-0.262,0.061-0.448c0.038-0.186,0.099-0.328,0.186-0.422c0.086-0.095,0.217-0.187,0.395-0.279
			s0.395-0.154,0.65-0.188c2.32-0.305,3.479-0.49,5.799-0.871c0.3-0.049,0.55-0.034,0.754,0.044
			c0.204,0.079,0.307,0.217,0.309,0.414c0.007,0.718,0.012,1.077,0.02,1.795c0.002,0.226-0.08,0.383-0.242,0.474
			c-0.163,0.09-0.413,0.164-0.754,0.219c-0.312,0.05-0.7,0.104-1.167,0.163c-0.468,0.059-0.784,0.101-0.946,0.126
			c-0.297,0.045-0.53,0.101-0.7,0.168s-0.289,0.166-0.36,0.295c-0.071,0.13-0.113,0.246-0.125,0.345
			c-0.012,0.1-0.015,0.254-0.01,0.464c0.011,0.419,0.021,0.709,0.033,0.869c0.011,0.16,0.058,0.313,0.135,0.464
			s0.189,0.236,0.337,0.257c0.147,0.021,0.36,0.011,0.64-0.031c0.528-0.079,0.983-0.156,1.365-0.229
			c0.381-0.073,0.623-0.119,0.726-0.135c0.543-0.086,0.818,0.194,0.825,0.841c0.006,0.541,0.01,0.812,0.017,1.352
			c0.002,0.197-0.049,0.356-0.149,0.478c-0.101,0.122-0.211,0.202-0.334,0.242c-0.123,0.041-0.292,0.078-0.51,0.111
			c-0.421,0.065-0.879,0.127-1.372,0.186c-0.494,0.059-0.791,0.094-0.892,0.109c-0.232,0.034-0.399,0.097-0.499,0.188
			c-0.1,0.092-0.155,0.193-0.166,0.307C31.277,33.848,31.276,34.044,31.284,34.324z"/>
		<path fill="#4D509B" d="M42.014,26.612c-0.056,3.961-0.086,5.941-0.141,9.902c-0.018,0.273-0.035,0.48-0.059,0.618
			s-0.073,0.298-0.154,0.48c-0.081,0.182-0.21,0.325-0.389,0.43c-0.177,0.105-0.409,0.179-0.692,0.222
			c-0.425,0.064-0.637,0.099-1.062,0.164c-0.241,0.037-0.445,0.032-0.615-0.013s-0.299-0.102-0.384-0.174s-0.147-0.195-0.19-0.373
			c-0.043-0.177-0.067-0.323-0.074-0.435c-0.008-0.112-0.014-0.28-0.014-0.506c0-3.878,0.003-5.817,0.003-9.695
			c0-0.269-0.036-0.438-0.11-0.511s-0.23-0.089-0.467-0.05c-0.044,0.007-0.138,0.028-0.278,0.058
			c-0.141,0.031-0.264,0.054-0.368,0.071c-0.667,0.111-1.001-0.031-1.004-0.426c-0.006-0.719-0.009-1.079-0.015-1.797
			c-0.001-0.197,0.098-0.37,0.299-0.517c0.201-0.146,0.454-0.244,0.754-0.295c2.481-0.421,3.721-0.643,6.202-1.04
			c0.3-0.048,0.551-0.031,0.75,0.052c0.198,0.082,0.299,0.225,0.294,0.425c-0.016,0.728-0.023,1.093-0.039,1.821
			c-0.009,0.4-0.35,0.65-1.015,0.754c-0.045,0.007-0.134,0.019-0.267,0.032c-0.133,0.014-0.253,0.029-0.357,0.046
			c-0.266,0.042-0.433,0.107-0.501,0.196C42.053,26.141,42.018,26.328,42.014,26.612z"/>
		<path fill="#4D509B" d="M48.567,22.921c-0.032,0.871-0.048,1.305-0.08,2.175c-0.016,0.417-0.162,1.015-0.438,1.792
			c-0.18,0.509-0.371,0.861-0.575,1.059c-0.203,0.198-0.466,0.317-0.787,0.36c-0.29,0.039-0.438,0.061-0.728,0.101
			c-0.22,0.03-0.361,0.029-0.426-0.005c-0.065-0.034-0.097-0.143-0.092-0.329c0.004-0.143,0.104-0.336,0.302-0.578
			c0.197-0.242,0.301-0.513,0.31-0.814c0.006-0.2-0.022-0.316-0.079-0.351c-0.058-0.035-0.175-0.039-0.353-0.014
			c-0.236,0.034-0.446-0.024-0.634-0.175c-0.188-0.15-0.281-0.333-0.276-0.547c0.021-0.857,0.03-1.287,0.051-2.144
			c0.005-0.2,0.038-0.369,0.102-0.506c0.062-0.137,0.156-0.237,0.284-0.299s0.238-0.106,0.32-0.132
			c0.083-0.026,0.195-0.052,0.346-0.074c0.728-0.107,1.095-0.158,1.822-0.256c0.164-0.022,0.288-0.034,0.37-0.038
			c0.082-0.003,0.178,0.012,0.289,0.048c0.109,0.036,0.186,0.117,0.226,0.24S48.575,22.72,48.567,22.921z"/>
		<path fill="#4D509B" d="M49.17,26.325c0.032-0.806,0.165-1.52,0.405-2.141s0.519-1.1,0.838-1.436
			c0.319-0.336,0.712-0.617,1.178-0.842c0.466-0.225,0.872-0.372,1.219-0.443c0.347-0.072,0.746-0.126,1.196-0.157
			c0.959-0.066,1.716-0.02,2.268,0.119c0.552,0.139,0.815,0.366,0.795,0.671c-0.045,0.671-0.065,1.005-0.11,1.676
			c-0.029,0.436-0.328,0.657-0.891,0.676c-0.071,0.002-0.106,0.006-0.178,0.009c-0.089,0.003-0.35-0.029-0.782-0.088
			c-0.434-0.059-0.767-0.077-1.004-0.062c-0.637,0.04-0.972,0.354-1.003,0.932c-0.019,0.347,0.037,0.628,0.165,0.842
			c0.127,0.214,0.395,0.48,0.801,0.801c1.173,0.927,1.944,1.821,2.319,2.632s0.525,1.708,0.459,2.681
			c-0.086,1.25-0.342,2.174-0.767,2.773c-0.581,0.819-1.379,1.383-2.383,1.697c-0.602,0.188-1.289,0.305-2.054,0.36
			c-0.878,0.063-1.608,0.037-2.195-0.093c-0.588-0.129-0.874-0.39-0.858-0.793c0.026-0.665,0.037-0.996,0.063-1.66
			c0.014-0.345,0.287-0.55,0.817-0.604c0.129-0.013,0.421,0.012,0.875,0.078c0.453,0.065,0.906,0.081,1.365,0.046
			c0.329-0.025,0.652-0.159,0.974-0.403c0.32-0.244,0.491-0.524,0.509-0.843c0.012-0.203,0.004-0.368-0.025-0.496
			c-0.029-0.127-0.137-0.332-0.323-0.608c-0.187-0.275-0.483-0.6-0.88-0.971c-0.786-0.736-1.338-1.266-1.65-1.586
			c-0.313-0.32-0.588-0.718-0.823-1.193C49.253,27.425,49.147,26.9,49.17,26.325z"/>
		<path fill="#4D509B" d="M25.097,44.021c-0.614,0.042-0.98,0.159-1.095,0.359c-0.114,0.2-0.15,0.639-0.111,1.315
			c0.032,0.554,0.098,0.91,0.197,1.071c0.099,0.161,0.362,0.231,0.79,0.205c0.331-0.021,0.635-0.047,0.91-0.081
			c0.275-0.033,0.447-0.054,0.516-0.06c0.565-0.044,0.913-0.01,1.042,0.111c0.13,0.121,0.207,0.425,0.228,0.91
			c0.003,0.075,0.003,0.112,0.007,0.188c0.034,0.778-0.009,1.263-0.13,1.454c-0.122,0.191-0.517,0.318-1.184,0.366
			c-0.15,0.011-0.402,0.022-0.757,0.031c-0.355,0.008-0.582,0.012-0.677,0.017c-0.328,0.018-0.521,0.092-0.582,0.219
			c-0.062,0.128-0.077,0.468-0.045,1.021c0.073,1.261,0.111,1.89,0.184,3.15c0.013,0.222,0.02,0.387,0.02,0.497
			c0,0.112-0.016,0.261-0.045,0.441c-0.03,0.181-0.081,0.313-0.156,0.397c-0.075,0.086-0.192,0.168-0.348,0.241
			c-0.155,0.074-0.346,0.11-0.572,0.115c-0.399,0.008-0.598,0.012-0.997,0.013c-0.226,0.001-0.421-0.034-0.585-0.104
			c-0.165-0.069-0.288-0.146-0.374-0.23c-0.086-0.083-0.155-0.215-0.208-0.395s-0.087-0.325-0.102-0.437
			c-0.015-0.109-0.032-0.273-0.048-0.494c-0.329-4.54-0.493-6.811-0.822-11.352c-0.016-0.22-0.021-0.397-0.017-0.535
			c0.003-0.138,0.032-0.307,0.088-0.506s0.177-0.352,0.36-0.457c0.183-0.104,0.422-0.16,0.719-0.166
			c2.101-0.044,3.151-0.114,5.251-0.305c0.282-0.025,0.522,0.008,0.717,0.1c0.195,0.093,0.296,0.236,0.305,0.431
			c0.03,0.709,0.044,1.063,0.074,1.772c0.009,0.208-0.044,0.353-0.16,0.434c-0.116,0.08-0.362,0.138-0.739,0.171
			c-0.14,0.013-0.36,0.026-0.661,0.036C25.791,43.978,25.459,43.996,25.097,44.021z"/>
		<path fill="#4D509B" d="M32.591,52.263c0.417-0.052,0.829-0.111,1.232-0.178c0.403-0.067,0.652-0.105,0.747-0.118
			c0.391-0.052,0.647,0.005,0.771,0.171c0.124,0.167,0.186,0.432,0.19,0.798c0.001,0.109,0.003,0.166,0.004,0.275
			c0.002,0.226,0.001,0.394-0.004,0.506c-0.006,0.114-0.028,0.265-0.066,0.452c-0.038,0.188-0.095,0.335-0.174,0.429
			c-0.079,0.095-0.2,0.187-0.358,0.277c-0.158,0.092-0.35,0.15-0.576,0.18c-1.803,0.231-2.704,0.342-4.507,0.521
			c-0.226,0.022-0.419,0.009-0.582-0.046c-0.163-0.054-0.284-0.122-0.367-0.198c-0.083-0.075-0.15-0.205-0.198-0.382
			s-0.076-0.32-0.087-0.432c-0.011-0.109-0.021-0.273-0.03-0.496c-0.185-4.59-0.275-6.887-0.459-11.477
			c-0.009-0.223-0.013-0.389-0.01-0.501c0.002-0.112,0.021-0.264,0.056-0.449c0.035-0.185,0.093-0.321,0.175-0.413
			c0.082-0.093,0.205-0.185,0.372-0.273s0.371-0.147,0.611-0.176c0.423-0.05,0.635-0.073,1.058-0.126
			c0.24-0.03,0.445-0.022,0.616,0.025c0.171,0.048,0.301,0.109,0.388,0.183c0.086,0.072,0.155,0.194,0.202,0.37
			c0.046,0.177,0.075,0.321,0.085,0.433c0.01,0.111,0.017,0.278,0.022,0.502c0.094,3.617,0.141,5.426,0.234,9.044
			c0.006,0.237,0.019,0.417,0.036,0.542c0.016,0.124,0.079,0.255,0.183,0.39S32.402,52.286,32.591,52.263z"/>
		<path fill="#4D509B" d="M39.441,54.373c-0.398,0.054-0.597,0.08-0.995,0.135c-0.227,0.031-0.42,0.021-0.579-0.027
			s-0.28-0.108-0.359-0.183c-0.08-0.073-0.142-0.202-0.182-0.38s-0.064-0.322-0.071-0.436c-0.007-0.111-0.013-0.277-0.014-0.504
			c-0.005-1.279-0.009-1.919-0.014-3.198c-0.003-0.818-0.481-2.313-1.471-4.468c-0.025-0.056-0.037-0.084-0.063-0.14
			c-0.283-0.58-0.635-1.409-1.063-2.488s-0.649-1.751-0.654-2.019c-0.006-0.365,0.194-0.576,0.604-0.637
			c0.966-0.143,1.449-0.218,2.415-0.365c0.211-0.032,0.393,0.039,0.541,0.215s0.254,0.353,0.317,0.533
			c0.064,0.181,0.129,0.449,0.201,0.789c0.055,0.26,0.22,0.839,0.483,1.74s0.391,1.361,0.392,1.374
			c0.013,0.141,0.096,0.219,0.207,0.202c0.124-0.019,0.202-0.106,0.209-0.244c0.003-0.053,0.056-0.307,0.17-0.756
			c0.113-0.449,0.242-0.964,0.385-1.545c0.144-0.581,0.241-0.948,0.28-1.094c0.092-0.347,0.164-0.638,0.236-0.854
			c0.071-0.217,0.193-0.435,0.364-0.651s0.379-0.345,0.618-0.381c0.754-0.112,1.129-0.168,1.883-0.275
			c0.254-0.036,0.436-0.051,0.534-0.051c0.098,0.001,0.174,0.035,0.235,0.104c0.063,0.07,0.09,0.198,0.086,0.384
			c-0.006,0.271-0.23,1.023-0.666,2.258c-0.436,1.233-0.793,2.161-1.06,2.78c-0.058,0.135-0.135,0.338-0.234,0.6
			c-0.101,0.264-0.228,0.592-0.377,0.988c-0.15,0.397-0.277,0.758-0.392,1.068c-0.329,0.895-0.545,1.534-0.616,1.905
			c-0.072,0.372-0.112,1.019-0.121,1.941c-0.008,0.759-0.011,1.137-0.019,1.896c-0.003,0.27-0.009,0.479-0.023,0.622
			c-0.015,0.144-0.058,0.316-0.126,0.51s-0.192,0.337-0.372,0.439C39.952,54.264,39.721,54.335,39.441,54.373z"/>
		<path fill="#4D509B" d="M45.508,38.415c0.847-0.109,1.271-0.163,2.117-0.259c0.381-0.043,0.614,0.045,0.697,0.25
			c0.084,0.205,0.116,0.522,0.1,0.954c-0.033,0.849-0.151,2.04-0.354,3.571s-0.323,2.669-0.405,3.357
			c-0.016,0.129-0.027,0.311-0.04,0.521c-0.05,0.804-0.153,1.323-0.249,1.505c-0.095,0.181-0.352,0.29-0.771,0.335
			c-0.285,0.03-0.426,0.048-0.711,0.08c-0.42,0.048-0.672-0.004-0.756-0.157s-0.169-0.65-0.175-1.404
			c-0.001-0.097,0-0.21-0.003-0.331c-0.004-0.12-0.004-0.203-0.004-0.245c-0.001-0.69-0.086-1.809-0.193-3.292
			s-0.152-2.645-0.132-3.488c0.007-0.286,0.023-0.501,0.049-0.646c0.024-0.146,0.101-0.296,0.23-0.456
			C45.038,38.551,45.239,38.45,45.508,38.415z M46.917,53.467c-0.646,0.063-0.968,0.098-1.613,0.169
			c-0.133,0.015-0.235,0.02-0.307,0.014c-0.072-0.006-0.166-0.028-0.277-0.058c-0.112-0.03-0.196-0.104-0.246-0.226
			c-0.05-0.123-0.069-0.286-0.064-0.486c0.021-0.857,0.031-1.287,0.053-2.145c0.015-0.571,0.331-0.895,0.953-0.966
			c0.413-0.048,0.619-0.07,1.032-0.114c0.688-0.073,1.104-0.004,1.243,0.204c0.141,0.209,0.192,0.812,0.154,1.803
			c-0.031,0.82-0.102,1.315-0.2,1.488C47.546,53.324,47.303,53.43,46.917,53.467z"/>
	</g>
</g>
<g>
	<g>
		<path d="M92.08,40.068c0.444-0.03,0.882-0.071,1.311-0.122c0.429-0.05,0.692-0.079,0.793-0.089
			c0.416-0.038,0.694,0.024,0.831,0.191c0.137,0.168,0.211,0.432,0.227,0.793c0.005,0.108,0.005,0.163,0.01,0.271
			c0.01,0.223,0.015,0.388,0.013,0.5c-0.003,0.112-0.021,0.263-0.056,0.447c-0.035,0.186-0.094,0.322-0.175,0.414
			s-0.204,0.18-0.371,0.265s-0.372,0.139-0.613,0.159c-1.921,0.166-2.88,0.227-4.801,0.27c-0.241,0.005-0.448-0.026-0.623-0.093
			s-0.307-0.141-0.397-0.223s-0.166-0.214-0.222-0.393s-0.092-0.321-0.106-0.432c-0.016-0.11-0.03-0.277-0.046-0.498
			c-0.329-4.54-0.493-6.808-0.822-11.348c-0.016-0.22-0.026-0.385-0.026-0.495c-0.001-0.11,0.017-0.255,0.049-0.435
			c0.032-0.179,0.092-0.313,0.176-0.397c0.084-0.084,0.21-0.163,0.385-0.236s0.394-0.117,0.648-0.126
			c0.449-0.017,0.673-0.027,1.122-0.051c0.255-0.014,0.475,0.008,0.658,0.066c0.185,0.058,0.323,0.125,0.418,0.202
			c0.095,0.077,0.169,0.204,0.225,0.38c0.055,0.177,0.089,0.32,0.103,0.431s0.027,0.275,0.04,0.496
			c0.207,3.574,0.311,5.362,0.518,8.936c0.014,0.235,0.034,0.413,0.056,0.536c0.021,0.124,0.088,0.254,0.204,0.393
			C91.721,40.02,91.879,40.082,92.08,40.068z"/>
		<path d="M99.283,36.991c0.016,0.587,0.023,0.881,0.039,1.468c0.021,0.222,0.123,0.38,0.305,0.474s0.388,0.126,0.617,0.094
			c0.474-0.067,0.915-0.14,1.331-0.216c0.416-0.075,0.669-0.121,0.755-0.134c0.444-0.067,0.751-0.048,0.925,0.06
			s0.264,0.324,0.267,0.647c0.006,0.591,0.01,0.887,0.016,1.478c0.003,0.311-0.059,0.539-0.185,0.686s-0.346,0.24-0.657,0.286
			c-2.243,0.334-3.364,0.496-5.607,0.757c-0.85,0.099-1.298-0.415-1.344-1.527c-0.188-4.588-0.283-6.882-0.472-11.471
			c-0.009-0.222-0.01-0.39-0.007-0.502s0.023-0.262,0.061-0.448c0.037-0.186,0.101-0.327,0.188-0.421
			c0.087-0.095,0.218-0.186,0.396-0.278s0.392-0.156,0.646-0.19c2.319-0.305,3.479-0.489,5.8-0.87
			c0.3-0.049,0.551-0.036,0.754,0.043c0.203,0.079,0.307,0.219,0.309,0.416c0.008,0.718,0.011,1.077,0.019,1.795
			c0.002,0.226-0.077,0.382-0.239,0.472c-0.163,0.09-0.415,0.164-0.756,0.219c-0.312,0.05-0.702,0.105-1.169,0.164
			c-0.468,0.059-0.781,0.101-0.944,0.125c-0.297,0.045-0.531,0.1-0.7,0.167s-0.287,0.167-0.358,0.297
			c-0.071,0.13-0.112,0.245-0.124,0.344c-0.012,0.1-0.017,0.256-0.011,0.466c0.011,0.419,0.021,0.707,0.032,0.867
			s0.059,0.316,0.137,0.467s0.188,0.236,0.337,0.256c0.147,0.021,0.36,0.009,0.64-0.033c0.528-0.079,0.982-0.155,1.364-0.228
			c0.381-0.073,0.624-0.119,0.727-0.135c0.543-0.086,0.815,0.196,0.823,0.843c0.006,0.541,0.01,0.809,0.016,1.35
			c0.002,0.197-0.048,0.356-0.147,0.478c-0.101,0.122-0.211,0.202-0.334,0.242c-0.123,0.041-0.291,0.078-0.509,0.112
			c-0.421,0.065-0.881,0.128-1.374,0.188c-0.494,0.059-0.788,0.093-0.89,0.107c-0.232,0.034-0.402,0.098-0.502,0.188
			c-0.1,0.092-0.153,0.194-0.164,0.308C99.278,36.515,99.275,36.711,99.283,36.991z"/>
		<path d="M110.014,29.279c-0.056,3.961-0.084,5.943-0.139,9.904c-0.018,0.272-0.037,0.477-0.061,0.615s-0.073,0.297-0.154,0.479
			c-0.081,0.182-0.209,0.329-0.388,0.434c-0.177,0.105-0.412,0.179-0.695,0.222c-0.425,0.064-0.635,0.096-1.06,0.161
			c-0.241,0.037-0.445,0.032-0.615-0.013s-0.298-0.101-0.383-0.173s-0.148-0.195-0.191-0.373c-0.043-0.177-0.067-0.321-0.074-0.434
			c-0.008-0.112-0.013-0.281-0.013-0.508c0-3.878,0-5.816,0-9.694c0-0.269-0.035-0.44-0.109-0.513s-0.229-0.088-0.467-0.048
			c-0.045,0.007-0.136,0.026-0.276,0.057c-0.142,0.031-0.266,0.056-0.369,0.073c-0.667,0.111-1.003-0.033-1.006-0.428
			c-0.006-0.719-0.008-1.077-0.014-1.795c-0.002-0.197,0.102-0.37,0.303-0.517c0.201-0.146,0.45-0.244,0.75-0.295
			c2.482-0.421,3.721-0.643,6.202-1.04c0.3-0.048,0.552-0.03,0.751,0.052c0.198,0.082,0.299,0.225,0.294,0.424
			c-0.016,0.728-0.026,1.093-0.042,1.821c-0.009,0.4-0.347,0.649-1.012,0.754c-0.045,0.007-0.134,0.019-0.267,0.032
			c-0.133,0.014-0.253,0.028-0.357,0.044c-0.266,0.042-0.433,0.109-0.501,0.198C110.053,28.808,110.018,28.995,110.014,29.279z"/>
		<path d="M116.567,25.588c-0.032,0.871-0.048,1.305-0.08,2.176c-0.016,0.417-0.162,1.015-0.438,1.792
			c-0.18,0.509-0.373,0.861-0.577,1.059c-0.203,0.198-0.464,0.317-0.785,0.36c-0.29,0.039-0.438,0.059-0.728,0.099
			c-0.22,0.03-0.36,0.029-0.425-0.004c-0.065-0.034-0.098-0.143-0.093-0.329c0.004-0.143,0.104-0.336,0.302-0.577
			c0.197-0.242,0.301-0.513,0.31-0.814c0.006-0.2-0.021-0.318-0.078-0.353c-0.058-0.035-0.176-0.038-0.354-0.013
			c-0.236,0.034-0.446-0.025-0.634-0.176c-0.188-0.15-0.282-0.333-0.277-0.546c0.021-0.857,0.031-1.285,0.052-2.143
			c0.005-0.2,0.038-0.37,0.102-0.507c0.062-0.137,0.156-0.236,0.284-0.298s0.237-0.108,0.319-0.134
			c0.083-0.026,0.196-0.052,0.347-0.074c0.728-0.107,1.095-0.158,1.822-0.255c0.164-0.022,0.288-0.033,0.37-0.037
			c0.082-0.003,0.18,0.012,0.291,0.047c0.109,0.036,0.183,0.116,0.223,0.239S116.575,25.387,116.567,25.588z"/>
		<path d="M117.17,28.992c0.032-0.806,0.166-1.521,0.406-2.142s0.518-1.101,0.837-1.436c0.319-0.336,0.712-0.617,1.178-0.842
			c0.466-0.225,0.869-0.373,1.216-0.444c0.347-0.072,0.748-0.125,1.198-0.155c0.959-0.066,1.717-0.021,2.269,0.118
			c0.552,0.139,0.815,0.366,0.795,0.671c-0.045,0.671-0.065,1.006-0.11,1.677c-0.029,0.436-0.327,0.659-0.89,0.678
			c-0.071,0.002-0.107,0.004-0.179,0.007c-0.089,0.003-0.35-0.028-0.782-0.087c-0.434-0.059-0.767-0.078-1.004-0.063
			c-0.637,0.04-0.972,0.355-1.003,0.934c-0.019,0.347,0.037,0.626,0.165,0.84c0.127,0.214,0.395,0.482,0.801,0.803
			c1.173,0.927,1.944,1.82,2.319,2.632s0.526,1.708,0.46,2.682c-0.086,1.25-0.343,2.173-0.768,2.773
			c-0.581,0.819-1.381,1.382-2.385,1.696c-0.602,0.188-1.287,0.307-2.052,0.362c-0.878,0.063-1.606,0.034-2.193-0.095
			c-0.588-0.129-0.876-0.39-0.86-0.792c0.026-0.664,0.037-0.996,0.063-1.661c0.014-0.345,0.287-0.547,0.817-0.601
			c0.129-0.013,0.421,0.01,0.875,0.076c0.453,0.065,0.908,0.081,1.367,0.045c0.329-0.025,0.65-0.16,0.972-0.404
			c0.32-0.244,0.49-0.523,0.508-0.842c0.012-0.203,0.004-0.368-0.025-0.495c-0.029-0.127-0.136-0.332-0.322-0.607
			c-0.187-0.275-0.482-0.601-0.879-0.972c-0.786-0.736-1.339-1.267-1.651-1.587c-0.313-0.32-0.587-0.717-0.822-1.192
			C117.254,30.091,117.147,29.568,117.17,28.992z"/>
		<path d="M93.095,46.688c-0.614,0.042-0.978,0.158-1.092,0.358s-0.151,0.64-0.112,1.316c0.032,0.554,0.1,0.91,0.199,1.071
			s0.36,0.232,0.788,0.206c0.331-0.021,0.633-0.047,0.908-0.081c0.275-0.033,0.446-0.055,0.516-0.061
			c0.565-0.044,0.916-0.011,1.046,0.11s0.206,0.426,0.227,0.911c0.003,0.075,0.004,0.111,0.007,0.187
			c0.033,0.778-0.011,1.263-0.133,1.454s-0.515,0.318-1.183,0.366c-0.15,0.011-0.403,0.023-0.759,0.032
			c-0.355,0.008-0.577,0.011-0.672,0.016c-0.327,0.018-0.524,0.092-0.585,0.219c-0.062,0.128-0.075,0.467-0.043,1.02
			c0.073,1.261,0.108,1.89,0.182,3.15c0.013,0.222,0.02,0.388,0.02,0.498c0,0.112-0.016,0.261-0.045,0.441s-0.081,0.313-0.155,0.397
			c-0.075,0.086-0.193,0.168-0.349,0.241c-0.155,0.074-0.343,0.113-0.569,0.118c-0.398,0.008-0.601,0.01-0.999,0.012
			c-0.227,0.001-0.421-0.034-0.586-0.104c-0.165-0.069-0.285-0.148-0.371-0.232c-0.086-0.083-0.159-0.213-0.212-0.393
			s-0.089-0.325-0.104-0.437c-0.015-0.109-0.029-0.275-0.045-0.496c-0.329-4.54-0.492-6.809-0.821-11.349
			c-0.016-0.22-0.022-0.399-0.018-0.537c0.004-0.138,0.038-0.308,0.094-0.507c0.057-0.199,0.171-0.351,0.354-0.456
			c0.184-0.104,0.423-0.161,0.719-0.167c2.101-0.045,3.152-0.114,5.253-0.305c0.282-0.025,0.524,0.009,0.72,0.101
			c0.195,0.093,0.296,0.236,0.304,0.431c0.03,0.709,0.045,1.065,0.075,1.774c0.009,0.208-0.045,0.353-0.16,0.434
			c-0.115,0.08-0.363,0.136-0.74,0.169c-0.14,0.013-0.36,0.027-0.661,0.037C93.791,46.645,93.458,46.662,93.095,46.688z"/>
		<path d="M100.592,54.928c0.417-0.052,0.825-0.11,1.229-0.177c0.403-0.067,0.652-0.105,0.747-0.118
			c0.391-0.052,0.648,0.005,0.771,0.171c0.123,0.167,0.189,0.432,0.193,0.798c0.001,0.109,0,0.167,0.001,0.276
			c0.003,0.226,0.001,0.393-0.004,0.505c-0.006,0.114-0.027,0.265-0.064,0.452c-0.038,0.188-0.097,0.333-0.176,0.427
			c-0.078,0.095-0.195,0.188-0.354,0.278c-0.158,0.092-0.35,0.151-0.576,0.181c-1.803,0.231-2.706,0.342-4.509,0.521
			c-0.227,0.022-0.42,0.009-0.582-0.046c-0.162-0.054-0.287-0.122-0.37-0.198c-0.083-0.075-0.147-0.204-0.194-0.381
			s-0.078-0.322-0.089-0.434c-0.012-0.109-0.02-0.273-0.028-0.496c-0.185-4.59-0.277-6.887-0.461-11.477
			c-0.009-0.223-0.015-0.389-0.012-0.501c0.002-0.112,0.023-0.261,0.059-0.446c0.035-0.185,0.095-0.324,0.176-0.416
			c0.081-0.093,0.205-0.183,0.372-0.271s0.367-0.148,0.607-0.177c0.424-0.05,0.639-0.074,1.063-0.127
			c0.24-0.03,0.445-0.021,0.616,0.026c0.172,0.048,0.301,0.108,0.388,0.182c0.087,0.072,0.152,0.196,0.199,0.372
			c0.047,0.177,0.076,0.321,0.086,0.433s0.016,0.278,0.021,0.502c0.093,3.617,0.142,5.426,0.235,9.044
			c0.006,0.237,0.019,0.416,0.035,0.541c0.017,0.124,0.077,0.255,0.182,0.39S100.403,54.951,100.592,54.928z"/>
		<path d="M107.441,57.039c-0.398,0.054-0.599,0.08-0.997,0.135c-0.227,0.031-0.42,0.021-0.579-0.027s-0.279-0.108-0.359-0.183
			c-0.08-0.073-0.142-0.202-0.182-0.38c-0.041-0.178-0.064-0.321-0.071-0.435c-0.008-0.111-0.01-0.279-0.011-0.506
			c-0.006-1.279-0.007-1.917-0.013-3.196c-0.004-0.818-0.483-2.313-1.474-4.468c-0.025-0.056-0.036-0.085-0.062-0.141
			c-0.283-0.58-0.639-1.409-1.066-2.488s-0.647-1.751-0.652-2.019c-0.006-0.365,0.195-0.576,0.605-0.637
			c0.966-0.143,1.448-0.216,2.414-0.363c0.212-0.032,0.392,0.037,0.54,0.213s0.255,0.355,0.318,0.536s0.129,0.446,0.201,0.786
			c0.055,0.26,0.219,0.838,0.482,1.739s0.392,1.361,0.393,1.374c0.013,0.141,0.096,0.219,0.207,0.202
			c0.124-0.019,0.203-0.104,0.21-0.242c0.003-0.053,0.055-0.308,0.169-0.757c0.113-0.449,0.241-0.964,0.384-1.545
			c0.144-0.581,0.242-0.948,0.281-1.094c0.092-0.347,0.165-0.637,0.237-0.854c0.071-0.217,0.192-0.436,0.363-0.652
			s0.378-0.343,0.618-0.379c0.754-0.112,1.13-0.169,1.884-0.276c0.254-0.036,0.435-0.052,0.533-0.052
			c0.098,0.001,0.175,0.034,0.236,0.104c0.063,0.07,0.089,0.199,0.085,0.385c-0.006,0.271-0.228,1.023-0.663,2.258
			c-0.436,1.233-0.796,2.162-1.063,2.781c-0.058,0.135-0.135,0.337-0.234,0.599c-0.101,0.264-0.229,0.593-0.378,0.989
			c-0.15,0.397-0.279,0.757-0.394,1.067c-0.329,0.895-0.542,1.534-0.613,1.905c-0.072,0.372-0.112,1.019-0.121,1.941
			c-0.008,0.759-0.011,1.137-0.019,1.896c-0.003,0.27-0.009,0.479-0.023,0.622c-0.015,0.144-0.059,0.316-0.127,0.51
			s-0.192,0.338-0.372,0.44C107.951,56.931,107.721,57.001,107.441,57.039z"/>
		<path d="M113.508,41.082c0.847-0.109,1.271-0.162,2.117-0.258c0.381-0.043,0.614,0.042,0.697,0.247
			c0.084,0.205,0.115,0.522,0.099,0.954c-0.033,0.849-0.15,2.041-0.354,3.572s-0.323,2.671-0.405,3.359
			c-0.016,0.129-0.027,0.308-0.04,0.519c-0.05,0.804-0.153,1.323-0.249,1.505c-0.095,0.181-0.352,0.292-0.771,0.337
			c-0.285,0.03-0.426,0.047-0.711,0.079c-0.42,0.047-0.671-0.004-0.755-0.157s-0.171-0.65-0.177-1.404
			c-0.001-0.097,0.001-0.211-0.002-0.332c-0.004-0.12-0.004-0.2-0.004-0.242c-0.001-0.69-0.086-1.811-0.193-3.294
			s-0.152-2.645-0.132-3.488c0.007-0.286,0.022-0.501,0.048-0.646s0.102-0.297,0.231-0.457
			C113.038,41.216,113.239,41.117,113.508,41.082z M114.917,56.133c-0.646,0.063-0.968,0.098-1.613,0.169
			c-0.133,0.015-0.235,0.021-0.307,0.015c-0.072-0.006-0.168-0.027-0.279-0.057c-0.112-0.03-0.194-0.106-0.244-0.229
			c-0.05-0.123-0.069-0.285-0.064-0.485c0.021-0.857,0.03-1.286,0.052-2.144c0.015-0.571,0.332-0.896,0.954-0.967
			c0.413-0.048,0.619-0.071,1.032-0.115c0.688-0.073,1.104-0.001,1.243,0.207c0.141,0.209,0.192,0.81,0.154,1.801
			c-0.031,0.82-0.101,1.315-0.199,1.488C115.547,55.99,115.303,56.096,114.917,56.133z"/>
	</g>
</g>
<path fill="#FF8338" d="M18.187,16.498c0.923-0.639,2.074-1.046,3.114-1.451c0.432-0.167,0.853-0.296,1.309-0.389
	c0.769-0.155,0.228-0.374-0.219-0.693c-2.461-1.761-4.531-3.785-6.512-6.083c-1.199-1.389-2.791-3.641-4.725-4.078
	C9.485,3.427,8.088,4.985,8.412,6.61c0.146,0.741,0.565,1.445,1.117,1.958c0.216,0.2,1.604,1.063,1.563,1.345
	c0.006-0.045-2.383-0.044-2.6,0.021c-1.207,0.367-1.797,1.604-1.091,2.697c0.535,0.826,1.549,1.148,2.433,1.448
	c0.312,0.105,3.396,0.42,3.433,0.635c0.022,0.134-2.144,0.784-2.338,0.884c-0.692,0.354-1.354,0.795-1.937,1.31
	c-0.558,0.494-1.216,1.197-1.165,2.003C7.893,19.941,9,20.233,9.859,20.196c1.62-0.071,3.259-1.063,4.676-1.762
	C15.749,17.836,17.07,17.27,18.187,16.498C18.932,15.981,17.671,16.854,18.187,16.498z"/>
<path fill="#FF8338" d="M48.996,15.935c-0.873,0.239-2.789,0.143-2.719-1.178c0.034-0.637,0.705-1.035,1.233-1.236
	c0.14-0.052,1.405-0.215,1.441-0.349c0.013-0.048-1.253-0.368-1.359-0.417c-0.49-0.225-1.16-0.686-1.145-1.301
	c0.024-0.939,1.417-1.112,2.103-1.135c0.281-0.01,1.766,0.414,1.95,0.245c-0.12,0.109-1.559-1.22-1.643-1.345
	c-0.821-1.197,0.535-1.774,1.571-1.578c1.197,0.229,2.384,1.087,3.324,1.824c0.581,0.455,1.062,1.014,1.57,1.544
	c0.12,0.125,1.486,1.309,1.493,1.292c-0.14,0.323-1.455,0.566-1.778,0.688c-0.679,0.255-1.324,0.58-1.956,0.938
	c-1.326,0.75-2.614,1.602-4.101,2.01c0.024-0.007,0.049-0.013,0.072-0.021c-0.056,0.015-0.11,0.03-0.166,0.047
	C48.896,15.962,49.084,15.911,48.996,15.935C48.291,16.128,49.153,15.891,48.996,15.935z"/>
<path fill="#FF8338" d="M15.476,57.563c-0.972-0.875-3.507-1.993-4.271-0.242c-0.368,0.844,0.239,1.794,0.791,2.396
	c0.146,0.157,1.674,1.188,1.634,1.383c-0.015,0.071-1.854-0.337-2.024-0.342c-0.78-0.028-1.942,0.132-2.321,0.937
	c-0.578,1.228,1.108,2.354,1.979,2.827c0.356,0.195,2.547,0.609,2.676,0.948c-0.084-0.219-2.803,0.564-2.993,0.67
	c-1.836,1.014-0.458,2.638,1.006,3.055c1.693,0.482,3.781,0.143,5.473-0.198c1.044-0.211,2.027-0.621,3.027-0.976
	c0.238-0.084,2.768-0.725,2.765-0.699c0.029-0.508-1.512-1.674-1.85-2.04c-0.712-0.77-1.333-1.608-1.915-2.479
	c-1.226-1.828-2.336-3.762-3.99-5.252c0.026,0.024,0.054,0.048,0.081,0.072c-0.063-0.054-0.124-0.11-0.186-0.167
	C15.366,57.464,15.575,57.651,15.476,57.563C14.692,56.857,15.651,57.723,15.476,57.563z"/>
</svg>
