<?xml version="1.0" encoding="utf-8"?>
<!-- Generator: Adobe Illustrator 16.0.3, SVG Export Plug-In . SVG Version: 6.00 Build 0)  -->
<!DOCTYPE svg PUBLIC "-//W3C//DTD SVG 1.1//EN" "http://www.w3.org/Graphics/SVG/1.1/DTD/svg11.dtd">
<svg version="1.1" id="Layer_1" xmlns="http://www.w3.org/2000/svg" xmlns:xlink="http://www.w3.org/1999/xlink" x="0px" y="0px"
	 width="75px" height="75px" viewBox="0 0 75 75" enable-background="new 0 0 75 75" xml:space="preserve">
<g>
	<path fill="#F8DB29" d="M4.808,44.97c1.744,1.386,4.473,2.963,6.583,1.339c-0.436,0.905-0.02,2.497,0.125,3.466
		c0.202,1.35,0.674,2.144,1.53,3.002c1.464,1.465,2.981,1.765,5.005,1.41c0.046-0.008,0.086-0.022,0.132-0.031
		c0.717,6.638,7.757,10.762,13.838,7.95c2.046-0.942,4.371-3.429,5.128-4.354c0.17-0.209,0.272-0.104,0.285,0.021
		c0.314,3.443,1.224,6.401,5.652,9.275c4.916,3.185,11.254,1.371,14.129-3.737c1.11-1.965,2.056-4.34,2.326-6.622
		c1.272,0.231,2.592,0.205,3.822-0.061c1.941-0.42,3.637-1.812,4.568-3.729c0.59-1.213,1.198-2.376,1.809-3.551
		c0.024-0.045,0.038-0.089,0.061-0.132c2.038-2.141,3.099-4.347,2.93-7.779c-0.134-2.701-0.924-4.484-2.004-5.689
		c-1.625-2.672-4.097-3.806-7.106-3.881c0.377-0.987,0.39-1.579,0.795-4.033c1.303-7.881-6.348-13.823-13.263-11.133
		c-2.096,0.814-4.547,3.149-5.352,4.025c-0.181,0.196-0.277,0.086-0.283-0.039c-0.129-3.457-0.882-6.471-5.15-9.617
		C35.631,7.575,29.208,8.983,26.069,13.9c-0.807,1.257-1.55,2.699-2.072,4.189c-0.962-0.201-1.928-0.315-2.795-0.272
		c-1.975,0.097-3.734,1.641-4.748,3.506c-0.327,0.6-0.614,1.387-0.839,2.215c-0.781-0.307-1.637-0.421-2.437-0.364
		c-1.895,0.136-3.042,1.323-4.333,2.679c-1.337,1.406-1.8,3.003-1.348,5.058c0.132,0.604,0.34,1.491,0.63,2.395
		c-2.489,1.041-4.674,3.754-5.056,6.593C2.822,41.751,3.38,43.837,4.808,44.97z"/>
	<path fill="#FF8338" d="M18.187,16.498c0.923-0.639,2.074-1.046,3.114-1.451c0.432-0.167,0.853-0.296,1.309-0.389
		c0.769-0.155,0.228-0.374-0.219-0.693c-2.461-1.761-4.531-3.785-6.512-6.083c-1.199-1.389-2.791-3.641-4.725-4.078
		C9.485,3.427,8.088,4.985,8.412,6.61c0.146,0.741,0.565,1.445,1.117,1.958c0.216,0.2,1.604,1.063,1.563,1.345
		c0.006-0.045-2.383-0.044-2.6,0.021c-1.207,0.367-1.797,1.604-1.091,2.697c0.535,0.826,1.549,1.148,2.433,1.448
		c0.312,0.105,3.396,0.42,3.433,0.635c0.022,0.134-2.144,0.784-2.338,0.884c-0.692,0.354-1.354,0.795-1.937,1.31
		c-0.558,0.494-1.216,1.197-1.165,2.003C7.893,19.941,9,20.233,9.859,20.196c1.62-0.071,3.259-1.063,4.676-1.762
		C15.749,17.836,17.07,17.27,18.187,16.498C18.932,15.981,17.671,16.854,18.187,16.498z"/>
	<path fill="#FF8338" d="M48.996,15.935c-0.873,0.239-2.789,0.143-2.719-1.178c0.034-0.637,0.705-1.035,1.233-1.236
		c0.14-0.052,1.405-0.215,1.441-0.349c0.013-0.048-1.253-0.368-1.359-0.417c-0.49-0.225-1.16-0.686-1.145-1.301
		c0.024-0.939,1.417-1.112,2.103-1.135c0.281-0.01,1.766,0.414,1.95,0.245c-0.12,0.109-1.559-1.22-1.643-1.345
		c-0.821-1.197,0.535-1.774,1.571-1.578c1.197,0.229,2.384,1.087,3.324,1.824c0.581,0.455,1.062,1.014,1.57,1.544
		c0.12,0.125,1.486,1.309,1.493,1.292c-0.14,0.323-1.455,0.566-1.778,0.688c-0.679,0.255-1.324,0.58-1.956,0.938
		c-1.326,0.75-2.614,1.602-4.101,2.01c0.024-0.007,0.049-0.013,0.072-0.021c-0.056,0.015-0.11,0.03-0.166,0.047
		C48.896,15.962,49.084,15.911,48.996,15.935C48.291,16.128,49.153,15.891,48.996,15.935z"/>
	<path fill="#FF8338" d="M15.476,57.563c-0.972-0.875-3.507-1.993-4.271-0.242c-0.368,0.844,0.239,1.794,0.791,2.396
		c0.146,0.157,1.674,1.188,1.634,1.383c-0.015,0.071-1.854-0.337-2.024-0.342c-0.78-0.028-1.942,0.132-2.321,0.937
		c-0.578,1.228,1.108,2.354,1.979,2.827c0.356,0.195,2.547,0.609,2.676,0.948c-0.084-0.219-2.803,0.564-2.993,0.67
		c-1.836,1.014-0.458,2.638,1.006,3.055c1.693,0.482,3.781,0.143,5.473-0.198c1.044-0.211,2.027-0.621,3.027-0.976
		c0.238-0.084,2.768-0.725,2.765-0.699c0.029-0.508-1.512-1.674-1.85-2.04c-0.712-0.77-1.333-1.608-1.915-2.479
		c-1.226-1.828-2.336-3.762-3.99-5.252c0.026,0.024,0.054,0.048,0.081,0.072c-0.063-0.054-0.124-0.11-0.186-0.167
		C15.366,57.464,15.575,57.651,15.476,57.563C14.692,56.857,15.651,57.723,15.476,57.563z"/>
</g>
<g>
	<g>
		<path fill="#4D509B" d="M26.13,23.986c0.47,2.511,0.866,4.897,1.298,6.991c0.432,2.093,0.729,3.536,0.892,4.326
			s0.243,1.375,0.243,1.755c0,0.487-0.154,0.807-0.463,0.961c-0.309,0.153-0.834,0.25-1.575,0.286
			c-0.491,0.023-0.737,0.036-1.229,0.058c-0.402,0.018-0.675-0.256-0.822-0.817c-0.147-0.562-0.258-1.125-0.335-1.688
			c-0.078-0.564-0.241-0.84-0.488-0.83c-0.741,0.031-1.111,0.045-1.852,0.069c-0.247,0.008-0.424,0.295-0.532,0.863
			s-0.244,1.138-0.406,1.707c-0.162,0.568-0.444,0.857-0.845,0.865c-0.436,0.008-0.653,0.01-1.088,0.016
			c-0.695,0.009-1.191-0.058-1.484-0.191c-0.293-0.135-0.439-0.439-0.439-0.919c0-0.314,0.041-0.716,0.126-1.203
			c0.084-0.486,0.205-1.091,0.36-1.812c0.154-0.72,0.406-1.997,0.753-3.834c0.348-1.837,0.731-3.928,1.124-6.25
			c0.204-1.204,0.726-1.827,1.575-1.867c1.427-0.066,2.14-0.106,3.567-0.197C25.344,22.222,25.91,22.807,26.13,23.986z M21.846,31
			c-0.013,0.089-0.023,0.204-0.023,0.339c0,0.121,0.028,0.207,0.083,0.258c0.054,0.051,0.131,0.078,0.231,0.081
			c0.1,0.004,0.297,0.001,0.59-0.011c0.386-0.016,0.633-0.043,0.741-0.079c0.107-0.035,0.162-0.135,0.162-0.302
			c0-0.136-0.009-0.258-0.023-0.362c-0.048-0.343-0.097-0.792-0.15-1.342c-0.054-0.548-0.101-1.006-0.14-1.375
			c-0.039-0.368-0.085-0.737-0.139-1.104c-0.055-0.368-0.119-0.643-0.196-0.828c-0.077-0.185-0.162-0.274-0.254-0.27
			c-0.062,0.003-0.125,0.055-0.187,0.156c-0.062,0.102-0.115,0.255-0.161,0.461s-0.089,0.419-0.127,0.639
			c-0.039,0.221-0.077,0.506-0.115,0.855c-0.039,0.349-0.07,0.651-0.094,0.908c-0.023,0.258-0.054,0.591-0.092,1
			C21.911,30.432,21.881,30.763,21.846,31z"/>
		<path fill="#4D509B" d="M39.4,22.858c0,3.968,0,5.953,0,9.92c0,0.665-0.022,1.208-0.069,1.628
			c-0.046,0.421-0.162,0.861-0.347,1.323c-0.186,0.462-0.451,0.828-0.799,1.1c-0.347,0.272-0.834,0.512-1.46,0.717
			c-0.625,0.206-1.393,0.34-2.303,0.402c-0.803,0.055-1.498,0.049-2.084-0.012s-1.07-0.19-1.449-0.389
			c-0.378-0.198-0.682-0.416-0.914-0.654c-0.232-0.238-0.405-0.559-0.521-0.962c-0.116-0.405-0.189-0.792-0.22-1.164
			c-0.031-0.371-0.046-0.838-0.046-1.402c0.009-3.84,0.014-5.763,0.023-9.604c0-0.243,0.004-0.424,0.012-0.547
			s0.035-0.286,0.081-0.487s0.115-0.352,0.208-0.45c0.093-0.099,0.232-0.197,0.418-0.288c0.185-0.091,0.409-0.146,0.671-0.167
			c0.463-0.039,0.695-0.059,1.158-0.099c0.262-0.022,0.486-0.004,0.672,0.056c0.185,0.061,0.324,0.133,0.417,0.217
			c0.093,0.083,0.162,0.224,0.208,0.418s0.073,0.354,0.081,0.476s0.012,0.306,0.012,0.55c0,4.045,0,6.067,0,10.112
			c0,0.229,0.006,0.397,0.022,0.504c0.015,0.105,0.059,0.226,0.128,0.359c0.07,0.133,0.198,0.223,0.382,0.271
			s0.432,0.062,0.741,0.039c0.324-0.023,0.567-0.107,0.729-0.249s0.254-0.289,0.277-0.436s0.036-0.367,0.036-0.659
			c0-4.066-0.001-6.1-0.001-10.167c0-0.246,0.004-0.43,0.012-0.554c0.007-0.124,0.034-0.285,0.08-0.481
			c0.046-0.196,0.116-0.345,0.208-0.445c0.093-0.101,0.232-0.197,0.417-0.291c0.185-0.094,0.408-0.154,0.671-0.179
			c0.463-0.043,0.695-0.064,1.158-0.107c0.263-0.024,0.486-0.007,0.672,0.053s0.323,0.132,0.416,0.216
			c0.093,0.083,0.163,0.221,0.209,0.41s0.073,0.345,0.081,0.467S39.4,22.611,39.4,22.858z"/>
		<path fill="#4D509B" d="M46.256,24.455c0,4.343,0,6.514,0,10.856c-0.016,0.297-0.035,0.521-0.059,0.67
			c-0.022,0.149-0.077,0.32-0.162,0.513c-0.085,0.192-0.226,0.339-0.419,0.438c-0.192,0.098-0.439,0.157-0.748,0.177
			c-0.463,0.03-0.698,0.045-1.161,0.077c-0.263,0.018-0.484-0.006-0.67-0.072c-0.186-0.065-0.325-0.14-0.418-0.226
			c-0.093-0.087-0.161-0.23-0.207-0.428c-0.046-0.197-0.074-0.36-0.082-0.483c-0.007-0.123-0.013-0.31-0.013-0.558
			c0-4.254,0-6.379,0-10.634c0-0.295-0.037-0.487-0.114-0.573c-0.077-0.086-0.239-0.119-0.486-0.097
			c-0.046,0.004-0.143,0.017-0.289,0.037c-0.147,0.021-0.274,0.036-0.383,0.046c-0.694,0.061-1.042-0.125-1.042-0.559
			c0-0.789,0-1.182,0-1.971c0-0.217,0.105-0.397,0.313-0.541c0.209-0.143,0.466-0.228,0.775-0.257
			c2.557-0.237,3.834-0.355,6.392-0.566c0.309-0.025,0.569,0.015,0.777,0.124c0.209,0.109,0.311,0.272,0.311,0.491
			c0,0.798,0,1.197,0,1.995c0,0.438-0.348,0.684-1.042,0.738c-0.046,0.003-0.137,0.006-0.276,0.009
			c-0.139,0.003-0.265,0.009-0.372,0.017c-0.278,0.022-0.452,0.08-0.521,0.17C46.29,23.94,46.256,24.143,46.256,24.455z"/>
		<path fill="#4D509B" d="M49.115,29.486c0.008-0.431,0.012-0.757,0.012-0.977c0-0.219-0.004-0.54-0.012-0.962
			c-0.008-0.422-0.012-0.734-0.012-0.938c0-0.876,0.024-1.596,0.07-2.155c0.046-0.559,0.169-1.154,0.37-1.788
			c0.2-0.633,0.482-1.135,0.845-1.507c0.363-0.372,0.872-0.695,1.529-0.968c0.655-0.272,1.463-0.438,2.421-0.494
			c0.911-0.053,1.681,0.021,2.307,0.222c0.625,0.201,1.11,0.466,1.458,0.794s0.613,0.796,0.799,1.401
			c0.186,0.605,0.302,1.185,0.348,1.738s0.071,1.277,0.071,2.167c0,0.492,0.012,1.195,0.035,2.107
			c0.022,0.913,0.032,1.575,0.032,1.987c0,0.841-0.029,1.557-0.091,2.145c-0.062,0.589-0.195,1.177-0.396,1.766
			c-0.201,0.591-0.481,1.063-0.845,1.419c-0.362,0.355-0.858,0.651-1.483,0.888s-1.371,0.369-2.235,0.399
			c-0.958,0.034-1.766-0.047-2.421-0.245c-0.657-0.198-1.166-0.458-1.529-0.784c-0.362-0.326-0.645-0.791-0.845-1.39
			c-0.2-0.599-0.324-1.174-0.37-1.726c-0.046-0.553-0.07-1.269-0.07-2.146C49.104,30.235,49.107,29.917,49.115,29.486z
			 M55.033,23.197c-0.185-0.141-0.455-0.202-0.811-0.183s-0.625,0.111-0.811,0.271c-0.185,0.161-0.289,0.315-0.313,0.466
			c-0.023,0.151-0.034,0.361-0.034,0.628c0,2.975,0,4.461,0,7.437c0,0.252,0.007,0.446,0.022,0.579
			c0.016,0.134,0.053,0.297,0.114,0.49c0.062,0.194,0.179,0.335,0.35,0.422c0.169,0.087,0.394,0.125,0.671,0.113
			c0.278-0.011,0.502-0.066,0.672-0.167s0.286-0.251,0.348-0.452c0.062-0.199,0.101-0.367,0.115-0.501
			c0.015-0.134,0.023-0.328,0.023-0.581c0-2.985,0-4.476,0-7.46c0-0.268-0.011-0.48-0.033-0.629S55.219,23.338,55.033,23.197z"/>
		<path fill="#4D509B" d="M21.684,49.935c-0.247,0.003-0.405,0.034-0.475,0.095s-0.104,0.159-0.104,0.295c0,1.329,0,1.992,0,3.321
			c0,0.241-0.004,0.424-0.011,0.544c-0.008,0.121-0.034,0.278-0.081,0.474c-0.046,0.196-0.117,0.34-0.209,0.431
			c-0.093,0.09-0.232,0.173-0.417,0.247c-0.186,0.075-0.409,0.114-0.671,0.112c-0.463-0.003-0.694-0.007-1.158-0.014
			c-0.263-0.004-0.487-0.045-0.673-0.124c-0.185-0.078-0.324-0.164-0.417-0.255c-0.092-0.092-0.162-0.234-0.208-0.431
			c-0.046-0.195-0.074-0.354-0.082-0.475c-0.008-0.119-0.012-0.3-0.012-0.54c0-4.944,0-7.416,0-12.359
			c0-0.239,0.003-0.419,0.012-0.539c0.007-0.119,0.035-0.277,0.081-0.473c0.046-0.194,0.116-0.336,0.208-0.426
			c0.093-0.09,0.232-0.172,0.417-0.248c0.186-0.076,0.411-0.116,0.673-0.118c2.011-0.018,3.014-0.042,5.025-0.113
			c1.235-0.044,2.197,0.374,2.884,1.269c0.687,0.896,1.031,2.148,1.031,3.76c0,0.623-0.075,1.307-0.221,2.049
			c-0.147,0.743-0.317,1.3-0.497,1.67c-0.578,1.187-1.984,1.849-4.239,1.884C22.198,49.957,22.026,49.949,21.684,49.935z
			 M22.147,42.439c-0.448,0.011-0.737,0.094-0.868,0.255c-0.131,0.161-0.197,0.453-0.197,0.874c0,0.091,0.002,0.263,0.01,0.519
			c0.007,0.256,0.012,0.468,0.012,0.634s-0.003,0.378-0.01,0.635c-0.008,0.257-0.014,0.421-0.014,0.496
			c0,0.376,0.063,0.617,0.186,0.721c0.124,0.104,0.417,0.152,0.881,0.144c0.293-0.005,0.533-0.063,0.718-0.173
			c0.186-0.109,0.313-0.275,0.382-0.496s0.115-0.426,0.138-0.615c0.023-0.188,0.035-0.441,0.035-0.759
			C23.421,43.161,22.997,42.419,22.147,42.439z"/>
		<path fill="#4D509B" d="M31.991,40.746c0,5.048,0,7.572,0,12.62c0,0.245-0.005,0.428-0.012,0.55
			c-0.008,0.123-0.033,0.285-0.08,0.485c-0.046,0.201-0.116,0.352-0.208,0.447c-0.093,0.095-0.233,0.182-0.418,0.266
			c-0.186,0.085-0.409,0.133-0.671,0.143c-0.463,0.018-0.695,0.023-1.158,0.039c-0.263,0.009-0.487-0.022-0.673-0.094
			c-0.185-0.07-0.324-0.147-0.417-0.235c-0.092-0.089-0.162-0.23-0.208-0.428c-0.046-0.196-0.073-0.356-0.081-0.478
			c-0.008-0.12-0.012-0.302-0.012-0.545c0-5.021,0-7.531,0-12.551c0-0.243,0.004-0.426,0.012-0.549
			c0.007-0.122,0.034-0.284,0.081-0.484c0.046-0.199,0.116-0.348,0.208-0.444c0.093-0.097,0.231-0.188,0.417-0.273
			c0.186-0.086,0.411-0.136,0.674-0.15c0.463-0.026,0.694-0.041,1.157-0.068c0.263-0.016,0.486,0.011,0.671,0.076
			c0.185,0.065,0.325,0.139,0.418,0.225c0.092,0.086,0.161,0.228,0.208,0.423c0.046,0.196,0.073,0.355,0.081,0.477
			C31.987,40.318,31.991,40.501,31.991,40.746z"/>
		<path fill="#4D509B" d="M37.479,51.654c0.479-0.024,0.95-0.056,1.414-0.096c0.463-0.04,0.747-0.064,0.855-0.07
			c0.447-0.023,0.741,0.067,0.88,0.261c0.14,0.194,0.207,0.489,0.207,0.892c0,0.121,0,0.182,0,0.303c0,0.248-0.004,0.436-0.012,0.56
			c-0.008,0.125-0.033,0.287-0.079,0.49c-0.047,0.204-0.116,0.354-0.209,0.452c-0.092,0.097-0.231,0.188-0.416,0.273
			c-0.186,0.087-0.41,0.137-0.672,0.149c-2.093,0.098-3.141,0.15-5.234,0.242c-0.263,0.012-0.485-0.02-0.67-0.089
			c-0.185-0.068-0.324-0.146-0.417-0.233c-0.092-0.088-0.164-0.231-0.21-0.429c-0.046-0.196-0.072-0.357-0.08-0.479
			c-0.008-0.121-0.012-0.304-0.012-0.549c0-5.054,0-7.581,0-12.634c0-0.245,0.002-0.43,0.011-0.553
			c0.007-0.122,0.034-0.286,0.081-0.488c0.046-0.201,0.117-0.352,0.209-0.449c0.093-0.098,0.231-0.19,0.416-0.279
			c0.186-0.089,0.411-0.144,0.673-0.161c0.463-0.03,0.693-0.045,1.156-0.076c0.263-0.018,0.485,0.006,0.671,0.07
			c0.185,0.064,0.325,0.138,0.417,0.224c0.092,0.086,0.163,0.229,0.209,0.425c0.046,0.197,0.072,0.359,0.08,0.481
			c0.008,0.123,0.011,0.306,0.011,0.552c0,3.981,0,5.974,0,9.955c0,0.262,0.007,0.462,0.023,0.6
			c0.015,0.138,0.083,0.283,0.198,0.438C37.097,51.592,37.262,51.665,37.479,51.654z"/>
		<path fill="#4D509B" d="M41.286,47.496c0.008-0.427,0.012-0.749,0.012-0.966c0-0.218-0.004-0.532-0.012-0.95
			s-0.012-0.729-0.012-0.931c0-0.868,0.025-1.576,0.071-2.129c0.047-0.553,0.17-1.143,0.371-1.769
			c0.2-0.626,0.481-1.121,0.844-1.486c0.363-0.364,0.872-0.682,1.529-0.95c0.655-0.269,1.462-0.434,2.42-0.493
			c0.911-0.056,1.679,0.015,2.305,0.208c0.625,0.192,1.112,0.449,1.459,0.769c0.348,0.32,0.612,0.78,0.798,1.376
			c0.186,0.597,0.303,1.167,0.35,1.716c0.046,0.548,0.069,1.263,0.069,2.143c0,0.487,0.012,1.182,0.035,2.084
			c0.022,0.902,0.033,1.559,0.033,1.967c0,0.833-0.03,1.539-0.092,2.121c-0.062,0.584-0.195,1.171-0.396,1.757
			c-0.201,0.588-0.481,1.058-0.845,1.413c-0.362,0.355-0.854,0.651-1.479,0.891s-1.373,0.377-2.237,0.41
			c-0.958,0.036-1.765-0.045-2.42-0.242c-0.657-0.197-1.166-0.455-1.529-0.78c-0.362-0.325-0.644-0.785-0.844-1.38
			c-0.2-0.594-0.324-1.166-0.371-1.714c-0.046-0.548-0.071-1.254-0.071-2.122C41.274,48.236,41.278,47.923,41.286,47.496z
			 M47.206,41.28c-0.185-0.138-0.457-0.195-0.813-0.175s-0.628,0.108-0.813,0.268c-0.185,0.158-0.285,0.313-0.309,0.462
			s-0.036,0.358-0.036,0.622c0,2.944,0,4.417,0,7.361c0,0.249,0.009,0.44,0.024,0.571c0.016,0.132,0.053,0.294,0.114,0.484
			c0.062,0.191,0.177,0.331,0.348,0.417c0.169,0.086,0.394,0.123,0.671,0.111c0.278-0.012,0.5-0.067,0.67-0.168
			s0.288-0.251,0.35-0.449c0.062-0.197,0.099-0.362,0.113-0.496c0.015-0.133,0.023-0.323,0.023-0.573c0-2.953,0-4.432,0-7.386
			c0-0.265-0.01-0.472-0.032-0.619C47.494,41.563,47.392,41.419,47.206,41.28z"/>
		<path fill="#4D509B" d="M58.346,41.574c0,4.414,0,6.621,0,11.036c-0.016,0.301-0.034,0.526-0.058,0.677
			c-0.022,0.15-0.079,0.32-0.164,0.51c-0.085,0.188-0.221,0.328-0.414,0.414c-0.192,0.086-0.444,0.128-0.753,0.128
			c-0.464-0.001-0.694-0.001-1.158,0.001c-0.263,0.001-0.486-0.037-0.672-0.115c-0.186-0.077-0.325-0.163-0.418-0.256
			c-0.093-0.094-0.162-0.245-0.208-0.449c-0.046-0.203-0.073-0.366-0.081-0.492c-0.007-0.125-0.012-0.316-0.012-0.568
			c0-4.325,0-6.487,0-10.813c0-0.299-0.041-0.495-0.118-0.588c-0.077-0.092-0.237-0.135-0.484-0.127
			c-0.046,0.002-0.143,0.009-0.289,0.021c-0.147,0.013-0.276,0.021-0.385,0.025c-0.694,0.024-1.04-0.184-1.04-0.624
			c0-0.802,0-1.202,0-2.004c0-0.22,0.104-0.397,0.313-0.531s0.465-0.209,0.774-0.222c2.558-0.101,3.838-0.136,6.396-0.152
			c0.309-0.002,0.567,0.063,0.775,0.19c0.209,0.127,0.313,0.303,0.313,0.525c0,0.812,0,1.216,0,2.027
			c0,0.445-0.35,0.666-1.044,0.667c-0.046,0-0.137-0.005-0.276-0.013c-0.139-0.008-0.261-0.011-0.368-0.01
			c-0.278,0.002-0.454,0.048-0.523,0.136S58.346,41.258,58.346,41.574z"/>
	</g>
</g>
</svg>
