<?xml version="1.0" encoding="utf-8"?>
<!-- Generator: Adobe Illustrator 16.0.3, SVG Export Plug-In . SVG Version: 6.00 Build 0)  -->
<!DOCTYPE svg PUBLIC "-//W3C//DTD SVG 1.1//EN" "http://www.w3.org/Graphics/SVG/1.1/DTD/svg11.dtd">
<svg version="1.1" id="Layer_1" xmlns="http://www.w3.org/2000/svg" xmlns:xlink="http://www.w3.org/1999/xlink" x="0px" y="0px"
	 width="75px" height="75px" viewBox="0 0 75 75" enable-background="new 0 0 75 75" xml:space="preserve">
<g>
	<path fill="#F8DB29" d="M4.808,44.97c1.744,1.386,4.473,2.963,6.583,1.339c-0.436,0.905-0.02,2.497,0.125,3.466
		c0.202,1.35,0.674,2.144,1.53,3.002c1.464,1.465,2.981,1.765,5.005,1.41c0.046-0.008,0.086-0.022,0.132-0.031
		c0.717,6.638,7.757,10.762,13.838,7.95c2.046-0.942,4.371-3.429,5.128-4.354c0.17-0.209,0.272-0.104,0.285,0.021
		c0.314,3.443,1.224,6.401,5.652,9.275c4.916,3.185,11.254,1.371,14.129-3.737c1.11-1.965,2.056-4.34,2.326-6.622
		c1.272,0.231,2.592,0.205,3.822-0.061c1.941-0.42,3.637-1.812,4.568-3.729c0.59-1.213,1.198-2.376,1.809-3.551
		c0.024-0.045,0.038-0.089,0.061-0.132c2.038-2.141,3.099-4.347,2.93-7.779c-0.134-2.701-0.924-4.484-2.004-5.689
		c-1.625-2.672-4.097-3.806-7.106-3.881c0.377-0.987,0.39-1.579,0.795-4.033c1.303-7.881-6.348-13.823-13.263-11.133
		c-2.096,0.814-4.547,3.149-5.352,4.025c-0.181,0.196-0.277,0.086-0.283-0.039c-0.129-3.457-0.882-6.471-5.15-9.617
		C35.631,7.575,29.208,8.983,26.069,13.9c-0.807,1.257-1.55,2.699-2.072,4.189c-0.962-0.201-1.928-0.315-2.795-0.272
		c-1.975,0.097-3.734,1.641-4.748,3.506c-0.327,0.6-0.614,1.387-0.839,2.215c-0.781-0.307-1.637-0.421-2.437-0.364
		c-1.895,0.136-3.042,1.323-4.333,2.679c-1.337,1.406-1.8,3.003-1.348,5.058c0.132,0.604,0.34,1.491,0.63,2.395
		c-2.489,1.041-4.674,3.754-5.056,6.593C2.822,41.751,3.38,43.837,4.808,44.97z"/>
	<path fill="#FF8338" d="M18.187,16.498c0.923-0.639,2.074-1.046,3.114-1.451c0.432-0.167,0.853-0.296,1.309-0.389
		c0.769-0.155,0.228-0.374-0.219-0.693c-2.461-1.761-4.531-3.785-6.512-6.083c-1.199-1.389-2.791-3.641-4.725-4.078
		C9.485,3.427,8.088,4.985,8.412,6.61c0.146,0.741,0.565,1.445,1.117,1.958c0.216,0.2,1.604,1.063,1.563,1.345
		c0.006-0.045-2.383-0.044-2.6,0.021c-1.207,0.367-1.797,1.604-1.091,2.697c0.535,0.826,1.549,1.148,2.433,1.448
		c0.312,0.105,3.396,0.42,3.433,0.635c0.022,0.134-2.144,0.784-2.338,0.884c-0.692,0.354-1.354,0.795-1.937,1.31
		c-0.558,0.494-1.216,1.197-1.165,2.003C7.893,19.941,9,20.233,9.859,20.196c1.62-0.071,3.259-1.063,4.676-1.762
		C15.749,17.836,17.07,17.27,18.187,16.498C18.932,15.981,17.671,16.854,18.187,16.498z"/>
	<path fill="#FF8338" d="M48.996,15.935c-0.873,0.239-2.789,0.143-2.719-1.178c0.034-0.637,0.705-1.035,1.233-1.236
		c0.14-0.052,1.405-0.215,1.441-0.349c0.013-0.048-1.253-0.368-1.359-0.417c-0.49-0.225-1.16-0.686-1.145-1.301
		c0.024-0.939,1.417-1.112,2.103-1.135c0.281-0.01,1.766,0.414,1.95,0.245c-0.12,0.109-1.559-1.22-1.643-1.345
		c-0.821-1.197,0.535-1.774,1.571-1.578c1.197,0.229,2.384,1.087,3.324,1.824c0.581,0.455,1.062,1.014,1.57,1.544
		c0.12,0.125,1.486,1.309,1.493,1.292c-0.14,0.323-1.455,0.566-1.778,0.688c-0.679,0.255-1.324,0.58-1.956,0.938
		c-1.326,0.75-2.614,1.602-4.101,2.01c0.024-0.007,0.049-0.013,0.072-0.021c-0.056,0.015-0.11,0.03-0.166,0.047
		C48.896,15.962,49.084,15.911,48.996,15.935C48.291,16.128,49.153,15.891,48.996,15.935z"/>
	<path fill="#FF8338" d="M15.476,57.563c-0.972-0.875-3.507-1.993-4.271-0.242c-0.368,0.844,0.239,1.794,0.791,2.396
		c0.146,0.157,1.674,1.188,1.634,1.383c-0.015,0.071-1.854-0.337-2.024-0.342c-0.78-0.028-1.942,0.132-2.321,0.937
		c-0.578,1.228,1.108,2.354,1.979,2.827c0.356,0.195,2.547,0.609,2.676,0.948c-0.084-0.219-2.803,0.564-2.993,0.67
		c-1.836,1.014-0.458,2.638,1.006,3.055c1.693,0.482,3.781,0.143,5.473-0.198c1.044-0.211,2.027-0.621,3.027-0.976
		c0.238-0.084,2.768-0.725,2.765-0.699c0.029-0.508-1.512-1.674-1.85-2.04c-0.712-0.77-1.333-1.608-1.915-2.479
		c-1.226-1.828-2.336-3.762-3.99-5.252c0.026,0.024,0.054,0.048,0.081,0.072c-0.063-0.054-0.124-0.11-0.186-0.167
		C15.366,57.464,15.575,57.651,15.476,57.563C14.692,56.857,15.651,57.723,15.476,57.563z"/>
</g>
<g>
	<g>
		<path fill="#4D509B" d="M20.834,29.31c0.241,3.841,0.361,5.762,0.602,9.603c0.009,0.262,0.012,0.459,0.01,0.59
			c-0.002,0.132-0.019,0.282-0.047,0.449c-0.029,0.166-0.084,0.286-0.167,0.364s-0.194,0.117-0.332,0.119
			c-0.207,0.004-0.308,0.006-0.51,0.009c-0.114,0.002-0.215-0.032-0.299-0.101c-0.083-0.067-0.146-0.142-0.191-0.223
			c-0.045-0.083-0.083-0.212-0.115-0.392c-0.032-0.179-0.054-0.324-0.065-0.435s-0.024-0.275-0.039-0.496
			c-0.26-3.776-0.389-5.665-0.649-9.441c-0.018-0.262-0.047-0.433-0.086-0.515s-0.113-0.121-0.219-0.119
			c-0.02,0-0.061,0.005-0.123,0.013c-0.062,0.008-0.115,0.012-0.16,0.013c-0.292,0.005-0.445-0.186-0.473-0.571
			c-0.051-0.702-0.076-1.052-0.127-1.754c-0.014-0.192,0.018-0.345,0.096-0.457c0.079-0.111,0.182-0.168,0.313-0.171
			c1.087-0.022,1.694-0.04,2.955-0.089c0.152-0.006,0.284,0.044,0.395,0.15c0.11,0.106,0.172,0.256,0.184,0.449
			c0.042,0.705,0.062,1.057,0.103,1.762c0.023,0.387-0.138,0.588-0.478,0.6c-0.022,0.001-0.068-0.001-0.137-0.006
			c-0.068-0.004-0.128-0.005-0.181-0.003c-0.135,0.005-0.215,0.044-0.244,0.121C20.822,28.856,20.817,29.034,20.834,29.31z"/>
		<path fill="#4D509B" d="M26.19,27.111c0.355,2.33,0.653,4.498,0.958,6.421s0.511,3.249,0.624,3.972
			c0.112,0.725,0.175,1.259,0.189,1.607c0.019,0.444-0.046,0.735-0.194,0.87c-0.148,0.134-0.406,0.213-0.777,0.233
			c-0.246,0.014-0.368,0.018-0.615,0.03c-0.202,0.011-0.353-0.242-0.452-0.759c-0.099-0.516-0.182-1.032-0.246-1.55
			s-0.159-0.772-0.284-0.766c-0.375,0.019-0.562,0.027-0.935,0.043c-0.124,0.005-0.199,0.269-0.226,0.79
			c-0.026,0.521-0.065,1.041-0.118,1.563c-0.052,0.522-0.177,0.789-0.375,0.796c-0.214,0.008-0.32,0.01-0.531,0.017
			c-0.337,0.011-0.58-0.044-0.727-0.164c-0.147-0.121-0.231-0.401-0.258-0.843c-0.018-0.291-0.021-0.663-0.007-1.114
			c0.014-0.449,0.038-1.004,0.073-1.67c0.035-0.665,0.086-1.844,0.159-3.536c0.073-1.691,0.156-3.61,0.235-5.745
			c0.042-1.108,0.276-1.676,0.716-1.699c0.738-0.038,1.113-0.06,1.861-0.107C25.701,25.474,26.024,26.02,26.19,27.111z
			 M24.285,33.454c-0.002,0.083-0.002,0.188,0.004,0.312c0.006,0.111,0.022,0.19,0.053,0.237c0.03,0.047,0.072,0.072,0.124,0.077
			c0.051,0.005,0.151,0.004,0.301-0.003c0.196-0.01,0.322-0.03,0.375-0.061s0.078-0.122,0.07-0.274
			c-0.006-0.125-0.017-0.236-0.029-0.333c-0.04-0.316-0.086-0.729-0.139-1.233s-0.098-0.924-0.134-1.263
			c-0.037-0.338-0.078-0.677-0.123-1.015c-0.045-0.337-0.092-0.591-0.141-0.762c-0.049-0.17-0.098-0.256-0.146-0.253
			c-0.032,0.002-0.061,0.049-0.088,0.141s-0.048,0.232-0.063,0.42s-0.025,0.383-0.035,0.584c-0.01,0.202-0.017,0.462-0.02,0.781
			c-0.003,0.319-0.005,0.597-0.004,0.833c0,0.236,0.001,0.542,0.001,0.917S24.292,33.234,24.285,33.454z"/>
		<path fill="#4D509B" d="M31.628,32.003c1.055,4.006,1.516,6.375,1.542,7.05c0.016,0.413-0.141,0.651-0.473,0.691
			c-0.199,0.024-0.3,0.034-0.506,0.057c-0.297,0.033-0.502-0.037-0.6-0.21c-0.098-0.172-0.222-0.622-0.372-1.349
			c-0.091-0.438-0.187-0.936-0.294-1.492c-0.107-0.557-0.195-0.99-0.26-1.299c-0.064-0.308-0.133-0.613-0.205-0.914
			s-0.138-0.515-0.197-0.642c-0.059-0.127-0.119-0.189-0.177-0.184c-0.06,0.005-0.083,0.162-0.073,0.469
			c0.003,0.083,0.012,0.24,0.027,0.47c0.016,0.229,0.025,0.406,0.03,0.531c0.044,1.254,0.065,1.881,0.109,3.135
			c0.008,0.224,0.012,0.39,0.012,0.502s-0.007,0.26-0.022,0.442c-0.015,0.184-0.042,0.32-0.083,0.408
			c-0.041,0.086-0.104,0.169-0.189,0.245c-0.085,0.077-0.19,0.118-0.316,0.128c-0.222,0.018-0.336,0.027-0.562,0.044
			c-0.128,0.009-0.239-0.019-0.333-0.082c-0.094-0.063-0.163-0.136-0.212-0.215c-0.049-0.081-0.089-0.211-0.12-0.391
			c-0.03-0.179-0.05-0.322-0.059-0.434s-0.017-0.276-0.026-0.499c-0.189-4.588-0.283-6.884-0.472-11.472
			c-0.009-0.222-0.014-0.388-0.014-0.5c-0.001-0.112,0.007-0.258,0.023-0.441c0.017-0.183,0.046-0.318,0.091-0.405
			c0.044-0.087,0.113-0.169,0.205-0.247s0.205-0.122,0.339-0.134c0.236-0.021,0.353-0.031,0.586-0.052
			c0.132-0.012,0.245,0.012,0.34,0.073s0.166,0.132,0.215,0.211c0.049,0.079,0.088,0.208,0.117,0.387
			c0.029,0.179,0.047,0.324,0.055,0.435s0.016,0.278,0.023,0.5c0.065,1.854,0.104,2.933,0.119,3.239s0.037,0.458,0.067,0.455
			c0.097-0.009,0.19-0.213,0.281-0.614c0.09-0.4,0.173-0.899,0.249-1.494c0.076-0.596,0.119-0.908,0.125-0.937
			c0.041-0.195,0.081-0.453,0.13-0.76s0.086-0.52,0.112-0.642c0.025-0.122,0.059-0.273,0.1-0.453s0.083-0.304,0.125-0.372
			c0.041-0.067,0.094-0.129,0.161-0.186c0.067-0.057,0.147-0.091,0.239-0.103c0.246-0.03,0.367-0.045,0.604-0.076
			c0.15-0.02,0.259-0.027,0.329-0.022s0.139,0.047,0.204,0.129c0.064,0.083,0.099,0.216,0.104,0.397
			c0.007,0.266-0.042,0.644-0.14,1.133c-0.077,0.388-0.206,1.005-0.393,1.843s-0.351,1.557-0.489,2.162
			c-0.139,0.604-0.207,0.928-0.206,0.97C31.499,31.505,31.542,31.677,31.628,32.003z"/>
		<path fill="#4D509B" d="M35.021,34.075c0.01,0.589,0.015,0.884,0.025,1.474c0.01,0.224,0.06,0.391,0.146,0.496
			c0.087,0.106,0.185,0.149,0.295,0.131c0.228-0.036,0.443-0.077,0.648-0.125c0.205-0.046,0.332-0.075,0.375-0.082
			c0.222-0.036,0.378,0.006,0.467,0.125s0.135,0.34,0.139,0.665c0.006,0.591,0.01,0.886,0.017,1.477
			c0.003,0.31-0.027,0.534-0.091,0.672c-0.063,0.137-0.173,0.218-0.33,0.243c-1.128,0.182-1.675,0.267-2.667,0.409
			c-0.375,0.054-0.564-0.48-0.591-1.601c-0.109-4.62-0.165-6.929-0.273-11.549c-0.005-0.224-0.007-0.394-0.006-0.506
			c0-0.113,0.007-0.259,0.022-0.444c0.015-0.185,0.04-0.323,0.076-0.413c0.037-0.09,0.094-0.177,0.17-0.259
			c0.076-0.083,0.169-0.131,0.281-0.149c1.023-0.163,1.583-0.257,2.737-0.457c0.149-0.026,0.277,0.008,0.38,0.103
			c0.103,0.095,0.154,0.242,0.156,0.439c0.008,0.718,0.011,1.077,0.019,1.795c0.002,0.226-0.036,0.375-0.118,0.453
			c-0.082,0.077-0.208,0.13-0.377,0.159c-0.155,0.026-0.349,0.054-0.578,0.079c-0.229,0.024-0.381,0.042-0.459,0.055
			c-0.143,0.024-0.253,0.063-0.333,0.119c-0.081,0.056-0.136,0.146-0.169,0.271c-0.033,0.125-0.052,0.237-0.057,0.336
			c-0.005,0.1-0.007,0.255-0.003,0.466c0.007,0.421,0.014,0.711,0.02,0.872s0.029,0.319,0.066,0.475
			c0.037,0.156,0.09,0.25,0.16,0.28s0.173,0.036,0.307,0.014c0.254-0.042,0.476-0.086,0.664-0.132
			c0.188-0.045,0.31-0.072,0.36-0.081c0.271-0.045,0.413,0.255,0.42,0.902c0.006,0.541,0.009,0.811,0.015,1.351
			c0.002,0.197-0.022,0.352-0.072,0.466c-0.05,0.114-0.105,0.188-0.167,0.219c-0.062,0.032-0.148,0.056-0.256,0.074
			c-0.21,0.035-0.436,0.065-0.675,0.09s-0.381,0.041-0.43,0.049c-0.11,0.018-0.188,0.069-0.235,0.153
			c-0.047,0.085-0.074,0.185-0.078,0.298C35.016,33.599,35.016,33.794,35.021,34.075z"/>
		<path fill="#4D509B" d="M43.315,27.915c0.354-1.566,0.532-2.35,0.888-3.918c0.118-0.531,0.244-0.88,0.377-1.045
			c0.132-0.165,0.315-0.268,0.545-0.308c0.238-0.041,0.355-0.061,0.589-0.101c0.123-0.021,0.227-0.003,0.312,0.054
			s0.146,0.125,0.187,0.203c0.04,0.078,0.071,0.208,0.089,0.39c0.019,0.182,0.026,0.33,0.027,0.444
			c0.002,0.113,0.001,0.283-0.003,0.511c-0.082,4.703-0.122,7.054-0.203,11.756c-0.004,0.228-0.009,0.399-0.015,0.514
			c-0.005,0.115-0.018,0.266-0.041,0.454c-0.022,0.189-0.056,0.329-0.098,0.42c-0.041,0.09-0.104,0.18-0.188,0.264
			c-0.083,0.084-0.184,0.136-0.301,0.154c-0.206,0.032-0.309,0.048-0.52,0.082c-0.119,0.019-0.222,0-0.306-0.058
			c-0.084-0.057-0.146-0.127-0.188-0.205c-0.042-0.078-0.075-0.208-0.095-0.39c-0.019-0.181-0.028-0.328-0.03-0.441
			c-0.003-0.113-0.003-0.282,0-0.509c0.027-2.345,0.042-3.518,0.069-5.863c0.002-0.142-0.019-0.211-0.055-0.205
			c-0.029,0.005-0.063,0.083-0.101,0.23c-0.101,0.398-0.201,0.799-0.301,1.199s-0.178,0.714-0.235,0.943s-0.114,0.459-0.168,0.688
			c-0.055,0.229-0.1,0.4-0.134,0.512c-0.035,0.112-0.07,0.217-0.112,0.316c-0.042,0.1-0.084,0.167-0.124,0.202
			c-0.041,0.036-0.088,0.057-0.14,0.066c-0.053,0.009-0.1,0.004-0.141-0.018c-0.041-0.021-0.083-0.075-0.123-0.16
			s-0.079-0.178-0.111-0.279c-0.033-0.101-0.08-0.257-0.136-0.467c-0.056-0.209-0.106-0.42-0.159-0.631s-0.126-0.501-0.224-0.875
			c-0.098-0.373-0.195-0.735-0.294-1.086c-0.038-0.135-0.073-0.2-0.103-0.194c-0.039,0.007-0.058,0.082-0.058,0.223
			c-0.008,2.337-0.01,3.506-0.018,5.843c-0.001,0.227-0.006,0.396-0.01,0.51c-0.004,0.114-0.017,0.265-0.04,0.452
			c-0.023,0.188-0.057,0.328-0.103,0.422c-0.045,0.092-0.114,0.181-0.205,0.267c-0.091,0.087-0.199,0.14-0.327,0.161
			c-0.227,0.038-0.34,0.058-0.566,0.096c-0.128,0.021-0.236,0.005-0.327-0.051c-0.09-0.055-0.16-0.123-0.205-0.199
			c-0.045-0.077-0.08-0.206-0.103-0.387c-0.023-0.18-0.037-0.326-0.041-0.438c-0.005-0.112-0.006-0.28-0.007-0.506
			c-0.013-4.662-0.018-6.992-0.029-11.654c-0.001-0.226,0-0.395,0.004-0.509s0.017-0.266,0.04-0.454
			c0.022-0.188,0.058-0.328,0.104-0.421c0.047-0.093,0.119-0.185,0.213-0.272c0.095-0.088,0.21-0.144,0.344-0.167
			c0.251-0.045,0.374-0.067,0.625-0.112c0.245-0.044,0.439-0.003,0.58,0.12c0.142,0.123,0.27,0.423,0.385,0.898
			c0.346,1.442,0.514,2.164,0.848,3.61c0.088,0.381,0.164,0.566,0.225,0.556S43.221,28.328,43.315,27.915z"/>
		<path fill="#4D509B" d="M48.178,31.905c-0.015,0.601-0.022,0.901-0.038,1.501c0,0.228,0.04,0.397,0.115,0.507
			s0.162,0.159,0.265,0.145c0.211-0.029,0.415-0.064,0.606-0.104c0.191-0.04,0.307-0.063,0.347-0.068
			c0.208-0.028,0.353,0.023,0.429,0.148s0.108,0.354,0.094,0.685c-0.026,0.603-0.043,0.904-0.069,1.507
			c-0.014,0.316-0.053,0.542-0.117,0.679c-0.064,0.136-0.17,0.214-0.313,0.233c-1.028,0.132-1.464,0.188-2.466,0.334
			c-0.379,0.055-0.57-0.483-0.549-1.625c0.087-4.705,0.131-7.058,0.219-11.763c0.004-0.228,0.008-0.397,0.014-0.512
			s0.022-0.268,0.047-0.457c0.024-0.188,0.055-0.331,0.097-0.422c0.042-0.092,0.108-0.181,0.19-0.266
			c0.083-0.084,0.182-0.135,0.295-0.153c1.033-0.166,1.479-0.232,2.604-0.393c0.146-0.021,0.269,0.02,0.366,0.12
			c0.098,0.101,0.142,0.251,0.137,0.451c-0.018,0.73-0.028,1.097-0.05,1.827c-0.007,0.229-0.051,0.381-0.134,0.458
			c-0.083,0.076-0.209,0.124-0.374,0.147c-0.151,0.021-0.339,0.042-0.56,0.06c-0.22,0.017-0.365,0.032-0.439,0.042
			c-0.136,0.02-0.24,0.055-0.317,0.109c-0.078,0.054-0.131,0.145-0.167,0.27c-0.036,0.126-0.06,0.242-0.068,0.343
			c-0.009,0.101-0.015,0.257-0.02,0.472c-0.01,0.429-0.019,0.727-0.019,0.89c-0.001,0.164,0.013,0.324,0.042,0.483
			c0.028,0.16,0.074,0.256,0.139,0.29c0.065,0.033,0.161,0.04,0.288,0.022c0.241-0.035,0.454-0.071,0.635-0.11
			c0.181-0.039,0.301-0.064,0.35-0.071c0.262-0.036,0.387,0.276,0.362,0.936c-0.021,0.551-0.033,0.827-0.055,1.378
			c-0.008,0.201-0.036,0.357-0.09,0.471s-0.11,0.187-0.17,0.216c-0.061,0.03-0.143,0.051-0.245,0.065
			c-0.2,0.027-0.415,0.049-0.641,0.066s-0.359,0.03-0.405,0.036c-0.104,0.015-0.179,0.065-0.226,0.149
			c-0.047,0.085-0.076,0.186-0.085,0.301S48.185,31.619,48.178,31.905z"/>
		<path fill="#4D509B" d="M21.807,44.832c0.241,3.842,0.361,5.763,0.602,9.604c0.009,0.263,0.014,0.459,0.012,0.591
			s-0.018,0.281-0.044,0.445c-0.027,0.166-0.077,0.289-0.155,0.364c-0.078,0.074-0.185,0.112-0.315,0.112
			c-0.196,0-0.292,0-0.483-0.001c-0.108,0-0.201-0.034-0.281-0.104c-0.079-0.069-0.141-0.146-0.184-0.23
			c-0.042-0.082-0.079-0.213-0.109-0.392s-0.05-0.323-0.061-0.434s-0.024-0.274-0.04-0.495c-0.26-3.777-0.39-5.665-0.649-9.441
			c-0.018-0.261-0.045-0.436-0.083-0.518c-0.038-0.084-0.108-0.12-0.208-0.12c-0.019,0-0.057,0.001-0.115,0.009
			c-0.059,0.008-0.11,0.01-0.152,0.01c-0.275,0-0.419-0.191-0.447-0.577c-0.051-0.701-0.076-1.053-0.127-1.754
			c-0.014-0.191,0.016-0.343,0.089-0.453s0.171-0.169,0.295-0.17c1.026-0.005,1.604-0.012,2.803-0.041
			c0.145-0.004,0.27,0.05,0.375,0.158s0.163,0.259,0.174,0.451c0.042,0.704,0.063,1.057,0.105,1.761
			c0.023,0.388-0.131,0.583-0.454,0.59c-0.021,0-0.064,0.002-0.129-0.004s-0.124-0.009-0.173-0.008
			c-0.128,0.003-0.205,0.043-0.231,0.118C21.793,44.382,21.79,44.556,21.807,44.832z"/>
		<path fill="#4D509B" d="M24.983,42.813c0.054,1.039,0.082,1.556,0.136,2.595c0.029,0.568,0.072,0.899,0.13,0.993
			c0.058,0.096,0.242,0.137,0.554,0.124c0.311-0.013,0.491-0.063,0.54-0.156s0.061-0.409,0.035-0.951
			c-0.051-1.064-0.078-1.598-0.129-2.662c-0.011-0.222-0.017-0.388-0.019-0.499s0.007-0.257,0.021-0.438
			c0.015-0.181,0.042-0.315,0.084-0.4c0.042-0.086,0.11-0.166,0.199-0.241c0.089-0.074,0.2-0.114,0.331-0.121
			c0.231-0.013,0.347-0.02,0.577-0.033c0.13-0.008,0.243,0.021,0.338,0.085s0.167,0.136,0.217,0.217
			c0.049,0.08,0.089,0.212,0.119,0.391c0.03,0.18,0.05,0.324,0.059,0.436c0.008,0.111,0.018,0.278,0.027,0.501
			c0.192,4.586,0.289,6.878,0.481,11.465c0.009,0.223,0.015,0.389,0.016,0.5s-0.006,0.259-0.021,0.44s-0.041,0.314-0.081,0.399
			c-0.04,0.087-0.104,0.165-0.188,0.238s-0.19,0.115-0.314,0.12c-0.22,0.01-0.33,0.012-0.551,0.021
			c-0.125,0.005-0.233-0.026-0.325-0.092s-0.163-0.139-0.211-0.222c-0.048-0.081-0.088-0.211-0.119-0.391s-0.05-0.323-0.06-0.435
			s-0.019-0.277-0.029-0.499c-0.06-1.248-0.089-1.874-0.149-3.122c-0.033-0.68-0.085-1.088-0.156-1.23s-0.249-0.21-0.535-0.199
			c-0.05,0.002-0.074,0.003-0.124,0.005c-0.203,0.007-0.334,0.063-0.392,0.168c-0.059,0.105-0.074,0.407-0.048,0.906
			c0.008,0.157,0.012,0.236,0.021,0.394c0.065,1.246,0.097,1.87,0.162,3.116c0.012,0.222,0.017,0.39,0.02,0.501
			c0.002,0.111-0.004,0.256-0.016,0.437c-0.013,0.181-0.039,0.313-0.078,0.396c-0.04,0.085-0.101,0.161-0.185,0.232
			s-0.188,0.109-0.312,0.112c-0.218,0.005-0.327,0.006-0.542,0.01c-0.123,0.002-0.228-0.031-0.318-0.099s-0.159-0.142-0.206-0.225
			c-0.047-0.081-0.087-0.212-0.119-0.391s-0.051-0.324-0.061-0.435c-0.01-0.11-0.024-0.277-0.037-0.499
			c-0.265-4.561-0.397-6.839-0.662-11.398c-0.013-0.222-0.021-0.389-0.023-0.499c-0.003-0.11,0.003-0.256,0.015-0.437
			c0.012-0.18,0.036-0.314,0.076-0.397c0.04-0.084,0.104-0.161,0.189-0.233s0.192-0.11,0.32-0.114
			c0.226-0.008,0.341-0.013,0.569-0.021c0.13-0.005,0.243,0.026,0.338,0.093c0.096,0.066,0.167,0.139,0.218,0.22
			c0.05,0.08,0.092,0.213,0.125,0.392c0.032,0.18,0.054,0.325,0.063,0.436C24.962,42.425,24.972,42.592,24.983,42.813z"/>
		<path fill="#4D509B" d="M29.22,40.907c0.874-0.063,1.301-0.101,2.111-0.179c1.323-0.128,1.915,1.368,1.993,4.516
			c0.015,0.616,0.019,1.079,0.011,1.388s-0.045,0.663-0.113,1.057s-0.186,0.764-0.339,1.101c-0.059,0.13-0.131,0.238-0.213,0.316
			c-0.083,0.079-0.137,0.162-0.164,0.249c-0.026,0.086-0.037,0.25-0.03,0.487c0.014,0.488,0.063,0.922,0.147,1.307
			c0.083,0.385,0.197,0.572,0.337,0.558c0.049-0.005,0.094-0.021,0.136-0.039s0.078-0.039,0.104-0.063
			c0.027-0.024,0.042-0.036,0.048-0.037c0.131-0.015,0.221,0.098,0.271,0.338c0.05,0.24,0.081,0.625,0.094,1.156
			c0.003,0.139,0.01,0.396,0.016,0.768c0.007,0.371,0.011,0.668,0.016,0.893c0.006,0.251-0.024,0.453-0.089,0.6
			c-0.066,0.146-0.204,0.233-0.42,0.256c-0.384,0.039-0.72-0.211-0.989-0.748c-0.268-0.535-0.472-1.233-0.608-2.089
			c-0.092-0.579-0.195-1.057-0.302-1.424c-0.108-0.369-0.19-0.598-0.249-0.684s-0.105-0.128-0.14-0.125
			c-0.056,0.004-0.077,0.174-0.065,0.509c0.041,1.188,0.061,1.778,0.102,2.966c0.008,0.224,0.01,0.393,0.011,0.505
			c0,0.112-0.005,0.259-0.02,0.441s-0.041,0.317-0.079,0.402c-0.039,0.086-0.096,0.17-0.177,0.245s-0.181,0.116-0.3,0.124
			c-0.294,0.019-0.443,0.025-0.744,0.042c-0.1,0.006-0.185-0.03-0.253-0.11c-0.067-0.079-0.119-0.219-0.152-0.411
			s-0.054-0.357-0.063-0.497c-0.009-0.138-0.021-0.351-0.033-0.629c-0.187-4.589-0.278-6.88-0.465-11.469
			c-0.009-0.223-0.014-0.391-0.014-0.502c-0.001-0.111,0.006-0.259,0.021-0.441c0.015-0.182,0.042-0.315,0.084-0.401
			c0.042-0.087,0.107-0.168,0.194-0.244S29.093,40.916,29.22,40.907z M31.005,43.594c-0.209,0.019-0.343,0.086-0.396,0.2
			c-0.053,0.116-0.072,0.366-0.059,0.743c0.003,0.083,0.011,0.257,0.024,0.53c0.012,0.271,0.021,0.491,0.027,0.658
			c0.005,0.152,0.01,0.35,0.015,0.587c0.004,0.237,0.007,0.39,0.009,0.459c0.012,0.349,0.048,0.57,0.108,0.662
			c0.06,0.094,0.197,0.13,0.404,0.112c0.379-0.032,0.542-0.669,0.504-1.91C31.597,44.24,31.389,43.56,31.005,43.594z"/>
		<path fill="#4D509B" d="M33.723,48.805c-0.006-0.385-0.012-0.676-0.017-0.873c-0.004-0.195-0.013-0.482-0.024-0.859
			c-0.012-0.379-0.019-0.658-0.023-0.842c-0.019-0.783-0.025-1.424-0.019-1.925c0.006-0.497,0.042-1.027,0.107-1.591
			s0.166-1.012,0.306-1.34c0.139-0.329,0.34-0.616,0.612-0.86c0.271-0.243,0.616-0.397,1.041-0.464
			c0.404-0.063,0.755-0.017,1.045,0.141c0.291,0.158,0.521,0.376,0.686,0.651c0.166,0.277,0.295,0.679,0.387,1.206
			c0.091,0.529,0.15,1.038,0.176,1.527c0.026,0.491,0.043,1.128,0.05,1.918c0.004,0.436,0.012,1.062,0.029,1.869
			c0.018,0.81,0.027,1.396,0.03,1.762c0.006,0.747-0.003,1.383-0.027,1.909s-0.077,1.058-0.164,1.593s-0.211,0.969-0.37,1.303
			c-0.16,0.336-0.378,0.622-0.648,0.858c-0.271,0.237-0.592,0.384-0.956,0.435c-0.402,0.057-0.732,0.001-0.997-0.168
			c-0.265-0.169-0.468-0.402-0.613-0.692c-0.146-0.292-0.261-0.704-0.348-1.24s-0.145-1.054-0.174-1.549
			c-0.029-0.495-0.053-1.134-0.071-1.919C33.735,49.473,33.729,49.189,33.723,48.805z M36.061,43.153
			c-0.084-0.121-0.206-0.167-0.361-0.144s-0.271,0.107-0.348,0.253s-0.119,0.283-0.126,0.418c-0.008,0.135-0.01,0.322-0.006,0.561
			c0.047,2.653,0.07,3.98,0.117,6.634c0.004,0.223,0.011,0.393,0.02,0.512c0.008,0.117,0.025,0.267,0.054,0.439
			c0.029,0.171,0.079,0.292,0.151,0.367c0.072,0.073,0.167,0.103,0.285,0.086c0.118-0.017,0.214-0.075,0.286-0.169
			c0.072-0.096,0.119-0.23,0.144-0.409c0.024-0.181,0.04-0.334,0.045-0.453c0.005-0.121,0.004-0.292,0.001-0.516
			c-0.038-2.657-0.056-3.985-0.094-6.643c-0.003-0.238-0.011-0.426-0.023-0.558S36.145,43.274,36.061,43.153z"/>
		<path fill="#4D509B" d="M43.279,40.591c-0.03,3.645-0.047,5.468-0.077,9.112c-0.005,0.611-0.019,1.109-0.043,1.497
			c-0.024,0.386-0.08,0.79-0.168,1.215s-0.214,0.764-0.374,1.015c-0.159,0.251-0.383,0.473-0.672,0.666
			c-0.288,0.193-0.645,0.32-1.068,0.386c-0.372,0.058-0.693,0.061-0.966,0.011s-0.497-0.164-0.673-0.342s-0.316-0.375-0.424-0.593
			c-0.107-0.216-0.19-0.509-0.246-0.88c-0.056-0.374-0.095-0.733-0.111-1.078c-0.017-0.343-0.025-0.772-0.029-1.294
			c-0.021-3.554-0.031-5.332-0.052-8.886c-0.002-0.226,0-0.393,0.003-0.506s0.016-0.266,0.036-0.453
			c0.021-0.187,0.053-0.327,0.097-0.418c0.044-0.092,0.11-0.18,0.199-0.266s0.195-0.139,0.322-0.16
			c0.224-0.037,0.336-0.056,0.561-0.093c0.127-0.021,0.238-0.005,0.328,0.052s0.157,0.124,0.202,0.201
			c0.045,0.076,0.078,0.205,0.102,0.385c0.022,0.181,0.035,0.327,0.039,0.439s0.007,0.278,0.007,0.505
			c0.004,3.731,0.006,5.599,0.01,9.33c0,0.213,0.006,0.369,0.013,0.466c0.007,0.099,0.027,0.208,0.061,0.33
			c0.032,0.122,0.093,0.205,0.179,0.246c0.087,0.042,0.202,0.056,0.347,0.033c0.152-0.023,0.265-0.104,0.341-0.235
			c0.076-0.133,0.119-0.267,0.131-0.403s0.019-0.337,0.02-0.606c0.009-3.746,0.013-5.62,0.021-9.366
			c0.001-0.226,0.002-0.396,0.007-0.51c0.003-0.113,0.019-0.261,0.042-0.441c0.022-0.181,0.055-0.316,0.1-0.408
			c0.046-0.093,0.115-0.182,0.205-0.268s0.197-0.141,0.324-0.162c0.224-0.037,0.337-0.056,0.56-0.093
			c0.126-0.021,0.233-0.002,0.321,0.055s0.151,0.123,0.195,0.201c0.043,0.077,0.076,0.202,0.097,0.376
			c0.021,0.173,0.031,0.32,0.033,0.433C43.279,40.196,43.281,40.364,43.279,40.591z"/>
		<path fill="#4D509B" d="M46.708,49.573c0.016-0.762,0.023-1.142,0.039-1.903c0.006-0.3-0.017-0.486-0.074-0.557
			s-0.141-0.096-0.254-0.08c-0.145,0.021-0.24-0.039-0.282-0.175c-0.043-0.136-0.062-0.368-0.056-0.697
			c0.002-0.085,0.002-0.125,0.004-0.21c0.016-0.884,0.048-1.417,0.093-1.595s0.178-0.279,0.399-0.311
			c0.541-0.077,0.795-0.11,1.29-0.174c0.087-0.011,0.155-0.002,0.209,0.034c0.055,0.036,0.093,0.105,0.111,0.203
			c0.018,0.099,0.027,0.18,0.032,0.25c0.004,0.07,0.004,0.177,0,0.319c-0.073,2.678-0.108,4.02-0.171,6.695
			c-0.01,0.4-0.052,0.742-0.123,1.028c-0.07,0.286-0.146,0.505-0.227,0.656c-0.082,0.152-0.196,0.273-0.338,0.361
			c-0.143,0.089-0.256,0.141-0.34,0.159s-0.198,0.035-0.341,0.054c-0.305,0.039-0.597,0.01-0.879-0.086
			c-0.281-0.096-0.571-0.306-0.86-0.625s-0.542-0.749-0.751-1.284c-0.209-0.537-0.379-1.262-0.506-2.179s-0.186-1.976-0.175-3.184
			c0.011-1.165,0.092-2.216,0.247-3.155s0.352-1.697,0.581-2.274c0.229-0.575,0.494-1.058,0.794-1.445
			c0.299-0.388,0.583-0.663,0.846-0.832c0.263-0.168,0.522-0.271,0.779-0.31c0.507-0.074,0.844-0.054,1.041,0.055
			s0.292,0.327,0.283,0.656c-0.018,0.678-0.029,1.019-0.047,1.696c-0.009,0.344-0.096,0.524-0.266,0.547
			c-0.082,0.011-0.223-0.019-0.43-0.082s-0.393-0.084-0.543-0.063c-0.278,0.04-0.522,0.271-0.733,0.686
			c-0.21,0.414-0.368,0.921-0.464,1.518s-0.164,1.108-0.204,1.532c-0.041,0.426-0.063,0.801-0.067,1.129
			c-0.008,0.527-0.001,1.031,0.021,1.511s0.068,0.979,0.132,1.502c0.064,0.524,0.174,0.935,0.328,1.232
			c0.154,0.297,0.347,0.436,0.569,0.405C46.588,50.555,46.695,50.216,46.708,49.573z"/>
		<path fill="#4D509B" d="M50.261,39.611c-0.055,1.078-0.078,1.617-0.13,2.695c-0.028,0.59-0.024,0.933,0.014,1.027
			c0.038,0.097,0.182,0.128,0.436,0.1s0.407-0.088,0.457-0.187s0.091-0.431,0.126-0.994c0.069-1.106,0.105-1.66,0.178-2.768
			c0.015-0.231,0.029-0.402,0.041-0.519c0.011-0.116,0.031-0.271,0.064-0.461c0.032-0.189,0.071-0.33,0.117-0.42
			c0.047-0.091,0.113-0.176,0.2-0.258s0.189-0.13,0.306-0.143c0.205-0.023,0.307-0.034,0.514-0.057
			c0.117-0.013,0.216,0.012,0.292,0.076s0.13,0.137,0.164,0.22c0.033,0.082,0.053,0.217,0.056,0.403
			c0.004,0.188,0.001,0.338-0.007,0.454c-0.007,0.116-0.02,0.287-0.041,0.52c-0.435,4.784-0.664,7.18-0.901,11.936
			c-0.012,0.23-0.021,0.405-0.03,0.521c-0.008,0.115-0.024,0.264-0.05,0.452c-0.024,0.188-0.055,0.33-0.092,0.418
			c-0.038,0.09-0.089,0.172-0.159,0.249s-0.154,0.121-0.25,0.129c-0.169,0.015-0.25,0.023-0.419,0.038
			c-0.096,0.009-0.177-0.02-0.242-0.085s-0.115-0.143-0.146-0.227c-0.03-0.082-0.05-0.215-0.061-0.399s-0.019-0.333-0.017-0.448
			c0.001-0.114,0.006-0.288,0.015-0.519c0.048-1.293,0.074-1.938,0.138-3.233c0.034-0.705,0.032-1.132-0.01-1.277
			c-0.043-0.146-0.179-0.206-0.404-0.182c-0.039,0.004-0.061,0.006-0.1,0.01c-0.16,0.018-0.264,0.083-0.318,0.195
			s-0.097,0.429-0.117,0.946c-0.007,0.163-0.009,0.245-0.015,0.408c-0.05,1.292-0.071,1.938-0.11,3.228
			c-0.007,0.229-0.014,0.401-0.02,0.517c-0.007,0.115-0.019,0.269-0.041,0.456s-0.051,0.325-0.086,0.413
			c-0.036,0.09-0.089,0.179-0.158,0.257s-0.152,0.12-0.248,0.13c-0.169,0.018-0.252,0.027-0.421,0.046
			c-0.096,0.011-0.178-0.014-0.243-0.077s-0.111-0.138-0.143-0.221c-0.031-0.081-0.055-0.215-0.067-0.398s-0.021-0.333-0.021-0.447
			s0.004-0.284,0.01-0.514c0.112-4.719,0.189-7.084,0.338-11.809c0.007-0.229,0.011-0.398,0.018-0.514s0.024-0.268,0.049-0.457
			c0.024-0.188,0.059-0.327,0.099-0.417c0.04-0.091,0.1-0.178,0.177-0.26c0.078-0.082,0.173-0.129,0.281-0.143
			c0.191-0.025,0.286-0.039,0.481-0.063c0.11-0.014,0.205,0.012,0.28,0.074s0.128,0.133,0.163,0.214
			c0.035,0.08,0.058,0.215,0.068,0.399c0.011,0.186,0.015,0.334,0.013,0.448C50.283,39.21,50.272,39.381,50.261,39.611z"/>
		<path fill="#4D509B" d="M57.147,38.956c-0.74,4.843-1.131,7.269-1.53,12.063c-0.02,0.232-0.034,0.407-0.046,0.523
			S55.54,51.812,55.509,52s-0.065,0.327-0.104,0.414c-0.04,0.089-0.098,0.173-0.17,0.248s-0.153,0.113-0.249,0.117
			c-0.169,0.008-0.253,0.012-0.422,0.021c-0.096,0.005-0.175-0.025-0.238-0.094c-0.063-0.068-0.111-0.148-0.14-0.234
			c-0.028-0.084-0.045-0.219-0.051-0.405s-0.005-0.336,0-0.452s0.016-0.291,0.032-0.523c0.335-4.778,0.657-7.189,1.273-12.009
			c0.03-0.234,0.054-0.41,0.072-0.527s0.048-0.269,0.094-0.461c0.045-0.191,0.096-0.335,0.148-0.426
			c0.053-0.091,0.126-0.175,0.218-0.255c0.093-0.081,0.199-0.125,0.316-0.134c0.207-0.016,0.312-0.024,0.518-0.039
			c0.116-0.008,0.208,0.021,0.279,0.09s0.12,0.144,0.147,0.229c0.027,0.084,0.036,0.222,0.027,0.411
			c-0.009,0.19-0.021,0.344-0.036,0.461C57.209,38.547,57.184,38.721,57.147,38.956z"/>
		<path fill="#4D509B" d="M59.63,40.898c-0.745,4.11-1.113,6.163-1.497,10.221c-0.031,0.277-0.055,0.486-0.075,0.625
			S58,52.039,57.955,52.212c-0.045,0.175-0.1,0.306-0.176,0.386c-0.075,0.078-0.171,0.115-0.283,0.116
			c-0.168,0.001-0.253,0.003-0.421,0.005c-0.096,0.001-0.176-0.034-0.238-0.105s-0.104-0.149-0.131-0.236
			c-0.026-0.085-0.044-0.224-0.046-0.412s0.001-0.339,0.008-0.455s0.02-0.293,0.041-0.526c0.363-3.991,0.686-6.008,1.35-10.042
			c0.046-0.278,0.063-0.461,0.047-0.547c-0.017-0.088-0.077-0.129-0.18-0.124c-0.02,0.001-0.06,0.007-0.122,0.018
			s-0.115,0.015-0.16,0.017c-0.288,0.015-0.402-0.181-0.339-0.592c0.116-0.749,0.175-1.124,0.293-1.873
			c0.032-0.205,0.105-0.371,0.215-0.494s0.231-0.188,0.365-0.195c1.107-0.062,1.647-0.083,2.656-0.093
			c0.122-0.001,0.21,0.056,0.268,0.174c0.057,0.118,0.066,0.283,0.025,0.489c-0.148,0.755-0.223,1.133-0.368,1.887
			c-0.08,0.415-0.248,0.621-0.514,0.622c-0.018,0-0.057-0.003-0.108-0.011s-0.099-0.009-0.141-0.009
			c-0.107,0.001-0.18,0.043-0.222,0.123C59.732,40.415,59.684,40.603,59.63,40.898z"/>
	</g>
</g>
<g>
	<g>
		<path d="M95.919,29.959c0.241,3.842,0.363,5.762,0.604,9.603c0.01,0.263,0.017,0.46,0.016,0.591
			c-0.001,0.132-0.014,0.281-0.036,0.448c-0.022,0.166-0.067,0.289-0.138,0.368s-0.167,0.118-0.286,0.122
			c-0.18,0.006-0.271,0.008-0.45,0.013c-0.102,0.003-0.191-0.028-0.268-0.097c-0.076-0.067-0.133-0.143-0.175-0.224
			c-0.042-0.083-0.076-0.211-0.106-0.391c-0.03-0.179-0.054-0.324-0.064-0.435s-0.023-0.274-0.039-0.495
			c-0.26-3.776-0.388-5.665-0.647-9.441c-0.018-0.262-0.045-0.433-0.082-0.515s-0.107-0.121-0.207-0.118
			c-0.019,0-0.058,0.005-0.116,0.013c-0.06,0.008-0.109,0.013-0.153,0.014c-0.281,0.006-0.437-0.186-0.465-0.571
			c-0.051-0.702-0.076-1.052-0.127-1.753c-0.014-0.192,0.02-0.346,0.097-0.458c0.077-0.111,0.176-0.168,0.303-0.171
			c1.048-0.025,1.574-0.05,2.622-0.114c0.127-0.008,0.234,0.043,0.326,0.147c0.092,0.105,0.144,0.253,0.155,0.446
			c0.042,0.705,0.065,1.056,0.107,1.761c0.022,0.387-0.11,0.59-0.392,0.606c-0.019,0.001-0.055,0-0.111-0.004
			c-0.057-0.003-0.108-0.004-0.152-0.002c-0.113,0.006-0.18,0.048-0.203,0.125C95.906,29.506,95.901,29.684,95.919,29.959z"/>
		<path d="M100.178,27.679c0.302,2.333,0.556,4.493,0.813,6.412s0.431,3.241,0.525,3.964c0.095,0.724,0.148,1.259,0.163,1.606
			c0.019,0.444-0.029,0.734-0.144,0.872c-0.114,0.137-0.315,0.22-0.603,0.247c-0.19,0.018-0.285,0.027-0.476,0.044
			c-0.155,0.014-0.275-0.239-0.357-0.755c-0.082-0.515-0.149-1.028-0.205-1.546s-0.131-0.772-0.228-0.764
			c-0.291,0.024-0.438,0.037-0.729,0.059c-0.097,0.007-0.151,0.271-0.166,0.793s-0.04,1.045-0.075,1.568
			c-0.035,0.524-0.13,0.789-0.285,0.799c-0.169,0.011-0.253,0.016-0.422,0.025c-0.27,0.016-0.464-0.036-0.585-0.154
			c-0.121-0.119-0.194-0.398-0.221-0.84c-0.018-0.291-0.025-0.659-0.019-1.111c0.006-0.45,0.02-1.008,0.041-1.675
			c0.021-0.666,0.052-1.846,0.092-3.54s0.086-3.616,0.126-5.754c0.021-1.11,0.202-1.682,0.55-1.711
			c0.585-0.049,0.877-0.076,1.462-0.134C99.778,26.05,100.036,26.587,100.178,27.679z M98.758,34.057
			c-0.001,0.083,0.001,0.188,0.008,0.312c0.006,0.111,0.021,0.191,0.045,0.237c0.023,0.047,0.055,0.073,0.095,0.077
			s0.121,0,0.237-0.01c0.153-0.013,0.249-0.034,0.291-0.066c0.041-0.031,0.058-0.123,0.05-0.275
			c-0.006-0.125-0.014-0.237-0.024-0.333c-0.034-0.316-0.075-0.727-0.122-1.231c-0.047-0.504-0.086-0.923-0.118-1.261
			c-0.032-0.338-0.068-0.677-0.107-1.014c-0.039-0.337-0.079-0.592-0.119-0.763c-0.04-0.17-0.079-0.252-0.116-0.249
			c-0.025,0.002-0.046,0.049-0.066,0.141s-0.037,0.233-0.046,0.422s-0.017,0.384-0.021,0.586c-0.005,0.202-0.008,0.462-0.007,0.782
			s0.003,0.598,0.006,0.834c0.003,0.236,0.009,0.542,0.013,0.917S98.761,33.837,98.758,34.057z"/>
		<path d="M104.657,32.501c0.952,3.999,1.421,6.369,1.446,7.043c0.016,0.414-0.14,0.651-0.451,0.692
			c-0.187,0.024-0.279,0.035-0.466,0.06c-0.27,0.035-0.449-0.033-0.535-0.205c-0.087-0.171-0.193-0.622-0.325-1.348
			c-0.08-0.438-0.169-0.932-0.263-1.487c-0.094-0.556-0.167-0.986-0.224-1.294c-0.056-0.308-0.115-0.613-0.178-0.914
			s-0.119-0.512-0.17-0.639c-0.05-0.126-0.1-0.188-0.148-0.182c-0.05,0.006-0.069,0.164-0.059,0.471
			c0.003,0.083,0.013,0.24,0.026,0.469c0.015,0.229,0.023,0.405,0.028,0.531c0.044,1.254,0.064,1.882,0.108,3.136
			c0.008,0.224,0.014,0.391,0.015,0.503s-0.005,0.258-0.017,0.44c-0.012,0.184-0.035,0.319-0.068,0.408
			c-0.033,0.087-0.082,0.173-0.151,0.25c-0.069,0.078-0.153,0.123-0.255,0.135c-0.18,0.021-0.271,0.028-0.45,0.048
			c-0.102,0.011-0.189-0.014-0.265-0.076c-0.074-0.062-0.132-0.133-0.171-0.212c-0.039-0.081-0.072-0.209-0.098-0.389
			c-0.025-0.179-0.041-0.322-0.049-0.434s-0.017-0.277-0.025-0.5c-0.189-4.588-0.281-6.881-0.47-11.469
			c-0.009-0.222-0.016-0.39-0.017-0.501c-0.002-0.112,0.002-0.26,0.014-0.443c0.012-0.183,0.033-0.318,0.067-0.405
			c0.034-0.088,0.089-0.172,0.162-0.251s0.165-0.125,0.272-0.139c0.19-0.023,0.284-0.035,0.475-0.06
			c0.107-0.014,0.201,0.009,0.279,0.068s0.138,0.129,0.179,0.208c0.041,0.078,0.072,0.207,0.098,0.385
			c0.025,0.179,0.045,0.323,0.052,0.435s0.013,0.278,0.021,0.501c0.065,1.854,0.104,2.933,0.118,3.239s0.034,0.459,0.059,0.456
			c0.08-0.01,0.157-0.216,0.231-0.618c0.074-0.401,0.142-0.902,0.203-1.498c0.062-0.597,0.097-0.911,0.102-0.939
			c0.034-0.196,0.066-0.453,0.107-0.76s0.07-0.521,0.092-0.644c0.021-0.122,0.051-0.274,0.086-0.454s0.075-0.304,0.111-0.372
			c0.035-0.068,0.081-0.132,0.14-0.189c0.059-0.058,0.129-0.093,0.211-0.104c0.221-0.032,0.331-0.047,0.552-0.08
			c0.139-0.021,0.243-0.028,0.31-0.024s0.127,0.047,0.189,0.128c0.063,0.083,0.101,0.214,0.105,0.396
			c0.007,0.266-0.038,0.643-0.131,1.133c-0.073,0.388-0.199,1.008-0.371,1.847s-0.316,1.558-0.438,2.165
			c-0.122,0.606-0.182,0.931-0.181,0.973C104.541,32.006,104.58,32.176,104.657,32.501z"/>
		<path d="M107.855,34.589c0.011,0.59,0.014,0.884,0.024,1.473c0.01,0.224,0.057,0.39,0.135,0.497
			c0.078,0.108,0.164,0.155,0.261,0.141c0.2-0.03,0.387-0.065,0.563-0.106c0.175-0.04,0.279-0.063,0.315-0.069
			c0.188-0.029,0.32,0.018,0.395,0.141s0.112,0.345,0.116,0.669c0.006,0.591,0.011,0.888,0.018,1.479
			c0.003,0.31-0.021,0.529-0.073,0.665c-0.053,0.135-0.147,0.213-0.278,0.232c-0.947,0.143-1.419,0.212-2.366,0.346
			c-0.358,0.051-0.554-0.485-0.58-1.605c-0.109-4.621-0.163-6.929-0.271-11.549c-0.005-0.224-0.008-0.393-0.007-0.506
			c0-0.113,0.006-0.26,0.021-0.445c0.015-0.185,0.046-0.322,0.081-0.412c0.036-0.09,0.088-0.177,0.162-0.259
			s0.167-0.131,0.274-0.147c0.979-0.153,1.47-0.234,2.449-0.396c0.127-0.021,0.231,0.019,0.317,0.117
			c0.087,0.099,0.131,0.246,0.133,0.442c0.008,0.718,0.011,1.077,0.019,1.795c0.002,0.226-0.029,0.376-0.098,0.451
			c-0.068,0.074-0.174,0.122-0.317,0.146c-0.132,0.021-0.296,0.042-0.493,0.06s-0.331,0.03-0.399,0.041
			c-0.125,0.02-0.224,0.058-0.295,0.112s-0.121,0.143-0.15,0.266c-0.029,0.125-0.047,0.235-0.051,0.334
			c-0.005,0.1-0.007,0.256-0.003,0.467c0.008,0.421,0.018,0.713,0.023,0.874s0.024,0.318,0.059,0.475
			c0.033,0.157,0.08,0.25,0.143,0.283s0.153,0.039,0.271,0.021c0.224-0.035,0.416-0.071,0.577-0.11
			c0.161-0.039,0.264-0.063,0.307-0.07c0.229-0.037,0.348,0.269,0.354,0.916c0.006,0.541,0.01,0.812,0.016,1.352
			c0.002,0.197-0.02,0.351-0.062,0.463s-0.085,0.183-0.137,0.212c-0.052,0.03-0.126,0.052-0.218,0.066
			c-0.178,0.028-0.37,0.051-0.578,0.069s-0.334,0.03-0.377,0.037c-0.098,0.015-0.169,0.065-0.21,0.148
			c-0.042,0.084-0.066,0.182-0.07,0.295S107.851,34.309,107.855,34.589z"/>
		<path d="M114.66,28.749c0.292-1.553,0.438-2.329,0.738-3.884c0.1-0.527,0.206-0.872,0.318-1.033
			c0.111-0.16,0.269-0.257,0.465-0.289c0.205-0.034,0.307-0.051,0.512-0.084c0.107-0.018,0.198,0.002,0.273,0.062
			s0.13,0.127,0.167,0.207c0.036,0.079,0.063,0.211,0.077,0.394c0.016,0.183,0.024,0.329,0.025,0.443
			c0.002,0.114,0.001,0.285-0.003,0.512c-0.083,4.703-0.123,7.054-0.205,11.756c-0.004,0.228-0.008,0.399-0.013,0.514
			c-0.005,0.114-0.017,0.265-0.038,0.453c-0.021,0.188-0.052,0.33-0.089,0.42c-0.037,0.09-0.093,0.176-0.166,0.257
			c-0.073,0.082-0.16,0.13-0.262,0.145c-0.18,0.026-0.269,0.04-0.448,0.066c-0.102,0.016-0.188-0.008-0.259-0.068
			c-0.071-0.06-0.124-0.132-0.158-0.21c-0.035-0.08-0.061-0.209-0.076-0.392c-0.016-0.182-0.025-0.33-0.026-0.443
			c-0.002-0.113-0.003-0.283,0-0.511c0.027-2.345,0.041-3.519,0.068-5.864c0.002-0.142-0.012-0.211-0.042-0.206
			c-0.024,0.004-0.058,0.08-0.089,0.227c-0.085,0.395-0.166,0.793-0.249,1.189s-0.149,0.708-0.197,0.936s-0.095,0.455-0.139,0.681
			c-0.045,0.228-0.082,0.395-0.109,0.505c-0.028,0.111-0.06,0.216-0.094,0.313c-0.034,0.098-0.068,0.163-0.102,0.196
			c-0.034,0.034-0.074,0.055-0.116,0.061c-0.043,0.007-0.08-0.002-0.113-0.026c-0.033-0.022-0.064-0.077-0.097-0.164
			c-0.033-0.087-0.063-0.182-0.09-0.284c-0.027-0.102-0.062-0.259-0.106-0.472c-0.044-0.211-0.086-0.425-0.128-0.638
			s-0.102-0.509-0.18-0.886c-0.078-0.376-0.158-0.741-0.236-1.097c-0.03-0.136-0.058-0.203-0.081-0.199
			c-0.031,0.005-0.048,0.078-0.048,0.219c-0.008,2.337-0.014,3.505-0.021,5.842c-0.001,0.227,0.002,0.397-0.001,0.511
			c-0.004,0.114-0.015,0.264-0.033,0.45c-0.019,0.188-0.048,0.325-0.084,0.417c-0.036,0.09-0.089,0.178-0.161,0.259
			c-0.072,0.082-0.16,0.13-0.262,0.146c-0.18,0.027-0.267,0.042-0.446,0.069c-0.102,0.016-0.191-0.004-0.264-0.064
			c-0.071-0.06-0.125-0.13-0.16-0.208c-0.036-0.079-0.062-0.21-0.08-0.392c-0.019-0.181-0.031-0.326-0.034-0.438
			c-0.004-0.112-0.005-0.283-0.006-0.509c-0.013-4.662-0.021-6.994-0.032-11.656c-0.001-0.226,0.002-0.394,0.005-0.507
			s0.014-0.264,0.032-0.451c0.019-0.187,0.047-0.327,0.084-0.418c0.038-0.091,0.094-0.178,0.169-0.261
			c0.076-0.083,0.169-0.136,0.276-0.154c0.201-0.034,0.302-0.051,0.503-0.085c0.196-0.034,0.353,0.014,0.466,0.144
			c0.114,0.129,0.215,0.435,0.308,0.915c0.277,1.457,0.414,2.185,0.684,3.646c0.071,0.385,0.132,0.575,0.182,0.566
			S114.582,29.159,114.66,28.749z"/>
		<path d="M118.979,32.858c-0.015,0.601-0.023,0.901-0.038,1.501c0,0.228,0.04,0.396,0.112,0.506s0.156,0.161,0.253,0.147
			c0.2-0.027,0.39-0.06,0.565-0.098c0.176-0.037,0.282-0.059,0.318-0.064c0.188-0.025,0.314,0.027,0.383,0.154
			s0.101,0.354,0.091,0.684c-0.019,0.602-0.029,0.903-0.048,1.505c-0.01,0.316-0.047,0.54-0.104,0.676
			c-0.058,0.135-0.151,0.213-0.282,0.23c-0.947,0.12-1.422,0.184-2.369,0.317c-0.358,0.051-0.528-0.492-0.507-1.633
			c0.087-4.705,0.132-7.059,0.22-11.764c0.004-0.228,0.008-0.397,0.014-0.512s0.02-0.267,0.042-0.455
			c0.022-0.188,0.054-0.329,0.093-0.42c0.039-0.092,0.1-0.179,0.176-0.263c0.077-0.083,0.167-0.132,0.274-0.149
			c0.979-0.154,1.473-0.229,2.452-0.369c0.127-0.018,0.231,0.024,0.313,0.126c0.082,0.103,0.118,0.255,0.112,0.455
			c-0.022,0.731-0.034,1.098-0.057,1.829c-0.007,0.229-0.047,0.381-0.118,0.455c-0.071,0.074-0.178,0.121-0.321,0.141
			c-0.132,0.019-0.295,0.034-0.492,0.048c-0.196,0.014-0.33,0.026-0.398,0.036c-0.125,0.018-0.224,0.055-0.297,0.108
			s-0.124,0.144-0.159,0.269c-0.034,0.126-0.059,0.24-0.067,0.341c-0.009,0.101-0.016,0.258-0.021,0.473
			c-0.011,0.429-0.016,0.727-0.017,0.89c-0.001,0.164,0.011,0.324,0.038,0.484c0.026,0.16,0.072,0.256,0.133,0.29
			c0.062,0.034,0.148,0.043,0.266,0.027c0.224-0.032,0.418-0.066,0.579-0.103c0.161-0.036,0.265-0.059,0.308-0.064
			c0.229-0.032,0.334,0.284,0.313,0.943c-0.017,0.55-0.028,0.825-0.045,1.375c-0.006,0.201-0.029,0.357-0.076,0.47
			s-0.097,0.184-0.149,0.212c-0.053,0.029-0.123,0.049-0.215,0.061c-0.179,0.024-0.371,0.043-0.579,0.058s-0.333,0.026-0.376,0.032
			c-0.099,0.014-0.171,0.064-0.216,0.148c-0.045,0.085-0.071,0.185-0.08,0.3S118.985,32.572,118.979,32.858z"/>
		<path d="M96.893,45.481c0.24,3.841,0.36,5.762,0.602,9.604c0.011,0.263,0.02,0.461,0.02,0.593s-0.012,0.279-0.032,0.443
			c-0.021,0.166-0.063,0.292-0.129,0.368c-0.064,0.075-0.156,0.115-0.269,0.116c-0.169,0.002-0.253,0.002-0.422,0.003
			c-0.096,0.001-0.178-0.033-0.25-0.102s-0.129-0.146-0.168-0.229c-0.039-0.082-0.071-0.211-0.101-0.39s-0.05-0.322-0.061-0.433
			s-0.023-0.275-0.039-0.496c-0.26-3.777-0.391-5.667-0.65-9.443c-0.018-0.261-0.044-0.434-0.079-0.515
			c-0.035-0.083-0.099-0.122-0.192-0.121c-0.018,0-0.058,0.002-0.113,0.01s-0.103,0.01-0.144,0.01
			c-0.266,0.001-0.411-0.192-0.439-0.578c-0.051-0.701-0.076-1.051-0.127-1.752c-0.014-0.191,0.015-0.344,0.087-0.454
			s0.169-0.167,0.288-0.168c0.987-0.008,1.481-0.021,2.469-0.066c0.119-0.006,0.223,0.047,0.31,0.153s0.136,0.256,0.147,0.448
			c0.042,0.704,0.061,1.057,0.103,1.761c0.022,0.388-0.097,0.586-0.362,0.597c-0.018,0.001-0.053,0.002-0.106-0.004
			s-0.101-0.007-0.142-0.005c-0.106,0.004-0.169,0.046-0.19,0.121C96.88,45.029,96.875,45.205,96.893,45.481z"/>
		<path d="M99.41,43.411c0.054,1.039,0.081,1.557,0.135,2.596c0.029,0.568,0.066,0.902,0.112,0.995
			c0.046,0.095,0.188,0.132,0.428,0.114s0.378-0.072,0.414-0.165s0.042-0.411,0.016-0.953c-0.051-1.064-0.075-1.599-0.126-2.663
			c-0.011-0.222-0.018-0.387-0.02-0.498s0.001-0.26,0.01-0.442c0.009-0.182,0.028-0.314,0.061-0.4
			c0.031-0.086,0.081-0.166,0.149-0.242s0.155-0.117,0.257-0.127c0.179-0.017,0.269-0.025,0.447-0.043
			c0.102-0.01,0.189,0.019,0.264,0.081s0.131,0.133,0.17,0.213c0.039,0.079,0.072,0.209,0.098,0.388
			c0.025,0.18,0.043,0.323,0.051,0.435s0.014,0.276,0.023,0.499c0.192,4.587,0.289,6.88,0.481,11.467
			c0.01,0.223,0.015,0.389,0.017,0.5s0,0.261-0.01,0.442s-0.032,0.315-0.063,0.4c-0.03,0.087-0.077,0.168-0.142,0.242
			s-0.143,0.116-0.238,0.124c-0.168,0.014-0.252,0.018-0.421,0.03c-0.096,0.007-0.18-0.02-0.25-0.084s-0.125-0.139-0.162-0.221
			c-0.038-0.08-0.068-0.209-0.094-0.388s-0.044-0.324-0.052-0.436s-0.018-0.278-0.028-0.5c-0.06-1.248-0.09-1.872-0.149-3.12
			c-0.032-0.68-0.077-1.088-0.133-1.229s-0.193-0.205-0.412-0.189c-0.038,0.003-0.061,0.004-0.099,0.007
			c-0.155,0.011-0.255,0.069-0.298,0.176c-0.044,0.106-0.05,0.409-0.023,0.908c0.008,0.157,0.011,0.235,0.019,0.393
			c0.064,1.246,0.097,1.871,0.161,3.117c0.012,0.222,0.021,0.388,0.023,0.499s0.001,0.256-0.007,0.437s-0.026,0.314-0.056,0.398
			c-0.029,0.086-0.076,0.165-0.14,0.237s-0.146,0.111-0.242,0.116c-0.169,0.009-0.25,0.013-0.418,0.021
			c-0.096,0.004-0.179-0.027-0.25-0.094s-0.128-0.142-0.167-0.225c-0.038-0.081-0.067-0.21-0.095-0.389s-0.048-0.323-0.057-0.434
			c-0.01-0.11-0.021-0.275-0.033-0.497c-0.265-4.561-0.397-6.841-0.662-11.4c-0.013-0.222-0.021-0.388-0.023-0.499
			c-0.004-0.11-0.002-0.254,0.006-0.436c0.008-0.181,0.025-0.314,0.057-0.398c0.031-0.085,0.081-0.163,0.148-0.237
			s0.149-0.113,0.251-0.119c0.179-0.011,0.268-0.018,0.446-0.029c0.102-0.007,0.192,0.022,0.268,0.087s0.134,0.135,0.174,0.216
			c0.04,0.08,0.071,0.21,0.099,0.389c0.027,0.18,0.046,0.324,0.055,0.435S99.398,43.189,99.41,43.411z"/>
		<path d="M102.688,41.44c0.698-0.076,1.046-0.12,1.743-0.206c1.139-0.141,1.746,1.354,1.824,4.502
			c0.016,0.616,0.021,1.078,0.015,1.388s-0.042,0.661-0.107,1.055s-0.179,0.766-0.32,1.104c-0.055,0.131-0.121,0.238-0.197,0.317
			c-0.076,0.081-0.126,0.165-0.149,0.252c-0.023,0.086-0.029,0.25-0.022,0.487c0.014,0.488,0.061,0.924,0.138,1.308
			c0.076,0.384,0.179,0.567,0.31,0.552c0.046-0.006,0.088-0.02,0.128-0.038s0.073-0.04,0.098-0.064
			c0.025-0.024,0.042-0.035,0.048-0.036c0.125-0.016,0.212,0.096,0.261,0.336c0.05,0.24,0.078,0.625,0.091,1.156
			c0.003,0.14,0.007,0.398,0.013,0.77c0.007,0.371,0.016,0.667,0.021,0.892c0.006,0.251-0.024,0.452-0.088,0.6
			c-0.064,0.147-0.197,0.235-0.399,0.259c-0.358,0.041-0.658-0.208-0.896-0.743c-0.236-0.533-0.409-1.228-0.529-2.082
			c-0.081-0.578-0.171-1.056-0.263-1.422c-0.093-0.368-0.165-0.593-0.214-0.679s-0.086-0.128-0.114-0.125
			c-0.046,0.005-0.064,0.174-0.053,0.509c0.041,1.188,0.063,1.78,0.104,2.968c0.008,0.224,0.012,0.393,0.014,0.505
			c0.001,0.112-0.003,0.258-0.014,0.44s-0.033,0.319-0.063,0.405c-0.031,0.087-0.079,0.167-0.145,0.243s-0.144,0.123-0.239,0.132
			c-0.236,0.022-0.354,0.031-0.59,0.053c-0.079,0.007-0.146-0.026-0.2-0.106c-0.054-0.078-0.093-0.216-0.12-0.408
			s-0.046-0.358-0.055-0.498c-0.009-0.138-0.018-0.348-0.029-0.626c-0.187-4.589-0.28-6.883-0.467-11.472
			c-0.009-0.223-0.016-0.388-0.017-0.499c-0.002-0.111,0.004-0.262,0.015-0.445c0.011-0.183,0.032-0.316,0.064-0.402
			c0.032-0.087,0.081-0.168,0.149-0.246S102.586,41.451,102.688,41.44z M104.167,44.104c-0.177,0.021-0.289,0.087-0.332,0.202
			c-0.043,0.117-0.057,0.37-0.044,0.747c0.003,0.083,0.012,0.256,0.024,0.529c0.012,0.271,0.021,0.49,0.027,0.657
			c0.005,0.152,0.009,0.351,0.015,0.588c0.005,0.237,0.011,0.391,0.013,0.46c0.012,0.349,0.04,0.569,0.09,0.66
			c0.05,0.093,0.164,0.128,0.338,0.108c0.319-0.036,0.459-0.678,0.42-1.919C104.675,44.741,104.491,44.065,104.167,44.104z"/>
		<path d="M106.654,49.298c-0.006-0.385-0.01-0.676-0.015-0.873c-0.005-0.195-0.015-0.483-0.026-0.86
			c-0.012-0.379-0.02-0.656-0.023-0.84c-0.019-0.783-0.028-1.425-0.022-1.926c0.006-0.497,0.041-1.028,0.105-1.592
			s0.162-1.012,0.295-1.339c0.133-0.328,0.325-0.61,0.574-0.85c0.249-0.238,0.562-0.387,0.932-0.44
			c0.352-0.052,0.648,0.007,0.892,0.174c0.244,0.168,0.434,0.395,0.57,0.676c0.137,0.283,0.242,0.691,0.318,1.223
			c0.075,0.532,0.126,1.042,0.147,1.532c0.021,0.491,0.033,1.133,0.04,1.923c0.004,0.436,0.011,1.058,0.026,1.866
			c0.016,0.811,0.024,1.397,0.027,1.764c0.006,0.747,0.003,1.383-0.016,1.907s-0.064,1.056-0.134,1.587s-0.168,0.959-0.297,1.286
			c-0.13,0.329-0.308,0.606-0.531,0.833c-0.225,0.227-0.494,0.36-0.809,0.401c-0.348,0.045-0.643-0.02-0.885-0.193
			c-0.243-0.174-0.437-0.408-0.575-0.699c-0.14-0.293-0.252-0.707-0.338-1.243s-0.144-1.052-0.173-1.547
			c-0.028-0.495-0.048-1.134-0.066-1.919C106.668,49.967,106.66,49.683,106.654,49.298z M108.787,43.691
			c-0.072-0.124-0.18-0.175-0.315-0.155s-0.234,0.1-0.303,0.243s-0.11,0.281-0.116,0.416c-0.007,0.135-0.005,0.322-0.001,0.561
			c0.047,2.653,0.069,3.979,0.116,6.633c0.004,0.223,0.01,0.394,0.018,0.513c0.008,0.117,0.025,0.266,0.051,0.439
			c0.025,0.172,0.071,0.292,0.135,0.369c0.063,0.075,0.146,0.108,0.247,0.095c0.103-0.014,0.186-0.067,0.247-0.159
			c0.062-0.094,0.102-0.229,0.122-0.407c0.021-0.18,0.032-0.329,0.036-0.448c0.004-0.121,0.003-0.291,0-0.515
			c-0.037-2.657-0.055-3.985-0.092-6.643c-0.003-0.238-0.008-0.428-0.019-0.561S108.859,43.815,108.787,43.691z"/>
		<path d="M114.608,41.432c-0.03,3.646-0.042,5.467-0.072,9.112c-0.005,0.611-0.019,1.108-0.039,1.495
			c-0.021,0.385-0.066,0.786-0.138,1.207s-0.171,0.754-0.299,0.998c-0.127,0.244-0.306,0.456-0.533,0.637
			c-0.227,0.18-0.507,0.29-0.839,0.335c-0.291,0.04-0.543,0.026-0.757-0.036s-0.391-0.184-0.529-0.369s-0.25-0.391-0.336-0.613
			c-0.086-0.221-0.152-0.518-0.197-0.892c-0.045-0.376-0.075-0.736-0.089-1.081c-0.014-0.343-0.02-0.777-0.023-1.299
			c-0.021-3.554-0.034-5.329-0.056-8.883c-0.002-0.226,0-0.394,0.002-0.507s0.01-0.264,0.026-0.45
			c0.017-0.186,0.044-0.324,0.079-0.413c0.035-0.09,0.089-0.176,0.16-0.258s0.156-0.13,0.258-0.146
			c0.179-0.027,0.269-0.04,0.447-0.067c0.102-0.016,0.188,0.005,0.26,0.065s0.125,0.13,0.161,0.209
			c0.036,0.078,0.063,0.208,0.081,0.389c0.018,0.182,0.028,0.331,0.031,0.443s0.004,0.279,0.004,0.506
			c0.004,3.731,0.006,5.597,0.01,9.328c0,0.213,0.004,0.368,0.01,0.465c0.006,0.099,0.021,0.211,0.048,0.334
			c0.025,0.123,0.072,0.211,0.14,0.256c0.068,0.046,0.16,0.063,0.273,0.048c0.119-0.017,0.211-0.089,0.271-0.217
			c0.06-0.13,0.091-0.263,0.1-0.398s0.017-0.337,0.018-0.606c0.009-3.746,0.012-5.618,0.021-9.364
			c0.001-0.226,0.001-0.396,0.005-0.511c0.003-0.113,0.017-0.258,0.035-0.438c0.018-0.18,0.044-0.318,0.079-0.408
			c0.036-0.091,0.09-0.176,0.162-0.258s0.158-0.131,0.26-0.146c0.179-0.027,0.269-0.041,0.447-0.068
			c0.102-0.016,0.188,0.006,0.26,0.066s0.123,0.13,0.158,0.21c0.035,0.079,0.061,0.209,0.076,0.384
			c0.017,0.175,0.025,0.318,0.027,0.431C114.611,41.034,114.61,41.205,114.608,41.432z"/>
		<path d="M117.542,50.522c0.016-0.762,0.021-1.146,0.037-1.907c0.006-0.3-0.013-0.484-0.066-0.556s-0.134-0.1-0.237-0.086
			c-0.133,0.018-0.218-0.04-0.255-0.177c-0.038-0.137-0.054-0.372-0.048-0.701c0.002-0.085,0.003-0.128,0.005-0.213
			c0.016-0.884,0.042-1.412,0.083-1.589s0.163-0.279,0.367-0.307c0.5-0.068,0.751-0.1,1.251-0.164
			c0.088-0.012,0.157-0.001,0.211,0.035c0.055,0.036,0.091,0.104,0.109,0.201c0.018,0.099,0.028,0.182,0.033,0.252
			c0.004,0.07,0.005,0.177,0.001,0.319c-0.068,2.677-0.102,4.017-0.171,6.693c-0.011,0.401-0.053,0.743-0.125,1.029
			c-0.071,0.286-0.149,0.506-0.231,0.657c-0.082,0.152-0.195,0.274-0.336,0.362c-0.142,0.089-0.255,0.14-0.336,0.157
			s-0.191,0.035-0.325,0.052c-0.286,0.035-0.551,0-0.801-0.103c-0.249-0.103-0.497-0.321-0.742-0.65
			c-0.245-0.328-0.455-0.77-0.627-1.313c-0.172-0.545-0.311-1.277-0.413-2.199s-0.148-1.985-0.138-3.193
			c0.011-1.165,0.08-2.212,0.209-3.146s0.292-1.683,0.484-2.252c0.192-0.567,0.418-1.041,0.676-1.42
			c0.257-0.379,0.502-0.648,0.736-0.811c0.234-0.161,0.472-0.259,0.71-0.293c0.471-0.066,0.805-0.045,1.002,0.064
			s0.289,0.325,0.281,0.654c-0.017,0.678-0.024,1.016-0.041,1.693c-0.009,0.344-0.1,0.526-0.271,0.549
			c-0.083,0.011-0.224-0.017-0.425-0.082s-0.373-0.085-0.514-0.065c-0.26,0.036-0.484,0.259-0.674,0.669
			c-0.188,0.409-0.327,0.913-0.412,1.508s-0.144,1.102-0.179,1.524c-0.036,0.425-0.059,0.803-0.063,1.131
			c-0.008,0.527-0.001,1.029,0.017,1.51c0.019,0.48,0.058,0.983,0.111,1.508c0.055,0.526,0.149,0.94,0.286,1.242
			c0.137,0.301,0.305,0.442,0.51,0.416C117.426,51.5,117.529,51.165,117.542,50.522z"/>
		<path d="M120.959,40.578c-0.035,1.076-0.051,1.615-0.086,2.691c-0.02,0.588-0.011,0.929,0.026,1.023
			c0.038,0.097,0.178,0.13,0.417,0.104s0.378-0.084,0.423-0.182s0.077-0.43,0.098-0.991c0.04-1.103,0.06-1.654,0.1-2.757
			c0.009-0.23,0.018-0.402,0.025-0.518c0.007-0.115,0.023-0.266,0.048-0.455c0.024-0.188,0.055-0.328,0.093-0.417
			c0.039-0.09,0.097-0.175,0.171-0.255s0.162-0.126,0.264-0.137c0.179-0.02,0.269-0.027,0.447-0.046
			c0.102-0.011,0.188,0.015,0.257,0.08s0.117,0.141,0.149,0.224c0.032,0.082,0.053,0.214,0.063,0.399
			c0.01,0.187,0.013,0.336,0.011,0.451s-0.005,0.288-0.015,0.519c-0.199,4.75-0.299,7.124-0.498,11.875
			c-0.01,0.23-0.02,0.405-0.027,0.521c-0.007,0.115-0.023,0.267-0.049,0.455c-0.024,0.188-0.055,0.329-0.092,0.417
			c-0.038,0.09-0.09,0.172-0.16,0.249s-0.154,0.12-0.25,0.128c-0.168,0.015-0.251,0.021-0.419,0.035
			c-0.096,0.009-0.179-0.019-0.243-0.084s-0.111-0.141-0.143-0.225c-0.03-0.082-0.051-0.216-0.061-0.4
			c-0.011-0.185-0.016-0.333-0.014-0.448c0.001-0.114,0.004-0.288,0.013-0.519c0.047-1.292,0.071-1.937,0.118-3.229
			c0.025-0.704,0.018-1.129-0.025-1.274c-0.044-0.146-0.176-0.209-0.395-0.186c-0.038,0.004-0.059,0.005-0.097,0.009
			c-0.155,0.017-0.257,0.083-0.309,0.195c-0.053,0.112-0.091,0.428-0.107,0.944c-0.005,0.163-0.008,0.245-0.013,0.408
			c-0.042,1.29-0.064,1.936-0.106,3.226c-0.008,0.229-0.012,0.404-0.018,0.52c-0.007,0.115-0.022,0.266-0.046,0.453
			s-0.051,0.328-0.087,0.416c-0.036,0.09-0.092,0.176-0.161,0.254s-0.149,0.122-0.245,0.132c-0.169,0.018-0.255,0.029-0.424,0.048
			c-0.096,0.011-0.175-0.018-0.24-0.081c-0.064-0.063-0.113-0.137-0.145-0.22c-0.031-0.081-0.054-0.216-0.065-0.399
			s-0.021-0.332-0.021-0.446s0.008-0.287,0.014-0.517c0.126-4.722,0.189-7.082,0.315-11.804c0.006-0.229,0.011-0.398,0.018-0.514
			s0.02-0.266,0.043-0.455c0.023-0.188,0.054-0.327,0.092-0.417c0.038-0.091,0.093-0.176,0.166-0.257s0.162-0.129,0.264-0.142
			c0.179-0.022,0.269-0.035,0.447-0.058c0.102-0.013,0.187,0.013,0.256,0.076s0.12,0.138,0.153,0.219
			c0.032,0.08,0.056,0.214,0.067,0.397c0.012,0.185,0.017,0.334,0.017,0.448C120.973,40.179,120.967,40.349,120.959,40.578z"/>
		<path d="M127.054,40.041c-0.265,4.773-0.398,7.16-0.663,11.935c-0.013,0.231-0.02,0.406-0.028,0.522
			c-0.01,0.116-0.027,0.267-0.055,0.455s-0.061,0.328-0.099,0.415c-0.039,0.088-0.095,0.171-0.166,0.245s-0.154,0.115-0.25,0.119
			c-0.169,0.008-0.253,0.012-0.422,0.021c-0.096,0.005-0.176-0.028-0.239-0.097s-0.106-0.145-0.136-0.23
			c-0.029-0.084-0.053-0.219-0.061-0.405s-0.009-0.339-0.006-0.454s0.008-0.288,0.02-0.52c0.237-4.765,0.357-7.146,0.595-11.911
			c0.012-0.231,0.021-0.403,0.029-0.52s0.028-0.269,0.056-0.458c0.027-0.188,0.062-0.329,0.102-0.417
			c0.04-0.089,0.098-0.172,0.172-0.25c0.075-0.078,0.164-0.119,0.266-0.126c0.18-0.012,0.271-0.019,0.449-0.029
			c0.102-0.006,0.185,0.023,0.252,0.092s0.114,0.146,0.146,0.23c0.03,0.084,0.052,0.22,0.06,0.406
			c0.008,0.188,0.009,0.34,0.006,0.455C127.076,39.636,127.066,39.81,127.054,40.041z"/>
		<path d="M129.571,41.977c-0.264,4.041-0.395,6.059-0.658,10.1c-0.023,0.276-0.047,0.484-0.064,0.623s-0.048,0.296-0.09,0.468
			c-0.042,0.175-0.098,0.302-0.174,0.382c-0.075,0.078-0.17,0.117-0.282,0.118c-0.169,0.001-0.253,0.001-0.421,0.003
			c-0.096,0.001-0.176-0.033-0.239-0.104s-0.107-0.148-0.136-0.235c-0.028-0.085-0.046-0.225-0.052-0.412s-0.006-0.338-0.002-0.454
			s0.012-0.291,0.025-0.523c0.237-3.973,0.356-5.957,0.594-9.93c0.017-0.274,0.013-0.455-0.012-0.54
			c-0.024-0.087-0.083-0.128-0.178-0.124c-0.018,0.001-0.057,0.005-0.113,0.015s-0.103,0.014-0.145,0.016
			c-0.266,0.011-0.386-0.184-0.363-0.589c0.042-0.737,0.062-1.107,0.104-1.845c0.012-0.202,0.062-0.362,0.148-0.482
			s0.19-0.183,0.31-0.188c0.987-0.045,1.482-0.061,2.47-0.068c0.119-0.001,0.214,0.059,0.286,0.175s0.101,0.276,0.087,0.479
			c-0.051,0.74-0.076,1.111-0.127,1.852c-0.028,0.407-0.175,0.608-0.439,0.609c-0.018,0-0.053-0.002-0.105-0.01
			s-0.099-0.009-0.141-0.009c-0.105,0.001-0.171,0.041-0.203,0.119C129.618,41.499,129.59,41.686,129.571,41.977z"/>
	</g>
</g>
</svg>
