<?xml version="1.0" encoding="UTF-8" standalone="no"?>
<svg width="404px" height="297px" viewBox="0 0 404 297" version="1.1" xmlns="http://www.w3.org/2000/svg" xmlns:xlink="http://www.w3.org/1999/xlink">
    <!-- Generator: Sketch 3.8.3 (29802) - http://www.bohemiancoding.com/sketch -->
    <title>Group 2</title>
    <desc>Created with Sketch.</desc>
    <defs></defs>
    <g id="Page-1" stroke="none" stroke-width="1" fill="none" fill-rule="evenodd">
        <g id="Button_Beer">
            <g id="Layer_1">
                <g id="Group">
                    <g id="Group-2">
                        <path d="M395.462,187.101 C398.162,180.263 385.65,160.892 387.933,158.253 C388.894,156.051 392.319,153.959 399.799,154.716 C407.279,155.471 403.036,151.027 400.777,146.57 C390.943,123.526 377.137,86.841 366.693,65.778 C363.797,51.635 347.262,31.96 337.539,26.122 C318.569,14.704 296.871,7.479 284.684,5.42 C259.613,1.223 234.385,-1.3 208.719,1.58 C179.671,4.78 138.87,14.215 113.48,28.564 C92.444,40.523 80.758,42.309 57.107,60.188 C35.493,76.527 18.365,101.623 13.185,130.066 C12.103,136.17 5.653,161.934 4.183,166.81 C1.135,176.918 0.855,186.94 0.433,191.158 C0.183,194.239 0.237,200.347 5.066,207.4 C8.933,210.594 14.471,205.936 15,208.076 C17.223,216.987 10.999,236.505 19.311,238.931 C29.057,241.729 39.413,233.8 41.967,245.352 C43.197,250.914 42.179,262.374 46.533,265.861 C50.143,268.774 59.112,265.263 62.671,263.382 C68.692,260.269 76.92,262.137 80.992,267.268 C86.048,273.644 85.362,284.373 93.333,287.223 C98.038,288.906 103.666,284.406 108.422,281.129 C110.202,279.905 122.762,274.671 131.078,278.57 C137.859,281.751 140.031,293.87 145.886,295.689 C150.637,297.161 154.303,297.479 155.621,295.494 C161.296,292.733 162.428,288.38 167.466,284.879 C166.166,285.849 172.902,282.374 173.723,282.094 C174.52,281.823 181.454,280.31 184.246,280.217 C183.239,280.25 190.553,279.258 195.059,282.147 C199.568,285.039 199.154,293.078 211.266,294.336 C219.729,295.211 226.49,278.575 236.727,274.083 C246.963,269.592 254.72,275.606 262.886,279.145 C271.052,282.68 275.99,286.523 279.459,279.054 C282.928,271.584 281.679,265.171 285.298,260.711 C288.918,256.253 300.751,251.939 306.239,251.309 C312.751,250.563 325.721,258.006 331.187,254.395 C336.869,250.644 332.093,245.753 333.302,239.091 C334.516,232.407 343.225,224.151 350.122,222.889 C357.018,221.626 364.361,225.948 369.42,223.449 C377.399,216.314 369.783,207.982 369.304,202.582 C369.151,201.073 368.794,196.056 376.716,190.525 C383.175,186.012 392.895,193.61 395.462,187.101 L395.462,187.101 Z M367.811,91.604 C371.508,86.853 379.236,109.273 379.236,109.273 C379.236,109.273 389.167,136.479 394.109,147.088 C389.874,145.68 385.686,149.051 383.863,150.564 C383.644,150.747 383.431,150.93 383.226,151.109 C376.442,139.44 366.479,118.669 364.252,110.95 C363.288,107.608 365.328,94.796 367.811,91.604 L367.811,91.604 Z M14.743,196.274 C11.763,199.245 7.78,193.783 7.659,182.116 C7.577,174.08 13.209,152.963 15.479,150.336 C16.412,154.207 23.699,165.277 22.381,172.676 C21.063,180.073 17.724,193.302 14.743,196.274 L14.743,196.274 Z M20.389,225.772 C16.408,226.355 21.16,198.809 24.681,186.617 C26.548,180.149 30.071,182.703 33.26,184.203 C39.064,186.936 46.636,192.258 49.829,206.978 C51.287,213.696 45.183,225.936 44.328,236.458 C39.626,225.211 30.118,224.347 20.389,225.772 L20.389,225.772 Z M89.226,269.067 C85.177,261.215 81.161,247.871 68.179,252.886 C67.338,252.843 50.564,261.929 50.137,251.067 C50.128,250.857 50.121,250.651 50.113,250.447 C52.159,237.487 55.635,212.327 63.417,214.357 C75.841,217.593 88.136,220.317 90.064,239.066 C90.425,242.588 90.602,262.678 91.066,269.17 C91.187,270.881 89.909,270.391 89.226,269.067 L89.226,269.067 Z M136.13,274.718 C121.587,266.502 120.343,267.765 114.099,270.045 C108.062,272.249 105.264,282.549 97.115,276.929 C97.191,267.162 95.892,240.626 96.293,236.66 C97.213,227.558 125.769,224.921 134.308,234.216 C141.172,241.684 142.877,277.756 144.105,281.615 C142.728,280.524 141.001,277.47 136.13,274.718 L136.13,274.718 Z M206.021,279.64 C192.167,265.689 168.681,269.512 151.381,280.73 C151.133,272.832 147.866,253.485 147.942,250.834 C148.51,230.878 169.792,231.703 175.508,231.663 C181.155,231.623 197.795,237.091 200.02,244.28 C202.239,251.447 208.346,273.702 211.155,283.973 C208.911,284.5 208.101,281.814 206.021,279.64 L206.021,279.64 Z M266.813,270.697 C261.022,270.358 253.959,263.313 246.914,263.02 C234.441,262.497 226.133,267.56 217.74,280.945 C217.656,281.03 217.575,281.111 217.494,281.19 C216.805,275.856 209.23,246.83 211.419,242.498 C213.02,238.913 218.976,225.383 237.684,225.358 C248.225,225.344 251.654,231.699 253.576,235.263 C256.573,240.82 262.081,260.236 267.067,270.574 C266.983,270.619 266.898,270.659 266.813,270.697 L266.813,270.697 Z M298.762,242.721 C284.739,248.416 288.933,246.015 279.189,252.872 C276.221,254.962 275.072,262.497 273.854,265.448 C272.222,259.458 261.236,232.343 261.4,229.204 C262.094,215.88 279.927,209.057 291.647,206.296 C296.824,205.076 302.879,207.377 306.795,211.11 C311.214,215.325 315.874,226.705 318.261,232.432 C318.486,232.975 320.592,239.327 322.228,244.216 C318.136,243.786 310.805,237.829 298.762,242.721 L298.762,242.721 Z M336.437,219.592 C330.07,223.395 327.839,228.902 326.768,233.74 C324.715,227.147 312.64,200.149 313.714,194.526 C318.172,171.15 333.518,163.76 335.94,164.063 C337.54,164.26 343.552,171.327 344.294,172.588 C345.468,174.6 357.982,191.892 361.591,199.164 C363.583,205.055 361.598,206.559 361.09,210.806 C360.193,218.295 345.006,213.136 336.437,219.592 L336.437,219.592 Z M366.644,189.638 C365.783,190.591 365.061,191.504 364.452,192.389 C361.805,185.981 355.1,174.835 351.299,166.346 C342.191,150.529 344.567,145.304 348.097,137.51 C349.725,133.917 351.863,130.727 354.139,128.802 C357.178,126.236 363.174,133.312 364.065,135.762 C365.125,138.675 388.719,172.597 382.922,179.365 C379.741,180.742 372.268,183.412 366.644,189.638 L366.644,189.638 Z" id="Shape" fill="#4D509B"></path>
                        <path d="M364.063,135.762 C365.123,138.675 388.717,172.597 382.92,179.365 C379.74,180.743 372.267,183.412 366.643,189.638 C365.782,190.591 365.06,191.504 364.451,192.389 C361.804,185.981 355.099,174.835 351.298,166.346 C342.19,150.529 344.566,145.304 348.096,137.51 C349.724,133.917 351.862,130.727 354.138,128.802 C357.177,126.235 363.173,133.312 364.063,135.762 L364.063,135.762 Z" id="Shape" fill="#FF2184"></path>
                        <path d="M394.108,147.088 C389.873,145.68 385.685,149.051 383.862,150.564 C383.643,150.747 383.43,150.93 383.225,151.109 C376.441,139.44 366.478,118.669 364.251,110.95 C363.287,107.609 365.327,94.796 367.81,91.605 C371.507,86.854 379.235,109.274 379.235,109.274 C379.235,109.274 389.166,136.479 394.108,147.088 L394.108,147.088 Z" id="Shape" fill="#FF2184"></path>
                        <path d="M361.089,210.807 C360.193,218.295 345.006,213.136 336.437,219.592 C330.07,223.395 327.839,228.902 326.768,233.74 C324.715,227.147 312.64,200.149 313.714,194.526 C318.172,171.15 333.518,163.76 335.94,164.063 C337.54,164.26 343.552,171.327 344.294,172.588 C345.468,174.6 357.982,191.892 361.591,199.164 C363.582,205.057 361.597,206.56 361.089,210.807 L361.089,210.807 Z" id="Shape" fill="#FF2184"></path>
                        <path d="M322.228,244.215 C318.136,243.785 310.805,237.829 298.762,242.72 C284.739,248.415 288.933,246.014 279.189,252.871 C276.221,254.961 275.072,262.496 273.854,265.447 C272.222,259.457 261.236,232.342 261.4,229.203 C262.094,215.879 279.927,209.056 291.647,206.295 C296.824,205.075 302.879,207.376 306.795,211.109 C311.214,215.324 315.874,226.704 318.261,232.431 C318.485,232.975 320.592,239.327 322.228,244.215 L322.228,244.215 Z" id="Shape" fill="#FF2184"></path>
                        <path d="M267.065,270.576 C266.983,270.619 266.898,270.659 266.812,270.698 C261.021,270.359 253.958,263.314 246.913,263.021 C234.44,262.498 226.132,267.561 217.739,280.946 C217.655,281.031 217.574,281.112 217.493,281.191 C216.804,275.857 209.229,246.831 211.418,242.499 C213.019,238.914 218.975,225.384 237.683,225.359 C248.224,225.345 251.653,231.7 253.575,235.264 C256.571,240.822 262.079,260.238 267.065,270.576 L267.065,270.576 Z" id="Shape" fill="#FF2184"></path>
                        <path d="M211.155,283.973 C208.911,284.5 208.1,281.814 206.021,279.64 C192.167,265.689 168.681,269.512 151.381,280.73 C151.133,272.832 147.866,253.485 147.942,250.834 C148.51,230.878 169.792,231.703 175.508,231.663 C181.155,231.623 197.795,237.091 200.02,244.28 C202.239,251.446 208.347,273.701 211.155,283.973 L211.155,283.973 Z" id="Shape" fill="#FF2184"></path>
                        <path d="M144.105,281.615 C142.727,280.524 141.001,277.47 136.129,274.718 C121.586,266.502 120.342,267.765 114.098,270.045 C108.061,272.249 105.263,282.549 97.114,276.929 C97.19,267.162 95.891,240.626 96.292,236.66 C97.212,227.558 125.768,224.921 134.307,234.216 C141.172,241.684 142.877,277.756 144.105,281.615 L144.105,281.615 Z" id="Shape" fill="#FF2184"></path>
                        <path d="M91.065,269.17 C91.187,270.881 89.908,270.391 89.226,269.067 C85.177,261.215 81.161,247.871 68.179,252.886 C67.338,252.843 50.564,261.929 50.137,251.067 C50.128,250.857 50.121,250.651 50.113,250.447 C52.159,237.487 55.635,212.327 63.417,214.357 C75.841,217.593 88.136,220.317 90.064,239.066 C90.424,242.588 90.601,262.678 91.065,269.17 L91.065,269.17 Z" id="Shape" fill="#FF2184"></path>
                        <path d="M49.829,206.979 C51.287,213.697 45.183,225.937 44.328,236.459 C39.627,225.211 30.119,224.347 20.39,225.772 C16.409,226.355 21.161,198.809 24.682,186.617 C26.549,180.149 30.072,182.703 33.261,184.203 C39.064,186.938 46.636,192.259 49.829,206.979 L49.829,206.979 Z" id="Shape" fill="#FF2184"></path>
                        <path d="M22.381,172.676 C21.063,180.073 17.724,193.302 14.743,196.274 C11.763,199.245 7.78,193.783 7.659,182.116 C7.577,174.08 13.209,152.963 15.479,150.336 C16.412,154.207 23.699,165.277 22.381,172.676 L22.381,172.676 Z" id="Shape" fill="#FF2184"></path>
                        <path d="M54.579,63.69 L66.888,62.373 C70.444,61.993 73.515,62.135 76.105,62.798 C78.693,63.463 80.808,64.481 82.449,65.854 C84.09,67.228 85.461,69.183 86.563,71.722 C87.665,74.259 88.495,76.855 89.056,79.506 C89.616,82.158 90.105,85.425 90.52,89.31 C90.807,91.991 91.013,94.306 91.139,96.256 C91.265,98.208 91.279,100.281 91.182,102.477 C91.085,104.674 90.814,106.542 90.371,108.083 C89.926,109.624 89.276,111.175 88.42,112.733 C87.562,114.292 86.467,115.556 85.132,116.53 C83.797,117.503 82.118,118.36 80.095,119.102 C78.071,119.845 75.747,120.355 73.121,120.637 L60.812,121.954 C59.881,122.054 59.074,122.002 58.388,121.798 C57.702,121.595 57.178,121.347 56.815,121.054 C56.452,120.761 56.149,120.268 55.909,119.574 C55.669,118.882 55.512,118.318 55.438,117.881 C55.363,117.447 55.28,116.792 55.186,115.917 L50.356,70.784 C50.262,69.909 50.206,69.251 50.187,68.81 C50.166,68.37 50.201,67.785 50.289,67.056 C50.377,66.328 50.568,65.781 50.861,65.417 C51.154,65.053 51.614,64.701 52.241,64.357 C52.87,64.012 53.647,63.79 54.579,63.69 L54.579,63.69 Z M66.432,73.626 C65.72,73.702 65.276,73.944 65.099,74.35 C64.921,74.757 64.882,75.424 64.982,76.354 C65.31,79.418 65.835,84.203 66.559,90.71 C67.283,97.218 67.821,102.113 68.173,105.394 C68.465,108.13 69.158,109.439 70.253,109.322 C73.152,109.011 74.841,107.601 75.319,105.087 C75.797,102.574 75.652,97.734 74.885,90.567 C74.604,87.94 74.352,85.851 74.131,84.298 C73.909,82.744 73.588,81.16 73.166,79.546 C72.744,77.931 72.255,76.726 71.7,75.927 C71.143,75.129 70.428,74.514 69.552,74.081 C68.675,73.65 67.635,73.498 66.432,73.626 L66.432,73.626 Z" id="Shape" fill="#FFFFFF"></path>
                        <path d="M104.681,64.969 L109.511,110.102 C109.605,110.977 109.661,111.636 109.68,112.075 C109.699,112.517 109.666,113.102 109.577,113.829 C109.488,114.558 109.298,115.104 109.005,115.467 C108.712,115.83 108.252,116.184 107.625,116.528 C106.998,116.873 106.219,117.093 105.289,117.193 L101.186,117.632 C100.255,117.732 99.448,117.681 98.763,117.477 C98.077,117.273 97.553,117.025 97.189,116.732 C96.826,116.439 96.523,115.946 96.283,115.252 C96.043,114.56 95.886,113.996 95.812,113.559 C95.737,113.125 95.654,112.47 95.56,111.595 L90.73,66.462 C90.636,65.587 90.58,64.929 90.56,64.488 C90.54,64.048 90.575,63.463 90.663,62.734 C90.751,62.006 90.942,61.459 91.235,61.095 C91.528,60.732 91.988,60.379 92.615,60.036 C93.242,59.692 94.02,59.47 94.95,59.37 L99.053,58.931 C99.983,58.831 100.791,58.884 101.477,59.087 C102.163,59.29 102.687,59.537 103.051,59.83 C103.414,60.123 103.716,60.619 103.957,61.311 C104.197,62.005 104.353,62.569 104.428,63.004 C104.503,63.439 104.587,64.094 104.681,64.969 L104.681,64.969 Z" id="Shape" fill="#FFFFFF"></path>
                        <path d="M108.831,75.066 C108.503,72.003 108.614,69.293 109.165,66.937 C109.714,64.583 110.489,62.77 111.488,61.5 C112.486,60.232 113.782,59.167 115.379,58.304 C116.974,57.442 118.391,56.861 119.632,56.562 C120.873,56.263 122.314,56.026 123.955,55.85 C127.455,55.475 130.265,55.48 132.381,55.861 C134.497,56.245 135.616,57.008 135.739,58.158 L136.415,64.476 C136.59,66.117 135.638,67.048 133.56,67.271 L132.904,67.341 C132.576,67.376 131.588,67.331 129.943,67.201 C128.297,67.074 127.036,67.057 126.161,67.151 C123.807,67.402 122.749,68.622 122.984,70.81 C123.125,72.123 123.499,73.176 124.11,73.969 C124.72,74.762 125.889,75.729 127.617,76.872 C132.616,80.155 136.088,83.256 138.033,86.173 C139.977,89.092 141.146,92.383 141.538,96.048 C142.041,100.754 141.675,104.306 140.438,106.707 C138.741,109.988 136.034,112.353 132.316,113.801 C130.083,114.648 127.489,115.231 124.535,115.548 C121.142,115.911 118.261,115.858 115.886,115.394 C113.512,114.929 112.243,113.931 112.08,112.398 L111.404,106.08 C111.263,104.767 112.205,104.002 114.229,103.786 C114.722,103.733 115.864,103.818 117.66,104.041 C119.454,104.264 121.226,104.282 122.977,104.094 C124.235,103.96 125.407,103.406 126.493,102.431 C127.578,101.457 128.057,100.369 127.928,99.165 C127.846,98.4 127.71,97.779 127.521,97.299 C127.331,96.821 126.794,96.078 125.912,95.065 C125.029,94.053 123.712,92.866 121.962,91.503 C118.516,88.774 116.106,86.805 114.731,85.595 C113.356,84.387 112.087,82.877 110.926,81.065 C109.764,79.254 109.065,77.254 108.831,75.066 L108.831,75.066 Z" id="Shape" fill="#FFFFFF"></path>
                        <path d="M141.8,82.99 C141.396,79.216 141.373,75.773 141.733,72.664 C142.092,69.555 142.79,66.907 143.829,64.721 C144.868,62.534 146.102,60.632 147.534,59.013 C148.965,57.393 150.609,56.083 152.467,55.081 C154.323,54.081 156.177,53.301 158.027,52.743 C159.876,52.185 161.839,51.796 163.919,51.573 C165.998,51.35 167.131,52.115 167.318,53.865 L168.091,61.087 C168.12,61.36 168.13,61.581 168.12,61.748 C168.109,61.915 168.024,62.146 167.862,62.439 C167.699,62.735 167.391,62.96 166.939,63.12 C166.485,63.279 165.903,63.397 165.192,63.473 C164.589,63.537 164.053,63.567 163.583,63.561 C163.112,63.558 162.766,63.567 162.548,63.59 C161.071,63.748 159.856,64.418 158.903,65.597 C157.951,66.778 157.297,68.038 156.942,69.376 C156.587,70.715 156.375,72.356 156.307,74.3 C156.238,76.244 156.239,77.669 156.308,78.574 C156.377,79.48 156.471,80.481 156.588,81.574 C156.74,82.998 156.943,84.387 157.2,85.742 C157.455,87.098 157.919,88.972 158.59,91.362 C159.261,93.753 160.237,95.64 161.52,97.024 C162.802,98.409 164.291,99.01 165.987,98.829 C166.26,98.8 166.641,98.731 167.128,98.624 C167.614,98.518 168.212,98.425 168.924,98.349 C171.003,98.126 172.177,99.274 172.446,101.79 L173.034,107.288 C173.251,109.312 172.32,110.435 170.241,110.658 C167.724,110.927 165.332,110.933 163.064,110.678 C160.795,110.423 158.439,109.735 155.995,108.613 C153.551,107.492 151.404,105.924 149.557,103.908 C147.708,101.892 146.082,99.106 144.678,95.548 C143.275,91.991 142.315,87.805 141.8,82.99 L141.8,82.99 Z" id="Shape" fill="#FFFFFF"></path>
                        <path d="M172.901,83.937 C172.767,82.429 172.66,81.294 172.578,80.527 C172.496,79.761 172.362,78.641 172.177,77.166 C171.99,75.692 171.861,74.6 171.784,73.888 C171.456,70.825 171.27,68.314 171.226,66.353 C171.183,64.395 171.4,62.296 171.881,60.058 C172.36,57.822 173.178,56.034 174.336,54.692 C175.492,53.351 177.19,52.159 179.431,51.116 C181.671,50.075 184.486,49.372 187.879,49.009 C191.106,48.664 193.87,48.77 196.171,49.325 C198.471,49.882 200.301,50.682 201.657,51.726 C203.013,52.772 204.133,54.312 205.014,56.347 C205.896,58.384 206.522,60.35 206.891,62.246 C207.259,64.144 207.609,66.624 207.936,69.687 C208.118,71.383 208.417,73.8 208.836,76.937 C209.255,80.075 209.54,82.354 209.692,83.775 C210.003,86.675 210.156,89.15 210.154,91.196 C210.151,93.244 209.903,95.319 209.409,97.418 C208.915,99.519 208.088,101.24 206.932,102.581 C205.774,103.923 204.129,105.094 201.996,106.097 C199.861,107.099 197.264,107.766 194.2,108.094 C190.807,108.457 187.907,108.365 185.497,107.822 C183.086,107.278 181.174,106.472 179.761,105.406 C178.346,104.341 177.169,102.779 176.23,100.72 C175.291,98.662 174.635,96.672 174.263,94.747 C173.891,92.823 173.541,90.329 173.213,87.265 C173.14,86.554 173.034,85.445 172.901,83.937 L172.901,83.937 Z M191.654,61.015 C190.942,60.565 189.956,60.407 188.698,60.542 C187.439,60.677 186.51,61.04 185.91,61.63 C185.309,62.221 184.995,62.779 184.969,63.308 C184.943,63.837 184.979,64.565 185.079,65.495 L187.845,91.345 C187.939,92.219 188.037,92.888 188.142,93.346 C188.245,93.805 188.444,94.366 188.737,95.026 C189.028,95.687 189.492,96.148 190.13,96.412 C190.767,96.676 191.578,96.755 192.562,96.649 C193.547,96.544 194.322,96.295 194.889,95.902 C195.455,95.509 195.812,94.961 195.957,94.253 C196.102,93.546 196.178,92.956 196.183,92.485 C196.188,92.015 196.144,91.34 196.05,90.466 L193.283,64.616 C193.184,63.686 193.066,62.966 192.928,62.455 C192.79,61.944 192.366,61.465 191.654,61.015 L191.654,61.015 Z" id="Shape" fill="#FFFFFF"></path>
                        <path d="M233.374,71.614 C233.411,68.844 233.446,65.299 233.481,60.978 C233.585,53.165 233.84,48.435 234.246,46.787 C234.65,45.14 235.946,44.198 238.135,43.963 L241.335,43.621 C243.305,43.41 244.751,43.492 245.678,43.862 C246.602,44.234 247.147,45.186 247.311,46.717 C247.364,47.209 247.367,48.011 247.32,49.122 C247.273,50.235 247.14,52.102 246.924,54.726 C246.706,57.35 246.458,60.199 246.179,63.271 C245.898,66.344 245.505,70.937 244.997,77.05 C244.489,83.164 243.967,89.404 243.432,95.768 C243.024,100.239 241.344,102.631 238.39,102.947 L228.132,104.045 C225.123,104.367 223.001,102.382 221.768,98.087 C219.024,88.477 216.445,79.637 214.033,71.566 C211.62,63.498 210.044,58.215 209.307,55.721 C208.57,53.227 208.163,51.626 208.087,50.914 C207.917,49.327 208.259,48.253 209.111,47.692 C209.965,47.131 211.484,46.732 213.674,46.498 L217.201,46.121 C218.732,45.957 219.902,46.151 220.709,46.7 C221.514,47.251 222.253,48.473 222.926,50.365 C223.598,52.259 224.422,55.421 225.395,59.853 C226.016,62.554 226.615,65.312 227.194,68.127 C227.771,70.942 228.239,73.243 228.596,75.031 C228.953,76.818 229.321,78.578 229.7,80.308 C230.078,82.038 230.375,83.39 230.59,84.363 C230.805,85.336 231.039,86.222 231.291,87.027 C231.543,87.83 231.753,88.375 231.922,88.66 C232.09,88.947 232.284,89.078 232.504,89.054 C232.668,89.037 232.814,88.731 232.944,88.135 C233.074,87.541 233.158,86.647 233.197,85.453 C233.235,84.259 233.256,83.039 233.261,81.794 C233.266,80.548 233.273,78.928 233.281,76.936 C233.288,74.943 233.319,73.169 233.374,71.614 L233.374,71.614 Z" id="Shape" fill="#FFFFFF"></path>
                        <path d="M267.185,78.869 L267.799,84.613 C267.947,85.483 268.388,86.113 269.122,86.504 C269.855,86.898 270.66,87.046 271.535,86.952 C273.341,86.759 275.033,86.55 276.614,86.326 C278.194,86.102 279.149,85.972 279.477,85.936 C281.172,85.754 282.377,85.89 283.089,86.338 C283.801,86.788 284.224,87.642 284.359,88.9 L284.974,94.644 C285.103,95.848 284.947,96.721 284.507,97.267 C284.068,97.812 283.245,98.149 282.042,98.277 L260.378,100.595 C257.096,100.947 255.221,98.935 254.752,94.558 L249.922,49.425 C249.828,48.55 249.772,47.892 249.753,47.45 C249.732,47.01 249.768,46.426 249.856,45.696 C249.944,44.968 250.134,44.421 250.427,44.057 C250.72,43.693 251.181,43.341 251.808,42.997 C252.435,42.653 253.213,42.431 254.144,42.331 L275.315,40.065 C276.409,39.948 277.349,40.07 278.135,40.427 C278.92,40.787 279.353,41.348 279.435,42.115 L280.182,49.09 C280.276,49.966 280.035,50.558 279.459,50.868 C278.883,51.18 277.967,51.402 276.708,51.536 C275.56,51.659 274.121,51.786 272.392,51.914 C270.663,52.046 269.496,52.142 268.896,52.206 C267.8,52.323 266.948,52.497 266.337,52.727 C265.725,52.958 265.307,53.323 265.084,53.816 C264.859,54.31 264.741,54.753 264.728,55.14 C264.713,55.53 264.751,56.134 264.839,56.954 C265.015,58.595 265.149,59.73 265.244,60.355 C265.339,60.982 265.556,61.596 265.897,62.194 C266.237,62.794 266.69,63.146 267.255,63.252 C267.818,63.358 268.621,63.355 269.661,63.244 C271.63,63.033 273.322,62.826 274.74,62.618 C276.155,62.412 277.055,62.287 277.438,62.246 C279.461,62.03 280.61,63.18 280.878,65.696 L281.441,70.949 C281.523,71.715 281.393,72.323 281.055,72.774 C280.715,73.225 280.318,73.517 279.862,73.648 C279.406,73.78 278.767,73.89 277.947,73.978 C276.36,74.148 274.634,74.305 272.768,74.45 C270.902,74.595 269.777,74.686 269.395,74.727 C268.519,74.821 267.906,75.04 267.556,75.381 C267.204,75.723 267.026,76.116 267.018,76.559 C267.012,77.006 267.067,77.775 267.185,78.869 L267.185,78.869 Z" id="Shape" fill="#FFFFFF"></path>
                        <path d="M286.885,38.829 L302.887,37.117 C313.335,35.998 319.219,41.594 320.536,53.903 C320.794,56.311 320.918,58.123 320.911,59.341 C320.902,60.559 320.623,61.959 320.073,63.54 C319.523,65.121 318.577,66.619 317.234,68.034 C316.739,68.586 316.138,69.037 315.429,69.391 C314.719,69.744 314.259,70.096 314.048,70.451 C313.837,70.806 313.781,71.45 313.88,72.378 C314.085,74.294 314.584,75.983 315.377,77.447 C316.17,78.912 317.195,79.576 318.454,79.442 C318.892,79.396 319.299,79.325 319.677,79.229 C320.053,79.133 320.361,79.031 320.599,78.923 C320.836,78.815 320.982,78.757 321.037,78.752 C322.24,78.623 323.099,79.016 323.611,79.929 C324.125,80.842 324.492,82.338 324.715,84.417 C324.774,84.965 324.866,85.965 324.994,87.417 C325.121,88.871 325.232,90.035 325.326,90.909 C325.431,91.893 325.185,92.696 324.587,93.312 C323.989,93.928 322.705,94.344 320.736,94.555 C317.234,94.93 314.3,94.136 311.932,92.176 C309.564,90.217 307.761,87.588 306.523,84.289 C305.675,82.056 304.79,80.241 303.866,78.847 C302.941,77.452 302.242,76.601 301.766,76.291 C301.289,75.983 300.915,75.843 300.643,75.872 C300.205,75.919 300.056,76.599 300.197,77.912 L301.444,89.564 C301.538,90.439 301.593,91.098 301.614,91.537 C301.633,91.979 301.599,92.564 301.511,93.291 C301.422,94.02 301.232,94.566 300.939,94.93 C300.646,95.294 300.185,95.647 299.558,95.991 C298.931,96.336 298.152,96.556 297.222,96.656 L291.478,97.271 C290.711,97.353 290.066,97.256 289.539,96.981 C289.012,96.706 288.61,96.195 288.338,95.45 C288.064,94.704 287.884,94.059 287.799,93.515 C287.712,92.971 287.611,92.152 287.494,91.057 L282.664,45.924 C282.57,45.049 282.513,44.391 282.494,43.95 C282.474,43.51 282.509,42.925 282.597,42.196 C282.686,41.468 282.876,40.921 283.169,40.557 C283.462,40.193 283.922,39.841 284.55,39.497 C285.177,39.151 285.954,38.929 286.885,38.829 L286.885,38.829 Z M300.79,48.546 C299.148,48.721 298.132,49.052 297.742,49.536 C297.35,50.022 297.234,51.002 297.392,52.479 C297.427,52.807 297.515,53.503 297.658,54.566 C297.799,55.63 297.905,56.49 297.975,57.147 C298.039,57.751 298.107,58.517 298.18,59.449 C298.251,60.383 298.303,60.986 298.331,61.258 C298.477,62.626 298.79,63.479 299.269,63.815 C299.747,64.152 300.807,64.23 302.448,64.055 C305.457,63.733 306.701,61.139 306.179,56.269 C305.596,50.799 303.798,48.224 300.79,48.546 L300.79,48.546 Z" id="Shape" fill="#FFFFFF"></path>
                        <path d="M39.238,164.642 C39.104,163.134 38.996,161.999 38.914,161.232 C38.832,160.466 38.698,159.346 38.513,157.871 C38.326,156.397 38.197,155.305 38.12,154.593 C37.792,151.53 37.607,149.019 37.563,147.058 C37.519,145.1 37.737,143.001 38.217,140.763 C38.696,138.527 39.515,136.739 40.672,135.397 C41.828,134.056 43.526,132.864 45.767,131.821 C48.007,130.78 50.823,130.077 54.216,129.714 C57.443,129.369 60.207,129.475 62.508,130.03 C64.808,130.587 66.637,131.387 67.994,132.431 C69.35,133.477 70.47,135.017 71.351,137.052 C72.233,139.089 72.859,141.055 73.228,142.951 C73.597,144.849 73.945,147.329 74.273,150.392 C74.455,152.088 74.754,154.505 75.173,157.642 C75.592,160.78 75.878,163.058 76.029,164.48 C76.34,167.38 76.493,169.855 76.491,171.901 C76.488,173.949 76.239,176.024 75.745,178.123 C75.25,180.224 74.424,181.945 73.268,183.286 C72.111,184.628 70.466,185.799 68.332,186.802 C66.198,187.805 63.6,188.471 60.537,188.799 C57.144,189.162 54.244,189.07 51.834,188.527 C49.423,187.983 47.511,187.177 46.098,186.111 C44.683,185.046 43.506,183.484 42.567,181.425 C41.627,179.367 40.972,177.377 40.6,175.452 C40.228,173.528 39.878,171.034 39.55,167.97 C39.476,167.258 39.371,166.149 39.238,164.642 L39.238,164.642 Z M57.991,141.719 C57.279,141.27 56.293,141.112 55.035,141.246 C53.776,141.381 52.847,141.744 52.247,142.334 C51.646,142.925 51.332,143.484 51.306,144.012 C51.28,144.54 51.316,145.269 51.416,146.199 L54.182,172.049 C54.276,172.923 54.374,173.592 54.479,174.05 C54.583,174.509 54.781,175.07 55.074,175.73 C55.365,176.391 55.829,176.852 56.467,177.116 C57.104,177.38 57.915,177.459 58.899,177.353 C59.884,177.248 60.659,176.999 61.226,176.606 C61.792,176.213 62.149,175.665 62.295,174.957 C62.44,174.25 62.516,173.66 62.521,173.189 C62.525,172.719 62.481,172.044 62.388,171.17 L59.622,145.32 C59.522,144.39 59.404,143.67 59.267,143.159 C59.13,142.648 58.703,142.169 57.991,141.719 L57.991,141.719 Z" id="Shape" fill="#FFFFFF"></path>
                        <path d="M111.411,130.565 L115.17,165.688 C115.422,168.041 115.545,169.963 115.539,171.458 C115.533,172.953 115.287,174.528 114.799,176.185 C114.313,177.842 113.501,179.175 112.363,180.182 C111.226,181.189 109.58,182.098 107.426,182.909 C105.272,183.72 102.581,184.3 99.353,184.645 C96.508,184.95 94.027,185.035 91.911,184.901 C89.793,184.768 88.023,184.377 86.598,183.727 C85.172,183.078 84.001,182.345 83.084,181.53 C82.167,180.714 81.424,179.591 80.855,178.158 C80.287,176.723 79.876,175.345 79.623,174.014 C79.37,172.686 79.136,171.01 78.919,168.986 L75.313,134.512 C75.22,133.637 75.163,132.979 75.144,132.538 C75.124,132.098 75.159,131.513 75.247,130.784 C75.335,130.056 75.525,129.509 75.819,129.145 C76.112,128.782 76.572,128.429 77.2,128.086 C77.827,127.742 78.605,127.52 79.535,127.42 L83.638,126.981 C84.568,126.881 85.377,126.934 86.062,127.137 C86.747,127.34 87.272,127.587 87.635,127.881 C87.998,128.174 88.301,128.669 88.54,129.361 C88.781,130.055 88.937,130.619 89.012,131.054 C89.086,131.49 89.17,132.144 89.263,133.019 L93.127,169.124 C93.215,169.945 93.306,170.545 93.402,170.921 C93.498,171.299 93.695,171.719 93.994,172.186 C94.293,172.652 94.783,172.96 95.462,173.107 C96.142,173.256 97.028,173.271 98.123,173.154 C99.272,173.031 100.109,172.707 100.633,172.18 C101.158,171.655 101.434,171.127 101.46,170.598 C101.486,170.07 101.443,169.285 101.332,168.245 L97.459,132.057 C97.366,131.183 97.309,130.525 97.29,130.084 C97.269,129.644 97.306,129.073 97.397,128.371 C97.488,127.67 97.68,127.137 97.973,126.773 C98.266,126.409 98.726,126.057 99.353,125.714 C99.98,125.37 100.758,125.148 101.689,125.048 L105.793,124.609 C106.722,124.509 107.53,124.562 108.216,124.765 C108.902,124.968 109.425,125.215 109.789,125.509 C110.153,125.801 110.453,126.282 110.69,126.948 C110.927,127.615 111.082,128.165 111.157,128.6 C111.233,129.036 111.317,129.691 111.411,130.565 L111.411,130.565 Z" id="Shape" fill="#FFFFFF"></path>
                        <path d="M118.43,123.257 L134.432,121.545 C144.88,120.427 150.764,126.022 152.081,138.332 C152.339,140.74 152.463,142.552 152.456,143.77 C152.448,144.988 152.168,146.388 151.619,147.969 C151.068,149.55 150.122,151.048 148.78,152.463 C148.285,153.015 147.684,153.466 146.974,153.82 C146.265,154.172 145.805,154.525 145.593,154.879 C145.382,155.233 145.326,155.878 145.426,156.806 C145.631,158.722 146.13,160.411 146.923,161.875 C147.715,163.34 148.741,164.005 150,163.87 C150.437,163.823 150.844,163.753 151.222,163.656 C151.598,163.56 151.906,163.458 152.143,163.35 C152.381,163.242 152.526,163.184 152.581,163.179 C153.784,163.051 154.643,163.444 155.156,164.357 C155.669,165.27 156.036,166.766 156.259,168.845 C156.318,169.393 156.41,170.392 156.538,171.845 C156.664,173.298 156.777,174.463 156.871,175.337 C156.976,176.321 156.729,177.124 156.132,177.74 C155.535,178.356 154.25,178.772 152.281,178.983 C148.78,179.358 145.845,178.565 143.478,176.605 C141.11,174.646 139.307,172.017 138.069,168.718 C137.221,166.485 136.335,164.67 135.411,163.276 C134.487,161.881 133.787,161.029 133.312,160.72 C132.835,160.411 132.461,160.272 132.188,160.301 C131.75,160.348 131.602,161.028 131.742,162.341 L132.989,173.993 C133.083,174.868 133.139,175.527 133.159,175.966 C133.178,176.408 133.144,176.993 133.056,177.72 C132.968,178.449 132.777,178.995 132.484,179.359 C132.191,179.722 131.731,180.075 131.104,180.419 C130.477,180.764 129.698,180.984 128.768,181.084 L123.024,181.699 C122.257,181.781 121.611,181.684 121.084,181.408 C120.557,181.133 120.156,180.623 119.883,179.877 C119.609,179.131 119.429,178.486 119.344,177.942 C119.257,177.399 119.156,176.579 119.039,175.484 L114.209,130.351 C114.116,129.476 114.059,128.819 114.04,128.377 C114.02,127.937 114.054,127.352 114.143,126.623 C114.231,125.895 114.422,125.348 114.715,124.984 C115.008,124.62 115.468,124.269 116.096,123.925 C116.721,123.579 117.499,123.356 118.43,123.257 L118.43,123.257 Z M132.334,132.974 C130.693,133.149 129.676,133.48 129.286,133.964 C128.895,134.45 128.779,135.43 128.937,136.907 C128.972,137.235 129.06,137.931 129.202,138.994 C129.343,140.058 129.449,140.918 129.519,141.575 C129.583,142.179 129.651,142.945 129.724,143.877 C129.795,144.811 129.847,145.414 129.876,145.686 C130.022,147.054 130.334,147.907 130.814,148.243 C131.292,148.58 132.353,148.658 133.994,148.483 C137.002,148.161 138.247,145.567 137.725,140.697 C137.14,135.227 135.343,132.652 132.334,132.974 L132.334,132.974 Z" id="Shape" fill="#FFFFFF"></path>
                        <path d="M202.769,141.207 C202.555,141.286 202.46,141.435 202.484,141.652 C202.507,141.871 202.631,141.997 202.857,142.027 C205.691,142.666 207.907,144.239 209.503,146.752 C211.101,149.266 212.071,152.135 212.417,155.363 C212.763,158.592 212.346,161.679 211.167,164.626 C210.159,167.114 208.993,169.009 207.667,170.314 C206.34,171.618 205.14,172.424 204.067,172.732 C202.992,173.042 201.361,173.312 199.173,173.546 L180.873,175.504 C179.942,175.604 179.135,175.552 178.45,175.348 C177.764,175.145 177.24,174.897 176.876,174.604 C176.512,174.311 176.211,173.818 175.971,173.124 C175.731,172.432 175.573,171.868 175.499,171.431 C175.424,170.997 175.341,170.342 175.247,169.467 L170.417,124.334 C170.324,123.459 170.267,122.801 170.248,122.36 C170.228,121.92 170.263,121.335 170.351,120.606 C170.439,119.878 170.63,119.331 170.923,118.967 C171.216,118.603 171.677,118.251 172.304,117.907 C172.931,117.563 173.708,117.341 174.639,117.241 L192.283,115.353 C197.207,114.826 200.937,115.825 203.476,118.347 C206.014,120.87 207.509,124.237 207.96,128.45 C208.575,134.194 206.843,138.446 202.769,141.207 L202.769,141.207 Z M188.955,126.915 C187.039,127.12 185.915,127.601 185.581,128.355 C185.247,129.109 185.203,130.636 185.449,132.935 C185.584,134.193 185.705,135.079 185.816,135.592 C185.925,136.107 186.133,136.625 186.438,137.144 C186.743,137.665 187.176,137.965 187.738,138.043 C188.299,138.121 189.1,138.104 190.14,137.992 C192.875,137.699 194.046,135.721 193.654,132.056 C193.256,128.336 191.69,126.622 188.955,126.915 L188.955,126.915 Z M191.666,148.371 C190.571,148.488 189.723,148.704 189.121,149.017 C188.517,149.33 188.119,149.871 187.925,150.64 C187.73,151.408 187.64,152.122 187.657,152.785 C187.672,153.448 187.762,154.546 187.926,156.076 C188.061,157.336 188.17,158.238 188.257,158.78 C188.343,159.325 188.495,159.972 188.714,160.723 C188.932,161.475 189.223,161.983 189.583,162.248 C189.944,162.516 190.422,162.727 191.021,162.883 C191.619,163.042 192.355,163.072 193.231,162.979 C195.09,162.78 196.237,161.994 196.672,160.62 C197.106,159.245 197.2,157.41 196.954,155.111 C196.849,154.127 196.755,153.39 196.675,152.901 C196.595,152.412 196.446,151.793 196.228,151.04 C196.009,150.29 195.73,149.753 195.391,149.428 C195.052,149.106 194.566,148.825 193.932,148.588 C193.295,148.349 192.541,148.277 191.666,148.371 L191.666,148.371 Z" id="Shape" fill="#FFFFFF"></path>
                        <path d="M228.463,149.413 L229.077,155.157 C229.225,156.028 229.667,156.658 230.4,157.049 C231.133,157.443 231.938,157.591 232.813,157.497 C234.619,157.304 236.311,157.095 237.893,156.871 C239.473,156.647 240.427,156.517 240.755,156.482 C242.45,156.3 243.655,156.435 244.367,156.883 C245.079,157.333 245.503,158.187 245.637,159.445 L246.252,165.189 C246.381,166.393 246.226,167.266 245.786,167.812 C245.346,168.357 244.523,168.694 243.321,168.823 L221.656,171.141 C218.375,171.492 216.5,169.48 216.031,165.103 L211.201,119.97 C211.107,119.095 211.051,118.437 211.031,117.996 C211.011,117.556 211.046,116.971 211.134,116.242 C211.222,115.514 211.412,114.967 211.705,114.603 C211.998,114.239 212.459,113.887 213.086,113.543 C213.713,113.2 214.491,112.977 215.422,112.877 L236.593,110.611 C237.688,110.494 238.627,110.615 239.412,110.973 C240.199,111.333 240.631,111.894 240.713,112.661 L241.46,119.636 C241.554,120.512 241.313,121.104 240.737,121.414 C240.162,121.726 239.245,121.948 237.986,122.083 C236.838,122.206 235.399,122.332 233.67,122.461 C231.941,122.593 230.775,122.689 230.174,122.753 C229.078,122.87 228.227,123.044 227.615,123.275 C227.003,123.506 226.586,123.871 226.362,124.364 C226.137,124.858 226.019,125.301 226.006,125.688 C225.992,126.078 226.029,126.682 226.117,127.502 C226.293,129.143 226.427,130.278 226.522,130.903 C226.617,131.53 226.834,132.144 227.175,132.742 C227.516,133.342 227.968,133.694 228.533,133.8 C229.096,133.905 229.899,133.903 230.939,133.791 C232.909,133.581 234.6,133.373 236.018,133.165 C237.434,132.959 238.334,132.834 238.717,132.793 C240.74,132.576 241.888,133.727 242.156,136.242 L242.719,141.495 C242.801,142.261 242.672,142.869 242.333,143.32 C241.993,143.771 241.596,144.063 241.14,144.195 C240.684,144.327 240.045,144.437 239.225,144.524 C237.638,144.694 235.912,144.851 234.047,144.997 C232.18,145.141 231.055,145.233 230.673,145.274 C229.797,145.368 229.184,145.587 228.834,145.928 C228.482,146.27 228.304,146.663 228.297,147.105 C228.29,147.551 228.346,148.319 228.463,149.413 L228.463,149.413 Z" id="Shape" fill="#FFFFFF"></path>
                        <path d="M261.203,145.909 L261.818,151.653 C261.965,152.523 262.406,153.153 263.14,153.544 C263.873,153.938 264.678,154.086 265.554,153.992 C267.36,153.799 269.051,153.59 270.633,153.366 C272.213,153.143 273.168,153.012 273.496,152.977 C275.191,152.795 276.395,152.93 277.108,153.378 C277.82,153.829 278.243,154.682 278.378,155.94 L278.992,161.684 C279.121,162.888 278.966,163.761 278.526,164.307 C278.087,164.852 277.264,165.189 276.062,165.318 L254.397,167.636 C251.115,167.987 249.24,165.975 248.771,161.598 L243.941,116.465 C243.847,115.59 243.791,114.932 243.771,114.491 C243.751,114.051 243.787,113.466 243.875,112.737 C243.963,112.009 244.153,111.462 244.446,111.098 C244.739,110.734 245.2,110.382 245.827,110.039 C246.454,109.695 247.231,109.473 248.162,109.373 L269.334,107.107 C270.428,106.99 271.368,107.111 272.153,107.469 C272.939,107.829 273.372,108.391 273.454,109.157 L274.2,116.132 C274.294,117.008 274.054,117.6 273.478,117.91 C272.902,118.222 271.985,118.444 270.727,118.579 C269.579,118.702 268.139,118.828 266.411,118.957 C264.682,119.089 263.515,119.185 262.915,119.249 C261.819,119.367 260.967,119.54 260.356,119.771 C259.744,120.002 259.326,120.367 259.103,120.86 C258.878,121.354 258.759,121.797 258.747,122.184 C258.732,122.574 258.77,123.178 258.857,123.998 C259.033,125.639 259.168,126.774 259.263,127.399 C259.358,128.026 259.575,128.64 259.916,129.238 C260.256,129.838 260.709,130.19 261.273,130.296 C261.837,130.402 262.64,130.399 263.679,130.287 C265.649,130.077 267.341,129.869 268.758,129.661 C270.174,129.455 271.074,129.33 271.457,129.289 C273.48,129.072 274.628,130.223 274.897,132.738 L275.46,137.991 C275.542,138.757 275.412,139.366 275.073,139.816 C274.734,140.267 274.336,140.559 273.881,140.691 C273.424,140.823 272.786,140.933 271.966,141.021 C270.378,141.19 268.653,141.348 266.787,141.493 C264.921,141.638 263.796,141.729 263.414,141.77 C262.538,141.864 261.925,142.083 261.575,142.424 C261.223,142.766 261.044,143.159 261.037,143.602 C261.031,144.047 261.087,144.815 261.203,145.909 L261.203,145.909 Z" id="Shape" fill="#FFFFFF"></path>
                        <path d="M280.904,105.869 L296.906,104.157 C307.355,103.039 313.238,108.634 314.555,120.944 C314.813,123.352 314.937,125.164 314.93,126.382 C314.921,127.6 314.642,129 314.092,130.58 C313.542,132.161 312.596,133.659 311.253,135.074 C310.759,135.626 310.157,136.077 309.448,136.43 C308.738,136.783 308.278,137.135 308.067,137.49 C307.856,137.845 307.8,138.489 307.9,139.417 C308.104,141.333 308.603,143.022 309.397,144.486 C310.189,145.951 311.214,146.616 312.473,146.481 C312.911,146.434 313.318,146.364 313.696,146.267 C314.072,146.171 314.381,146.069 314.618,145.961 C314.855,145.853 315.001,145.795 315.056,145.79 C316.259,145.662 317.119,146.055 317.63,146.968 C318.144,147.881 318.511,149.377 318.734,151.456 C318.793,152.004 318.885,153.003 319.013,154.456 C319.14,155.909 319.252,157.074 319.345,157.948 C319.45,158.932 319.204,159.735 318.607,160.351 C318.009,160.967 316.725,161.383 314.755,161.594 C311.254,161.969 308.319,161.176 305.951,159.215 C303.584,157.256 301.78,154.627 300.543,151.328 C299.694,149.095 298.809,147.28 297.885,145.885 C296.96,144.49 296.261,143.639 295.785,143.329 C295.308,143.02 294.934,142.881 294.662,142.91 C294.224,142.957 294.075,143.637 294.216,144.95 L295.463,156.602 C295.557,157.477 295.613,158.136 295.633,158.575 C295.652,159.017 295.618,159.602 295.53,160.329 C295.441,161.058 295.251,161.604 294.958,161.967 C294.665,162.33 294.205,162.684 293.578,163.028 C292.951,163.373 292.172,163.593 291.242,163.693 L285.498,164.308 C284.731,164.39 284.086,164.293 283.558,164.017 C283.031,163.742 282.629,163.231 282.357,162.486 C282.083,161.74 281.903,161.095 281.818,160.551 C281.731,160.007 281.63,159.188 281.513,158.093 L276.683,112.96 C276.589,112.085 276.532,111.427 276.513,110.986 C276.493,110.546 276.529,109.961 276.617,109.232 C276.705,108.504 276.895,107.957 277.188,107.593 C277.481,107.229 277.942,106.877 278.569,106.534 C279.196,106.191 279.974,105.969 280.904,105.869 L280.904,105.869 Z M294.81,115.586 C293.168,115.762 292.153,116.093 291.762,116.576 C291.37,117.062 291.255,118.042 291.412,119.519 C291.447,119.847 291.535,120.543 291.678,121.606 C291.82,122.67 291.925,123.53 291.995,124.187 C292.059,124.791 292.128,125.557 292.2,126.489 C292.271,127.423 292.323,128.026 292.352,128.298 C292.498,129.666 292.81,130.519 293.29,130.855 C293.768,131.192 294.828,131.27 296.469,131.094 C299.478,130.772 300.722,128.178 300.201,123.308 C299.615,117.839 297.817,115.264 294.81,115.586 L294.81,115.586 Z" id="Shape" fill="#FFFFFF"></path>
                        <path d="M317.679,119.116 C317.351,116.053 317.461,113.343 318.012,110.987 C318.562,108.633 319.337,106.82 320.336,105.55 C321.333,104.282 322.63,103.217 324.227,102.354 C325.822,101.492 327.24,100.911 328.481,100.612 C329.721,100.313 331.163,100.076 332.803,99.901 C336.304,99.526 339.114,99.531 341.23,99.912 C343.345,100.296 344.465,101.059 344.588,102.21 L345.264,108.528 C345.44,110.169 344.488,111.1 342.409,111.322 L341.753,111.392 C341.425,111.427 340.437,111.382 338.792,111.252 C337.146,111.125 335.885,111.108 335.01,111.202 C332.656,111.454 331.599,112.673 331.833,114.861 C331.973,116.174 332.348,117.227 332.959,118.02 C333.569,118.813 334.737,119.779 336.465,120.923 C341.465,124.206 344.936,127.307 346.881,130.224 C348.825,133.143 349.994,136.434 350.387,140.099 C350.89,144.805 350.523,148.357 349.286,150.758 C347.59,154.039 344.882,156.403 341.164,157.852 C338.931,158.7 336.338,159.282 333.384,159.599 C329.99,159.962 327.109,159.909 324.735,159.445 C322.361,158.98 321.092,157.982 320.928,156.45 L320.252,150.132 C320.111,148.819 321.053,148.054 323.077,147.837 C323.569,147.784 324.712,147.87 326.508,148.092 C328.302,148.315 330.074,148.333 331.825,148.145 C333.084,148.01 334.255,147.456 335.341,146.481 C336.426,145.508 336.904,144.419 336.776,143.215 C336.695,142.45 336.558,141.829 336.37,141.349 C336.18,140.871 335.643,140.128 334.761,139.115 C333.877,138.103 332.562,136.916 330.812,135.553 C327.366,132.824 324.955,130.855 323.581,129.646 C322.207,128.438 320.937,126.928 319.776,125.115 C318.61,123.304 317.913,121.304 317.679,119.116 L317.679,119.116 Z" id="Shape" fill="#FFFFFF"></path>
                        <path d="M351.393,98.326 L359.599,97.448 C361.076,97.29 362.036,97.603 362.48,98.385 C362.923,99.167 363.233,100.38 363.409,102.02 C363.755,105.249 363.948,109.778 363.992,115.611 C364.035,121.444 364.118,125.711 364.241,128.407 C364.238,128.905 364.281,129.564 364.369,130.386 C364.539,133.521 364.48,135.436 364.196,136.131 C363.909,136.826 362.919,137.264 361.223,137.445 L358.352,137.752 C356.656,137.934 355.596,137.729 355.173,137.137 C354.749,136.547 354.268,134.759 353.728,131.772 C353.687,131.39 353.627,130.968 353.55,130.505 C353.473,130.043 353.426,129.729 353.408,129.565 C352.951,126.848 352.128,122.648 350.939,116.964 C349.75,111.282 348.982,106.828 348.636,103.599 C348.519,102.505 348.473,101.679 348.496,101.124 C348.519,100.568 348.748,99.99 349.182,99.39 C349.616,98.793 350.353,98.437 351.393,98.326 L351.393,98.326 Z M365.178,155.78 L358.531,156.491 C357.984,156.55 357.556,156.568 357.251,156.545 C356.943,156.524 356.549,156.454 356.066,156.34 C355.583,156.226 355.206,155.933 354.935,155.465 C354.664,154.996 354.487,154.38 354.405,153.613 L353.527,145.407 C353.293,143.219 354.433,141.99 356.95,141.72 L361.136,141.272 C363.926,140.974 365.666,141.216 366.36,141.999 C367.052,142.783 367.601,145.062 368.006,148.837 C368.339,151.955 368.348,153.85 368.032,154.52 C367.716,155.19 366.764,155.611 365.178,155.78 L365.178,155.78 Z" id="Shape" fill="#FFFFFF"></path>
                        <path d="M122.683,212.715 C122.468,210.702 122.455,208.866 122.647,207.207 C122.838,205.549 123.211,204.136 123.765,202.972 C124.319,201.805 124.977,200.792 125.741,199.927 C126.504,199.064 127.381,198.364 128.372,197.831 C129.362,197.297 130.351,196.881 131.337,196.584 C132.324,196.287 133.371,196.079 134.48,195.96 C135.589,195.842 136.193,196.249 136.293,197.183 L136.705,201.034 C136.721,201.18 136.726,201.298 136.721,201.387 C136.715,201.475 136.669,201.599 136.583,201.755 C136.497,201.913 136.332,202.033 136.091,202.118 C135.849,202.204 135.538,202.266 135.159,202.306 C134.838,202.341 134.552,202.356 134.301,202.354 C134.05,202.351 133.865,202.356 133.75,202.368 C132.962,202.452 132.314,202.809 131.806,203.44 C131.298,204.07 130.95,204.741 130.76,205.455 C130.571,206.168 130.457,207.044 130.421,208.081 C130.384,209.118 130.385,209.878 130.421,210.361 C130.457,210.844 130.507,211.377 130.57,211.961 C130.652,212.72 130.76,213.461 130.897,214.184 C131.033,214.907 131.28,215.905 131.638,217.181 C131.996,218.455 132.517,219.463 133.201,220.201 C133.885,220.941 134.679,221.261 135.584,221.164 C135.73,221.148 135.932,221.112 136.191,221.056 C136.451,220.998 136.771,220.95 137.149,220.909 C138.257,220.791 138.884,221.402 139.028,222.744 L139.341,225.677 C139.457,226.757 138.96,227.355 137.851,227.473 C136.509,227.617 135.234,227.621 134.023,227.486 C132.813,227.349 131.557,226.983 130.253,226.383 C128.949,225.786 127.804,224.949 126.819,223.874 C125.834,222.799 124.966,221.313 124.217,219.416 C123.469,217.515 122.958,215.282 122.683,212.715 L122.683,212.715 Z" id="Shape" fill="#FFFFFF"></path>
                        <path d="M149.019,219.724 C149.923,219.627 150.812,219.517 151.684,219.395 C152.557,219.272 153.094,219.2 153.298,219.178 C154.145,219.088 154.719,219.218 155.023,219.568 C155.326,219.919 155.518,220.474 155.599,221.233 L155.66,221.801 C155.71,222.268 155.74,222.619 155.75,222.854 C155.76,223.09 155.742,223.401 155.695,223.789 C155.648,224.178 155.547,224.47 155.39,224.664 C155.234,224.857 154.989,225.047 154.654,225.23 C154.32,225.413 153.904,225.531 153.408,225.584 L143.517,226.643 C143.02,226.696 142.59,226.668 142.224,226.56 C141.859,226.452 141.579,226.319 141.385,226.163 C141.192,226.007 141.03,225.743 140.902,225.373 C140.774,225.003 140.69,224.703 140.651,224.47 C140.611,224.239 140.567,223.888 140.517,223.422 L137.941,199.352 C137.891,198.886 137.86,198.535 137.851,198.299 C137.84,198.064 137.859,197.752 137.906,197.365 C137.953,196.976 138.055,196.683 138.211,196.49 C138.368,196.297 138.613,196.108 138.947,195.925 C139.281,195.742 139.697,195.623 140.193,195.571 L142.381,195.337 C142.877,195.284 143.308,195.312 143.674,195.42 C144.04,195.529 144.32,195.661 144.513,195.817 C144.707,195.973 144.868,196.237 144.996,196.608 C145.124,196.977 145.208,197.277 145.248,197.509 C145.287,197.742 145.332,198.092 145.382,198.557 L147.401,217.42 C147.454,217.916 147.509,218.294 147.567,218.553 C147.623,218.812 147.779,219.083 148.03,219.366 C148.28,219.647 148.61,219.768 149.019,219.724 L149.019,219.724 Z" id="Shape" fill="#FFFFFF"></path>
                        <path d="M161.53,196.827 L164.106,220.897 C164.156,221.364 164.186,221.715 164.197,221.95 C164.207,222.186 164.189,222.497 164.142,222.885 C164.095,223.274 163.994,223.566 163.837,223.76 C163.681,223.953 163.436,224.143 163.101,224.325 C162.766,224.508 162.351,224.627 161.855,224.68 L159.667,224.914 C159.171,224.967 158.74,224.939 158.375,224.831 C158.01,224.723 157.729,224.59 157.536,224.434 C157.343,224.278 157.181,224.014 157.053,223.644 C156.925,223.274 156.841,222.975 156.802,222.742 C156.762,222.51 156.718,222.16 156.668,221.694 L154.092,197.624 C154.042,197.158 154.011,196.807 154.002,196.571 C153.991,196.336 154.01,196.024 154.057,195.636 C154.103,195.247 154.206,194.954 154.362,194.761 C154.519,194.568 154.764,194.379 155.099,194.195 C155.433,194.012 155.849,193.894 156.345,193.841 L158.533,193.607 C159.029,193.554 159.46,193.582 159.826,193.69 C160.192,193.799 160.472,193.931 160.665,194.087 C160.859,194.243 161.019,194.507 161.148,194.878 C161.276,195.247 161.36,195.548 161.4,195.78 C161.435,196.012 161.48,196.361 161.53,196.827 L161.53,196.827 Z" id="Shape" fill="#FFFFFF"></path>
                        <path d="M163.996,208.293 C163.781,206.28 163.768,204.445 163.96,202.786 C164.151,201.128 164.523,199.715 165.078,198.55 C165.632,197.383 166.291,196.37 167.055,195.505 C167.818,194.642 168.695,193.943 169.686,193.409 C170.676,192.875 171.665,192.459 172.651,192.162 C173.637,191.865 174.685,191.657 175.794,191.538 C176.903,191.419 177.507,191.827 177.607,192.76 L178.019,196.611 C178.035,196.757 178.039,196.875 178.035,196.964 C178.029,197.052 177.983,197.176 177.897,197.332 C177.811,197.49 177.646,197.61 177.405,197.695 C177.163,197.781 176.852,197.843 176.473,197.884 C176.152,197.918 175.866,197.934 175.615,197.931 C175.364,197.928 175.179,197.933 175.063,197.946 C174.275,198.03 173.627,198.387 173.119,199.017 C172.611,199.647 172.263,200.318 172.073,201.032 C171.883,201.746 171.77,202.621 171.734,203.658 C171.697,204.695 171.697,205.455 171.734,205.938 C171.771,206.421 171.82,206.954 171.883,207.538 C171.965,208.297 172.073,209.038 172.21,209.761 C172.345,210.483 172.593,211.482 172.951,212.758 C173.309,214.032 173.83,215.039 174.514,215.777 C175.198,216.517 175.992,216.837 176.896,216.74 C177.042,216.724 177.245,216.688 177.504,216.632 C177.764,216.574 178.083,216.526 178.462,216.485 C179.57,216.366 180.197,216.978 180.34,218.319 L180.653,221.252 C180.769,222.332 180.272,222.93 179.163,223.048 C177.821,223.192 176.545,223.195 175.335,223.06 C174.125,222.923 172.869,222.557 171.565,221.957 C170.262,221.36 169.117,220.523 168.131,219.448 C167.146,218.373 166.277,216.886 165.529,214.989 C164.782,213.094 164.271,210.861 163.996,208.293 L163.996,208.293 Z" id="Shape" fill="#FFFFFF"></path>
                        <path d="M194.634,204.616 C199.464,212.806 201.999,217.611 202.24,219.03 C202.334,219.905 201.622,220.425 200.104,220.587 L197.829,220.831 C196.516,220.972 195.643,220.873 195.208,220.536 C194.774,220.199 194.211,219.286 193.52,217.795 C193.099,216.896 192.643,215.876 192.152,214.732 C191.66,213.589 191.271,212.702 190.982,212.068 C190.692,211.434 190.389,210.811 190.073,210.195 C189.756,209.581 189.474,209.146 189.225,208.892 C188.976,208.638 188.735,208.523 188.502,208.548 C188.268,208.573 188.186,208.907 188.255,209.548 C188.274,209.723 188.323,210.049 188.403,210.527 C188.484,211.006 188.539,211.376 188.567,211.639 L189.27,218.203 C189.32,218.67 189.35,219.021 189.36,219.256 C189.37,219.492 189.353,219.803 189.305,220.192 C189.259,220.58 189.158,220.873 189.001,221.066 C188.845,221.26 188.599,221.449 188.265,221.632 C187.93,221.815 187.515,221.933 187.019,221.986 L184.831,222.22 C184.335,222.273 183.904,222.245 183.539,222.137 C183.174,222.029 182.893,221.896 182.7,221.74 C182.506,221.584 182.346,221.32 182.217,220.95 C182.089,220.58 182.005,220.28 181.966,220.048 C181.926,219.816 181.882,219.466 181.832,218.999 L179.256,194.929 C179.206,194.463 179.175,194.112 179.166,193.876 C179.155,193.641 179.174,193.329 179.221,192.941 C179.268,192.552 179.369,192.259 179.525,192.066 C179.682,191.872 179.927,191.684 180.262,191.5 C180.596,191.317 181.012,191.199 181.508,191.146 L183.696,190.912 C184.192,190.859 184.623,190.887 184.989,190.995 C185.355,191.104 185.635,191.236 185.828,191.392 C186.022,191.548 186.183,191.812 186.311,192.183 C186.439,192.552 186.522,192.853 186.562,193.084 C186.601,193.317 186.646,193.667 186.696,194.133 C187.112,198.013 187.36,200.274 187.444,200.914 C187.527,201.555 187.627,201.868 187.744,201.856 C188.123,201.815 188.473,201.365 188.795,200.504 C189.116,199.645 189.4,198.58 189.649,197.314 C189.897,196.048 190.033,195.385 190.056,195.323 C190.187,194.896 190.336,194.356 190.502,193.703 C190.669,193.051 190.797,192.595 190.887,192.334 C190.977,192.073 191.097,191.751 191.248,191.366 C191.398,190.981 191.555,190.714 191.715,190.564 C191.876,190.413 192.09,190.273 192.357,190.142 C192.622,190.01 192.945,189.923 193.325,189.882 L195.863,189.611 C196.505,189.542 196.98,189.507 197.291,189.503 C197.6,189.5 197.903,189.578 198.201,189.737 C198.498,189.898 198.668,190.168 198.708,190.546 C198.768,191.101 198.603,191.901 198.213,192.946 C197.917,193.774 197.407,195.084 196.685,196.872 C195.961,198.661 195.338,200.204 194.812,201.498 C194.287,202.794 194.029,203.485 194.038,203.573 C194.038,203.604 194.237,203.951 194.634,204.616 L194.634,204.616 Z" id="Shape" fill="#FFFFFF"></path>
                        <path d="M217.11,190.879 L217.696,196.35 C217.824,197.546 218.001,198.236 218.227,198.418 C218.453,198.6 219.165,198.628 220.361,198.5 C221.557,198.372 222.247,198.202 222.431,197.991 C222.614,197.78 222.646,197.105 222.524,195.966 L221.924,190.364 C221.875,189.898 221.844,189.547 221.834,189.311 C221.822,189.076 221.842,188.764 221.889,188.377 C221.936,187.987 222.037,187.695 222.194,187.502 C222.35,187.309 222.596,187.121 222.93,186.937 C223.264,186.754 223.68,186.635 224.176,186.583 L226.364,186.349 C226.86,186.296 227.292,186.324 227.657,186.432 C228.023,186.541 228.303,186.673 228.496,186.829 C228.69,186.985 228.851,187.249 228.979,187.62 C229.108,187.988 229.19,188.29 229.231,188.521 C229.27,188.754 229.315,189.104 229.365,189.569 L231.941,213.639 C231.991,214.106 232.021,214.457 232.032,214.692 C232.042,214.928 232.024,215.239 231.977,215.628 C231.93,216.016 231.828,216.309 231.671,216.502 C231.514,216.695 231.27,216.885 230.936,217.068 C230.601,217.251 230.186,217.369 229.69,217.422 L227.501,217.656 C227.005,217.709 226.575,217.681 226.209,217.573 C225.844,217.465 225.563,217.332 225.37,217.176 C225.176,217.02 225.016,216.756 224.887,216.386 C224.759,216.016 224.675,215.716 224.636,215.483 C224.596,215.251 224.552,214.901 224.501,214.435 L223.799,207.871 C223.646,206.442 223.428,205.586 223.148,205.308 C222.867,205.028 222.172,204.947 221.064,205.066 L220.583,205.117 C219.796,205.201 219.289,205.366 219.064,205.613 C218.839,205.857 218.784,206.505 218.896,207.555 L218.985,208.387 L219.687,214.951 C219.738,215.418 219.767,215.769 219.778,216.004 C219.789,216.24 219.77,216.551 219.723,216.94 C219.676,217.328 219.575,217.621 219.418,217.814 C219.261,218.007 219.017,218.197 218.682,218.379 C218.347,218.562 217.932,218.681 217.436,218.734 L215.248,218.968 C214.752,219.021 214.321,218.993 213.955,218.885 C213.59,218.777 213.31,218.644 213.117,218.488 C212.923,218.332 212.762,218.068 212.634,217.698 C212.506,217.328 212.422,217.028 212.383,216.795 C212.342,216.563 212.298,216.213 212.248,215.747 L209.672,191.677 C209.622,191.211 209.592,190.86 209.582,190.624 C209.57,190.389 209.59,190.077 209.637,189.69 C209.683,189.3 209.785,189.008 209.942,188.815 C210.098,188.622 210.343,188.433 210.678,188.249 C211.012,188.066 211.427,187.948 211.923,187.895 L214.111,187.661 C214.607,187.608 215.038,187.636 215.404,187.744 C215.769,187.853 216.05,187.985 216.243,188.141 C216.437,188.297 216.597,188.561 216.726,188.932 C216.854,189.3 216.937,189.601 216.977,189.833 C217.016,190.063 217.062,190.413 217.11,190.879 L217.11,190.879 Z" id="Shape" fill="#FFFFFF"></path>
                        <path d="M240.146,205.102 L240.473,208.166 C240.552,208.629 240.787,208.966 241.179,209.174 C241.571,209.384 241.998,209.463 242.466,209.413 C243.429,209.31 244.331,209.199 245.175,209.079 C246.018,208.961 246.527,208.891 246.702,208.872 C247.606,208.775 248.248,208.847 248.628,209.086 C249.008,209.327 249.234,209.782 249.306,210.453 L249.634,213.516 C249.702,214.158 249.619,214.624 249.385,214.914 C249.151,215.205 248.712,215.385 248.071,215.454 L236.516,216.691 C234.766,216.878 233.766,215.806 233.516,213.47 L230.94,189.4 C230.89,188.934 230.86,188.583 230.85,188.347 C230.838,188.112 230.858,187.8 230.905,187.413 C230.951,187.024 231.053,186.731 231.21,186.538 C231.366,186.344 231.612,186.156 231.946,185.972 C232.28,185.789 232.695,185.67 233.192,185.618 L244.483,184.41 C245.067,184.347 245.568,184.412 245.986,184.603 C246.405,184.794 246.636,185.095 246.68,185.503 L247.077,189.223 C247.128,189.69 246.999,190.007 246.692,190.172 C246.384,190.337 245.896,190.457 245.226,190.528 C244.613,190.593 243.845,190.661 242.922,190.73 C242,190.799 241.378,190.851 241.058,190.885 C240.474,190.948 240.019,191.041 239.693,191.163 C239.367,191.287 239.144,191.481 239.025,191.743 C238.906,192.008 238.841,192.244 238.836,192.45 C238.828,192.658 238.848,192.98 238.895,193.419 C238.989,194.294 239.061,194.898 239.112,195.232 C239.163,195.566 239.278,195.894 239.46,196.213 C239.643,196.533 239.884,196.721 240.185,196.777 C240.486,196.833 240.914,196.832 241.468,196.773 C242.519,196.661 243.421,196.549 244.177,196.439 C244.933,196.329 245.412,196.261 245.616,196.24 C246.695,196.124 247.307,196.739 247.451,198.081 L247.751,200.881 C247.795,201.29 247.726,201.614 247.545,201.855 C247.364,202.096 247.152,202.251 246.909,202.321 C246.666,202.391 246.325,202.45 245.888,202.497 C245.042,202.587 244.12,202.671 243.126,202.748 C242.131,202.825 241.53,202.874 241.327,202.896 C240.859,202.946 240.532,203.063 240.346,203.244 C240.159,203.427 240.063,203.637 240.06,203.873 C240.055,204.109 240.084,204.519 240.146,205.102 L240.146,205.102 Z" id="Shape" fill="#FFFFFF"></path>
                        <path d="M250.653,183.748 L259.187,182.834 C264.759,182.238 267.898,185.222 268.601,191.787 C268.738,193.071 268.804,194.038 268.8,194.687 C268.795,195.336 268.646,196.083 268.353,196.926 C268.06,197.77 267.555,198.568 266.839,199.323 C266.575,199.618 266.254,199.859 265.876,200.047 C265.498,200.235 265.252,200.423 265.14,200.612 C265.028,200.801 264.998,201.144 265.051,201.64 C265.16,202.661 265.426,203.563 265.849,204.343 C266.272,205.125 266.819,205.479 267.49,205.407 C267.724,205.382 267.941,205.344 268.142,205.293 C268.342,205.242 268.507,205.187 268.634,205.13 C268.76,205.072 268.837,205.042 268.867,205.039 C269.509,204.971 269.966,205.18 270.24,205.666 C270.513,206.154 270.709,206.951 270.828,208.06 C270.859,208.353 270.909,208.886 270.977,209.66 C271.044,210.436 271.104,211.056 271.154,211.523 C271.211,212.047 271.079,212.476 270.76,212.805 C270.441,213.134 269.756,213.354 268.705,213.466 C266.838,213.666 265.273,213.245 264.011,212.198 C262.747,211.153 261.785,209.752 261.126,207.992 C260.673,206.801 260.201,205.834 259.708,205.089 C259.215,204.346 258.842,203.892 258.588,203.726 C258.334,203.561 258.135,203.487 257.989,203.503 C257.755,203.528 257.676,203.891 257.751,204.591 L258.416,210.805 C258.467,211.272 258.496,211.623 258.507,211.858 C258.517,212.094 258.499,212.405 258.452,212.794 C258.405,213.183 258.304,213.475 258.147,213.668 C257.99,213.861 257.746,214.051 257.411,214.234 C257.076,214.417 256.661,214.535 256.165,214.588 L253.102,214.916 C252.693,214.96 252.349,214.908 252.067,214.761 C251.786,214.614 251.573,214.342 251.426,213.944 C251.28,213.548 251.185,213.203 251.139,212.913 C251.093,212.623 251.039,212.187 250.977,211.602 L248.401,187.532 C248.351,187.066 248.321,186.715 248.311,186.479 C248.299,186.244 248.318,185.932 248.365,185.545 C248.412,185.156 248.513,184.863 248.67,184.67 C248.827,184.477 249.072,184.288 249.406,184.105 C249.742,183.919 250.157,183.8 250.653,183.748 L250.653,183.748 Z M258.069,188.931 C257.194,189.024 256.652,189.2 256.443,189.458 C256.234,189.716 256.173,190.241 256.257,191.028 C256.276,191.203 256.322,191.574 256.398,192.141 C256.473,192.709 256.531,193.167 256.568,193.517 C256.602,193.838 256.638,194.247 256.677,194.745 C256.715,195.243 256.742,195.565 256.758,195.711 C256.836,196.44 257.002,196.895 257.258,197.073 C257.513,197.252 258.078,197.295 258.953,197.202 C260.557,197.03 261.222,195.646 260.944,193.049 C260.633,190.132 259.674,188.759 258.069,188.931 L258.069,188.931 Z" id="Shape" fill="#FFFFFF"></path>
                        <path d="M278.834,200.961 L279.162,204.025 C279.24,204.489 279.475,204.825 279.867,205.033 C280.259,205.243 280.687,205.322 281.154,205.272 C282.117,205.168 283.019,205.057 283.862,204.938 C284.706,204.82 285.215,204.75 285.39,204.731 C286.293,204.634 286.936,204.706 287.316,204.944 C287.696,205.185 287.921,205.64 287.994,206.311 L288.321,209.374 C288.39,210.016 288.307,210.483 288.073,210.773 C287.839,211.064 287.399,211.244 286.759,211.313 L275.204,212.55 C273.454,212.737 272.454,211.665 272.204,209.329 L269.628,185.259 C269.578,184.793 269.548,184.442 269.537,184.206 C269.526,183.971 269.545,183.659 269.592,183.272 C269.639,182.883 269.74,182.59 269.897,182.397 C270.053,182.204 270.299,182.015 270.633,181.832 C270.968,181.649 271.383,181.53 271.879,181.478 L283.17,180.27 C283.754,180.207 284.255,180.272 284.674,180.463 C285.093,180.654 285.324,180.955 285.368,181.363 L285.765,185.083 C285.816,185.55 285.687,185.867 285.379,186.032 C285.072,186.198 284.583,186.317 283.913,186.388 C283.3,186.454 282.532,186.521 281.61,186.59 C280.688,186.659 280.066,186.711 279.746,186.745 C279.161,186.808 278.707,186.9 278.381,187.023 C278.055,187.147 277.832,187.341 277.713,187.603 C277.593,187.868 277.529,188.103 277.523,188.31 C277.516,188.518 277.536,188.84 277.583,189.278 C277.677,190.153 277.748,190.758 277.799,191.091 C277.85,191.425 277.965,191.753 278.149,192.072 C278.33,192.392 278.571,192.58 278.873,192.636 C279.174,192.693 279.602,192.691 280.156,192.632 C281.207,192.519 282.109,192.408 282.865,192.298 C283.62,192.188 284.1,192.12 284.304,192.098 C285.383,191.983 285.995,192.597 286.139,193.939 L286.439,196.739 C286.483,197.148 286.414,197.473 286.233,197.714 C286.052,197.954 285.839,198.11 285.597,198.18 C285.354,198.251 285.013,198.31 284.575,198.357 C283.729,198.447 282.808,198.531 281.813,198.608 C280.819,198.685 280.218,198.734 280.014,198.756 C279.547,198.806 279.22,198.923 279.034,199.104 C278.846,199.287 278.751,199.497 278.747,199.733 C278.742,199.969 278.771,200.378 278.834,200.961 L278.834,200.961 Z" id="Shape" fill="#FFFFFF"></path>
                    </g>
                </g>
            </g>
        </g>
    </g>
</svg>