<?xml version="1.0" encoding="UTF-8" standalone="no"?>
<svg width="405px" height="297px" viewBox="0 0 405 297" version="1.1" xmlns="http://www.w3.org/2000/svg" xmlns:xlink="http://www.w3.org/1999/xlink">
    <g id="Page-1" stroke="none" stroke-width="1" fill="none" fill-rule="evenodd">
        <g id="Button_Beer">
            <g id="cap">
                <g id="Group">
                    <path d="M396.1,187.1 C398.8,180.3 386.3,160.9 388.6,158.3 C389.6,156.1 393,154 400.5,154.8 C408,155.6 403.7,151.1 401.5,146.7 C391.7,123.7 377.9,87 367.4,65.9 C364.5,51.8 348,32.1 338.2,26.2 C319.2,14.8 297.5,7.6 285.3,5.5 C260.2,1.3 235,-1.2 209.3,1.7 C180.3,4.9 139.5,14.3 114.1,28.7 C93.1,40.7 81.4,42.4 57.7,60.3 C36.1,76.6 19,101.7 13.8,130.2 C12.7,136.3 6.3,162.1 4.8,166.9 C1.8,177 1.5,187 1,191.2 C0.7,194.3 0.8,200.4 5.6,207.4 C9.5,210.6 15,205.9 15.5,208.1 C17.7,217 11.5,236.5 19.8,239 C29.5,241.8 39.9,233.9 42.5,245.4 C43.7,251 42.7,262.4 47.1,265.9 C50.7,268.8 59.7,265.3 63.2,263.4 C69.2,260.3 77.4,262.2 81.5,267.3 C86.6,273.7 85.9,284.4 93.8,287.3 C98.5,289 104.1,284.5 108.9,281.2 C110.7,280 123.2,274.7 131.6,278.6 C138.4,281.8 140.6,293.9 146.4,295.7 C151.2,297.2 154.8,297.5 156.1,295.5 C161.8,292.7 162.9,288.4 167.9,284.9 C166.6,285.9 173.3,282.4 174.2,282.1 C175,281.8 181.9,280.3 184.7,280.2 C183.7,280.2 191,279.2 195.5,282.1 C200,285 199.6,293 211.7,294.3 C220.2,295.2 226.9,278.5 237.2,274 C247.4,269.5 255.2,275.5 263.4,279.1 C271.6,282.6 276.5,286.5 280,279 C283.5,271.5 282.2,265.1 285.8,260.7 C289.4,256.2 301.3,251.9 306.7,251.3 C313.2,250.6 326.2,258 331.6,254.4 C337.3,250.6 332.5,245.8 333.7,239.1 C334.9,232.4 343.6,224.2 350.5,222.9 C357.4,221.6 364.7,226 369.8,223.5 C377.8,216.4 370.2,208 369.7,202.6 C369.5,201.1 369.2,196.1 377.1,190.5 C383.8,186 393.5,193.6 396.1,187.1 L396.1,187.1 Z M368.4,91.6 C372.1,86.8 379.8,109.3 379.8,109.3 C379.8,109.3 389.7,136.5 394.7,147.1 C390.5,145.7 386.3,149.1 384.5,150.6 C384.3,150.8 384.1,151 383.9,151.1 C377.1,139.4 367.2,118.7 364.9,110.9 C363.9,107.6 365.9,94.8 368.4,91.6 L368.4,91.6 Z M15.4,196.3 C12.4,199.3 8.4,193.8 8.3,182.1 C8.2,174.1 13.8,152.9 16.1,150.3 C17,154.2 24.3,165.2 23,172.6 C21.7,180.1 18.3,193.3 15.4,196.3 L15.4,196.3 Z M21,225.8 C17,226.4 21.8,198.8 25.3,186.6 C27.2,180.1 30.7,182.7 33.9,184.2 C39.7,186.9 47.3,192.3 50.5,207 C52,213.7 45.9,226 45,236.5 C40.2,225.2 30.7,224.3 21,225.8 L21,225.8 Z M89.8,269.1 C85.8,261.2 81.7,247.9 68.8,252.9 C68,252.9 51.2,261.9 50.8,251.1 L50.8,250.5 C52.8,237.5 56.3,212.4 64.1,214.4 C76.5,217.6 88.8,220.4 90.7,239.1 C91.1,242.6 91.2,262.7 91.7,269.2 C91.8,270.9 90.5,270.4 89.8,269.1 L89.8,269.1 Z M136.7,274.7 C122.2,266.5 120.9,267.7 114.7,270 C108.7,272.2 105.9,282.5 97.7,276.9 C97.8,267.1 96.5,240.6 96.9,236.6 C97.8,227.5 126.4,224.9 134.9,234.2 C141.8,241.7 143.5,277.7 144.7,281.6 C143.3,280.5 141.6,277.5 136.7,274.7 L136.7,274.7 Z M206.6,279.6 C192.7,265.6 169.3,269.5 152,280.7 C151.8,272.8 148.5,253.5 148.6,250.8 C149.2,230.8 170.4,231.7 176.2,231.6 C181.8,231.6 198.5,237 200.7,244.2 C202.9,251.4 209,273.6 211.8,283.9 C209.5,284.5 208.7,281.8 206.6,279.6 L206.6,279.6 Z M267.4,270.7 C261.6,270.4 254.5,263.3 247.5,263 C235,262.5 226.7,267.5 218.3,280.9 C218.2,281 218.1,281.1 218.1,281.1 C217.4,275.8 209.8,246.7 212,242.4 C213.6,238.8 219.6,225.3 238.3,225.3 C248.8,225.3 252.3,231.6 254.2,235.2 C257.2,240.8 262.7,260.2 267.7,270.5 C267.6,270.6 267.5,270.7 267.4,270.7 L267.4,270.7 Z M299.4,242.7 C285.4,248.4 289.6,246 279.8,252.9 C276.8,255 275.7,262.5 274.5,265.5 C272.9,259.5 261.9,232.4 262,229.3 C262.7,216 280.5,209.2 292.2,206.4 C297.4,205.2 303.4,207.5 307.3,211.2 C311.7,215.4 316.4,226.8 318.8,232.5 C319,233 321.1,239.4 322.8,244.3 C318.7,243.8 311.4,237.8 299.4,242.7 L299.4,242.7 Z M337,219.6 C330.6,223.4 328.4,228.9 327.3,233.7 C325.2,227.1 313.2,200.1 314.2,194.5 C318.7,171.1 334,163.7 336.4,164 C338,164.2 344,171.3 344.8,172.5 C346,174.5 358.5,191.8 362.1,199.1 C364.1,205 362.1,206.5 361.6,210.7 C360.8,218.3 345.6,213.1 337,219.6 L337,219.6 Z M367.3,189.6 C366.4,190.6 365.7,191.5 365.1,192.4 C362.5,186 355.7,174.8 351.9,166.4 C342.8,150.6 345.2,145.4 348.7,137.6 C350.3,134 352.5,130.8 354.7,128.9 C357.7,126.3 363.7,133.4 364.6,135.9 C365.7,138.8 389.3,172.7 383.5,179.5 C380.4,180.7 372.9,183.4 367.3,189.6 L367.3,189.6 Z" id="Shape" fill="#4D509B"></path>
                    <path d="M364.7,135.8 C365.8,138.7 389.4,172.6 383.6,179.4 C380.4,180.8 372.9,183.4 367.3,189.7 C366.4,190.7 365.7,191.6 365.1,192.5 C362.5,186.1 355.7,174.9 351.9,166.5 C342.8,150.7 345.2,145.5 348.7,137.7 C350.3,134.1 352.5,130.9 354.7,129 C357.8,126.2 363.8,133.3 364.7,135.8 L364.7,135.8 Z" id="Shape" fill="#CE4680"></path>
                    <path d="M394.7,147.1 C390.5,145.7 386.3,149.1 384.5,150.6 C384.3,150.8 384.1,151 383.9,151.1 C377.1,139.4 367.2,118.7 364.9,110.9 C363.9,107.6 366,94.7 368.5,91.6 C372.2,86.8 379.9,109.3 379.9,109.3 C379.9,109.3 389.8,136.5 394.7,147.1 L394.7,147.1 Z" id="Shape" fill="#CE4680"></path>
                    <path d="M361.7,210.8 C360.8,218.3 345.6,213.1 337,219.6 C330.6,223.4 328.4,228.9 327.3,233.7 C325.2,227.1 313.2,200.1 314.2,194.5 C318.7,171.1 334,163.7 336.4,164 C338,164.2 344,171.3 344.8,172.5 C346,174.5 358.5,191.8 362.1,199.1 C364.2,205.1 362.2,206.6 361.7,210.8 L361.7,210.8 Z" id="Shape" fill="#CE4680"></path>
                    <path d="M322.8,244.2 C318.7,243.8 311.4,237.8 299.3,242.7 C285.3,248.4 289.5,246 279.7,252.9 C276.7,255 275.6,262.5 274.4,265.5 C272.8,259.5 261.8,232.4 261.9,229.3 C262.6,216 280.4,209.2 292.1,206.4 C297.3,205.2 303.3,207.5 307.2,211.2 C311.6,215.4 316.3,226.8 318.7,232.5 C319.1,233 321.2,239.3 322.8,244.2 L322.8,244.2 Z" id="Shape" fill="#CE4680"></path>
                    <path d="M267.7,270.6 C267.6,270.6 267.5,270.7 267.4,270.7 C261.6,270.4 254.5,263.3 247.5,263 C235,262.5 226.7,267.5 218.3,280.9 C218.2,281 218.1,281.1 218.1,281.1 C217.4,275.8 209.8,246.7 212,242.4 C213.6,238.8 219.6,225.3 238.3,225.3 C248.8,225.3 252.3,231.6 254.2,235.2 C257.2,240.8 262.7,260.2 267.7,270.6 L267.7,270.6 Z" id="Shape" fill="#CE4680"></path>
                    <path d="M211.8,284 C209.6,284.5 208.7,281.8 206.7,279.7 C192.8,265.7 169.4,269.6 152.1,280.8 C151.9,272.9 148.6,253.6 148.7,250.9 C149.3,230.9 170.5,231.8 176.3,231.7 C181.9,231.7 198.6,237.1 200.8,244.3 C202.8,251.4 209,273.7 211.8,284 L211.8,284 Z" id="Shape" fill="#CE4680"></path>
                    <path d="M144.7,281.6 C143.3,280.5 141.6,277.5 136.7,274.7 C122.2,266.5 120.9,267.7 114.7,270 C108.7,272.2 105.9,282.5 97.7,276.9 C97.8,267.1 96.5,240.6 96.9,236.6 C97.8,227.5 126.4,224.9 134.9,234.2 C141.8,241.7 143.5,277.8 144.7,281.6 L144.7,281.6 Z" id="Shape" fill="#CE4680"></path>
                    <path d="M91.7,269.2 C91.8,270.9 90.5,270.4 89.9,269.1 C85.9,261.2 81.8,247.9 68.9,252.9 C68.1,252.9 51.3,261.9 50.9,251.1 L50.9,250.5 C52.9,237.5 56.4,212.4 64.2,214.4 C76.6,217.6 88.9,220.4 90.8,239.1 C91,242.6 91.2,262.7 91.7,269.2 L91.7,269.2 Z" id="Shape" fill="#CE4680"></path>
                    <path d="M50.4,207 C51.9,213.7 45.8,226 44.9,236.5 C40.2,225.3 30.7,224.4 21,225.8 C17,226.4 21.8,198.8 25.3,186.6 C27.2,180.1 30.7,182.7 33.9,184.2 C39.7,186.9 47.2,192.3 50.4,207 L50.4,207 Z" id="Shape" fill="#CE4680"></path>
                    <path d="M23,172.7 C21.7,180.1 18.3,193.3 15.4,196.3 C12.4,199.3 8.4,193.8 8.3,182.1 C8.2,174.1 13.8,152.9 16.1,150.3 C17,154.2 24.3,165.3 23,172.7 L23,172.7 Z" id="Shape" fill="#CE4680"></path>
                </g>
                <g id="Group" transform="translate(38.000000, 36.000000)" fill="#FFFFFF">
                    <path d="M17.2,27.7 L29.5,26.4 C33.1,26 36.1,26.2 38.7,26.8 C41.3,27.5 43.4,28.5 45,29.9 C46.6,31.3 48,33.2 49.1,35.8 C50.2,38.3 51,40.9 51.6,43.6 C52.2,46.3 52.6,49.5 53.1,53.4 C53.4,56.1 53.6,58.4 53.7,60.3 C53.8,62.3 53.8,64.3 53.7,66.5 C53.6,68.7 53.3,70.6 52.9,72.1 C52.5,73.6 51.8,75.2 50.9,76.7 C50,78.3 48.9,79.5 47.6,80.5 C46.3,81.5 44.6,82.3 42.6,83.1 C40.6,83.8 38.3,84.4 35.6,84.6 L23.3,85.9 C22.4,86 21.6,85.9 20.9,85.7 C20.2,85.5 19.7,85.2 19.3,85 C18.9,84.7 18.6,84.2 18.4,83.5 C18.2,82.8 18,82.2 17.9,81.8 C17.8,81.4 17.7,80.7 17.6,79.8 L12.8,34.7 C12.7,33.8 12.6,33.2 12.6,32.7 C12.6,32.3 12.6,31.7 12.7,30.9 C12.8,30.2 13,29.6 13.3,29.3 C13.6,28.9 14.1,28.6 14.7,28.2 C15.5,28 16.3,27.8 17.2,27.7 L17.2,27.7 Z M29,37.6 C28.3,37.7 27.8,37.9 27.7,38.3 C27.5,38.7 27.5,39.4 27.6,40.3 C27.9,43.4 28.5,48.1 29.2,54.7 C29.9,61.2 30.5,66.1 30.8,69.4 C31.1,72.1 31.8,73.4 32.9,73.3 C35.8,73 37.5,71.6 38,69.1 C38.5,66.6 38.3,61.7 37.6,54.6 C37.3,52 37.1,49.9 36.8,48.3 C36.6,46.7 36.3,45.2 35.8,43.5 C35.4,41.9 34.9,40.7 34.3,39.9 C33.7,39.1 33,38.5 32.2,38.1 C31.3,37.6 30.2,37.5 29,37.6 L29,37.6 Z" id="Shape"></path>
                    <path d="M67.3,29 L72.1,74.1 C72.2,75 72.2,75.6 72.3,76.1 C72.3,76.5 72.3,77.1 72.2,77.9 C72.1,78.6 71.9,79.2 71.6,79.5 C71.3,79.9 70.8,80.2 70.2,80.6 C69.6,80.9 68.8,81.2 67.9,81.3 L63.8,81.7 C62.9,81.8 62.1,81.7 61.4,81.5 C60.7,81.3 60.2,81 59.8,80.8 C59.4,80.5 59.1,80 58.9,79.3 C58.7,78.6 58.5,78 58.4,77.6 C58.3,77.2 58.2,76.5 58.1,75.6 L53.3,30.5 C53.2,29.6 53.1,29 53.1,28.5 C53.1,28.1 53.1,27.5 53.2,26.7 C53.3,26 53.5,25.4 53.8,25.1 C54.1,24.7 54.6,24.4 55.2,24 C55.8,23.7 56.6,23.4 57.5,23.3 L61.6,22.9 C62.5,22.8 63.3,22.9 64,23.1 C64.7,23.3 65.2,23.6 65.6,23.8 C66,24.1 66.3,24.6 66.5,25.3 C66.7,26 66.9,26.6 67,27 C67.1,27.4 67.2,28.1 67.3,29 L67.3,29 Z" id="Shape"></path>
                    <path d="M71.4,39.1 C71.1,36 71.2,33.3 71.7,31 C72.2,28.6 73,26.8 74,25.6 C75,24.3 76.3,23.3 77.9,22.4 C79.5,21.5 80.9,21 82.2,20.7 C83.4,20.4 84.9,20.2 86.5,20 C90,19.6 92.8,19.6 94.9,20 C97,20.4 98.1,21.1 98.3,22.3 L99,28.6 C99.2,30.2 98.2,31.2 96.1,31.4 L95.4,31.5 C95.1,31.5 94.1,31.5 92.4,31.4 C90.8,31.3 89.5,31.3 88.6,31.3 C86.2,31.6 85.2,32.8 85.4,35 C85.5,36.3 85.9,37.4 86.5,38.2 C87.1,39 88.3,40 90,41.1 C95,44.4 98.5,47.5 100.4,50.4 C102.3,53.3 103.5,56.6 103.9,60.3 C104.4,65 104,68.6 102.8,71 C101.1,74.3 98.4,76.6 94.7,78.1 C92.5,78.9 89.9,79.5 86.9,79.8 C83.5,80.2 80.6,80.1 78.3,79.6 C75.9,79.1 74.7,78.1 74.5,76.6 L73.8,70.3 C73.7,69 74.6,68.2 76.6,68 C77.1,67.9 78.2,68 80,68.3 C81.8,68.5 83.6,68.5 85.3,68.4 C86.6,68.3 87.7,67.7 88.8,66.7 C89.9,65.7 90.4,64.6 90.2,63.4 C90.1,62.6 90,62 89.8,61.5 C89.6,61 89.1,60.3 88.2,59.3 C87.3,58.3 86,57.1 84.3,55.7 C80.9,53 78.4,51 77.1,49.8 C75.7,48.6 74.5,47.1 73.3,45.3 C72.4,43.3 71.7,41.3 71.4,39.1 L71.4,39.1 Z" id="Shape"></path>
                    <path d="M104.4,47 C104,43.2 104,39.8 104.3,36.7 C104.7,33.6 105.4,30.9 106.4,28.8 C107.4,26.6 108.7,24.7 110.1,23.1 C111.5,21.5 113.2,20.2 115,19.2 C116.9,18.2 118.7,17.4 120.6,16.9 C122.4,16.3 124.4,16 126.5,15.7 C128.6,15.5 129.7,16.2 129.9,18 L130.7,25.2 L130.7,25.9 C130.7,26.1 130.6,26.3 130.4,26.6 C130.2,26.9 129.9,27.1 129.5,27.3 C129,27.5 128.5,27.6 127.8,27.7 C127.2,27.8 126.7,27.8 126.2,27.8 L125.2,27.8 C123.7,28 122.5,28.6 121.6,29.8 C120.6,31 120,32.2 119.6,33.6 C119.2,34.9 119,36.6 119,38.5 C118.9,40.4 118.9,41.9 119,42.8 C119.1,43.7 119.2,44.7 119.3,45.8 C119.5,47.2 119.7,48.6 119.9,50 C120.2,51.4 120.6,53.2 121.3,55.6 C122,58 122.9,59.9 124.2,61.3 C125.5,62.7 127,63.3 128.7,63.1 C129,63.1 129.4,63 129.8,62.9 C130.3,62.8 130.9,62.7 131.6,62.6 C133.7,62.4 134.9,63.5 135.1,66 L135.7,71.5 C135.9,73.5 135,74.6 132.9,74.9 C130.4,75.2 128,75.2 125.7,74.9 C123.4,74.6 121.1,74 118.6,72.8 C116.2,71.7 114,70.1 112.2,68.1 C110.4,66.1 108.7,63.3 107.3,59.7 C105.9,56 104.9,51.8 104.4,47 L104.4,47 Z" id="Shape"></path>
                    <path d="M135.5,47.9 C135.4,46.4 135.3,45.3 135.2,44.5 C135.1,43.7 135,42.6 134.8,41.1 C134.6,39.6 134.5,38.5 134.4,37.8 C134.1,34.7 133.9,32.2 133.8,30.3 C133.8,28.3 134,26.2 134.5,24 C135,21.8 135.8,20 137,18.6 C138.2,17.3 139.9,16.1 142.1,15 C144.3,14 147.2,13.3 150.5,12.9 C153.7,12.6 156.5,12.7 158.8,13.2 C161.1,13.8 162.9,14.6 164.3,15.6 C165.7,16.6 166.8,18.2 167.7,20.2 C168.6,22.2 169.2,24.2 169.6,26.1 C170,28 170.3,30.5 170.6,33.5 C170.8,35.2 171.1,37.6 171.5,40.7 C171.9,43.8 172.2,46.1 172.4,47.5 C172.7,50.4 172.9,52.9 172.9,54.9 C172.9,56.9 172.6,59 172.2,61.1 C171.7,63.2 170.9,64.9 169.7,66.3 C168.5,67.6 166.9,68.8 164.8,69.8 C162.7,70.8 160.1,71.5 157,71.8 C153.6,72.2 150.7,72.1 148.3,71.5 C145.9,71 144,70.1 142.6,69.1 C141.2,68 140,66.5 139.1,64.4 C138.2,62.3 137.5,60.4 137.1,58.4 C136.7,56.5 136.4,54 136.1,50.9 C135.8,50.6 135.6,49.4 135.5,47.9 L135.5,47.9 Z M154.3,25 C153.6,24.6 152.6,24.4 151.3,24.5 C150,24.6 149.1,25 148.5,25.6 C147.9,26.2 147.6,26.7 147.6,27.3 C147.6,27.9 147.6,28.6 147.7,29.5 L150.5,55.3 C150.6,56.2 150.7,56.8 150.8,57.3 C150.9,57.8 151.1,58.3 151.4,59 C151.7,59.7 152.2,60.1 152.8,60.4 C153.4,60.7 154.2,60.7 155.2,60.6 C156.2,60.5 157,60.2 157.5,59.9 C158.1,59.5 158.4,59 158.6,58.3 C158.7,57.6 158.8,57 158.8,56.5 C158.8,56 158.8,55.4 158.7,54.5 L155.9,28.7 C155.8,27.8 155.7,27.1 155.5,26.5 C155.4,25.9 155,25.5 154.3,25 L154.3,25 Z" id="Shape"></path>
                    <path d="M196,35.6 C196,32.8 196.1,29.3 196.1,25 C196.2,17.2 196.5,12.5 196.9,10.8 C197.3,9.2 198.6,8.2 200.8,8 L204,7.7 C206,7.5 207.4,7.6 208.3,7.9 C209.2,8.3 209.8,9.2 209.9,10.8 C210,11.3 210,12.1 209.9,13.2 C209.9,14.3 209.7,16.2 209.5,18.8 C209.3,21.4 209,24.3 208.8,27.3 C208.5,30.4 208.1,35 207.6,41.1 C207.1,47.2 206.6,53.5 206,59.8 C205.6,64.3 203.9,66.7 201,67 L190.7,68.1 C187.7,68.4 185.6,66.4 184.3,62.1 C181.6,52.5 179,43.6 176.6,35.6 C174.2,27.5 172.6,22.2 171.9,19.8 C171.2,17.3 170.8,15.7 170.7,15 C170.5,13.4 170.9,12.3 171.7,11.8 C172.6,11.2 174.1,10.8 176.3,10.6 L179.8,10.2 C181.3,10 182.5,10.2 183.3,10.8 C184.1,11.4 184.8,12.6 185.5,14.5 C186.2,16.4 187,19.6 188,24 C188.6,26.7 189.2,29.5 189.8,32.3 C190.4,35.1 190.8,37.4 191.2,39.2 C191.6,41 191.9,42.7 192.3,44.5 C192.7,46.2 193,47.6 193.2,48.6 C193.4,49.6 193.6,50.5 193.9,51.3 C194.2,52.1 194.4,52.6 194.5,52.9 C194.7,53.2 194.9,53.3 195.1,53.3 C195.3,53.3 195.4,53 195.5,52.4 C195.6,51.8 195.7,50.9 195.8,49.7 C195.8,48.5 195.9,47.3 195.9,46 L195.9,41.1 C195.9,38.9 195.9,37.2 196,35.6 L196,35.6 Z" id="Shape"></path>
                    <path d="M229.8,42.9 L230.4,48.6 C230.5,49.5 231,50.1 231.7,50.5 C232.4,50.9 233.2,51 234.1,50.9 C235.9,50.7 237.6,50.5 239.2,50.3 C240.8,50.1 241.7,49.9 242.1,49.9 C243.8,49.7 245,49.9 245.7,50.3 C246.4,50.8 246.8,51.6 247,52.9 L247.6,58.6 C247.7,59.8 247.6,60.7 247.1,61.2 C246.7,61.7 245.8,62.1 244.6,62.2 L222.9,64.5 C219.6,64.9 217.7,62.8 217.3,58.5 L212.5,13.4 C212.4,12.5 212.3,11.9 212.3,11.4 C212.3,11 212.3,10.4 212.4,9.6 C212.5,8.9 212.7,8.3 213,8 C213.3,7.6 213.8,7.3 214.4,6.9 C215,6.6 215.8,6.3 216.7,6.2 L237.9,3.9 C239,3.8 239.9,3.9 240.7,4.3 C241.5,4.7 241.9,5.2 242,6 L242.7,13 C242.8,13.9 242.6,14.5 242,14.8 C241.4,15.1 240.5,15.3 239.2,15.5 C238.1,15.6 236.6,15.7 234.9,15.9 C233.2,16 232,16.1 231.4,16.2 C230.3,16.3 229.5,16.5 228.8,16.7 C228.2,16.9 227.8,17.3 227.5,17.8 C227.3,18.3 227.2,18.7 227.1,19.1 C227.1,19.5 227.1,20.1 227.2,20.9 C227.4,22.5 227.5,23.7 227.6,24.3 C227.7,24.9 227.9,25.5 228.3,26.1 C228.6,26.7 229.1,27.1 229.7,27.2 C230.3,27.3 231.1,27.3 232.1,27.2 C234.1,27 235.8,26.8 237.2,26.6 C238.6,26.4 239.5,26.3 239.9,26.2 C241.9,26 243.1,27.1 243.3,29.6 L243.9,34.9 C244,35.7 243.9,36.3 243.5,36.7 C243.2,37.2 242.8,37.4 242.3,37.6 C241.8,37.7 241.2,37.8 240.4,37.9 C238.8,38.1 237.1,38.2 235.2,38.4 C233.3,38.5 232.2,38.6 231.8,38.7 C230.9,38.8 230.3,39 230,39.4 C229.6,39.7 229.5,40.1 229.5,40.6 C229.6,41 229.7,41.8 229.8,42.9 L229.8,42.9 Z" id="Shape"></path>
                    <path d="M249.5,2.8 L265.5,1.1 C275.9,2.73114864e-14 281.8,5.6 283.1,17.9 C283.4,20.3 283.5,22.1 283.5,23.3 C283.5,24.5 283.2,25.9 282.7,27.5 C282.2,29.1 281.2,30.6 279.9,32 C279.4,32.6 278.8,33 278.1,33.4 C277.4,33.8 276.9,34.1 276.7,34.5 C276.5,34.9 276.4,35.5 276.5,36.4 C276.7,38.3 277.2,40 278,41.5 C278.8,43 279.8,43.6 281.1,43.5 C281.5,43.5 281.9,43.4 282.3,43.3 C282.7,43.2 283,43.1 283.2,43 C283.4,42.9 283.6,42.8 283.6,42.8 C284.8,42.7 285.7,43.1 286.2,44 C286.7,44.9 287.1,46.4 287.3,48.5 C287.4,49 287.5,50 287.6,51.5 C287.7,53 287.8,54.1 287.9,55 C288,56 287.8,56.8 287.2,57.4 C286.6,58 285.3,58.4 283.3,58.6 C279.8,59 276.9,58.2 274.5,56.2 C272.1,54.2 270.3,51.6 269.1,48.3 C268.3,46.1 267.4,44.3 266.4,42.9 C265.5,41.5 264.8,40.7 264.3,40.3 C263.8,40 263.4,39.9 263.2,39.9 C262.8,39.9 262.6,40.6 262.8,41.9 L264,53.6 C264.1,54.5 264.1,55.1 264.2,55.6 C264.2,56 264.2,56.6 264.1,57.4 C264,58.1 263.8,58.7 263.5,59 C263.2,59.4 262.7,59.7 262.1,60.1 C261.5,60.4 260.7,60.7 259.8,60.8 L254.1,61.4 C253.3,61.5 252.7,61.4 252.2,61.1 C251.7,60.8 251.3,60.3 251,59.6 C250.7,58.9 250.5,58.2 250.5,57.7 C250.4,57.2 250.3,56.3 250.2,55.2 L245.4,10.1 C245.3,9.2 245.2,8.6 245.2,8.1 C245.2,7.7 245.2,7.1 245.3,6.3 C245.4,5.6 245.6,5 245.9,4.7 C246.2,4.3 246.7,4 247.3,3.6 C247.8,3.2 248.6,2.9 249.5,2.8 L249.5,2.8 Z M263.4,12.5 C261.8,12.7 260.7,13 260.4,13.5 C260,14 259.9,15 260.1,16.4 C260.1,16.7 260.2,17.4 260.4,18.5 C260.5,19.6 260.6,20.4 260.7,21.1 C260.8,21.7 260.8,22.5 260.9,23.4 C261,24.3 261,24.9 261.1,25.2 C261.2,26.6 261.6,27.4 262,27.8 C262.5,28.1 263.5,28.2 265.2,28 C268.2,27.7 269.5,25.1 268.9,20.2 C268.2,14.8 266.4,12.2 263.4,12.5 L263.4,12.5 Z" id="Shape"></path>
                    <path d="M1.8,128.6 C1.7,127.1 1.6,126 1.5,125.2 C1.4,124.4 1.3,123.3 1.1,121.8 C0.9,120.3 0.8,119.2 0.7,118.5 C0.4,115.4 0.2,112.9 0.1,111 C0.1,109 0.3,106.9 0.8,104.7 C1.3,102.5 2.1,100.7 3.3,99.3 C4.5,98 6.2,96.8 8.4,95.7 C10.6,94.7 13.5,94 16.8,93.6 C20,93.3 22.8,93.4 25.1,93.9 C27.4,94.5 29.2,95.3 30.6,96.3 C32,97.3 33.1,98.9 34,100.9 C34.9,102.9 35.5,104.9 35.9,106.8 C36.3,108.7 36.6,111.2 36.9,114.2 C37.1,115.9 37.4,118.3 37.8,121.4 C38.2,124.5 38.5,126.8 38.7,128.2 C39,131.1 39.2,133.6 39.2,135.6 C39.2,137.6 38.9,139.7 38.5,141.8 C38,143.9 37.2,145.6 36,147 C34.8,148.3 33.2,149.5 31.1,150.5 C29,151.5 26.4,152.2 23.3,152.5 C19.9,152.9 17,152.8 14.6,152.2 C12.2,151.7 10.3,150.8 8.9,149.8 C7.5,148.7 6.3,147.2 5.4,145.1 C4.5,143 3.8,141.1 3.4,139.1 C3,137.2 2.7,134.7 2.3,131.6 C2.1,131.3 2,130.1 1.8,128.6 L1.8,128.6 Z M20.6,105.7 C19.9,105.3 18.9,105.1 17.6,105.2 C16.3,105.3 15.4,105.7 14.8,106.3 C14.2,106.9 13.9,107.4 13.9,108 C13.9,108.5 13.9,109.3 14,110.2 L16.8,136 C16.9,136.9 17,137.5 17.1,138 C17.2,138.5 17.4,139 17.7,139.7 C18,140.4 18.5,140.8 19.1,141.1 C19.7,141.4 20.5,141.4 21.5,141.3 C22.5,141.2 23.3,140.9 23.8,140.6 C24.4,140.2 24.7,139.7 24.9,139 C25,138.3 25.1,137.7 25.1,137.2 C25.1,136.7 25.1,136.1 25,135.2 L22.2,109.4 C22.1,108.5 22,107.8 21.8,107.2 C21.7,106.6 21.3,106.2 20.6,105.7 L20.6,105.7 Z" id="Shape"></path>
                    <path d="M74,94.6 L77.8,129.7 C78.1,132.1 78.2,134 78.2,135.5 C78.2,137 77.9,138.6 77.5,140.2 C77,141.9 76.2,143.2 75.1,144.2 C74,145.2 72.3,146.1 70.2,146.9 C68,147.7 65.4,148.3 62.1,148.6 C59.3,148.9 56.8,149 54.7,148.9 C52.6,148.8 50.8,148.4 49.4,147.7 C48,147.1 46.8,146.3 45.9,145.5 C45,144.7 44.2,143.6 43.7,142.1 C43.1,140.7 42.7,139.3 42.5,138 C42.2,136.7 42,135 41.8,133 L38.2,98.5 C38.1,97.6 38,97 38,96.5 C38,96.1 38,95.5 38.1,94.7 C38.2,94 38.4,93.4 38.7,93.1 C39,92.7 39.5,92.4 40.1,92 C40.7,91.7 41.5,91.4 42.4,91.3 L46.5,90.9 C47.4,90.8 48.2,90.9 48.9,91.1 C49.6,91.3 50.1,91.6 50.5,91.8 C50.9,92.1 51.2,92.6 51.4,93.3 C51.6,94 51.8,94.6 51.9,95 C52,95.4 52.1,96.1 52.2,97 L56.1,133.1 C56.2,133.9 56.3,134.5 56.4,134.9 C56.5,135.3 56.7,135.7 57,136.2 C57.3,136.7 57.8,137 58.5,137.1 C59.2,137.2 60.1,137.3 61.2,137.1 C62.3,137 63.2,136.7 63.7,136.1 C64.2,135.6 64.5,135 64.5,134.5 C64.5,134 64.5,133.2 64.4,132.1 L60.5,95.9 C60.4,95 60.3,94.4 60.3,93.9 C60.3,93.5 60.3,92.9 60.4,92.2 C60.5,91.5 60.7,91 61,90.6 C61.3,90.2 61.8,89.9 62.4,89.5 C63,89.2 63.8,88.9 64.7,88.8 L68.8,88.4 C69.7,88.3 70.5,88.4 71.2,88.6 C71.9,88.8 72.4,89.1 72.8,89.3 C73.2,89.6 73.5,90.1 73.7,90.7 C73.9,91.4 74.1,91.9 74.2,92.4 C73.8,93 73.9,93.7 74,94.6 L74,94.6 Z" id="Shape"></path>
                    <path d="M81,87.3 L97,85.6 C107.4,84.5 113.3,90.1 114.6,102.4 C114.9,104.8 115,106.6 115,107.8 C115,109 114.7,110.4 114.2,112 C113.6,113.6 112.7,115.1 111.4,116.5 C110.9,117.1 110.3,117.5 109.6,117.9 C108.9,118.3 108.4,118.6 108.2,119 C108,119.4 107.9,120 108,120.9 C108.2,122.8 108.7,124.5 109.5,126 C110.3,127.5 111.3,128.1 112.6,128 C113,128 113.4,127.9 113.8,127.8 C114.2,127.7 114.5,127.6 114.7,127.5 C114.9,127.4 115.1,127.3 115.1,127.3 C116.3,127.2 117.2,127.6 117.7,128.5 C118.2,129.4 118.6,130.9 118.8,133 C118.9,133.5 119,134.5 119.1,136 C119.2,137.5 119.3,138.6 119.4,139.5 C119.5,140.5 119.3,141.3 118.7,141.9 C118.1,142.5 116.8,142.9 114.8,143.1 C111.3,143.5 108.4,142.7 106,140.7 C103.6,138.7 101.8,136.1 100.6,132.8 C99.8,130.6 98.9,128.8 97.9,127.4 C97,126 96.3,125.2 95.8,124.8 C95.3,124.5 94.9,124.4 94.7,124.4 C94.3,124.4 94.1,125.1 94.3,126.4 L95.5,138.1 C95.6,139 95.6,139.6 95.7,140.1 C95.7,140.5 95.7,141.1 95.6,141.9 C95.5,142.6 95.3,143.2 95,143.5 C94.7,143.9 94.2,144.2 93.6,144.6 C93,144.9 92.2,145.2 91.3,145.3 L85.6,145.9 C84.8,146 84.2,145.9 83.7,145.6 C83.2,145.3 82.8,144.8 82.5,144.1 C82.2,143.4 82,142.7 82,142.2 C81.9,141.7 81.8,140.8 81.7,139.7 L76.9,94.6 C76.8,93.7 76.7,93.1 76.7,92.6 C76.7,92.2 76.7,91.6 76.8,90.8 C76.9,90.1 77.1,89.5 77.4,89.2 C77.7,88.8 78.2,88.5 78.8,88.1 C79.3,87.6 80.1,87.4 81,87.3 L81,87.3 Z M94.9,97 C93.3,97.2 92.2,97.5 91.9,98 C91.5,98.5 91.4,99.5 91.6,100.9 C91.6,101.2 91.7,101.9 91.9,103 C92,104.1 92.1,104.9 92.2,105.6 C92.3,106.2 92.3,107 92.4,107.9 C92.5,108.8 92.5,109.4 92.6,109.7 C92.7,111.1 93.1,111.9 93.5,112.3 C94,112.6 95,112.7 96.7,112.5 C99.7,112.2 101,109.6 100.4,104.7 C99.8,99.2 98,96.7 94.9,97 L94.9,97 Z" id="Shape"></path>
                    <path d="M165.4,105.2 C165.2,105.3 165.1,105.4 165.1,105.6 C165.1,105.8 165.2,105.9 165.5,106 C168.3,106.6 170.5,108.2 172.1,110.7 C173.7,113.2 174.7,116.1 175,119.3 C175.3,122.5 174.9,125.6 173.7,128.6 C172.7,131.1 171.5,133 170.2,134.3 C168.9,135.6 167.7,136.4 166.6,136.7 C165.5,137 163.9,137.3 161.7,137.5 L143.4,139.5 C142.5,139.6 141.7,139.5 141,139.3 C140.3,139.1 139.8,138.8 139.4,138.6 C139,138.3 138.7,137.8 138.5,137.1 C138.3,136.4 138.1,135.8 138,135.4 C137.9,135 137.8,134.3 137.7,133.4 L132.9,88.3 C132.8,87.4 132.7,86.8 132.7,86.3 C132.7,85.9 132.7,85.3 132.8,84.5 C132.9,83.8 133.1,83.2 133.4,82.9 C133.7,82.5 134.2,82.2 134.8,81.8 C135.4,81.5 136.2,81.2 137.1,81.1 L154.7,79.2 C159.6,78.7 163.4,79.7 165.9,82.2 C168.4,84.7 169.9,88.1 170.4,92.3 C171.2,98.2 169.5,102.4 165.4,105.2 L165.4,105.2 Z M151.6,90.9 C149.7,91.1 148.6,91.6 148.2,92.3 C147.8,93 147.8,94.6 148.1,96.9 C148.2,98.2 148.4,99 148.5,99.6 C148.6,100.1 148.8,100.6 149.1,101.2 C149.4,101.7 149.8,102 150.4,102.1 C151,102.2 151.8,102.2 152.8,102 C155.5,101.7 156.7,99.7 156.3,96.1 C155.9,92.3 154.3,90.6 151.6,90.9 L151.6,90.9 Z M154.3,112.4 C153.2,112.5 152.4,112.7 151.8,113 C151.2,113.3 150.8,113.9 150.6,114.6 C150.4,115.4 150.3,116.1 150.3,116.7 C150.3,117.4 150.4,118.5 150.6,120 C150.7,121.3 150.8,122.2 150.9,122.7 C151,123.2 151.1,123.9 151.4,124.6 C151.6,125.4 151.9,125.9 152.3,126.1 C152.7,126.4 153.1,126.6 153.7,126.7 C154.3,126.9 155,126.9 155.9,126.8 C157.8,126.6 158.9,125.8 159.3,124.4 C159.7,123 159.8,121.2 159.6,118.9 C159.5,117.9 159.4,117.2 159.3,116.7 C159.2,116.2 159.1,115.6 158.9,114.8 C158.7,114 158.4,113.5 158.1,113.2 C157.8,112.9 157.3,112.6 156.6,112.4 C155.9,112.3 155.2,112.3 154.3,112.4 L154.3,112.4 Z" id="Shape"></path>
                    <path d="M191.1,113.4 L191.7,119.1 C191.8,120 192.3,120.6 193,121 C193.7,121.4 194.5,121.5 195.4,121.4 C197.2,121.2 198.9,121 200.5,120.8 C202.1,120.6 203,120.4 203.4,120.4 C205.1,120.2 206.3,120.4 207,120.8 C207.7,121.3 208.1,122.1 208.3,123.4 L208.9,129.1 C209,130.3 208.9,131.2 208.4,131.7 C208,132.2 207.1,132.6 205.9,132.7 L184.2,135 C180.9,135.4 179,133.3 178.6,129 L173.8,83.9 C173.7,83 173.6,82.4 173.6,81.9 C173.6,81.5 173.6,80.9 173.7,80.1 C173.8,79.4 174,78.8 174.3,78.5 C174.6,78.1 175.1,77.8 175.7,77.4 C176.3,77.1 177.1,76.8 178,76.7 L199.2,74.4 C200.3,74.3 201.2,74.4 202,74.8 C202.8,75.2 203.2,75.7 203.3,76.5 L204,83.5 C204.1,84.4 203.9,85 203.3,85.3 C202.7,85.6 201.8,85.8 200.5,86 C199.4,86.1 197.9,86.2 196.2,86.4 C194.5,86.5 193.3,86.6 192.7,86.7 C191.6,86.8 190.8,87 190.1,87.2 C189.5,87.4 189.1,87.8 188.8,88.3 C188.6,88.8 188.5,89.2 188.4,89.6 C188.4,90 188.4,90.6 188.5,91.4 C188.7,93 188.8,94.2 188.9,94.8 C189,95.4 189.2,96 189.6,96.6 C189.9,97.2 190.4,97.6 191,97.7 C191.6,97.8 192.4,97.8 193.4,97.7 C195.4,97.5 197.1,97.3 198.5,97.1 C199.9,96.9 200.8,96.8 201.2,96.7 C203.2,96.5 204.4,97.6 204.6,100.1 L205.2,105.4 C205.3,106.2 205.2,106.8 204.8,107.2 C204.5,107.7 204.1,107.9 203.6,108.1 C203.1,108.2 202.5,108.3 201.7,108.4 C200.1,108.6 198.4,108.7 196.5,108.9 C194.6,109 193.5,109.1 193.1,109.2 C192.2,109.3 191.6,109.5 191.3,109.9 C190.9,110.2 190.8,110.6 190.8,111.1 C190.9,111.6 191,112.3 191.1,113.4 L191.1,113.4 Z" id="Shape"></path>
                    <path d="M223.8,109.9 L224.4,115.6 C224.5,116.5 225,117.1 225.7,117.5 C226.4,117.9 227.2,118 228.1,117.9 C229.9,117.7 231.6,117.5 233.2,117.3 C234.8,117.1 235.7,116.9 236.1,116.9 C237.8,116.7 239,116.9 239.7,117.3 C240.4,117.8 240.8,118.6 241,119.9 L241.6,125.6 C241.7,126.8 241.6,127.7 241.1,128.2 C240.7,128.7 239.8,129.1 238.6,129.2 L216.9,131.5 C213.6,131.9 211.7,129.8 211.3,125.5 L206.5,80.4 C206.4,79.5 206.3,78.9 206.3,78.4 C206.3,78 206.3,77.4 206.4,76.6 C206.5,75.9 206.7,75.3 207,75 C207.3,74.6 207.8,74.3 208.4,73.9 C209,73.6 209.8,73.3 210.7,73.2 L231.9,70.9 C233,70.8 233.9,70.9 234.7,71.3 C235.5,71.7 235.9,72.2 236,73 L236.7,80 C236.8,80.9 236.6,81.5 236,81.8 C235.4,82.1 234.5,82.3 233.2,82.5 C232.1,82.6 230.6,82.7 228.9,82.9 C227.2,83 226,83.1 225.4,83.2 C224.3,83.3 223.5,83.5 222.8,83.7 C222.2,83.9 221.8,84.3 221.5,84.8 C221.3,85.3 221.2,85.7 221.1,86.1 C221.1,86.5 221.1,87.1 221.2,87.9 C221.4,89.5 221.5,90.7 221.6,91.3 C221.7,91.9 221.9,92.5 222.3,93.1 C222.6,93.7 223.1,94.1 223.7,94.2 C224.3,94.3 225.1,94.3 226.1,94.2 C228.1,94 229.8,93.8 231.2,93.6 C232.6,93.4 233.5,93.3 233.9,93.2 C235.9,93 237.1,94.1 237.3,96.6 L237.9,101.9 C238,102.7 237.9,103.3 237.5,103.7 C237.2,104.2 236.8,104.4 236.3,104.6 C235.8,104.7 235.2,104.8 234.4,104.9 C232.8,105.1 231.1,105.2 229.2,105.4 C227.3,105.5 226.2,105.6 225.8,105.7 C224.9,105.8 224.3,106 224,106.4 C223.6,106.7 223.5,107.1 223.5,107.6 C223.6,108 223.7,108.8 223.8,109.9 L223.8,109.9 Z" id="Shape"></path>
                    <path d="M243.5,69.9 L259.5,68.2 C269.9,67.1 275.8,72.7 277.1,85 C277.4,87.4 277.5,89.2 277.5,90.4 C277.5,91.6 277.2,93 276.7,94.6 C276.2,96.2 275.2,97.7 273.9,99.1 C273.4,99.7 272.8,100.1 272.1,100.5 C271.4,100.9 270.9,101.2 270.7,101.6 C270.5,102 270.4,102.6 270.5,103.5 C270.7,105.4 271.2,107.1 272,108.6 C272.8,110.1 273.8,110.7 275.1,110.6 C275.5,110.6 275.9,110.5 276.3,110.4 C276.7,110.3 277,110.2 277.2,110.1 C277.4,110 277.6,109.9 277.6,109.9 C278.8,109.8 279.7,110.2 280.2,111.1 C280.7,112 281.1,113.5 281.3,115.6 C281.4,116.1 281.5,117.1 281.6,118.6 C281.7,120.1 281.8,121.2 281.9,122.1 C282,123.1 281.8,123.9 281.2,124.5 C280.6,125.1 279.3,125.5 277.3,125.7 C273.8,126.1 270.9,125.3 268.5,123.3 C266.1,121.3 264.3,118.7 263.1,115.4 C262.3,113.2 261.4,111.4 260.4,110 C259.5,108.6 258.8,107.8 258.3,107.4 C257.8,107.1 257.4,107 257.2,107 C256.8,107 256.6,107.7 256.8,109 L258,120.7 C258.1,121.6 258.2,122.2 258.2,122.7 C258.2,123.1 258.2,123.7 258.1,124.5 C258,125.2 257.8,125.8 257.5,126.1 C257.2,126.5 256.7,126.8 256.1,127.2 C255.5,127.5 254.7,127.8 253.8,127.9 L248.1,128.5 C247.3,128.6 246.7,128.5 246.2,128.2 C245.7,127.9 245.3,127.4 245,126.7 C244.7,126 244.5,125.3 244.5,124.8 C244.4,124.3 244.3,123.4 244.2,122.3 L239.4,77.2 C239.3,76.3 239.2,75.7 239.2,75.2 C239.2,74.8 239.2,74.2 239.3,73.4 C239.4,72.7 239.6,72.1 239.9,71.8 C240.2,71.4 240.7,71.1 241.3,70.7 C241.8,70.2 242.6,70 243.5,69.9 L243.5,69.9 Z M257.4,79.6 C255.8,79.8 254.7,80.1 254.4,80.6 C254,81.1 253.9,82.1 254.1,83.5 C254.1,83.8 254.2,84.5 254.4,85.6 C254.5,86.7 254.6,87.5 254.7,88.2 C254.8,88.8 254.8,89.6 254.9,90.5 C255,91.4 255,92 255.1,92.3 C255.2,93.7 255.6,94.5 256,94.9 C256.5,95.2 257.5,95.3 259.2,95.1 C262.2,94.8 263.5,92.2 262.9,87.3 C262.2,81.8 260.4,79.3 257.4,79.6 L257.4,79.6 Z" id="Shape"></path>
                    <path d="M280.3,83.1 C280,80 280.1,77.3 280.6,75 C281.1,72.6 281.9,70.8 282.9,69.6 C283.9,68.3 285.2,67.3 286.8,66.4 C288.4,65.5 289.8,65 291.1,64.7 C292.3,64.4 293.8,64.2 295.4,64 C298.9,63.6 301.7,63.6 303.8,64 C305.9,64.4 307,65.1 307.2,66.3 L307.9,72.6 C308.1,74.2 307.1,75.2 305,75.4 L304.3,75.5 C304,75.5 303,75.5 301.3,75.4 C299.7,75.3 298.4,75.3 297.5,75.3 C295.1,75.6 294.1,76.8 294.3,79 C294.4,80.3 294.8,81.4 295.4,82.2 C296,83 297.2,84 298.9,85.1 C303.9,88.4 307.4,91.5 309.3,94.4 C311.2,97.3 312.4,100.6 312.8,104.3 C313.3,109 312.9,112.6 311.7,115 C310,118.3 307.3,120.6 303.6,122.1 C301.4,122.9 298.8,123.5 295.8,123.8 C292.4,124.2 289.5,124.1 287.2,123.6 C284.8,123.1 283.6,122.1 283.4,120.6 L282.7,114.3 C282.6,113 283.5,112.2 285.5,112 C286,111.9 287.1,112 288.9,112.3 C290.7,112.5 292.5,112.5 294.2,112.4 C295.5,112.3 296.6,111.7 297.7,110.7 C298.8,109.7 299.3,108.6 299.1,107.4 C299,106.6 298.9,106 298.7,105.5 C298.5,105 298,104.3 297.1,103.3 C296.2,102.3 294.9,101.1 293.2,99.7 C289.8,97 287.3,95 286,93.8 C284.6,92.6 283.4,91.1 282.2,89.3 C281.2,87.3 280.5,85.3 280.3,83.1 L280.3,83.1 Z" id="Shape"></path>
                    <path d="M314,62.3 L322.2,61.4 C323.7,61.2 324.6,61.6 325.1,62.3 C325.5,63.1 325.9,64.3 326,65.9 C326.3,69.1 326.5,73.7 326.6,79.5 C326.6,85.3 326.7,89.6 326.8,92.3 C326.8,92.8 326.8,93.5 326.9,94.3 C327.1,97.4 327,99.4 326.7,100 C326.4,100.7 325.4,101.1 323.7,101.3 L320.8,101.6 C319.1,101.8 318,101.6 317.6,101 C317.2,100.4 316.7,98.6 316.2,95.6 C316.2,95.2 316.1,94.8 316,94.3 C315.9,93.8 315.9,93.5 315.9,93.4 C315.4,90.7 314.6,86.5 313.4,80.8 C312.2,75.1 311.4,70.7 311.1,67.4 C311,66.3 310.9,65.5 311,64.9 C311,64.3 311.3,63.8 311.7,63.2 C312.2,62.8 313,62.4 314,62.3 L314,62.3 Z M327.8,119.8 L321.2,120.5 C320.7,120.6 320.2,120.6 319.9,120.6 C319.6,120.6 319.2,120.5 318.7,120.4 C318.2,120.3 317.8,120 317.6,119.5 C317.3,119 317.2,118.4 317.1,117.6 L316.2,109.4 C316,107.2 317.1,106 319.6,105.7 L323.8,105.3 C326.6,105 328.3,105.2 329,106 C329.7,106.8 330.2,109.1 330.6,112.8 C330.9,115.9 330.9,117.8 330.6,118.5 C330.3,119.2 329.4,119.6 327.8,119.8 L327.8,119.8 Z" id="Shape"></path>
                </g>
                <g id="Group" transform="translate(123.000000, 180.000000)" fill="#FFFFFF">
                    <path d="M0.3,32.7 C0.1,30.7 0.1,28.9 0.3,27.2 C0.5,25.5 0.9,24.1 1.4,23 C2,21.8 2.6,20.8 3.4,20 C4.2,19.1 5,18.4 6,17.9 C7,17.4 8,17 9,16.7 C10,16.4 11,16.2 12.1,16.1 C13.2,16 13.8,16.4 13.9,17.3 L14.3,21.2 L14.3,21.6 C14.3,21.7 14.2,21.8 14.2,22 C14.1,22.2 13.9,22.3 13.7,22.4 C13.5,22.5 13.1,22.5 12.8,22.6 C12.5,22.6 12.2,22.7 11.9,22.6 L11.3,22.6 C10.5,22.7 9.9,23 9.4,23.7 C8.9,24.3 8.5,25 8.4,25.7 C8.2,26.4 8.1,27.3 8.1,28.3 L8.1,30.6 C8.1,31.1 8.2,31.6 8.2,32.2 C8.3,33 8.4,33.7 8.5,34.4 C8.6,35.1 8.9,36.1 9.2,37.4 C9.6,38.7 10.1,39.7 10.8,40.4 C11.5,41.1 12.3,41.5 13.2,41.4 C13.3,41.4 13.5,41.3 13.8,41.3 C14.1,41.2 14.4,41.2 14.8,41.2 C15.9,41.1 16.5,41.7 16.7,43 L17,45.9 C17.1,47 16.6,47.6 15.5,47.7 C14.2,47.8 12.9,47.8 11.7,47.7 C10.5,47.6 9.2,47.2 7.9,46.6 C6.6,46 5.5,45.2 4.5,44.1 C3.5,43 2.6,41.5 1.9,39.6 C1.1,37.5 0.6,35.3 0.3,32.7 L0.3,32.7 Z" id="Shape"></path>
                    <path d="M26.6,39.7 C27.5,39.6 28.4,39.5 29.3,39.4 C30.2,39.3 30.7,39.2 30.9,39.2 C31.7,39.1 32.3,39.2 32.6,39.6 C32.9,40 33.1,40.5 33.2,41.3 L33.3,41.9 C33.3,42.4 33.4,42.7 33.4,43 C33.4,43.2 33.4,43.5 33.3,43.9 C33.3,44.3 33.2,44.6 33,44.8 C32.8,45 32.6,45.2 32.3,45.4 C32,45.6 31.5,45.7 31.1,45.8 L21.2,46.9 C20.7,47 20.3,46.9 19.9,46.8 C19.5,46.7 19.3,46.6 19.1,46.4 C18.9,46.2 18.7,46 18.6,45.6 C18.5,45.2 18.4,44.9 18.3,44.7 C18.3,44.5 18.2,44.1 18.2,43.7 L15.6,19.6 C15.6,19.1 15.5,18.8 15.5,18.5 C15.5,18.3 15.5,18 15.6,17.6 C15.6,17.2 15.7,16.9 15.9,16.7 C16.1,16.5 16.3,16.3 16.6,16.1 C16.9,15.9 17.3,15.8 17.8,15.7 L20,15.5 C20.5,15.4 20.9,15.5 21.3,15.6 C21.7,15.7 21.9,15.8 22.1,16 C22.3,16.2 22.5,16.4 22.6,16.8 C22.7,17.2 22.8,17.5 22.9,17.7 C22.9,17.9 23,18.3 23,18.7 L25,37.6 C25.1,38.1 25.1,38.5 25.2,38.7 C25.3,39 25.4,39.2 25.7,39.5 C25.9,39.6 26.2,39.8 26.6,39.7 L26.6,39.7 Z" id="Shape"></path>
                    <path d="M39.1,16.8 L41.7,40.9 C41.7,41.4 41.8,41.7 41.8,42 C41.8,42.2 41.8,42.5 41.7,42.9 C41.7,43.3 41.6,43.6 41.4,43.8 C41.2,44 41,44.2 40.7,44.4 C40.4,44.6 39.9,44.7 39.5,44.8 L37.3,45 C36.8,45.1 36.4,45 36,44.9 C35.6,44.8 35.4,44.7 35.2,44.5 C35,44.3 34.8,44.1 34.7,43.7 C34.6,43.3 34.5,43 34.4,42.8 C34.4,42.6 34.3,42.2 34.3,41.8 L31.7,17.7 C31.7,17.2 31.6,16.9 31.6,16.6 C31.6,16.4 31.6,16.1 31.7,15.7 C31.7,15.3 31.8,15 32,14.8 C32.2,14.6 32.4,14.4 32.7,14.2 C33,14 33.4,13.9 33.9,13.8 L36.1,13.6 C36.6,13.5 37,13.6 37.4,13.7 C37.8,13.8 38,13.9 38.2,14.1 C38.4,14.3 38.6,14.5 38.7,14.9 C38.8,15.3 38.9,15.6 39,15.8 C39,16 39.1,16.4 39.1,16.8 L39.1,16.8 Z" id="Shape"></path>
                    <path d="M41.6,28.3 C41.4,26.3 41.4,24.5 41.6,22.8 C41.8,21.1 42.2,19.7 42.7,18.6 C43.3,17.4 43.9,16.4 44.7,15.6 C45.5,14.7 46.3,14 47.3,13.5 C48.3,13 49.3,12.6 50.3,12.3 C51.3,12 52.3,11.8 53.4,11.7 C54.5,11.6 55.1,12 55.2,12.9 L55.6,16.8 L55.6,17.2 C55.6,17.3 55.5,17.4 55.5,17.6 C55.4,17.8 55.2,17.9 55,18 C54.8,18.1 54.4,18.1 54.1,18.2 L53.2,18.2 L52.6,18.2 C51.8,18.3 51.2,18.6 50.7,19.3 C50.2,19.9 49.8,20.6 49.7,21.3 C49.5,22 49.4,22.9 49.4,23.9 L49.4,26.2 C49.4,26.7 49.5,27.2 49.5,27.8 C49.6,28.6 49.7,29.3 49.8,30 C49.9,30.7 50.2,31.7 50.5,33 C50.9,34.3 51.4,35.3 52.1,36 C52.8,36.7 53.6,37.1 54.5,37 C54.6,37 54.8,36.9 55.1,36.9 C55.4,36.8 55.7,36.8 56.1,36.8 C57.2,36.7 57.8,37.3 58,38.6 L58.3,41.5 C58.4,42.6 57.9,43.2 56.8,43.3 C55.5,43.4 54.2,43.4 53,43.3 C51.8,43.2 50.5,42.8 49.2,42.2 C47.9,41.6 46.8,40.8 45.8,39.7 C44.8,38.6 43.9,37.1 43.2,35.2 C42.4,33.1 41.9,30.9 41.6,28.3 L41.6,28.3 Z" id="Shape"></path>
                    <path d="M72.2,24.6 C77,32.8 79.6,37.6 79.8,39 C79.9,39.9 79.2,40.4 77.7,40.6 L75.4,40.8 C74.1,40.9 73.2,40.8 72.8,40.5 C72.4,40.2 71.8,39.2 71.1,37.8 C70.7,36.9 70.2,35.9 69.7,34.7 C69.2,33.6 68.8,32.7 68.5,32 C68.2,31.4 67.9,30.7 67.6,30.1 C67.3,29.5 67,29.1 66.8,28.8 C66.6,28.5 66.3,28.4 66.1,28.5 C65.9,28.5 65.8,28.9 65.9,29.5 C65.9,29.7 66,30 66,30.5 C66.1,31 66.1,31.3 66.2,31.6 L66.9,38.2 C66.9,38.7 67,39 67,39.3 C67,39.5 67,39.8 66.9,40.2 C66.9,40.6 66.8,40.9 66.6,41.1 C66.4,41.3 66.2,41.5 65.9,41.7 C65.6,41.9 65.1,42 64.7,42.1 L62.5,42.3 C62,42.4 61.6,42.3 61.2,42.2 C60.8,42.1 60.6,42 60.4,41.8 C60.2,41.6 60,41.4 59.9,41 C59.8,40.6 59.7,40.3 59.6,40.1 C59.6,39.9 59.5,39.5 59.5,39.1 L56.9,15 C56.9,14.5 56.8,14.2 56.8,13.9 C56.8,13.7 56.8,13.4 56.9,13 C56.9,12.6 57,12.3 57.2,12.1 C57.4,11.9 57.6,11.7 57.9,11.5 C58.2,11.3 58.6,11.2 59.1,11.1 L61.3,10.9 C61.8,10.8 62.2,10.9 62.6,11 C63,11.1 63.2,11.2 63.4,11.4 C63.6,11.6 63.8,11.8 63.9,12.2 C64,12.6 64.1,12.9 64.2,13.1 C64.2,13.3 64.3,13.7 64.3,14.1 C64.7,18 65,20.2 65,20.9 C65.1,21.5 65.2,21.9 65.3,21.8 C65.7,21.8 66,21.3 66.4,20.4 C66.7,19.5 67,18.5 67.3,17.2 C67.5,15.9 67.7,15.3 67.7,15.2 C67.8,14.8 68,14.2 68.1,13.6 C68.3,12.9 68.4,12.5 68.5,12.2 C68.6,11.9 68.7,11.6 68.9,11.2 C69.1,10.8 69.2,10.5 69.4,10.4 C69.6,10.2 69.8,10.1 70,10 C70.3,9.9 70.6,9.8 71,9.7 L73.5,9.4 C74.1,9.3 74.6,9.3 74.9,9.3 C75.2,9.3 75.5,9.4 75.8,9.5 C76.1,9.7 76.3,9.9 76.3,10.3 C76.4,10.9 76.2,11.7 75.8,12.7 C75.5,13.5 75,14.8 74.3,16.6 C73.6,18.4 73,19.9 72.4,21.2 C71.9,22.5 71.6,23.2 71.6,23.3 C71.6,23.6 71.8,24 72.2,24.6 L72.2,24.6 Z" id="Shape"></path>
                    <path d="M94.7,10.9 L95.3,16.4 C95.4,17.6 95.6,18.3 95.8,18.5 C96,18.7 96.7,18.7 97.9,18.6 C99.1,18.5 99.8,18.3 100,18.1 C100.2,17.9 100.2,17.2 100.1,16.1 L99.5,10.5 C99.5,10 99.4,9.7 99.4,9.4 C99.4,9.2 99.4,8.9 99.5,8.5 C99.5,8.1 99.6,7.8 99.8,7.6 C100,7.4 100.2,7.2 100.5,7 C100.8,6.8 101.3,6.7 101.7,6.6 L103.9,6.4 C104.4,6.3 104.8,6.4 105.2,6.5 C105.6,6.6 105.8,6.7 106,6.9 C106.2,7.1 106.4,7.3 106.5,7.7 C106.6,8.1 106.7,8.4 106.8,8.6 C106.8,8.8 106.9,9.2 106.9,9.6 L109.5,33.7 C109.5,34.2 109.6,34.5 109.6,34.8 C109.6,35 109.6,35.3 109.5,35.7 C109.5,36.1 109.4,36.4 109.2,36.6 C109,36.8 108.8,37 108.5,37.2 C108.2,37.4 107.7,37.5 107.3,37.6 L105.1,37.8 C104.6,37.9 104.2,37.8 103.8,37.7 C103.4,37.6 103.2,37.5 103,37.3 C102.8,37.1 102.6,36.9 102.5,36.5 C102.4,36.1 102.3,35.8 102.2,35.6 C102.2,35.4 102.1,35 102.1,34.6 L101.4,28 C101.2,26.6 101,25.7 100.7,25.4 C100.4,25.1 99.7,25 98.6,25.2 L98.1,25.3 C97.3,25.4 96.8,25.5 96.6,25.8 C96.4,26 96.3,26.7 96.4,27.7 L96.5,28.5 L97.2,35.1 C97.3,35.6 97.3,35.9 97.3,36.2 C97.3,36.4 97.3,36.7 97.2,37.1 C97.2,37.5 97.1,37.8 96.9,38 C96.7,38.2 96.5,38.4 96.2,38.6 C95.9,38.8 95.4,38.9 95,39 L92.8,39.2 C92.3,39.3 91.9,39.2 91.5,39.1 C91.1,39 90.9,38.9 90.7,38.7 C90.5,38.5 90.3,38.3 90.2,37.9 C90.1,37.5 90,37.2 89.9,37 C89.9,36.8 89.8,36.4 89.8,36 L87.2,11.9 C87.2,11.4 87.1,11.1 87.1,10.8 C87.1,10.6 87.1,10.3 87.2,9.9 C87.2,9.5 87.3,9.2 87.5,9 C87.7,8.8 87.9,8.6 88.2,8.4 C88.5,8.2 88.9,8.1 89.4,8 L91.6,7.8 C92.1,7.7 92.5,7.8 92.9,7.9 C93.3,8 93.5,8.1 93.7,8.3 C93.9,8.5 94.1,8.7 94.2,9.1 C94.3,9.5 94.4,9.8 94.5,10 C94.6,10.1 94.7,10.4 94.7,10.9 L94.7,10.9 Z" id="Shape"></path>
                    <path d="M117.8,25.1 L118.1,28.2 C118.2,28.7 118.4,29 118.8,29.2 C119.2,29.4 119.6,29.5 120.1,29.4 C121.1,29.3 122,29.2 122.8,29.1 C123.6,29 124.2,28.9 124.3,28.9 C125.2,28.8 125.8,28.9 126.2,29.1 C126.6,29.3 126.8,29.8 126.9,30.5 L127.2,33.6 C127.3,34.2 127.2,34.7 127,35 C126.8,35.3 126.3,35.5 125.7,35.5 L114.1,36.7 C112.3,36.9 111.3,35.8 111.1,33.5 L108.5,9.4 C108.5,8.9 108.4,8.6 108.4,8.3 C108.4,8.1 108.4,7.8 108.5,7.4 C108.5,7 108.6,6.7 108.8,6.5 C109,6.3 109.2,6.1 109.5,5.9 C109.8,5.7 110.2,5.6 110.7,5.5 L122,4.3 C122.6,4.2 123.1,4.3 123.5,4.5 C123.9,4.7 124.2,5 124.2,5.4 L124.6,9.1 C124.7,9.6 124.5,9.9 124.2,10 C123.9,10.2 123.4,10.3 122.7,10.4 C122.1,10.5 121.3,10.5 120.4,10.6 C119.5,10.7 118.9,10.7 118.5,10.8 C117.9,10.9 117.5,11 117.1,11.1 C116.8,11.2 116.6,11.4 116.4,11.7 C116.3,12 116.2,12.2 116.2,12.4 C116.2,12.6 116.2,12.9 116.3,13.4 C116.4,14.3 116.5,14.9 116.5,15.2 C116.6,15.5 116.7,15.9 116.8,16.2 C117,16.5 117.2,16.7 117.5,16.8 C117.8,16.9 118.2,16.9 118.8,16.8 C119.9,16.7 120.8,16.6 121.5,16.5 C122.3,16.4 122.7,16.3 122.9,16.3 C124,16.2 124.6,16.8 124.7,18.1 L125,20.9 C125,21.3 125,21.6 124.8,21.9 C124.6,22.1 124.4,22.3 124.2,22.4 C124,22.5 123.6,22.5 123.2,22.6 C122.4,22.7 121.4,22.8 120.4,22.9 C119.4,23 118.8,23 118.6,23 C118.1,23.1 117.8,23.2 117.6,23.3 C117.4,23.5 117.3,23.7 117.3,23.9 C117.7,24.1 117.7,24.5 117.8,25.1 L117.8,25.1 Z" id="Shape"></path>
                    <path d="M128.3,3.7 L136.8,2.8 C142.4,2.2 145.5,5.2 146.2,11.8 C146.3,13.1 146.4,14.1 146.4,14.7 C146.4,15.3 146.2,16.1 146,16.9 C145.7,17.7 145.2,18.5 144.5,19.3 C144.2,19.6 143.9,19.8 143.5,20 C143.1,20.2 142.9,20.4 142.8,20.6 C142.7,20.8 142.7,21.1 142.7,21.6 C142.8,22.6 143.1,23.5 143.5,24.3 C143.9,25.1 144.5,25.4 145.1,25.4 C145.3,25.4 145.6,25.3 145.8,25.3 C146,25.2 146.2,25.2 146.3,25.1 C146.4,25 146.5,25 146.5,25 C147.1,24.9 147.6,25.1 147.9,25.6 C148.2,26.1 148.4,26.9 148.5,28 C148.5,28.3 148.6,28.8 148.6,29.6 C148.7,30.4 148.7,31 148.8,31.5 C148.9,32 148.7,32.5 148.4,32.8 C148.1,33.1 147.4,33.3 146.3,33.5 C144.4,33.7 142.9,33.3 141.6,32.2 C140.3,31.2 139.4,29.8 138.7,28 C138.2,26.8 137.8,25.8 137.3,25.1 C136.8,24.4 136.4,23.9 136.2,23.7 C135.9,23.5 135.7,23.5 135.6,23.5 C135.4,23.5 135.3,23.9 135.4,24.6 L136.1,30.8 C136.2,31.3 136.2,31.6 136.2,31.9 C136.2,32.1 136.2,32.4 136.1,32.8 C136.1,33.2 136,33.5 135.8,33.7 C135.6,33.9 135.4,34.1 135.1,34.3 C134.8,34.5 134.3,34.6 133.9,34.7 L130.8,35 C130.4,35 130,35 129.8,34.8 C129.5,34.7 129.3,34.4 129.2,34 C129.1,33.6 129,33.3 128.9,33 C128.9,32.7 128.8,32.3 128.7,31.7 L126.1,7.6 C126.1,7.1 126,6.8 126,6.5 C126,6.3 126,6 126.1,5.6 C126.1,5.2 126.2,4.9 126.4,4.7 C126.6,4.5 126.8,4.3 127.1,4.1 C127.4,3.9 127.8,3.8 128.3,3.7 L128.3,3.7 Z M135.7,8.9 C134.8,9 134.3,9.2 134.1,9.4 C133.9,9.7 133.8,10.2 133.9,11 C133.9,11.2 134,11.5 134,12.1 C134.1,12.7 134.1,13.1 134.2,13.5 C134.2,13.8 134.3,14.2 134.3,14.7 C134.3,15.2 134.4,15.5 134.4,15.7 C134.5,16.4 134.6,16.9 134.9,17.1 C135.2,17.3 135.7,17.3 136.6,17.2 C138.2,17 138.9,15.6 138.6,13 C138.2,10.1 137.3,8.8 135.7,8.9 L135.7,8.9 Z" id="Shape"></path>
                    <path d="M156.4,21 L156.7,24.1 C156.8,24.6 157,24.9 157.4,25.1 C157.8,25.3 158.2,25.4 158.7,25.3 C159.7,25.2 160.6,25.1 161.4,25 C162.2,24.9 162.8,24.8 162.9,24.8 C163.8,24.7 164.4,24.8 164.8,25 C165.2,25.2 165.4,25.7 165.5,26.4 L165.8,29.5 C165.9,30.1 165.8,30.6 165.6,30.9 C165.4,31.2 164.9,31.4 164.3,31.4 L152.7,32.6 C150.9,32.8 149.9,31.7 149.7,29.4 L147.1,5.3 C147.1,4.8 147,4.5 147,4.2 C147,4 147,3.7 147.1,3.3 C147.1,2.9 147.2,2.6 147.4,2.4 C147.6,2.2 147.8,2 148.1,1.8 C148.4,1.6 148.9,1.5 149.3,1.4 L160.6,0.2 C161.2,0.1 161.7,0.2 162.1,0.4 C162.5,0.6 162.8,0.9 162.8,1.3 L163.2,5 C163.3,5.5 163.1,5.8 162.8,5.9 C162.5,6.1 162,6.2 161.3,6.3 C160.7,6.4 159.9,6.4 159,6.5 C158.1,6.6 157.5,6.6 157.1,6.7 C156.5,6.8 156.1,6.9 155.7,7 C155.4,7.1 155.2,7.3 155,7.6 C154.9,7.9 154.8,8.1 154.8,8.3 C154.8,8.5 154.8,8.8 154.9,9.3 C155,10.2 155.1,10.8 155.1,11.1 C155.2,11.4 155.3,11.8 155.4,12.1 C155.6,12.4 155.8,12.6 156.1,12.7 C156.4,12.8 156.8,12.8 157.4,12.7 C158.5,12.6 159.4,12.5 160.1,12.4 C160.9,12.3 161.3,12.2 161.5,12.2 C162.6,12.1 163.2,12.7 163.3,14 L163.6,16.8 C163.6,17.2 163.6,17.5 163.4,17.8 C163.2,18 163,18.2 162.8,18.3 C162.6,18.4 162.2,18.4 161.8,18.5 C161,18.6 160,18.7 159,18.8 C158,18.9 157.4,18.9 157.2,18.9 C156.7,19 156.4,19.1 156.2,19.2 C156,19.4 155.9,19.6 155.9,19.8 C156.4,20 156.4,20.4 156.4,21 L156.4,21 Z" id="Shape"></path>
                </g>
            </g>
        </g>
    </g>
</svg>