<?xml version="1.0" encoding="UTF-8" standalone="no"?>
<svg width="238px" height="55px" viewBox="0 0 238 55" version="1.1" xmlns="http://www.w3.org/2000/svg" xmlns:xlink="http://www.w3.org/1999/xlink">
    <!-- Generator: Sketch 3.8.3 (29802) - http://www.bohemiancoding.com/sketch -->
    <title>Brewing Animation Film (4)</title>
    <desc>Created with Sketch.</desc>
    <defs></defs>
    <g id="Page-1" stroke="none" stroke-width="1" fill="none" fill-rule="evenodd">
        <g id="Brewing-Animation-Film-(4)">
            <g id="Brewing_machines">
                <path d="M146.5,46.3 C132.4,49.1 131.7,42.3 117.4,42.3 C103,42.3 103,46.3 88.6,46.3 C74.2,46.3 74.2,42.3 59.9,42.3 C45.5,42.3 45.5,46.3 31.1,46.3 C16.7,46.3 16.8,45.1 2.7,42.3 C-0.1,41.8 0.3,41.4 0.3,38.6 C0.3,35.8 4.3,35.8 4.3,33 C4.3,30.2 0.3,30.2 0.3,27.3 C0.3,24.5 4.3,24.5 4.3,21.6 C4.3,18.7 -0.9,14.5 1.9,14 C16,11.2 16.7,18 31,18 C45.4,18 45.4,14 59.8,14 C74.2,14 74.2,18 88.6,18 C103,18 103,14 117.4,14 C131.8,14 131.7,15.2 145.8,18 C148.6,18.5 148.2,18.9 148.2,21.7 C148.2,24.5 144.2,24.5 144.2,27.3 C144.2,30.1 148.2,30.1 148.2,33 C148.2,35.8 143.6,36.4 144.3,39.1 C145.2,43.2 149.3,45.7 146.5,46.3 L146.5,46.3 Z" id="Shape" fill="#F9DF00"></path>
                <g id="Group" transform="translate(144.000000, 17.000000)" fill="#F9DF00">
                    <path id="Shape"></path>
                    <path d="M0.8,2.6 C0.9,2.6 0.9,2.3 1,2.2 C1.1,2 1.2,1.9 1.4,1.8 C1.5,1.7 1.7,1.7 1.8,1.6 C2.3,1.2 2.8,0.8 3.3,0.5 C3.7,0.4 4.1,0.4 4.5,0.5 C6.2,1.1 6.8,1.8 8.3,2.3 C9.3,2.9 11.3,2.8 12.3,3.5 C12.8,3.6 13.2,3.9 13.8,4 C14.1,4.1 14.2,4.2 14.5,4.4 C14.6,4.4 14.6,4.3 14.6,4.3 C15.1,4.5 15.6,4.7 16.1,5 C16.2,5 16.2,4.9 16.2,4.9 C16.4,5 16.5,5.1 16.7,5.1 C18,5.6 20.1,5.6 21.4,5.6 C21.9,5.8 22.7,5.9 23.3,6.2 C24.5,6.7 25.9,7.1 27.3,7.5 C27.9,7.6 28.4,7.5 28.8,7.5 C29.3,7.5 29.8,7.5 30.3,7.6 C30.7,7.8 31,7.9 31.4,8 C31.6,8 31.7,8.1 31.6,8.4 C31.7,8.2 31.8,8.1 32,8.2 C32,8.3 31.9,8.3 31.8,8.3 C31.7,8.5 32,8.5 32.1,8.5 C32.3,8.6 32.3,8.8 32.5,8.6 C32.5,9 32.5,9 32.4,9.2 C32.4,9.3 32.5,9.3 32.6,9.3 C32.7,9.3 32.8,9.4 32.8,9.7 C32.5,9.6 32.3,9.7 31.7,9.4 L31.4,9.4 L31.5,9.4 C31.2,9.4 30.9,9.3 30.6,9.1 C30.3,9.1 29.9,8.9 29.8,9.1 C30.1,9.4 31,9.4 31.2,9.6 C31.2,10.1 31,9.5 30.8,9.8 L30.3,9.7 C30.3,10.2 30.8,9.8 30.8,10 C30.9,10.2 31.2,9.9 31.5,10.1 L31.5,10.1 L31.5,10.1 L31.3,10.1 L31.3,10.1 L31.3,10.1 L31.3,10.1 L31.3,10.1 L31.3,10.1 L31.4,10.1 L31.5,10.1 L31.7,10.1 L31.9,10.1 C32,10.1 32.1,10.1 32.2,10 C32.2,9.9 32.3,9.9 32.3,10 L32.3,10.4 C32.2,10.3 32.2,10.4 32.1,10.4 C31.9,10.4 31.8,10.5 31.2,10.4 L31.4,10.4 C31.4,10.4 31.4,10.4 31.3,10.4 C31.3,10.5 31.3,10.5 31.4,10.6 L31.2,10.6 C31.5,10.7 31.8,10.7 31.9,10.7 C32.1,10.7 32.1,10.7 32.2,11 C32.1,10.9 31.9,11 31.1,11.1 L31.4,11.1 C31.3,11.2 31.2,11.2 31.1,11.3 C30.2,11.1 29.2,11.1 28.5,11.2 C28.2,11.3 27.7,11.2 27.4,11.2 C26.5,11.3 25.5,11.1 24.5,11 C24.3,11 24.2,11.1 24,11.1 C24,11.1 23.9,11 23.8,11 C23.7,11 23.7,11.1 23.7,11.1 C23.4,11 23.1,10.8 22.8,10.8 L22,10.8 C21.8,10.8 21.5,10.7 21.4,10.7 C21.2,10.7 21.1,10.5 20.9,10.5 C19.5,10.1 18,10 16.7,9.6 C16,9.4 15,9.1 14.2,8.8 C13.5,8.9 12.6,8.2 12.1,8.3 C11.4,7.8 10.4,8 10,7.5 C8.6,7.6 7.3,6.5 6.3,6.5 C6,6.1 5.3,6.4 5.1,5.9 C5,5.9 4.8,6.1 4.7,6.2 C4.4,6 4,6.1 3.5,5.9 C3.3,5.8 3.3,6 3.2,5.9 C2.7,5.8 2.3,5.6 1.9,5.5 C1.6,5.3 1.4,5 1.1,4.8 C1.1,4.7 1,4.7 1,4.7 C1,4 0.6,3.5 0.8,2.6 L0.8,2.6 Z" id="Shape"></path>
                </g>
                <g id="Group" transform="translate(142.000000, 37.000000)" fill="#F9DF00">
                    <path id="Shape"></path>
                    <path d="M0.5,3.9 C0.6,3.9 0.5,3.6 0.5,3.4 C0.6,2.9 0.7,2.8 0.9,2.7 C1.1,2.1 1.4,1.6 1.7,1.2 C2,1 2.2,0.9 2.5,0.9 C3.8,1 4.4,1.5 5.6,1.6 C6.4,1.9 7.8,1.2 8.7,1.7 C9.1,1.6 9.4,1.8 9.9,1.8 C10.1,1.8 10.2,1.9 10.5,2 C10.6,2 10.6,1.9 10.6,1.9 C11,1.9 11.4,2 11.8,2.2 L11.8,2.1 C11.9,2.1 12.1,2.2 12.2,2.2 C13.2,2.3 14.7,1.8 15.7,1.5 C16.1,1.6 16.7,1.5 17.2,1.6 C18.2,1.8 19.3,2 20.4,2.3 C21.3,2.3 21.7,2 22.6,2 C22.9,2.1 23.2,2.2 23.5,2.2 C23.6,2.2 23.7,2.2 23.7,2.6 C23.7,2.4 23.8,2.3 24,2.4 C24,2.5 23.9,2.5 23.9,2.5 C23.8,2.7 24.1,2.7 24.1,2.7 C24.2,2.8 24.3,3 24.4,2.8 C24.4,3.2 24.5,3.2 24.4,3.4 C24.4,3.7 24.9,3.2 24.9,3.7 C24.6,3.7 24.3,3.8 24,3.6 C23.8,3.7 23.5,3.7 23.2,3.5 C23,3.6 22.7,3.4 22.6,3.6 C22.9,3.8 23.5,3.8 23.6,3.9 C23.7,4.4 23.4,3.8 23.4,4.2 L23,4.2 C23.1,4.7 23.3,4.2 23.4,4.4 C23.5,4.6 23.7,4.3 23.8,4.4 C24,4.5 24,4.5 24.2,4.4 C24.3,4.3 24.5,4.4 24.5,4.8 C24.2,4.7 24.1,4.8 23.7,4.8 C23.8,5.3 24.1,4.7 24.2,5.3 C24.1,5.1 23.8,5.3 23.7,5.7 C23.2,5.6 22.5,5.8 21.9,6 C21.6,6.1 21.3,6.1 21.1,6.2 C20.4,6.4 19.8,6.3 19.1,6.4 C19,6.4 18.9,6.5 18.8,6.5 L18.7,6.4 L18.6,6.5 C18.4,6.5 18.2,6.3 18,6.3 C17.8,6.3 17.6,6.4 17.5,6.5 L17,6.5 C16.9,6.6 16.7,6.4 16.6,6.4 C15.5,6.4 14.5,6.7 13.5,6.6 C13,6.5 12.2,6.6 11.6,6.4 C11.2,6.6 10.3,6.2 10,6.4 C9.4,6.1 8.7,6.6 8.4,6.2 C7.5,6.6 6.3,5.9 5.6,6.2 C5.3,5.9 4.9,6.4 4.6,5.9 C4.5,6 4.5,6.2 4.4,6.3 C4.1,6.2 3.9,6.4 3.5,6.4 C3.4,6.3 3.4,6.6 3.3,6.5 C2.9,6.6 2.6,6.5 2.3,6.5 C2.1,6.4 1.8,6.2 1.6,6.1 C1.6,6 1.5,6 1.5,6 C1,5.3 0.6,4.8 0.5,3.9 L0.5,3.9 Z" id="Shape"></path>
                </g>
                <g id="XMLID_18_" transform="translate(162.000000, 0.000000)">
                    <g id="Group">
                        <path d="M70,32.8 C67.9,32.2 66.3,35.6 68.6,35.6 C69.8,35.6 72.3,33.5 70,32.8 L70,32.8 L70,32.8 L70,32.8 L70,32.8 Z M70.4,29.1 C74.9,31 73.6,35.9 72.4,37.5 L72.4,37.5 C71.7,38.5 71.3,39.2 70.1,39.7 C69.3,40.1 66.4,41.1 65.3,37.7 C64.9,36.7 64.4,34.8 64.6,33.5 C65,30.9 67.8,28 70.4,29.1 L70.4,29.1 Z" id="Shape" fill="#F9DF00"></path>
                        <path d="M70.1,32.8 C72.3,33.5 69.8,35.6 68.6,35.6 C66.4,35.6 67.9,32.2 70.1,32.8 C70,32.8 70,32.8 70.1,32.8 L70.1,32.8 L70.1,32.8 L70.1,32.8 Z" id="Shape" fill="#CA447F"></path>
                        <path d="M61.6,29.8 C63.5,30.3 63.4,30.3 62.7,31.9 C62.7,31.9 62.7,31.9 62.7,32 C62.7,32.1 62.6,32.1 62.6,32.2 C61.9,33.7 58.4,33.7 59.5,31.6 C60.1,30.3 60.1,29.4 61.6,29.8 L61.6,29.8 Z" id="Shape" fill="#F9DF00"></path>
                        <path d="M62.6,38.2 C61.4,39 59.8,39.7 58.5,40.1 C57.2,40.5 53.1,41 52,41.2 C50.1,41.4 47.2,41.4 45.3,41 C45.6,40.4 48,36.9 48.5,36.9 C49.4,37 53.7,36.6 54.5,36.4 C55.4,36.2 56.9,36 57.5,35.1 C58.2,34.1 59.5,34.8 60.2,34.9 C60.9,35 62.2,35.2 62.5,35.8 C62.8,36.4 63.4,37.6 62.7,38.1 L62.7,38.1 C62.7,38.2 62.7,38.2 62.6,38.2 L62.6,38.2 L62.6,38.2 Z" id="Shape" fill="#F9DF00"></path>
                        <path d="M48.5,30.2 C50,30.3 49.6,30.6 49,31.8 C47.8,34 46,36 44.5,38.1 L44.5,38.1 C44.5,38.1 44.5,38.2 44.4,38.2 L44.4,38.2 L44.4,38.2 L44.4,38.2 C42.8,40.5 40.8,42.5 39.1,44.7 C37,47.3 35,49.9 32.3,51.8 C29.2,53.9 30.7,48.2 31.1,46.9 C31.9,43.5 32.6,40 33.3,36.5 C33.6,35.2 34,33.9 34.4,32.6 C34.8,31.1 34.9,31 35.9,30.3 C37.8,29 41.5,29.9 43.9,30.1 C45.3,30.4 46.9,30.2 48.5,30.2 L48.5,30.2 Z" id="Shape" fill="#CA447F"></path>
                        <path id="Shape" fill="#CA447F"></path>
                        <path d="M42.4,22.8 C42,22.8 39,22.8 39.2,22.6 C39.3,22.5 39.4,22.4 39.4,22.3 C41.4,20 43.8,18.2 45.8,15.9 C47.7,13.7 49.6,11.5 51.6,9.3 C52.5,8.3 53.5,7.2 54.6,6.1 C56,4.7 57.6,3.4 59.2,2.8 C60.4,2.4 59.1,7.7 58.9,8.3 C58.4,9.6 57.9,11.1 57.5,12.3 C56.6,14.9 55.3,17.3 54.2,19.9 C53.8,21 53.4,22.3 52.2,22.5 C51,22.7 49.7,22.9 48.5,22.9 L47.5,22.9 C45.7,22.7 44.1,22.7 42.4,22.8 L42.4,22.8 Z" id="Shape" fill="#CA447F"></path>
                        <path d="M65.3,37.8 C66.5,41.2 69.3,40.2 70.1,39.8 C71.3,39.2 71.6,38.6 72.4,37.6 L72.4,37.6 C73.6,36 74.9,31.1 70.4,29.2 C67.8,28.1 65,31 64.6,33.6 C64.5,34.8 65,36.7 65.3,37.8 L65.3,37.8 Z M44.3,38.3 L44.3,38.3 L44.3,38.3 C44.4,38.2 44.4,38.2 44.3,38.3 L44.4,38.2 L44.4,38.2 C45.9,36.1 47.8,34.1 48.9,31.9 C49.5,30.7 49.9,30.4 48.4,30.3 C46.8,30.3 45.2,30.4 43.7,30.3 C41.3,30.1 37.6,29.2 35.7,30.5 C34.7,31.2 34.7,31.3 34.2,32.8 C33.8,34.1 33.4,35.4 33.1,36.7 C32.4,40.1 31.7,43.7 30.9,47.1 C30.6,48.4 29.1,54.1 32.1,52 C34.8,50.1 36.8,47.5 38.9,44.9 C40.8,42.6 42.7,40.6 44.3,38.3 L44.3,38.3 Z M59.5,31.5 C58.4,33.6 61.9,33.6 62.6,32.1 C62.6,32 62.7,32 62.7,31.9 C62.7,31.9 62.7,31.9 62.7,31.8 C63.4,30.2 63.5,30.2 61.6,29.7 C60.1,29.4 60.1,30.3 59.5,31.5 L59.5,31.5 Z M52,41.2 C53.1,41.1 57.2,40.5 58.5,40.1 C59.8,39.7 61.4,38.9 62.6,38.2 L62.7,38.2 C62.7,38.2 62.8,38.2 62.8,38.1 L62.8,38.1 C63.5,37.6 62.8,36.5 62.6,35.8 C62.3,35.2 61.1,35 60.3,34.9 C59.6,34.8 58.2,34.2 57.6,35.1 C57,36 55.5,36.2 54.6,36.4 C53.8,36.6 49.5,36.9 48.6,36.9 C48.1,36.8 45.7,40.4 45.4,41 C47.2,41.4 50.1,41.5 52,41.2 L52,41.2 Z M53.2,25 C53.4,24.4 53.3,24.5 52.1,24.5 C51.3,24.5 49.8,24.6 48.4,24.6 L48.4,22.8 C49.6,22.8 50.9,22.6 52.1,22.4 C53.3,22.2 53.7,20.8 54.1,19.8 C55.2,17.3 56.5,14.8 57.4,12.2 C57.8,11.1 58.4,9.5 58.8,8.2 C59,7.6 60.2,2.3 59.1,2.7 C57.5,3.3 55.9,4.6 54.5,6 L53,4.6 C53.7,3.9 54.4,3.3 55.1,2.6 C56.6,1.2 57.7,0.1 59.9,0.2 C61.4,0.3 62,3.1 61.9,4.3 C61.5,8.9 59.3,13.5 57.6,17.7 C56.9,19.4 56.1,21.1 55.3,22.8 C55.4,22.8 58.8,24.6 59.3,25.1 C59.9,25.7 60.3,26.8 60.9,27.3 C61.6,27.9 63,27.9 63.9,28 C65.8,28.3 67.4,26.8 69.3,26.8 C74,26.9 75.1,30.2 75.3,34.4 C75.3,35.2 75.3,36.7 74.9,37.4 C73.7,39.5 71.9,42.5 69,42.2 C67.1,42 65.5,41.6 64.2,40.2 C63.9,39.8 61.2,41.4 60.6,41.7 C57.1,43.8 52.3,43.4 48.4,43.4 C47.5,43.4 43.8,42.8 43.2,43.5 C42,45 40.4,46.5 39.3,48.1 C38.3,49.6 32.9,55.6 29.2,55 C27.6,54.7 27.2,54.1 27.6,51.2 C28,49.1 28.3,46.9 28.8,44.8 C29.2,43 29.4,42.9 27.6,42.4 C24,41.4 20.1,40.9 16.3,40.6 C15.9,40.6 15.2,40.5 14.5,40.4 L14.7,38.4 C16.9,38.6 20.9,38.7 21.6,38.8 C23.4,39 25.4,39.6 27.2,40 C27.9,40.1 28.9,40.7 29.6,40.7 L29.7,40.7 C30.2,40.6 31.2,34.6 31.5,33.7 C32,32 33.4,27.5 35.9,27.5 C40.2,27.4 51.3,28.2 51.4,28 C52.1,27.1 52.8,26.2 53.2,25 L53.2,25 Z M49.9,34.5 C50.9,34.7 54.5,34.5 55.5,33.7 C56.5,32.9 53.6,31.9 52.3,31.6 C51.5,31.4 50,34.1 49.9,34.5 L49.9,34.5 Z M55.2,26.7 C55,27 53.4,29.7 53.9,30 C54.5,30.3 55.5,30.7 56.2,31.2 C56.4,31.3 56.7,31.3 56.8,31.1 C57.1,30.3 57.7,28.7 57.9,27.9 C58,27.6 57.6,27.3 57.5,27.2 C56.2,26.3 55.7,25.8 55.2,26.7 L55.2,26.7 Z" id="Shape" fill="#CA447F"></path>
                        <path d="M42.4,22.8 C44.1,22.7 45.7,22.8 47.4,22.9 L48.4,22.9 L48.4,24.7 C47,24.7 45.8,24.8 45.6,24.8 C43.7,24.8 41.9,24.6 38.3,25 C35.6,25.3 36.4,25.6 33.9,26.5 C28.3,28.6 22.1,29.1 16.2,28.8 C12.9,28.6 7.5,20.2 4.6,22.8 C1.8,25.3 5.6,32.3 6.3,32.3 C7.3,32.3 8.4,32.1 9.5,32 C11,31.9 16.3,31.6 16.1,33.5 C16,34.6 13.5,37.5 13.5,38.1 C13.5,38.3 14.1,38.4 14.9,38.5 L14.7,40.5 C13.3,40.3 11.5,40.2 10.8,40.9 C9.7,41.9 5.4,45.6 3.7,45.3 C1.4,44.9 -0.1,42.6 1,40.3 C1.8,38.5 2.7,36.7 3.7,35 C4.6,33.6 2.9,31.5 2.3,30.1 C0.9,26.7 0.6,21.3 5,20.1 C7.9,19.3 11,23.1 13,24.3 C13.7,24.7 16.1,22.4 16.8,22 C17.8,21.4 19.4,20.3 20.6,20.6 C24,21.3 22.5,24.7 22.7,26.6 C22.7,26.5 28.7,25.8 29.4,25.7 C30.9,25.4 34.6,24.7 36.9,22 C38.1,20.6 39.3,19.3 40.7,18.1 C43.1,16 44.9,13.4 47.1,11 C49.1,8.9 51.1,6.9 53.2,4.9 L54.7,6.3 C53.6,7.4 52.6,8.5 51.7,9.5 C49.7,11.7 47.8,13.9 45.9,16.1 C43.9,18.4 41.5,20.2 39.5,22.5 C39.4,22.6 39.3,22.7 39.3,22.8 C39,22.8 42,22.8 42.4,22.8 L42.4,22.8 Z" id="Shape" fill="#CA447F"></path>
                    </g>
                </g>
            </g>
        </g>
    </g>
</svg>