<?xml version="1.0" encoding="UTF-8" standalone="no"?>
<svg width="140px" height="126px" viewBox="0 0 140 126" version="1.1" xmlns="http://www.w3.org/2000/svg" xmlns:xlink="http://www.w3.org/1999/xlink">
    <!-- Generator: Sketch 3.7.2 (28276) - http://www.bohemiancoding.com/sketch -->
    <title>Shape</title>
    <desc>Created with Sketch.</desc>
    <defs></defs>
    <g id="Page-1" stroke="none" stroke-width="1" fill="none" fill-rule="evenodd">
        <g id="boil-tank" transform="translate(1.000000, 1.000000)" stroke="#3A3025" stroke-width="2.25">
            <path d="M137.8,111.1 C137.4,117.4 136.5,118.7 129.6,119.2 C110,120.5 90.4,121.7 71.2,122.9 C51,121.8 31.2,120.8 11.4,119.5 C1.5,118.9 0.9,118.2 0.9,108.6 C0.9,92.3 0.8,76 1,59.6 C1.1,46.2 5.6,40.2 18.3,35.4 C19.8,34.8 21.8,34 22.3,32.7 C26,23.9 35.2,25 41.8,21.4 C42.4,21.1 43.6,21.2 44.2,21.7 C46.8,23.7 49.5,24.5 51.8,21.8 C54.5,18.6 58,15.2 58.6,11.5 C60.3,1 59.8,1 70.4,1 L74.9,1 C78.5,0.9 79.4,2.7 79.9,6.2 C80.9,13.3 85.6,22.7 94.9,26.1 C104.1,29.4 113.3,32.8 122.5,36 C131.1,39 137.4,47.7 137.7,57.5 C137.9,62.5 137.7,67.5 137.8,72.5 L137.8,111.1 L137.8,111.1 Z" id="Shape"></path>
        </g>
    </g>
</svg>