<?xml version="1.0" encoding="utf-8"?>
<svg version="1.1" id="Layer_1" xmlns="http://www.w3.org/2000/svg" xmlns:xlink="http://www.w3.org/1999/xlink" x="0px" y="0px"
	 width="119.5px" height="99px" viewBox="0 0 119.5 99" enable-background="new 0 0 119.5 99" xml:space="preserve">
<path fill="#4D509B" d="M54.813,83.576c-0.921,0.076-6.568,3.42-6.573,3.699c0.055-3.023,3.658-7.556-0.069-9.976
	c-5.416-3.517-5.348,7.882-6.949,7.018c-0.453-0.244,0.585-3.579,0.626-4.079c0.159-1.955-0.163-4.471-1.297-6.112
	c-1.237-1.793-3.116-1.268-4.237,0.353c-1.092,1.579-0.477,3.2-0.501,4.941c-0.058,4.018-2.084,8.432-4.159,11.779
	c-1.139,1.839-2.538,3.568-4.317,4.824c-0.517,0.365-2.893,1.508-0.885,1.656c3.757,0.279,7.867-0.209,11.646-0.355
	c4.009-0.153,8.2-0.436,12.058-1.602c3.865-1.168,7.742-3.76,8.901-7.859C59.865,84.996,57.449,83.357,54.813,83.576
	C53.233,83.707,57.464,83.355,54.813,83.576z"/>
<g>
	<g id="XMLID_1_">
		<g>
			<path fill="#F8DC28" d="M108.8,27.66c12.7,5.07,8.88,20.109,3.36,33.13c-4.41,10.39-10.83,26.62-24.69,32.41
				C74.94,98.44,64.35,88.6,56.05,85.17C40.88,78.9,21.03,78.7,9.81,68.41C-1.55,58,3.8,44.91,12.12,29.89
				c5.46-9.87,8.95-25.43,25.01-26.5C64.81,1.56,76.2,15.03,97.52,23.14C99,23.71,108.8,27.66,108.8,27.66z M103.45,65.17
				c5.069-12.13,6.99-20.07,6.05-26.35c-0.31-2.1-1.66-3.25-4.63-2.72c-4.58,0.82-11.68,9.63-14.12,12.89
				c-4.24,5.66-7.79,12.42-10,18.33c-1.12,2.96-2.11,5.35-2.73,8.52c-0.569,2.97-2.289,15.22,5.131,14.15
				C90.58,88.93,99.79,73.91,103.45,65.17z"/>
			<path fill="#FF8338" d="M109.5,38.82c0.94,6.28-0.98,14.22-6.05,26.35c-3.66,8.74-12.87,23.76-20.3,24.82
				c-7.42,1.069-5.7-11.181-5.131-14.15c0.62-3.17,1.61-5.56,2.73-8.52c2.21-5.91,5.76-12.67,10-18.33
				c2.44-3.26,9.54-12.07,14.12-12.89C107.84,35.57,109.19,36.72,109.5,38.82z"/>
		</g>
		<g>
		</g>
	</g>
</g>
<path fill="#FF8338" d="M68.624,87.243c-6.999-4.743-15.882-8.765-22.525-10.774c-3.368-1.02-17.861-5.127-21.695-6.477
	c-6.265-2.207-11.487-3.117-14.258-9.68c-2.967-7.027,2.72-11.553,5.341-17.758c1.347-3.188,1.915-7.061,3.811-9.964
	c1.531-2.345,3.423-2.309,2.854,0.752c-0.807,4.336-3.959,8.008-5.094,12.328c-0.411,1.563-1.353,5.106,0.772,5.95
	c2.218,0.883,2.813-4.029,5.04-2.672c7.821,4.768,10.019-12.56,12.262-10.629s-0.28,9.075-1.8,12.264
	c-0.815,1.711-6.087,16.477-0.707,14.916c1.982-0.576,5.751-10.953,8.149-9.918c2.314,1,3.642,9.046,4.601,10.918
	c5.25,10.25,12.647,7.367,21.574,14.559C75.875,88.25,75.623,91.986,68.624,87.243z"/>
<path fill="#4D509B" d="M29.917,73.342c-1.689,1.863-4.403,0.723-6.283-0.145c-2.797-1.291-5.957-1.559-8.981-0.793
	c-1.123,0.283-2.188,0.76-3.194,1.328c-1.163,0.657-2.063,2.057-3.285,2.517c-1.616,0.608,1.775-6.288,2.043-6.873
	c2.709-5.895,4.939-11.726,8.563-17.101c1.355-2.012,4.396-3.246,4.923-0.059c0.469,2.837-1.747,4.719-2.052,7.242
	c2.599-0.598,8.598-5.796,10.938-1.852c2.418,4.075-6.45,6.176-8.369,7.676C27.555,67.222,33.657,69.215,29.917,73.342
	C28.237,75.193,30.137,73.101,29.917,73.342z"/>
<path fill="#FF8338" d="M67.2,21.818c-0.646-0.046-16.148-3.479-13.899-5.893c1.257-1.35,7.883,1.758,9.338,1.995
	c4.332,0.706,8.105,1.523,12.373,2.66c3.793,1.01,8.482,2.717,11.816,4.804C88.846,26.647,77.244,22.54,67.2,21.818z"/>
<path fill="#FF8338" d="M38.21,12.96c-4.496,2.79-11.258,13.497-12.172,10.269s9.795-11.395,14.712-13.377
	c3.915-1.578,7.533-2.653,11.771-1.932c1.672,0.285,9.372,0.251,7.635,4.378C51.916,8.583,42.668,10.194,38.21,12.96z"/>
<path fill="#FF8338" d="M96.875,33.5c-8.38,4.222-15.273,11.213-21.254,18.381c-3.396,4.069-5.186,8.258-6.959,13.179
	c-0.479,1.328-4.259,9.275-4.973,3.584c-1.161-9.267,6.422-15.335,12.574-21.254c3.631-3.493,7.674-6.442,11.439-9.769
	c3.992-3.526,8.106-4.177,13.172-5.121C99.541,32.833,98.209,33.167,96.875,33.5z"/>
</svg>
