<?xml version="1.0" encoding="UTF-8" standalone="no"?>
<svg width="32px" height="32px" viewBox="0 0 32 32" version="1.1" xmlns="http://www.w3.org/2000/svg" xmlns:xlink="http://www.w3.org/1999/xlink">
    <!-- Generator: Sketch 3.7.2 (28276) - http://www.bohemiancoding.com/sketch -->
    <title>hop</title>
    <desc>Created with Sketch.</desc>
    <defs></defs>
    <g id="Page-1" stroke="none" stroke-width="1" fill="none" fill-rule="evenodd">
        <g id="Boiling_assets" transform="translate(-142.000000, -138.000000)" fill="#A3D01A">
            <g id="hop" transform="translate(142.000000, 138.000000)">
                <path d="M30.5,26 C30.1,24.9 29.5,24 28.9,23.3 C27.7,23.6 25.5,23.8 23.3,23.5 C23.6,25.5 23.4,27.5 23.1,28.8 C23.7,29.4 24.6,29.9 25.6,30.4 C27.7,31.4 29.4,31.4 30.3,30.5 C31.2,29.5 31.3,27.8 30.5,26 L30.5,26 Z" id="Shape"></path>
                <path d="M5,7 L6.7,5.3 C6.7,5.2 5.3,5 4.8,4.6 C4.2,4.1 4,3.4 4,2.6 C4,1.7 3.8,1.1 3.5,1 C3.1,0.8 2.4,1.2 1.7,1.8 C1,2.5 0.6,3.4 0.8,3.9 C0.9,4.2 1.5,4.4 2.3,4.4 C3.1,4.4 3.8,4.7 4.3,5.2 C4.6,5.7 4.8,7 5,7 L5,7 Z" id="Shape"></path>
                <path d="M22.1,23.3 C20.9,23 19.8,22.5 18.9,21.8 C18.5,21.5 18.3,21.2 18,20.8 C17.8,20.8 17.5,20.8 17.3,20.7 C17.7,23.2 17.3,25.9 16.8,27.4 C19.5,29.9 21.1,30.2 21.6,29.7 C21.7,29.6 21.8,29.3 21.9,29.1 C22.2,27.6 22.4,25.4 22.1,23.3 L22.1,23.3 Z" id="Shape"></path>
                <path d="M20.3,16.4 C20.4,17.1 20.5,17.8 20.5,18.2 C20.6,19.2 20.2,19.7 19.9,20 C19.7,20.2 19.5,20.3 19.3,20.4 L19.6,20.7 C21.9,22.7 26.5,22.5 28.8,21.9 C29.1,21.8 29.3,21.7 29.4,21.6 C29.9,21.1 29.6,19.4 26.7,16.4 C25,16.8 22.5,17 20.3,16.4 L20.3,16.4 Z" id="Shape"></path>
                <path d="M25.5,9.4 C25,9 24.4,8.5 23.8,8.1 C23.7,8.2 23.7,8.4 23.6,8.5 C23.6,8.6 23.5,8.6 23.4,8.7 C22.7,9.4 20.3,10 17.8,10.5 C18.8,11.8 19.5,13.5 19.9,15 C22.5,16 26.1,15.5 28.1,14.8 C28.3,14.7 28.5,14.6 28.7,14.5 C28.9,14.3 28.9,14.2 28.9,13.9 C28.9,13.4 28.5,12 25.5,9.4 L25.5,9.4 Z" id="Shape"></path>
                <path d="M15.9,20.4 C15,20.1 13.9,19.7 12.7,19.1 C11.7,18.6 10.9,18.1 10.2,17.5 C9.9,19.8 9.3,22.1 8.7,23.3 C9.1,23.9 9.5,24.5 10,25 C12.6,28 14,28.4 14.5,28.4 C14.7,28.4 14.9,28.3 15.1,28.2 C15.2,28.1 15.3,27.9 15.4,27.6 C16,25.9 16.5,22.8 15.9,20.4 L15.9,20.4 Z" id="Shape"></path>
                <path d="M13.3,17.9 C16.7,19.6 18.5,19.7 19.1,19.1 C19.3,18.9 19.4,18.6 19.3,18.2 C19.2,16.2 18.3,12.7 16.5,10.6 C14.4,10.9 12.5,11 11.8,10.9 C11.4,10.8 10.9,10.7 10.5,10.6 L10.4,10.7 C10.6,11.1 10.7,11.5 10.7,11.9 C10.8,12.5 10.7,14 10.5,15.7 C11.1,16.6 12,17.3 13.3,17.9 L13.3,17.9 Z" id="Shape"></path>
                <path d="M7.6,6.4 C8.1,8 10.2,9.6 11.9,9.8 C13.7,10 21.6,8.8 22.6,7.8 C22.9,7.4 23,7 22.9,6.6 C22.7,5.4 21.1,3.9 18.2,2 C13.9,-0.9 9.5,3 8.2,4.2 C8.1,4.3 8,4.4 8,4.4 C7.5,5 7.3,5.7 7.6,6.4 L7.6,6.4 Z" id="Shape"></path>
                <path d="M7.4,23 C8.4,22 9.6,14.1 9.4,12.3 C9.2,10.6 7.6,8.6 6,8 C5.2,7.7 4.6,7.9 4.1,8.4 L3.9,8.6 C3,9.5 -1.2,14.1 1.7,18.6 C3.6,21.5 5.1,23 6.3,23.3 C6.7,23.4 7,23.3 7.4,23 L7.4,23 Z" id="Shape"></path>
            </g>
        </g>
    </g>
</svg>