<?xml version="1.0" encoding="UTF-8" standalone="no"?>
<svg width="13px" height="13px" viewBox="0 0 13 13" version="1.1" xmlns="http://www.w3.org/2000/svg" xmlns:xlink="http://www.w3.org/1999/xlink">
    <g id="Page-1" stroke="none" stroke-width="1" fill="none" fill-rule="evenodd">
        <g id="Fermenting_assets" transform="translate(-502.000000, -276.000000)">
            <g id="Layer_1">
                <g id="cell" transform="translate(502.000000, 276.000000)">
                    <path d="M5.8,0.9 C4.3,1.3 3.4,1.5 2.2,2.8 C1,4 0.6,6.8 1.3,8.3 C2.9,12 5.6,13.5 9.1,12.1 C9.9,11.8 13.9,9.4 11.7,4.2 C11,2.8 9.8,-0.2 5.8,0.9 L5.8,0.9 Z" id="Shape" fill="#DA94B1"></path>
                    <path d="M5.5,4.2 C4.3,4.9 3.8,6.8 5.1,7.8 C6.3,8.8 6.8,8.7 7.9,8 C8.7,7.5 9.3,6.7 8.6,4.8 C8.3,4.1 6.2,3.8 5.5,4.2 L5.5,4.2 Z" id="Shape" fill="#6795CE"></path>
                </g>
            </g>
        </g>
    </g>
</svg>