<?xml version="1.0" encoding="UTF-8" standalone="no"?>
<svg width="72px" height="111px" viewBox="0 0 72 111" version="1.1" xmlns="http://www.w3.org/2000/svg" xmlns:xlink="http://www.w3.org/1999/xlink">
    <g id="Page-1" stroke="none" stroke-width="1" fill="none" fill-rule="evenodd">
        <g id="Fermenting_assets">
            <g id="XMLID_13_" transform="translate(31.000000, 44.000000)">
                <g id="Group">
                    <polygon id="Shape" fill="#FFFFFF" points="40.3 7.7 40.3 7.8"></polygon>
                    <path d="M40.3,7.8 L40.3,8.1 L40.3,8.6 L35.8,62.7 L35.7,62.9 C35.3,63.9 33,66.9 20.4,66.9 C7.8,66.9 5.5,63.8 5.1,62.9 L5,62.7 L5,62.4 L0.6,8.9 C0.5,8.6 0.5,8.3 0.5,8.1 L0.5,7.9 L0.5,7.8 L0.5,7.8 C0.8,2.8 10.6,0.1 20.4,0.1 C30.2,-1.30867539e-14 40.2,2.6 40.3,7.8 L40.3,7.8 L40.3,7.8 L40.3,7.8 Z M37.3,8 L37.3,8 C37.3,6 30.5,3.1 20.4,3.1 C10.5,3.1 3.8,5.9 3.6,7.9 L3.6,8.3 C4.2,10.2 10.8,12.9 20.4,12.9 C30.5,12.9 37.2,10 37.3,8 L37.3,8 Z M32.8,61.7 L35.8,25.1 C33,27.3 27.1,28.9 20.2,28.9 C13.5,28.9 7.8,27.5 4.9,25.3 L7.9,61.7 C8.5,62.2 11.2,63.9 20.3,63.9 C29.5,63.9 32.2,62.2 32.8,61.7 L32.8,61.7 Z" id="Shape" fill="#3FA9F5"></path>
                    <path d="M37.3,8 L37.3,8 C37.2,10 30.5,12.9 20.4,12.9 C10.8,12.9 4.2,10.2 3.6,8.3 L3.6,7.9 C3.9,6 10.5,3.1 20.4,3.1 C30.5,3.1 37.2,6 37.3,8 L37.3,8 Z" id="Shape" fill="#FFFFFF"></path>
                    <path d="M35.9,25.1 L32.9,61.7 C32.3,62.2 29.6,63.9 20.5,63.9 C11.4,63.9 8.7,62.2 8.1,61.7 L5.1,25.3 C8,27.4 13.7,28.9 20.4,28.9 C27.2,28.9 33.1,27.3 35.9,25.1 L35.9,25.1 Z" id="Shape" fill="#F9DF00"></path>
                </g>
            </g>
            <path d="M1.2,37.3 C5,39.6 9.1,40 13.4,40.6 C13.9,40.7 21.8,42.8 21.9,42.5 C20.4,40.1 18.9,38.1 17.7,35.5 C16.6,33.1 15.4,30.6 13.6,28.7 C13,28.1 9.2,24.9 8.7,27.1 C8.2,29 10.1,30.8 10.5,32.5 C8.4,31.6 6.4,29 3.9,30.2 C1.5,32.2 6.7,34.4 7.2,35.6 C5.6,35.6 4,34.5 2.2,34.5 C0.5,34.4 -0.6,36.2 1.2,37.3 C4.4,39.2 0.5,36.9 1.2,37.3 L1.2,37.3 Z" id="Shape" fill="#FFFFFF"></path>
            <path d="M62.5,47.6 C61.4,47.4 60.3,47.6 59.4,48.2 C59.6,47.6 59.8,47.1 59.9,46.5 C60.6,42.2 58.2,38.3 54.5,37.7 C52,37.3 49.6,38.6 48,40.8 C47.4,40.4 46.7,40.1 45.9,39.9 C45.5,39.8 45,39.8 44.6,39.9 C44.7,39.6 44.8,39.3 44.8,39 C45.3,36.2 43.7,33.6 41.2,33.2 C38.8,32.8 36.4,34.8 36,37.6 C35.9,38.4 35.9,39.1 36.1,39.8 C35.3,38.8 34.3,38 33,37.8 C31.6,37.6 30.3,38 29.2,38.8 C28.8,37.3 27.7,36.2 26.2,35.9 C24.1,35.6 22,37.3 21.6,39.7 C21.3,41.6 22.1,43.4 23.4,44.3 C20.1,44.7 17.2,47.7 16.5,51.7 C15.7,56.4 18.4,60.8 22.5,61.5 C24.9,61.9 27.2,60.9 28.9,59.1 C29.7,61.9 31.8,64.1 34.6,64.6 C38.7,65.3 42.7,63 43.4,58.3 L43.5,59.2 L43.5,59.2 C44.1,59.2 44.7,58.2 45.2,58 C45.9,60 47.4,61.1 49.5,61.5 C52.5,62 55.4,59.4 56.1,56 C56.6,58.3 58.2,59.9 60.3,60.3 C63.2,60.8 66,58.4 66.6,55 C67.3,51.3 65.4,48.1 62.5,47.6 L62.5,47.6 Z" id="Shape" fill="#FFFFFF"></path>
            <path d="M12.1,19.7 C13.3,21.6 15.9,21.1 17.7,20.6 C20.4,19.9 23.2,20.2 25.8,21.4 C26.7,21.8 27.6,22.4 28.4,23.1 C29.3,23.9 29.9,25.3 30.9,25.9 C32.2,26.7 30.3,20 30.2,19.5 C28.8,13.8 27.7,8.3 25.4,2.9 C24.5,0.9 22,-0.7 21,2.1 C20.1,4.5 21.8,6.6 21.6,8.9 C19.4,7.9 14.9,2.4 12.2,5.5 C9.4,8.7 16.9,12 18.4,13.7 C15.2,14.6 9.5,15.4 12.1,19.7 C13.3,21.6 12,19.4 12.1,19.7 L12.1,19.7 Z" id="Shape" fill="#FFFFFF"></path>
        </g>
    </g>
</svg>