<?xml version="1.0" encoding="utf-8"?>
<!-- Generator: Adobe Illustrator 16.0.3, SVG Export Plug-In . SVG Version: 6.00 Build 0)  -->
<!DOCTYPE svg PUBLIC "-//W3C//DTD SVG 1.1//EN" "http://www.w3.org/Graphics/SVG/1.1/DTD/svg11.dtd">
<svg version="1.1" id="Layer_1" xmlns="http://www.w3.org/2000/svg" xmlns:xlink="http://www.w3.org/1999/xlink" x="0px" y="0px"
	 width="67.333px" height="83.334px" viewBox="0 0 67.333 83.334" enable-background="new 0 0 67.333 83.334" xml:space="preserve">
<g id="XMLID_13_">
	<g>
		<polygon fill="#FFFFFF" points="57.105,21.242 57.105,21.282 57.095,21.242 		"/>
		<path fill="#FFFFFF" d="M54.105,21.472l-0.01,0.06c-0.1,1.94-6.79,4.83-16.87,4.83c-9.649,0-16.2-2.65-16.81-4.58l-0.03-0.41
			c0.27-1.94,6.91-4.75,16.84-4.75C47.345,16.622,54.066,19.532,54.105,21.472z"/>
		<path fill="#F9DF00" d="M52.685,38.572l-3.04,36.581c-0.609,0.529-3.29,2.21-12.42,2.21c-9.12,0-11.8-1.681-12.41-2.2l-3-36.36
			c2.88,2.12,8.64,3.561,15.29,3.561C43.996,42.362,49.916,40.812,52.685,38.572z"/>
		<path fill="#3FA9F5" d="M37.225,77.362c9.13,0,11.811-1.681,12.42-2.21l3.04-36.581c-2.77,2.24-8.689,3.791-15.58,3.791
			c-6.649,0-12.41-1.44-15.29-3.561l3,36.36C25.425,75.682,28.105,77.362,37.225,77.362z M57.095,21.552
			c-0.01,0.09-0.02,0.37-0.029,0.47l-4.49,54.09l-0.09,0.22c-0.4,0.95-2.7,4.03-15.261,4.03c-12.55,0-14.85-3.08-15.25-4.03
			l-0.09-0.22l-0.03-0.25l-4.41-53.541c-0.05-0.27-0.09-0.55-0.09-0.83c0-0.06,0.01-0.12,0.01-0.18l-0.01-0.07h0.02
			c0.32-5,10.14-7.72,19.85-7.72c9.841,0,19.801,2.59,19.88,7.72h-0.01l0.01,0.04L57.095,21.552z M54.095,21.532l0.01-0.06
			c-0.039-1.94-6.76-4.85-16.88-4.85c-9.93,0-16.57,2.81-16.84,4.75l0.03,0.41c0.61,1.93,7.16,4.58,16.81,4.58
			C47.305,26.362,53.996,23.472,54.095,21.532z"/>
	</g>
	<g>
	</g>
</g>
<path fill="#FFFFFF" d="M48.298,17.127c-1.101-0.181-2.182,0.04-3.137,0.563c0.212-0.553,0.386-1.131,0.486-1.746
	c0.699-4.264-1.722-8.211-5.41-8.816c-2.518-0.412-4.949,0.861-6.479,3.051c-0.617-0.438-1.325-0.74-2.096-0.867
	c-0.443-0.072-0.881-0.07-1.311-0.025c0.098-0.289,0.18-0.588,0.23-0.9c0.461-2.816-1.137-5.422-3.572-5.821
	c-2.437-0.4-4.784,1.558-5.248,4.373c-0.129,0.782-0.084,1.54,0.08,2.245c-0.756-1.035-1.82-1.782-3.097-1.992
	c-1.352-0.221-2.674,0.191-3.756,1.022c-0.426-1.485-1.525-2.638-2.981-2.876C9.88,4.988,7.828,6.698,7.426,9.158
	c-0.315,1.915,0.472,3.708,1.836,4.577c-3.347,0.449-6.249,3.381-6.905,7.367c-0.779,4.746,1.92,9.139,6.026,9.813
	c2.399,0.395,4.728-0.596,6.423-2.412c0.83,2.817,2.924,4.996,5.693,5.451c4.068,0.668,8.066-1.388,8.839-6.094
	c0.006-0.026,0.075,1.14,0.075,1.14c0.004,0,0.004,0,0.008,0c0.631,0,1.176-1.216,1.746-1.456c0.688,2.043,2.223,2.994,4.27,3.33
	c3.035,0.5,5.929-2.165,6.646-5.606c0.484,2.259,2.071,3.894,4.215,4.247c2.923,0.479,5.738-1.948,6.291-5.327
	C53.146,20.81,51.222,17.607,48.298,17.127z"/>
<g>
	<path fill="#FFFFFF" d="M26.583,74.084c0,0,0.29-0.192,0.834-0.462c0.547-0.26,1.332-0.644,2.324-0.974
		c0.983-0.358,2.171-0.656,3.46-0.899c0.649-0.081,1.316-0.231,2.007-0.257c0.688-0.057,1.388-0.099,2.09-0.084
		c0.702-0.012,1.402,0.052,2.09,0.114c0.691,0.03,1.356,0.198,2.004,0.304c0.652,0.09,1.256,0.306,1.835,0.462
		c0.584,0.145,1.113,0.354,1.596,0.56c0.484,0.2,0.933,0.366,1.307,0.568c0.372,0.203,0.696,0.381,0.964,0.526
		c0.53,0.294,0.824,0.474,0.824,0.474s-0.335-0.101-0.904-0.297c-0.283-0.099-0.627-0.219-1.021-0.357
		c-0.395-0.134-0.861-0.223-1.349-0.369c-0.491-0.141-1.023-0.282-1.6-0.381c-0.574-0.104-1.168-0.256-1.801-0.317
		c-0.629-0.077-1.274-0.183-1.939-0.21c-0.662-0.05-1.335-0.099-2.011-0.077c-0.676-0.025-1.35,0.004-2.014,0.047
		c-0.666,0.02-1.315,0.112-1.949,0.163c-0.627,0.097-1.24,0.159-1.814,0.266c-0.574,0.107-1.12,0.199-1.618,0.315
		c-1,0.216-1.833,0.425-2.408,0.604C26.912,73.971,26.583,74.084,26.583,74.084z"/>
</g>
<g>
	<path fill="#FFFFFF" d="M48.208,42.875c0,0,0.008,0.428,0.021,1.177c-0.008,0.748,0.021,1.818-0.016,3.099
		c-0.038,1.28-0.05,2.776-0.121,4.375c-0.061,1.6-0.162,3.303-0.261,5.007c-0.12,1.702-0.236,3.405-0.381,4.999
		c-0.132,1.595-0.313,3.079-0.438,4.354c-0.127,1.275-0.294,2.333-0.383,3.075c-0.109,0.741-0.172,1.165-0.172,1.165
		s-0.008-0.428-0.021-1.177c0.007-0.748-0.023-1.819,0.014-3.099c0.039-1.28,0.049-2.776,0.122-4.375
		c0.061-1.6,0.163-3.303,0.262-5.007c0.12-1.702,0.237-3.405,0.382-4.999c0.134-1.595,0.313-3.079,0.439-4.354
		c0.127-1.274,0.293-2.333,0.381-3.075C48.146,43.299,48.208,42.875,48.208,42.875z"/>
</g>
<g>
	<path fill="#FFFFFF" d="M26.458,43.875c0,0,0.063,0.424,0.172,1.165c0.088,0.742,0.254,1.801,0.381,3.075
		c0.126,1.274,0.305,2.759,0.439,4.354c0.145,1.594,0.262,3.297,0.381,4.999c0.099,1.704,0.202,3.407,0.262,5.007
		c0.073,1.599,0.083,3.095,0.122,4.375c0.038,1.279,0.007,2.351,0.015,3.099c-0.014,0.749-0.022,1.177-0.022,1.177
		s-0.063-0.424-0.172-1.165c-0.088-0.742-0.255-1.8-0.382-3.075c-0.126-1.274-0.307-2.759-0.439-4.354
		c-0.145-1.594-0.261-3.297-0.38-4.999c-0.099-1.704-0.201-3.407-0.261-5.007c-0.071-1.599-0.083-3.095-0.122-4.375
		c-0.037-1.28-0.007-2.351-0.015-3.099C26.451,44.303,26.458,43.875,26.458,43.875z"/>
</g>
<g>
	<path fill="#FFFFFF" d="M33.458,45.375c0,0,0.056,0.386,0.129,1.061c0.063,0.676,0.183,1.64,0.274,2.798
		c0.196,2.316,0.374,5.408,0.471,8.501c0.091,3.095,0.103,6.19,0.046,8.515c-0.021,1.162-0.083,2.132-0.104,2.81
		c-0.033,0.679-0.065,1.066-0.065,1.066s-0.056-0.386-0.13-1.061c-0.063-0.676-0.184-1.64-0.274-2.798
		c-0.197-2.316-0.373-5.408-0.47-8.501c-0.091-3.095-0.101-6.19-0.045-8.515c0.021-1.162,0.082-2.132,0.104-2.81
		C33.426,45.763,33.458,45.375,33.458,45.375z"/>
</g>
<g>
	<path fill="#FFFFFF" d="M41.208,45.375c0,0,0.032,0.388,0.064,1.066c0.022,0.678,0.083,1.647,0.104,2.81
		c0.056,2.324,0.046,5.42-0.045,8.515c-0.097,3.093-0.272,6.185-0.47,8.501c-0.091,1.158-0.212,2.122-0.274,2.798
		c-0.074,0.675-0.13,1.061-0.13,1.061s-0.032-0.388-0.065-1.066c-0.021-0.678-0.084-1.647-0.104-2.81
		c-0.057-2.324-0.045-5.42,0.046-8.515c0.097-3.093,0.274-6.185,0.471-8.501c0.092-1.158,0.211-2.122,0.274-2.798
		C41.153,45.761,41.208,45.375,41.208,45.375z"/>
</g>
</svg>
