<?xml version="1.0" encoding="UTF-8" standalone="no"?>
<svg width="77px" height="92px" viewBox="0 0 77 92" version="1.1" xmlns="http://www.w3.org/2000/svg" xmlns:xlink="http://www.w3.org/1999/xlink">
    <!-- Generator: Sketch 3.7.2 (28276) - http://www.bohemiancoding.com/sketch -->
    <title>Group</title>
    <desc>Created with Sketch.</desc>
    <defs></defs>
    <g id="Page-1" stroke="none" stroke-width="1" fill="none" fill-rule="evenodd">
        <g id="Fermenting_assets">
            <g id="Group">
                <path d="M56.4,46.8 C56.6,46.9 56.9,46.8 57.1,46.7 C57.4,46.6 57.3,46.4 57.3,46.3 C57.4,46.5 57.4,46.7 57.1,46.7 C56.9,46.8 56.6,46.9 56.4,46.8 L56.4,46.8 Z" id="Shape"></path>
                <path id="Shape"></path>
                <path id="Shape"></path>
                <path id="Shape"></path>
                <path d="M55.8,48.7 C55.7,48.8 55.7,48.9 55.6,49 C55.3,49.5 55.3,49.9 55.3,50.4 C55.3,49.9 55.4,49.5 55.6,49 C55.7,48.8 55.8,48.8 55.8,48.7 L55.8,48.7 Z" id="Shape"></path>
                <path id="Shape"></path>
                <path id="Shape"></path>
                <path d="M64.7,51.5 C62.8,50.4 61,49.3 59,48.4 C58.9,48.4 58.8,48.3 58.7,48.3 C58.8,48.3 58.9,48.4 58.9,48.4 C60.9,49.2 62.8,50.4 64.7,51.5 L64.7,51.5 Z" id="Shape"></path>
                <path id="Shape"></path>
                <path id="Shape"></path>
                <path id="Shape"></path>
                <path d="M49.5,32.1 C49.4,31.8 49.2,31.6 49,31.4 C49.2,31.7 49.4,31.9 49.5,32.1 L49.5,32.1 Z" id="Shape"></path>
                <path id="Shape"></path>
                <path id="Shape"></path>
                <path d="M58,45.6 C57.8,45.5 57.5,45.3 57.3,45.4 C57.5,45.3 57.8,45.5 58,45.6 C60.5,46.9 62.9,48.2 65.4,49.6 L65.5,49.7 L65.4,49.6 C62.9,48.2 60.4,46.9 58,45.6 L58,45.6 Z" id="Shape"></path>
                <path id="Shape"></path>
                <path id="Shape"></path>
                <path d="M48.6,25.8 C48.8,25.7 48.9,25.7 49.1,25.6 C48.9,25.7 48.7,25.8 48.6,25.8 C48.1,26 47.7,26.2 47.2,26.4 C47.6,26.2 48.1,26 48.6,25.8 L48.6,25.8 Z" id="Shape"></path>
                <path d="M19.4,55.2 L19.1,54.9 L19.4,55.2 C20.1,55.8 20.9,56.4 21.7,57 L21.7,57 C20.9,56.4 20.1,55.9 19.4,55.2 L19.4,55.2 Z" id="Shape"></path>
                <path id="Shape"></path>
                <path d="M33.1,31.8 C33.4,31.7 33.6,31.6 33.9,31.5 C33.7,31.6 33.4,31.7 33.1,31.8 C32.7,32 31.5,32.4 32,33.2 C31.5,32.4 32.7,32 33.1,31.8 L33.1,31.8 Z" id="Shape"></path>
                <path id="Shape"></path>
                <path d="M27,62.6 C27.7,63.3 28.4,64.1 29.2,64.7 C28.4,64.1 27.7,63.4 27,62.6 L27,62.6 Z" id="Shape"></path>
                <path d="M14.8,48.7 L14.8,48.5 C14.2,45.8 13.5,43.1 13.1,40.3 C13,39.5 13.2,38.7 14.1,38.5 C13.3,38.7 13,39.5 13.1,40.3 C13.5,43 14.2,45.8 14.8,48.5 L14.8,48.7 L14.8,48.7 Z" id="Shape"></path>
                <path d="M21.8,57.4 C22,57.7 22.4,57.8 22.6,58.1 C22.8,58.3 23,58.6 23.2,58.8 C23,58.6 22.8,58.3 22.6,58.1 C22.4,57.8 22,57.7 21.8,57.4 L21.8,57.4 Z" id="Shape"></path>
                <path d="M17.8,53.7 C17,52.9 16.1,52.1 15.4,51.2 C16.1,52.1 17,52.9 17.8,53.7 L17.8,53.7 Z" id="Shape"></path>
                <path d="M63,6.1 C63.6,6 64.2,6.3 64.5,6.8 C64.2,6.2 63.5,6 63,6.1 C62.9,6.1 62.8,6.2 62.8,6.3 C62.8,6.1 62.8,6.1 63,6.1 L63,6.1 Z" id="Shape"></path>
                <path id="Shape"></path>
                <path d="M63.1,15.1 C62.9,15.7 62.5,16.3 62.2,16.8 C62.4,16.3 62.9,15.7 63.1,15.1 C63.3,14.7 63.5,14.2 63.6,13.8 C63.4,14.2 63.2,14.7 63.1,15.1 L63.1,15.1 Z" id="Shape"></path>
                <path id="Shape"></path>
                <path id="Shape"></path>
                <path d="M53.2,23.2 C53.5,22.9 53.8,22.7 54.1,22.4 C53.8,22.6 53.5,22.9 53.2,23.2 L53.2,23.2 L53.2,23.2 L53.2,23.2 L53.2,23.2 Z" id="Shape"></path>
                <path d="M63.8,22.1 C63.9,22.3 64,22.5 64.1,22.7 C64,22.5 63.9,22.3 63.8,22.1 C63.3,21.3 63,20.3 62.7,19.3 C63,20.3 63.2,21.3 63.8,22.1 L63.8,22.1 Z" id="Shape"></path>
                <path id="Shape"></path>
                <path d="M61.3,15.5 C61.7,14.5 62.1,13.4 62.4,12.4 C62.1,13.5 61.7,14.5 61.3,15.5 C60.2,18.1 57.7,19.6 55.5,21.3 C55.1,21.6 54.6,22 54.2,22.4 C54.6,22 55.1,21.7 55.5,21.3 C57.6,19.6 60.1,18.2 61.3,15.5 L61.3,15.5 Z" id="Shape"></path>
                <path id="Shape"></path>
                <path id="Shape"></path>
                <path d="M73.4,46.3 C73.4,46.6 73.4,47 73.9,46.9 L73.9,46.9 C73.4,46.9 73.5,46.5 73.4,46.3 L73.4,46.3 Z" id="Shape"></path>
                <path id="Shape"></path>
                <path id="Shape"></path>
                <path id="Shape"></path>
                <path d="M47,66.5 C48.1,65.4 50,65.1 51.5,64.4 C52.7,63.9 53.8,63.4 55,62.8 C53.8,63.4 52.7,63.9 51.5,64.4 C50,65.1 48.2,65.5 47,66.5 C45.4,68 43.5,68.6 41.6,68.9 C41.4,68.9 41.1,69 40.9,69.1 C41.1,69.1 41.4,69 41.6,68.9 C43.5,68.6 45.4,68 47,66.5 L47,66.5 Z" id="Shape"></path>
                <path id="Shape"></path>
                <path id="Shape"></path>
                <path d="M63.2,58.3 C62.7,58.6 62.2,58.8 61.7,59 L61.7,59 C62.2,58.8 62.7,58.6 63.2,58.3 L63.2,58.3 L63.2,58.3 L63.2,58.3 Z" id="Shape"></path>
                <path id="Shape"></path>
                <path d="M61.6,59.2 C60.9,59 60.7,60.1 60,59.9 L59.6,59.9 L60,59.9 C60.6,60.1 60.8,59 61.6,59.2 L61.7,59.1 C61.6,59.1 61.6,59.2 61.6,59.2 L61.6,59.2 Z" id="Shape"></path>
                <path id="Shape"></path>
                <path id="Shape"></path>
                <path d="M63.7,58 L63.7,57.7 L63.7,57.7 L63.7,57.7 L63.7,58 C63.6,58 63.6,58.1 63.5,58.1 C63.4,58.2 63.3,58.2 63.2,58.3 L63.2,58.3 C63.3,58.2 63.4,58.2 63.5,58.1 C63.6,58.1 63.7,58.1 63.7,58 L63.7,58 Z" id="Shape"></path>
                <path d="M59.3,60.5 C59.3,60.5 59.2,60.5 59.2,60.6 C58.1,61.2 57.1,61.8 56,62.4 C57.1,61.8 58.1,61.2 59.2,60.6 C59.2,60.6 59.2,60.5 59.3,60.5 L59.3,60.5 Z" id="Shape"></path>
                <path id="Shape"></path>
                <path d="M65.3,57 L65.3,56.7 L65.3,56.7 L65.3,56.7 L65.3,57 C65.2,57.1 65.1,57.1 64.9,57.2 C64.8,57.2 64.8,57.3 64.7,57.3 C64.8,57.3 64.8,57.2 64.9,57.2 C65.1,57.1 65.2,57 65.3,57 L65.3,57 Z" id="Shape"></path>
                <path id="Shape"></path>
                <path d="M70.9,42.2 C71,42.3 71.1,42.3 71.2,42.4 C71.1,42.3 71,42.2 70.9,42.2 C70.8,41.7 70.8,41.1 70.9,40.6 C70.9,40.3 70.6,39.9 70.3,39.7 C70.6,39.9 70.9,40.3 70.9,40.6 C70.8,41.1 70.8,41.6 70.9,42.2 L70.9,42.2 Z" id="Shape"></path>
                <path d="M42.2,30.5 C41.9,30.6 41.6,30.7 41.4,30.8 C41.1,30.9 40.9,31 40.6,31.1 C40.9,31 41.1,30.9 41.4,30.8 C41.7,30.7 42,30.6 42.2,30.5 L42.2,30.5 Z" id="Shape"></path>
                <path d="M45.9,29.2 C45.7,29.4 45.5,29.5 45.3,29.6 C45,29.7 44.8,29.7 44.5,29.8 C44.8,29.7 45,29.6 45.3,29.6 C45.6,29.6 45.7,29.4 45.9,29.2 L45.9,29.2 Z" id="Shape"></path>
                <path d="M35.8,41.9 C35.2,39.8 34.4,37.8 33.7,35.8 C33.7,35.7 33.6,35.6 33.6,35.5 C33.6,35.6 33.7,35.7 33.7,35.8 C34.4,37.9 35.3,39.8 35.8,41.9 C36.1,43 36.4,44.2 36.7,45.3 C36.5,44.2 36.1,43.1 35.8,41.9 L35.8,41.9 Z" id="Shape"></path>
                <path id="Shape"></path>
                <path d="M60.7,19.3 C59.9,19.6 59.4,20.7 58.8,21.4 C58,21.9 57.1,22.3 56.3,22.9 C55.4,23.5 54.6,24.2 53.7,24.8 C54.6,24.2 55.4,23.5 56.3,22.9 C57.1,22.3 58,21.9 58.8,21.4 C59.4,20.7 59.9,19.6 60.7,19.3 C62.1,18.7 61.4,20.3 61.7,20.8 C62.1,21.4 62.3,22.1 62.4,22.9 C62.3,22.2 62.1,21.4 61.7,20.8 C61.3,20.2 62.1,18.7 60.7,19.3 L60.7,19.3 Z" id="Shape"></path>
                <path id="Shape"></path>
                <path id="Shape"></path>
                <path d="M71,38.3 C71,38.3 71.1,38.4 71.2,38.4 C71.1,38.4 71.1,38.4 71,38.3 C70.8,38.1 70.7,37.8 70.5,37.8 C70.7,37.9 70.9,38.2 71,38.3 L71,38.3 Z" id="Shape"></path>
                <path d="M69.2,42.6 C69.3,41.9 69.3,41.1 69.4,40.4 C69.4,40 69.6,39.4 69.9,39.5 C69.6,39.4 69.4,40 69.4,40.4 C69.3,41.1 69.3,41.8 69.2,42.6 C68.9,44.8 68.6,47 68.4,49.1 C68.7,46.9 69,44.7 69.2,42.6 L69.2,42.6 Z" id="Shape"></path>
                <path d="M33.7,40.2 C33.5,39.6 33.3,39 33.1,38.4 C32.6,37.4 32.6,36.3 32.5,35.2 C32.6,36.3 32.6,37.4 33.1,38.4 C33.3,39.1 33.5,39.6 33.7,40.2 L33.7,40.2 Z" id="Shape"></path>
                <path id="Shape"></path>
                <path id="Shape"></path>
                <path d="M67.9,35.4 C68.3,35.4 68.5,35.8 68.7,36.1 C68.5,35.8 68.3,35.5 67.9,35.4 L67.9,35.4 Z" id="Shape"></path>
                <path id="Shape"></path>
                <path id="Shape"></path>
                <path d="M49.2,33.9 C48.9,32.8 48.5,31.8 48.2,30.7 C48.2,30.3 48.1,29.8 48,29.4 C48.1,29.8 48.2,30.2 48.2,30.7 C48.5,31.8 48.9,32.8 49.2,33.9 L49.2,33.9 Z" id="Shape"></path>
                <path id="Shape"></path>
                <path id="Shape"></path>
                <path id="Shape"></path>
                <path id="Shape"></path>
                <path d="M52.7,58.1 L52.7,58.1 C52.8,58 52.8,57.9 52.9,57.9 L52.9,57.9 C53.2,57.1 53.5,56.3 53.8,55.5 C53.9,55.2 54.1,54.8 54.3,54.5 C54.1,54.8 54,55.2 53.8,55.5 C53.5,56.3 53.2,57.1 52.9,57.9 L52.9,57.9 L52.7,58.1 L52.7,58.1 C52.6,58.2 52.6,58.2 52.7,58.1 L52.6,58.2 C52.6,58.3 52.6,58.2 52.7,58.1 C52.6,58.2 52.6,58.2 52.7,58.1 L52.7,58.1 Z" id="Shape"></path>
                <path id="Shape"></path>
                <path d="M53.2,23.2 L53.2,23.2 C52.7,23.4 52.2,23.7 51.7,23.9 C52.2,23.6 52.7,23.4 53.2,23.2 L53.2,23.2 Z" id="Shape"></path>
                <path d="M3.7,27.2 C4.1,28.1 4.8,28.9 5.8,29.5 C5.8,29.5 5.8,29.6 5.9,29.6 C5.9,29.6 5.9,29.5 5.8,29.5 C4.8,28.9 4.1,28.1 3.7,27.2 L3.7,27.2 Z" id="Shape"></path>
                <path d="M14.5,30.6 C11.8,30.8 9.1,30.7 6.5,29.7 C6.3,29.6 6.1,29.6 5.8,29.5 C6,30.3 6.5,30.7 7.2,30.8 C10.2,30.9 13.1,30.9 16.1,30.9 C16,30.8 15.9,30.8 15.8,30.7 C15.4,30.7 14.9,30.6 14.5,30.6 L14.5,30.6 Z" id="Shape"></path>
                <path id="Shape"></path>
                <path d="M43.5,22.5 L43.7,22.5 C44.8,22.2 45.8,21.8 46.9,21.5 C45.8,21.8 44.8,22.2 43.7,22.5 L43.5,22.5 L43.5,22.5 Z" id="Shape"></path>
                <path d="M52.2,53.7 C52.6,52.1 52.7,50.3 53.9,48.9 L54,48.8 L53.9,48.9 C52.7,50.3 52.6,52 52.2,53.7 L52.2,53.7 Z" id="Shape"></path>
                <path id="Shape"></path>
                <path id="Shape"></path>
                <path id="Shape"></path>
                <path id="Shape"></path>
                <path id="Shape"></path>
                <path id="Shape"></path>
                <path id="Shape"></path>
                <path id="Shape"></path>
                <path id="Shape"></path>
                <path d="M73.8,47.2 C73.7,47.8 74,48.3 74.3,48.8 C74,48.3 73.7,47.8 73.8,47.2 L73.8,47.2 Z" id="Shape"></path>
                <path id="Shape"></path>
                <path d="M68.5,54.5 C68,55.1 67.2,55.4 66.3,55.6 L66.3,55.6 L66.3,55.6 L66.3,55.6 L66.3,55.6 C67.2,55.3 68,55.1 68.5,54.5 C68.6,54.4 68.6,54.3 68.7,54.2 C68.6,54.3 68.6,54.4 68.5,54.5 L68.5,54.5 Z" id="Shape"></path>
                <path id="Shape"></path>
                <path id="Shape"></path>
                <path id="Shape"></path>
                <path id="Shape"></path>
                <path d="M65.7,54.6 L65.7,54.6 L65.7,54.6 C65.7,54.9 65.9,55.2 66.3,55.5 L66.3,55.5 C65.9,55.2 65.7,54.9 65.7,54.6 L65.7,54.6 Z" id="Shape"></path>
                <path d="M51.1,62.2 L51.1,62.2 L51.1,62.2 C51.7,62 52.2,61.8 52.8,61.6 C53.7,61.2 54.5,60.8 55.4,60.3 C54.5,60.7 53.7,61.1 52.8,61.6 C52.3,61.8 51.7,62 51.1,62.2 L51.1,62.2 Z" id="Shape"></path>
                <path d="M25.3,35.9 C24.7,36 24.3,36.4 23.8,36.7 C24.3,36.4 24.7,36 25.3,35.9 L25.3,35.9 Z" id="Shape"></path>
                <path id="Shape"></path>
                <path d="M2.8,27.5 C3,28.5 3.2,29.5 3.3,30.6 C3.1,29.6 3,28.6 2.8,27.5 L2.8,27.5 Z" id="Shape"></path>
                <path id="Shape"></path>
                <path d="M6.1,37.3 C6.3,37.3 6.4,37.3 6.6,37.4 C7.8,37.6 9,38.1 10.2,38.4 C9,38.2 7.8,37.7 6.6,37.4 C6.4,37.3 6.3,37.3 6.1,37.3 L6.1,37.3 Z" id="Shape"></path>
                <path id="Shape"></path>
                <path d="M7.2,36.3 C8.2,36.4 9.2,36.6 10.3,36.4 L10.3,36.4 L10.3,36.4 C9.3,36.6 8.3,36.4 7.2,36.3 C6.4,36.2 5.6,35.8 5,35.2 C5.7,35.8 6.4,36.2 7.2,36.3 L7.2,36.3 Z" id="Shape"></path>
                <path d="M12.8,60.1 C12.7,61.4 12.4,62.7 12.2,64 C12.4,62.7 12.6,61.4 12.8,60.1 C12.8,59.8 12.9,59.4 12.9,59.1 C12.8,59.4 12.8,59.7 12.8,60.1 L12.8,60.1 Z" id="Shape"></path>
                <path d="M16.7,56.2 C16.5,55.9 16.3,55.7 16,55.5 C16.2,55.7 16.5,55.9 16.7,56.2 L16.7,56.2 Z" id="Shape"></path>
                <path d="M13.7,67.1 C13.9,66 14.1,64.9 14.3,63.9 C14.1,64.9 13.9,66 13.7,67.1 C13.7,67.7 13.5,68.6 13.6,69 C13.5,68.5 13.7,67.6 13.7,67.1 L13.7,67.1 Z" id="Shape"></path>
                <path id="Shape"></path>
                <path d="M29.7,68.4 C29.5,68.5 29.3,68.6 29.1,68.6 C28.4,68.7 27.7,68.7 27,68.8 C24.9,68.9 22.8,69 20.8,69.5 C20.2,69.7 19.6,69.7 19.1,69.7 C18.2,69.7 17.4,69.6 16.5,69.4 C17.4,69.5 18.2,69.6 19.1,69.7 C19.7,69.7 20.3,69.6 20.8,69.5 C22.8,69 24.9,69 27,68.8 C27.7,68.7 28.4,68.7 29.1,68.6 C29.3,68.6 29.5,68.5 29.7,68.4 C29.6,68.4 29.6,68.4 29.7,68.4 C29.6,68.4 29.6,68.4 29.7,68.4 L29.7,68.4 Z" id="Shape"></path>
                <path id="Shape"></path>
                <path id="Shape"></path>
                <path d="M48.7,60.4 L48.7,60.4 C49.2,60.2 49.5,59.8 49.8,59.3 C49.5,59.7 49.2,60.1 48.7,60.4 L48.7,60.4 Z" id="Shape"></path>
                <path id="Shape"></path>
                <path d="M48.4,60.2 L48.3,60.1 C47.7,59.5 47,59 46.4,58.4 C47,59 47.7,59.5 48.3,60.1 C48.3,60.1 48.4,60.1 48.4,60.2 L48.4,60.2 Z" id="Shape"></path>
                <path d="M16.9,35.7 C19.9,35 22.8,34.1 25.8,33.5 C25.9,33.5 26,33.5 26,33.4 C25.9,33.4 25.8,33.5 25.7,33.5 C22.8,34.1 19.8,35.1 16.9,35.7 C15.8,36 14.6,36 13.4,36.1 C14.6,36.1 15.7,36 16.9,35.7 L16.9,35.7 Z" id="Shape"></path>
                <path id="Shape"></path>
                <path d="M16,38.4 C17.1,38.3 18.3,38 19.4,37.8 C18.3,38.1 17.2,38.4 16,38.4 L16,38.4 Z" id="Shape"></path>
                <path id="Shape"></path>
                <path d="M35.9,66.4 C36.6,63.3 37.4,60.1 38.3,57.1 C38.5,56.6 39.6,55.8 40.3,56.4 C40.7,56.7 41.1,57.1 41.5,57.5 C41.1,57.1 40.7,56.8 40.3,56.4 C39.6,55.8 38.5,56.6 38.3,57.1 C37.3,60.2 36.6,63.3 35.9,66.4 C35.9,66.5 35.8,66.8 35.8,67 C35.7,66.8 35.8,66.6 35.9,66.4 L35.9,66.4 Z" id="Shape"></path>
                <path d="M47.2,62.2 L47.2,62.2 C46.8,62 46.5,61.7 46.2,61.5 C46.5,61.7 46.9,62 47.2,62.2 L47.2,62.2 L47.2,62.2 Z" id="Shape"></path>
                <path id="Shape"></path>
                <path d="M48.6,62.8 C48.7,62.9 48.8,62.9 48.8,63 L48.8,63 C48.7,62.9 48.6,62.9 48.6,62.8 C48.5,62.8 48.5,62.8 48.6,62.8 C48.2,62.7 47.9,62.5 47.6,62.4 C47.9,62.5 48.2,62.6 48.6,62.8 C48.5,62.8 48.5,62.8 48.6,62.8 L48.6,62.8 Z" id="Shape"></path>
                <path d="M3.1,26.6 C3.3,29.6 3.6,32.7 5.2,35.3 C5.5,35.8 6.8,36.1 7.8,36.1 C13.5,36.4 18.8,34.9 24.2,33.4 C27,32.7 29.8,32.2 32.6,31.5 C37.9,30 43.3,28.5 48.1,25.7 C49.3,25 50.5,24.4 51.8,23.9 C52.3,23.7 52.8,23.4 53.3,23.2 C53.4,23.1 53.4,23 53.5,22.9 C53.7,22.7 53.8,22.5 54,22.3 C54.1,22.2 54.1,22.2 54.2,22.1 C54.4,21.9 54.6,21.7 54.8,21.5 C54.9,21.4 55.1,21.3 55.2,21.2 C55.3,21.1 55.5,21 55.6,20.8 C55.9,20.6 56.2,20.4 56.5,20.2 C60.7,17.6 62.3,13.5 62.8,8.9 C62.9,8 62.6,7 62.5,6.1 C62.5,5.8 62.2,5.3 62.9,5.3 C63.2,3.6 61.7,2.8 60.9,1.8 C60.7,1.5 60.6,0.8 59.9,1 C59.4,1.1 59.7,1.6 59.5,1.8 L59.5,1.9 C60.3,2.4 60.5,3 60.5,3.6 L60.5,4.1 C60.5,4.5 60.4,4.9 60.4,5.3 C60.3,9.2 57.8,12 55.7,14.7 C54.3,16.5 52.7,18.4 50.6,19.6 C49.5,20.3 48.5,21.3 47.1,21.5 L47,21.5 C46.3,21.8 45.5,22.1 44.8,22.5 C42.4,23.3 40,24.1 37.6,25 C34.6,26.2 31.5,27 28.6,28.6 C27.4,29.3 25.8,29.2 24.3,29.5 C23.4,29.7 22.6,30.3 21.8,30.6 C20.6,31.1 19.2,31.1 17.8,31.2 C17.3,31.2 16.8,31.6 16.3,31.1 L16.2,31.1 C13.2,31.1 10.3,31.1 7.3,31 C6.6,31 6.1,30.5 5.9,29.7 C5.9,29.7 5.9,29.6 5.8,29.6 C4.9,29.1 4.1,28.2 3.7,27.3 C3.6,27 3.5,26.7 3.4,26.4 C3.3,25.6 3.3,24.8 3.6,24.1 C3,24.5 2.6,25 2.4,25.7 C3,25.7 3.1,26 3.1,26.6 L3.1,26.6 Z" id="Shape" fill="#D3753A"></path>
                <path d="M64.6,11.6 C64.2,13.2 63.6,14.7 63,16.2 C62.8,16.8 62,17.4 62.5,18.2 C63.2,19.1 63.5,20.2 63.8,21.3 C64.5,23.1 65.2,25 65.9,26.8 C67.9,30.7 68.9,35 71.4,38.6 C71.7,39 71.9,39.4 72.2,39.8 C71.2,36.6 70.3,33.4 69.4,30.2 C68.9,28.3 68.1,26.5 67.8,24.6 C67.3,21.7 66.7,18.8 66.1,15.9 L66.1,15.7 L66.1,15.6 C66.1,15.5 66,15.4 66,15.3 C65.8,14.4 65.6,13.5 65.3,12.6 L65.3,12.6 C65.2,12.5 65.2,12.3 65.1,12.2 C65.1,12.2 65.1,12.1 65,12.1 C65,11.9 65,11.7 64.9,11.5 C64.8,11.4 64.6,11.5 64.6,11.6 L64.6,11.6 Z" id="Shape" fill="#D3753A"></path>
                <path d="M74.2,50.3 L74.1,50.4 C74.1,50.4 74.1,50.4 74.1,50.5 C73.5,51.8 72.3,52.5 71.2,53.2 C70.5,53.6 69.9,54.1 69.2,54.6 C68.3,55.2 67.3,55.7 66.4,56.3 L66.4,56.3 L66.4,56.3 L66.3,56.4 C66,56.6 65.7,56.8 65.4,57 C65.3,57.1 65.2,57.1 65,57.2 C65,57.2 65,57.3 64.9,57.3 L64.9,57.3 L64.8,57.3 C64.5,57.5 64.1,57.8 63.8,58 C63.7,58 63.7,58.1 63.6,58.1 C63.5,58.2 63.4,58.1 63.3,58.1 L63.3,58.1 L63.3,57.9 L63.3,57.9 L63.3,57.9 C63,58.9 62.7,58.7 62.2,58.8 C62.1,58.8 61.9,58.9 61.8,58.9 L61.8,58.9 L61.7,59 C61.2,59.5 60.7,59.9 60.1,60.1 C59.9,60.2 59.7,60.2 59.5,60.3 C59.5,60.3 59.5,60.3 59.4,60.3 C59.4,60.3 59.3,60.3 59.3,60.4 C58.2,61 57.2,61.6 56.1,62.2 C56,62.3 55.8,62.3 55.7,62.4 C55.5,62.5 55.3,62.6 55.1,62.7 C54,63.3 52.8,63.8 51.6,64.3 C50.1,65 48.2,65.3 47.1,66.4 C45.5,67.9 43.6,68.5 41.7,68.8 C41.5,68.8 41.2,68.9 41,69 C39,69.4 37,69.9 35.1,70.6 C32.6,71.4 30.1,71.8 27.6,71.9 C27,71.9 26.3,71.9 25.7,72 L25.2,72 L25,72 C24.8,72 24.6,72.1 24.4,72.1 C24.2,72.1 23.9,72.2 23.7,72.2 C23.4,72.3 23,72.4 22.7,72.4 L22.4,72.4 L22.2,72.4 L22,72.4 L21.2,72.4 L21,72.4 C18.3,71.9 15.6,71.5 12.9,71 L12.9,71 C13.4,73.4 14,75.7 14.5,78.1 C14.8,79.4 14.9,80.7 15.6,81.8 L15.6,81.9 C15.6,81.9 15.6,82 15.7,82 L15.8,82.1 C15.8,82.1 15.8,82.2 15.9,82.2 C15.6,82.6 15.8,83 16,83.4 C16.7,85.1 18.2,86.1 19.8,86.8 C24.3,88.7 29.1,90 33.9,91.1 C38.8,92.2 43.6,91.8 48.4,90.8 C52.4,90 56.4,89 59.9,86.6 C61.7,85.4 63.5,84.1 65.5,83.1 C67.6,82 68.7,79.9 70.5,78.6 C71.5,77.6 72.5,76.6 73,75.1 C73.9,72.4 75.4,70.1 75.4,66.9 C75.4,64.2 76.6,61.5 75.8,58.7 C75.4,57.3 76,55.9 75.4,54.5 C75.4,52.9 75.1,51.4 74.6,49.9 L74.6,49.9 C74.3,50 74.3,50.2 74.2,50.3 L74.2,50.3 Z M52.3,65.7 L52.3,65.7 L52.3,65.7 C52.3,65.7 52.2,65.7 52.3,65.7 C52.2,65.6 52.2,65.6 52.3,65.6 L52.3,65.7 C52.4,65.6 52.3,65.6 52.3,65.7 L52.3,65.7 Z M63,68.9 C63,68.8 63,68.6 62.9,68.5 L62.9,68.5 L62.9,68.5 C62.7,68.4 62.4,68.4 62.5,68.1 C62.5,68 62.7,67.9 62.8,67.8 C62.8,68 62.9,68.2 62.9,68.5 L62.9,68.5 L62.9,68.5 C63,68.6 63,68.8 63.1,68.9 L63,68.9 L63,68.9 Z M63.3,68.6 L63.2,68.5 C63.2,68.4 63.3,68.4 63.3,68.3 C63.3,68.4 63.4,68.5 63.3,68.5 C63.4,68.5 63.3,68.6 63.3,68.6 L63.3,68.6 Z" id="Shape" fill="#D3753A"></path>
                <path d="M5.8,29.5 L5.8,29.5 C6.1,29.6 6.3,29.7 6.5,29.8 C9.1,30.8 11.8,30.9 14.5,30.7 L15.8,30.7 C15.9,30.8 16,30.8 16.1,30.9 L16.2,30.9 C16.6,31.4 17.2,31.1 17.7,31 C19,30.9 20.5,30.9 21.7,30.4 C22.5,30.1 23.3,29.5 24.2,29.3 C25.6,29 27.3,29.1 28.5,28.4 C31.4,26.8 34.5,26 37.5,24.8 C39.9,23.9 42.3,23.1 44.7,22.3 L43.7,22.3 L43.5,22.3 L43.7,22.3 C44.8,22 45.8,21.6 46.9,21.3 L47,21.3 C48.4,21.2 49.3,20.1 50.5,19.4 C52.6,18.1 54.2,16.3 55.6,14.5 C57.7,11.8 60.2,8.9 60.3,5.1 C60.3,4.7 60.4,4.3 60.4,3.9 L60.4,3.4 C60.4,2.7 60.2,2.1 59.4,1.7 L59.4,1.6 C59.3,1.6 59.2,1.5 59.1,1.5 C58.8,1.4 58.5,1.1 58.2,1.1 C54,0.4 50,1.5 46.1,2.7 C43.2,3.6 40.3,4.9 37.4,5.9 C32.4,7.7 27.5,9.5 22.7,11.7 C17.9,13.8 13,15.6 8.8,18.9 C7.3,20.1 5.1,20.5 4.4,22.7 C4.3,23 4.1,23.3 4,23.5 C3.9,24.3 3.7,25.1 3.8,25.8 C3.8,27.5 5.2,28.2 5.8,29.5 L5.8,29.5 Z M57.4,10.2 C57.5,10.8 57,11.1 56.6,11.4 C56.9,11 57.1,10.6 57.4,10.2 L57.4,10.2 Z M42.1,23.1 C41.4,23.3 40.8,23.5 40.1,23.7 C40.7,23.3 41.4,23.1 42.1,23.1 L42.1,23.1 Z M38.2,24.4 C37.9,24.7 37.5,24.8 37,24.8 L37,24.8 L37,24.8 C37.4,24.6 37.8,24.5 38.2,24.4 L38.2,24.4 Z M29.7,27.1 C29.8,27.5 29.5,27.4 29.4,27.3 C29.5,27.2 29.6,27.1 29.7,27.1 L29.7,27.1 Z M29.1,27.5 C28.9,28.1 28.3,27.6 28.1,27.9 C28.2,27.2 28.8,27.7 29.1,27.5 L29.1,27.5 Z M27.6,27.9 L28,27.9 C27.1,28.5 26.1,28.6 25,28.7 C25.8,28.1 26.7,27.9 27.6,27.9 L27.6,27.9 Z M25,28.7 C24.9,29.3 24.5,29.1 24.2,28.9 C24.4,28.9 24.7,28.8 25,28.7 L25,28.7 Z M23.4,29.3 C23.3,29.7 23,29.3 22.8,29.4 C22.9,29 23.2,29.3 23.4,29.3 L23.4,29.3 Z M22.5,29.5 C22.4,30 22.1,29.9 21.7,29.8 C21.9,29.4 22.2,29.6 22.5,29.5 L22.5,29.5 Z" id="Shape" fill="#176F9C"></path>
                <path d="M76.5,47.6 L76.5,47.6 C76.5,47.3 76.6,47 76.7,46.6 C76.4,46.5 76,46.2 75.7,46.3 C74.4,46.5 73,45.1 73.4,43.7 C73.2,43.5 73,43.3 72.9,43.1 C73.1,43.3 73.2,43.5 73.4,43.7 C74.2,43 73.4,42.5 73.2,41.9 L73,41.9 L73.2,41.9 C72.9,41.1 72.6,40.4 72.2,39.6 C71.9,39.2 71.7,38.8 71.4,38.4 C71.3,38.4 71.3,38.3 71.2,38.3 C71.3,38.3 71.3,38.4 71.4,38.4 C68.9,34.8 67.9,30.5 65.9,26.6 C65.2,24.8 64.5,22.9 63.8,21.1 C63.4,20.1 63.1,19 62.5,18 C62,17.3 62.8,16.7 63,16 C63.6,14.5 64.2,13 64.6,11.4 C64.6,11.3 64.8,11.2 64.9,11.1 L64.9,11.1 C64.9,11.1 64.9,11.1 64.8,11.1 L64.7,11 L64.5,11 L64.5,11 C64.5,10.5 64.6,10.1 64.6,9.6 C64.7,7.7 65,5.8 62.6,5.1 C62,5.1 62.2,5.6 62.3,5.9 C62.4,6.8 62.8,7.8 62.7,8.7 C62.2,13.3 60.6,17.4 56.5,20 C56.2,20.2 55.9,20.4 55.6,20.6 C55.5,20.7 55.3,20.8 55.2,21 C55.1,21.1 54.9,21.2 54.8,21.3 L54.2,21.9 C54.1,22 54.1,22 54,22.1 C53.8,22.3 53.7,22.5 53.5,22.7 C53.4,22.8 53.4,22.9 53.3,23 L53.3,23 C52.8,23.2 52.3,23.5 51.8,23.7 C50.5,24.3 49.3,24.8 48.1,25.5 C43.3,28.3 37.9,29.8 32.6,31.3 C29.8,32.1 27,32.5 24.2,33.2 C18.8,34.6 13.5,36.2 7.8,35.9 C6.8,35.8 5.6,35.6 5.2,35.1 C3.6,32.5 3.3,29.4 3.1,26.4 C3.1,25.8 3,25.5 2.4,25.3 C2.1,25.4 1.8,25.8 1.7,25.8 L1.5,25.8 C1.2,25.8 1.4,26.6 0.4,27 L0.4,27.9 C1.4,29.8 1.4,31.7 1.8,33.6 C2,34.7 2.1,35.9 3,36.7 C3.6,36.8 4.3,36.8 5,36.9 C4.4,36.8 3.8,36.7 3.1,36.7 L3.1,36.7 C3.3,36.7 3.4,36.9 3.6,37 C6,36.7 8.1,38.4 10.5,38.4 C10.6,38.4 10.8,38.6 10.8,38.8 C11.2,40.6 11.5,42.5 12,44.3 C13.1,48.2 13.4,52.1 12.7,56.1 C12.4,58.1 12.6,60.3 12.1,62.3 C11.8,63.8 11.6,65.6 11.3,67.1 C11.3,67.2 11.4,66.7 11.4,67.7 L11.4,67.7 C11.4,67.7 11.6,68.7 11.4,69.1 C10.9,70.2 11.3,70.6 12.4,70.7 C12.5,70.8 12.5,70.8 12.6,70.8 L12.6,70.8 C15.3,71.3 18,71.7 20.7,72.2 L20.9,72.2 L21.7,72.2 L21.9,72.2 L22.1,72.2 L22.4,72.2 C22.7,72.1 23.1,72.1 23.4,72 C23.6,71.9 23.9,71.9 24.1,71.9 C24.3,71.9 24.5,71.8 24.7,71.8 L24.9,71.8 L25.4,71.8 L27.3,71.8 C29.9,71.7 32.3,71.3 34.8,70.5 C36.7,69.9 38.7,69.4 40.7,68.9 C40.9,68.8 41.2,68.8 41.4,68.7 C43.3,68.3 45.2,67.8 46.8,66.3 C47.9,65.2 49.8,64.9 51.3,64.2 C52.5,63.7 53.6,63.2 54.8,62.6 C55,62.5 55.2,62.4 55.4,62.3 C55.5,62.2 55.7,62.2 55.8,62.1 C56.9,61.5 57.9,60.9 59,60.3 C59,60.3 59.1,60.3 59.1,60.2 L59.2,60.2 C59.4,60.2 59.6,60.1 59.8,60 C60.4,59.8 60.9,59.4 61.4,58.9 C60.7,58.7 60.5,59.8 59.8,59.6 L59.4,59.6 L59.8,59.6 C60.4,59.8 60.6,58.7 61.4,58.9 L61.5,58.8 L61.5,58.8 L61.9,58.8 C62.3,58.7 62.6,58.4 63,58.1 C62.5,58.3 62,58.6 61.5,58.8 L61.5,58.8 C62,58.6 62.5,58.1 63,57.9 L63,57.7 L63,57.7 L63.3,57.9 L63.3,57.9 L63.3,58 C63.3,57.9 63.4,57.9 63.5,57.9 C63.6,57.9 63.5,57.9 63.6,57.8 C63.6,57.7 63.5,57.6 63.5,57.5 L63.4,57.5 L63.4,57.5 C63.4,57.6 63.5,57.7 63.5,57.8 C63.8,57.6 64.2,57.3 64.6,57.1 L64.3,57.1 L64.6,57.1 C64.7,57.1 64.7,57 64.8,57 C64.9,56.9 65,56.9 65.2,56.8 L65.2,56.5 L65.2,56.5 L65.2,56.5 L65.2,56.8 C65.5,56.6 65.8,56.4 66.1,56.2 L66.1,56.2 L66,56 L65.9,55.8 L65.9,55.8 L65.9,55.8 L66,56 C66.1,56 66.1,56.1 66.2,56.1 L66.3,56.1 L66.3,56.1 L66.3,56.1 C67.2,55.5 68.2,55 69.1,54.4 C69.8,53.9 70.4,53.4 71.1,53 C72.2,52.3 73.4,51.7 74,50.3 C73.9,50.3 73.8,50.4 73.7,50.4 C73.8,50.4 73.9,50.3 74,50.3 C74,50.3 74,50.3 74,50.2 L74.1,50.1 C74.2,50 74.2,49.9 74.3,49.8 L74.3,49.8 L74.3,49.6 C74.4,49.5 74.4,49.9 74.5,48.9 L74.6,48.9 C76.3,50 75.5,48.5 76.5,47.6 L76.5,47.6 Z M73.9,46.8 C73.4,46.9 73.5,46.5 73.4,46.2 C73.5,46.5 73.4,46.9 73.9,46.8 L73.9,46.8 L73.9,46.8 Z M73.7,45.9 C73.6,45.9 73.6,45.8 73.5,45.8 L73.5,45.8 C73.6,45.8 73.7,45.9 73.7,45.9 L73.7,45.9 Z M72.6,45.4 C72.6,45.3 72.7,45.2 72.8,45.1 C72.8,45.1 72.8,45 72.9,44.9 C72.9,45 72.9,45 72.8,45.1 C72.7,45.2 72.7,45.3 72.6,45.4 L72.6,45.4 Z M72.7,43 C72.7,43.1 72.7,43.1 72.6,43.2 C72.6,43.2 72.6,43.1 72.7,43 L72.7,43 L72.7,43 Z M72.7,43.3 C72.7,43.2 72.7,43.2 72.7,43.3 C72.7,43.2 72.7,43.2 72.7,43.3 L72.7,43.3 L72.7,43.3 Z M72.6,42.1 C72.6,42.1 72.7,42 72.8,42 C72.7,42.1 72.7,42.1 72.6,42.1 C72.5,42.3 72.7,42.7 72.6,43 C72.7,42.8 72.5,42.4 72.6,42.1 L72.6,42.1 Z M72.4,44.3 C72.6,44.3 72.7,44.4 72.8,44.6 C72.8,44.4 72.6,44.2 72.4,44.3 C72.1,44.3 71.9,44.3 71.8,44.2 C72,44.2 72.2,44.3 72.4,44.3 L72.4,44.3 Z M70.3,39.6 C70.6,39.8 70.9,40.2 70.9,40.5 C70.9,41.1 70.8,41.6 70.9,42.1 C71,42.2 71.1,42.2 71.2,42.3 C71.1,42.2 71,42.1 70.9,42.1 C70.8,41.5 70.8,41 70.9,40.5 C70.9,40.3 70.6,39.9 70.3,39.6 L70.3,39.6 Z M68.3,52.5 C68.2,52.5 68.2,52.5 68.1,52.6 L68,52.6 C67.9,52.6 67.9,52.5 67.9,52.3 C68.1,52.3 68.4,52.1 68.3,52.5 L68.3,52.5 Z M69.6,38.1 C69.7,38.1 69.8,38.2 69.9,38.2 C69.8,38.2 69.6,38.1 69.6,38.1 C69.5,38 69.5,37.9 69.4,37.8 C69.4,37.9 69.5,38 69.6,38.1 L69.6,38.1 Z M69.2,42.6 C69.3,41.9 69.3,41.1 69.4,40.4 C69.4,40 69.6,39.4 69.9,39.5 C69.6,39.4 69.4,40 69.4,40.4 C69.3,41.1 69.3,41.8 69.2,42.6 C68.9,44.8 68.6,47 68.4,49.1 C68.7,46.9 69,44.7 69.2,42.6 L69.2,42.6 Z M71,38.3 C71,38.3 71.1,38.4 71.2,38.4 C71.1,38.4 71.1,38.4 71,38.3 C70.8,38.1 70.7,37.8 70.5,37.8 C70.7,37.9 70.9,38.2 71,38.3 L71,38.3 Z M70.4,37.9 C70.3,37.9 70.2,38 70.1,38.2 L69.9,38.2 L70.1,38.2 C70.2,38 70.3,37.9 70.4,37.9 L70.4,37.9 Z M68.7,36.2 C68.5,35.9 68.2,35.5 67.9,35.5 C68.3,35.5 68.5,35.8 68.7,36.2 L68.7,36.2 Z M32.8,33.8 C32.8,33.8 32.7,33.8 32.7,33.9 C32.7,33.9 32.8,33.9 32.8,33.8 L32.8,33.8 Z M33,38.5 C33.3,39.1 33.5,39.7 33.6,40.3 C33.5,39.6 33.3,39.1 33,38.5 C32.5,37.5 32.5,36.4 32.4,35.3 C32.6,36.4 32.6,37.5 33,38.5 L33,38.5 Z M35.8,41.9 C35.3,39.8 34.4,37.8 33.7,35.8 C33.7,35.7 33.6,35.6 33.6,35.5 C33.6,35.6 33.7,35.7 33.7,35.8 C34.5,37.9 35.3,39.8 35.8,41.9 C36.1,43 36.4,44.2 36.7,45.3 C36.5,44.2 36.1,43.1 35.8,41.9 L35.8,41.9 Z M33.4,34.1 C33.4,33.8 33.5,33.6 33.6,33.5 C33.4,33.6 33.4,33.8 33.4,34.1 C33.4,34.3 33.4,34.5 33.5,34.7 C33.4,34.5 33.4,34.3 33.4,34.1 L33.4,34.1 Z M41.4,30.8 C41.7,30.7 42,30.6 42.2,30.5 C42,30.6 41.7,30.7 41.4,30.8 C41.1,30.9 40.9,31 40.6,31.1 C40.9,31 41.2,30.9 41.4,30.8 L41.4,30.8 Z M45.3,29.6 C45.6,29.5 45.7,29.4 45.9,29.2 C45.7,29.4 45.6,29.6 45.3,29.6 C45,29.7 44.8,29.7 44.5,29.8 C44.8,29.8 45,29.7 45.3,29.6 L45.3,29.6 Z M61.7,20.7 C62.1,21.3 62.3,22 62.4,22.8 C62.2,22 62,21.3 61.7,20.7 C61.4,20.2 62.1,18.6 60.7,19.2 C59.9,19.5 59.4,20.6 58.8,21.3 C58,21.8 57.1,22.2 56.3,22.8 C55.4,23.4 54.6,24.1 53.7,24.7 C54.6,24.1 55.4,23.4 56.3,22.8 C57.1,22.2 58,21.8 58.8,21.3 C59.4,20.6 59.9,19.5 60.7,19.2 C62.1,18.7 61.3,20.2 61.7,20.7 L61.7,20.7 Z M67.4,36.6 C67.5,36.7 67.5,36.8 67.5,36.9 C67.5,36.8 67.4,36.7 67.4,36.6 C67.3,36.4 67.4,35.8 67.5,35.6 C67.3,35.8 67.2,36.4 67.4,36.6 L67.4,36.6 Z M64.2,25.3 C64.3,25.4 64.4,25.5 64.5,25.5 L64.5,25.5 L64.5,25.5 C64.5,25.5 64.3,25.4 64.2,25.3 L64.2,25.3 Z M49.7,27.1 L50,26.8 C49.9,27 49.8,27.1 49.7,27.1 L49.7,27.1 Z M49.8,31.6 C49.7,31.3 49.7,31.1 49.7,30.8 C49.7,31.1 49.7,31.3 49.8,31.6 C49.8,31.8 49.6,32 49.5,32.2 C49.4,31.9 49.2,31.7 49,31.5 C49.2,31.7 49.4,31.9 49.5,32.2 C49.6,32 49.8,31.8 49.8,31.6 L49.8,31.6 Z M49.8,28 C49.5,26.9 50.8,26.8 51.3,26.6 C53.3,25.6 54.9,24.2 56.6,23 C57.3,22.5 58.1,22 58.8,21.5 C59.2,21.1 59.7,20.7 60.1,20.2 C61,19 61.2,19.5 61.5,20.6 C62.7,24.6 64,28.6 65.3,32.6 C65.3,32.7 65.3,32.8 65.4,33 C65.4,33 65.4,33 65.4,33.1 C65.4,33.2 65.5,33.2 65.5,33.3 C65.7,33.8 65.9,34.2 66,34.7 C67.6,37.6 66,40.7 66,43.6 C66,45.7 65.9,47.2 65.9,50.2 L65.9,50.2 L65.6,50 L65.6,49.9 C65.6,49.9 65.7,49.8 65.7,49.9 L65.5,50.1 L65.5,50.1 L65.5,50.1 C65.5,50.1 65.5,50 65.4,50 L65.3,49.9 C62.8,48.6 60.4,47.3 57.9,45.9 C57.7,45.8 57.4,45.6 57.2,45.6 C57.4,45.6 57.7,45.7 57.9,45.8 C60.4,47.1 62.8,48.4 65.3,49.8 C64.8,49 63.9,48.7 63.2,48.2 C61.9,47.6 60.7,46.9 59.4,46.3 C56.3,45.5 54.9,43.1 53.9,40.3 C53.2,38.3 52.2,36.4 51.5,34.4 C51,32 50.3,30 49.8,28 L49.8,28 Z M63.6,24.3 C63.6,24.4 63.7,24.4 63.7,24.5 C63.7,24.6 63.7,24.6 63.8,24.7 C63.8,24.8 63.9,24.8 63.9,24.9 C63.9,24.8 63.8,24.8 63.8,24.7 C63.8,24.6 63.7,24.6 63.7,24.5 C63.6,24.4 63.6,24.3 63.6,24.3 L63.6,24.3 Z M57,45.8 C56.9,45.8 56.9,45.7 56.9,45.6 C56.9,45.7 56.9,45.7 57,45.8 L57,45.8 Z M57.1,46.8 C57.4,46.7 57.3,46.5 57.3,46.4 C57.3,46.5 57.4,46.7 57.1,46.8 C56.9,46.8 56.6,47 56.4,46.9 C56.6,46.9 56.9,46.8 57.1,46.8 L57.1,46.8 Z M56.1,46.3 L56.1,46.3 L56.1,46.3 L56.1,46.3 Z M56.2,46.4 L56.2,46.4 C56.2,46.6 56.3,46.7 56.3,46.8 C56.3,46.7 56.2,46.5 56.2,46.4 L56.2,46.4 Z M54.8,46.4 C54.9,46.4 55,46.3 55.1,46.3 C55,46.4 54.9,46.4 54.8,46.4 C55,47 54.9,47.4 54.6,47.8 C54.9,47.5 55.1,47 54.8,46.4 L54.8,46.4 Z M55.3,50.4 C55.3,49.9 55.4,49.5 55.6,49 C55.7,48.9 55.7,48.8 55.8,48.7 C55.7,48.8 55.7,48.9 55.6,49 C55.4,49.4 55.3,49.9 55.3,50.4 L55.3,50.4 Z M58.9,48.4 C60.9,49.3 62.7,50.4 64.6,51.5 C62.8,50.4 60.9,49.2 58.9,48.4 C58.8,48.4 58.7,48.3 58.6,48.3 C58.8,48.3 58.9,48.3 58.9,48.4 L58.9,48.4 Z M66.2,52.5 C66.1,52.4 65.9,52.3 65.8,52.2 C66,52.3 66.1,52.4 66.2,52.5 L66.2,52.5 Z M66.8,53.6 C66.7,53.6 66.6,53.7 66.6,53.7 C66.4,53.8 66.2,53.9 66.1,54 C66.2,53.9 66.4,53.8 66.6,53.7 C66.6,53.7 66.7,53.7 66.8,53.6 L66.8,53.6 Z M67,53.2 L67,53.4 L67,53.2 L67,53.2 Z M67.6,32.4 C67.6,32.5 67.7,32.5 67.7,32.6 L67.7,32.6 L67.7,32.6 L67.7,32.6 L67.7,32.6 C67.7,32.5 67.6,32.5 67.6,32.4 L67.6,32.4 L67.6,32.4 Z M64,22.7 C63.9,22.5 63.9,22.3 63.7,22.1 C63.2,21.3 62.9,20.3 62.6,19.3 C62.9,20.3 63.2,21.2 63.7,22.1 C63.9,22.3 64,22.5 64,22.7 L64,22.7 Z M62.2,16.8 C62.4,16.2 62.9,15.6 63.1,15.1 C63.3,14.7 63.5,14.2 63.6,13.8 C63.4,14.2 63.2,14.7 63.1,15.1 C62.9,15.7 62.4,16.3 62.2,16.8 L62.2,16.8 Z M64.5,7.5 L64.5,7.3 L64.5,7.3 L64.5,7.5 L64.5,7.5 Z M63,6.1 C63.6,6 64.2,6.3 64.5,6.8 C64.2,6.2 63.5,6 63,6.1 C62.9,6.1 62.8,6.2 62.8,6.3 C62.8,6.1 62.8,6.1 63,6.1 L63,6.1 Z M62.7,6.2 C62.6,6.4 62.7,6.6 62.8,6.9 C62.7,6.6 62.7,6.4 62.7,6.2 L62.7,6.2 Z M53.2,23.2 L53.2,23.2 C53.5,22.9 53.8,22.7 54.1,22.4 C54.5,22 55,21.7 55.4,21.3 C57.6,19.6 60.1,18.2 61.2,15.5 C61.6,14.5 62,13.4 62.3,12.4 C62,13.5 61.7,14.5 61.2,15.5 C60.1,18.1 57.6,19.6 55.4,21.3 C55,21.6 54.5,22 54.1,22.4 C53.8,22.6 53.5,22.9 53.2,23.2 L53.2,23.2 L53.2,23.2 L53.2,23.2 Z M53.2,23.4 L53.2,23.4 C53.1,23.6 52.9,23.7 52.7,23.8 C52.9,23.7 53.1,23.6 53.2,23.4 L53.2,23.4 Z M48.6,25.8 C48.8,25.7 48.9,25.7 49.1,25.6 C48.9,25.7 48.7,25.8 48.6,25.8 C48.1,26 47.7,26.2 47.2,26.4 C47.6,26.2 48.1,26 48.6,25.8 L48.6,25.8 Z M48.2,28.9 C47.9,28.6 47.4,28.5 46.5,28.9 C47.4,28.5 47.9,28.6 48.2,28.9 L48.2,28.9 Z M33.2,31.8 C33.5,31.7 33.7,31.6 34,31.5 C33.7,31.6 33.4,31.7 33.2,31.8 C32.8,32 31.6,32.4 32.1,33.2 C31.5,32.4 32.7,32 33.2,31.8 L33.2,31.8 Z M31.9,35.6 C32.9,38.9 33.9,42.2 34.7,45.5 C35.2,47.6 35.6,49.7 35.7,51.8 C36,56.3 34.5,60.6 33.2,64.8 C33,65.4 32.9,66.3 32.4,66.5 C31.7,66.9 31.2,66 30.7,65.6 C30.3,65.4 30,65.1 29.7,64.8 L29.7,64.8 L29.7,64.8 L29.7,64.8 C29.5,64.6 29.4,64.3 29.2,64.1 C27.8,62.8 26.4,61.4 25,60.1 C23.8,59 23.2,57.4 21.6,56.8 L21.6,56.8 C20.9,56.2 20.1,55.6 19.3,55 C19.2,54.9 19.1,54.8 19,54.7 C19.1,54.8 19.2,54.9 19.3,55 C20,55.6 20.8,56.2 21.6,56.8 C20.6,55.8 19.5,54.7 18.5,53.6 C17.3,52.3 15.6,51.5 15.2,49.5 C14.7,46.6 14.1,43.7 13.6,40.8 C13.5,40 13,38.7 14.2,38.6 C15.4,38.5 16.6,38.5 17.8,38.3 C18.9,38.1 19.9,37.7 20.9,37.4 L20.9,37.4 C21.1,37.4 21.2,37.3 21.4,37.3 C22,37.1 22.6,37 23.2,36.8 C24.3,36.8 25.4,36.4 26.3,35.9 C27.8,35.1 29.3,34.4 30.9,34 C32.6,33.9 31.8,35.3 31.9,35.6 L31.9,35.6 Z M23.3,58.8 C23.1,58.6 22.9,58.3 22.7,58.1 C22.5,57.8 22.1,57.7 21.9,57.4 C22.1,57.7 22.5,57.8 22.7,58 C22.9,58.3 23.1,58.5 23.3,58.8 L23.3,58.8 Z M14.1,38.5 C13.3,38.7 13,39.5 13.1,40.3 C13.5,43.1 14.2,45.8 14.8,48.5 L14.8,48.7 L14.8,48.5 C14.2,45.8 13.5,43.1 13.1,40.3 C13,39.5 13.2,38.7 14.1,38.5 L14.1,38.5 Z M17.8,53.7 C17,52.9 16.1,52.1 15.4,51.2 C16.1,52.1 17,52.9 17.8,53.7 L17.8,53.7 Z M16,38.4 C17.1,38.3 18.3,38 19.4,37.8 C18.3,38.1 17.2,38.4 16,38.4 L16,38.4 Z M26.2,35 C26.1,35.1 26.1,35.3 26.1,35.4 C26.1,35.4 26.1,35.5 26,35.5 L26.1,35.4 C26.1,35.3 26.2,35.2 26.2,35 L26.2,35 Z M23.8,36.7 C24.3,36.4 24.7,36 25.3,35.9 C24.7,36 24.3,36.4 23.8,36.7 L23.8,36.7 Z M25.3,35.9 L25.4,35.9 L25.3,35.9 L25.3,35.9 Z M25.8,33.6 C25.9,33.6 26,33.6 26.1,33.5 C25.9,33.5 25.8,33.6 25.8,33.6 C22.8,34.1 19.9,35.1 16.9,35.8 C15.8,36.1 14.6,36.1 13.4,36.2 C14.6,36.1 15.7,36 16.9,35.8 C19.8,35.1 22.8,34.1 25.8,33.6 L25.8,33.6 Z M7.2,36.3 C8.2,36.4 9.2,36.6 10.3,36.4 L10.3,36.4 L10.3,36.4 C9.3,36.6 8.3,36.4 7.2,36.3 C6.4,36.2 5.6,35.8 5,35.2 C5.7,35.8 6.4,36.2 7.2,36.3 L7.2,36.3 Z M2.5,26.1 C2.4,26.1 2.4,26.1 2.5,26.1 C2.4,26.1 2.4,26.1 2.5,26.1 L2.5,26.1 Z M2.8,27.5 C3,28.5 3.2,29.5 3.3,30.6 C3.1,29.6 3,28.6 2.8,27.5 L2.8,27.5 Z M6.6,37.3 C6.4,37.3 6.3,37.2 6.1,37.2 C6.3,37.3 6.4,37.3 6.6,37.3 C7.8,37.5 9,38 10.2,38.3 C9,38.1 7.8,37.6 6.6,37.3 L6.6,37.3 Z M11.6,67.5 L11.6,67.5 C11.7,66.9 11.8,66.3 11.9,65.8 C11.8,66.3 11.7,66.9 11.6,67.5 L11.6,67.5 L11.6,67.5 Z M12.2,64 C12.4,62.7 12.6,61.4 12.8,60.1 C12.8,59.8 12.9,59.4 12.9,59.1 C12.9,59.4 12.9,59.8 12.8,60.1 C12.6,61.4 12.4,62.7 12.2,64 L12.2,64 Z M13.3,53.1 C13.2,53.5 13.2,53.9 13.2,54.2 C13.2,53.9 13.2,53.5 13.3,53.1 C13.6,51.5 13.5,50.1 13.2,48.6 C13.5,50.1 13.6,51.6 13.3,53.1 L13.3,53.1 Z M29.1,68.6 C28.4,68.7 27.7,68.7 27,68.8 C24.9,68.9 22.8,69 20.8,69.5 C20.2,69.7 19.6,69.7 19.1,69.7 C18.2,69.7 17.4,69.6 16.5,69.4 C16.1,69.3 15.6,69.3 15.2,69.2 C14.8,69.2 14.3,69.1 13.9,69.2 C13.8,69.2 13.7,69.1 13.6,68.9 C13.5,68.4 13.7,67.5 13.7,67 C13.9,65.9 14.1,64.8 14.3,63.8 C14.6,62.4 14.8,61 14.9,59.6 C15,58.3 15.3,56.9 14.8,55.6 L14.8,55.4 C15.1,55.3 15.4,55.3 15.6,55.3 C15.7,55.3 15.8,55.4 15.8,55.4 L15.9,55.4 C16.2,55.6 16.4,55.8 16.6,56.1 L16.6,56.1 L16.6,56.1 C16.7,56.3 16.9,56.4 17,56.6 C20.8,60.8 24.9,64.6 29.4,68.1 C29.5,68.1 29.5,68.2 29.5,68.3 L29.5,68.3 C29.5,68.5 29.3,68.6 29.1,68.6 L29.1,68.6 Z M29.7,65.1 C29.7,65.1 29.7,65.2 29.7,65.1 C29.7,65.2 29.7,65.1 29.7,65.1 L29.7,65.1 L29.7,65.1 Z M35.5,57 C35.3,57.5 35.2,58 35.2,58.6 C35.2,58 35.3,57.5 35.5,57 L35.5,57 Z M48.5,63 L48.8,63 L48.7,63 C44.7,63 40.5,66.1 36.2,67.1 C35.9,67.2 35.8,67.1 35.8,67 C35.7,66.8 35.8,66.6 35.9,66.4 C36.6,63.3 37.4,60.2 38.3,57.1 C38.5,56.6 39.6,55.8 40.3,56.4 C40.7,56.7 41.1,57.1 41.5,57.5 C43.1,58.9 44.6,60.3 46.3,61.5 C46.6,61.7 46.9,62 47.3,62.2 L47.3,62.2 L47.4,62.3 C47.5,62.3 47.5,62.4 47.6,62.4 C47.9,62.5 48.2,62.7 48.6,62.8 L48.7,62.8 C48.8,62.9 48.9,62.9 48.9,63 L48.9,63 L48.8,63 L48.5,63 L48.5,63 L48.5,63 Z M46.4,58.4 C47,59 47.7,59.5 48.3,60.1 L48.4,60.2 L48.3,60.1 C47.7,59.5 47,58.9 46.4,58.4 L46.4,58.4 Z M48.7,60.4 L48.7,60.4 C49.2,60.2 49.5,59.8 49.8,59.3 C49.5,59.7 49.2,60.1 48.7,60.4 L48.7,60.4 Z M50.6,57.7 C50.6,57.8 50.6,57.8 50.6,57.7 C50.5,57.8 50.7,57.8 50.6,57.7 C50.5,58 50.5,58.2 50.5,58.4 L50.5,58.4 L50.5,58.4 L50.3,58.4 C50.1,58.5 49.8,58.7 49.6,58.8 C49.3,59.2 49.4,60.2 48.4,60 C46.4,57.8 44.2,55.8 41.7,54.1 C38.3,51.8 37.6,48.1 36.8,44.5 C36.1,40.9 34.5,37.6 33.6,34.1 C33.5,33.8 33.6,33.7 33.9,33.6 C37.1,32.5 40.2,31.4 43.4,30.5 C44.9,30.1 46.3,29.6 47.6,28.8 C47.7,28.7 47.8,28.9 47.9,29.1 C47.9,29.2 48,29.3 48,29.4 C48.1,29.8 48.2,30.2 48.2,30.7 C48.5,31.8 48.9,32.8 49.2,33.9 C50.2,36.2 51.3,38.5 52.2,40.9 C52.9,42.6 54.4,44.2 54,46.1 C53.6,48.4 52.8,50.6 52.1,52.8 C52,53.3 51.8,53.8 51.7,54.3 C51.6,54.6 51.6,54.9 51.5,55.1 L51.5,55.1 L51.5,55.2 C51.5,55.2 51.5,55.2 51.5,55.3 C51.5,55.7 51.3,56.2 51.1,56.6 C51,56.8 50.6,57.1 50.6,57.2 L50.6,57.2 L50.8,57.3 C50.8,57.3 50.9,57.4 50.8,57.4 C50.8,57.4 50.8,57.4 50.8,57.5 C50.7,57.6 50.7,57.7 50.6,57.7 L50.6,57.7 Z M53.9,48.7 L53.8,48.8 C52.7,50.3 52.6,52 52.1,53.6 C52.5,52 52.6,50.2 53.8,48.8 C53.9,48.8 53.9,48.7 53.9,48.7 L53.9,48.7 Z M59.4,59.6 C59.4,59.6 59.3,59.5 59.4,59.6 C59.3,59.5 59.4,59.6 59.4,59.6 L59.4,59.6 L59.4,59.6 Z M59.1,59.9 C59,59.8 59,59.8 58.9,59.8 C58.9,59.8 59,59.8 59.1,59.9 C59.2,59.8 59.3,59.8 59.3,59.7 C59.2,59.7 59.1,59.8 59.1,59.9 L59.1,59.9 Z M63.9,57.4 L63.9,57.4 L63.9,57.4 L63.9,57.4 L63.9,57.4 L63.9,57.4 Z M56.3,59.8 C56,60 55.7,60.1 55.3,60.3 C54.4,60.7 53.6,61.1 52.7,61.6 C52.1,61.8 51.6,62 51,62.2 L50.9,62.2 L50.9,62.2 L50.7,62.3 L50.4,62.4 L50.4,62.4 L50.6,62.4 L50.5,62.4 L50.4,62.4 L50.4,62.4 L50.6,62.4 L50.7,62.3 L50.8,62.2 C51.2,61.3 51.7,60.4 52.1,59.5 C52.1,59.3 52,59 52.3,59 L52.3,59 L52.3,59 C52.3,59 52.3,59 52.3,58.9 C52.3,58.7 52.3,58.6 52.4,58.4 L52.4,58.4 C52.4,58.4 52.4,58.4 52.4,58.3 C52.4,58.3 52.4,58.3 52.4,58.2 L52.4,58.2 L52.4,58.2 L52.4,58.2 L52.4,58.2 L52.5,58.2 L52.6,58.1 L52.6,58.1 L52.8,57.9 L52.8,57.9 C53.1,57.1 53.4,56.3 53.7,55.5 C53.8,55.2 54,54.8 54.2,54.5 C54,54.8 53.9,55.2 53.7,55.5 C53.4,56.3 53.1,57.1 52.8,57.9 C53.4,56.8 54,55.6 54.6,54.5 C54.6,54.5 54.6,54.4 54.7,54.4 C54.7,54.4 54.7,54.4 54.7,54.3 C55.6,52.7 55.5,50.9 56.2,49.2 C56.6,48.1 57.9,47.9 58.7,48.8 C60.9,49.7 63,50.8 65,52.1 C66.1,52.8 67.3,53.3 65.2,54.3 C65.1,54.3 65,54.5 65,54.6 L65,54.8 L65,54.6 C62.3,56.5 59.4,58.2 56.3,59.8 L56.3,59.8 Z M65.8,54.3 C65.8,54.3 65.7,54.4 65.7,54.5 L65.7,54.5 L65.7,54.5 C65.7,54.4 65.7,54.4 65.8,54.3 L65.8,54.3 Z M65.1,54.8 C65.1,54.8 65.1,54.9 65.1,54.8 L65.1,54.9 C65.1,55 65.1,54.9 65.1,54.8 C65.1,54.9 65.1,54.9 65.1,54.8 L65.1,54.8 Z M65.5,56.4 L65.5,56.4 L65.5,56.4 L65.6,56.4 C65.6,56.4 65.6,56.4 65.5,56.4 L65.5,56.4 Z M65.5,55.3 L65.5,55.3 C65.4,55.3 65.4,55.3 65.5,55.3 C65.4,55.3 65.4,55.3 65.5,55.3 L65.5,55.3 C65.7,55.4 66,55.4 66.3,55.5 L66.4,55.5 C66.4,55.5 66.4,55.5 66.3,55.5 C66,55.4 65.7,55.4 65.5,55.3 L65.5,55.3 Z M66.4,55.5 L66.4,55.9 C66.4,55.8 66.5,56 66.5,56 L66.6,56 L66.6,55.8 L66.6,56 L66.4,56 C66,55 65.8,55.1 65.8,54.9 L65.8,54.7 L65.8,54.7 C65.7,54.9 65.9,55.2 66.4,55.5 C67.2,55.3 68.1,55.1 68.6,54.5 C68.7,54.4 68.7,54.3 68.8,54.2 C68.8,54.3 68.7,54.4 68.6,54.5 C68,55.1 67.2,55.3 66.4,55.5 L66.4,55.5 Z M68.9,53.7 C68.9,53.8 68.8,53.9 68.8,54 C68.8,53.9 68.8,53.8 68.9,53.7 C68.9,53.6 69.1,53.3 69,53 C69,53.2 68.9,53.5 68.9,53.7 L68.9,53.7 Z M69,52.1 C68.8,52.2 68.6,52.2 68.5,52.2 C68.5,52.1 68.4,51.9 68.4,51.8 C68.8,48.4 69.3,45 69.7,41.6 C69.8,41.2 69.9,40.9 70,40.5 C70.2,40.9 70.4,41.3 70.6,41.7 C70.7,41.9 70.8,42 70.9,42.1 C71.1,42.8 71.2,43.5 71.4,44.2 L71.4,44.2 L71.5,44.3 C72.3,44.8 72.1,46 73,46.4 C73.1,46.6 73.2,46.7 73.3,46.9 C73.5,47.3 73.5,47.7 73.2,48.2 C73.1,48.3 73,48.4 72.9,48.6 C71.6,49.7 70.5,51.1 69,52.1 L69,52.1 Z M71.6,51.5 C71.8,51.2 71.8,51 71.9,50.7 C71.9,51 71.8,51.3 71.6,51.5 L71.6,51.7 L71.6,51.5 L71.6,51.5 Z M72,52 C72.2,52.1 72.4,52.2 72.5,51.9 C72.4,52.2 72.2,52.1 72,52 L72,52 Z M73.8,47.2 C73.7,47.8 74,48.3 74.3,48.8 C74,48.3 73.7,47.8 73.8,47.2 L73.8,47.2 Z M74.2,46.6 C74.5,46.9 74.8,46.9 75.4,46.7 C75.8,46.5 76,46.5 76.1,46.6 C76,46.5 75.8,46.5 75.4,46.7 C74.9,46.9 74.5,46.9 74.2,46.6 L74.2,46.6 Z" id="Shape" fill="#176F9C"></path>
                <path d="M3.4,26.2 C3.5,26.5 3.6,26.8 3.7,27.1 C4.1,28 4.8,28.8 5.8,29.4 C5.2,28.2 3.8,27.4 3.8,26 C3.8,25.2 4,24.4 4,23.7 C3.9,23.8 3.8,23.9 3.7,23.9 C3.3,24.7 3.3,25.5 3.4,26.2 L3.4,26.2 Z" id="Shape" fill="#534539"></path>
                <path d="M9.2,60.4 C9.4,61.1 9.6,61.7 9.8,62.4 C10,61.6 10.2,60.8 9.2,60.4 L9.2,60.4 Z" id="Shape" fill="#D6806A"></path>
                <path d="M65.2,12.5 C65.4,13.4 65.6,14.3 65.9,15.2 C65.8,14.2 65.6,13.3 65.2,12.5 L65.2,12.5 Z" id="Shape" fill="#D6806A"></path>
                <path id="Shape" fill="#D6806A"></path>
                <path id="Shape" fill="#D6806A"></path>
                <path id="Shape" fill="#D6806A"></path>
                <path id="Shape" fill="#D6806A"></path>
                <g transform="translate(3.000000, 37.000000)" id="Shape" fill="#D3753A">
                    <path d="M9,7.5 C8.5,5.7 8.2,3.8 7.8,2 C7.8,1.9 7.6,1.6 7.5,1.6 C5.1,1.6 3.1,-0.1 0.6,0.2 C0.7,0.6 0.8,1 1,1.4 C2.6,5.1 3,9 3.7,12.9 C3.7,12.9 3.8,12.9 3.8,13 L3.8,13 C3.8,13.1 3.8,13.1 3.9,13.2 L3.9,13.5 C4,14.2 4.2,14.8 4.3,15.5 C4.3,15.6 4.3,15.7 4.4,15.8 L4.4,15.9 C4.4,16 4.4,16.2 4.5,16.4 C4.5,16.6 4.6,17 4.6,17 L4.6,17 C4.6,17.2 4.7,17.3 4.7,17.5 L4.9,17.5 C5,17.9 4.4,18.3 5.4,18.7 L5.4,18.7 C5.4,18.6 5.2,18.6 5.2,18.5 L5.1,18.5 L5.1,18.3 L5.1,18.2 L5.3,18.2 L5.5,18.1 L5.5,18.1 L5.3,18 L5.2,18 L5.3,18 L5.4,18.1 L5.4,18.1 L5.2,18.2 L5.1,18.2 L5,18.3 C5,18.4 5,18.4 4.9,18.5 L4.9,18.5 L4.9,18.7 L4.9,18.9 L4.9,19.1 C5,19.3 5,19.5 5.1,19.7 L5.1,19.7 C5.3,19.9 5.4,20.1 5.3,20.3 C5.3,20.1 5.3,19.9 5.1,19.7 C5.2,20 5.2,20.3 5.3,20.5 L5.3,20.7 C6,20.8 5.6,21.3 5.6,21.7 L5.6,21.8 C6.1,22 5.8,22.5 5.9,22.9 C5.9,23 5.9,23.2 6,23.3 L6,23.4 L6,23.4 C6.9,23.9 6.8,24.6 6.6,25.4 L6.6,25.5 C7.1,27.1 7.6,28.6 8.1,30.2 C8.4,28.7 8.6,27.1 8.9,25.6 C9.5,23.6 9.2,21.4 9.5,19.4 C10.4,15.3 10.1,11.4 9,7.5 L9,7.5 Z"></path>
                </g>
                <path d="M23.3,37.1 C22.7,37.3 22.1,37.4 21.5,37.6 C21.3,37.6 21.2,37.7 21,37.7 C20,38 18.9,38.4 17.9,38.6 C16.7,38.8 15.5,38.8 14.3,38.9 C13.1,39 13.5,40.3 13.7,41.1 C14.2,44 14.8,46.9 15.3,49.8 C15.7,51.8 17.4,52.6 18.6,53.9 C19.6,55 20.7,56 21.7,57.1 L21.7,57.1 L21.7,57.1 C23.3,57.7 23.9,59.3 25.1,60.4 C26.5,61.7 27.9,63 29.3,64.4 C29.5,64.6 29.6,64.8 29.8,65.1 L29.8,65.1 L29.8,65.1 C30.1,65.4 30.4,65.7 30.8,65.9 C31.4,66.2 31.8,67.2 32.5,66.8 C32.9,66.5 33.1,65.7 33.3,65.1 C34.6,60.8 36.1,56.6 35.8,52.1 C35.7,50 35.3,47.9 34.8,45.8 C34,42.5 33.1,39.1 32,35.9 C31.9,35.5 32.7,34.2 31.1,34.5 C29.5,34.9 28,35.5 26.5,36.4 C25.5,36.7 24.4,37.1 23.3,37.1 L23.3,37.1 Z" id="Shape" fill="#D3753A"></path>
                <path d="M65.1,54 L65.3,54 C67.4,53.1 66.2,52.7 65.1,52 C63.1,50.7 61,49.7 58.8,48.8 C57.9,47.9 56.7,48.1 56.3,49.2 C55.6,50.8 55.8,52.7 54.8,54.3 C54.8,54.3 54.8,54.3 54.8,54.4 C54.8,54.4 54.8,54.5 54.7,54.5 C54.1,55.6 53.5,56.8 52.9,57.9 L52.9,57.9 C52.7,58.3 52.6,58.6 52.4,59 L52.4,59 C52.3,59.2 52.2,59.4 52.2,59.5 C51.8,60.4 51.4,61.2 51,62.1 C51,62.1 51,62 51.1,62 L51.1,62 L51.1,62.1 L51.2,62.1 C51.8,61.9 52.3,61.7 52.9,61.5 C53.8,61.1 54.6,60.7 55.5,60.3 C55.8,60.1 56.1,60.2 56.5,60.1 C59.5,58.5 62.5,56 65.2,55 L65.1,54 L65.1,54 Z M57.6,51.4 L57.7,51.5 L57.6,51.6 C57.6,51.6 57.6,51.5 57.5,51.5 C57.5,51.4 57.5,51.4 57.6,51.4 L57.6,51.4 Z" id="Shape" fill="#D3753A"></path>
                <path d="M48.8,63 C48.7,62.9 48.6,62.9 48.6,62.8 C48.6,62.8 48.6,62.8 48.5,62.8 C48,62.8 47.7,62.6 47.3,62.3 L47.3,62.3 L47.2,62.2 L47.2,62.2 C46.9,62 46.5,61.7 46.2,61.5 C44.5,60.3 43,58.9 41.4,57.5 C41,57.1 40.6,56.8 40.2,56.4 C39.5,55.8 38.4,56.6 38.2,57.1 C37.3,60.2 36.6,63.3 35.8,66.4 C35.8,66.5 35.7,66.8 35.7,67 C35.7,67.1 35.9,67.2 36.2,67.1 C40.6,66.1 44.8,65 48.8,63 L48.8,63 C48.8,63.1 48.8,63.1 48.8,63 L48.8,63 L48.8,63 L48.8,63 Z" id="Shape" fill="#D3753A"></path>
                <path d="M72.9,48.6 C73,48.5 73.1,48.4 73.2,48.2 C73.5,47.8 73.5,47.4 73.3,46.9 C73.2,46.7 73.1,46.6 73,46.4 C72.1,46 72.2,44.8 71.5,44.3 L71.4,44.2 L71.4,44.2 C71.2,44.2 71.1,44.1 71,44 L70.9,43.9 C70.4,43.2 70.5,42.2 69.7,41.6 C69.3,45 68.8,48.4 68.4,51.8 C68.4,51.9 68.5,52.1 68.5,52.2 C68.7,52.1 68.8,52.2 69,52.1 C70.5,51.1 71.6,49.7 72.9,48.6 L72.9,48.6 Z" id="Shape" fill="#D3753A"></path>
                <path id="Shape" stroke="#534539"></path>
                <path id="Shape" stroke="#534539"></path>
                <path d="M50.5,57.8 C50.6,57.6 50.7,57.5 50.8,57.3 L50.8,57.3 L50.8,57.3 C51,56.7 51.2,56 51.4,55.4 L51.4,55.4 L51.4,55.3 L51.4,55.3 C51.5,55 51.5,54.7 51.6,54.5 C51.3,54.6 51.2,54.9 51.1,55.3 C51,56.4 50.2,57 49.5,57.7 C49.1,58.1 49.5,58.5 49.4,58.9 C49.6,58.8 49.8,58.6 50,58.5 L50,58.5 C50.2,58.2 50.3,58 50.5,57.8 L50.5,57.8 L50.5,57.8 Z" id="Shape" fill="#D6806A"></path>
                <path d="M50.8,57.3 L50.8,57.3 L50.8,57.3 C51,57.1 51.1,56.9 51.2,56.6 C51.4,56.2 51.4,55.8 51.4,55.3 C51.2,56 51,56.7 50.8,57.3 L50.8,57.3 Z" id="Shape" fill="#534539"></path>
                <path d="M48.5,62.8 C48.2,62.7 47.9,62.5 47.5,62.4 C47.4,62.4 47.4,62.3 47.3,62.3 L47.3,62.3 C47.7,62.6 48,62.8 48.5,62.8 L48.5,62.8 Z" id="Shape" fill="#534539"></path>
                <path id="Shape" fill="#CF6854"></path>
                <path d="M52.4,59 L52.4,59 C52.6,58.6 52.7,58.3 52.9,57.9 C52.8,58 52.7,58 52.7,58.1 L52.7,58.1 C52.7,58.1 52.7,58.2 52.6,58.2 L52.6,58.2 L52.6,58.2 L52.6,58.2 L52.6,58.2 C52.6,58.2 52.6,58.2 52.6,58.3 C52.6,58.3 52.6,58.3 52.6,58.4 L52.6,58.4 C52.5,58.6 52.4,58.8 52.4,59 L52.4,59 L52.4,59 L52.4,59 C52.1,59.1 52.2,59.3 52.2,59.5 C52.3,59.4 52.3,59.2 52.4,59 L52.4,59 Z" id="Shape" fill="#534539"></path>
                <path id="Shape" fill="#534539"></path>
                <path id="Shape" fill="#534539"></path>
                <path d="M27.6,27.9 C26.7,28 25.8,28.1 25,28.6 C26,28.5 27.1,28.4 28,27.8 C27.9,27.9 27.8,27.9 27.6,27.9 L27.6,27.9 Z" id="Shape" fill="#385458"></path>
                <path d="M44.7,22.5 C45.4,22.2 46.2,21.9 46.9,21.5 C45.8,21.8 44.8,22.2 43.7,22.5 L44.7,22.5 L44.7,22.5 Z" id="Shape" fill="#385458"></path>
                <path d="M40.1,23.7 C40.8,23.5 41.4,23.3 42.1,23.1 C41.4,23.1 40.7,23.3 40.1,23.7 L40.1,23.7 Z" id="Shape" fill="#385458"></path>
                <path d="M57.4,10.2 C57.1,10.6 56.9,11 56.6,11.4 C57,11.1 57.5,10.9 57.4,10.2 L57.4,10.2 Z" id="Shape" fill="#385458"></path>
                <path id="Shape" fill="#385458"></path>
                <path id="Shape" fill="#385458"></path>
                <path id="Shape" fill="#385458"></path>
                <path id="Shape" fill="#385458"></path>
                <path id="Shape" fill="#385458"></path>
                <path id="Shape" fill="#385458"></path>
                <path id="Shape" stroke="#385458"></path>
                <path id="Shape" fill="#534539"></path>
                <rect id="Rectangle-path" fill="#CF6854" x="62.9" y="68.4" width="-0.1" height="-0.1"></rect>
                <path id="Shape" fill="#CF6854"></path>
                <path id="Shape" fill="#CF6854"></path>
                <path id="Shape" fill="#CF6854"></path>
                <path id="Shape" fill="#CF6854"></path>
                <path d="M20.8,69.5 C22.8,69 24.9,69 27,68.8 C27.7,68.8 28.4,68.7 29.1,68.6 C29.3,68.6 29.5,68.5 29.7,68.4 L29.7,68.4 C29.7,68.3 29.6,68.3 29.6,68.2 C25.1,64.7 21,60.9 17.2,56.7 C17.1,56.6 16.9,56.4 16.8,56.2 L16.8,56.2 L16.8,56.2 C16.6,55.9 16.4,55.7 16.1,55.5 L16,55.5 C15.9,55.5 15.9,55.4 15.8,55.4 C15.6,55.3 15.3,55.4 15,55.5 L15,55.7 C15.6,57 15.2,58.4 15.1,59.7 C15,61.1 14.8,62.5 14.5,63.9 C14.3,65 14.1,66.1 13.9,67.1 C13.9,67.7 13.7,68.6 13.8,69 C13.8,69.2 13.9,69.3 14.1,69.3 L15.4,69.3 C15.8,69.3 16.3,69.4 16.7,69.5 C17.6,69.6 18.4,69.7 19.3,69.8 C19.6,69.7 20.2,69.6 20.8,69.5 L20.8,69.5 Z M14.4,66.1 L14.4,66.1 L14.4,66.1 C14.4,66.2 14.4,66.2 14.4,66.1 L14.4,66.1 L14.4,66.1 Z" id="Shape" fill="#D3753A"></path>
                <path d="M54.1,39.9 C55,42.8 56.4,45.1 59.6,45.9 C60.9,46.5 62.1,47.2 63.4,47.8 C64.1,48.3 65,48.6 65.5,49.4 L65.6,49.5 L65.7,49.6 L65.7,49.6 C65.8,49.5 65.9,49.5 65.9,49.4 L65.9,49.4 C65.9,47.3 66,45.2 66,43 C66,40.1 67.5,37.2 66,34.4 C65.8,33.9 65.6,33.5 65.5,33 C65.5,32.9 65.4,32.9 65.4,32.8 C65.4,32.8 65.4,32.8 65.4,32.7 C65.4,32.6 65.4,32.5 65.3,32.3 C64,28.3 62.7,24.3 61.5,20.3 C61.2,19.1 61,18.7 60.1,19.9 C59.7,20.4 59.3,20.8 58.8,21.2 C58.1,21.7 57.3,22.2 56.6,22.7 C54.8,23.9 53.3,25.4 51.3,26.3 C50.8,26.5 49.5,26.6 49.8,27.7 C50.3,29.7 51,31.7 51.7,33.7 C52.4,36 53.4,37.9 54.1,39.9 L54.1,39.9 Z M61.5,37.6 L61.7,37.7 C61.5,38.1 61.3,38.5 61,39 C60.9,38.8 60.8,38.5 60.7,38.3 C60.5,37.4 61.3,37.8 61.5,37.6 L61.5,37.6 Z M60.4,40.1 C60.5,40.1 60.6,40.2 60.8,40.3 L60.5,40.6 C60.4,40.5 60.4,40.4 60.4,40.3 C60.3,40.3 60.4,40.1 60.4,40.1 L60.4,40.1 Z" id="Shape" fill="#D3753A"></path>
                <rect id="Rectangle-path" fill="#385458" x="67.7" y="32.5" width="-0.1" height="-0.1"></rect>
                <path id="Shape" fill="#385458"></path>
                <path id="Shape" fill="#D6806A"></path>
                <path id="Shape" fill="#CF6854"></path>
                <path d="M49.6,57.6 C50.3,56.9 51.1,56.2 51.2,55.2 C51.2,54.8 51.3,54.6 51.7,54.4 C51.8,53.9 52,53.4 52.1,52.9 C52.7,50.7 53.5,48.4 54,46.2 C54.4,44.2 52.9,42.7 52.2,41 C51.3,38.6 50.2,36.3 49.2,34 C48.9,32.9 48.5,31.9 48.2,30.8 C48.2,30.4 48.1,29.9 48,29.5 C48,29.4 47.9,29.3 47.9,29.2 C47.8,29 47.7,28.9 47.6,28.9 C46.3,29.6 44.9,30.1 43.4,30.6 C40.2,31.5 37,32.7 33.9,33.7 C33.6,33.8 33.5,33.9 33.6,34.2 C34.6,37.7 36.1,41 36.8,44.6 C37.5,48.2 38.3,51.9 41.6,54.2 C44.1,55.9 46.2,57.9 48.3,60.1 C49.3,60.3 49.1,59.3 49.4,58.9 C49.5,58.4 49.2,58 49.6,57.6 L49.6,57.6 Z M43.3,46 C43.2,46 42.9,45.5 42.9,45.2 C42.9,45 43.2,44.7 43.4,44.5 C43.4,44.6 43.5,44.7 43.5,44.7 C42.9,45.1 44,45.7 43.3,46 L43.3,46 Z" id="Shape" fill="#D3753A"></path>
                <path d="M70.9,43.9 L70.9,43.9 C71.1,44.1 71.1,44 71.4,44 L71.4,44 C71.2,44 71.1,42.8 70.9,42.1 C70.8,42 70.6,41.9 70.6,41.7 C70.4,41.3 70.2,40.9 70,40.5 C69.9,40.9 69.8,41.2 69.7,41.6 C70.5,42.2 70.4,43.2 70.9,43.9 L70.9,43.9 Z" id="Shape" fill="#D6806A"></path>
                <path d="M61,39 C61.2,38.6 61.5,38.2 61.7,37.7 L61.5,37.6 C61.3,37.8 60.4,37.4 60.7,38.2 C60.8,38.5 60.9,38.7 61,39 L61,39 Z" id="Shape" fill="#D6806A"></path>
                <path d="M60.8,40.3 C60.7,40.2 60.5,40.2 60.4,40.1 C60.4,40.1 60.3,40.2 60.3,40.3 C60.3,40.4 60.4,40.5 60.4,40.6 C60.5,40.6 60.6,40.5 60.8,40.3 L60.8,40.3 Z" id="Shape" fill="#D6806A"></path>
                <path d="M43.4,44.5 C43.2,44.8 42.9,45 42.9,45.2 C42.9,45.5 43.3,46 43.3,46 C44.1,45.7 42.9,45.1 43.5,44.7 C43.5,44.7 43.4,44.6 43.4,44.5 L43.4,44.5 Z" id="Shape" fill="#CF6854"></path>
            </g>
        </g>
    </g>
</svg>