<?xml version="1.0" encoding="iso-8859-1"?>
<!-- Generator: Adobe Illustrator 16.0.0, SVG Export Plug-In . SVG Version: 6.00 Build 0)  -->
<!DOCTYPE svg PUBLIC "-//W3C//DTD SVG 1.1//EN" "http://www.w3.org/Graphics/SVG/1.1/DTD/svg11.dtd">
<svg xmlns="http://www.w3.org/2000/svg" xmlns:xlink="http://www.w3.org/1999/xlink" version="1.1" id="Capa_1" x="0px" y="0px" width="512px" height="512px" viewBox="0 0 29.901 29.901" style="enable-background:new 0 0 29.901 29.901;" xml:space="preserve">
<g>
	<g>
		<g id="Icons_15_">
			<g>
				<path d="M15.16,19.056l4.079,5.562l4.079-5.559c-1.314,0.157-2.688,0.241-4.063,0.241C17.871,19.3,16.485,19.216,15.16,19.056z" fill="#91DC5A"/>
				<path d="M29.899,22.448V17.2c-1.011,0.588-2.33,1.061-3.85,1.401L29.899,22.448z" fill="#91DC5A"/>
				<path d="M24.906,20.296l-4.259,5.803c3.982-0.16,6.867-0.983,8.272-1.783L24.906,20.296z" fill="#91DC5A"/>
				<path d="M9.591,24.314c1.405,0.796,4.275,1.617,8.24,1.78l-4.239-5.78L9.591,24.314z" fill="#91DC5A"/>
				<path d="M19.257,28.139c-4.123,0-8.268-0.719-10.64-2.102v0.568c0.344,1.823,4.987,3.268,10.64,3.268      c5.655,0,10.3-1.442,10.645-3.268v-0.568C27.526,27.421,23.381,28.139,19.257,28.139z" fill="#91DC5A"/>
				<path d="M8.617,22.445l3.843-3.844c-1.514-0.343-2.835-0.813-3.843-1.401V22.445z" fill="#91DC5A"/>
				<path d="M25.014,10.068c-0.021,0.251-0.091,0.494-0.183,0.727c2.727,0.569,4.314,1.489,4.314,2.202      c0,1.113-3.854,2.731-9.891,2.731c-6.036,0-9.887-1.618-9.887-2.731c0-0.463,0.675-1.013,1.889-1.499l-0.99-0.364      c-0.844,0.437-1.471,0.938-1.651,1.479v1.865c0,0.991,4.04,2.81,10.64,2.81c6.604,0,10.645-1.818,10.645-2.81v-1.865      C29.541,11.544,27.638,10.622,25.014,10.068z" fill="#91DC5A"/>
				<path d="M20.797,9.698c-0.049,0.523,0.157,1.061,0.603,1.413c0.296,0.236,0.649,0.349,1.003,0.349      c0.476,0,0.944-0.208,1.265-0.609c0.553-0.698,0.438-1.713-0.26-2.267c-0.296-0.235-0.648-0.348-1.001-0.348      c-0.172,0-0.348,0.028-0.514,0.083l-10.201-8.1c-0.161-0.129-0.354-0.191-0.545-0.191c-0.259,0-0.517,0.114-0.692,0.333      c-0.302,0.381-0.237,0.935,0.142,1.236L20.797,9.698z" fill="#91DC5A"/>
				<path d="M17.281,13.629c0.229,0.085,0.466,0.125,0.698,0.125c0.82,0,1.595-0.505,1.896-1.32      c0.386-1.046-0.147-2.208-1.195-2.595c-0.229-0.084-0.465-0.124-0.694-0.124c-0.438,0-0.86,0.144-1.207,0.401L1.485,4.47      C1.358,4.423,1.23,4.401,1.102,4.401c-0.445,0-0.868,0.277-1.033,0.721C-0.143,5.692,0.15,6.326,0.72,6.537l15.296,5.647      C16.16,12.826,16.615,13.384,17.281,13.629z" fill="#91DC5A"/>
			</g>
		</g>
	</g>
</g>
<g>
</g>
<g>
</g>
<g>
</g>
<g>
</g>
<g>
</g>
<g>
</g>
<g>
</g>
<g>
</g>
<g>
</g>
<g>
</g>
<g>
</g>
<g>
</g>
<g>
</g>
<g>
</g>
<g>
</g>
</svg>
