<?xml version="1.0" encoding="utf-8"?>
<!-- Generator: Adobe Illustrator 16.0.3, SVG Export Plug-In . SVG Version: 6.00 Build 0)  -->
<!DOCTYPE svg PUBLIC "-//W3C//DTD SVG 1.1//EN" "http://www.w3.org/Graphics/SVG/1.1/DTD/svg11.dtd">
<svg version="1.1" id="Layer_1" xmlns="http://www.w3.org/2000/svg" xmlns:xlink="http://www.w3.org/1999/xlink" x="0px" y="0px"
	 width="75px" height="75px" viewBox="0 0 75 75" enable-background="new 0 0 75 75" xml:space="preserve">
<g id="XMLID_1_">
	<g>
		<path fill="#3FA9F5" d="M68.945,25.137c-0.069,1.24-0.149,2.5-0.22,3.74c-0.33,0.19-0.68,0.4-1.04,0.6
			c0.061-1.19,0.12-2.38,0.181-3.58C68.256,25.637,68.626,25.387,68.945,25.137z"/>
		<path fill="#3FA9F5" d="M62.086,7.757c4.12,2.47,6.08,4.92,5.81,7.31c-0.41,3.66-5.89,7.22-16.3,10.65
			c-7.05,2.33-10.77,3.29-16.78,3.29c-2,0-4.29-0.06-7.01-0.31c-4.82-0.44-11.98-1.73-17.63-4.21c-2.4-1.06-4.19-2.91-5.04-5.22
			c-0.94-2.58-0.67-5.62,0.77-8.54c1.55-3.17,3.85-4.45,7.05-5.49c1.46-0.47,9.22-2.83,18.3-2.83c1.04,0,2.06,0.02,3.05,0.09
			c21.2,1.31,25.74,4.04,27.68,5.2L62.086,7.757z"/>
		<path fill="#FCEE21" d="M67.916,45.147c-0.09,3-0.26,6.16-0.74,9.229c-0.3,0.311-0.62,0.641-0.97,0.971
			c-0.05-0.09-0.101-0.181-0.15-0.271c0.58-3.26,0.76-6.67,0.86-9.899c0.12-4.011,0.359-8.331,0.6-12.771
			c0.05-0.97,0.11-1.95,0.16-2.93h0.01c0.36-0.2,0.71-0.41,1.04-0.6c-0.069,1.23-0.149,2.44-0.21,3.58
			C68.275,36.897,68.036,41.147,67.916,45.147z"/>
		<path fill="#3FA9F5" d="M64.525,60.737c0.7-1.79,1.19-3.7,1.53-5.66c0.05,0.09,0.101,0.181,0.15,0.271
			c0.35-0.33,0.67-0.66,0.97-0.971c-0.27,1.79-0.65,3.54-1.19,5.21C65.536,59.968,65.046,60.357,64.525,60.737z"/>
		<path fill="#FF931E" d="M61.546,32.467c2.24-0.97,4.34-1.97,6.13-2.99c-0.05,0.98-0.11,1.96-0.16,2.93
			c-0.24,4.44-0.479,8.76-0.6,12.771c-0.101,3.229-0.28,6.64-0.86,9.899c-0.05-0.109-0.11-0.229-0.17-0.359
			c-0.14-0.29-0.29-0.58-0.45-0.86c-0.18-0.33-0.39-0.65-0.59-0.97c-0.17-0.261-0.34-0.511-0.49-0.79
			c-0.29-0.511-0.63-0.86-0.91-1.13c-0.02-0.021-0.039-0.04-0.06-0.061c-0.09-2.72-0.479-5.67-0.87-8.74
			c-0.439-3.479-0.899-6.919-0.89-9.689L61.546,32.467z"/>
		<path fill="#FF931E" d="M63.186,56.037c0.21,0.431,0.45,0.9,0.76,1.36c-0.84,0.7-1.789,1.42-2.85,2.12
			c0.57-1.47,1.13-3.04,1.59-4.42c0.04,0.069,0.09,0.149,0.141,0.22C62.956,55.558,63.065,55.798,63.186,56.037z"/>
		<path fill="#FF931E" d="M58.726,64.258c2.28-1.08,4.19-2.301,5.8-3.521c-0.739,1.9-1.72,3.67-3.029,5.2
			c-6.29,7.399-29.03,9.18-40.53,3.18c-2.29-1.189-4.15-2.63-5.57-4.3c7.68,2.77,12.28,2.9,18.97,3.08
			c1.09,0.03,2.24,0.06,3.46,0.11c0.78,0.029,1.541,0.04,2.28,0.04c7.91,0,13.88-1.58,18.41-3.69l0.04,0.06
			C58.616,64.377,58.666,64.308,58.726,64.258z"/>
		<path fill="#FF931E" d="M60.426,52.008h0.11c-0.92,3.17-2.92,8.42-3.71,9.85c-0.58,0.26-1.19,0.51-1.82,0.74
			c-1.11-1.69-4.57-8.12-5.01-9.24c0-0.21-0.011-0.43-0.021-0.67c-0.13-3.4-0.5-13.17-0.24-15.93c2.86-0.86,5.95-1.93,8.921-3.1
			c0.09,2.71,0.489,5.82,0.89,8.91C59.976,45.957,60.426,50.008,60.426,52.008z"/>
		<path fill="#FF931E" d="M48.616,57.298c1.06,2.039,2.439,4.609,3.46,6.26c-2.32,0.64-4.94,1.12-7.91,1.34
			c0.56-0.99,1.319-2.271,2.029-3.46C47.266,59.627,48.046,58.298,48.616,57.298z"/>
		<path fill="#FF931E" d="M46.976,52.808c0.021,0.42,0.03,0.8,0.04,1.14c-0.53,1.12-2.229,3.98-3.399,5.96
			c-1.11,1.87-1.94,3.271-2.471,4.24c-0.67-1.01-1.6-2.17-2.62-3.46c-1.6-2.01-4.27-5.39-4.27-6.51c0-3.221,0.38-6.7,0.75-10.061
			c0.19-1.68,0.37-3.41,0.51-5.1c0.42,0.01,0.84,0.01,1.26,0.01c0.82,0,1.65,0,2.51-0.02c1.6-0.03,4.26-0.54,7.399-1.38
			C46.565,40.558,46.706,45.787,46.976,52.808z"/>
		<path fill="#FF931E" d="M38.086,65.008c-0.05,0-0.1,0-0.15,0c-1.23-0.04-2.39-0.08-3.49-0.11c-1.74-0.04-3.33-0.09-4.87-0.18
			c0.95-1.841,2.23-4.45,3.21-6.721c0.85,1.311,2,2.801,3.39,4.551C36.846,63.397,37.526,64.258,38.086,65.008z"/>
		<path fill="#FF931E" d="M32.516,38.957c-0.14,1.591-0.31,3.23-0.49,4.83c-0.35,3.261-0.72,6.62-0.76,9.851
			c-0.17,1.04-2.95,7.08-4.49,10.05c-1.27-2.3-4.12-6.45-4.51-6.94c-0.21-0.27-0.57-0.689-1-1.18c-0.74-0.86-2.48-2.86-2.69-3.46
			c-0.09-0.32-0.04-1,0-1.54c0.03-0.38,0.05-0.74,0.05-1.06c0-2.36-0.19-4.66-0.38-6.881c-0.15-1.81-0.3-3.67-0.34-5.54
			C21.696,38.037,26.446,38.728,32.516,38.957z"/>
		<path fill="#FF931E" d="M18.996,57.527c0.39,0.45,0.72,0.83,0.91,1.07c0.53,0.68,2.39,3.46,3.57,5.38
			c-2.41-0.47-5.03-1.21-8.17-2.4c0.7-1.819,1.4-4.09,1.49-4.59c0.05-0.21,0.26-0.79,0.52-1.45
			C17.796,56.138,18.366,56.798,18.996,57.527z"/>
		<path fill="#FCEE21" d="M62.266,66.548c-3.89,4.56-13.75,7.119-23.6,7.119c-6.69,0-13.38-1.17-18.17-3.659
			c-2.98-1.561-5.28-3.521-6.85-5.851c0.6,0.24,1.18,0.46,1.75,0.66c1.42,1.67,3.28,3.11,5.57,4.3c11.5,6,34.24,4.22,40.53-3.18
			c1.31-1.53,2.29-3.3,3.029-5.2c0.521-0.38,1.011-0.77,1.46-1.15C65.166,62.157,63.985,64.527,62.266,66.548z"/>
		<path fill="#3FA9F5" d="M15.306,61.577c3.14,1.19,5.76,1.931,8.17,2.4c-1.18-1.92-3.04-4.7-3.57-5.38
			c-0.19-0.24-0.52-0.62-0.91-1.07c-0.63-0.729-1.2-1.39-1.68-1.99c-0.26,0.66-0.47,1.24-0.52,1.45
			C16.706,57.487,16.006,59.758,15.306,61.577z M32.786,57.997c-0.98,2.271-2.26,4.88-3.21,6.721c1.54,0.09,3.13,0.14,4.87,0.18
			c1.1,0.03,2.26,0.07,3.49,0.11c0.05,0,0.101,0,0.15,0c-0.56-0.75-1.24-1.61-1.91-2.46C34.786,60.798,33.636,59.308,32.786,57.997z
			 M31.266,53.638c0.04-3.23,0.41-6.59,0.76-9.851c0.18-1.6,0.35-3.239,0.49-4.83c-6.07-0.229-10.82-0.92-14.61-1.87
			c0.04,1.87,0.19,3.73,0.34,5.54c0.19,2.221,0.38,4.521,0.38,6.881c0,0.319-0.02,0.68-0.05,1.06c-0.04,0.54-0.09,1.22,0,1.54
			c0.21,0.6,1.95,2.6,2.69,3.46c0.43,0.49,0.79,0.91,1,1.18c0.39,0.49,3.24,4.641,4.51,6.94
			C28.316,60.718,31.096,54.678,31.266,53.638z M44.166,64.897c2.97-0.22,5.59-0.7,7.91-1.34c-1.021-1.65-2.4-4.221-3.46-6.26
			c-0.57,1-1.351,2.329-2.421,4.14C45.485,62.627,44.726,63.907,44.166,64.897z M34.256,54.178c0,1.12,2.67,4.5,4.27,6.51
			c1.021,1.29,1.95,2.45,2.62,3.46c0.53-0.97,1.36-2.37,2.471-4.24c1.17-1.979,2.869-4.84,3.399-5.96
			c-0.01-0.34-0.02-0.72-0.04-1.14c-0.27-7.021-0.41-12.25-0.29-15.18c-3.14,0.84-5.8,1.35-7.399,1.38
			c-0.86,0.02-1.69,0.02-2.51,0.02c-0.42,0-0.84,0-1.26-0.01c-0.14,1.689-0.32,3.42-0.51,5.1
			C34.636,47.478,34.256,50.957,34.256,54.178z M64.525,60.737c-1.609,1.22-3.52,2.44-5.8,3.521c-0.06,0.05-0.109,0.119-0.17,0.159
			l-0.04-0.06c-4.53,2.11-10.5,3.69-18.41,3.69c-0.739,0-1.5-0.011-2.28-0.04c-1.22-0.051-2.37-0.08-3.46-0.11
			c-6.69-0.18-11.29-0.311-18.97-3.08c-0.79-0.94-1.45-1.94-1.96-3.02c-0.28-0.591-0.54-1.16-0.77-1.73
			c0.52-1.42,1.1-3.19,1.18-3.64c0.14-0.74,1.13-3.19,1.7-4.42c-0.04-0.561,0-1.141,0.04-1.671c0.02-0.289,0.04-0.579,0.04-0.829
			c0-2.24-0.18-4.471-0.37-6.62c-0.18-2.16-0.36-4.38-0.37-6.67c-3.5-1.14-6.03-2.51-8.05-3.84c-0.25-1.34-0.5-2.77-0.75-4.21
			c4.55,3.43,11.73,8.24,33.14,7.84c5.12-0.09,21.851-5.7,28.641-10.11c-0.061,1.2-0.12,2.39-0.181,3.58h-0.01
			c-1.79,1.02-3.89,2.02-6.13,2.99l0.08,0.01c-0.01,2.77,0.45,6.21,0.89,9.689c0.391,3.07,0.78,6.021,0.87,8.74
			c0.021,0.021,0.04,0.04,0.06,0.061c0.28,0.27,0.62,0.619,0.91,1.13c0.15,0.279,0.32,0.529,0.49,0.79
			c0.2,0.319,0.41,0.64,0.59,0.97c0.16,0.28,0.311,0.57,0.45,0.86c0.06,0.13,0.12,0.25,0.17,0.359
			C65.716,57.037,65.226,58.947,64.525,60.737z M60.426,52.008c0-2-0.45-6.051-0.88-9.44c-0.4-3.09-0.8-6.2-0.89-8.91
			c-2.971,1.17-6.061,2.24-8.921,3.1c-0.26,2.76,0.11,12.53,0.24,15.93c0.01,0.24,0.021,0.46,0.021,0.67
			c0.439,1.12,3.899,7.55,5.01,9.24c0.63-0.23,1.24-0.48,1.82-0.74c0.79-1.43,2.79-6.68,3.71-9.85H60.426z M62.686,55.098
			c-0.46,1.38-1.02,2.95-1.59,4.42c1.061-0.7,2.01-1.42,2.85-2.12c-0.31-0.46-0.55-0.93-0.76-1.36
			c-0.12-0.239-0.229-0.479-0.359-0.72C62.775,55.247,62.726,55.167,62.686,55.098z"/>
		<path fill="#3FA9F5" d="M13.436,61.798c0.51,1.079,1.17,2.079,1.96,3.02c-0.57-0.2-1.15-0.42-1.75-0.66
			c-0.42-0.62-0.79-1.27-1.11-1.939c-0.35-0.74-0.67-1.45-0.96-2.16c0.32,0.14,0.64,0.27,0.95,0.399c0.05-0.13,0.1-0.26,0.14-0.39
			C12.896,60.638,13.156,61.207,13.436,61.798z"/>
		<path fill="#FF931E" d="M13.846,56.428c-0.08,0.449-0.66,2.22-1.18,3.64c-2.18-5.15-2.86-9.51-4.09-17.45l-0.42-2.68
			c-0.19-1.19-0.57-3.32-1.02-5.86c-0.1-0.55-0.2-1.11-0.3-1.7c2.02,1.33,4.55,2.7,8.05,3.84c0.01,2.291,0.19,4.51,0.37,6.67
			c0.19,2.149,0.37,4.38,0.37,6.62c0,0.25-0.02,0.54-0.04,0.829c-0.04,0.53-0.08,1.11-0.04,1.671
			C14.976,53.237,13.986,55.688,13.846,56.428z"/>
		<path fill="#FCEE21" d="M8.576,42.617c1.23,7.94,1.91,12.3,4.09,17.45c-0.04,0.13-0.09,0.26-0.14,0.39
			c-0.31-0.13-0.63-0.26-0.95-0.399c-2.09-5.07-2.78-9.471-3.99-17.28l-0.42-2.69c-0.18-1.18-0.56-3.31-1.02-5.839
			c-0.16-0.87-0.32-1.77-0.48-2.68c0.37,0.27,0.76,0.54,1.17,0.81c0.1,0.59,0.2,1.15,0.3,1.7c0.45,2.54,0.83,4.67,1.02,5.86
			L8.576,42.617z"/>
		<path fill="#3FA9F5" d="M5.666,31.567c-0.26-1.42-0.51-2.87-0.76-4.3c0.22,0.17,0.44,0.33,0.66,0.5c0.17,0.13,0.34,0.26,0.52,0.4
			c0.25,1.44,0.5,2.87,0.75,4.21C6.426,32.107,6.036,31.837,5.666,31.567z"/>
		<path fill="#FF931E" d="M68.195,17.288c-0.06,2.79-0.18,5.7-0.329,8.61c-6.79,4.41-23.521,10.02-28.641,10.11
			c-21.41,0.4-28.59-4.41-33.14-7.84c-0.43-2.44-0.85-4.92-1.18-7.08c1.07,1.86,2.75,3.35,4.87,4.28
			c5.75,2.53,13.04,3.88,17.93,4.33c2.76,0.25,5.08,0.31,7.11,0.31c3.23,0,5.91-0.31,8.58-0.88s5.33-1.41,8.521-2.46
			C61.016,23.667,66.376,20.607,68.195,17.288z"/>
		<path fill="#FCEE21" d="M68.195,17.288c-1.819,3.32-7.18,6.38-16.279,9.38c-3.19,1.05-5.851,1.89-8.521,2.46s-5.35,0.88-8.58,0.88
			c-2.03,0-4.35-0.06-7.11-0.31c-4.89-0.45-12.18-1.8-17.93-4.33c-2.12-0.93-3.8-2.42-4.87-4.28c0.33,2.16,0.75,4.64,1.18,7.08
			c-0.18-0.14-0.35-0.27-0.52-0.4c-0.22-0.17-0.44-0.33-0.66-0.5c-0.9-5.27-1.6-10.24-1.27-12.27c0.49-2.93,0.6-3.16,1.37-4.72
			c1.71-3.49,4.19-4.87,7.64-5.99c1.49-0.48,9.38-2.89,18.61-2.89c1.06,0,2.1,0.04,3.11,0.1c21.44,1.33,26.13,4.15,28.13,5.36
			l0.1,0.05c3.311,1.99,6.5,5.29,6.69,7.79c0.12,1.62-0.08,5.87-0.341,10.44c-0.319,0.25-0.689,0.5-1.079,0.76
			C68.016,22.987,68.136,20.077,68.195,17.288z M61.985,7.697c-1.939-1.16-6.479-3.89-27.68-5.2c-0.99-0.07-2.01-0.09-3.05-0.09
			c-9.08,0-16.84,2.36-18.3,2.83c-3.2,1.04-5.5,2.32-7.05,5.49c-1.44,2.92-1.71,5.96-0.77,8.54c0.85,2.31,2.64,4.16,5.04,5.22
			c5.65,2.48,12.81,3.77,17.63,4.21c2.72,0.25,5.01,0.31,7.01,0.31c6.01,0,9.73-0.96,16.78-3.29c10.41-3.43,15.89-6.99,16.3-10.65
			c0.271-2.39-1.689-4.84-5.81-7.31L61.985,7.697z"/>
	</g>
	<g>
	</g>
</g>
<path fill="#00FFFF" d="M60.25,18.666c-0.334,2.244-11.713,3.571-13.289,3.845c-7.103,1.234-13.94,1.455-21.092,1.956
	c-3.759,0.263-14.557-0.163-15.83-4.799c-1.14-4.151,2.397-11.188,7.506-10.313c-3.104,2.348-8.339,5.361-5.684,10.053
	c2.714,4.794,13.509,3.325,17.722,2.925c6.637-0.63,12.002-0.89,18.581-2.135C52.162,19.441,56.189,18.859,60.25,18.666z"/>
<path fill="none" d="M10.063,26.375c-0.076,0.994,0.329,2.149,0.484,3.104c-0.687-0.002-0.338,1.393,0.372,1.128
	c0.087-0.31,0.047-0.661-0.231-0.856"/>
<path fill="#CA447F" d="M10.394,28.896c0.097-0.385,0.446-0.686,0.718-0.95c0.371-0.356,0.617-0.742,1.058-0.422
	c0.288,0.207,1.015,1.457,0.958,1.789c-0.106,0.622-1.107,0.812-1.565,0.812S10.249,29.485,10.394,28.896z"/>
<path fill="#CA447F" d="M25.557,32.125c0.134-0.703,0.95-1.128,1.63-1c0.616,0.116,1.273,0.844,1.382,1.525
	c0.122,0.765-1.09,1.226-2.089,0.934C25.686,33.352,25.459,32.636,25.557,32.125z"/>
<path fill="#CA447F" d="M45.979,32.334c-1.292-1.333,1.077-3.637,1.989-2.334C49.252,31.835,47.271,33.667,45.979,32.334z"/>
<path fill="#CA447F" d="M62.188,26.918c-1.875,0.375-1.336-3.087,0.25-2.92C63.777,24.139,64.063,26.543,62.188,26.918z"/>
</svg>
