<?xml version="1.0" encoding="utf-8"?>
<!DOCTYPE svg PUBLIC "-//W3C//DTD SVG 1.1//EN" "http://www.w3.org/Graphics/SVG/1.1/DTD/svg11.dtd">
<svg version="1.1" id="Layer_1" xmlns="http://www.w3.org/2000/svg" xmlns:xlink="http://www.w3.org/1999/xlink" x="0px" y="0px"
	 width="82.5px" height="83.25px" viewBox="0 0 82.5 83.25" enable-background="new 0 0 82.5 83.25" xml:space="preserve">
<g>
	<g id="XMLID_1_">
		<g>
			<path fill="#3FA9F5" d="M68.534,20.466c0.251,1.206,0.5,2.444,0.753,3.66c-0.27,0.269-0.553,0.563-0.849,0.849
				c-0.25-1.165-0.5-2.33-0.753-3.504C68.007,21.125,68.287,20.78,68.534,20.466z"/>
			<path fill="#3FA9F5" d="M57.407,5.444c4.618,1.319,7.146,3.178,7.504,5.557c0.551,3.642-3.82,8.499-12.987,14.506
				c-6.207,4.076-9.552,5.966-15.357,7.521c-1.932,0.518-4.159,1.053-6.851,1.515c-4.77,0.823-12.02,1.43-18.119,0.497
				c-2.592-0.402-4.8-1.726-6.219-3.737c-1.576-2.249-2.102-5.255-1.467-8.448c0.676-3.463,2.567-5.295,5.388-7.128
				c1.289-0.832,8.173-5.12,16.944-7.47c1.004-0.27,1.995-0.514,2.969-0.703C50.028,3.332,55.12,4.794,57.295,5.412L57.407,5.444z"
				/>
			<path fill="#FF931E" d="M69.287,24.125c0.251,1.206,0.487,2.396,0.725,3.512c0.917,4.351,1.785,8.518,2.705,12.413
				c0.689,2.921,1.344,6.018,1.675,9.106c-0.21,0.378-0.434,0.779-0.687,1.188c-0.071-0.074-0.143-0.148-0.215-0.222
				c-0.283-3.3-0.992-6.64-1.731-9.785c-0.922-3.905-1.809-8.14-2.727-12.49c-0.202-0.95-0.398-1.912-0.604-2.872
				c0.012,0.007,0.01-0.003,0.01-0.003C68.734,24.688,69.018,24.395,69.287,24.125z"/>
			<path fill="#3FA9F5" d="M73.48,55.996c0.213-1.91,0.191-3.882,0.01-5.872c0.072,0.073,0.144,0.147,0.215,0.222
				c0.253-0.409,0.477-0.811,0.687-1.188c0.199,1.79,0.285,3.578,0.196,5.331C74.254,54.981,73.882,55.485,73.48,55.996z"/>
			<path fill="#FF931E" d="M72.576,49.105c-0.26-0.271-0.545-0.526-0.821-0.784c-0.231-0.207-0.46-0.404-0.678-0.636
				c-0.412-0.418-0.831-0.668-1.172-0.856c-0.024-0.014-0.049-0.028-0.073-0.042c-0.791-2.604-1.932-5.353-3.103-8.217
				c-1.326-3.248-2.661-6.451-3.368-9.129l-0.08,0.011c1.913-1.517,3.683-3.026,5.147-4.475c0.205,0.959,0.401,1.921,0.604,2.872
				c0.918,4.351,1.805,8.585,2.727,12.49c0.739,3.146,1.448,6.485,1.731,9.785c-0.076-0.094-0.165-0.194-0.257-0.304
				C73.022,49.576,72.803,49.335,72.576,49.105z"/>
			<path fill="#FF931E" d="M70.967,51.794c0.314,0.361,0.668,0.753,1.086,1.117c-0.63,0.894-1.361,1.835-2.204,2.785
				c0.17-1.567,0.305-3.229,0.392-4.681c0.057,0.057,0.126,0.121,0.192,0.176C70.62,51.39,70.789,51.593,70.967,51.794z"/>
			<path fill="#FF931E" d="M67.258,48.615l0.106-0.028c-0.068,3.301-0.642,8.89-1.034,10.475c-0.493,0.401-1.018,0.801-1.566,1.187
				c-1.51-1.346-6.516-6.66-7.231-7.629c-0.054-0.202-0.12-0.412-0.192-0.642c-1.006-3.25-3.892-12.592-4.355-15.325
				c2.54-1.571,5.248-3.405,7.813-5.304c0.789,2.595,1.98,5.495,3.166,8.376C65.257,42.889,66.74,46.684,67.258,48.615z"/>
			<path fill="#FF931E" d="M57.22,56.782c1.552,1.696,3.55,3.821,4.963,5.151c-2.076,1.219-4.482,2.36-7.294,3.342
				c0.284-1.102,0.688-2.534,1.065-3.867C56.519,59.383,56.928,57.896,57.22,56.782z"/>
			<path fill="#FF931E" d="M54.474,52.87c0.128,0.4,0.235,0.765,0.333,1.091c-0.222,1.219-1.123,4.422-1.741,6.637
				c-0.588,2.094-1.027,3.661-1.288,4.735c-0.908-0.803-2.107-1.683-3.427-2.664c-2.065-1.527-5.52-4.102-5.81-5.183
				c-0.833-3.11-1.367-6.57-1.879-9.911c-0.251-1.672-0.525-3.39-0.828-5.059c0.408-0.099,0.814-0.208,1.219-0.316
				c0.792-0.212,1.594-0.427,2.42-0.669c1.537-0.443,3.975-1.625,6.79-3.249C50.906,41.144,52.396,46.159,54.474,52.87z"/>
			<path fill="#FF931E" d="M49.044,66.955c-0.048,0.014-0.097,0.026-0.145,0.039c-1.198,0.28-2.329,0.542-3.399,0.797
				c-1.691,0.412-3.24,0.775-4.751,1.087c0.441-2.022,1.002-4.875,1.361-7.321c1.16,1.045,2.656,2.187,4.452,3.518
				C47.43,65.722,48.31,66.376,49.044,66.955z"/>
			<path fill="#FF931E" d="M36.921,43.235c0.276,1.572,0.537,3.2,0.777,4.792c0.506,3.239,1.019,6.581,1.816,9.711
				c0.105,1.049-1.017,7.603-1.735,10.87c-1.822-1.894-5.649-5.164-6.153-5.536c-0.273-0.207-0.729-0.52-1.271-0.881
				c-0.938-0.64-3.136-2.121-3.494-2.646c-0.169-0.286-0.297-0.956-0.398-1.488c-0.069-0.374-0.143-0.728-0.226-1.036
				c-0.611-2.28-1.39-4.452-2.148-6.548c-0.613-1.709-1.24-3.467-1.763-5.263C26.231,45.147,30.999,44.584,36.921,43.235z"/>
			<path fill="#FF931E" d="M27.088,72.643c8.125,0.69,12.602-0.375,19.111-1.933c1.061-0.253,2.179-0.521,3.37-0.789
				c0.762-0.173,1.498-0.36,2.213-0.552c7.641-2.048,12.998-5.119,16.827-8.33l0.055,0.048c0.048-0.055,0.077-0.135,0.123-0.198
				c1.922-1.634,3.451-3.307,4.693-4.893c-0.223,2.027-0.724,3.983-1.583,5.798c-4.16,8.776-25.664,16.382-38.326,13.563
				C31.052,74.801,28.882,73.891,27.088,72.643z"/>
			<path fill="#FF931E" d="M26.153,69.539c0.205-1.939,0.293-4.313,0.251-4.819c-0.006-0.216,0.047-0.83,0.127-1.535
				c0.619,0.455,1.34,0.945,2.138,1.487c0.493,0.334,0.91,0.615,1.156,0.798c0.688,0.52,3.204,2.724,4.841,4.272
				C32.216,69.912,29.494,69.876,26.153,69.539z"/>
			<path fill="#FF931E" d="M74.588,54.488c-0.127,2.695-0.65,5.299-1.789,7.695C70.222,67.596,61.36,72.62,51.847,75.17
				c-6.463,1.732-13.227,2.334-18.499,1.168c-3.282-0.735-6.011-2.033-8.131-3.877c0.642,0.076,1.269,0.137,1.871,0.182
				c1.794,1.248,3.963,2.158,6.483,2.715c12.662,2.818,34.166-4.787,38.326-13.563c0.859-1.814,1.36-3.771,1.583-5.798
				C73.882,55.485,74.254,54.981,74.588,54.488z"/>
			<path fill="#3FA9F5" d="M54.889,65.275c2.812-0.981,5.218-2.123,7.294-3.342c-1.413-1.33-3.411-3.455-4.963-5.151
				c-0.292,1.113-0.701,2.601-1.266,4.626C55.576,62.741,55.173,64.174,54.889,65.275z M54.474,52.87
				c-2.078-6.711-3.567-11.727-4.21-14.587c-2.815,1.624-5.253,2.805-6.79,3.249c-0.826,0.242-1.628,0.457-2.42,0.669
				c-0.405,0.108-0.811,0.218-1.219,0.316c0.302,1.669,0.576,3.387,0.828,5.059c0.512,3.341,1.046,6.801,1.879,9.911
				c0.29,1.081,3.744,3.655,5.81,5.183c1.319,0.981,2.519,1.861,3.427,2.664c0.261-1.074,0.7-2.642,1.288-4.735
				c0.618-2.215,1.52-5.418,1.741-6.637C54.709,53.635,54.602,53.271,54.474,52.87z M42.11,61.557
				c-0.359,2.446-0.92,5.299-1.361,7.321c1.511-0.312,3.06-0.675,4.751-1.087c1.07-0.255,2.201-0.517,3.399-0.797
				c0.048-0.013,0.097-0.025,0.145-0.039c-0.734-0.579-1.614-1.233-2.481-1.881C44.767,63.743,43.271,62.602,42.11,61.557z
				 M37.698,48.027c-0.24-1.592-0.5-3.22-0.777-4.792c-5.922,1.349-10.689,1.912-14.596,1.976c0.523,1.796,1.149,3.554,1.763,5.263
				c0.758,2.096,1.537,4.268,2.148,6.548c0.083,0.309,0.157,0.662,0.226,1.036c0.101,0.532,0.229,1.202,0.398,1.488
				c0.358,0.524,2.557,2.006,3.494,2.646c0.542,0.361,0.999,0.674,1.271,0.881c0.503,0.372,4.331,3.643,6.153,5.536
				c0.719-3.268,1.84-9.821,1.735-10.87C38.716,54.608,38.204,51.267,37.698,48.027z M26.153,69.539
				c3.341,0.337,6.063,0.373,8.513,0.203c-1.637-1.549-4.153-3.753-4.841-4.272c-0.246-0.183-0.663-0.464-1.156-0.798
				c-0.798-0.542-1.519-1.032-2.138-1.487c-0.08,0.705-0.133,1.319-0.127,1.535C26.446,65.227,26.358,67.6,26.153,69.539z
				 M67.258,48.615c-0.518-1.932-2.001-5.727-3.294-8.89c-1.186-2.881-2.377-5.781-3.166-8.376
				c-2.565,1.899-5.273,3.732-7.813,5.304c0.464,2.733,3.35,12.075,4.355,15.325c0.072,0.229,0.139,0.439,0.192,0.642
				c0.716,0.969,5.722,6.283,7.231,7.629c0.549-0.386,1.073-0.785,1.566-1.187c0.393-1.585,0.966-7.174,1.034-10.475L67.258,48.615z
				 M72.053,52.911c-0.418-0.364-0.771-0.756-1.086-1.117c-0.178-0.201-0.347-0.404-0.534-0.603
				c-0.066-0.055-0.136-0.119-0.192-0.176c-0.087,1.452-0.222,3.113-0.392,4.681C70.691,54.746,71.423,53.805,72.053,52.911z
				 M73.49,50.124c0.182,1.99,0.203,3.962-0.01,5.872c-1.242,1.586-2.771,3.259-4.693,4.893c-0.046,0.063-0.075,0.144-0.123,0.198
				l-0.055-0.048c-3.829,3.211-9.187,6.282-16.827,8.33c-0.715,0.191-1.451,0.379-2.213,0.552c-1.191,0.268-2.31,0.536-3.37,0.789
				c-6.509,1.558-10.985,2.623-19.111,1.933c-1.016-0.7-1.913-1.496-2.685-2.407c-0.423-0.497-0.822-0.98-1.192-1.472
				c0.135-1.506,0.237-3.365,0.198-3.821c-0.057-0.751,0.266-3.374,0.498-4.709c-0.184-0.531-0.295-1.102-0.394-1.624
				c-0.056-0.285-0.111-0.57-0.176-0.812c-0.58-2.164-1.331-4.271-2.071-6.299c-0.733-2.04-1.481-4.138-2.084-6.347
				c-3.678-0.205-6.486-0.871-8.782-1.633c-0.579-1.231-1.188-2.539-1.802-3.865c5.283,2.136,13.463,4.923,34.04-1.005
				c4.922-1.413,19.63-11.162,25.047-17.179c0.253,1.175,0.503,2.34,0.753,3.504c0,0,0.002,0.01-0.01,0.003
				c-1.465,1.448-3.234,2.958-5.147,4.475l0.08-0.011c0.707,2.678,2.042,5.882,3.368,9.129c1.171,2.864,2.312,5.612,3.103,8.217
				c0.024,0.014,0.049,0.028,0.073,0.042c0.341,0.188,0.76,0.438,1.172,0.856c0.218,0.231,0.446,0.429,0.678,0.636
				c0.276,0.258,0.562,0.513,0.821,0.784c0.227,0.229,0.446,0.471,0.657,0.715C73.325,49.93,73.414,50.03,73.49,50.124z"/>
			<path fill="#3FA9F5" d="M24.404,70.235c0.772,0.911,1.668,1.707,2.685,2.407c-0.603-0.045-1.229-0.105-1.871-0.182
				c-0.566-0.49-1.092-1.022-1.574-1.587c-0.53-0.624-1.022-1.227-1.486-1.838c0.345,0.053,0.688,0.096,1.021,0.141
				c0.015-0.139,0.02-0.274,0.034-0.413C23.582,69.255,23.98,69.738,24.404,70.235z"/>
			<path fill="#FF931E" d="M23.907,60.233c-0.232,1.335-0.554,3.958-0.498,4.709c0.039,0.456-0.063,2.315-0.198,3.821
				c-3.439-4.41-5.224-8.445-8.468-15.796l-1.099-2.48c-0.492-1.1-1.41-3.059-2.502-5.396c-0.239-0.505-0.483-1.029-0.742-1.571
				c2.295,0.762,5.104,1.428,8.782,1.633c0.603,2.209,1.351,4.307,2.084,6.347c0.74,2.027,1.491,4.135,2.071,6.299
				c0.065,0.241,0.121,0.526,0.176,0.812C23.612,59.132,23.724,59.702,23.907,60.233z"/>
			<path fill="#FF931E" d="M14.744,52.968c3.244,7.351,5.029,11.386,8.468,15.796c-0.015,0.139-0.02,0.274-0.034,0.413
				c-0.333-0.045-0.676-0.088-1.021-0.141c-3.332-4.355-5.137-8.428-8.327-15.658l-1.102-2.489
				c-0.479-1.093-1.398-3.052-2.497-5.377c-0.38-0.799-0.767-1.627-1.157-2.465c0.427,0.165,0.861,0.318,1.328,0.473
				c0.259,0.542,0.503,1.066,0.742,1.571c1.092,2.338,2.011,4.297,2.502,5.396L14.744,52.968z"/>
			<path fill="#3FA9F5" d="M8.599,39.654c0.614,1.326,1.224,2.634,1.802,3.865c-0.466-0.154-0.9-0.308-1.328-0.473
				c-0.619-1.304-1.245-2.637-1.847-3.956c0.256,0.107,0.51,0.205,0.767,0.312C8.191,39.484,8.389,39.566,8.599,39.654z"/>
			<path fill="#FF931E" d="M5.626,33.121c1.515,1.52,3.523,2.524,5.812,2.874c6.209,0.956,13.6,0.373,18.44-0.458
				c2.73-0.473,4.987-1.016,6.948-1.541c3.13-0.839,5.628-1.83,8.06-3.071s4.773-2.739,7.593-4.582
				c8.013-5.253,12.398-9.597,13.297-13.274c0.664,2.71,1.302,5.552,1.91,8.402c-5.417,6.018-20.125,15.767-25.047,17.179
				c-20.577,5.928-28.757,3.141-34.04,1.005C7.552,37.409,6.504,35.122,5.626,33.121z"/>
			<path fill="#FF931E" d="M51.924,25.507c9.167-6.008,13.538-10.865,12.987-14.506c-0.358-2.378-2.886-4.237-7.504-5.557
				l-0.112-0.032c-2.175-0.618-7.267-2.08-28.083,2.143c-0.974,0.188-1.965,0.433-2.969,0.703c-8.771,2.35-15.655,6.639-16.944,7.47
				c-2.821,1.833-4.712,3.665-5.388,7.128c-0.635,3.193-0.109,6.2,1.467,8.448c1.419,2.011,3.627,3.335,6.219,3.737
				c6.1,0.933,13.349,0.326,18.119-0.497c2.692-0.462,4.919-0.997,6.851-1.515C42.372,31.473,45.717,29.583,51.924,25.507z
				 M57.68,4.491c3.712,1.065,7.647,3.427,8.479,5.792c0.535,1.534,1.444,5.701,2.376,10.182c-0.247,0.314-0.527,0.659-0.849,1.004
				c-0.608-2.85-1.246-5.691-1.91-8.402c-0.898,3.678-5.284,8.021-13.297,13.274c-2.819,1.843-5.161,3.34-7.593,4.582
				s-4.93,2.232-8.06,3.071c-1.96,0.525-4.217,1.068-6.948,1.541c-4.84,0.831-12.231,1.414-18.44,0.458
				c-2.288-0.35-4.297-1.354-5.812-2.874c0.878,2.001,1.925,4.288,2.972,6.533c-0.21-0.088-0.408-0.17-0.605-0.251
				c-0.257-0.107-0.511-0.205-0.767-0.312c-2.233-4.857-4.196-9.477-4.403-11.523c-0.285-2.957-0.239-3.208,0.102-4.914
				c0.748-3.813,2.787-5.789,5.829-7.764c1.315-0.849,8.312-5.219,17.228-7.608c1.024-0.274,2.039-0.505,3.03-0.708
				C50.064,2.308,55.325,3.818,57.57,4.469L57.68,4.491z"/>
		</g>
		<g>
		</g>
	</g>
	<path fill="#00FFFF" d="M58.457,16.452c0.258,2.255-10.389,6.481-11.84,7.154c-6.542,3.03-13.088,5.014-19.867,7.349
		c-3.563,1.228-14.103,3.61-16.533-0.537c-2.175-3.715-0.58-11.428,4.581-11.904c-2.391,3.071-6.667,7.337-2.887,11.182
		c3.862,3.928,13.909-0.285,17.875-1.763c6.248-2.326,11.364-3.966,17.394-6.871C50.846,19.294,54.586,17.69,58.457,16.452z"/>
	<path fill="none" d="M11.976,36.889c0.185,0.98,0.875,1.991,1.271,2.873c-0.664,0.176,0.034,1.433,0.651,0.994
		c0.004-0.322-0.126-0.652-0.445-0.768"/>
	<path fill="#CA447F" d="M12.949,39.239c-0.006-0.396,0.253-0.777,0.448-1.104c0.266-0.439,0.404-0.876,0.913-0.681
		c0.332,0.125,1.357,1.145,1.388,1.479c0.058,0.629-0.859,1.07-1.302,1.189C13.953,40.242,12.961,39.846,12.949,39.239z"/>
	<path fill="#CA447F" d="M28.431,38.433c-0.053-0.714,0.626-1.336,1.316-1.389c0.625-0.047,1.448,0.486,1.729,1.116
		c0.316,0.707-0.735,1.466-1.776,1.442C28.873,39.584,28.469,38.952,28.431,38.433z"/>
	<path fill="#CA447F" d="M48.211,33.348c-1.592-0.953,0.1-3.792,1.317-2.77C51.244,32.019,49.805,34.301,48.211,33.348z"/>
	<path fill="#CA447F" d="M62.465,23.921c-1.714,0.848-2.089-2.636-0.514-2.886C63.281,20.825,64.18,23.074,62.465,23.921z"/>
</g>
</svg>
