<?xml version="1.0" encoding="UTF-8" standalone="no"?>
<svg width="97px" height="108px" viewBox="0 0 97 108" version="1.1" xmlns="http://www.w3.org/2000/svg" xmlns:xlink="http://www.w3.org/1999/xlink">
    <!-- Generator: Sketch 3.8.3 (29802) - http://www.bohemiancoding.com/sketch -->
    <title>flumpjes-right</title>
    <desc>Created with Sketch.</desc>
    <defs></defs>
    <g id="Page-2" stroke="none" stroke-width="1" fill="none" fill-rule="evenodd">
        <g id="Brewing-Animation-Film-(4)" transform="translate(-7082.000000, -1973.000000)" fill="#CA447F">
            <g id="Group">
                <g id="Brewing_machines" transform="translate(810.000000, 0.000000)">
                    <g id="flumpjes-right" transform="translate(6272.000000, 1973.000000)">
                        <path d="M59.6,103.6 C62.2,103.9 64.8,104.9 67.2,105.8 C68.2,106.2 69.1,106.6 70.1,107.1 C71.7,108 71.1,106.8 70.8,105.6 C69.2,98.8 68.7,92.2 68.8,85.2 C68.8,81 69.5,74.7 66.8,71 C64.5,67.8 59.7,68.4 57.8,71.7 C56.9,73.2 56.6,75.1 56.8,76.8 C56.9,77.5 58,81.1 57.5,81.5 C57.6,81.4 53.4,77.8 53,77.6 C50.4,76.4 47.5,77.6 47,80.6 C46.7,82.8 47.9,84.9 49,86.8 C49.4,87.5 54.2,92.7 54,93.1 C53.8,93.4 49.1,91.2 48.6,91.1 C46.9,90.7 45,90.4 43.3,90.4 C41.6,90.4 39.4,90.6 38.2,92.1 C36.7,94 38.2,96.2 39.8,97.4 C42.7,99.7 47.1,100.5 50.6,101.5 C53.4,102.2 56.5,103.2 59.6,103.6 C61.7,103.8 58.2,103.4 59.6,103.6 L59.6,103.6 Z" id="Shape"></path>
                        <path d="M71.9,44.4 C70.9,42.2 70.3,36.9 73.9,36.6 C75.6,36.4 77,38.1 77.8,39.4 C78,39.8 79,43.1 79.4,43.1 C79.5,43.1 79.9,39.6 79.9,39.3 C80.3,37.9 81.3,35.9 82.9,35.7 C85.4,35.4 86.5,39 86.9,40.9 C87,41.7 86.5,45.8 87.1,46.3 C86.8,46 89.7,41.6 90,41.3 C92.9,38.6 95,42 94.9,44.9 C94.8,48.2 93,51.8 91.4,54.6 C90.4,56.4 89.1,57.9 87.9,59.5 C87.6,59.9 85,64.1 85.1,64.1 C84.2,63.9 83,60.4 82.5,59.6 C81.5,57.9 80.4,56.3 79.1,54.7 C76.5,51.3 73.6,48.2 71.9,44.4 C71.9,44.4 71.9,44.5 72,44.6 C71.9,44.5 71.9,44.3 71.8,44.2 C71.8,44.2 72,44.6 71.9,44.4 C71.1,42.6 72.1,44.8 71.9,44.4 L71.9,44.4 Z" id="Shape"></path>
                        <path d="M89,76 C89,78.6 89.8,80.9 90.2,83.4 C88,81 86.3,78.4 83.6,76.5 C81.9,75.3 78.9,73.8 79.2,77.4 C79.4,79.8 81,82.1 82.3,84.1 C83.2,85.5 85.2,87.6 85.5,89.3 C82.1,89.6 78.6,88.1 75.2,89.3 C70.1,91.1 76.9,94.9 78.8,95.5 C82.8,96.7 87,97.3 91,98.4 C92.6,98.8 94.7,99.8 96.4,99.7 C97,99.7 95.9,81.8 95.8,80.4 C95.6,77.9 95.3,72.5 92.7,71.1 C90.1,69.5 89,74.4 89,76 C88.9,77.4 89,74.2 89,76 L89,76 Z" id="Shape"></path>
                        <path d="M53.8,26.5 C52.7,26.7 52,27.4 51.7,28.5 C51.7,28.6 51.4,30.2 51.3,30.2 C50.6,29.9 50.1,28 49.4,27.3 C48.5,26.4 47.3,26 46.2,26.7 C43.1,28.4 46,31.8 45.9,34.1 C43.9,32.7 41.1,28.8 38.3,30.9 C37.2,31.8 37.5,34.5 38,35.6 C38.7,37.3 40.3,38.6 41.7,39.7 C44.9,42.4 48.4,44.7 51.9,47 C53.3,48 54.9,48.7 56.3,49.7 C57,50.2 59.5,52.3 60.3,51.7 C60.1,51.8 57.9,46.3 57.9,45.9 C57.2,43.2 56.9,40.6 57,37.7 C57,34.8 58.7,25.7 53.8,26.5 C53,26.7 54.2,26.5 53.8,26.5 L53.8,26.5 Z" id="Shape"></path>
                        <path d="M27.1,4.8 C29.1,5.7 30.2,10.3 30.2,12.3 C30.3,15.2 28.9,17.6 27.9,20.2 C26.4,24.1 27.1,27.7 28.2,31.6 C28.4,32.2 29.4,34.8 28.9,35.5 C27.7,36.3 24.4,33.4 23.6,32.8 C17.7,28.5 12.3,23.6 6.8,19 C4.2,16.8 1.1,14.1 0.9,10.4 C0.7,6 4.7,8.4 7,8.3 C6.5,5.5 4.9,-1 10.4,0.3 C12.2,0.7 13.7,2.3 14.8,3.7 C15,4 17.4,7.4 17.3,7.6 C19,4.9 20.7,2.9 24,3.2 C25.5,3.3 26.1,4.4 27.1,4.8 C28,5.2 26.9,4.7 27.1,4.8 L27.1,4.8 Z" id="Shape"></path>
                        <path d="M36,54.2 C34.4,54.3 33.4,55.6 33,57 C32.9,57.5 31.9,60.5 32.1,60.9 C30.8,58.9 29.4,48.7 26.1,49.9 C20.7,51.8 24.9,59.8 23.8,63.4 C22.2,61.9 19.8,54.3 16.6,55.6 C13.8,56.8 17.7,64.3 19,65.9 C21.5,69 25.7,70.6 29.4,71.8 C32.2,72.6 37.2,74.8 40.2,74.2 C40,73.8 39.7,73.4 39.2,73.2 C38.4,72.5 38.4,71 38.3,70.1 C38.1,67.4 38.4,64.8 38.4,62.1 C38.4,60.8 38.4,54 36,54.2 C34.4,54.3 36.2,54.2 36,54.2 L36,54.2 Z" id="Shape"></path>
                    </g>
                </g>
            </g>
        </g>
    </g>
</svg>