<?xml version="1.0" encoding="UTF-8" standalone="no"?>
<svg width="92px" height="114px" viewBox="0 0 92 114" version="1.1" xmlns="http://www.w3.org/2000/svg" xmlns:xlink="http://www.w3.org/1999/xlink">
    <!-- Generator: Sketch 3.7.2 (28276) - http://www.bohemiancoding.com/sketch -->
    <title>Fermenting_assets</title>
    <desc>Created with Sketch.</desc>
    <defs></defs>
    <g id="Page-1" stroke="none" stroke-width="1" fill="none" fill-rule="evenodd">
        <g id="Fermenting_assets" fill="#CA447F">
            <path d="M39.6,29.3 C40.3,28.6 44.7,24.7 44.6,28 C44.5,30.2 42.7,31.8 41.9,33.8 C44.1,33.7 46.3,30.4 48.8,31.7 C51.8,33.2 47.3,36.5 46.7,38 C49.5,38.4 53.3,33.6 55.9,37.1 C57.6,39.4 53.3,42.5 51.6,43.3 C46.9,45.4 41.6,45.8 37.1,48.4 C32.8,50.9 28.5,54.2 24.9,57.6 C24.3,58.1 20,61.6 21.4,59.1 C22.8,56.6 24.8,54.5 26.3,52 C31.1,44.4 32.7,35.7 39.6,29.3 C40.3,28.6 39.4,29.4 39.6,29.3 L39.6,29.3 Z" id="Shape"></path>
            <path d="M17.5,7.1 C18.3,10.5 20.6,13.1 22.5,15.9 C24.4,18.7 25.9,22.2 26.3,25.6 C26.5,27.1 27.4,25.9 28.1,25.3 C29.2,24.3 30.5,23.4 31.8,22.5 C34.1,20.9 36.6,19.6 38.9,18 C42.6,15.5 47.6,12.8 48,7.7 C48.2,5.4 46.8,4.4 44.6,4.1 C42.9,3.9 41.4,4.3 40,5.3 C38.7,6.2 38,7.8 36.7,8.6 C36.4,7.3 36.9,5.8 37,4.5 C37.1,2.3 35,0.1 32.8,0.9 C30.7,1.6 29.7,3.9 29,5.7 C28.5,6.9 28.1,8.3 28,9.6 C27.9,10.4 28,11.5 27.5,12.2 C26.6,11 26.5,8.7 25.9,7.3 C25.1,5.4 24,3.7 22.3,2.4 C18.7,-0.4 16.8,3.9 17.5,7.1 C17.5,7 17.5,6.9 17.4,6.8 C17.5,6.8 17.5,6.9 17.5,7.1 C18.4,10.9 17.3,6.3 17.5,7.1 L17.5,7.1 Z" id="Shape"></path>
            <path d="M27.5,74.1 C27.5,76.7 23.3,79.4 21.4,80.6 C19.3,81.9 16.9,82.6 14.6,83.6 C11.8,84.8 9,85.9 6.3,87.2 C4.8,87.9 3.4,88.6 2,89.4 C1.4,89.8 1,90.7 0.5,90.6 C0.2,90.5 1.6,87.9 1.8,87.8 C3.2,86.3 4.4,84.8 5.8,83.3 C8,80.9 9.8,78.1 11.2,75.1 C11.8,73.8 14.4,66.6 16.8,67.8 C19.4,69.1 15.3,74.1 15.3,75.6 C17.9,73.6 19.6,68.4 23.5,68.2 C26.5,68.1 21.2,74.3 21.2,75.3 C22.1,74.7 27.5,70.7 27.5,74.1 C27.5,74.3 27.5,73.7 27.5,74.1 L27.5,74.1 Z" id="Shape"></path>
            <path d="M91.9,22.8 C92.2,28.8 88.4,33.2 84.3,37 C81.5,39.6 79,42.5 76.2,45.1 C74,47.2 71.1,50.9 68.2,52.1 C67.6,47.4 73.2,45 70.8,39.9 C68.9,35.7 65.3,31.9 64,27.5 C63,23.9 63.7,14.9 69.7,16.8 C73.4,18 73.7,23.3 74.9,26.2 C76,24.4 75.3,16.1 79.5,16.7 C83.8,17.4 82.1,20.9 83.2,23.9 C84.8,22.3 85.2,20 87.5,18.9 C90.3,17.6 91.8,20.3 91.9,22.8 C91.9,23 91.9,21.8 91.9,22.8 L91.9,22.8 Z" id="Shape"></path>
            <path d="M63.4,66.4 C63.2,66.6 63.1,66.8 63,67 C65.1,66.7 66.2,64.7 68.7,65 C73.3,65.5 67.7,69.5 67.1,71 C68.3,71.5 77.2,68.3 73.8,73.3 C71.4,76.9 66.3,77.9 62.4,78.9 C58.1,80 53.8,80.9 49.5,82.3 C47.1,83 42.9,85.2 40.3,84.7 C40.4,84.7 42.3,82.6 42.6,82.3 C44.1,80.9 45.4,79.3 46.7,77.7 C49.3,74.6 51.9,71.3 54.7,68.4 C56.8,66.2 59.2,62.4 62,61.2 C68.1,58.5 63.4,66.4 63.4,66.4 C63.3,66.5 63.4,66.4 63.4,66.4 L63.4,66.4 Z" id="Shape"></path>
            <path d="M30.6,94.6 C33.2,97.5 28.7,101.7 28.1,104.3 C29.7,104 36.5,96.9 38.1,100.8 C39.2,103.5 33.9,104.8 33.2,106.5 C34.6,106.8 36.8,105.8 38.4,105.9 C40.1,106 42.5,106.5 43.1,108.4 C43.7,110.5 41.5,111.7 39.9,112.4 C39.4,112.6 38.7,112.9 38.1,112.9 C37.4,113 35.6,112.6 35,112.8 C33.2,113.5 30.4,112.4 28.6,112.1 C26.8,111.8 24.5,111.4 22.7,111.6 C19.9,111.9 16.8,112.2 14.1,111.7 C15.2,110.4 17.9,110.5 19.3,109.4 C21.1,107.9 21.9,106.2 22.5,103.9 C22.9,102.5 27.5,91.1 30.6,94.6 C30.9,95 30.4,94.4 30.6,94.6 L30.6,94.6 Z" id="Shape"></path>
        </g>
    </g>
</svg>