<svg version="1.1" id="Layer_1" xmlns="http://www.w3.org/2000/svg" xmlns:xlink="http://www.w3.org/1999/xlink" x="0px" y="0px"
	 width="52px" height="159px" viewBox="0 0 52 159" enable-background="new 0 0 52 159" xml:space="preserve">
<path fill="#F9DF00" d="M27.417,22.001c0.008,17.298-1.5,38.75-3.667,56.25c-0.962,7.766,10.538,6.365,10.667,2
	c0.148-5.01,0.167-58.584,0.167-58.584S31.313,19.481,27.417,22.001z"/>
<path fill="#FF8338" d="M40.792,114c-1.204-4.737,3.958-9.123,5.25-15.5c2.08-10.273-0.441-22.148-15-22.25
	C8.366,76.093,5.107,88.435,7.542,98c1.432,5.621,6.543,7.148,6.25,13c-0.35,6.986-10.75,11.25-11,24.75
	c-0.187,10.076,8.268,19.448,27,19c10.458-0.25,18.303-7.682,19-20C49.542,121.5,43.417,124.333,40.792,114z"/>
<path fill="#FF8338" d="M34.22,25.589c0.293-3.613,2.172-4.523,4.516-5.397c1.444-0.538,0.378-9.063,0.035-10.707
	c-0.689-3.291-2.724-5.881-6.665-6.196c-3.122-0.252-6.913,0.047-8.962,2.707c-0.768,0.998-0.788,3.045-0.871,4.93
	c-0.293,6.564,0.302,10.943,4.188,10.872c2.944-0.054,0.204,6.699,2.758,7.186C31.577,29.433,33.987,28.481,34.22,25.589z"/>
<path fill="#CA447F" d="M37.213,10.676c0,0,0.631,0.058,0.957,0.029c0.542-0.05,1.074-0.221,1.616-0.273
	c0.541-0.052,1.267-0.128,1.917-0.066c0.301-0.75,0.794-1.263,1.107-0.811c0.889,1.293,0.686,2.886-0.908,3.163
	c-0.388-0.276-0.494-0.807-0.443-1.364c-0.42,0.03-0.845,0.125-1.237,0.193c-0.559,0.098-2.665,0.388-2.75,0.337
	C37.259,11.755,37.137,10.937,37.213,10.676z"/>
<path fill="#CA447F" d="M37.147,16.951c0.465,0.058,0.894,0.081,1.329,0.244c0.704,0.263,1.592,0.522,2.383,0.623
	c0.285-0.861,0.842-1.52,1.185-1.023c0.889,1.292,0.686,2.885-0.907,3.163c-0.418-0.297-0.509-0.888-0.428-1.491
	c-0.203-0.057-0.423-0.15-0.573-0.18c-0.347-0.067-0.69-0.064-1.039-0.086c-0.34-0.022-0.679-0.13-1.021-0.116
	c-0.681,0.027-1.168,0.02-1.168,0.02S36.963,16.93,37.147,16.951z"/>
<path fill="#CA447F" d="M23.47,17.199c-0.455-0.108-0.879-0.18-1.294-0.39c-0.671-0.339-1.524-0.695-2.299-0.883
	c-0.379,0.825-1.006,1.417-1.29,0.887c-0.741-1.383-0.363-2.943,1.251-3.044c0.382,0.342,0.408,0.939,0.26,1.529
	c0.196,0.079,0.404,0.196,0.549,0.242c0.338,0.105,0.681,0.141,1.024,0.201c0.335,0.06,0.66,0.203,1.001,0.228
	c0.68,0.048,1.164,0.109,1.164,0.109S23.65,17.241,23.47,17.199z"/>
<path fill="#42210B" d="M17.515,132.957c4.501-0.312,17.951-0.026,20.155,0.011c1.193-0.433,1.654,0.22,1.383,1.955
	c0.301,2.954-1.25,2.284-3.138,2.026c-4.976-0.684-10.155,0.429-15.17,0.325c-2.263-0.047-6.583,1.274-5.604-3.612
	C15.395,132.382,16.756,132.457,17.515,132.957z"/>
<path fill="#F9DF00" d="M33.624,109.422c2.048,1.149,3.48,5.36,3.244,7.477c-0.267,2.383,1.224,11.734-11.948,9.469
	c-7.134-1.227-7.025-7.892-4.327-12.969C22.675,109.473,27.654,106.069,33.624,109.422z"/>
<path fill="#CA447F" d="M23.424,11.117c-0.455-0.109-0.879-0.18-1.294-0.39c-0.671-0.339-1.524-0.696-2.3-0.883
	c-0.378,0.824-1.005,1.416-1.289,0.886c-0.741-1.382-0.363-2.943,1.251-3.043c0.382,0.342,0.408,0.938,0.26,1.528
	c0.196,0.079,0.404,0.196,0.549,0.242c0.338,0.106,0.681,0.142,1.024,0.201c0.335,0.06,0.66,0.203,1,0.229
	c0.681,0.048,1.164,0.108,1.164,0.108S23.604,11.159,23.424,11.117z"/>
<g>
	<path fill="#3FA9F5" d="M29.279,21.94c0,0-0.034,1.778-0.095,4.891c-0.049,1.555-0.107,3.443-0.175,5.609
		c-0.061,2.167-0.178,4.608-0.295,7.272c-0.115,2.664-0.238,5.55-0.433,8.6c-0.174,3.049-0.358,6.266-0.548,9.593
		c-0.212,3.326-0.369,6.767-0.516,10.263c-0.127,3.498-0.228,7.051-0.295,10.606c-0.118,7.111-0.378,14.219-0.597,20.883
		c-0.107,3.332-0.272,6.55-0.396,9.604c-0.147,3.053-0.373,5.937-0.556,8.598c-0.362,5.324-0.725,9.756-0.979,12.856
		c-0.273,3.1-0.429,4.871-0.429,4.871l-0.1-0.008c0,0,0.048-1.778,0.134-4.891c0.103-3.11,0.251-7.553,0.502-12.877
		c0.126-2.662,0.264-5.546,0.409-8.597c0.123-3.052,0.217-6.273,0.379-9.602c0.16-3.329,0.324-6.769,0.492-10.265
		c0.196-3.495,0.394-7.045,0.593-10.595c0.21-3.551,0.387-7.102,0.533-10.599c0.126-3.498,0.239-6.941,0.287-10.276
		c0.081-3.333,0.082-6.561,0.233-9.613c0.124-3.053,0.301-5.937,0.464-8.598c0.16-2.662,0.298-5.102,0.463-7.263
		c0.158-2.162,0.296-4.045,0.409-5.597c0.264-3.101,0.414-4.874,0.414-4.874L29.279,21.94z"/>
</g>
<g>
	<path fill="#3FA9F5" d="M30.654,22.189c0,0-0.013,1.769-0.034,4.865c-0.029,1.547-0.064,3.426-0.105,5.581
		c-0.033,2.155-0.119,4.585-0.204,7.236c-0.082,2.651-0.169,5.523-0.325,8.559c-0.12,3.037-0.351,6.235-0.539,9.546
		c-0.214,3.31-0.372,6.732-0.521,10.21c-0.13,3.479-0.232,7.014-0.302,10.55c-0.059,3.536-0.161,7.072-0.288,10.553
		c-0.133,3.48-0.264,6.906-0.39,10.221c-0.124,3.315-0.306,6.517-0.445,9.554c-0.136,3.038-0.308,5.907-0.465,8.555
		c-0.298,5.298-0.607,9.706-0.824,12.791c-0.235,3.083-0.369,4.845-0.369,4.845l-0.1-0.01c0,0,0.027-1.771,0.075-4.87
		c0.065-3.098,0.16-7.521,0.347-12.821c0.085-2.651,0.176-5.522,0.318-8.557c0.138-3.034,0.249-6.236,0.428-9.544
		c0.34-6.619,0.731-13.675,1.165-20.738c0.213-3.531,0.392-7.063,0.54-10.541c0.128-3.479,0.243-6.903,0.293-10.219
		c0.076-3.314,0.101-6.521,0.224-9.558c0.085-3.038,0.228-5.908,0.356-8.557c0.127-2.649,0.234-5.079,0.373-7.23
		c0.132-2.151,0.246-4.027,0.34-5.572c0.225-3.088,0.354-4.853,0.354-4.853L30.654,22.189z"/>
</g>
<g>
	<path fill="#3FA9F5" d="M31.998,22.41c0,0-0.057,1.777-0.202,4.884c-0.103,1.552-0.132,3.438-0.218,5.597
		c-0.107,2.157-0.161,4.6-0.254,7.26c-0.078,2.661-0.185,5.544-0.341,8.593c-0.138,3.05-0.357,6.264-0.461,9.594
		c-0.15,3.328-0.213,6.769-0.315,10.267c-0.093,3.496-0.188,7.048-0.282,10.6c-0.104,3.551-0.23,7.102-0.294,10.596
		c-0.08,3.495-0.146,6.934-0.263,10.26c-0.099,3.329-0.193,6.547-0.284,9.598c-0.115,3.051-0.225,5.936-0.326,8.598
		c-0.093,2.663-0.233,5.104-0.337,7.266c-0.114,2.163-0.214,4.048-0.295,5.601c-0.181,3.104-0.284,4.878-0.284,4.878l-0.1-0.004
		c0,0,0.011-1.776,0.028-4.887c0.02-3.109,0.086-7.549,0.178-12.876c0.042-2.664,0.088-5.55,0.137-8.603
		c0.075-3.052,0.155-6.271,0.238-9.601c0.075-3.332,0.208-6.772,0.328-10.269c0.105-3.498,0.268-7.046,0.463-10.593
		c0.171-3.545,0.387-7.1,0.63-10.585c0.132-1.743,0.206-3.476,0.271-5.188c0.082-1.711,0.134-3.403,0.154-5.068
		c0.087-3.329,0.045-6.551,0.074-9.604c-0.006-1.527,0.039-3.012,0.074-4.449c0.037-1.437,0.056-2.825,0.136-4.156
		c0.148-2.664,0.227-5.104,0.401-7.269c0.184-2.161,0.296-4.049,0.472-5.593c0.347-3.091,0.571-4.854,0.571-4.854L31.998,22.41z"/>
</g>
<g>
	<path fill="#3FA9F5" d="M33.373,23c0,0,0.099,1.591,0.214,4.676c0.015,1.546,0.031,3.336,0.05,5.488
		c-0.038,2.15-0.082,4.534-0.13,7.181c-0.109,2.644-0.219,5.488-0.442,8.512c-0.211,3.025-0.424,6.205-0.584,9.507
		c-0.142,3.303-0.249,6.713-0.275,10.184c-0.037,3.474-0.136,6.996-0.239,10.522c-0.256,7.053-0.51,14.102-0.854,20.705
		c-0.326,6.604-0.631,12.765-0.893,18.048c-0.125,2.641-0.239,5.062-0.34,7.208c-0.075,2.146-0.192,4.018-0.224,5.559
		c-0.081,3.084-0.127,4.847-0.127,4.847l-0.1,0.002c0,0-0.042-1.765-0.115-4.852c-0.057-1.546-0.01-3.419-0.003-5.57
		c0.011-2.151,0.037-4.578,0.118-7.222c0.119-5.292,0.339-11.462,0.646-18.068c0.141-3.304,0.294-6.717,0.485-10.183
		c0.176-3.466,0.354-6.987,0.532-10.508c0.184-3.521,0.314-7.047,0.532-10.512c0.203-3.469,0.408-6.88,0.545-10.184
		c0.131-3.304,0.192-6.5,0.231-9.532c0.038-3.031,0.118-5.722,0.214-8.365C33.01,29.874,33.273,23,33.273,23H33.373z"/>
</g>
<path fill="#3FA9F5" d="M32.106,111.53c1.506,0.847,2.56,3.941,2.386,5.498c-0.195,1.751,0.9,8.626-8.785,6.961
	c-5.245-0.901-5.164-5.802-3.182-9.534C24.057,111.567,27.718,109.066,32.106,111.53z"/>
<path fill="#CA447F" d="M29.707,11.845c-0.889-4.813,3.602-5.915,3.522-0.662c0.813-0.854,0.976-2.318,1.993-2.991
	c1.479-0.978,1.777,1.601,1.636,2.361c-0.564,3.014-2.407,5.994-4.119,8.489c-1.438,2.095-2.211,0.247-3.649-1.369
	c-1.848-2.076-5.278-6.229-2.985-9.083C27.746,7.315,29.35,10.227,29.707,11.845z"/>
<path fill="#3FA9F5" d="M21.104,134.125c4.851,0.268,11.031-0.906,11.219,0.219s0.813,1.875,0.313,2.375s-8.854,0.165-11.688-0.125
	C20.392,134.636,21.06,134.182,21.104,134.125z"/>
<g>
	<path fill="#3FA9F5" d="M23.542,16.958c0,0,0.556-0.068,1.404-0.042c0.422,0.024,0.919,0.05,1.447,0.167
		c0.263,0.063,0.536,0.131,0.804,0.248c0.265,0.115,0.536,0.249,0.773,0.438c0.24,0.18,0.457,0.405,0.619,0.652
		c0.184,0.236,0.291,0.511,0.389,0.767c0.198,0.519,0.224,1.026,0.271,1.447c0.04,0.85-0.041,1.408-0.041,1.408
		s-0.023-0.138-0.065-0.38c-0.025-0.243-0.105-0.584-0.173-0.991c-0.165-0.796-0.472-1.895-1.303-2.506
		c-0.195-0.164-0.428-0.285-0.661-0.392c-0.236-0.105-0.479-0.194-0.722-0.265c-0.486-0.138-0.958-0.246-1.366-0.313
		c-0.412-0.069-0.755-0.127-0.996-0.168C23.681,16.983,23.542,16.958,23.542,16.958z"/>
</g>
<g>
	<path fill="#3FA9F5" d="M30.573,22.344c0,0-0.029-0.234-0.08-0.643c-0.021-0.205-0.044-0.454-0.1-0.734
		c-0.055-0.28-0.094-0.597-0.166-0.939c-0.275-1.37-0.782-3.172-1.583-4.843c-0.213-0.41-0.396-0.837-0.64-1.22
		c-0.219-0.399-0.479-0.762-0.729-1.114c-0.273-0.33-0.514-0.677-0.797-0.949c-0.267-0.293-0.549-0.534-0.827-0.737
		c-0.269-0.217-0.558-0.345-0.794-0.499c-0.26-0.096-0.487-0.199-0.682-0.254c-0.402-0.076-0.632-0.119-0.632-0.119
		s0.237,0.009,0.651,0.024c0.205,0.032,0.448,0.107,0.735,0.177c0.26,0.124,0.586,0.228,0.88,0.438
		c0.308,0.192,0.624,0.424,0.924,0.709c0.319,0.266,0.6,0.601,0.888,0.946c0.268,0.36,0.548,0.731,0.785,1.139
		c0.262,0.393,0.463,0.826,0.69,1.246c0.179,0.442,0.39,0.871,0.532,1.318c0.162,0.44,0.305,0.878,0.419,1.309
		c0.248,0.857,0.363,1.684,0.457,2.386c0.055,0.351,0.054,0.682,0.074,0.968c0.022,0.288,0.015,0.538,0.012,0.744
		C30.579,22.108,30.573,22.344,30.573,22.344z"/>
</g>
<g>
	<path fill="#3FA9F5" d="M32.073,22.406c0,0-0.062-0.224-0.169-0.616c-0.104-0.391-0.24-0.958-0.346-1.652
		c-0.037-0.348-0.11-0.723-0.123-1.126c-0.033-0.402-0.052-0.829-0.022-1.272c0.01-0.442,0.073-0.901,0.162-1.36l0.17-0.689
		l0.248-0.675c0.207-0.434,0.431-0.864,0.728-1.236c0.13-0.2,0.29-0.373,0.459-0.533c0.165-0.163,0.315-0.337,0.502-0.465
		c0.179-0.135,0.354-0.269,0.526-0.399c0.188-0.104,0.371-0.207,0.55-0.307c0.348-0.215,0.724-0.318,1.043-0.466
		c0.328-0.127,0.646-0.193,0.92-0.271c0.272-0.084,0.522-0.104,0.722-0.146c0.401-0.063,0.631-0.099,0.631-0.099
		s-0.221,0.07-0.608,0.193c-0.191,0.064-0.433,0.113-0.689,0.229c-0.258,0.111-0.557,0.212-0.868,0.354
		c-0.299,0.166-0.652,0.291-0.968,0.521c-0.161,0.106-0.327,0.216-0.497,0.328c-0.155,0.13-0.313,0.262-0.475,0.397
		c-0.171,0.124-0.302,0.293-0.449,0.449c-0.149,0.155-0.292,0.317-0.41,0.502c-0.27,0.345-0.469,0.745-0.656,1.146l-0.239,0.624
		l-0.167,0.645c-0.084,0.433-0.173,0.863-0.194,1.289c-0.038,0.423-0.058,0.835-0.054,1.229c-0.017,0.394,0.028,0.765,0.039,1.109
		c0.06,0.685,0.098,1.263,0.162,1.664C32.045,22.176,32.073,22.406,32.073,22.406z"/>
</g>
<g>
	<path fill="#3FA9F5" d="M33.323,23.031c0,0,0.038-0.512,0.096-1.28c0.069-0.76,0.102-1.812,0.545-2.818
		c0.11-0.25,0.265-0.481,0.43-0.702c0.187-0.205,0.386-0.394,0.617-0.522c0.21-0.164,0.469-0.207,0.685-0.292
		c0.231-0.033,0.445-0.087,0.645-0.092c0.399-0.018,0.724,0.028,0.947,0.075c0.222,0.044,0.349,0.069,0.349,0.069
		s-0.129,0.01-0.354,0.028c-0.11,0.006-0.245,0.015-0.399,0.024c-0.152,0.029-0.322,0.061-0.507,0.083
		c-0.183,0.029-0.369,0.106-0.568,0.16c-0.178,0.104-0.39,0.167-0.554,0.313c-0.188,0.115-0.328,0.292-0.483,0.458
		c-0.132,0.188-0.259,0.384-0.352,0.607c-0.2,0.436-0.328,0.917-0.436,1.376c-0.104,0.467-0.203,0.902-0.286,1.276
		C33.523,22.553,33.323,23.031,33.323,23.031z"/>
</g>
</svg>
