<?xml version="1.0" encoding="UTF-8" standalone="no"?>
<svg width="15px" height="21px" viewBox="0 0 15 21" version="1.1" xmlns="http://www.w3.org/2000/svg" xmlns:xlink="http://www.w3.org/1999/xlink">
    <g id="Page-1" stroke="none" stroke-width="1" fill="none" fill-rule="evenodd">
        <g id="Fermenting_assets" transform="translate(-516.000000, -295.000000)">
            <g id="Layer_1">
                <g id="merging-cell" transform="translate(516.000000, 295.000000)">
                    <path d="M11,20.1 C12.2,19.8 13.9,18 14.3,16.6 C15.1,13.9 13.9,11.6 13.1,10.9 C11.7,9.7 10.5,9.9 10,9.9 C9.9,9.7 11.8,8.6 11.8,6.4 C11.8,5.2 11.1,4 10.4,3 C7.8,-0.9 3.1,0.2 1.6,3.4 C0.7,5.2 0.8,6.5 1.6,8.3 C2.4,10.1 4.4,10.8 6,11 C6.3,11 3.6,13 4,15.3 C4.3,17.1 5.2,18.8 6.3,19.6 C7.4,20.5 9.2,20.6 11,20.1 L11,20.1 Z" id="Shape" fill="#DA94B1"></path>
                    <path d="M5.1,4.8 C3.9,6 4.4,7.9 5.6,8.6 C6.6,9.2 7.2,10 7.4,10.4 C7.5,10.8 8.2,12 8.1,12.8 C8,13.6 7.6,14.4 7.8,15.2 C8,16.2 8.9,17 10.3,16.3 C11.6,15.7 11.8,14.1 11.1,13.5 C10.6,13 9.7,12.6 9.3,12.4 C9,12.2 8.2,10.3 8.1,10.1 C7.9,9.6 7.7,8.9 8,7.6 C8.2,6.8 8.1,5.8 7.7,5.2 C7.2,4.6 6.2,3.8 5.1,4.8 L5.1,4.8 Z" id="Shape" fill="#6795CE"></path>
                </g>
            </g>
        </g>
    </g>
</svg>