<?xml version="1.0" encoding="utf-8"?>
<!-- Generator: Adobe Illustrator 16.0.3, SVG Export Plug-In . SVG Version: 6.00 Build 0)  -->
<!DOCTYPE svg PUBLIC "-//W3C//DTD SVG 1.1//EN" "http://www.w3.org/Graphics/SVG/1.1/DTD/svg11.dtd">
<svg version="1.1" id="Layer_1" xmlns="http://www.w3.org/2000/svg" xmlns:xlink="http://www.w3.org/1999/xlink" x="0px" y="0px"
	 width="38.5px" height="52px" viewBox="0 0 38.5 52" enable-background="new 0 0 38.5 52" xml:space="preserve">
<path fill="#4D509B" d="M34.119,25.691c1.611,0.734,2.273,1.568,2.077,2.645c-0.196,1.139-1.599,2.352-3.021,2.309
	c-2.04-0.059-4.075-0.262-6.095-0.559c-0.559-0.08-1.141-0.611-1.524-1.09c-1.977-2.426-4.177-4.531-7.249-5.498
	c-0.355-0.123-0.696-0.313-1.053-0.465c0.028,0.371,0.015,0.74,0.109,1.09c1.089,3.871,2.207,7.721,3.289,11.584
	c0.553,1.977,1.09,3.967,1.54,5.971c0.139,0.574-0.05,1.271-0.151,1.795c-1.075,5.338-3.589,5.207-6.603,6.631
	c-3.901,1.838-7.671,0.895-10.641-2.455C0.367,42.65,3.875,36.535,5.9,35.178c2.697-1.793,6.283-1.359,9.399-1.67
	c0.218-0.016,0.624-0.451,0.581-0.619c-0.283-1.365-0.661-2.717-1.018-4.059c-0.102-0.371-0.24-0.734-0.363-1.09
	c-0.762-2.18-3.313-10.395-3.994-12.283C9.329,12.219,8.276,8.936,7.15,5.681c-0.297-0.879-0.508-1.75,0.233-2.484
	c0.798-0.785,1.866-0.966,2.817-0.53c2.825,1.271,5.738,2.44,8.324,4.097c1.46,0.944,2.513,2.667,3.486,4.206
	c2.084,3.297,3.849,6.807,6.021,10.039C29.485,23.172,31.729,24.602,34.119,25.691z"/>
</svg>
