<?xml version="1.0" encoding="utf-8"?>
<!-- Generator: Adobe Illustrator 16.0.3, SVG Export Plug-In . SVG Version: 6.00 Build 0)  -->
<!DOCTYPE svg PUBLIC "-//W3C//DTD SVG 1.1//EN" "http://www.w3.org/Graphics/SVG/1.1/DTD/svg11.dtd">
<svg version="1.1" id="Layer_1" xmlns="http://www.w3.org/2000/svg" xmlns:xlink="http://www.w3.org/1999/xlink" x="0px" y="0px"
	 width="60px" height="57.5px" viewBox="0 0 60 57.5" enable-background="new 0 0 60 57.5" xml:space="preserve">
<path fill="#4D509B" d="M53.736,46.063c-0.451-2.006-0.988-3.996-1.54-5.971c-1.082-3.865-2.201-7.715-3.291-11.586
	c-0.095-0.348-4.317-15.537-6.946-19.988c-0.533-0.9-2.233-1.722-3.033-0.938c-0.149,0.148-0.252,0.305-0.331,0.464
	c-3.642-1.128-5.444,1.519-11.293-1.569C24.586,5.042,15.88,4.084,13.053,2.813c-0.95-0.436-2.018-0.254-2.816,0.531
	c-0.74,0.732-0.531,1.605-0.232,2.483c1.125,3.255,2.18,6.538,3.354,9.776c0.685,1.889,3.233,10.104,3.995,12.283
	c0.123,0.355,0.262,0.719,0.363,1.088c0.356,1.344,0.734,2.695,1.018,4.061c0.043,0.168-0.364,0.604-0.581,0.619
	c-3.116,0.311-6.704-0.125-9.399,1.67C6.729,36.682,3.22,42.799,7.65,47.795c2.971,3.348,6.74,4.293,10.641,2.455
	c3.014-1.424,5.527-1.293,6.602-6.631c0.102-0.523,0.292-1.221,0.154-1.795c-0.451-2.004-0.989-3.994-1.541-5.971
	c-1.082-3.863-2.201-7.713-3.291-11.584c-0.094-0.35-0.08-0.719-0.107-1.09c0.355,0.152,4.121,0.73,11.592,2.361
	c7.626,1.666,12.277,1.283,12.587,1.178c0.726,2.27,1.418,4.436,1.757,5.404c0.123,0.357,0.263,0.719,0.364,1.09
	c0.355,1.344,0.733,2.695,1.017,4.061c0.045,0.166-0.363,0.602-0.581,0.617c-3.116,0.313-6.704-0.123-9.398,1.67
	c-2.026,1.359-5.534,7.475-1.104,12.471c2.971,3.35,6.74,4.293,10.641,2.455c3.015-1.424,5.527-1.293,6.603-6.631
	C53.685,47.332,53.874,46.637,53.736,46.063z"/>
</svg>
