<?xml version="1.0" encoding="iso-8859-1"?>
<!-- Generator: Adobe Illustrator 16.0.0, SVG Export Plug-In . SVG Version: 6.00 Build 0)  -->
<!DOCTYPE svg PUBLIC "-//W3C//DTD SVG 1.1//EN" "http://www.w3.org/Graphics/SVG/1.1/DTD/svg11.dtd">
<svg xmlns="http://www.w3.org/2000/svg" xmlns:xlink="http://www.w3.org/1999/xlink" version="1.1" id="Capa_1" x="0px" y="0px" width="512px" height="512px" viewBox="0 0 336.678 336.678" style="enable-background:new 0 0 336.678 336.678;" xml:space="preserve">
<g>
	<path d="M317.344,3.216c-7.062-7.344-25.305-0.111-35.261,2.054l-132.48,28.838c-9.956,2.17-26.409,4.708-35.81,8.632   c-8.629,3.609-17.149,9.779-17.149,20.059v183.812c0,10.19-4.201,10.701-14.15,8.491c-4.888-1.087-11.472-1.808-20.32-1.808   c-41.646,0-48.564,42.526-48.564,46.483c0,3.951,4.942,36.899,45.585,36.899c40.67,0,61.459-28.007,61.459-46.825V111.135   c0,0,1.003-18.828,22.818-23.771l119.096-28.396c0,0,36.558-11.271,36.558,15.495l-0.204,136.45   c-0.012,10.19-4.071,10.545-13.985,8.227c-4.918-1.146-11.547-1.909-20.519-1.909c-39.775,0-48.561,42.874-48.561,46.819   c0,3.999,4.954,36.575,45.589,36.575c40.67,0,61.465-27.628,61.465-46.501V27.104C322.916,27.104,324.525,10.68,317.344,3.216z" fill="#FFDA44"/>
</g>
<g>
</g>
<g>
</g>
<g>
</g>
<g>
</g>
<g>
</g>
<g>
</g>
<g>
</g>
<g>
</g>
<g>
</g>
<g>
</g>
<g>
</g>
<g>
</g>
<g>
</g>
<g>
</g>
<g>
</g>
</svg>
