<?xml version="1.0" encoding="UTF-8" standalone="no"?>
<svg width="85px" height="110px" viewBox="0 0 85 110" version="1.1" xmlns="http://www.w3.org/2000/svg" xmlns:xlink="http://www.w3.org/1999/xlink">
    <g id="Page-1" stroke="none" stroke-width="1" fill="none" fill-rule="evenodd">
        <g id="Fermenting_assets" fill="#4D509B">
            <path d="M31.8,57.9 C33.4,58.6 34.1,59.5 33.9,60.5 C33.7,61.6 32.3,62.9 30.9,62.8 C28.9,62.7 26.8,62.5 24.8,62.2 C24.2,62.1 23.7,61.6 23.3,61.1 C21.3,58.7 19.1,56.6 16.1,55.6 C15.7,55.5 15.4,55.3 15,55.1 C15,55.5 15,55.8 15.1,56.2 C16.2,60.1 17.3,63.9 18.4,67.8 C19,69.8 19.5,71.8 19.9,73.8 C20,74.4 19.9,75.1 19.7,75.6 C18.6,80.9 16.1,80.8 13.1,82.2 C9.2,84 5.4,83.1 2.5,79.7 C-1.9,74.7 1.6,68.6 3.6,67.2 C6.3,65.4 9.9,65.8 13,65.5 C13.2,65.5 13.6,65 13.6,64.9 C13.3,63.5 12.9,62.2 12.6,60.8 C12.5,60.4 12.4,60.1 12.2,59.7 C11.4,57.5 8.9,49.3 8.2,47.4 C7,44.2 6,40.9 4.8,37.6 C4.5,36.7 4.3,35.8 5,35.1 C5.8,34.3 6.9,34.1 7.8,34.6 C10.6,35.9 13.5,37 16.1,38.7 C17.6,39.6 18.6,41.4 19.6,42.9 C21.7,46.2 23.4,49.7 25.6,52.9 C27.1,55.4 29.4,56.8 31.8,57.9 L31.8,57.9 Z" id="Shape"></path>
            <path d="M83.9,100.2 L82.4,94.2 C81.3,90.3 80.2,86.5 79.1,82.6 C79,82.3 74.8,67.1 72.2,62.6 C71.7,61.7 70,60.9 69.2,61.7 C69.1,61.8 68.9,62 68.9,62.2 C65.3,61.1 63.5,63.7 57.6,60.6 C54.9,59.2 46.2,58.2 43.4,56.9 C42.4,56.5 41.4,56.6 40.6,57.4 C39.9,58.1 40.1,59 40.4,59.9 C41.5,63.2 42.6,66.4 43.8,69.7 C44.5,71.6 47,79.8 47.8,82 C47.9,82.4 48.1,82.7 48.2,83.1 C48.6,84.4 48.9,85.8 49.2,87.2 C49.2,87.4 48.8,87.8 48.6,87.8 C45.5,88.1 41.9,87.7 39.2,89.5 C37.2,90.9 33.7,97 38.1,102 C41.1,105.3 44.8,106.3 48.7,104.5 C51.7,103.1 54.2,103.2 55.3,97.9 C55.4,97.4 55.6,96.7 55.5,96.1 L54,90.1 C52.9,86.2 51.8,82.4 50.7,78.5 C50.6,78.2 50.6,77.8 50.6,77.4 C51,77.6 54.7,78.1 62.2,79.8 C69.8,81.5 74.5,81.1 74.8,81 C75.5,83.3 76.2,85.4 76.6,86.4 C76.7,86.8 76.9,87.1 77,87.5 C77.4,88.8 77.7,90.2 78,91.6 C78,91.8 77.6,92.2 77.4,92.2 C74.3,92.5 70.7,92.1 68,93.9 C66,95.3 62.5,101.4 66.9,106.4 C69.9,109.7 73.6,110.7 77.5,108.9 C80.5,107.5 83,107.6 84.1,102.3 C83.8,101.4 84,100.7 83.9,100.2 L83.9,100.2 Z" id="Shape"></path>
            <path d="M67.1,23.6 C68.7,24.3 69.4,25.2 69.2,26.2 C69,27.3 67.6,28.6 66.2,28.5 C64.2,28.4 62.1,28.2 60.1,27.9 C59.5,27.8 59,27.3 58.6,26.8 C56.6,24.4 54.4,22.3 51.4,21.3 C51,21.2 50.7,21 50.3,20.8 C50.3,21.2 50.3,21.5 50.4,21.9 C51.5,25.8 52.6,29.6 53.7,33.5 C54.3,35.5 54.8,37.5 55.2,39.5 C55.3,40.1 55.1,40.8 55,41.3 C53.9,46.6 51.4,46.5 48.4,47.9 C44.5,49.7 40.7,48.8 37.8,45.4 C33.4,40.4 36.9,34.3 38.9,32.9 C41.6,31.1 45.2,31.5 48.3,31.2 C48.5,31.2 48.9,30.7 48.9,30.6 C48.6,29.2 48.2,27.9 47.9,26.5 C47.8,26.1 47.7,25.8 47.5,25.4 C46.7,23.2 44.2,15 43.5,13.1 C42.3,9.9 41.3,6.6 40.1,3.3 C39.8,2.4 39.6,1.5 40.3,0.8 C41.1,1.13242749e-14 42.2,-0.2 43.1,0.3 C45.9,1.6 48.8,2.7 51.4,4.4 C52.9,5.3 53.9,7.1 54.9,8.6 C57,11.9 58.7,15.4 60.9,18.6 C62.4,21.1 64.7,22.5 67.1,23.6 L67.1,23.6 Z" id="Shape"></path>
        </g>
    </g>
</svg>