<?xml version="1.0" encoding="UTF-8" standalone="no"?>
<svg width="47px" height="20px" viewBox="0 0 47 20" version="1.1" xmlns="http://www.w3.org/2000/svg" xmlns:xlink="http://www.w3.org/1999/xlink">
    <!-- Generator: Sketch 3.8.3 (29802) - http://www.bohemiancoding.com/sketch -->
    <title>Shape</title>
    <desc>Created with Sketch.</desc>
    <defs></defs>
    <g id="Page-1" stroke="none" stroke-width="1" fill="none" fill-rule="evenodd">
        <g id="Fermenting_assets" transform="translate(-497.000000, -256.000000)" fill="#0000FF">
            <g id="Layer_1">
                <path d="M540.1,275 C538.4,274.3 536.6,273.8 535.1,272.8 C533.8,271.9 532.2,271.8 531,271 C529.3,269.8 527.5,269.5 525.5,269.5 C522.8,269.5 520.5,268.6 518.5,266.6 C517.5,265.6 516,264.9 514.7,264.3 C512.6,263.3 510.3,262.4 508.2,261.4 C508,261.3 507.8,261.2 507.7,261.2 C505.8,260.9 504.2,260.1 502.6,259.2 C501.3,258.4 499.6,258.2 498,257.8 C497.8,257.7 497.5,257.7 497.4,257.6 C497.2,257.5 497.2,257.2 497,257 C497.2,257 497.4,256.9 497.6,256.9 C498.1,256.9 498.7,257.1 499.2,257.1 C500.9,257.1 502.4,257.8 504,258.5 C505.7,259.3 507.4,260.2 509.5,259.9 C511.1,259.6 512.4,260.4 513.6,261.3 C514.8,262.2 516.1,262.2 517.4,262.4 C518.7,262.6 520,262.9 521.3,263.3 C522.1,263.6 522.8,264.2 523.5,264.5 C525.1,265.1 526.6,265.1 528.3,264.7 C529.2,264.5 530.2,264.5 531.1,264.6 C532.7,264.8 534.2,265.2 535.8,265.2 C538.5,265.3 540.3,267 542,268.8 C543.1,270 543.8,271.2 543.7,272.8 C543.6,274.6 542.3,275.4 541,275.1 C540.7,275 540.3,274.9 540,274.8 C540.2,274.8 540.1,274.9 540.1,275 L540.1,275 Z" id="Shape"></path>
            </g>
        </g>
    </g>
</svg>