<?xml version="1.0" encoding="UTF-8" standalone="no"?>
<svg width="459px" height="356px" viewBox="0 0 459 356" version="1.1" xmlns="http://www.w3.org/2000/svg" xmlns:xlink="http://www.w3.org/1999/xlink">
    <g id="Page-1" stroke="none" stroke-width="1" fill="none" fill-rule="evenodd">
        <g id="cap">
            <path d="M453.8,192.2 C455.8,183.9 438.5,163.6 440.7,160.2 C441.5,157.5 445.1,154.6 453.8,154.3 C462.5,154 457,149.6 453.7,144.8 C438.9,119.8 417.4,79.8 402.1,57.2 C396.6,41.4 374.6,21.3 362.5,16.1 C339,6 313,1 298.7,0.5 C269.3,-0.5 239.9,0.5 210.9,7.8 C178,15.9 132.6,33 105.7,53.4 C83.4,70.4 70.2,74.2 45.8,98.4 C23.5,120.5 7.7,151.9 6.1,185.4 C5.8,192.6 2.3,223.2 1.4,229 C-0.5,241.1 0.7,252.6 0.8,257.5 C1,261.1 2,268.1 8.6,275.4 C13.5,278.5 19.2,272.3 20.1,274.6 C24,284.5 19.9,307.9 29.8,309.4 C41.4,311.1 52.1,300.4 56.8,313.3 C59.1,319.5 59.7,332.8 65.2,336.2 C69.8,339 79.6,333.6 83.4,330.9 C89.8,326.4 99.6,327.3 105,332.5 C111.8,339 112.6,351.5 122.2,353.5 C127.9,354.7 133.6,348.7 138.6,344.2 C140.5,342.5 154.1,334.6 164.2,337.8 C172.5,340.4 176.8,354 183.8,355.2 C189.5,356.2 193.7,356 195,353.5 C201.1,349.5 201.7,344.3 207,339.5 C205.7,340.8 212.9,335.8 213.8,335.3 C214.7,334.9 222.4,332.1 225.6,331.5 C224.4,331.7 232.7,329.4 238.3,332.1 C243.9,334.7 244.7,344 258.8,343.6 C268.7,343.3 273.9,323.2 284.9,316.4 C296,309.7 305.8,315.4 315.7,318.2 C325.6,321 331.9,324.7 334.7,315.6 C337.5,306.5 335.1,299.3 338.6,293.6 C342.1,287.9 355,281.2 361.2,279.6 C368.6,277.7 384.6,284.3 390.3,279.3 C396.2,274.1 390,269.2 390.4,261.4 C390.8,253.5 399.5,242.7 407.2,240.2 C414.9,237.7 424,241.5 429.4,237.9 C437.5,228.5 427.4,220.1 426.1,214 C425.7,212.3 424.5,206.6 432.8,199 C439.5,192.8 451.8,200 453.8,192.2 L453.8,192.2 Z M407.4,86.7 C410.9,80.7 423.2,105.2 423.2,105.2 C423.2,105.2 438.8,134.9 446.1,146.3 C441,145.3 436.7,149.8 434.9,151.9 C434.7,152.1 434.5,152.4 434.3,152.6 C424.7,140.2 410.1,117.9 406.3,109.4 C404.6,105.8 405,90.8 407.4,86.7 L407.4,86.7 Z M17.9,261.2 C14.9,265.1 9.5,259.4 7.6,246 C6.3,236.8 9.5,211.7 11.7,208.3 C13.4,212.6 23.4,224.2 23.1,232.9 C22.7,241.6 20.9,257.3 17.9,261.2 L17.9,261.2 Z M29,294.2 C24.5,295.5 25.7,263.1 27.9,248.6 C29,240.9 33.5,243.3 37.4,244.5 C44.5,246.7 54,251.7 59.9,268.1 C62.6,275.6 57.5,290.6 58.1,302.8 C51,290.6 39.9,291.1 29,294.2 L29,294.2 Z M114.7,333.3 C108.8,324.9 102.2,310.2 88,317.9 C87,318 69.2,331 67,318.6 C67,318.4 66.9,318.1 66.9,317.9 C67.3,302.7 67.4,273.3 76.6,274.4 C91.4,276.2 105.9,277.4 111,298.7 C112,302.7 115.2,325.7 116.8,333.1 C117.2,335.1 115.6,334.8 114.7,333.3 L114.7,333.3 Z M169.4,332.6 C151.4,325.4 150.2,327 143.4,330.6 C136.8,334.1 135.2,346.3 124.9,341.1 C123.5,329.9 117.9,299.6 117.8,295 C117.5,284.4 149.9,277 161.1,286.4 C170.1,293.9 177.6,335.1 179.6,339.3 C177.9,338.3 175.4,335 169.4,332.6 L169.4,332.6 Z M250.4,327.5 C232.3,313.6 206,321.6 187.8,337.1 C186.3,328.1 179.6,306.3 179.3,303.3 C176.9,280.3 201.5,278 208,277 C214.5,276.1 234.4,279.8 238.1,287.7 C241.7,295.6 252.2,320.2 257,331.6 C254.5,332.7 253.1,329.7 250.4,327.5 L250.4,327.5 Z M318.9,307.9 C312.2,308.4 303,301.4 294.9,302.1 C280.5,303.4 271.7,310.5 264.1,327.2 C264,327.3 263.9,327.4 263.9,327.5 C262.3,321.5 249.1,289.3 251,284 C252.3,279.6 257,263.2 278.5,260.3 C290.6,258.7 295.5,265.4 298.3,269.2 C302.6,275.1 311.9,296.6 319.2,307.7 C319.1,307.8 319,307.9 318.9,307.9 L318.9,307.9 Z M351.3,270.9 C336.1,279.6 340.5,276.2 330.4,285.6 C327.3,288.5 327.1,297.3 326.2,300.9 C323.4,294.3 306.6,264.8 306.3,261.2 C305,245.8 324.5,235.2 337.5,230.2 C343.3,228 350.6,229.7 355.6,233.4 C361.3,237.6 368.4,249.9 372,256.1 C372.3,256.7 375.7,263.7 378.4,269 C373.7,269.2 364.3,263.4 351.3,270.9 L351.3,270.9 Z M391,238.6 C384.3,243.9 382.6,250.6 382.1,256.3 C378.7,249 360.7,219.9 361.1,213.3 C362.6,185.8 379.1,174.9 381.9,174.9 C383.8,174.9 391.8,182.1 392.8,183.4 C394.5,185.5 411.5,203.5 416.7,211.3 C419.9,217.8 417.8,219.8 417.9,224.7 C418.1,233.4 399.8,229.8 391,238.6 L391,238.6 Z M421.1,199.5 C420.3,200.7 419.6,201.9 419,203 C415,196 405.6,184.3 399.9,175.1 C387,158.3 388.9,152 391.8,142.5 C393.1,138.1 395.1,134.1 397.4,131.6 C400.5,128.2 408.5,135.4 409.9,138.1 C411.6,141.3 443.9,176.6 438.3,185.3 C434.8,187.3 426.6,191.5 421.1,199.5 L421.1,199.5 Z" id="Shape" fill="#4D509B"></path>
            <path d="M409.8,138 C411.5,141.2 443.8,176.5 438.2,185.2 C434.8,187.3 426.6,191.5 421.1,199.5 C420.3,200.7 419.6,201.9 419,203 C415,196 405.6,184.3 399.9,175.1 C387,158.3 388.9,152 391.8,142.5 C393.1,138.1 395.1,134.1 397.4,131.6 C400.5,128.2 408.4,135.4 409.8,138 L409.8,138 Z" id="Shape" fill="#CE4680"></path>
            <path d="M446.1,146.4 C441,145.4 436.7,149.9 434.9,152 C434.7,152.2 434.5,152.5 434.3,152.7 C424.7,140.3 410.1,118 406.3,109.5 C404.7,105.8 405.1,90.8 407.4,86.7 C410.9,80.7 423.2,105.2 423.2,105.2 C423.2,105.2 438.8,135 446.1,146.4 L446.1,146.4 Z" id="Shape" fill="#CE4680"></path>
            <path d="M418,224.7 C418.1,233.4 399.9,229.8 391,238.6 C384.3,243.9 382.6,250.6 382.1,256.3 C378.7,249 360.7,219.9 361.1,213.3 C362.6,185.8 379.1,174.9 381.9,174.9 C383.8,174.9 391.8,182.1 392.8,183.4 C394.5,185.5 411.5,203.5 416.7,211.3 C419.9,217.7 417.9,219.7 418,224.7 L418,224.7 Z" id="Shape" fill="#CE4680"></path>
            <path d="M378.4,269 C373.6,269.1 364.3,263.4 351.2,270.9 C336,279.6 340.4,276.2 330.3,285.6 C327.2,288.5 327,297.3 326.1,300.9 C323.3,294.3 306.5,264.8 306.2,261.2 C304.9,245.8 324.4,235.2 337.4,230.2 C343.2,228 350.5,229.7 355.5,233.4 C361.2,237.6 368.3,249.9 371.9,256.1 C372.4,256.7 375.8,263.7 378.4,269 L378.4,269 Z" id="Shape" fill="#CE4680"></path>
            <path d="M319.1,307.8 C319,307.9 318.9,307.9 318.8,308 C312.1,308.5 302.9,301.5 294.8,302.2 C280.4,303.5 271.6,310.6 264,327.3 C263.9,327.4 263.8,327.5 263.8,327.6 C262.2,321.6 249,289.4 250.9,284.1 C252.2,279.7 256.9,263.3 278.4,260.4 C290.5,258.8 295.4,265.5 298.2,269.3 C302.5,275.2 311.8,296.7 319.1,307.8 L319.1,307.8 Z" id="Shape" fill="#CE4680"></path>
            <path d="M257,331.7 C254.5,332.6 253.2,329.7 250.4,327.5 C232.3,313.6 206,321.6 187.8,337.1 C186.3,328.1 179.6,306.3 179.3,303.3 C176.9,280.3 201.5,278 208,277 C214.5,276.1 234.4,279.8 238.1,287.7 C241.8,295.7 252.2,320.4 257,331.7 L257,331.7 Z" id="Shape" fill="#CE4680"></path>
            <path d="M179.6,339.3 C177.8,338.3 175.4,335 169.4,332.6 C151.4,325.4 150.2,327 143.4,330.6 C136.8,334.1 135.2,346.3 124.9,341.1 C123.5,329.9 117.9,299.6 117.8,295 C117.5,284.4 149.9,277 161.1,286.4 C170.1,293.9 177.6,335.1 179.6,339.3 L179.6,339.3 Z" id="Shape" fill="#CE4680"></path>
            <path d="M116.8,333.2 C117.2,335.1 115.7,334.8 114.7,333.4 C108.8,325 102.2,310.3 88,318 C87,318.1 69.2,331.1 67,318.7 C67,318.5 66.9,318.2 66.9,318 C67.3,302.8 67.4,273.4 76.6,274.5 C91.4,276.3 105.9,277.5 111,298.8 C112,302.7 115.3,325.8 116.8,333.2 L116.8,333.2 Z" id="Shape" fill="#CE4680"></path>
            <path d="M59.9,268.1 C62.6,275.6 57.5,290.6 58.1,302.8 C51,290.6 39.9,291.1 29,294.2 C24.5,295.5 25.7,263.1 27.9,248.6 C29,240.9 33.5,243.3 37.4,244.5 C44.4,246.7 54,251.7 59.9,268.1 L59.9,268.1 Z" id="Shape" fill="#CE4680"></path>
            <path d="M23.1,232.9 C22.7,241.6 20.9,257.3 18,261.2 C15,265.1 9.6,259.4 7.7,246 C6.4,236.8 9.6,211.7 11.8,208.3 C13.4,212.6 23.5,224.2 23.1,232.9 L23.1,232.9 Z" id="Shape" fill="#CE4680"></path>
        </g>
    </g>
</svg>