<?xml version="1.0" encoding="utf-8"?>
<!-- Generator: Adobe Illustrator 16.0.3, SVG Export Plug-In . SVG Version: 6.00 Build 0)  -->
<!DOCTYPE svg PUBLIC "-//W3C//DTD SVG 1.1//EN" "http://www.w3.org/Graphics/SVG/1.1/DTD/svg11.dtd">
<svg version="1.1" id="TYPO" xmlns="http://www.w3.org/2000/svg" xmlns:xlink="http://www.w3.org/1999/xlink" x="0px" y="0px"
	 width="764.001px" height="425.088px" viewBox="0 0 764.001 425.088" enable-background="new 0 0 764.001 425.088"
	 xml:space="preserve">
<g>
	<path fill="#FFFFFF" d="M318.255,57.398v56.557c-0.082,1.544-0.183,2.703-0.305,3.474c-0.122,0.773-0.408,1.646-0.854,2.621
		c-0.447,0.975-1.179,1.687-2.194,2.133c-1.017,0.448-2.336,0.67-3.961,0.67h-6.095c-1.383,0-2.56-0.202-3.535-0.609
		c-0.975-0.406-1.707-0.854-2.194-1.341c-0.488-0.488-0.854-1.259-1.097-2.316c-0.244-1.055-0.387-1.908-0.427-2.56
		c-0.042-0.649-0.061-1.625-0.061-2.925V57.398c0-1.543-0.204-2.56-0.609-3.047c-0.407-0.488-1.261-0.731-2.56-0.731
		c-0.244,0-0.752,0.021-1.523,0.061c-0.773,0.042-1.444,0.061-2.012,0.061c-3.656,0-5.484-1.137-5.484-3.413V39.967
		c0-1.137,0.548-2.03,1.646-2.681c1.097-0.649,2.457-0.975,4.083-0.975h33.642c1.625,0,2.986,0.326,4.083,0.975
		c1.097,0.651,1.646,1.544,1.646,2.681v10.361c0,2.276-1.828,3.413-5.485,3.413c-0.244,0-0.731-0.019-1.462-0.061
		c-0.731-0.04-1.383-0.061-1.95-0.061c-1.463,0-2.377,0.225-2.743,0.67C318.438,54.737,318.255,55.773,318.255,57.398z"/>
	<path fill="#FFFFFF" d="M359.575,46.062v15.236c0,3.333,0.284,5.283,0.854,5.851c0.567,0.569,2.518,0.853,5.851,0.853
		c3.331,0,5.281-0.263,5.851-0.792c0.567-0.528,0.854-2.377,0.854-5.546V46.062c0-1.299,0.019-2.274,0.061-2.925
		c0.04-0.649,0.183-1.503,0.427-2.56c0.244-1.055,0.609-1.829,1.097-2.316c0.488-0.488,1.219-0.934,2.194-1.341
		c0.975-0.406,2.152-0.609,3.535-0.609h6.094c1.381,0,2.56,0.204,3.535,0.609c0.975,0.407,1.706,0.853,2.194,1.341
		c0.487,0.487,0.853,1.261,1.097,2.316c0.244,1.057,0.385,1.91,0.427,2.56c0.04,0.651,0.061,1.626,0.061,2.925v67.04
		c0,1.301-0.021,2.276-0.061,2.925c-0.042,0.651-0.183,1.504-0.427,2.56c-0.244,1.057-0.609,1.828-1.097,2.316
		c-0.488,0.487-1.219,0.935-2.194,1.341c-0.975,0.408-2.154,0.609-3.535,0.609h-6.094c-1.382,0-2.56-0.202-3.535-0.609
		c-0.975-0.406-1.707-0.854-2.194-1.341c-0.487-0.488-0.853-1.259-1.097-2.316c-0.244-1.055-0.387-1.908-0.427-2.56
		c-0.042-0.649-0.061-1.625-0.061-2.925V94.818c0-3.98-0.347-6.399-1.036-7.252c-0.691-0.853-2.581-1.28-5.668-1.28h-1.341
		c-2.194,0-3.638,0.305-4.327,0.914c-0.691,0.609-1.036,2.377-1.036,5.302v2.316v18.284c0,1.301-0.021,2.276-0.061,2.925
		c-0.042,0.651-0.183,1.504-0.426,2.56c-0.244,1.057-0.609,1.828-1.097,2.316c-0.488,0.487-1.219,0.935-2.194,1.341
		c-0.976,0.408-2.154,0.609-3.535,0.609h-6.095c-1.382,0-2.56-0.202-3.534-0.609c-0.976-0.406-1.707-0.854-2.194-1.341
		c-0.487-0.488-0.854-1.259-1.097-2.316c-0.244-1.055-0.387-1.908-0.427-2.56c-0.042-0.649-0.061-1.625-0.061-2.925v-67.04
		c0-1.299,0.019-2.274,0.061-2.925c0.04-0.649,0.183-1.503,0.427-2.56c0.243-1.055,0.609-1.829,1.097-2.316
		c0.487-0.488,1.219-0.934,2.194-1.341c0.975-0.406,2.152-0.609,3.534-0.609h6.095c1.381,0,2.56,0.204,3.535,0.609
		c0.975,0.407,1.706,0.853,2.194,1.341c0.488,0.487,0.853,1.261,1.097,2.316c0.243,1.057,0.385,1.91,0.426,2.56
		C359.554,43.788,359.575,44.763,359.575,46.062z"/>
	<path fill="#FFFFFF" d="M423.931,92.015v8.532c0.08,1.301,0.629,2.297,1.646,2.986c1.015,0.691,2.173,1.036,3.474,1.036
		c2.682,0,5.199-0.04,7.557-0.122c2.356-0.08,3.778-0.122,4.267-0.122c2.518,0,4.266,0.387,5.241,1.158
		c0.975,0.773,1.463,2.093,1.463,3.961v8.532c0,1.788-0.366,3.047-1.098,3.778c-0.731,0.731-1.992,1.097-3.778,1.097h-32.179
		c-4.876,0-7.313-3.249-7.313-9.751v-67.04c0-1.299,0.02-2.274,0.061-2.925c0.04-0.649,0.184-1.503,0.427-2.56
		c0.244-1.055,0.609-1.829,1.097-2.316c0.488-0.488,1.22-0.934,2.194-1.341c0.976-0.406,2.152-0.609,3.535-0.609h31.447
		c1.625,0,2.986,0.326,4.083,0.975c1.098,0.651,1.646,1.544,1.646,2.681v10.361c0,1.301-0.448,2.133-1.342,2.499
		c-0.895,0.366-2.275,0.549-4.144,0.549c-1.707,0-3.84-0.04-6.399-0.122c-2.56-0.08-4.287-0.122-5.181-0.122
		c-1.626,0-2.906,0.122-3.839,0.365c-0.936,0.244-1.605,0.712-2.012,1.402c-0.407,0.691-0.651,1.322-0.731,1.889
		c-0.081,0.57-0.122,1.463-0.122,2.682c0,2.438,0.02,4.125,0.062,5.059c0.04,0.935,0.263,1.87,0.671,2.803
		c0.405,0.936,1.015,1.524,1.828,1.768c0.811,0.244,1.99,0.366,3.534,0.366c2.926,0,5.443-0.04,7.558-0.122
		c2.111-0.08,3.453-0.122,4.022-0.122c3.005,0,4.51,1.87,4.51,5.607v7.801c0,1.139-0.286,2.011-0.854,2.621
		c-0.569,0.609-1.2,0.975-1.89,1.097c-0.691,0.122-1.645,0.183-2.864,0.183c-2.357,0-4.917-0.04-7.679-0.122
		c-2.764-0.08-4.43-0.122-4.998-0.122c-1.301,0-2.235,0.225-2.803,0.67c-0.569,0.448-0.896,0.996-0.976,1.646
		C423.972,89.253,423.931,90.39,423.931,92.015z"/>
	<path fill="#FFFFFF" d="M176.134,178.184c0.04-2.234,0.061-3.919,0.061-5.059c0-1.137-0.021-2.803-0.061-4.998
		c-0.042-2.194-0.061-3.818-0.061-4.875c0-4.55,0.122-8.268,0.366-11.153c0.244-2.883,0.893-5.931,1.951-9.142
		c1.055-3.209,2.538-5.708,4.449-7.496c1.908-1.787,4.59-3.271,8.044-4.449c3.453-1.177,7.698-1.768,12.738-1.768
		c4.793,0,8.837,0.591,12.128,1.768c3.291,1.179,5.851,2.642,7.679,4.388c1.828,1.748,3.23,4.186,4.205,7.313
		c0.975,3.129,1.584,6.115,1.828,8.958c0.244,2.846,0.366,6.542,0.366,11.092c0,2.52,0.061,6.115,0.183,10.787
		c0.122,4.674,0.183,8.065,0.183,10.178c0,4.308-0.164,7.965-0.487,10.97c-0.326,3.007-1.017,6.015-2.072,9.02
		c-1.057,3.007-2.541,5.405-4.449,7.192c-1.91,1.788-4.51,3.251-7.801,4.388c-3.291,1.137-7.212,1.707-11.762,1.707
		c-5.04,0-9.285-0.59-12.738-1.767c-3.455-1.177-6.136-2.661-8.044-4.449c-1.911-1.787-3.394-4.266-4.449-7.435
		c-1.058-3.169-1.707-6.196-1.951-9.081c-0.244-2.883-0.366-6.601-0.366-11.153C176.073,182.065,176.092,180.419,176.134,178.184z
		 M207.277,147.467c-0.976-0.771-2.398-1.158-4.267-1.158c-1.87,0-3.291,0.386-4.266,1.158c-0.976,0.773-1.524,1.544-1.646,2.316
		c-0.122,0.773-0.183,1.849-0.183,3.23v38.396c0,1.301,0.04,2.297,0.122,2.986c0.08,0.691,0.284,1.544,0.61,2.56
		c0.324,1.017,0.933,1.768,1.829,2.255c0.893,0.488,2.072,0.731,3.534,0.731c1.463,0,2.64-0.244,3.535-0.731
		c0.893-0.487,1.503-1.238,1.828-2.255c0.324-1.015,0.528-1.868,0.609-2.56c0.08-0.689,0.122-1.686,0.122-2.986v-38.396
		c0-1.381-0.061-2.457-0.183-3.23C208.8,149.012,208.251,148.241,207.277,147.467z"/>
	<path fill="#FFFFFF" d="M259.81,185.558v8.532c0.08,1.301,0.629,2.297,1.646,2.986c1.016,0.691,2.173,1.036,3.474,1.036
		c2.682,0,5.199-0.04,7.557-0.122c2.356-0.08,3.778-0.122,4.266-0.122c2.518,0,4.266,0.387,5.241,1.158
		c0.975,0.773,1.463,2.093,1.463,3.961v8.532c0,1.788-0.366,3.047-1.097,3.778c-0.731,0.731-1.992,1.097-3.778,1.097h-32.179
		c-4.875,0-7.313-3.249-7.313-9.751v-67.04c0-1.299,0.019-2.274,0.061-2.925c0.04-0.649,0.183-1.503,0.427-2.56
		c0.244-1.055,0.609-1.829,1.097-2.316c0.488-0.488,1.219-0.934,2.194-1.341c0.975-0.406,2.152-0.609,3.535-0.609h31.448
		c1.625,0,2.986,0.326,4.083,0.975c1.097,0.651,1.646,1.544,1.646,2.681v10.361c0,1.301-0.447,2.133-1.341,2.499
		c-0.895,0.366-2.275,0.549-4.144,0.549c-1.707,0-3.839-0.04-6.399-0.122c-2.56-0.08-4.287-0.122-5.181-0.122
		c-1.626,0-2.906,0.122-3.839,0.365c-0.935,0.244-1.606,0.712-2.011,1.402c-0.408,0.691-0.651,1.322-0.731,1.889
		c-0.082,0.57-0.122,1.463-0.122,2.682c0,2.438,0.02,4.125,0.062,5.059c0.04,0.935,0.263,1.87,0.67,2.803
		c0.406,0.936,1.015,1.524,1.828,1.768c0.812,0.244,1.99,0.366,3.535,0.366c2.925,0,5.443-0.04,7.557-0.122
		c2.112-0.08,3.453-0.122,4.022-0.122c3.005,0,4.51,1.87,4.51,5.607v7.801c0,1.139-0.286,2.011-0.853,2.621
		c-0.569,0.609-1.2,0.975-1.89,1.097c-0.691,0.122-1.646,0.183-2.864,0.183c-2.357,0-4.917-0.04-7.679-0.122
		c-2.764-0.08-4.43-0.122-4.998-0.122c-1.301,0-2.235,0.225-2.803,0.67c-0.569,0.448-0.895,0.996-0.975,1.646
		C259.85,182.796,259.81,183.933,259.81,185.558z"/>
	<path fill="#FFFFFF" d="M300.154,129.854h18.284c5.281,0,9.77,0.691,13.469,2.072c3.696,1.383,6.643,3.211,8.837,5.485
		c2.194,2.276,3.9,5.363,5.119,9.264c1.219,3.9,2.03,7.843,2.438,11.823c0.406,3.982,0.609,8.858,0.609,14.626
		c0,3.982-0.061,7.417-0.183,10.3c-0.122,2.885-0.427,5.933-0.914,9.142c-0.487,3.211-1.179,5.912-2.072,8.106
		c-0.895,2.194-2.093,4.369-3.596,6.521c-1.504,2.154-3.312,3.839-5.424,5.059c-2.114,1.219-4.714,2.215-7.801,2.986
		c-3.089,0.773-6.582,1.158-10.483,1.158h-18.284c-1.382,0-2.56-0.202-3.534-0.609c-0.976-0.406-1.707-0.854-2.194-1.341
		c-0.487-0.488-0.854-1.259-1.097-2.316c-0.244-1.055-0.387-1.908-0.427-2.56c-0.042-0.649-0.061-1.625-0.061-2.925v-67.04
		c0-1.299,0.019-2.274,0.061-2.925c0.04-0.649,0.183-1.503,0.427-2.56c0.243-1.055,0.609-1.829,1.097-2.316
		c0.487-0.488,1.219-0.934,2.194-1.341C297.594,130.058,298.771,129.854,300.154,129.854z M316,146.31
		c-1.057,0-1.748,0.286-2.072,0.853c-0.326,0.569-0.488,1.544-0.488,2.925c0,4.552,0.02,11.662,0.061,21.331
		c0.04,9.671,0.061,16.943,0.061,21.818c0,4.064,0.812,6.095,2.438,6.095c4.307,0,7.009-1.808,8.106-5.424
		c1.097-3.615,1.646-10.745,1.646-21.392c0-3.9-0.042-7.009-0.122-9.325c-0.082-2.316-0.305-4.692-0.671-7.13
		c-0.365-2.438-0.895-4.285-1.584-5.546c-0.691-1.259-1.646-2.274-2.864-3.047C319.291,146.696,317.786,146.31,316,146.31z"/>
	<path fill="#FFFFFF" d="M378.65,139.605v67.04c0,1.301-0.021,2.276-0.061,2.925c-0.042,0.651-0.183,1.504-0.426,2.56
		c-0.244,1.057-0.609,1.828-1.097,2.316c-0.488,0.487-1.219,0.935-2.194,1.341c-0.976,0.408-2.154,0.609-3.535,0.609h-6.095
		c-1.382,0-2.56-0.202-3.534-0.609c-0.976-0.406-1.707-0.854-2.194-1.341c-0.487-0.488-0.854-1.259-1.097-2.316
		c-0.244-1.055-0.387-1.908-0.427-2.56c-0.042-0.649-0.061-1.625-0.061-2.925v-67.04c0-1.299,0.019-2.274,0.061-2.925
		c0.04-0.649,0.183-1.503,0.427-2.56c0.243-1.055,0.609-1.829,1.097-2.316c0.487-0.488,1.219-0.934,2.194-1.341
		c0.975-0.406,2.152-0.609,3.534-0.609h6.095c1.381,0,2.56,0.204,3.535,0.609c0.975,0.407,1.706,0.853,2.194,1.341
		c0.488,0.487,0.853,1.261,1.097,2.316c0.243,1.057,0.385,1.91,0.426,2.56C378.629,137.332,378.65,138.307,378.65,139.605z"/>
	<path fill="#FFFFFF" d="M411.925,186.655c-1.301,0-2.134,0.164-2.499,0.488c-0.366,0.326-0.549,0.853-0.549,1.584v17.918
		c0,1.301-0.021,2.276-0.061,2.925c-0.042,0.651-0.183,1.504-0.427,2.56c-0.244,1.057-0.609,1.828-1.097,2.316
		c-0.487,0.487-1.22,0.935-2.194,1.341c-0.975,0.408-2.154,0.609-3.535,0.609h-6.094c-1.382,0-2.56-0.202-3.535-0.609
		c-0.975-0.406-1.707-0.854-2.194-1.341c-0.487-0.488-0.853-1.259-1.097-2.316c-0.244-1.055-0.387-1.908-0.427-2.56
		c-0.042-0.649-0.061-1.625-0.061-2.925v-67.04c0-1.299,0.019-2.274,0.061-2.925c0.04-0.649,0.183-1.503,0.427-2.56
		c0.244-1.055,0.609-1.829,1.097-2.316c0.488-0.488,1.219-0.934,2.194-1.341c0.975-0.406,2.152-0.609,3.535-0.609h26.45
		c6.5,0,11.559,2.479,15.176,7.435c3.615,4.958,5.424,11.743,5.424,20.355c0,3.333-0.387,6.969-1.158,10.909
		c-0.772,3.942-1.645,6.887-2.62,8.837c-3.007,6.338-10.442,9.507-22.306,9.507L411.925,186.655z M414.363,146.31
		c-2.357,0-3.882,0.426-4.571,1.28c-0.69,0.853-1.036,2.418-1.036,4.692c0,0.488,0.02,1.423,0.062,2.804
		c0.04,1.383,0.061,2.52,0.061,3.413c0,0.895-0.021,2.032-0.061,3.413c-0.042,1.383-0.062,2.276-0.062,2.682
		c0,2.032,0.324,3.333,0.976,3.9c0.649,0.57,2.194,0.854,4.632,0.854c1.543,0,2.804-0.284,3.778-0.854
		c0.976-0.567,1.646-1.441,2.012-2.621c0.365-1.177,0.609-2.274,0.731-3.291c0.121-1.015,0.183-2.377,0.183-4.083
		C421.067,150.374,418.831,146.31,414.363,146.31z"/>
	<path fill="#FFFFFF" d="M504.072,139.483v52.169c0,3.495-0.121,6.338-0.365,8.532c-0.244,2.194-0.854,4.47-1.828,6.826
		c-0.976,2.358-2.377,4.187-4.205,5.485c-1.829,1.301-4.389,2.377-7.68,3.23s-7.334,1.28-12.128,1.28
		c-4.226,0-7.883-0.265-10.97-0.792c-3.09-0.528-5.628-1.381-7.618-2.56c-1.992-1.177-3.596-2.438-4.815-3.778
		c-1.219-1.341-2.133-3.108-2.742-5.302s-0.996-4.285-1.158-6.277c-0.163-1.99-0.243-4.489-0.243-7.496l0.122-51.194
		c0-1.299,0.019-2.274,0.061-2.925c0.04-0.649,0.183-1.503,0.427-2.56c0.243-1.055,0.609-1.829,1.097-2.316
		c0.488-0.488,1.219-0.934,2.194-1.341c0.976-0.406,2.152-0.609,3.534-0.609h6.095c1.381,0,2.56,0.204,3.535,0.609
		c0.976,0.407,1.706,0.853,2.194,1.341c0.487,0.487,0.853,1.261,1.097,2.316c0.243,1.057,0.385,1.91,0.427,2.56
		c0.04,0.651,0.061,1.626,0.061,2.925v53.631c0,1.219,0.04,2.114,0.122,2.682c0.08,0.569,0.305,1.219,0.671,1.95
		c0.365,0.731,1.035,1.261,2.011,1.584c0.976,0.326,2.274,0.488,3.9,0.488c1.706,0,2.986-0.345,3.84-1.036
		c0.853-0.689,1.341-1.421,1.462-2.194c0.122-0.771,0.184-1.929,0.184-3.474v-53.753c0-1.299,0.019-2.274,0.061-2.925
		c0.04-0.649,0.183-1.481,0.427-2.499c0.243-1.015,0.609-1.768,1.097-2.255c0.488-0.488,1.219-0.934,2.194-1.341
		c0.976-0.406,2.152-0.609,3.534-0.609h6.095c1.381,0,2.56,0.204,3.535,0.609c0.976,0.407,1.706,0.853,2.194,1.341
		c0.487,0.487,0.853,1.24,1.097,2.255c0.244,1.017,0.385,1.849,0.427,2.499C504.051,137.209,504.072,138.185,504.072,139.483z"/>
	<path fill="#FFFFFF" d="M513.457,155.085c0-4.55,0.588-8.511,1.768-11.884c1.177-3.371,2.6-5.912,4.266-7.618
		c1.665-1.707,3.737-3.066,6.217-4.083c2.478-1.015,4.65-1.646,6.521-1.89c1.868-0.244,4.021-0.366,6.46-0.366
		c5.199,0,9.324,0.448,12.372,1.341c3.047,0.896,4.57,2.194,4.57,3.9v9.386c0,2.438-1.545,3.657-4.632,3.657h-0.976
		c-0.487,0-1.931-0.223-4.326-0.67c-2.398-0.446-4.248-0.67-5.547-0.67c-3.494,0-5.24,1.626-5.24,4.875
		c0,1.95,0.385,3.556,1.157,4.815c0.771,1.261,2.335,2.864,4.692,4.814c6.826,5.607,11.438,10.707,13.835,15.297
		c2.396,4.592,3.596,9.61,3.596,15.053c0,6.99-1.097,12.149-3.291,15.48c-3.007,4.552-7.355,7.599-13.042,9.142
		c-3.413,0.894-7.313,1.341-11.701,1.341c-5.04,0-9.264-0.529-12.677-1.584s-5.119-2.722-5.119-4.998v-9.385
		c0-1.95,1.503-2.926,4.51-2.926c0.731,0,2.396,0.305,4.997,0.915c2.6,0.609,5.199,0.914,7.801,0.914
		c1.869,0,3.676-0.628,5.425-1.889c1.746-1.259,2.62-2.783,2.62-4.571c0-1.137-0.103-2.072-0.305-2.804
		c-0.203-0.731-0.874-1.908-2.011-3.535c-1.14-1.625-2.886-3.575-5.241-5.851c-4.632-4.55-7.862-7.82-9.69-9.812
		c-1.828-1.99-3.455-4.407-4.876-7.252C514.167,161.384,513.457,158.336,513.457,155.085z"/>
	<path fill="#FFFFFF" d="M128.051,279.101v8.532c0.08,1.301,0.628,2.297,1.646,2.986c1.015,0.691,2.173,1.036,3.474,1.036
		c2.682,0,5.199-0.04,7.557-0.122c2.356-0.08,3.779-0.122,4.266-0.122c2.518,0,4.266,0.387,5.241,1.158
		c0.975,0.773,1.463,2.093,1.463,3.961v8.532c0,1.788-0.366,3.047-1.097,3.778c-0.731,0.731-1.992,1.097-3.779,1.097h-32.179
		c-4.875,0-7.313-3.249-7.313-9.751v-67.04c0-1.299,0.02-2.274,0.061-2.925c0.04-0.649,0.183-1.503,0.427-2.56
		c0.244-1.055,0.609-1.829,1.097-2.316c0.487-0.488,1.219-0.934,2.194-1.341c0.975-0.406,2.152-0.609,3.535-0.609h31.448
		c1.625,0,2.986,0.326,4.083,0.975c1.097,0.651,1.646,1.544,1.646,2.681v10.361c0,1.301-0.448,2.133-1.341,2.499
		c-0.896,0.366-2.276,0.549-4.145,0.549c-1.707,0-3.84-0.04-6.399-0.122c-2.56-0.08-4.287-0.122-5.18-0.122
		c-1.626,0-2.906,0.122-3.839,0.365c-0.936,0.244-1.605,0.712-2.011,1.402c-0.408,0.691-0.651,1.322-0.731,1.889
		c-0.082,0.57-0.122,1.463-0.122,2.682c0,2.438,0.019,4.125,0.061,5.059c0.04,0.935,0.263,1.87,0.671,2.803
		c0.405,0.936,1.015,1.524,1.828,1.768c0.812,0.244,1.99,0.366,3.535,0.366c2.925,0,5.443-0.04,7.557-0.122
		c2.112-0.08,3.453-0.122,4.022-0.122c3.005,0,4.51,1.87,4.51,5.607v7.801c0,1.139-0.286,2.011-0.853,2.621
		c-0.57,0.609-1.2,0.975-1.889,1.097c-0.691,0.122-1.646,0.183-2.865,0.183c-2.358,0-4.917-0.04-7.679-0.122
		c-2.763-0.08-4.43-0.122-4.997-0.122c-1.301,0-2.236,0.225-2.804,0.67c-0.569,0.448-0.895,0.996-0.975,1.646
		C128.091,276.339,128.051,277.476,128.051,279.101z"/>
	<path fill="#FFFFFF" d="M189.482,251.676c0.08,0.326,0.284,0.487,0.609,0.487c0.162,0,0.628-1.401,1.401-4.205
		c0.771-2.803,1.747-6.235,2.926-10.3c1.177-4.062,2.133-7.191,2.864-9.385l0.244-0.609c0.649-2.03,1.481-3.25,2.498-3.657
		c1.016-0.406,4.042-0.609,9.081-0.609h1.585c2.273,0,3.839,0.042,4.692,0.122c0.854,0.082,1.604,0.387,2.255,0.914
		c0.649,0.53,0.976,1.402,0.976,2.621c0,1.545-2.337,7.862-7.009,18.954c-4.674,11.092-7.009,17.125-7.009,18.101
		c0,0.895,2.579,7.7,7.74,20.417c5.159,12.718,7.74,19.971,7.74,21.757c0,2.682-3.169,4.022-9.507,4.022
		c-0.976,0-2.154-0.042-3.535-0.122c-1.383-0.082-2.235-0.122-2.56-0.122c-1.301,0-2.316-0.042-3.047-0.122
		c-0.731-0.08-1.362-0.162-1.89-0.244c-0.529-0.08-0.956-0.366-1.28-0.854c-0.326-0.487-0.569-0.853-0.731-1.097
		c-0.164-0.244-0.408-0.894-0.731-1.95c-0.326-1.055-0.609-1.909-0.854-2.56l-6.582-23.403c-0.164-0.324-0.366-0.487-0.609-0.487
		c-0.244,0-0.447,0.164-0.609,0.487l-5.485,23.403c-1.057,3.333-2.093,5.302-3.108,5.912c-1.017,0.61-3.516,0.915-7.497,0.915
		h-3.656c-5.527,0-8.289-1.259-8.289-3.779c0-1.219,2.295-8.308,6.887-21.27c4.59-12.96,6.887-19.929,6.887-20.904
		s-2.093-7.009-6.277-18.101c-4.186-11.092-6.277-17.409-6.277-18.954c0-1.542,0.61-2.56,1.829-3.047
		c1.219-0.488,3.169-0.731,5.851-0.731c0.731,0,2.173,0.021,4.327,0.061c2.152,0.042,3.919,0.061,5.302,0.061
		c0.894,0,1.625,0.183,2.194,0.548c0.567,0.366,0.954,0.731,1.158,1.097c0.202,0.365,0.506,0.996,0.914,1.889
		c0,0.082,0.04,0.164,0.122,0.244c0.08,0.082,0.122,0.164,0.122,0.244c0,0.082,0.04,0.164,0.122,0.244
		c0.08,0.082,0.122,0.164,0.122,0.244c0,0.082,0.04,0.204,0.122,0.366c0.649,2.276,1.463,5.363,2.438,9.264
		c0.976,3.9,1.808,7.212,2.499,9.934C189.135,250.194,189.482,251.596,189.482,251.676z"/>
	<path fill="#FFFFFF" d="M252.376,280.198c-1.301,0-2.133,0.164-2.499,0.488c-0.366,0.326-0.549,0.853-0.549,1.584v17.918
		c0,1.301-0.021,2.276-0.061,2.925c-0.042,0.651-0.183,1.504-0.427,2.56c-0.244,1.057-0.609,1.828-1.097,2.316
		c-0.488,0.487-1.219,0.935-2.194,1.341c-0.975,0.408-2.154,0.609-3.535,0.609h-6.094c-1.382,0-2.56-0.202-3.535-0.609
		c-0.975-0.406-1.707-0.854-2.194-1.341c-0.487-0.488-0.853-1.259-1.097-2.316c-0.244-1.055-0.387-1.908-0.427-2.56
		c-0.042-0.649-0.061-1.625-0.061-2.925v-67.04c0-1.299,0.019-2.274,0.061-2.925c0.04-0.649,0.183-1.503,0.427-2.56
		c0.244-1.055,0.609-1.829,1.097-2.316c0.488-0.488,1.219-0.934,2.194-1.341c0.975-0.406,2.152-0.609,3.535-0.609h26.45
		c6.5,0,11.559,2.479,15.175,7.435c3.615,4.958,5.424,11.743,5.424,20.355c0,3.333-0.387,6.969-1.158,10.909
		c-0.773,3.942-1.646,6.887-2.621,8.837c-3.007,6.338-10.442,9.507-22.306,9.507L252.376,280.198z M254.814,239.853
		c-2.358,0-3.882,0.426-4.571,1.28c-0.691,0.853-1.036,2.418-1.036,4.692c0,0.488,0.019,1.423,0.061,2.804
		c0.04,1.383,0.061,2.52,0.061,3.413c0,0.895-0.021,2.032-0.061,3.413c-0.042,1.383-0.061,2.276-0.061,2.682
		c0,2.032,0.324,3.333,0.975,3.9c0.649,0.57,2.194,0.854,4.632,0.854c1.542,0,2.804-0.284,3.778-0.854
		c0.976-0.567,1.646-1.441,2.012-2.621c0.365-1.177,0.609-2.274,0.731-3.291c0.122-1.015,0.183-2.377,0.183-4.083
		C261.518,243.917,259.282,239.853,254.814,239.853z"/>
	<path fill="#FFFFFF" d="M311.735,279.101v8.532c0.08,1.301,0.628,2.297,1.646,2.986c1.015,0.691,2.173,1.036,3.474,1.036
		c2.682,0,5.199-0.04,7.558-0.122c2.355-0.08,3.778-0.122,4.266-0.122c2.518,0,4.267,0.387,5.241,1.158
		c0.976,0.773,1.463,2.093,1.463,3.961v8.532c0,1.788-0.365,3.047-1.097,3.778c-0.731,0.731-1.992,1.097-3.779,1.097h-32.179
		c-4.875,0-7.313-3.249-7.313-9.751v-67.04c0-1.299,0.019-2.274,0.061-2.925c0.04-0.649,0.183-1.503,0.427-2.56
		c0.243-1.055,0.609-1.829,1.097-2.316c0.487-0.488,1.219-0.934,2.194-1.341c0.975-0.406,2.152-0.609,3.534-0.609h31.448
		c1.624,0,2.986,0.326,4.083,0.975c1.097,0.651,1.646,1.544,1.646,2.681v10.361c0,1.301-0.447,2.133-1.341,2.499
		c-0.896,0.366-2.276,0.549-4.145,0.549c-1.706,0-3.839-0.04-6.399-0.122c-2.56-0.08-4.287-0.122-5.18-0.122
		c-1.627,0-2.906,0.122-3.84,0.365c-0.935,0.244-1.605,0.712-2.011,1.402c-0.408,0.691-0.651,1.322-0.731,1.889
		c-0.082,0.57-0.122,1.463-0.122,2.682c0,2.438,0.019,4.125,0.061,5.059c0.04,0.935,0.263,1.87,0.67,2.803
		c0.405,0.936,1.015,1.524,1.828,1.768c0.812,0.244,1.99,0.366,3.535,0.366c2.925,0,5.443-0.04,7.557-0.122
		c2.112-0.08,3.453-0.122,4.022-0.122c3.006,0,4.51,1.87,4.51,5.607v7.801c0,1.139-0.285,2.011-0.853,2.621
		c-0.57,0.609-1.2,0.975-1.89,1.097c-0.691,0.122-1.646,0.183-2.864,0.183c-2.358,0-4.918-0.04-7.679-0.122
		c-2.763-0.08-4.43-0.122-4.998-0.122c-1.301,0-2.236,0.225-2.804,0.67c-0.569,0.448-0.895,0.996-0.975,1.646
		C311.775,276.339,311.735,277.476,311.735,279.101z"/>
	<path fill="#FFFFFF" d="M352.079,223.397h23.769c15.52,0,23.281,9.142,23.281,27.425c0,3.577-0.104,6.258-0.305,8.045
		c-0.204,1.788-0.834,3.799-1.89,6.034c-1.057,2.236-2.682,4.287-4.875,6.155c-0.813,0.731-1.768,1.301-2.865,1.707
		c-1.097,0.407-1.828,0.853-2.194,1.341c-0.366,0.487-0.548,1.422-0.548,2.803c0,2.846,0.467,5.405,1.401,7.679
		c0.934,2.276,2.335,3.413,4.206,3.413c0.649,0,1.259-0.04,1.829-0.122c0.567-0.08,1.036-0.183,1.401-0.305
		c0.366-0.122,0.589-0.183,0.67-0.183c1.787,0,2.986,0.712,3.595,2.133c0.61,1.423,0.915,3.678,0.915,6.765
		c0,0.813-0.021,2.297-0.062,4.449c-0.042,2.154-0.061,3.881-0.061,5.18c0,1.463-0.488,2.602-1.463,3.413
		c-0.975,0.811-2.925,1.219-5.851,1.219c-5.201,0-9.386-1.625-12.555-4.875c-3.169-3.249-5.405-7.394-6.704-12.433
		c-0.895-3.413-1.91-6.216-3.047-8.411c-1.139-2.194-2.032-3.554-2.682-4.083c-0.651-0.528-1.179-0.792-1.585-0.792
		c-0.651,0-0.975,0.975-0.975,2.925v17.309c0,1.301-0.021,2.276-0.062,2.925c-0.042,0.651-0.183,1.504-0.426,2.56
		c-0.244,1.057-0.609,1.828-1.097,2.316c-0.487,0.487-1.219,0.935-2.194,1.341c-0.975,0.408-2.154,0.609-3.535,0.609h-8.532
		c-1.139,0-2.072-0.244-2.804-0.731c-0.731-0.487-1.24-1.299-1.523-2.438c-0.286-1.137-0.448-2.112-0.488-2.926
		c-0.042-0.811-0.061-2.03-0.061-3.656v-67.04c0-1.299,0.02-2.274,0.061-2.925c0.04-0.649,0.183-1.503,0.427-2.56
		c0.244-1.055,0.609-1.829,1.097-2.316c0.487-0.488,1.219-0.934,2.194-1.341C349.519,223.601,350.696,223.397,352.079,223.397z
		 M370.972,239.853c-2.438,0-3.982,0.326-4.632,0.975c-0.651,0.651-0.975,2.072-0.975,4.266c0,0.487,0.019,1.523,0.061,3.108
		c0.04,1.584,0.062,2.865,0.062,3.84c0,0.895-0.021,2.032-0.062,3.413c-0.042,1.383-0.061,2.276-0.061,2.682
		c0,2.032,0.324,3.333,0.975,3.9c0.649,0.57,2.194,0.854,4.632,0.854c4.468,0,6.704-3.615,6.704-10.848
		C377.675,243.917,375.44,239.853,370.972,239.853z"/>
	<path fill="#FFFFFF" d="M429.72,233.148v67.04c0,1.301-0.021,2.276-0.061,2.925c-0.042,0.651-0.183,1.504-0.427,2.56
		c-0.243,1.057-0.609,1.828-1.097,2.316c-0.487,0.487-1.219,0.935-2.194,1.341c-0.975,0.408-2.153,0.609-3.534,0.609h-6.095
		c-1.383,0-2.56-0.202-3.535-0.609c-0.975-0.406-1.706-0.854-2.194-1.341c-0.487-0.488-0.853-1.259-1.097-2.316
		c-0.243-1.055-0.387-1.908-0.427-2.56c-0.041-0.649-0.061-1.625-0.061-2.925v-67.04c0-1.299,0.02-2.274,0.061-2.925
		c0.04-0.649,0.184-1.503,0.427-2.56c0.244-1.055,0.609-1.829,1.097-2.316c0.488-0.488,1.22-0.934,2.194-1.341
		c0.976-0.406,2.152-0.609,3.535-0.609h6.095c1.381,0,2.56,0.204,3.534,0.609c0.976,0.407,1.707,0.853,2.194,1.341
		c0.487,0.487,0.854,1.261,1.097,2.316c0.244,1.057,0.385,1.91,0.427,2.56C429.7,230.875,429.72,231.85,429.72,233.148z"/>
	<path fill="#FFFFFF" d="M459.949,279.101v8.532c0.08,1.301,0.628,2.297,1.646,2.986c1.015,0.691,2.173,1.036,3.474,1.036
		c2.682,0,5.199-0.04,7.557-0.122c2.356-0.08,3.779-0.122,4.267-0.122c2.518,0,4.267,0.387,5.241,1.158
		c0.975,0.773,1.463,2.093,1.463,3.961v8.532c0,1.788-0.365,3.047-1.098,3.778c-0.73,0.731-1.992,1.097-3.778,1.097h-32.179
		c-4.875,0-7.313-3.249-7.313-9.751v-67.04c0-1.299,0.02-2.274,0.062-2.925c0.039-0.649,0.183-1.503,0.426-2.56
		c0.244-1.055,0.609-1.829,1.098-2.316c0.487-0.488,1.219-0.934,2.193-1.341c0.976-0.406,2.152-0.609,3.535-0.609h31.447
		c1.625,0,2.986,0.326,4.084,0.975c1.097,0.651,1.646,1.544,1.646,2.681v10.361c0,1.301-0.448,2.133-1.341,2.499
		c-0.896,0.366-2.276,0.549-4.145,0.549c-1.707,0-3.84-0.04-6.399-0.122c-2.56-0.08-4.287-0.122-5.181-0.122
		c-1.626,0-2.906,0.122-3.839,0.365c-0.936,0.244-1.605,0.712-2.011,1.402c-0.408,0.691-0.652,1.322-0.732,1.889
		c-0.081,0.57-0.121,1.463-0.121,2.682c0,2.438,0.019,4.125,0.061,5.059c0.04,0.935,0.263,1.87,0.671,2.803
		c0.405,0.936,1.015,1.524,1.828,1.768c0.812,0.244,1.99,0.366,3.534,0.366c2.926,0,5.443-0.04,7.558-0.122
		c2.112-0.08,3.453-0.122,4.022-0.122c3.006,0,4.51,1.87,4.51,5.607v7.801c0,1.139-0.285,2.011-0.854,2.621
		c-0.569,0.609-1.199,0.975-1.889,1.097c-0.691,0.122-1.646,0.183-2.865,0.183c-2.357,0-4.917-0.04-7.679-0.122
		c-2.763-0.08-4.43-0.122-4.997-0.122c-1.301,0-2.236,0.225-2.804,0.67c-0.569,0.448-0.896,0.996-0.976,1.646
		C459.989,276.339,459.949,277.476,459.949,279.101z"/>
	<path fill="#FFFFFF" d="M529.667,261.183c0.324,0.813,0.689,1.219,1.098,1.219c0.405,0,0.609-0.406,0.609-1.219v-28.035
		c0-1.299,0.019-2.274,0.061-2.925c0.04-0.649,0.183-1.503,0.427-2.56c0.243-1.055,0.609-1.829,1.097-2.316
		c0.488-0.488,1.219-0.934,2.194-1.341c0.976-0.406,2.152-0.609,3.534-0.609h6.095c1.381,0,2.56,0.204,3.535,0.609
		c0.976,0.407,1.706,0.853,2.194,1.341c0.487,0.487,0.853,1.261,1.097,2.316c0.244,1.057,0.385,1.91,0.427,2.56
		c0.04,0.651,0.061,1.626,0.061,2.925v67.04c0,1.301-0.021,2.276-0.061,2.925c-0.042,0.651-0.183,1.504-0.427,2.56
		c-0.244,1.057-0.609,1.828-1.097,2.316c-0.488,0.487-1.219,0.935-2.194,1.341c-0.976,0.408-2.154,0.609-3.535,0.609
		c-3.494,0-6.176-0.244-8.044-0.731c-1.871-0.487-3.068-1.036-3.596-1.646c-0.53-0.609-1.158-1.686-1.89-3.23l-16.212-35.226
		c-0.407-0.812-0.73-1.219-0.975-1.219c-0.326,0-0.487,0.407-0.487,1.219l0.122,31.082c0,1.301-0.021,2.276-0.062,2.925
		c-0.042,0.651-0.183,1.504-0.427,2.56c-0.244,1.057-0.609,1.828-1.097,2.316c-0.487,0.487-1.219,0.935-2.194,1.341
		c-0.975,0.408-2.154,0.609-3.535,0.609h-6.094c-1.383,0-2.56-0.202-3.535-0.609c-0.975-0.406-1.706-0.854-2.193-1.341
		c-0.488-0.488-0.854-1.259-1.098-2.316c-0.244-1.055-0.387-1.908-0.427-2.56c-0.042-0.649-0.061-1.625-0.061-2.925v-67.04
		c0-1.299,0.019-2.274,0.061-2.925c0.04-0.649,0.183-1.503,0.427-2.56c0.244-1.055,0.609-1.829,1.098-2.316
		c0.487-0.488,1.219-0.934,2.193-1.341c0.976-0.406,2.152-0.609,3.535-0.609h6.46c2.112,0,3.614,0.244,4.51,0.731
		c0.894,0.488,1.786,1.667,2.682,3.535L529.667,261.183z"/>
	<path fill="#FFFFFF" d="M560.627,265.449c0-5.607,0.507-10.666,1.523-15.175c1.015-4.51,2.457-8.289,4.327-11.336
		c1.868-3.047,3.98-5.647,6.338-7.801c2.356-2.152,4.977-3.818,7.862-4.998c2.884-1.177,5.729-2.03,8.532-2.56
		c2.804-0.527,5.748-0.792,8.837-0.792c3.087,0,4.632,1.301,4.632,3.901v10.726c0,0.408-0.021,0.731-0.061,0.975
		c-0.042,0.244-0.204,0.569-0.488,0.975c-0.285,0.408-0.772,0.691-1.462,0.854c-0.691,0.164-1.565,0.244-2.621,0.244
		c-0.896,0-1.688-0.04-2.377-0.122c-0.691-0.08-1.2-0.122-1.523-0.122c-2.194,0-4.083,0.792-5.668,2.376s-2.742,3.333-3.474,5.241
		c-0.731,1.911-1.301,4.287-1.707,7.131c-0.407,2.845-0.63,4.937-0.67,6.277c-0.042,1.341-0.061,2.824-0.061,4.449
		c0,2.114,0.08,4.186,0.243,6.216c0.162,2.032,0.549,4.857,1.158,8.472c0.609,3.617,1.746,6.542,3.413,8.776
		c1.664,2.236,3.758,3.352,6.277,3.352c0.405,0,0.975-0.04,1.706-0.122c0.731-0.08,1.625-0.122,2.682-0.122
		c3.087,0,4.632,1.87,4.632,5.607v8.167c0,3.007-1.545,4.51-4.632,4.51c-3.738,0-7.252-0.366-10.543-1.097
		c-3.291-0.731-6.644-2.112-10.056-4.144c-3.414-2.03-6.32-4.672-8.716-7.923c-2.397-3.249-4.348-7.597-5.851-13.042
		C561.377,278.899,560.627,272.601,560.627,265.449z"/>
	<path fill="#FFFFFF" d="M632.419,279.101v8.532c0.08,1.301,0.628,2.297,1.645,2.986c1.016,0.691,2.174,1.036,3.475,1.036
		c2.682,0,5.199-0.04,7.557-0.122c2.356-0.08,3.779-0.122,4.267-0.122c2.518,0,4.266,0.387,5.241,1.158
		c0.975,0.773,1.463,2.093,1.463,3.961v8.532c0,1.788-0.366,3.047-1.098,3.778c-0.73,0.731-1.992,1.097-3.778,1.097h-32.179
		c-4.876,0-7.313-3.249-7.313-9.751v-67.04c0-1.299,0.019-2.274,0.061-2.925c0.04-0.649,0.183-1.503,0.427-2.56
		c0.244-1.055,0.609-1.829,1.098-2.316c0.487-0.488,1.219-0.934,2.193-1.341c0.976-0.406,2.152-0.609,3.535-0.609h31.447
		c1.625,0,2.986,0.326,4.084,0.975c1.097,0.651,1.645,1.544,1.645,2.681v10.361c0,1.301-0.447,2.133-1.34,2.499
		c-0.896,0.366-2.276,0.549-4.145,0.549c-1.707,0-3.84-0.04-6.399-0.122c-2.56-0.08-4.287-0.122-5.181-0.122
		c-1.626,0-2.906,0.122-3.839,0.365c-0.936,0.244-1.606,0.712-2.012,1.402c-0.407,0.691-0.651,1.322-0.731,1.889
		c-0.082,0.57-0.121,1.463-0.121,2.682c0,2.438,0.019,4.125,0.061,5.059c0.04,0.935,0.263,1.87,0.67,2.803
		c0.406,0.936,1.016,1.524,1.828,1.768s1.99,0.366,3.535,0.366c2.926,0,5.443-0.04,7.558-0.122c2.112-0.08,3.452-0.122,4.022-0.122
		c3.005,0,4.51,1.87,4.51,5.607v7.801c0,1.139-0.286,2.011-0.854,2.621c-0.569,0.609-1.199,0.975-1.889,1.097
		c-0.691,0.122-1.646,0.183-2.865,0.183c-2.357,0-4.917-0.04-7.679-0.122c-2.764-0.08-4.43-0.122-4.997-0.122
		c-1.301,0-2.236,0.225-2.804,0.67c-0.569,0.448-0.896,0.996-0.976,1.646C632.458,276.339,632.419,277.476,632.419,279.101z"/>
</g>
<path fill="#FFFFFF" d="M594.259,77.606c-0.209,1.497-0.515,2.9-0.979,4.344c-0.781,2.436,0.702,1.244,2.323,0.482
	c8.935-4.2,17.993-6.864,27.69-8.845c5.864-1.199,14.811-2.144,19.137-6.954c3.729-4.145,1.604-10.882-3.619-12.273
	c-7.144-1.904-12.931,2.935-13.669,2.368c0.118,0.091,3.921-6.709,4.078-7.433c0.879-4.018-1.703-7.671-5.938-7.402
	c-3.203,0.204-5.735,2.58-7.995,4.617c-0.796,0.718-6.606,8.998-7.274,8.76c-0.42-0.15,1.655-9.98,0.564-15.665
	c-0.458-2.386-1.471-5.367-3.846-6.505c-3.042-1.457-5.633,1.23-6.896,3.737c-2.38,4.721-2.168,10.968-2.437,16.117
	C595.168,57.361,594.766,74,594.259,77.606z"/>
<path fill="#FFFFFF" d="M710.788,59.29c-3.808,1.878-6.584,4.806-9.892,7.365c1.78-5.046,4.365-9.556,5.141-14.94
	c0.501-3.484,0.338-8.941-4.65-5.815c-3.429,2.148-5.562,6.183-7.533,9.6c-1.402,2.43-2.923,6.845-5.197,8.586
	c-2.951-4.822-3.522-11.071-7.782-15.134c-6.419-6.124-6.947,6.658-6.333,10.001c1.248,6.788,3.509,13.432,5.082,20.157
	c0.607,2.601,0.74,6.583,2.146,8.917c0.484,0.809,25.887-14.245,27.981-15.498c3.594-2.149,11.2-6.72,11.341-11.645
	C721.23,55.965,713.163,58.118,710.788,59.29C708.705,60.318,713.428,57.986,710.788,59.29z"/>
<path fill="#FFFFFF" d="M692.566,167.089c-3.318,2.357-7.111-0.815-9.696-2.77c-3.565-2.695-8.505-3.734-12.899-3.273
	c-3.543,0.37-5.823,2.11-8.982,3.225c-3.369,1.188,2.508-6.131,2.92-6.671c5.784-7.579,10.762-17.173,18.174-23.282
	c2.084-1.718,7.771-5.061,8.217,0.002c0.414,4.699-3.83,6.542-5.172,10.38c3.779-0.038,7.437-2.143,11.479-1.996
	c2.747,0.101,6.533,2.624,4.504,5.731c-2.873,4.396-9.945,3.361-14.143,5.375c3.664,3.365,12.504,8.365,5.43,13.4
	c0.717-0.511-0.758,0.537-1.065,0.757C691.742,167.674,692.154,167.381,692.566,167.089
	C689.267,169.433,692.956,166.812,692.566,167.089z"/>
<path fill="#FFFFFF" d="M139.902,77.874c0.745,1.315,1.545,2.507,2.508,3.68c1.623,1.977-0.195,1.415-1.982,1.303
	c-9.854-0.618-19.257,0.238-29.002,1.965c-5.894,1.043-14.561,3.456-20.353,0.576c-4.993-2.482-5.496-9.528-1.151-12.744
	c5.942-4.399,13.104-2.029,13.582-2.828c-0.076,0.128-6.115-4.796-6.527-5.411c-2.295-3.413-1.239-7.759,2.798-9.068
	c3.053-0.989,6.282,0.289,9.133,1.351c1.004,0.375,9.454,5.936,9.988,5.468c0.335-0.293-5.212-8.67-6.289-14.358
	c-0.452-2.387-0.607-5.532,1.182-7.464c2.292-2.474,5.69-0.928,7.788,0.938c3.95,3.514,6.052,9.401,8.196,14.09
	C131.607,59.383,138.104,74.707,139.902,77.874z"/>
<path fill="#FFFFFF" d="M42.815,55.011c4.232,0.346,7.891,2.046,11.908,3.208c-3.513-4.037-7.576-7.279-10.278-12
	c-1.748-3.056-3.604-8.189,2.185-7.119c3.979,0.736,7.446,3.703,10.537,6.154c2.198,1.744,5.236,5.289,7.992,6.071
	c0.97-5.569-0.798-11.59,1.667-16.936c3.715-8.056,8.91,3.634,9.569,6.97c1.337,6.771,1.68,13.78,2.691,20.613
	c0.393,2.642,1.734,6.394,1.287,9.082c-0.153,0.93-29.313-3.72-31.721-4.115c-4.132-0.676-12.887-2.127-14.83-6.655
	C31.882,55.762,40.176,54.795,42.815,55.011C45.131,55.2,39.88,54.77,42.815,55.011z"/>
<path fill="#FFFFFF" d="M546.7,10.012c-0.703,2.795-2.251,5.057-3.478,7.618c3.096-1.903,5.722-4.262,9.185-5.545
	c2.242-0.83,5.888-1.5,4.524,2.258c-0.937,2.583-3.312,4.574-5.298,6.371c-1.413,1.277-4.127,2.917-4.958,4.676
	c3.622,1.271,7.852,0.758,11.157,3.006c4.981,3.388-3.429,5.562-5.736,5.632c-4.685,0.14-9.417-0.413-14.106-0.498
	c-1.813-0.032-4.477,0.448-6.227-0.152c-0.605-0.207,5.763-19.218,6.296-20.788c0.914-2.692,2.863-8.394,6.112-9.19
	C547.417,2.605,547.139,8.268,546.7,10.012C546.315,11.542,547.189,8.073,546.7,10.012z"/>
<path fill="#FFFFFF" d="M59.563,114.845c3.953,0.971,6.313-3.375,7.997-6.143c2.324-3.818,6.534-6.602,10.79-7.79
	c3.431-0.959,6.191-0.181,9.539-0.307c3.57-0.135-4.588-4.778-5.169-5.128c-8.167-4.919-16.326-12.008-25.466-14.961
	c-2.57-0.83-9.087-1.846-7.64,3.025c1.344,4.522,5.968,4.674,8.628,7.749c-3.528,1.355-7.703,0.744-11.408,2.368
	c-2.518,1.104-5.109,4.844-2.079,6.987c4.289,3.03,10.484-0.534,15.128-0.206c-2.169,4.477-8.549,12.379-0.118,14.458
	c-0.854-0.211,0.902,0.221,1.27,0.312C60.545,115.085,60.054,114.965,59.563,114.845C63.493,115.811,59.099,114.73,59.563,114.845z"
	/>
<path fill="#FFFFFF" d="M112.537,153.113c0.556,0.981,1.153,1.871,1.872,2.746c1.21,1.475-0.146,1.056-1.479,0.973
	c-7.353-0.461-14.369,0.178-21.642,1.466c-4.398,0.779-10.865,2.579-15.187,0.43c-3.726-1.852-4.101-7.11-0.859-9.51
	c4.434-3.282,9.778-1.514,10.134-2.11c-0.057,0.096-4.563-3.579-4.871-4.038c-1.713-2.546-0.924-5.79,2.088-6.766
	c2.278-0.738,4.688,0.215,6.814,1.008c0.75,0.28,7.055,4.429,7.453,4.08c0.25-0.219-3.889-6.47-4.693-10.714
	c-0.337-1.781-0.453-4.127,0.882-5.569c1.711-1.846,4.247-0.692,5.811,0.7c2.948,2.622,4.516,7.015,6.116,10.514
	C106.348,139.315,111.195,150.75,112.537,153.113z"/>
<path fill="#FFFFFF" d="M194.769,37.498c3.618,2.222,6.113,5.393,9.171,8.246c-1.308-5.189-3.466-9.918-3.741-15.351
	c-0.178-3.516,0.488-8.934,5.167-5.362c3.216,2.455,4.967,6.67,6.615,10.253c1.173,2.549,2.279,7.085,4.384,9.029
	c3.383-4.529,4.528-10.698,9.145-14.352c6.957-5.506,6.304,7.27,5.384,10.543c-1.869,6.644-4.732,13.051-6.919,19.603
	c-0.844,2.534-1.344,6.487-2.958,8.682c-0.557,0.76-24.463-16.572-26.433-18.013c-3.38-2.472-10.533-7.724-10.219-12.641
	C184.678,33.224,192.513,36.112,194.769,37.498C196.749,38.714,192.26,35.956,194.769,37.498z"/>
<path fill="#FFFFFF" d="M743.463,163.031c-4.069,0.12-5.182,4.938-6.065,8.056c-1.221,4.3-4.534,8.107-8.317,10.389
	c-3.05,1.841-5.918,1.827-9.11,2.843c-3.404,1.084,5.697,3.379,6.352,3.562c9.184,2.559,18.939,7.211,28.536,7.617
	c2.699,0.113,9.251-0.648,6.555-4.956c-2.504-3.999-7-2.91-10.385-5.163c3.037-2.249,7.225-2.775,10.36-5.329
	c2.132-1.737,3.631-6.032,0.138-7.288c-4.942-1.774-9.961,3.315-14.524,4.239c0.896-4.894,4.933-14.213-3.746-13.965
	c0.879-0.024-0.929,0.028-1.307,0.039C742.454,163.061,742.958,163.046,743.463,163.031
	C739.417,163.15,743.941,163.017,743.463,163.031z"/>
<path fill="#FFFFFF" d="M655.128,343.824c-0.662-1.358-1.388-2.598-2.275-3.828c-1.497-2.074,0.282-1.4,2.06-1.178
	c9.796,1.229,19.234,0.958,29.068-0.16c5.947-0.675,14.747-2.545,20.35,0.689c4.829,2.787,4.893,9.851,0.357,12.791
	c-6.204,4.021-13.204,1.211-13.731,1.979c0.084-0.124,5.806,5.167,6.179,5.806c2.079,3.549,0.755,7.822-3.355,8.877
	c-3.109,0.799-6.253-0.678-9.032-1.916c-0.979-0.436-9.066-6.512-9.628-6.078c-0.353,0.273,4.663,8.979,5.385,14.723
	c0.304,2.41,0.263,5.559-1.644,7.375c-2.441,2.326-5.736,0.574-7.714-1.42c-3.725-3.752-5.457-9.758-7.306-14.57
	C662.258,362.794,656.726,347.096,655.128,343.824z"/>
<path fill="#FFFFFF" d="M753.297,357.448c-4.202-0.608-7.749-2.533-11.686-3.942c3.254,4.247,7.108,7.735,9.512,12.615
	c1.555,3.158,3.089,8.397-2.622,6.97c-3.925-0.981-7.202-4.158-10.134-6.796c-2.086-1.878-4.898-5.605-7.601-6.557
	c-1.313,5.497,0.078,11.617-2.716,16.799c-4.208,7.812-8.666-4.18-9.117-7.55c-0.914-6.841-0.82-13.858-1.406-20.74
	c-0.228-2.661-1.334-6.489-0.72-9.144c0.21-0.919,29.024,5.534,31.404,6.076c4.082,0.932,12.729,2.924,14.388,7.563
	C764.255,357.377,755.918,357.827,753.297,357.448C750.998,357.114,756.211,357.87,753.297,357.448z"/>
<path fill="#FFFFFF" d="M734.764,240.921c-3.946,1.568-7.98,1.667-12.096,2.408c4.938,2.06,10.019,3.162,14.535,6.194
	c2.922,1.963,6.863,5.74,1.201,7.349c-3.892,1.106-8.316-0.014-12.173-0.839c-2.744-0.588-7.041-2.417-9.857-1.895
	c1.602,5.42,5.859,10.032,6.021,15.917c0.247,8.87-9.596,0.697-11.667-2c-4.203-5.475-7.62-11.604-11.559-17.278
	c-1.524-2.193-4.392-4.96-5.183-7.568c-0.276-0.901,27.919-9.672,30.253-10.389c4.003-1.227,12.492-3.812,16.243-0.616
	C744.228,235.396,737.225,239.943,734.764,240.921C732.604,241.778,737.5,239.834,734.764,240.921z"/>
<path fill="#FFFFFF" d="M737.631,295.355c-3.885-1.215-6.51,2.977-8.363,5.635c-2.556,3.667-6.931,6.183-11.252,7.105
	c-3.484,0.745-6.191-0.205-9.54-0.286c-3.571-0.086,4.282,5.054,4.842,5.439c7.846,5.417,15.548,12.999,24.487,16.514
	c2.513,0.988,8.955,2.407,7.813-2.545c-1.061-4.597-5.667-5.036-8.131-8.27c3.605-1.133,7.734-0.264,11.533-1.655
	c2.581-0.946,5.4-4.517,2.509-6.844c-4.093-3.291-10.497-0.118-15.112-0.734c2.443-4.334,9.301-11.825,1.016-14.423
	c0.84,0.264-0.887-0.276-1.247-0.39C736.667,295.054,737.149,295.206,737.631,295.355
	C733.769,294.148,738.087,295.499,737.631,295.355z"/>
<path fill="#FFFFFF" d="M601.931,370.896c-2.746-3.005-7.124-0.703-10.063,0.662c-4.054,1.884-9.101,1.856-13.299,0.479
	c-3.386-1.108-5.248-3.291-8.102-5.046c-3.043-1.871,1.159,6.521,1.448,7.137c4.056,8.628,6.898,19.056,12.855,26.591
	c1.675,2.118,6.528,6.586,8.032,1.73c1.396-4.506-2.364-7.202-2.867-11.237c3.687,0.835,6.817,3.663,10.8,4.373
	c2.707,0.48,6.94-1.188,5.611-4.653c-1.882-4.903-9.012-5.384-12.691-8.237c4.292-2.516,13.986-5.54,8.134-11.953
	c0.593,0.65-0.628-0.686-0.882-0.965C601.249,370.148,601.589,370.523,601.931,370.896
	C599.201,367.908,602.253,371.249,601.931,370.896z"/>
<path fill="#FFFFFF" d="M111.811,332.129c0.776-1.296,1.605-2.469,2.597-3.618c1.669-1.938-0.161-1.419-1.951-1.351
	c-9.865,0.38-19.245-0.702-28.946-2.663c-5.867-1.185-14.473-3.806-20.333-1.066c-5.051,2.361-5.723,9.393-1.458,12.713
	c5.834,4.54,13.051,2.344,13.509,3.154c-0.073-0.131-6.229,4.646-6.656,5.252c-2.377,3.356-1.425,7.727,2.579,9.132
	c3.029,1.063,6.287-0.136,9.163-1.13c1.013-0.351,9.594-5.706,10.116-5.227c0.328,0.302-5.418,8.543-6.633,14.202
	c-0.51,2.376-0.74,5.516,1.002,7.491c2.232,2.528,5.667,1.065,7.809-0.751c4.033-3.417,6.276-9.252,8.533-13.888
	C103.073,350.415,109.938,335.251,111.811,332.129z"/>
<path fill="#FFFFFF" d="M193.367,386.091c0.339-1.199,0.748-2.312,1.29-3.439c0.913-1.902-0.434-1.097-1.845-0.656
	c-7.773,2.426-15.475,3.581-23.621,4.107c-4.927,0.318-12.343,0.082-16.419,3.523c-3.515,2.967-2.537,8.711,1.574,10.437
	c5.622,2.36,10.896-0.94,11.436-0.394c-0.086-0.089-3.96,5.039-4.17,5.613c-1.171,3.184,0.527,6.459,4.018,6.717
	c2.64,0.193,4.977-1.461,7.053-2.871c0.731-0.497,6.412-6.607,6.931-6.338c0.326,0.17-2.477,7.969-2.227,12.735
	c0.105,2.001,0.597,4.552,2.409,5.75c2.321,1.533,4.741-0.371,6.056-2.278c2.477-3.588,3.008-8.717,3.808-12.894
	C190.343,402.53,192.547,388.98,193.367,386.091z"/>
<path fill="#FFFFFF" d="M14.202,352.647c4.239-0.243,7.938-1.855,11.982-2.921c-3.608,3.95-7.749,7.094-10.563,11.749
	c-1.821,3.013-3.801,8.101,2.012,7.169c3.995-0.639,7.534-3.521,10.682-5.898c2.24-1.69,5.362-5.161,8.137-5.878
	c0.835,5.592-1.078,11.568,1.258,16.972c3.52,8.144,8.995-3.419,9.734-6.737c1.5-6.735,2.011-13.735,3.187-20.541
	c0.456-2.632,1.888-6.351,1.505-9.048c-0.13-0.934-29.393,3.013-31.811,3.349c-4.147,0.577-12.934,1.816-14.986,6.296
	C3.29,351.634,11.558,352.799,14.202,352.647C16.521,352.513,11.262,352.816,14.202,352.647z"/>
<path fill="#FFFFFF" d="M34.697,193.097c2.558,3.389,5.954,5.568,9.087,8.338c-5.289-0.805-10.203-2.5-15.638-2.253
	c-3.517,0.16-8.847,1.342-4.842,5.656c2.751,2.967,7.114,4.307,10.84,5.603c2.65,0.923,7.271,1.59,9.408,3.498
	c-4.185,3.802-10.216,5.533-13.41,10.478c-4.814,7.452,7.841,5.579,11.011,4.349c6.433-2.497,12.537-5.961,18.848-8.766
	c2.441-1.083,6.329-1.96,8.358-3.777c0.704-0.627-18.839-22.762-20.462-24.585c-2.785-3.127-8.698-9.744-13.562-8.96
	C29.476,183.462,33.103,190.984,34.697,193.097C36.098,194.951,32.923,190.747,34.697,193.097z"/>
<path fill="#FFFFFF" d="M32.386,293.233c3.975-0.875,6.229,3.526,7.846,6.334c2.231,3.873,6.374,6.757,10.599,8.048
	c3.407,1.042,6.185,0.329,9.529,0.536c3.565,0.222-4.702,4.666-5.292,5.002c-8.283,4.721-16.61,11.611-25.819,14.344
	c-2.589,0.769-9.129,1.627-7.564-3.208c1.453-4.488,6.08-4.528,8.813-7.539c-3.495-1.439-7.683-0.929-11.348-2.642
	c-2.49-1.165-4.991-4.965-1.91-7.035c4.36-2.926,10.468,0.787,15.119,0.57c-2.061-4.528-8.248-12.582,0.23-14.457
	c-0.859,0.19,0.907-0.199,1.276-0.281C33.373,293.017,32.879,293.125,32.386,293.233C36.338,292.363,31.919,293.337,32.386,293.233z
	"/>
</svg>
