<?xml version="1.0" encoding="utf-8"?>
<!-- Generator: Adobe Illustrator 16.0.3, SVG Export Plug-In . SVG Version: 6.00 Build 0)  -->
<!DOCTYPE svg PUBLIC "-//W3C//DTD SVG 1.1//EN" "http://www.w3.org/Graphics/SVG/1.1/DTD/svg11.dtd">
<svg version="1.1" id="Layer_1" xmlns="http://www.w3.org/2000/svg" xmlns:xlink="http://www.w3.org/1999/xlink" x="0px" y="0px"
	 width="780.723px" height="465.061px" viewBox="0 0 780.723 465.061" enable-background="new 0 0 780.723 465.061"
	 xml:space="preserve">
<g>
	<path fill="#4D5199" d="M636.582,253.479c2.262-9.131-16.892-31.574-14.444-35.309c0.846-2.957,4.834-6.187,14.448-6.497
		c9.617-0.31,3.481-5.229-0.14-10.498c-16.379-27.557-40.109-71.74-56.928-96.682c-6.073-17.445-30.38-39.597-43.699-45.35
		c-25.993-11.263-54.738-16.746-70.545-17.291c-32.509-1.071-64.86,0.292-96.993,8.012
		c-86.305,20.737-155.377,73.353-182.341,100.039c-24.641,24.387-42.107,59.118-43.853,96.07
		c-0.338,7.926-4.148,41.693-5.186,48.125c-2.152,13.339-0.807,26.096-0.626,31.515c0.205,3.95,1.308,11.688,8.629,19.815
		c5.447,3.395,11.682-3.453,12.714-0.829c4.33,10.925-0.254,36.733,10.699,38.4c12.834,1.897,24.625-9.917,29.821,4.302
		c2.503,6.846,3.157,21.551,9.269,25.236c5.072,3.08,15.853-2.895,20.046-5.879c7.109-4.972,17.859-3.999,23.896,1.818
		c7.493,7.231,8.444,20.952,19.034,23.215c6.252,1.335,12.628-5.325,18.105-10.285c2.049-1.857,17.091-10.624,28.298-7.088
		c9.14,2.884,13.95,17.887,21.683,19.197c6.275,1.062,10.978,0.844,12.313-1.897c6.729-4.463,7.425-10.178,13.223-15.471
		c-1.482,1.449,6.469-4.1,7.462-4.594c0.964-0.479,9.502-3.573,13.029-4.164c-1.272,0.211,7.833-2.286,14.041,0.614
		s7.044,13.169,22.62,12.71c10.881-0.326,16.635-22.57,28.854-30.003c12.221-7.433,23.077-1.121,34.034,1.981
		c10.956,3.099,17.87,7.136,21.004-2.926c3.134-10.063,0.462-17.983,4.294-24.253c3.837-6.268,18.11-13.745,24.967-15.475
		c8.131-2.052,25.842,5.188,32.161-0.317c6.569-5.722-0.317-11.114,0.089-19.769c0.405-8.682,10.052-20.629,18.584-23.4
		s18.576,1.465,24.567-2.563c8.912-10.401-2.158-19.678-3.684-26.444c-0.451-1.887-1.753-8.189,7.354-16.548
		C620.811,254.183,634.424,262.171,636.582,253.479z M585.316,137.058c3.882-6.652,17.482,20.471,17.482,20.471
		s17.211,32.818,25.279,45.436c-5.614-1.067-10.353,3.918-12.406,6.146c-0.248,0.269-0.485,0.538-0.716,0.799
		c-10.585-13.649-26.741-38.302-30.874-47.714C582.294,158.122,582.708,141.527,585.316,137.058z M155.294,329.677
		c-3.275,4.273-9.254-1.977-11.387-16.753c-1.466-10.179,2.096-37.914,4.529-41.63c1.839,4.75,12.958,17.555,12.542,27.16
		C160.561,308.06,158.569,325.403,155.294,329.677z M167.455,366.131c-4.949,1.415-3.594-34.326-1.195-50.386
		c1.269-8.519,6.171-5.878,10.47-4.515c7.825,2.482,18.33,7.948,24.876,26.073c2.988,8.273-2.677,24.831-1.978,38.32
		C191.758,362.158,179.553,362.673,167.455,366.131z M262.099,409.366c-6.467-9.272-13.822-25.516-29.437-16.952
		c-1.073,0.086-20.809,14.456-23.189,0.753c-0.047-0.266-0.091-0.525-0.137-0.782c0.397-16.784,0.54-49.282,10.753-48.028
		c16.304,1.998,32.359,3.367,37.983,26.818c1.055,4.406,4.688,29.855,6.378,38.008C264.895,411.333,263.188,410.925,262.099,409.366
		z M322.543,408.578c-19.839-7.954-21.2-6.141-28.732-2.19c-7.284,3.817-9.086,17.354-20.374,11.609
		c-1.561-12.401-7.705-45.834-7.87-50.929c-0.377-11.7,35.392-19.888,47.797-9.548c9.971,8.308,18.25,53.765,20.464,58.451
		C331.895,414.822,329.187,411.242,322.543,408.578z M412.015,402.968c-19.933-15.343-49.072-6.512-69.11,10.649
		c-1.653-9.977-9.079-33.957-9.432-37.333c-2.664-25.406,24.467-27.967,31.71-28.99c7.154-1.007,29.186,3.105,33.225,11.846
		c4.029,8.713,15.551,35.9,20.854,48.453C416.505,408.642,415.022,405.373,412.015,402.968z M487.596,381.317
		c-7.4,0.553-17.554-7.184-26.539-6.363c-15.905,1.453-25.585,9.281-33.96,27.683c-0.091,0.123-0.179,0.238-0.268,0.354
		c-1.779-6.649-16.307-42.177-14.267-48.04c1.421-4.82,6.68-22.99,30.401-26.191c13.365-1.806,18.794,5.672,21.837,9.867
		c4.743,6.539,15.018,30.229,23.097,42.494C487.798,381.188,487.7,381.253,487.596,381.317z M523.37,340.418
		c-16.818,9.6-11.905,5.846-23.099,16.193c-3.412,3.153-3.591,12.903-4.635,16.854c-3.086-7.32-21.615-39.845-21.94-43.853
		c-1.38-17.016,20.079-28.695,34.474-34.184c6.357-2.426,14.428-0.535,20.029,3.537c6.319,4.597,14.159,18.238,18.157,25.096
		c0.376,0.652,4.126,8.35,7.027,14.273C548.123,338.483,537.816,332.173,523.37,340.418z M567.229,304.696
		c-7.43,5.903-9.321,13.266-9.862,19.584c-3.721-8.013-23.612-40.207-23.207-47.518c1.691-30.404,19.9-42.377,23.021-42.404
		c2.063-0.021,10.889,7.92,12.039,9.395c1.833,2.354,20.638,22.162,26.445,30.772c3.524,7.133,1.264,9.376,1.34,14.849
		C597.141,299.023,577.003,295.056,567.229,304.696z M600.46,261.585c-0.932,1.355-1.691,2.635-2.313,3.861
		c-4.445-7.679-14.84-20.677-21.1-30.799c-14.236-18.516-12.105-25.543-8.952-36.027c1.456-4.835,3.628-9.242,6.188-12.069
		c3.414-3.77,12.223,4.188,13.767,7.144c1.838,3.514,37.517,42.535,31.312,52.1C615.562,248.081,606.538,252.735,600.46,261.585z"/>
	<path fill="#FF2184" d="M588.05,193.695c1.838,3.514,37.517,42.535,31.312,52.1c-3.8,2.286-12.824,6.94-18.901,15.79
		c-0.932,1.355-1.691,2.635-2.313,3.861c-4.445-7.679-14.84-20.677-21.1-30.799c-14.236-18.516-12.105-25.543-8.952-36.027
		c1.456-4.835,3.628-9.242,6.188-12.069C577.698,182.781,586.506,190.739,588.05,193.695z"/>
	<path fill="#FF2184" d="M628.078,202.964c-5.614-1.067-10.353,3.918-12.406,6.146c-0.248,0.269-0.485,0.538-0.716,0.799
		c-10.585-13.649-26.741-38.302-30.874-47.714c-1.787-4.074-1.373-20.668,1.234-25.138c3.882-6.652,17.482,20.471,17.482,20.471
		S620.009,190.347,628.078,202.964z"/>
	<path fill="#FF2184" d="M597.005,289.374c0.136,9.649-20.002,5.682-29.776,15.322c-7.43,5.903-9.321,13.266-9.862,19.584
		c-3.721-8.013-23.612-40.207-23.207-47.518c1.691-30.404,19.9-42.377,23.021-42.404c2.063-0.021,10.889,7.92,12.039,9.395
		c1.833,2.354,20.638,22.162,26.445,30.772C599.19,281.658,596.929,283.901,597.005,289.374z"/>
	<path fill="#FF2184" d="M553.383,338.335c-5.261,0.148-15.567-6.162-30.014,2.083c-16.818,9.6-11.905,5.846-23.099,16.193
		c-3.412,3.153-3.591,12.903-4.635,16.854c-3.086-7.32-21.615-39.845-21.94-43.853c-1.38-17.016,20.079-28.695,34.474-34.184
		c6.357-2.426,14.428-0.535,20.029,3.537c6.319,4.597,14.159,18.238,18.157,25.096C546.732,324.714,550.482,332.411,553.383,338.335
		z"/>
	<path fill="#FF2184" d="M487.898,381.12c-0.1,0.068-0.198,0.133-0.302,0.197c-7.4,0.553-17.554-7.184-26.539-6.363
		c-15.905,1.453-25.585,9.281-33.96,27.683c-0.091,0.123-0.179,0.238-0.268,0.354c-1.779-6.649-16.307-42.177-14.267-48.04
		c1.421-4.82,6.68-22.99,30.401-26.191c13.365-1.806,18.794,5.672,21.837,9.867C469.544,345.165,479.819,368.855,487.898,381.12z"/>
	<path fill="#FF2184" d="M419.262,407.593c-2.757,1.049-4.24-2.22-7.247-4.625c-19.933-15.343-49.072-6.512-69.11,10.649
		c-1.653-9.977-9.079-33.957-9.432-37.333c-2.664-25.406,24.467-27.967,31.71-28.99c7.154-1.007,29.186,3.105,33.225,11.846
		C402.437,367.853,413.958,395.04,419.262,407.593z"/>
	<path fill="#FF2184" d="M333.828,415.972c-1.934-1.149-4.641-4.729-11.285-7.394c-19.839-7.954-21.2-6.141-28.732-2.19
		c-7.284,3.817-9.086,17.354-20.374,11.609c-1.561-12.401-7.705-45.834-7.87-50.929c-0.377-11.7,35.392-19.888,47.797-9.548
		C323.335,365.828,331.614,411.285,333.828,415.972z"/>
	<path fill="#FF2184" d="M264.451,409.183c0.444,2.15-1.263,1.742-2.352,0.184c-6.467-9.272-13.822-25.516-29.437-16.952
		c-1.073,0.086-20.809,14.456-23.189,0.753c-0.047-0.266-0.091-0.525-0.137-0.782c0.397-16.784,0.54-49.282,10.753-48.028
		c16.304,1.998,32.359,3.367,37.983,26.818C259.127,375.581,262.76,401.03,264.451,409.183z"/>
	<path fill="#FF2184" d="M201.605,337.304c2.988,8.273-2.677,24.831-1.978,38.32c-7.87-13.466-20.075-12.951-32.172-9.493
		c-4.949,1.415-3.594-34.326-1.195-50.386c1.269-8.519,6.171-5.878,10.47-4.515C184.554,313.713,195.059,319.179,201.605,337.304z"
		/>
	<path fill="#FF2184" d="M160.978,298.454c-0.417,9.605-2.409,26.949-5.684,31.223c-3.275,4.273-9.254-1.977-11.387-16.753
		c-1.466-10.179,2.096-37.914,4.529-41.63C150.275,276.044,161.395,288.849,160.978,298.454z"/>
</g>
<g>
	<path fill="#FFFFFF" d="M346.733,97.499l-9.461,34.048c-0.314,0.931-0.578,1.63-0.793,2.097c-0.215,0.468-0.559,0.999-1.033,1.594
		c-0.476,0.595-1.105,1.039-1.89,1.326c-0.784,0.289-1.743,0.449-2.878,0.48l-4.254,0.117c-0.965,0.027-1.753-0.072-2.366-0.299
		c-0.613-0.225-1.049-0.48-1.308-0.765c-0.258-0.284-0.385-0.741-0.378-1.373c0.006-0.63,0.049-1.142,0.131-1.533
		c0.079-0.391,0.229-0.977,0.446-1.76l9.317-33.534c0.259-0.929,0.286-1.537,0.084-1.823s-0.759-0.416-1.663-0.391
		c-0.172,0.005-0.529,0.027-1.075,0.066c-0.547,0.041-1.018,0.064-1.413,0.075c-2.554,0.071-3.641-0.579-3.26-1.949l1.733-6.237
		c0.19-0.685,0.723-1.233,1.598-1.646c0.874-0.412,1.878-0.634,3.014-0.665l23.487-0.647c1.133-0.031,2.029,0.139,2.687,0.508
		c0.657,0.372,0.892,0.898,0.701,1.583l-1.733,6.237c-0.381,1.37-1.847,2.09-4.399,2.161c-0.17,0.004-0.508,0.002-1.012-0.009
		c-0.504-0.01-0.956-0.01-1.353,0c-1.02,0.028-1.696,0.182-2.025,0.457C347.306,95.894,347.004,96.521,346.733,97.499z"/>
	<path fill="#FFFFFF" d="M377.478,89.879l-2.549,9.172c-0.558,2.006-0.687,3.175-0.383,3.506c0.302,0.332,1.614,0.466,3.941,0.401
		c2.325-0.064,3.731-0.26,4.218-0.589c0.484-0.329,0.993-1.447,1.523-3.355l2.609-9.393c0.217-0.782,0.393-1.369,0.531-1.762
		c0.137-0.392,0.379-0.909,0.727-1.549c0.347-0.64,0.731-1.113,1.153-1.416s1.007-0.585,1.756-0.85
		c0.749-0.263,1.604-0.408,2.569-0.435l4.256-0.117c0.963-0.027,1.752,0.073,2.366,0.298c0.612,0.227,1.048,0.481,1.307,0.765
		s0.385,0.743,0.378,1.374c-0.006,0.631-0.051,1.142-0.13,1.532c-0.081,0.392-0.229,0.978-0.446,1.76l-11.214,40.358
		c-0.218,0.783-0.396,1.37-0.532,1.762c-0.139,0.393-0.379,0.909-0.727,1.549c-0.347,0.641-0.731,1.113-1.152,1.415
		c-0.423,0.303-1.008,0.586-1.756,0.849c-0.75,0.265-1.607,0.409-2.57,0.436l-4.256,0.117c-0.965,0.026-1.753-0.072-2.365-0.299
		c-0.613-0.225-1.049-0.48-1.307-0.765c-0.26-0.284-0.386-0.741-0.38-1.373c0.007-0.631,0.05-1.142,0.131-1.533
		c0.079-0.391,0.229-0.977,0.447-1.76l3.058-11.007c0.666-2.396,0.83-3.846,0.491-4.346c-0.341-0.5-1.589-0.721-3.744-0.662
		l-0.936,0.026c-1.532,0.042-2.59,0.253-3.175,0.634c-0.584,0.38-1.12,1.45-1.609,3.211l-0.387,1.394l-3.059,11.007
		c-0.218,0.783-0.396,1.371-0.532,1.763c-0.139,0.393-0.38,0.909-0.727,1.549c-0.348,0.641-0.731,1.113-1.153,1.415
		c-0.421,0.303-1.007,0.586-1.756,0.849c-0.749,0.265-1.605,0.409-2.57,0.436l-4.254,0.117c-0.965,0.026-1.754-0.072-2.366-0.299
		c-0.613-0.225-1.049-0.481-1.308-0.765s-0.385-0.741-0.378-1.373c0.006-0.631,0.049-1.142,0.131-1.533
		c0.079-0.391,0.229-0.977,0.446-1.76l11.214-40.358c0.218-0.782,0.394-1.369,0.532-1.762c0.136-0.392,0.379-0.909,0.727-1.549
		c0.346-0.64,0.73-1.113,1.151-1.416c0.423-0.303,1.008-0.585,1.757-0.85c0.748-0.263,1.604-0.408,2.569-0.435l4.255-0.117
		c0.965-0.027,1.754,0.073,2.366,0.298c0.613,0.227,1.05,0.481,1.308,0.765c0.259,0.284,0.384,0.743,0.379,1.374
		c-0.008,0.631-0.052,1.142-0.131,1.532C377.844,88.511,377.696,89.097,377.478,89.879z"/>
	<path fill="#FFFFFF" d="M414.722,116.305l-1.428,5.137c-0.161,0.781,0.054,1.371,0.648,1.766c0.593,0.397,1.344,0.582,2.252,0.557
		c1.872-0.052,3.637-0.124,5.296-0.219c1.659-0.093,2.659-0.146,3-0.155c1.757-0.048,2.914,0.151,3.466,0.596
		c0.55,0.447,0.67,1.232,0.357,2.357l-1.427,5.136c-0.3,1.077-0.765,1.841-1.398,2.296c-0.633,0.455-1.574,0.699-2.82,0.733
		l-22.467,0.619c-3.402,0.094-4.563-1.815-3.475-5.73l11.214-40.358c0.218-0.782,0.394-1.369,0.532-1.762
		c0.136-0.392,0.379-0.909,0.727-1.549c0.346-0.64,0.731-1.113,1.152-1.416c0.423-0.303,1.007-0.585,1.756-0.85
		c0.75-0.263,1.605-0.408,2.569-0.435l21.956-0.605c1.134-0.031,2.031,0.138,2.688,0.508c0.657,0.371,0.891,0.898,0.7,1.583
		l-1.733,6.237c-0.217,0.783-0.669,1.292-1.354,1.53c-0.686,0.237-1.681,0.374-2.985,0.41c-1.191,0.033-2.674,0.05-4.447,0.049
		c-1.773,0.001-2.972,0.009-3.596,0.026c-1.136,0.031-2.05,0.129-2.741,0.294c-0.694,0.165-1.24,0.459-1.64,0.883
		c-0.4,0.423-0.675,0.808-0.825,1.151c-0.153,0.345-0.33,0.883-0.534,1.617c-0.407,1.467-0.677,2.483-0.804,3.044
		c-0.128,0.562-0.129,1.121-0.001,1.675c0.126,0.555,0.454,0.898,0.98,1.029c0.525,0.131,1.328,0.182,2.406,0.152
		c2.042-0.056,3.807-0.129,5.297-0.219c1.487-0.089,2.431-0.14,2.829-0.15c2.098-0.058,2.836,1.039,2.211,3.288l-1.305,4.696
		c-0.191,0.686-0.536,1.217-1.035,1.594c-0.5,0.378-1,0.61-1.502,0.697c-0.503,0.087-1.18,0.142-2.031,0.165
		c-1.646,0.045-3.427,0.071-5.341,0.075c-1.915,0.005-3.072,0.012-3.468,0.023c-0.908,0.025-1.599,0.178-2.07,0.457
		c-0.472,0.28-0.79,0.617-0.955,1.01C415.211,114.642,414.994,115.327,414.722,116.305z"/>
	<path fill="#FFFFFF" d="M227.307,172.947c0.401-1.345,0.698-2.36,0.889-3.046c0.19-0.685,0.455-1.687,0.793-3.008
		c0.338-1.319,0.596-2.297,0.773-2.934c0.761-2.739,1.469-4.979,2.121-6.721c0.652-1.741,1.616-3.587,2.891-5.541
		c1.273-1.952,2.727-3.485,4.36-4.599c1.631-1.112,3.751-2.057,6.36-2.833c2.607-0.775,5.67-1.212,9.188-1.309
		c3.348-0.092,6.072,0.186,8.172,0.831c2.101,0.647,3.643,1.478,4.627,2.495c0.985,1.017,1.555,2.457,1.713,4.321
		c0.158,1.865,0.084,3.65-0.223,5.358s-0.839,3.931-1.6,6.67c-0.422,1.517-0.98,3.68-1.678,6.49
		c-0.695,2.811-1.221,4.852-1.574,6.124c-0.721,2.594-1.447,4.798-2.176,6.614c-0.73,1.817-1.715,3.64-2.954,5.47
		c-1.241,1.83-2.678,3.302-4.31,4.415c-1.633,1.113-3.693,2.044-6.181,2.792c-2.487,0.748-5.321,1.166-8.498,1.253
		c-3.518,0.097-6.383-0.177-8.596-0.819c-2.216-0.642-3.84-1.483-4.872-2.523c-1.035-1.039-1.656-2.503-1.863-4.391
		c-0.207-1.887-0.154-3.697,0.158-5.429c0.313-1.731,0.848-3.967,1.609-6.707C226.615,175.286,226.904,174.294,227.307,172.947z
		 M254.187,153.857c-0.552-0.446-1.479-0.651-2.784-0.615c-1.307,0.036-2.362,0.296-3.172,0.779
		c-0.811,0.484-1.322,0.959-1.537,1.426c-0.214,0.468-0.437,1.117-0.668,1.948l-6.422,23.114c-0.219,0.783-0.356,1.382-0.415,1.795
		c-0.06,0.415-0.061,0.924-0.003,1.529c0.057,0.606,0.356,1.046,0.9,1.322c0.541,0.277,1.324,0.401,2.346,0.373
		c1.021-0.028,1.883-0.197,2.59-0.508c0.704-0.311,1.255-0.774,1.652-1.393c0.396-0.618,0.682-1.135,0.854-1.553
		c0.171-0.417,0.366-1.017,0.585-1.8l6.422-23.114c0.231-0.831,0.369-1.478,0.414-1.941
		C254.993,154.757,254.739,154.304,254.187,153.857z"/>
	<path fill="#FFFFFF" d="M284.493,175.777l-1.428,5.136c-0.162,0.782,0.055,1.371,0.648,1.766c0.593,0.397,1.344,0.582,2.253,0.557
		c1.872-0.052,3.636-0.125,5.296-0.219c1.658-0.093,2.659-0.146,3-0.155c1.757-0.048,2.912,0.151,3.465,0.597
		c0.551,0.446,0.671,1.231,0.358,2.356l-1.427,5.136c-0.3,1.077-0.766,1.841-1.399,2.296c-0.633,0.455-1.573,0.699-2.821,0.733
		l-22.466,0.619c-3.403,0.094-4.562-1.816-3.474-5.73l11.214-40.358c0.218-0.782,0.394-1.369,0.532-1.762
		c0.136-0.392,0.378-0.908,0.726-1.549c0.347-0.639,0.731-1.112,1.152-1.415c0.423-0.303,1.008-0.585,1.757-0.85
		c0.749-0.263,1.604-0.408,2.569-0.435l21.955-0.605c1.135-0.031,2.03,0.138,2.688,0.508c0.657,0.372,0.892,0.898,0.701,1.583
		l-1.733,6.237c-0.218,0.783-0.669,1.292-1.354,1.53c-0.687,0.237-1.68,0.375-2.985,0.41c-1.19,0.033-2.674,0.05-4.446,0.05
		c-1.773,0.001-2.973,0.009-3.597,0.026c-1.135,0.031-2.05,0.129-2.742,0.294c-0.693,0.165-1.239,0.459-1.638,0.883
		c-0.4,0.423-0.676,0.808-0.827,1.151c-0.152,0.345-0.329,0.883-0.533,1.617c-0.407,1.467-0.677,2.482-0.804,3.044
		c-0.128,0.562-0.13,1.121-0.001,1.675c0.127,0.555,0.455,0.898,0.981,1.029c0.524,0.131,1.328,0.182,2.406,0.152
		c2.042-0.057,3.807-0.129,5.297-0.219c1.487-0.089,2.431-0.14,2.828-0.151c2.099-0.058,2.835,1.039,2.21,3.289l-1.305,4.696
		c-0.19,0.686-0.535,1.216-1.034,1.594c-0.499,0.378-1,0.61-1.501,0.697c-0.504,0.086-1.181,0.142-2.031,0.165
		c-1.646,0.045-3.427,0.07-5.341,0.074c-1.915,0.005-3.072,0.012-3.469,0.023c-0.907,0.025-1.599,0.178-2.069,0.458
		c-0.473,0.28-0.791,0.617-0.956,1.009C284.981,174.114,284.764,174.799,284.493,175.777z"/>
	<path fill="#FFFFFF" d="M321.975,141.467l12.765-0.352c3.688-0.102,6.707,0.228,9.058,0.988c2.35,0.761,4.101,1.805,5.252,3.132
		s1.826,3.153,2.024,5.478s0.104,4.683-0.276,7.071c-0.383,2.389-1.055,5.32-2.021,8.793c-0.666,2.397-1.283,4.465-1.851,6.204
		c-0.567,1.739-1.29,3.58-2.168,5.521c-0.878,1.942-1.811,3.582-2.802,4.919c-0.992,1.338-2.193,2.67-3.601,3.995
		c-1.411,1.326-2.955,2.375-4.635,3.15s-3.66,1.424-5.945,1.948c-2.286,0.525-4.789,0.824-7.513,0.899l-12.765,0.352
		c-0.964,0.027-1.752-0.072-2.365-0.299c-0.613-0.225-1.048-0.48-1.307-0.765c-0.259-0.284-0.386-0.741-0.379-1.373
		c0.006-0.63,0.049-1.142,0.131-1.533c0.079-0.39,0.229-0.977,0.445-1.76l11.215-40.358c0.217-0.782,0.394-1.369,0.532-1.762
		c0.136-0.392,0.378-0.908,0.726-1.549c0.347-0.64,0.732-1.112,1.153-1.415c0.423-0.303,1.007-0.585,1.756-0.85
		C320.155,141.638,321.011,141.493,321.975,141.467z M330.286,151.068c-0.738,0.02-1.268,0.206-1.589,0.553
		c-0.322,0.35-0.599,0.939-0.83,1.771c-0.761,2.74-1.937,7.021-3.524,12.84c-1.59,5.822-2.791,10.199-3.607,13.134
		c-0.68,2.447-0.454,3.654,0.682,3.623c3.007-0.083,5.195-1.224,6.566-3.422c1.371-2.197,2.946-6.5,4.728-12.91
		c0.652-2.348,1.143-4.218,1.475-5.611c0.329-1.393,0.571-2.819,0.725-4.279s0.092-2.563-0.179-3.309
		c-0.272-0.745-0.769-1.337-1.49-1.779C332.519,151.237,331.534,151.033,330.286,151.068z"/>
	<path fill="#FFFFFF" d="M375.148,145.827l-11.214,40.358c-0.218,0.783-0.396,1.371-0.533,1.762c-0.138,0.394-0.379,0.91-0.726,1.55
		c-0.348,0.642-0.731,1.113-1.153,1.415c-0.422,0.303-1.007,0.586-1.756,0.85c-0.749,0.264-1.605,0.409-2.57,0.435l-4.255,0.117
		c-0.965,0.027-1.753-0.072-2.365-0.299c-0.613-0.225-1.049-0.48-1.308-0.765c-0.259-0.284-0.386-0.741-0.379-1.373
		c0.006-0.63,0.05-1.142,0.131-1.533c0.08-0.39,0.229-0.977,0.447-1.76l11.214-40.358c0.218-0.782,0.394-1.369,0.532-1.762
		c0.136-0.392,0.377-0.908,0.725-1.549c0.347-0.639,0.732-1.112,1.153-1.415c0.423-0.303,1.008-0.585,1.757-0.85
		c0.748-0.263,1.604-0.408,2.569-0.435l4.255-0.117c0.965-0.026,1.753,0.073,2.366,0.299s1.049,0.48,1.307,0.765
		c0.259,0.284,0.385,0.743,0.379,1.373c-0.007,0.631-0.051,1.143-0.13,1.533C375.513,144.458,375.366,145.044,375.148,145.827z"/>
	<path fill="#FFFFFF" d="M390.508,173.511c-0.908,0.025-1.518,0.14-1.826,0.341c-0.311,0.203-0.525,0.524-0.647,0.965l-2.997,10.787
		c-0.218,0.783-0.396,1.37-0.533,1.762c-0.138,0.394-0.379,0.91-0.726,1.55c-0.348,0.642-0.731,1.113-1.153,1.415
		c-0.422,0.303-1.008,0.586-1.756,0.85c-0.749,0.264-1.606,0.408-2.57,0.435l-4.256,0.117c-0.964,0.026-1.752-0.072-2.365-0.299
		c-0.612-0.225-1.048-0.48-1.307-0.765c-0.259-0.284-0.386-0.741-0.379-1.373c0.006-0.63,0.049-1.142,0.131-1.533
		c0.079-0.39,0.229-0.977,0.445-1.76l11.215-40.358c0.217-0.782,0.394-1.37,0.532-1.762c0.136-0.392,0.378-0.908,0.726-1.549
		c0.347-0.64,0.732-1.112,1.153-1.415c0.423-0.304,1.008-0.585,1.756-0.85c0.749-0.263,1.605-0.408,2.569-0.435l18.467-0.509
		c4.538-0.125,7.654,1.27,9.352,4.184c1.693,2.915,1.822,6.965,0.382,12.15c-0.558,2.006-1.436,4.202-2.634,6.589
		c-1.199,2.388-2.301,4.178-3.307,5.37c-3.161,3.874-8.882,5.924-17.164,6.153L390.508,173.511z M398.958,149.175
		c-1.645,0.045-2.781,0.332-3.405,0.859s-1.127,1.476-1.507,2.845c-0.082,0.293-0.225,0.856-0.427,1.687
		c-0.203,0.832-0.378,1.517-0.528,2.054c-0.149,0.539-0.354,1.223-0.613,2.055c-0.261,0.833-0.424,1.371-0.491,1.615
		c-0.341,1.224-0.331,2.001,0.028,2.33c0.357,0.33,1.389,0.472,3.09,0.425c1.078-0.03,2.005-0.225,2.782-0.586
		c0.775-0.36,1.39-0.9,1.843-1.617c0.452-0.715,0.805-1.38,1.06-1.995c0.255-0.613,0.525-1.435,0.812-2.461
		C402.958,151.493,402.079,149.089,398.958,149.175z"/>
	<path fill="#FFFFFF" d="M462.731,143.34l-8.727,31.406c-0.585,2.104-1.146,3.818-1.684,5.145c-0.537,1.325-1.344,2.707-2.418,4.144
		c-1.074,1.438-2.359,2.566-3.854,3.383c-1.493,0.818-3.461,1.515-5.9,2.092c-2.44,0.577-5.335,0.912-8.682,1.004
		c-2.951,0.082-5.46-0.007-7.527-0.266c-2.067-0.258-3.698-0.723-4.89-1.394c-1.193-0.671-2.103-1.399-2.729-2.183
		c-0.626-0.783-0.969-1.83-1.027-3.139c-0.06-1.31,0.021-2.561,0.241-3.757c0.219-1.195,0.581-2.697,1.084-4.508l8.648-30.822
		c0.218-0.782,0.394-1.37,0.532-1.763c0.136-0.392,0.378-0.908,0.726-1.549c0.347-0.64,0.731-1.112,1.153-1.416
		c0.423-0.303,1.008-0.585,1.756-0.849c0.749-0.264,1.604-0.408,2.569-0.435l4.256-0.118c0.963-0.026,1.753,0.073,2.366,0.299
		c0.612,0.227,1.048,0.48,1.307,0.765c0.26,0.284,0.385,0.743,0.379,1.373c-0.007,0.632-0.051,1.143-0.13,1.533
		c-0.082,0.391-0.229,0.978-0.447,1.76l-8.972,32.287c-0.203,0.734-0.325,1.272-0.362,1.612c-0.04,0.342,0.008,0.728,0.142,1.162
		c0.131,0.434,0.512,0.739,1.139,0.916s1.506,0.25,2.642,0.218c1.19-0.033,2.143-0.266,2.854-0.697
		c0.712-0.432,1.175-0.881,1.389-1.35c0.213-0.467,0.45-1.165,0.708-2.095l8.992-32.36c0.217-0.782,0.393-1.37,0.531-1.762
		c0.137-0.392,0.376-0.896,0.716-1.513c0.341-0.616,0.722-1.076,1.144-1.379c0.423-0.303,1.008-0.585,1.756-0.849
		c0.748-0.263,1.604-0.408,2.569-0.435l4.256-0.117c0.963-0.027,1.752,0.073,2.366,0.298c0.612,0.227,1.048,0.48,1.307,0.765
		c0.258,0.284,0.389,0.73,0.389,1.336c0.001,0.607-0.041,1.105-0.12,1.496C463.096,141.971,462.948,142.558,462.731,143.34z"/>
	<path fill="#FFFFFF" d="M466.671,152.552c0.761-2.739,1.835-5.135,3.223-7.188c1.385-2.052,2.804-3.609,4.253-4.668
		c1.447-1.059,3.122-1.917,5.022-2.578c1.899-0.659,3.522-1.08,4.869-1.263c1.345-0.183,2.87-0.298,4.571-0.345
		c3.631-0.1,6.436,0.09,8.413,0.57c1.978,0.48,2.824,1.232,2.539,2.26l-1.57,5.65c-0.407,1.467-1.69,2.231-3.845,2.29l-0.682,0.019
		c-0.341,0.009-1.311-0.097-2.908-0.32c-1.6-0.222-2.854-0.322-3.76-0.297c-2.439,0.067-3.932,1.08-4.476,3.036
		c-0.326,1.174-0.326,2.133,0.003,2.876c0.328,0.744,1.152,1.679,2.472,2.808c3.827,3.244,6.193,6.226,7.099,8.943
		c0.905,2.718,0.904,5.716-0.007,8.993c-1.169,4.208-2.799,7.335-4.888,9.383c-2.86,2.798-6.405,4.716-10.633,5.754
		c-2.533,0.604-5.331,0.948-8.395,1.033c-3.519,0.097-6.379-0.141-8.586-0.71c-2.206-0.569-3.117-1.54-2.736-2.91l1.569-5.65
		c0.326-1.174,1.537-1.79,3.637-1.848c0.511-0.014,1.623,0.137,3.337,0.454c1.712,0.317,3.478,0.45,5.293,0.4
		c1.304-0.036,2.672-0.449,4.102-1.242c1.431-0.792,2.297-1.726,2.596-2.802c0.19-0.685,0.275-1.246,0.257-1.682
		c-0.021-0.437-0.292-1.132-0.814-2.09c-0.522-0.956-1.415-2.096-2.68-3.421c-2.473-2.65-4.181-4.557-5.124-5.721
		c-0.943-1.163-1.675-2.587-2.189-4.272C466.114,156.33,466.127,154.509,466.671,152.552z"/>
	<path fill="#FFFFFF" d="M176.858,234.626l-1.428,5.137c-0.162,0.782,0.055,1.371,0.648,1.766c0.593,0.396,1.344,0.583,2.253,0.558
		c1.872-0.052,3.636-0.125,5.296-0.22c1.658-0.092,2.659-0.146,2.999-0.154c1.758-0.049,2.914,0.15,3.466,0.596
		c0.551,0.447,0.671,1.232,0.358,2.356l-1.428,5.138c-0.299,1.076-0.765,1.841-1.398,2.295c-0.633,0.455-1.574,0.699-2.821,0.733
		l-22.466,0.619c-3.403,0.094-4.562-1.815-3.474-5.729l11.214-40.358c0.217-0.782,0.394-1.37,0.532-1.763
		c0.136-0.392,0.378-0.908,0.726-1.549c0.346-0.639,0.731-1.112,1.152-1.415c0.423-0.303,1.008-0.585,1.757-0.849
		c0.748-0.264,1.604-0.408,2.569-0.435l21.955-0.605c1.135-0.031,2.03,0.138,2.688,0.508c0.657,0.372,0.892,0.898,0.701,1.583
		l-1.733,6.237c-0.218,0.783-0.669,1.292-1.354,1.53c-0.687,0.237-1.68,0.375-2.985,0.411c-1.19,0.033-2.674,0.05-4.446,0.049
		c-1.774,0.001-2.973,0.009-3.597,0.026c-1.135,0.031-2.05,0.129-2.742,0.294c-0.693,0.165-1.239,0.459-1.638,0.882
		c-0.4,0.424-0.676,0.809-0.827,1.151c-0.152,0.345-0.329,0.883-0.533,1.617c-0.408,1.467-0.678,2.482-0.804,3.044
		c-0.128,0.562-0.13,1.12-0.001,1.674c0.127,0.555,0.455,0.898,0.98,1.029c0.525,0.131,1.329,0.182,2.406,0.152
		c2.043-0.056,3.808-0.129,5.297-0.219c1.488-0.089,2.431-0.14,2.829-0.151c2.098-0.058,2.835,1.039,2.21,3.289l-1.305,4.696
		c-0.19,0.686-0.535,1.216-1.034,1.594c-0.5,0.378-1,0.61-1.501,0.697c-0.504,0.086-1.181,0.142-2.031,0.165
		c-1.646,0.045-3.427,0.071-5.341,0.074c-1.917,0.005-3.072,0.012-3.469,0.023c-0.908,0.025-1.599,0.178-2.069,0.458
		c-0.473,0.28-0.791,0.617-0.956,1.009C177.346,232.963,177.129,233.648,176.858,234.626z"/>
	<path fill="#FFFFFF" d="M224.332,216.934c0.003,0.194,0.117,0.288,0.345,0.281c0.113-0.003,0.674-0.855,1.683-2.558
		c1.007-1.703,2.262-3.788,3.765-6.256c1.502-2.469,2.691-4.371,3.569-5.706l0.272-0.372c0.793-1.234,1.579-1.984,2.356-2.249
		c0.776-0.264,2.923-0.444,6.441-0.542l1.106-0.031c1.588-0.043,2.674-0.049,3.256-0.017s1.056,0.201,1.422,0.506
		c0.364,0.307,0.445,0.825,0.242,1.559c-0.259,0.93-2.947,4.778-8.064,11.545s-7.757,10.445-7.92,11.032
		c-0.15,0.539,0.513,4.586,1.988,12.143c1.475,7.557,2.063,11.873,1.765,12.948c-0.449,1.614-2.886,2.483-7.312,2.604
		c-0.68,0.02-1.496,0.017-2.447-0.005c-0.951-0.022-1.541-0.03-1.767-0.024c-0.908,0.025-1.61,0.02-2.107-0.015
		s-0.924-0.071-1.277-0.11c-0.355-0.037-0.606-0.201-0.751-0.489c-0.146-0.287-0.255-0.503-0.327-0.646
		c-0.073-0.144-0.136-0.529-0.185-1.16c-0.051-0.629-0.105-1.138-0.166-1.523l-0.683-13.962c-0.06-0.192-0.173-0.287-0.343-0.282
		s-0.34,0.106-0.508,0.306l-7.744,14.193c-1.295,2.027-2.348,3.232-3.158,3.619c-0.813,0.387-2.608,0.617-5.387,0.694l-2.554,0.07
		c-3.857,0.106-5.575-0.598-5.153-2.116c0.203-0.732,2.992-5.045,8.365-12.936c5.373-7.892,8.143-12.13,8.305-12.718
		c0.164-0.587-0.289-4.179-1.354-10.776c-1.067-6.597-1.471-10.36-1.212-11.29c0.258-0.929,0.854-1.553,1.786-1.87
		c0.933-0.317,2.336-0.501,4.207-0.553c0.511-0.014,1.513-0.029,3.011-0.046c1.496-0.017,2.727-0.039,3.691-0.065
		c0.624-0.018,1.104,0.079,1.44,0.288c0.335,0.209,0.544,0.422,0.624,0.638s0.188,0.59,0.322,1.12
		c-0.014,0.049,0.002,0.098,0.045,0.144c0.042,0.048,0.058,0.096,0.044,0.145c-0.014,0.049,0.001,0.097,0.045,0.144
		c0.042,0.048,0.058,0.096,0.044,0.145c-0.014,0.049-0.006,0.122,0.024,0.218c0.072,1.357,0.124,3.2,0.151,5.53
		c0.029,2.329,0.057,4.307,0.084,5.932C224.337,216.049,224.345,216.886,224.332,216.934z"/>
	<path fill="#FFFFFF" d="M263.471,232.895c-0.907,0.024-1.518,0.14-1.826,0.341c-0.311,0.205-0.525,0.525-0.647,0.965L258,244.987
		c-0.218,0.783-0.396,1.371-0.533,1.762c-0.138,0.393-0.379,0.909-0.726,1.549c-0.348,0.643-0.731,1.113-1.154,1.416
		c-0.42,0.303-1.006,0.587-1.755,0.85c-0.749,0.264-1.605,0.408-2.57,0.436l-4.255,0.117c-0.965,0.026-1.753-0.072-2.365-0.299
		c-0.613-0.226-1.049-0.481-1.309-0.766c-0.258-0.284-0.385-0.741-0.377-1.373c0.006-0.631,0.049-1.143,0.13-1.533
		c0.08-0.39,0.229-0.977,0.447-1.76l11.214-40.358c0.217-0.782,0.394-1.369,0.532-1.762c0.136-0.392,0.378-0.908,0.726-1.549
		c0.346-0.639,0.731-1.112,1.152-1.415c0.423-0.303,1.008-0.585,1.757-0.849c0.748-0.264,1.604-0.408,2.569-0.435l18.467-0.509
		c4.538-0.125,7.653,1.271,9.351,4.184c1.693,2.915,1.822,6.965,0.382,12.15c-0.558,2.006-1.436,4.202-2.634,6.589
		c-1.199,2.388-2.301,4.178-3.307,5.37c-3.16,3.874-8.881,5.924-17.164,6.153L263.471,232.895z M271.922,208.559
		c-1.646,0.045-2.781,0.332-3.406,0.858s-1.128,1.476-1.508,2.845c-0.082,0.293-0.225,0.856-0.427,1.686
		c-0.203,0.833-0.378,1.517-0.528,2.054c-0.149,0.539-0.354,1.224-0.613,2.055c-0.261,0.833-0.424,1.372-0.491,1.616
		c-0.341,1.224-0.331,2,0.028,2.329c0.358,0.331,1.389,0.472,3.092,0.425c1.076-0.03,2.004-0.225,2.781-0.586
		c0.774-0.361,1.389-0.9,1.842-1.616c0.452-0.716,0.806-1.38,1.061-1.995c0.255-0.614,0.525-1.435,0.811-2.461
		C275.922,210.877,275.042,208.473,271.922,208.559z"/>
	<path fill="#FFFFFF" d="M305.096,231.092l-1.427,5.135c-0.162,0.783,0.054,1.371,0.649,1.768c0.592,0.396,1.343,0.582,2.252,0.557
		c1.872-0.052,3.636-0.125,5.296-0.219c1.657-0.094,2.659-0.146,2.999-0.156c1.758-0.048,2.914,0.15,3.465,0.597
		c0.552,0.447,0.672,1.231,0.359,2.356l-1.428,5.137c-0.299,1.077-0.764,1.842-1.398,2.296c-0.633,0.454-1.573,0.699-2.821,0.733
		l-22.466,0.619c-3.403,0.094-4.562-1.816-3.475-5.73l11.215-40.358c0.217-0.782,0.394-1.37,0.532-1.762
		c0.136-0.392,0.378-0.908,0.726-1.549c0.347-0.64,0.73-1.112,1.152-1.415c0.422-0.303,1.008-0.585,1.757-0.85
		c0.748-0.263,1.604-0.408,2.569-0.435l21.955-0.605c1.135-0.031,2.03,0.138,2.688,0.508c0.658,0.372,0.891,0.898,0.701,1.583
		l-1.733,6.237c-0.218,0.783-0.669,1.292-1.354,1.53s-1.68,0.375-2.985,0.41c-1.19,0.033-2.674,0.05-4.446,0.049
		c-1.773,0.001-2.973,0.009-3.597,0.026c-1.135,0.032-2.05,0.129-2.742,0.294s-1.239,0.459-1.638,0.882
		c-0.4,0.424-0.676,0.809-0.826,1.151c-0.153,0.345-0.33,0.883-0.534,1.617c-0.407,1.467-0.677,2.482-0.804,3.044
		c-0.129,0.562-0.13,1.121,0,1.675c0.126,0.555,0.453,0.898,0.979,1.029c0.525,0.131,1.329,0.182,2.406,0.152
		c2.043-0.056,3.808-0.129,5.297-0.218c1.488-0.089,2.431-0.14,2.829-0.151c2.098-0.058,2.836,1.039,2.211,3.288l-1.306,4.696
		c-0.19,0.686-0.535,1.216-1.034,1.594c-0.5,0.378-1,0.61-1.502,0.697c-0.504,0.087-1.18,0.142-2.03,0.165
		c-1.646,0.045-3.427,0.071-5.341,0.075c-1.916,0.005-3.072,0.012-3.469,0.023c-0.908,0.025-1.598,0.178-2.069,0.457
		c-0.472,0.28-0.792,0.617-0.956,1.009C305.586,229.429,305.369,230.114,305.096,231.092z"/>
	<path fill="#FFFFFF" d="M342.58,196.782l16.595-0.458c10.835-0.298,14.724,5.056,11.665,16.063
		c-0.598,2.153-1.118,3.769-1.558,4.849c-0.441,1.08-1.217,2.304-2.328,3.668c-1.112,1.367-2.59,2.633-4.434,3.799
		c-0.69,0.456-1.451,0.817-2.285,1.083c-0.835,0.267-1.419,0.549-1.756,0.85s-0.621,0.867-0.852,1.698
		c-0.477,1.713-0.578,3.246-0.307,4.597c0.271,1.352,1.061,2.009,2.365,1.973c0.453-0.013,0.886-0.048,1.297-0.108
		c0.41-0.059,0.754-0.13,1.029-0.211c0.275-0.08,0.441-0.121,0.499-0.122c1.247-0.034,1.965,0.372,2.153,1.215
		c0.188,0.845,0.023,2.196-0.493,4.055c-0.137,0.49-0.399,1.384-0.786,2.68c-0.39,1.298-0.692,2.338-0.91,3.12
		c-0.244,0.881-0.775,1.576-1.592,2.082c-0.816,0.508-2.246,0.791-4.288,0.848c-3.632,0.1-6.281-0.797-7.95-2.694
		c-1.67-1.894-2.537-4.347-2.602-7.354c-0.054-2.039-0.293-3.707-0.72-5.006c-0.429-1.298-0.823-2.1-1.188-2.406
		c-0.367-0.306-0.691-0.455-0.975-0.447c-0.455,0.013-0.844,0.606-1.17,1.78l-2.895,10.42c-0.218,0.782-0.396,1.37-0.531,1.763
		c-0.139,0.393-0.38,0.908-0.727,1.549c-0.348,0.641-0.731,1.113-1.154,1.416c-0.421,0.303-1.007,0.586-1.755,0.849
		c-0.749,0.265-1.606,0.409-2.571,0.436l-5.956,0.164c-0.795,0.022-1.406-0.106-1.835-0.387c-0.429-0.279-0.648-0.759-0.656-1.438
		c-0.009-0.678,0.041-1.263,0.149-1.751c0.106-0.487,0.297-1.222,0.569-2.2l11.214-40.359c0.217-0.782,0.394-1.37,0.532-1.762
		c0.136-0.392,0.378-0.909,0.726-1.549c0.347-0.64,0.731-1.112,1.153-1.415c0.422-0.304,1.007-0.585,1.756-0.85
		C340.759,196.953,341.616,196.808,342.58,196.782z M353.018,206.324c-1.701,0.047-2.835,0.273-3.396,0.677
		c-0.564,0.404-1.027,1.266-1.395,2.586c-0.082,0.294-0.241,0.917-0.478,1.87c-0.237,0.953-0.437,1.723-0.601,2.311
		c-0.149,0.539-0.354,1.224-0.612,2.056c-0.261,0.833-0.424,1.371-0.491,1.615c-0.34,1.224-0.332,2,0.027,2.33
		c0.358,0.33,1.391,0.471,3.092,0.424c3.119-0.086,5.285-2.305,6.494-6.659C357.018,208.642,356.137,206.238,353.018,206.324z"/>
	<path fill="#FFFFFF" d="M395.156,201.158l-11.214,40.359c-0.218,0.782-0.396,1.37-0.533,1.762
		c-0.138,0.393-0.379,0.909-0.726,1.549c-0.348,0.642-0.731,1.113-1.154,1.416c-0.42,0.303-1.006,0.587-1.755,0.85
		c-0.749,0.264-1.605,0.408-2.57,0.435l-4.255,0.118c-0.965,0.025-1.753-0.073-2.365-0.3c-0.613-0.226-1.049-0.481-1.309-0.765
		c-0.258-0.284-0.385-0.742-0.377-1.373c0.006-0.631,0.049-1.143,0.13-1.533c0.08-0.391,0.229-0.977,0.447-1.76l11.214-40.358
		c0.217-0.782,0.394-1.37,0.532-1.763c0.136-0.392,0.378-0.908,0.726-1.549c0.346-0.64,0.731-1.112,1.152-1.416
		c0.423-0.303,1.008-0.585,1.757-0.849c0.748-0.264,1.604-0.408,2.569-0.435l4.255-0.118c0.965-0.026,1.753,0.073,2.366,0.299
		c0.613,0.227,1.05,0.48,1.307,0.765c0.259,0.284,0.385,0.743,0.379,1.373c-0.007,0.632-0.051,1.143-0.13,1.533
		C395.521,199.789,395.373,200.375,395.156,201.158z"/>
	<path fill="#FFFFFF" d="M408.573,228.24l-1.428,5.136c-0.162,0.783,0.055,1.371,0.648,1.767c0.593,0.396,1.344,0.583,2.252,0.558
		c1.873-0.052,3.637-0.125,5.296-0.219s2.659-0.146,3-0.156c1.758-0.049,2.914,0.15,3.466,0.597c0.551,0.447,0.67,1.231,0.357,2.356
		l-1.428,5.137c-0.299,1.076-0.764,1.842-1.397,2.296c-0.633,0.454-1.574,0.698-2.821,0.733l-22.467,0.619
		c-3.402,0.094-4.562-1.816-3.475-5.73l11.215-40.358c0.217-0.782,0.394-1.37,0.532-1.763c0.136-0.392,0.378-0.908,0.726-1.549
		c0.347-0.639,0.732-1.112,1.153-1.415c0.423-0.303,1.008-0.585,1.756-0.849c0.749-0.264,1.605-0.408,2.569-0.435l21.956-0.605
		c1.134-0.031,2.03,0.138,2.688,0.508c0.657,0.372,0.89,0.899,0.7,1.583l-1.733,6.237c-0.218,0.782-0.669,1.292-1.354,1.529
		c-0.687,0.238-1.681,0.375-2.985,0.411c-1.191,0.033-2.674,0.05-4.446,0.049c-1.774,0.001-2.973,0.009-3.597,0.026
		c-1.136,0.031-2.05,0.129-2.742,0.294c-0.693,0.165-1.24,0.46-1.638,0.882c-0.4,0.424-0.676,0.809-0.827,1.151
		c-0.152,0.345-0.329,0.883-0.533,1.617c-0.408,1.467-0.678,2.482-0.804,3.044c-0.128,0.562-0.13,1.12-0.001,1.674
		c0.127,0.555,0.453,0.898,0.98,1.029c0.525,0.131,1.329,0.182,2.406,0.152c2.042-0.056,3.808-0.129,5.297-0.219
		c1.488-0.089,2.431-0.14,2.829-0.15c2.098-0.058,2.835,1.039,2.21,3.288l-1.305,4.696c-0.19,0.686-0.535,1.216-1.034,1.594
		c-0.5,0.378-1.001,0.61-1.501,0.697c-0.504,0.086-1.181,0.142-2.032,0.165c-1.646,0.045-3.426,0.071-5.341,0.074
		c-1.916,0.005-3.071,0.012-3.468,0.023c-0.908,0.025-1.599,0.178-2.069,0.458c-0.473,0.28-0.791,0.617-0.956,1.009
		C409.061,226.577,408.844,227.262,408.573,228.24z"/>
	<path fill="#FFFFFF" d="M460.244,216.112c0.091,0.483,0.277,0.72,0.563,0.712c0.282-0.008,0.493-0.256,0.629-0.745l4.689-16.877
		c0.217-0.782,0.393-1.369,0.531-1.762c0.137-0.392,0.379-0.908,0.726-1.549c0.348-0.639,0.732-1.112,1.154-1.415
		c0.422-0.303,1.008-0.585,1.756-0.849s1.604-0.408,2.569-0.435l4.256-0.117c0.963-0.026,1.752,0.073,2.366,0.299
		c0.612,0.226,1.047,0.48,1.307,0.765c0.258,0.284,0.385,0.743,0.378,1.373c-0.006,0.631-0.051,1.143-0.13,1.533
		c-0.081,0.392-0.229,0.978-0.446,1.76l-11.214,40.358c-0.218,0.783-0.396,1.371-0.533,1.763c-0.138,0.393-0.378,0.909-0.726,1.549
		c-0.347,0.642-0.731,1.112-1.153,1.415c-0.422,0.304-1.007,0.588-1.755,0.85c-0.75,0.265-1.607,0.409-2.57,0.436
		c-2.44,0.067-4.272-0.027-5.495-0.285c-1.224-0.258-1.968-0.565-2.234-0.922c-0.268-0.357-0.527-0.992-0.779-1.908l-5.426-20.895
		c-0.148-0.48-0.307-0.72-0.477-0.715c-0.227,0.006-0.408,0.255-0.545,0.743l-5.113,18.709c-0.217,0.782-0.395,1.37-0.531,1.763
		c-0.139,0.393-0.38,0.908-0.727,1.549c-0.348,0.641-0.73,1.112-1.153,1.415c-0.421,0.304-1.007,0.587-1.756,0.85
		c-0.748,0.265-1.605,0.409-2.57,0.435l-4.255,0.117c-0.965,0.027-1.752-0.072-2.365-0.299c-0.613-0.225-1.049-0.48-1.309-0.765
		c-0.257-0.284-0.384-0.741-0.377-1.374c0.006-0.63,0.049-1.141,0.131-1.531c0.079-0.391,0.229-0.978,0.445-1.761l11.215-40.358
		c0.217-0.782,0.394-1.369,0.532-1.762c0.136-0.392,0.378-0.908,0.726-1.549c0.347-0.639,0.732-1.112,1.152-1.415
		c0.422-0.303,1.008-0.585,1.757-0.849s1.604-0.408,2.569-0.435l4.511-0.124c1.475-0.041,2.482,0.077,3.026,0.354
		c0.542,0.276,0.968,0.969,1.28,2.076L460.244,216.112z"/>
	<path fill="#FFFFFF" d="M481.144,218.085c0.938-3.376,2.138-6.431,3.602-9.166c1.464-2.734,3.102-5.037,4.918-6.908
		c1.813-1.87,3.724-3.476,5.729-4.818c2.006-1.34,4.113-2.394,6.325-3.159c2.21-0.764,4.339-1.333,6.386-1.706
		c2.045-0.371,4.145-0.587,6.301-0.647s3.017,0.694,2.581,2.259l-1.794,6.458c-0.068,0.245-0.137,0.44-0.205,0.587
		c-0.07,0.148-0.238,0.347-0.504,0.597c-0.268,0.251-0.656,0.432-1.163,0.542c-0.51,0.112-1.135,0.177-1.871,0.197
		c-0.624,0.017-1.171,0.009-1.639-0.028c-0.47-0.035-0.817-0.05-1.044-0.044c-1.531,0.042-2.983,0.556-4.354,1.54
		c-1.373,0.984-2.473,2.059-3.303,3.222c-0.83,1.165-1.625,2.606-2.385,4.326c-0.761,1.721-1.266,2.984-1.519,3.792
		c-0.253,0.807-0.513,1.701-0.785,2.679c-0.354,1.272-0.646,2.519-0.87,3.738c-0.228,1.22-0.43,2.913-0.609,5.077
		c-0.179,2.166,0.126,3.905,0.915,5.217c0.789,1.315,2.063,1.947,3.822,1.898c0.283-0.008,0.688-0.043,1.212-0.106
		c0.523-0.062,1.155-0.104,1.893-0.125c2.155-0.06,2.92,1.038,2.295,3.286l-1.365,4.916c-0.504,1.812-1.833,2.745-3.988,2.805
		c-2.61,0.072-5.002-0.08-7.178-0.457c-2.175-0.377-4.285-1.145-6.326-2.301c-2.044-1.157-3.631-2.692-4.76-4.604
		c-1.131-1.908-1.766-4.488-1.903-7.738C479.417,226.167,479.948,222.39,481.144,218.085z"/>
	<path fill="#FFFFFF" d="M528.983,224.922l-1.428,5.136c-0.162,0.782,0.055,1.371,0.648,1.767c0.593,0.396,1.344,0.582,2.253,0.557
		c1.872-0.052,3.636-0.125,5.296-0.219c1.658-0.093,2.658-0.146,2.999-0.155c1.758-0.048,2.914,0.15,3.466,0.597
		c0.551,0.446,0.671,1.231,0.358,2.356l-1.428,5.137c-0.299,1.076-0.765,1.841-1.398,2.295c-0.633,0.455-1.574,0.699-2.821,0.734
		l-22.466,0.619c-3.403,0.094-4.562-1.816-3.474-5.73l11.214-40.358c0.217-0.782,0.394-1.369,0.532-1.762
		c0.136-0.392,0.378-0.908,0.725-1.549c0.347-0.64,0.732-1.112,1.153-1.415c0.423-0.303,1.008-0.585,1.757-0.85
		c0.748-0.263,1.604-0.408,2.569-0.435l21.955-0.605c1.135-0.031,2.03,0.138,2.688,0.508c0.657,0.372,0.89,0.898,0.7,1.583
		l-1.733,6.237c-0.218,0.783-0.668,1.292-1.354,1.53c-0.687,0.237-1.681,0.375-2.985,0.41c-1.191,0.033-2.674,0.05-4.446,0.049
		c-1.774,0.001-2.973,0.009-3.597,0.027c-1.135,0.031-2.05,0.129-2.742,0.294c-0.693,0.165-1.239,0.459-1.638,0.882
		c-0.4,0.424-0.676,0.809-0.827,1.151c-0.152,0.345-0.329,0.883-0.533,1.617c-0.408,1.467-0.678,2.482-0.804,3.044
		c-0.128,0.562-0.13,1.121-0.001,1.675c0.127,0.555,0.453,0.898,0.98,1.029c0.525,0.131,1.329,0.182,2.406,0.152
		c2.043-0.057,3.808-0.129,5.297-0.219c1.488-0.089,2.431-0.14,2.829-0.151c2.098-0.058,2.835,1.039,2.21,3.289l-1.305,4.696
		c-0.19,0.686-0.535,1.216-1.034,1.594c-0.5,0.378-1.001,0.61-1.501,0.697c-0.504,0.086-1.181,0.141-2.032,0.165
		c-1.646,0.045-3.426,0.071-5.34,0.075c-1.917,0.005-3.072,0.012-3.469,0.023c-0.908,0.025-1.599,0.178-2.069,0.457
		c-0.473,0.28-0.791,0.617-0.956,1.009C529.471,223.258,529.254,223.944,528.983,224.922z"/>
</g>
<path fill="#FFFFFF" d="M598.477,97.437c-0.209,1.497-0.515,2.9-0.979,4.344c-0.781,2.436,0.702,1.244,2.323,0.482
	c8.935-4.2,17.993-6.864,27.69-8.845c5.864-1.199,14.811-2.144,19.137-6.954c3.729-4.145,1.604-10.882-3.619-12.273
	c-7.144-1.904-12.931,2.935-13.669,2.368c0.118,0.091,3.921-6.709,4.078-7.433c0.879-4.018-1.703-7.671-5.938-7.402
	c-3.203,0.204-5.735,2.58-7.995,4.617c-0.796,0.718-6.606,8.998-7.274,8.76c-0.42-0.15,1.655-9.98,0.564-15.665
	c-0.458-2.386-1.471-5.367-3.846-6.505c-3.042-1.457-5.633,1.23-6.896,3.737c-2.38,4.721-2.168,10.968-2.437,16.117
	C599.386,77.191,598.984,93.831,598.477,97.437z"/>
<path fill="#FFFFFF" d="M696.86,112.376c-3.808,1.878-6.584,4.806-9.892,7.365c1.78-5.046,4.365-9.556,5.141-14.94
	c0.501-3.484,0.338-8.941-4.65-5.815c-3.429,2.148-5.562,6.183-7.533,9.6c-1.402,2.43-2.923,6.845-5.197,8.586
	c-2.951-4.822-3.522-11.071-7.782-15.134c-6.419-6.124-6.947,6.658-6.333,10.001c1.248,6.788,3.509,13.432,5.082,20.157
	c0.607,2.601,0.74,6.583,2.146,8.917c0.484,0.809,25.887-14.245,27.981-15.498c3.594-2.149,11.2-6.72,11.341-11.645
	C707.302,109.051,699.235,111.204,696.86,112.376C694.777,113.404,699.5,111.072,696.86,112.376z"/>
<path fill="#FFFFFF" d="M695.541,198.63c-3.318,2.357-7.111-0.815-9.696-2.77c-3.565-2.695-8.505-3.734-12.899-3.273
	c-3.543,0.37-5.823,2.11-8.982,3.225c-3.369,1.188,2.508-6.131,2.92-6.671c5.784-7.579,10.762-17.173,18.174-23.282
	c2.084-1.718,7.771-5.061,8.217,0.002c0.414,4.699-3.83,6.542-5.172,10.38c3.779-0.038,7.437-2.143,11.479-1.996
	c2.747,0.101,6.533,2.624,4.504,5.731c-2.873,4.396-9.945,3.361-14.143,5.375c3.664,3.365,12.504,8.365,5.43,13.4
	c0.717-0.511-0.758,0.537-1.065,0.757C694.716,199.215,695.128,198.922,695.541,198.63
	C692.242,200.974,695.93,198.353,695.541,198.63z"/>
<path fill="#FFFFFF" d="M168.461,126.321c0.745,1.315,1.545,2.507,2.508,3.68c1.623,1.977-0.195,1.415-1.982,1.303
	c-9.854-0.618-19.257,0.238-29.002,1.965c-5.894,1.043-14.561,3.456-20.353,0.576c-4.993-2.482-5.496-9.528-1.151-12.744
	c5.942-4.399,13.104-2.029,13.582-2.828c-0.076,0.128-6.115-4.796-6.527-5.411c-2.295-3.413-1.239-7.759,2.798-9.068
	c3.053-0.989,6.282,0.289,9.133,1.351c1.004,0.375,9.454,5.936,9.988,5.468c0.335-0.293-5.212-8.67-6.289-14.358
	c-0.452-2.387-0.607-5.532,1.182-7.464c2.292-2.474,5.69-0.928,7.788,0.938c3.95,3.514,6.052,9.401,8.196,14.09
	C160.167,107.83,166.663,123.154,168.461,126.321z"/>
<path fill="#FFFFFF" d="M50.042,91.126c4.232,0.346,7.891,2.046,11.908,3.208c-3.513-4.037-7.576-7.279-10.278-12
	c-1.748-3.056-3.604-8.189,2.185-7.119c3.979,0.736,7.446,3.703,10.537,6.154c2.198,1.744,5.236,5.289,7.992,6.071
	c0.97-5.569-0.798-11.59,1.667-16.936c3.715-8.056,8.91,3.634,9.569,6.97c1.337,6.771,1.68,13.78,2.691,20.613
	c0.393,2.642,1.734,6.394,1.287,9.082c-0.153,0.93-29.313-3.72-31.721-4.115c-4.132-0.676-12.887-2.127-14.83-6.655
	C39.109,91.877,47.403,90.91,50.042,91.126C52.358,91.315,47.107,90.885,50.042,91.126z"/>
<path fill="#FFFFFF" d="M540.7,17.496c-0.703,2.795-2.251,5.057-3.478,7.618c3.096-1.903,5.722-4.262,9.185-5.545
	c2.242-0.83,5.888-1.5,4.524,2.258c-0.937,2.583-3.312,4.574-5.298,6.371c-1.413,1.277-4.127,2.917-4.958,4.676
	c3.622,1.271,7.852,0.758,11.157,3.006c4.981,3.388-3.429,5.562-5.736,5.632c-4.685,0.14-9.417-0.413-14.106-0.498
	c-1.813-0.032-4.477,0.448-6.227-0.152c-0.605-0.207,5.763-19.218,6.296-20.788c0.914-2.692,2.863-8.394,6.112-9.19
	C541.417,10.088,541.139,15.751,540.7,17.496C540.315,19.025,541.189,15.556,540.7,17.496z"/>
<path fill="#FFFFFF" d="M57.7,190.27c3.953,0.971,6.313-3.375,7.997-6.143c2.324-3.818,6.534-6.602,10.79-7.79
	c3.431-0.959,6.191-0.181,9.539-0.307c3.57-0.135-4.588-4.778-5.169-5.128c-8.167-4.919-16.326-12.008-25.466-14.961
	c-2.57-0.83-9.087-1.846-7.64,3.025c1.344,4.522,5.968,4.674,8.628,7.749c-3.528,1.355-7.703,0.744-11.408,2.368
	c-2.518,1.104-5.109,4.844-2.079,6.987c4.289,3.03,10.484-0.534,15.128-0.206c-2.169,4.477-8.549,12.379-0.118,14.458
	c-0.854-0.211,0.902,0.221,1.27,0.312C58.682,190.51,58.19,190.39,57.7,190.27C61.63,191.235,57.235,190.155,57.7,190.27z"/>
<path fill="#FFFFFF" d="M129.442,210.777c0.556,0.981,1.153,1.871,1.872,2.746c1.21,1.475-0.146,1.056-1.479,0.973
	c-7.353-0.461-14.369,0.178-21.642,1.466c-4.398,0.779-10.865,2.579-15.187,0.43c-3.726-1.852-4.101-7.11-0.859-9.51
	c4.434-3.282,9.778-1.514,10.134-2.11c-0.057,0.096-4.563-3.579-4.871-4.038c-1.713-2.546-0.924-5.79,2.088-6.766
	c2.278-0.738,4.688,0.215,6.814,1.008c0.75,0.28,7.055,4.429,7.453,4.08c0.25-0.219-3.889-6.47-4.693-10.714
	c-0.337-1.781-0.453-4.127,0.882-5.569c1.711-1.846,4.247-0.692,5.811,0.7c2.948,2.622,4.516,7.015,6.116,10.514
	C123.253,196.979,128.101,208.415,129.442,210.777z"/>
<path fill="#FFFFFF" d="M197.744,69.039c3.618,2.222,6.113,5.393,9.171,8.246c-1.308-5.189-3.466-9.918-3.741-15.351
	c-0.178-3.516,0.488-8.934,5.167-5.362c3.216,2.455,4.967,6.67,6.615,10.253c1.173,2.549,2.279,7.085,4.384,9.029
	c3.383-4.529,4.528-10.698,9.145-14.352c6.957-5.506,6.304,7.27,5.384,10.543c-1.869,6.644-4.732,13.051-6.919,19.603
	c-0.844,2.534-1.344,6.487-2.958,8.682c-0.557,0.76-24.463-16.572-26.433-18.013c-3.38-2.472-10.533-7.724-10.219-12.641
	C187.652,64.765,195.487,67.653,197.744,69.039C199.723,70.255,195.235,67.497,197.744,69.039z"/>
<path fill="#FFFFFF" d="M746.438,194.572c-4.069,0.12-5.182,4.938-6.065,8.056c-1.221,4.3-4.534,8.107-8.317,10.389
	c-3.05,1.841-5.918,1.827-9.11,2.843c-3.404,1.084,5.697,3.379,6.352,3.562c9.184,2.559,18.939,7.211,28.536,7.617
	c2.699,0.113,9.251-0.648,6.555-4.956c-2.504-3.999-7-2.91-10.385-5.163c3.037-2.249,7.225-2.775,10.36-5.329
	c2.132-1.737,3.631-6.032,0.138-7.288c-4.942-1.774-9.961,3.315-14.524,4.239c0.896-4.894,4.933-14.213-3.746-13.965
	c0.879-0.024-0.929,0.028-1.307,0.039C745.428,194.602,745.933,194.587,746.438,194.572
	C742.392,194.691,746.916,194.558,746.438,194.572z"/>
<path fill="#FFFFFF" d="M580.506,335.858c-0.662-1.357-1.388-2.598-2.275-3.828c-1.497-2.074,0.282-1.4,2.06-1.178
	c9.796,1.229,19.234,0.959,29.068-0.16c5.947-0.674,14.747-2.545,20.35,0.689c4.829,2.787,4.893,9.852,0.357,12.791
	c-6.204,4.021-13.204,1.211-13.731,1.979c0.084-0.123,5.806,5.168,6.179,5.807c2.079,3.549,0.755,7.822-3.355,8.877
	c-3.109,0.799-6.253-0.678-9.032-1.916c-0.979-0.436-9.066-6.512-9.628-6.078c-0.353,0.273,4.663,8.979,5.385,14.723
	c0.304,2.41,0.263,5.559-1.644,7.375c-2.441,2.326-5.736,0.574-7.714-1.42c-3.725-3.752-5.457-9.758-7.306-14.57
	C587.636,354.829,582.104,339.131,580.506,335.858z"/>
<path fill="#FFFFFF" d="M673.58,364.964c-4.202-0.609-7.749-2.533-11.686-3.943c3.254,4.248,7.108,7.736,9.512,12.615
	c1.555,3.158,3.089,8.398-2.622,6.971c-3.925-0.982-7.202-4.158-10.134-6.797c-2.086-1.877-4.898-5.605-7.601-6.557
	c-1.313,5.498,0.078,11.617-2.716,16.799c-4.208,7.813-8.666-4.18-9.117-7.549c-0.914-6.842-0.82-13.859-1.406-20.74
	c-0.228-2.662-1.334-6.489-0.72-9.145c0.21-0.918,29.024,5.534,31.404,6.076c4.082,0.933,12.729,2.924,14.388,7.564
	C684.538,364.892,676.201,365.343,673.58,364.964C671.28,364.63,676.494,365.386,673.58,364.964z"/>
<path fill="#FFFFFF" d="M700.782,244.796c-3.946,1.567-7.98,1.667-12.096,2.408c4.938,2.059,10.019,3.162,14.535,6.193
	c2.922,1.963,6.863,5.74,1.201,7.35c-3.892,1.105-8.316-0.015-12.173-0.84c-2.744-0.588-7.041-2.417-9.857-1.895
	c1.602,5.42,5.859,10.031,6.021,15.916c0.247,8.87-9.596,0.697-11.667-1.999c-4.203-5.475-7.62-11.604-11.559-17.278
	c-1.524-2.193-4.392-4.959-5.183-7.567c-0.276-0.901,27.919-9.673,30.253-10.389c4.003-1.228,12.492-3.812,16.243-0.616
	C710.246,239.271,703.243,243.817,700.782,244.796C698.622,245.653,703.518,243.708,700.782,244.796z"/>
<path fill="#FFFFFF" d="M684.803,306.842c-3.885-1.215-6.51,2.977-8.363,5.635c-2.556,3.667-6.931,6.183-11.252,7.104
	c-3.484,0.745-6.191-0.204-9.54-0.285c-3.571-0.087,4.282,5.053,4.842,5.439c7.846,5.416,15.548,12.998,24.487,16.514
	c2.513,0.988,8.955,2.407,7.813-2.545c-1.061-4.597-5.667-5.035-8.131-8.27c3.605-1.133,7.734-0.264,11.533-1.654
	c2.581-0.946,5.4-4.518,2.509-6.844c-4.093-3.291-10.497-0.119-15.112-0.734c2.443-4.334,9.301-11.824,1.016-14.423
	c0.84,0.264-0.887-0.276-1.247-0.39C683.838,306.54,684.321,306.692,684.803,306.842
	C680.941,305.634,685.259,306.985,684.803,306.842z"/>
<path fill="#FFFFFF" d="M548.101,400.774c-2.746-3.005-7.124-0.703-10.063,0.662c-4.054,1.884-9.101,1.856-13.299,0.479
	c-3.386-1.108-5.248-3.291-8.102-5.046c-3.043-1.871,1.159,6.521,1.448,7.137c4.056,8.628,6.898,19.056,12.855,26.591
	c1.675,2.118,6.528,6.586,8.032,1.73c1.396-4.506-2.364-7.202-2.867-11.237c3.687,0.835,6.817,3.663,10.8,4.373
	c2.707,0.48,6.94-1.188,5.611-4.653c-1.882-4.903-9.012-5.384-12.691-8.237c4.292-2.516,13.986-5.54,8.134-11.953
	c0.593,0.65-0.628-0.686-0.882-0.965C547.418,400.027,547.759,400.402,548.101,400.774
	C545.371,397.787,548.423,401.128,548.101,400.774z"/>
<path fill="#FFFFFF" d="M123.126,338.624c0.776-1.296,1.605-2.469,2.597-3.617c1.669-1.938-0.161-1.42-1.951-1.352
	c-9.865,0.381-19.245-0.701-28.946-2.662c-5.867-1.186-14.473-3.807-20.333-1.066c-5.051,2.361-5.723,9.393-1.458,12.713
	c5.834,4.54,13.051,2.344,13.509,3.154c-0.073-0.131-6.229,4.646-6.656,5.252c-2.377,3.356-1.425,7.727,2.579,9.132
	c3.029,1.063,6.287-0.136,9.163-1.13c1.013-0.351,9.594-5.706,10.116-5.227c0.328,0.302-5.418,8.543-6.633,14.202
	c-0.51,2.376-0.74,5.516,1.002,7.491c2.232,2.528,5.667,1.065,7.809-0.751c4.033-3.417,6.276-9.252,8.533-13.888
	C114.389,356.91,121.253,341.747,123.126,338.624z"/>
<path fill="#FFFFFF" d="M196.341,417.632c0.339-1.199,0.748-2.312,1.29-3.439c0.913-1.902-0.434-1.097-1.845-0.656
	c-7.773,2.426-15.475,3.581-23.621,4.107c-4.927,0.318-12.343,0.082-16.419,3.523c-3.515,2.967-2.537,8.711,1.574,10.437
	c5.622,2.36,10.896-0.94,11.436-0.394c-0.086-0.089-3.96,5.039-4.17,5.613c-1.171,3.184,0.527,6.459,4.018,6.717
	c2.64,0.193,4.977-1.461,7.053-2.871c0.731-0.497,6.412-6.607,6.931-6.338c0.326,0.17-2.477,7.969-2.227,12.735
	c0.105,2.001,0.597,4.552,2.409,5.75c2.321,1.533,4.741-0.371,6.056-2.278c2.477-3.588,3.008-8.717,3.808-12.894
	C193.317,434.071,195.521,420.521,196.341,417.632z"/>
<path fill="#FFFFFF" d="M17.176,371.241c4.239-0.243,7.938-1.855,11.982-2.921c-3.608,3.95-7.749,7.094-10.563,11.749
	c-1.821,3.013-3.801,8.101,2.012,7.169c3.995-0.639,7.534-3.521,10.682-5.898c2.24-1.69,5.362-5.161,8.137-5.878
	c0.835,5.592-1.078,11.568,1.258,16.972c3.52,8.144,8.995-3.419,9.734-6.737c1.5-6.735,2.011-13.735,3.187-20.541
	c0.456-2.632,1.888-6.351,1.505-9.048c-0.13-0.934-29.393,3.013-31.811,3.349c-4.147,0.577-12.934,1.816-14.986,6.296
	C6.265,370.228,14.533,371.393,17.176,371.241C19.496,371.106,14.236,371.41,17.176,371.241z"/>
<path fill="#FFFFFF" d="M53.794,235.984c2.558,3.39,5.954,5.567,9.087,8.339c-5.289-0.805-10.203-2.5-15.638-2.254
	c-3.517,0.16-8.847,1.342-4.842,5.656c2.751,2.967,7.114,4.307,10.84,5.604c2.65,0.923,7.271,1.59,9.408,3.498
	c-4.185,3.802-10.216,5.533-13.41,10.478c-4.814,7.452,7.841,5.579,11.011,4.349c6.433-2.496,12.537-5.961,18.848-8.766
	c2.441-1.083,6.329-1.959,8.358-3.777c0.704-0.627-18.839-22.762-20.462-24.585c-2.785-3.127-8.698-9.744-13.562-8.96
	C48.573,226.35,52.2,233.871,53.794,235.984C55.195,237.838,52.021,233.634,53.794,235.984z"/>
<path fill="#FFFFFF" d="M41.361,292.499c3.975-0.876,6.229,3.525,7.846,6.334c2.231,3.873,6.374,6.757,10.599,8.048
	c3.407,1.042,6.185,0.329,9.529,0.536c3.565,0.222-4.702,4.666-5.292,5.002c-8.283,4.722-16.61,11.611-25.819,14.344
	c-2.589,0.77-9.129,1.627-7.564-3.208c1.453-4.488,6.08-4.528,8.813-7.538c-3.495-1.439-7.683-0.93-11.348-2.643
	c-2.49-1.164-4.991-4.965-1.91-7.034c4.36-2.926,10.468,0.786,15.119,0.57c-2.061-4.528-8.248-12.581,0.23-14.456
	c-0.859,0.189,0.907-0.199,1.276-0.281C42.348,292.282,41.854,292.391,41.361,292.499C45.313,291.628,40.894,292.603,41.361,292.499
	z"/>
</svg>
