<?xml version="1.0" encoding="utf-8"?>
<!DOCTYPE svg PUBLIC "-//W3C//DTD SVG 1.1//EN" "http://www.w3.org/Graphics/SVG/1.1/DTD/svg11.dtd">
<svg version="1.1" xmlns="http://www.w3.org/2000/svg" xmlns:xlink="http://www.w3.org/1999/xlink" x="0px" y="0px" width="1000px"
	 height="500px" viewBox="0 0 1000 500" enable-background="new 0 0 1000 500" xml:space="preserve">

<g id="Layer_1">
	<g>
		<path fill="#4D509B" d="M738.605,268.938c2.262-9.131-16.892-31.574-14.444-35.31c0.846-2.957,4.834-6.187,14.448-6.497
			c9.617-0.31,3.481-5.229-0.14-10.498c-16.379-27.557-40.109-71.74-56.928-96.682c-6.073-17.445-30.38-39.597-43.699-45.35
			c-25.993-11.263-54.738-16.746-70.545-17.291c-32.509-1.071-64.86,0.292-96.993,8.012C384,86.061,314.928,138.676,287.964,165.362
			c-24.641,24.387-42.107,59.118-43.853,96.07c-0.338,7.926-4.148,41.693-5.186,48.125c-2.152,13.338-0.807,26.095-0.626,31.514
			c0.205,3.95,1.308,11.688,8.629,19.815c5.447,3.395,11.682-3.453,12.714-0.829c4.33,10.924-0.254,36.733,10.699,38.4
			c12.834,1.897,24.625-9.917,29.821,4.302c2.503,6.846,3.157,21.551,9.269,25.236c5.072,3.08,15.853-2.895,20.046-5.879
			c7.109-4.972,17.859-3.999,23.896,1.818c7.493,7.231,8.444,20.952,19.034,23.215c6.252,1.335,12.628-5.325,18.105-10.285
			c2.049-1.857,17.091-10.624,28.298-7.088c9.14,2.884,13.95,17.887,21.683,19.197c6.275,1.062,10.978,0.844,12.313-1.897
			c6.729-4.463,7.425-10.178,13.223-15.471c-1.482,1.449,6.469-4.1,7.462-4.594c0.964-0.479,9.502-3.573,13.029-4.164
			c-1.272,0.211,7.833-2.286,14.041,0.614s7.044,13.169,22.62,12.71c10.881-0.326,16.635-22.57,28.854-30.003
			c12.221-7.433,23.077-1.121,34.034,1.981c10.956,3.099,17.87,7.136,21.004-2.926c3.134-10.063,0.462-17.984,4.294-24.253
			c3.837-6.268,18.11-13.745,24.967-15.475c8.131-2.052,25.842,5.188,32.161-0.317c6.569-5.722-0.317-11.115,0.089-19.769
			c0.405-8.681,10.052-20.628,18.584-23.4c8.532-2.771,18.576,1.465,24.567-2.563c8.912-10.402-2.158-19.678-3.684-26.444
			c-0.451-1.887-1.753-8.19,7.354-16.548C722.835,269.64,736.448,277.628,738.605,268.938z M687.34,152.516
			c3.882-6.652,17.482,20.471,17.482,20.471s17.211,32.818,25.279,45.436c-5.614-1.067-10.353,3.918-12.406,6.146
			c-0.248,0.269-0.485,0.538-0.716,0.799c-10.585-13.649-26.741-38.302-30.874-47.714
			C684.318,173.58,684.732,156.985,687.34,152.516z M257.318,345.134c-3.275,4.274-9.254-1.976-11.387-16.752
			c-1.466-10.179,2.096-37.914,4.529-41.63c1.839,4.75,12.958,17.556,12.542,27.161
			C262.584,323.518,260.593,340.862,257.318,345.134z M269.479,381.589c-4.949,1.415-3.594-34.326-1.195-50.386
			c1.269-8.518,6.171-5.877,10.47-4.514c7.825,2.482,18.33,7.948,24.876,26.074c2.988,8.272-2.677,24.831-1.978,38.32
			C293.782,377.616,281.577,378.131,269.479,381.589z M364.123,424.824c-6.467-9.272-13.822-25.516-29.437-16.952
			c-1.073,0.086-20.809,14.456-23.189,0.753c-0.047-0.266-0.091-0.525-0.137-0.782c0.397-16.784,0.54-49.283,10.753-48.028
			c16.304,1.999,32.359,3.367,37.983,26.819c1.055,4.405,4.688,29.855,6.378,38.007
			C366.919,426.791,365.212,426.383,364.123,424.824z M424.567,424.036c-19.839-7.954-21.2-6.141-28.732-2.19
			c-7.284,3.817-9.086,17.354-20.374,11.609c-1.561-12.401-7.705-45.833-7.87-50.929c-0.377-11.7,35.392-19.888,47.797-9.547
			c9.971,8.307,18.25,53.764,20.464,58.451C433.918,430.28,431.211,426.7,424.567,424.036z M514.039,418.426
			c-19.933-15.343-49.072-6.512-69.11,10.649c-1.653-9.977-9.079-33.957-9.432-37.333c-2.664-25.406,24.467-27.966,31.71-28.989
			c7.154-1.007,29.186,3.105,33.225,11.845c4.029,8.713,15.55,35.9,20.854,48.453C518.529,424.1,517.046,420.831,514.039,418.426z
			 M589.62,396.775c-7.4,0.553-17.554-7.184-26.539-6.362c-15.905,1.452-25.585,9.281-33.96,27.682
			c-0.091,0.123-0.179,0.238-0.268,0.354c-1.779-6.649-16.307-42.177-14.267-48.041c1.421-4.819,6.68-22.989,30.401-26.191
			c13.365-1.805,18.794,5.673,21.837,9.867c4.743,6.539,15.018,30.23,23.097,42.495C589.822,396.646,589.724,396.711,589.62,396.775
			z M625.394,355.876c-16.818,9.6-11.905,5.846-23.099,16.193c-3.412,3.154-3.591,12.904-4.635,16.854
			c-3.086-7.32-21.615-39.845-21.94-43.853c-1.38-17.016,20.079-28.695,34.474-34.184c6.357-2.425,14.428-0.535,20.029,3.537
			c6.319,4.597,14.159,18.239,18.157,25.096c0.376,0.651,4.126,8.35,7.027,14.273C650.146,353.942,639.84,347.631,625.394,355.876z
			 M669.253,320.154c-7.43,5.903-9.321,13.265-9.862,19.584c-3.721-8.013-23.612-40.207-23.207-47.518
			c1.691-30.404,19.9-42.377,23.021-42.404c2.063-0.021,10.889,7.92,12.039,9.395c1.833,2.354,20.638,22.162,26.445,30.773
			c3.524,7.133,1.264,9.375,1.34,14.849C699.165,314.481,679.027,310.514,669.253,320.154z M702.484,277.042
			c-0.932,1.355-1.691,2.635-2.313,3.861c-4.445-7.678-14.84-20.676-21.1-30.798c-14.236-18.517-12.105-25.544-8.952-36.027
			c1.456-4.835,3.628-9.242,6.188-12.069c3.414-3.77,12.223,4.188,13.767,7.144c1.838,3.514,37.517,42.535,31.312,52.1
			C717.586,263.539,708.562,268.194,702.484,277.042z"/>
		<path fill="#FF2184" d="M690.074,209.153c1.838,3.514,37.517,42.535,31.312,52.1c-3.8,2.286-12.824,6.941-18.901,15.79
			c-0.932,1.355-1.691,2.635-2.313,3.861c-4.445-7.678-14.84-20.676-21.1-30.798c-14.236-18.517-12.105-25.544-8.952-36.027
			c1.456-4.835,3.628-9.242,6.188-12.069C679.722,198.239,688.53,206.197,690.074,209.153z"/>
		<path fill="#FF2184" d="M730.102,218.422c-5.614-1.067-10.353,3.918-12.406,6.146c-0.248,0.269-0.485,0.538-0.716,0.799
			c-10.585-13.649-26.741-38.302-30.874-47.714c-1.787-4.074-1.373-20.668,1.234-25.138c3.882-6.652,17.482,20.471,17.482,20.471
			S722.033,205.805,730.102,218.422z"/>
		<path fill="#FF2184" d="M699.029,304.832c0.136,9.649-20.002,5.682-29.776,15.322c-7.43,5.903-9.321,13.265-9.862,19.584
			c-3.721-8.013-23.612-40.207-23.207-47.518c1.691-30.404,19.9-42.377,23.021-42.404c2.063-0.021,10.889,7.92,12.039,9.395
			c1.833,2.354,20.638,22.162,26.445,30.773C701.214,297.116,698.953,299.359,699.029,304.832z"/>
		<path fill="#FF2184" d="M655.407,353.793c-5.261,0.149-15.567-6.162-30.014,2.083c-16.818,9.6-11.905,5.846-23.099,16.193
			c-3.412,3.154-3.591,12.904-4.635,16.854c-3.086-7.32-21.615-39.845-21.94-43.853c-1.38-17.016,20.079-28.695,34.474-34.184
			c6.357-2.425,14.428-0.535,20.029,3.537c6.319,4.597,14.159,18.239,18.157,25.096C648.756,340.171,652.506,347.87,655.407,353.793
			z"/>
		<path fill="#FF2184" d="M589.922,396.579c-0.1,0.068-0.198,0.133-0.302,0.196c-7.4,0.553-17.554-7.184-26.539-6.362
			c-15.905,1.452-25.585,9.281-33.96,27.682c-0.091,0.123-0.179,0.238-0.268,0.354c-1.779-6.649-16.307-42.177-14.267-48.041
			c1.421-4.819,6.68-22.989,30.401-26.191c13.365-1.805,18.794,5.673,21.837,9.867C571.568,360.623,581.843,384.313,589.922,396.579
			z"/>
		<path fill="#FF2184" d="M521.286,423.051c-2.757,1.049-4.24-2.22-7.247-4.625c-19.933-15.343-49.072-6.512-69.11,10.649
			c-1.653-9.977-9.079-33.957-9.432-37.333c-2.664-25.406,24.467-27.966,31.71-28.989c7.154-1.007,29.186,3.105,33.225,11.845
			C504.461,383.311,515.982,410.498,521.286,423.051z"/>
		<path fill="#FF2184" d="M435.852,431.43c-1.934-1.149-4.641-4.729-11.285-7.394c-19.839-7.954-21.2-6.141-28.732-2.19
			c-7.284,3.817-9.086,17.354-20.374,11.609c-1.561-12.401-7.705-45.833-7.87-50.929c-0.377-11.7,35.392-19.888,47.797-9.547
			C425.359,381.286,433.638,426.743,435.852,431.43z"/>
		<path fill="#FF2184" d="M366.475,424.641c0.444,2.15-1.263,1.742-2.352,0.184c-6.467-9.272-13.822-25.516-29.437-16.952
			c-1.073,0.086-20.809,14.456-23.189,0.753c-0.047-0.266-0.091-0.525-0.137-0.782c0.397-16.784,0.54-49.283,10.753-48.028
			c16.304,1.999,32.359,3.367,37.983,26.819C361.151,391.039,364.784,416.488,366.475,424.641z"/>
		<path fill="#FF2184" d="M303.629,352.762c2.988,8.272-2.677,24.831-1.978,38.32c-7.87-13.466-20.075-12.951-32.172-9.493
			c-4.949,1.415-3.594-34.326-1.195-50.386c1.269-8.518,6.171-5.877,10.47-4.514C286.578,329.171,297.083,334.637,303.629,352.762z"
			/>
		<path fill="#FF2184" d="M263.002,313.912c-0.417,9.605-2.409,26.95-5.684,31.222c-3.275,4.274-9.254-1.976-11.387-16.752
			c-1.466-10.179,2.096-37.914,4.529-41.63C252.299,291.501,263.418,304.307,263.002,313.912z"/>
	</g>
</g>
<g id="TYPO">
	<text transform="matrix(1 0 0 1 393.228 677.8516)"><tspan x="0" y="0" fill="#FFFFFF" font-family="'HWTArtz'" font-size="121.8898" letter-spacing="5">the </tspan><tspan x="-109.759" y="93.543" fill="#FFFFFF" font-family="'HWTArtz'" font-size="121.8898" letter-spacing="5">oedipus </tspan><tspan x="-178.99" y="187.086" fill="#FFFFFF" font-family="'HWTArtz'" font-size="121.8898" letter-spacing="5">experience</tspan></text>
	<text transform="matrix(1.1174 -0.0308 -0.2677 0.9635 413.9814 153.0181)"><tspan x="0" y="0" fill="#FFFFFF" font-family="'HWTArtz'" font-size="76.159" letter-spacing="2.684">the </tspan><tspan x="-68.581" y="58.448" fill="#FFFFFF" font-family="'HWTArtz'" font-size="76.159" letter-spacing="2.684">oedipus </tspan><tspan x="-111.837" y="116.895" fill="#FFFFFF" font-family="'HWTArtz'" font-size="76.159" letter-spacing="2.684">experience</tspan></text>
	<path fill="#FFFFFF" d="M700.501,112.895c-0.209,1.497-0.515,2.9-0.979,4.344c-0.781,2.436,0.702,1.244,2.323,0.482
		c8.935-4.2,17.993-6.864,27.69-8.845c5.864-1.199,14.811-2.144,19.137-6.954c3.729-4.145,1.604-10.882-3.619-12.273
		c-7.144-1.904-12.931,2.935-13.669,2.368c0.118,0.091,3.921-6.709,4.078-7.433c0.879-4.018-1.703-7.671-5.938-7.402
		c-3.203,0.204-5.735,2.58-7.995,4.617c-0.796,0.718-6.606,8.998-7.274,8.76c-0.42-0.15,1.655-9.98,0.564-15.665
		c-0.458-2.386-1.471-5.367-3.846-6.505c-3.042-1.457-5.633,1.23-6.896,3.737c-2.38,4.721-2.168,10.968-2.437,16.117
		C701.41,92.649,701.008,109.289,700.501,112.895z"/>
	<path fill="#FFFFFF" d="M798.884,127.834c-3.808,1.878-6.584,4.806-9.892,7.365c1.78-5.046,4.365-9.556,5.141-14.94
		c0.501-3.484,0.338-8.941-4.65-5.815c-3.429,2.148-5.562,6.183-7.533,9.6c-1.402,2.43-2.923,6.845-5.197,8.586
		c-2.951-4.822-3.522-11.071-7.782-15.134c-6.419-6.124-6.947,6.658-6.333,10.001c1.248,6.788,3.509,13.432,5.082,20.157
		c0.607,2.601,0.74,6.583,2.146,8.917c0.484,0.809,25.887-14.245,27.981-15.498c3.594-2.149,11.2-6.72,11.341-11.645
		C809.326,124.509,801.259,126.662,798.884,127.834C796.801,128.862,801.524,126.53,798.884,127.834z"/>
	<path fill="#FFFFFF" d="M797.564,214.088c-3.318,2.357-7.111-0.815-9.696-2.77c-3.565-2.695-8.505-3.734-12.899-3.273
		c-3.543,0.37-5.823,2.11-8.982,3.225c-3.369,1.188,2.508-6.131,2.92-6.671c5.784-7.579,10.762-17.173,18.174-23.282
		c2.084-1.718,7.771-5.061,8.217,0.002c0.414,4.699-3.83,6.542-5.172,10.38c3.779-0.038,7.437-2.143,11.479-1.996
		c2.747,0.101,6.533,2.624,4.504,5.731c-2.873,4.396-9.945,3.361-14.143,5.375c3.664,3.365,12.504,8.365,5.43,13.4
		c0.717-0.511-0.758,0.537-1.065,0.757C796.74,214.673,797.152,214.38,797.564,214.088
		C794.266,216.432,797.954,213.811,797.564,214.088z"/>
	<path fill="#FFFFFF" d="M270.485,141.779c0.745,1.315,1.545,2.507,2.508,3.68c1.623,1.977-0.195,1.415-1.982,1.303
		c-9.854-0.618-19.257,0.238-29.002,1.965c-5.894,1.043-14.561,3.456-20.353,0.576c-4.993-2.482-5.496-9.528-1.151-12.744
		c5.942-4.399,13.104-2.029,13.582-2.828c-0.076,0.128-6.115-4.796-6.527-5.411c-2.295-3.413-1.239-7.759,2.798-9.068
		c3.053-0.989,6.282,0.289,9.133,1.351c1.004,0.375,9.454,5.936,9.988,5.468c0.335-0.293-5.212-8.67-6.289-14.358
		c-0.452-2.387-0.607-5.532,1.182-7.464c2.292-2.474,5.69-0.928,7.788,0.938c3.95,3.514,6.052,9.401,8.196,14.09
		C262.19,123.288,268.687,138.612,270.485,141.779z"/>
	<path fill="#FFFFFF" d="M152.066,106.584c4.232,0.346,7.891,2.046,11.908,3.208c-3.513-4.037-7.576-7.279-10.278-12
		c-1.748-3.056-3.604-8.189,2.185-7.119c3.979,0.736,7.446,3.703,10.537,6.154c2.198,1.744,5.236,5.289,7.992,6.071
		c0.97-5.569-0.798-11.59,1.667-16.936c3.715-8.056,8.91,3.634,9.569,6.97c1.337,6.771,1.68,13.78,2.691,20.613
		c0.393,2.642,1.734,6.394,1.287,9.082c-0.153,0.93-29.313-3.72-31.721-4.115c-4.132-0.676-12.887-2.127-14.83-6.655
		C141.133,107.335,149.427,106.368,152.066,106.584C154.382,106.773,149.131,106.343,152.066,106.584z"/>
	<path fill="#FFFFFF" d="M642.724,32.954c-0.703,2.795-2.251,5.057-3.478,7.618c3.096-1.903,5.722-4.262,9.185-5.545
		c2.242-0.83,5.888-1.5,4.524,2.258c-0.937,2.583-3.312,4.574-5.298,6.371c-1.413,1.277-4.127,2.917-4.958,4.676
		c3.622,1.271,7.852,0.758,11.157,3.006c4.981,3.388-3.429,5.562-5.736,5.632c-4.685,0.14-9.417-0.413-14.106-0.498
		c-1.813-0.032-4.477,0.448-6.227-0.152c-0.605-0.207,5.763-19.218,6.296-20.788c0.914-2.692,2.863-8.394,6.112-9.19
		C643.441,25.546,643.163,31.209,642.724,32.954C642.339,34.483,643.213,31.014,642.724,32.954z"/>
	<path fill="#FFFFFF" d="M159.724,205.728c3.953,0.971,6.313-3.375,7.997-6.143c2.324-3.818,6.534-6.602,10.79-7.79
		c3.431-0.959,6.191-0.181,9.539-0.307c3.57-0.135-4.588-4.778-5.169-5.128c-8.167-4.919-16.326-12.008-25.466-14.961
		c-2.57-0.83-9.087-1.846-7.64,3.025c1.344,4.522,5.968,4.674,8.628,7.749c-3.528,1.355-7.703,0.744-11.408,2.368
		c-2.518,1.104-5.109,4.844-2.079,6.987c4.289,3.03,10.484-0.534,15.128-0.206c-2.169,4.477-8.549,12.379-0.118,14.458
		c-0.854-0.211,0.902,0.221,1.27,0.312C160.706,205.968,160.214,205.848,159.724,205.728
		C163.654,206.693,159.259,205.613,159.724,205.728z"/>
	<path fill="#FFFFFF" d="M231.466,226.235c0.556,0.981,1.153,1.871,1.872,2.746c1.21,1.475-0.146,1.056-1.479,0.973
		c-7.353-0.461-14.369,0.178-21.642,1.466c-4.398,0.779-10.865,2.579-15.187,0.43c-3.726-1.852-4.101-7.11-0.859-9.51
		c4.434-3.282,9.778-1.514,10.134-2.11c-0.057,0.096-4.563-3.579-4.871-4.038c-1.713-2.546-0.924-5.79,2.088-6.766
		c2.278-0.738,4.688,0.215,6.814,1.008c0.75,0.28,7.055,4.429,7.453,4.08c0.25-0.219-3.889-6.47-4.693-10.714
		c-0.337-1.781-0.453-4.127,0.882-5.569c1.711-1.846,4.247-0.692,5.811,0.7c2.948,2.622,4.516,7.015,6.116,10.514
		C225.277,212.438,230.125,223.873,231.466,226.235z"/>
	<path fill="#FFFFFF" d="M299.768,84.497c3.618,2.222,6.113,5.393,9.171,8.246c-1.308-5.189-3.466-9.918-3.741-15.351
		c-0.178-3.516,0.488-8.934,5.167-5.362c3.216,2.455,4.967,6.67,6.615,10.253c1.173,2.549,2.279,7.085,4.384,9.029
		c3.383-4.529,4.528-10.698,9.145-14.352c6.957-5.506,6.304,7.27,5.384,10.543c-1.869,6.644-4.732,13.051-6.919,19.603
		c-0.844,2.534-1.344,6.487-2.958,8.682c-0.557,0.76-24.463-16.572-26.433-18.013c-3.38-2.472-10.533-7.724-10.219-12.641
		C289.676,80.223,297.511,83.111,299.768,84.497C301.747,85.713,297.259,82.955,299.768,84.497z"/>
	<path fill="#FFFFFF" d="M848.462,210.03c-4.069,0.12-5.182,4.938-6.065,8.056c-1.221,4.3-4.534,8.107-8.317,10.389
		c-3.05,1.841-5.918,1.827-9.11,2.843c-3.404,1.084,5.697,3.379,6.352,3.562c9.184,2.559,18.939,7.211,28.536,7.617
		c2.699,0.113,9.251-0.648,6.555-4.956c-2.504-3.999-7-2.91-10.385-5.163c3.037-2.249,7.225-2.775,10.36-5.329
		c2.132-1.737,3.631-6.032,0.138-7.288c-4.942-1.774-9.961,3.315-14.524,4.239c0.896-4.894,4.933-14.213-3.746-13.965
		c0.879-0.024-0.929,0.028-1.307,0.039C847.452,210.06,847.957,210.045,848.462,210.03
		C844.416,210.149,848.939,210.016,848.462,210.03z"/>
	<path fill="#FFFFFF" d="M682.53,351.317c-0.662-1.358-1.388-2.598-2.275-3.828c-1.497-2.074,0.282-1.4,2.06-1.178
		c9.796,1.229,19.234,0.958,29.068-0.16c5.947-0.675,14.747-2.545,20.35,0.689c4.829,2.787,4.893,9.851,0.357,12.791
		c-6.204,4.021-13.204,1.211-13.731,1.979c0.084-0.124,5.806,5.167,6.179,5.806c2.079,3.549,0.755,7.822-3.355,8.877
		c-3.109,0.799-6.253-0.678-9.032-1.916c-0.979-0.436-9.066-6.512-9.628-6.078c-0.353,0.273,4.663,8.979,5.385,14.723
		c0.304,2.41,0.263,5.559-1.644,7.375c-2.441,2.326-5.736,0.574-7.714-1.42c-3.725-3.752-5.457-9.758-7.306-14.57
		C689.66,370.287,684.128,354.589,682.53,351.317z"/>
	<path fill="#FFFFFF" d="M775.604,380.421c-4.202-0.608-7.749-2.533-11.686-3.942c3.254,4.247,7.108,7.735,9.512,12.615
		c1.555,3.158,3.089,8.397-2.622,6.97c-3.925-0.981-7.202-4.158-10.134-6.796c-2.086-1.878-4.898-5.605-7.601-6.557
		c-1.313,5.497,0.078,11.617-2.716,16.799c-4.208,7.812-8.666-4.18-9.117-7.55c-0.914-6.841-0.82-13.858-1.406-20.74
		c-0.228-2.661-1.334-6.489-0.72-9.144c0.21-0.919,29.024,5.534,31.404,6.076c4.082,0.932,12.729,2.924,14.388,7.563
		C786.562,380.35,778.225,380.8,775.604,380.421C773.304,380.087,778.518,380.843,775.604,380.421z"/>
	<path fill="#FFFFFF" d="M802.806,260.253c-3.946,1.568-7.98,1.667-12.096,2.408c4.938,2.06,10.019,3.162,14.535,6.194
		c2.922,1.963,6.863,5.74,1.201,7.349c-3.892,1.106-8.316-0.014-12.173-0.839c-2.744-0.588-7.041-2.417-9.857-1.895
		c1.602,5.42,5.859,10.032,6.021,15.917c0.247,8.87-9.596,0.697-11.667-2c-4.203-5.475-7.62-11.604-11.559-17.278
		c-1.524-2.193-4.392-4.96-5.183-7.568c-0.276-0.901,27.919-9.672,30.253-10.389c4.003-1.227,12.492-3.812,16.243-0.616
		C812.27,254.729,805.267,259.275,802.806,260.253C800.646,261.111,805.542,259.167,802.806,260.253z"/>
	<path fill="#FFFFFF" d="M786.827,322.3c-3.885-1.215-6.51,2.977-8.363,5.635c-2.556,3.667-6.931,6.183-11.252,7.105
		c-3.484,0.745-6.191-0.205-9.54-0.286c-3.571-0.086,4.282,5.054,4.842,5.439c7.846,5.417,15.548,12.999,24.487,16.514
		c2.513,0.988,8.955,2.407,7.813-2.545c-1.061-4.597-5.667-5.036-8.131-8.27c3.605-1.133,7.734-0.264,11.533-1.655
		c2.581-0.946,5.4-4.517,2.509-6.844c-4.093-3.291-10.497-0.118-15.112-0.734c2.443-4.334,9.301-11.825,1.016-14.423
		c0.84,0.264-0.887-0.276-1.247-0.39C785.862,321.999,786.345,322.15,786.827,322.3C782.965,321.092,787.283,322.443,786.827,322.3z
		"/>
	<path fill="#FFFFFF" d="M650.125,416.232c-2.746-3.005-7.124-0.703-10.063,0.662c-4.054,1.884-9.101,1.856-13.299,0.479
		c-3.386-1.108-5.248-3.291-8.102-5.046c-3.043-1.871,1.159,6.521,1.448,7.137c4.056,8.628,6.898,19.056,12.855,26.591
		c1.675,2.118,6.528,6.586,8.032,1.73c1.396-4.506-2.364-7.202-2.867-11.237c3.687,0.835,6.817,3.663,10.8,4.373
		c2.707,0.48,6.94-1.188,5.611-4.653c-1.882-4.903-9.012-5.384-12.691-8.237c4.292-2.516,13.986-5.54,8.134-11.953
		c0.593,0.65-0.628-0.686-0.882-0.965C649.442,415.485,649.783,415.86,650.125,416.232
		C647.395,413.245,650.447,416.586,650.125,416.232z"/>
	<path fill="#FFFFFF" d="M225.15,354.083c0.776-1.296,1.605-2.469,2.597-3.618c1.669-1.938-0.161-1.419-1.951-1.351
		c-9.865,0.38-19.245-0.702-28.946-2.663c-5.867-1.185-14.473-3.806-20.333-1.066c-5.051,2.361-5.723,9.393-1.458,12.713
		c5.834,4.54,13.051,2.344,13.509,3.154c-0.073-0.131-6.229,4.646-6.656,5.252c-2.377,3.356-1.425,7.727,2.579,9.132
		c3.029,1.063,6.287-0.136,9.163-1.13c1.013-0.351,9.594-5.706,10.116-5.227c0.328,0.302-5.418,8.543-6.633,14.202
		c-0.51,2.376-0.74,5.516,1.002,7.491c2.232,2.528,5.667,1.065,7.809-0.751c4.033-3.417,6.276-9.252,8.533-13.888
		C216.413,372.368,223.277,357.205,225.15,354.083z"/>
	<path fill="#FFFFFF" d="M298.365,433.09c0.339-1.199,0.748-2.312,1.29-3.439c0.913-1.902-0.434-1.097-1.845-0.656
		c-7.773,2.426-15.475,3.581-23.621,4.107c-4.927,0.318-12.343,0.082-16.419,3.523c-3.515,2.967-2.537,8.711,1.574,10.437
		c5.622,2.36,10.896-0.94,11.436-0.394c-0.086-0.089-3.96,5.039-4.17,5.613c-1.171,3.184,0.527,6.459,4.018,6.717
		c2.64,0.193,4.977-1.461,7.053-2.871c0.731-0.497,6.412-6.607,6.931-6.338c0.326,0.17-2.477,7.969-2.227,12.735
		c0.105,2.001,0.597,4.552,2.409,5.75c2.321,1.533,4.741-0.371,6.056-2.278c2.477-3.588,3.008-8.717,3.808-12.894
		C295.341,449.529,297.545,435.979,298.365,433.09z"/>
	<path fill="#FFFFFF" d="M119.2,386.699c4.239-0.243,7.938-1.855,11.982-2.921c-3.608,3.95-7.749,7.094-10.563,11.749
		c-1.821,3.013-3.801,8.101,2.012,7.169c3.995-0.639,7.534-3.521,10.682-5.898c2.24-1.69,5.362-5.161,8.137-5.878
		c0.835,5.592-1.078,11.568,1.258,16.972c3.52,8.144,8.995-3.419,9.734-6.737c1.5-6.735,2.011-13.735,3.187-20.541
		c0.456-2.632,1.888-6.351,1.505-9.048c-0.13-0.934-29.393,3.013-31.811,3.349c-4.147,0.577-12.934,1.816-14.986,6.296
		C108.289,385.686,116.557,386.851,119.2,386.699C121.52,386.564,116.26,386.868,119.2,386.699z"/>
	<path fill="#FFFFFF" d="M155.818,251.442c2.558,3.389,5.954,5.568,9.087,8.338c-5.289-0.805-10.203-2.5-15.638-2.253
		c-3.517,0.16-8.847,1.342-4.842,5.656c2.751,2.967,7.114,4.307,10.84,5.603c2.65,0.923,7.271,1.59,9.408,3.498
		c-4.185,3.802-10.216,5.533-13.41,10.478c-4.814,7.452,7.841,5.579,11.011,4.349c6.433-2.497,12.537-5.961,18.848-8.766
		c2.441-1.083,6.329-1.96,8.358-3.777c0.704-0.627-18.839-22.762-20.462-24.585c-2.785-3.127-8.698-9.744-13.562-8.96
		C150.597,241.808,154.224,249.329,155.818,251.442C157.219,253.296,154.044,249.092,155.818,251.442z"/>
	<path fill="#FFFFFF" d="M143.385,307.957c3.975-0.875,6.229,3.526,7.846,6.334c2.231,3.873,6.374,6.757,10.599,8.048
		c3.407,1.042,6.185,0.329,9.529,0.536c3.565,0.222-4.702,4.666-5.292,5.002c-8.283,4.721-16.61,11.611-25.819,14.344
		c-2.589,0.769-9.129,1.627-7.564-3.208c1.453-4.488,6.08-4.528,8.813-7.539c-3.495-1.439-7.683-0.929-11.348-2.642
		c-2.49-1.165-4.991-4.965-1.91-7.035c4.36-2.926,10.468,0.787,15.119,0.57c-2.061-4.528-8.248-12.582,0.23-14.457
		c-0.859,0.19,0.907-0.199,1.276-0.281C144.372,307.74,143.878,307.849,143.385,307.957
		C147.336,307.086,142.917,308.06,143.385,307.957z"/>
</g>
</svg>
