<?xml version="1.0" encoding="utf-8"?>
<!-- Generator: Adobe Illustrator 16.0.3, SVG Export Plug-In . SVG Version: 6.00 Build 0)  -->
<!DOCTYPE svg PUBLIC "-//W3C//DTD SVG 1.1//EN" "http://www.w3.org/Graphics/SVG/1.1/DTD/svg11.dtd">
<svg version="1.1" id="Layer_1" xmlns="http://www.w3.org/2000/svg" xmlns:xlink="http://www.w3.org/1999/xlink" x="0px" y="0px"
	 width="286.896px" height="243.823px" viewBox="0 0 286.896 243.823" enable-background="new 0 0 286.896 243.823"
	 xml:space="preserve">
<g>
	<g id="XMLID_16_">
		<g>
			<path fill="#CA447F" d="M223.631,133.889c-0.662,8.15-4.314,16.502-6.876,24.188c-2.92,8.761-9.479,28.724-10.191,30.188
				c-1.605,3.35-2.61,7.053-4.539,10.176c-3.392,5.492-7.521,10.438-12.109,15.056c-5.068,5.085-10.546,9.47-17.032,12.509
				c-5.488,2.571-10.981,5.219-16.643,7.343c-4.639,1.728-9.523,2.82-14.351,3.997c-3.783,0.914-7.628,1.821-11.491,2.198
				c-7.155,0.699-14.257,2.367-21.588,1.171c-3.047-0.492-6.278,0.34-9.371,0.053c-4.655-0.436-9.303-1.131-13.906-2.032
				c-6.409-1.257-12.494-3.508-18.316-6.561c-3.738-1.96-7.939-3.134-11.423-5.437c-4.416-2.926-8.295-6.649-12.428-10.029
				c-0.401-0.337-0.88-0.586-1.334-0.869c-8-4.878-13.666-11.995-18.866-19.578c-2.859-4.149-4.633-8.689-6.165-13.448
				c-1.241-3.826-2.846-7.536-4.19-11.347c-1.273-3.532-2.8-7.025-3.525-10.669c-0.879-4.368-0.989-8.896-1.512-13.332
				c-0.152-1.229-0.855-11.479-0.829-15.401c0.016-2.458-0.046-4.919,0.14-7.356c0.344-4.245,0.543-8.544,1.403-12.699
				c0.903-4.282,2.538-8.46,3.846-12.681c0.561-1.868,1.058-3.756,1.665-5.616c0.493-1.507,6.641-20.234,10.073-26.479
				c0.983-1.793,5.131-11.53,10.198-17.546c2.292-2.735,4.711-5.337,7.093-7.979c1.348-1.497,2.798-2.917,4.127-4.442
				c0.911-1.051,22.893-21.495,23.835-22.337c1.545-1.404,2.871-3.05,4.523-4.242c2.553-1.905,5.23-3.691,8.027-5.19
				c2.061-1.115,7.232-4.172,12.873-3.365c2.362,0.807,4.308,3.43,6.152,4.956c2.611,2.173,4.973,1.852,7.622,0.695
				c6.437-2.758,6.949-3.414,14.677-1.087c3.335,0.998,6.587,2.969,8.328,6.461c0.524,1.065,0.958,2.129,1.497,3.193
				c0.067,0.143,0.467,0.266,0.656,0.208c5.029-1.557,10.197-2.083,15.211-0.465c4.373,1.408,8.265,3.894,11.292,7.53
				c0.356,0.45,1.119,0.855,1.646,0.807c3.098-0.293,5.999-0.573,9.244-1.208c6.586-1.453,11.655,5.966,12.452,6.915
				c0.374,0.463,0.932,1.036,1.455,1.064c1.032,0.075,2.059,0.105,3.098,0.118c3.946,0.389,8.607,1.784,8.614,1.829
				c13.023,5.839,15.826,19.238,20.809,29.964c6.529,14.049,6.132,30.228,6.373,45.472
				C223.994,116.968,224.305,125.507,223.631,133.889z M216.434,111.871c-0.128-13.05,1.303-29.459-4.004-41.646
				c-3.131-7.205-6.858-14.107-10.347-21.152c-2.815-5.696-8.232-9.51-12.352-9.004c-4.125,0.461-2.396,3.574-2.465,5.262
				c-0.078,2.345-0.78,7.97-2.149,10.553c-2.226,4.723-5.586,6.017-11.886,4.774c-2.454-0.504-4.437-2.451-4.511-4.895
				c-0.097-3.31,0.663-6.503,2.462-9.379c1.395-2.206,2.807-4.398,4.199-6.619c1.087-1.717,1.438-3.447,0.183-5.228
				c-1.484-2.082-3.359-1.666-5.327-0.854c-2.73,1.124-4.724,2.488-5.204,5.914c-0.461,3.256-4.416,9.365-9.181,10.761
				c-3.37,2.149-8.186,0.837-9.505-2.9c-1.052-2.97,0.152-5.635,1.833-7.974c1.353-1.879,2.954-3.612,4.579-5.303
				c1.8-1.838,2.466-3.92,1.631-5.839c-1.284-2.996-7.887-6.985-16.009-3.869c-2.236,0.653-0.816,4.147-0.97,6.183
				c-0.374,5.073-2.545,11.893-8.74,13.822c-1.077,0.343-5.52-0.505-6.509-0.8c-3.225-0.969-2.909-1-3.114-4.218
				c-0.186-3.297,1.548-5.583,3.084-8.069c1.082-1.747,2.162-3.509,3.175-5.307c1.685-3.026,0.695-6.188-0.466-8.867
				c-1.302-3.009-4.835-3.901-8.444-2.327c-2.219,0.971-4.319,2.641-5.959,4.425c-1.049,1.147-1.665,3.16-1.61,4.753
				c0.236,6.096-4.61,14.412-10.318,16.329c-1.96,0.658-4.374,0.225-6.521-0.066c-5.22-1.77-3.369-7.261-0.466-11.322
				c2.271-2.977,4.465-6.063,6.908-8.913c3.909-4.166-3.289-8.98-8.671-8.667c-5.96,2.168-11.777,5.504-15.543,10.32
				c-4.112,5.263-9.183,9.206-13.817,13.723C38.149,57.405,35.297,67.849,33.339,71.083c-3.407,5.692-6.327,11.586-8.704,17.75
				c-1.305,3.427-2.027,7.073-3.135,10.593c-2.211,7.07-3.871,14.256-4.382,21.683c-0.146,1.988-0.904,10.52-0.663,12.756
				c0.665,6.413,1.392,12.832,2.295,19.209c0.632,4.45,1.173,9.006,2.54,13.271c2.021,6.196,4.667,12.191,7.179,18.207
				c3.912,9.376,10.43,16.687,18.325,22.907c3.075,2.425,6.024,5.021,9.125,7.411c5.379,4.17,11.785,6.328,17.894,9.048
				c2.5,1.122,4.896,2.565,7.497,3.337c4.353,1.273,8.775,2.399,13.255,3.09c3.948,0.602,8.012,0.652,12.016,0.712
				c3.395,0.059,6.794-0.051,10.171-0.416c5.287-0.543,10.604-1.091,15.813-2.156c12.385-2.545,30.708-4.343,47.356-18.716
				c7.984-6.908,10.022-13.189,13.886-18.278c2.081-2.72,3.468-6.007,4.987-9.115c0.463-0.983,1.107-5.06,4.875-12.224
				c3.753-7.162,2.918-5.391,5.479-13.077c2.426-7.27,6.309-15.503,6.929-23.221C216.655,126.569,216.516,119.179,216.434,111.871z"
				/>
			<path fill="#4D509B" d="M192.307,133.062c-0.016,0.002-0.016,0.002-0.016,0.002c-0.141-0.024-0.281-0.049-0.423-0.074
				c-2.753-0.565-2.605-12.178-1.965-14.53c0.58-2.145,1.419-11.877-2.176-11.235c-2.811,0.479-6.033,8.233-8.779,10.274
				c-7.538,5.606-20.284,6.344-23.338-4.44c-1.31-4.594-1.527-11.485,0.997-15.734c0.56-0.953-0.396-1.847-1.325-1.526
				c-3.106,1.057-5.211,3.612-7.277,6.024c-3.792,4.438-4.353,9.584-6.946,14.5c-1.439,2.73-3.749,3.09-5.434,2.121
				c-1.879-1.047-2.956-3.769-1.134-6.694c3.125-5.025,4.563-11.141,8.594-15.615c2.931-3.257,7.625-6.869,11.823-8.577
				c7.683-3.096,12.191-4.057,16.835-3.696c4.909,0.398,11.623,2.067,15.243,5.584c9.932,9.654,11.361,21.306,11.057,34.421
				C197.959,126.883,197.411,133.751,192.307,133.062z"/>
			<path fill="#4D509B" d="M182.146,136.114c2.45,2.319,4.231,5.989,4.13,9.404c-0.368,12.377-6.424,21.59-15.643,29.322
				c-7.604,6.393-16.026,11.383-25.23,14.812c-3.497,1.299-31.712,7.329-38.16,7.45c-5.352,0.11-10.809-0.693-16.057-1.834
				c-9.174-2.004-18.261-4.448-27.314-6.975c-6.921-1.928-13.718-4.256-20.558-6.455c-3.3-1.064-4.791-3.191-4.182-5.66
				c0.704-2.851,3.644-4.614,6.858-3.919c2.048,0.442,9.172,2.706,10.721,3.177c2.092,0.635,4.109,1.478,6.178,2.161
				c2.984,0.989,5.959,2.025,9.006,2.822c3.57,0.933,7.217,1.564,10.8,2.479c2.156,0.548,23.703,6.277,39.574-0.509
				c6.644-3.413,7.504-5.524,11.586-12.628c3.617-6.334,7.398-12.585,11.486-18.623c2.965-4.36,6.044-8.875,9.968-12.326
				C160.427,134.346,174.789,129.203,182.146,136.114z M177.895,145.349c-0.481-3.131-1.59-4.323-3.94-4.645
				c-5.476-0.725-10.204,1.626-13.673,5.269c-3.714,3.938-6.415,8.84-9.407,13.433c-1.689,2.585-2.954,5.457-4.641,8.058
				c-2.873,4.469-5.934,8.798-8.892,13.203c-0.15,0.221-0.152,0.617-0.057,0.848c0.069,0.157,0.578,0.295,0.686,0.202
				c2.404-0.754,6.498-1.836,11.528-8.304c3.659-4.205,12.822-20.301,14.987-23.582c1.442-2.196,5.694,0.037,4.561,2.463
				c-1.609,11.007-13.071,21.908-12.423,21.857c0.65-0.035,0.468,0.068,0.65-0.035c1.091-0.56,3.243-1.978,4.184-2.728
				c3.043-2.405,6.043-4.896,8.974-7.437C176.42,158.805,177.526,151.793,177.895,145.349z"/>
			<path fill="#F9DF00" d="M192.291,133.063c-4.197,0.899-13.183-1.788-16.393-2.348c-7.344-1.286-22.792-4.872-22.792-4.872
				s-7.702-1.949-17.459-7.359c-0.002-0.015-0.02-0.028-0.021-0.042c1.685,0.969,3.995,0.61,5.434-2.121
				c2.593-4.915,3.153-10.062,6.946-14.5c2.066-2.412,4.17-4.967,7.277-6.024c0.929-0.321,1.885,0.573,1.325,1.526
				c-2.524,4.249-2.307,11.14-0.997,15.734c3.054,10.785,15.8,10.046,23.338,4.44c2.746-2.041,5.969-9.794,8.779-10.274
				c3.595-0.642,2.756,9.09,2.176,11.235c-0.641,2.353-0.788,13.965,1.965,14.53C192.01,133.015,192.15,133.039,192.291,133.063z"/>
			<path fill="#FF98B5" d="M153.106,125.844c0,0,15.448,3.586,22.792,4.872c3.21,0.56,12.195,3.247,16.393,2.348
				c0,0,0,0,0.016-0.002c5.104,0.689,5.652-6.179,5.737-9.195c0.305-13.115-1.125-24.767-11.057-34.421
				c-3.62-3.518-10.334-5.187-15.243-5.584c-4.644-0.361-9.152,0.6-16.835,3.696c-4.198,1.708-8.892,5.319-11.823,8.577
				c-4.031,4.474-5.469,10.59-8.594,15.615c-1.822,2.925-0.746,5.647,1.134,6.694c0.002,0.015,0.019,0.027,0.021,0.042
				C145.405,123.895,153.106,125.844,153.106,125.844z M182.146,136.114c-7.357-6.911-21.72-1.769-26.835,2.699
				c-3.924,3.451-7.003,7.966-9.968,12.326c-4.088,6.038-7.87,12.289-11.486,18.623c-4.082,7.104-4.942,9.215-11.586,12.628
				c-15.872,6.786-37.418,1.057-39.574,0.509c-3.583-0.915-7.23-1.547-10.8-2.479c-3.046-0.797-6.022-1.833-9.006-2.822
				c-2.069-0.684-4.085-1.526-6.178-2.161c-1.549-0.471-8.673-2.734-10.721-3.177c-3.214-0.695-6.154,1.068-6.858,3.919
				c-0.608,2.469,0.882,4.596,4.182,5.66c6.839,2.199,13.637,4.527,20.558,6.455c9.053,2.526,18.14,4.971,27.314,6.975
				c5.248,1.141,10.706,1.944,16.057,1.834c6.448-0.121,34.663-6.151,38.16-7.45c9.204-3.429,17.626-8.419,25.23-14.812
				c9.219-7.732,15.274-16.945,15.643-29.322C186.378,142.104,184.597,138.434,182.146,136.114z M129.413,101.601
				c-6.06,4.166-6.544,9.103-8.704,15.905c-2.616,8.243-6.306,15.93-11.581,22.8c-3.753,4.905-7.371,10.11-12.858,13.199
				c-6.132,3.475-15.368,1.357-16.588-6.833c-0.981-6.595,7.543-17.044,11.219-22.06c5.424-7.411,8.198-15.51,11.917-23.826
				c1.887-4.23,3.82-8.453,5.691-12.682c1.343-3.067,5.065-8.486,2.943-11.784c-1.625-2.518-5.53-3.751-8.104-1.889
				c-2.246,1.615-2.781,6.621-3.494,9.106c-1.748,6.086-2.636,12.104-4.923,18.149c-1.154,3.008-8.68,15.658-11.03,19.027
				c-4.237,6.06-8.464,12.393-11.703,19.111c-4.065,8.444,1.732,15.222,7.314,20.856c5.817,5.89,14.275,3.182,20.556,0.097
				c6.809-3.332,13.098-10.765,17.301-16.957c5.207-7.638,8.7-16.545,12.126-25.077c1.381-3.423,1.881-7.036,2.988-10.556
				c0.375-1.169,1.788-9.401-2.192-7.146c0.041-0.037,0.041-0.037-0.07,0.041c-0.04,0.037-0.098,0.061-0.153,0.099
				c-0.015,0.002-0.027,0.02-0.042,0.021c-0.013,0.018-0.306,0.198-0.572,0.36l0.002,0.015
				C129.443,101.596,129.428,101.598,129.413,101.601z M212.43,70.225c5.307,12.188,3.876,28.596,4.004,41.646
				c0.082,7.308,0.222,14.698-0.356,21.982c-0.62,7.718-4.503,15.951-6.929,23.221c-2.562,7.687-1.727,5.915-5.479,13.077
				c-3.768,7.164-4.412,11.24-4.875,12.224c-1.52,3.108-2.906,6.396-4.987,9.115c-3.863,5.089-5.901,11.37-13.886,18.278
				c-16.648,14.373-34.971,16.171-47.356,18.716c-5.209,1.065-10.526,1.613-15.813,2.156c-3.377,0.365-6.776,0.475-10.171,0.416
				c-4.004-0.06-8.068-0.11-12.016-0.712c-4.479-0.69-8.902-1.816-13.255-3.09c-2.601-0.771-4.996-2.215-7.497-3.337
				c-6.108-2.72-12.515-4.878-17.894-9.048c-3.101-2.391-6.049-4.986-9.125-7.411c-7.896-6.221-14.413-13.531-18.325-22.907
				c-2.512-6.016-5.158-12.011-7.179-18.207c-1.367-4.265-1.908-8.82-2.54-13.271c-0.903-6.377-1.63-12.796-2.295-19.209
				c-0.241-2.236,0.517-10.768,0.663-12.756c0.511-7.427,2.171-14.613,4.382-21.683c1.108-3.52,1.831-7.166,3.135-10.593
				c2.376-6.164,5.296-12.058,8.704-17.75c1.958-3.235,4.811-13.679,27.059-35.611c4.634-4.518,9.705-8.46,13.817-13.723
				c3.767-4.816,9.583-8.152,15.543-10.32c5.382-0.313,12.581,4.501,8.671,8.667c-2.443,2.85-4.637,5.937-6.908,8.913
				c-2.903,4.062-4.754,9.553,0.466,11.322c2.148,0.291,4.561,0.724,6.521,0.066c5.708-1.917,10.555-10.233,10.318-16.329
				c-0.054-1.593,0.561-3.606,1.61-4.753c1.641-1.785,3.74-3.455,5.959-4.425c3.609-1.574,7.143-0.682,8.444,2.327
				c1.161,2.679,2.15,5.841,0.466,8.867c-1.013,1.798-2.093,3.56-3.175,5.307c-1.536,2.486-3.27,4.772-3.084,8.069
				c0.205,3.218-0.111,3.25,3.114,4.218c0.989,0.295,5.432,1.144,6.509,0.8c6.194-1.929,8.366-8.749,8.74-13.822
				c0.154-2.036-1.266-5.53,0.97-6.183c8.122-3.116,14.725,0.873,16.009,3.869c0.835,1.919,0.169,4.001-1.631,5.839
				c-1.625,1.691-3.227,3.424-4.579,5.303c-1.68,2.339-2.884,5.004-1.833,7.974c1.319,3.738,6.135,5.049,9.505,2.9
				c4.765-1.396,8.72-7.505,9.181-10.761c0.48-3.426,2.474-4.791,5.204-5.914c1.968-0.812,3.843-1.228,5.327,0.854
				c1.256,1.78,0.904,3.51-0.183,5.228c-1.393,2.22-2.805,4.413-4.199,6.619c-1.799,2.875-2.559,6.069-2.462,9.379
				c0.074,2.444,2.057,4.391,4.511,4.895c6.3,1.243,9.66-0.051,11.886-4.774c1.369-2.583,2.071-8.208,2.149-10.553
				c0.069-1.688-1.66-4.801,2.465-5.262c4.119-0.506,9.536,3.308,12.352,9.004C205.571,56.118,209.299,63.02,212.43,70.225z
				 M93.006,87.226c1.452-7.46,0.336-13.623-3.264-20.285C83.1,54.693,70.037,51.971,57.205,55.818
				c-5.852,1.771-9.644,5.904-13.838,10.097c-3.478,3.476-9.163,12.207-8.756,17.499c0.153,2.158,2.125,4.137,3.848,3.621
				c4.242,2.678,9.737,5.993,13.97,6.766c6.759,1.25,12.311,4.328,19.175,4.953c2.008,0.174,8.678,2.46,13.144,2.755l0.015-0.002
				c0.066,0.036,0.13,0.057,0.209,0.076C92.139,103.322,91.875,92.945,93.006,87.226z"/>
			<path fill="#4D509B" d="M129.456,101.579c0.181-0.119,0.376-0.239,0.569-0.375c0.015-0.002,0.028-0.019,0.042-0.021
				c0.055-0.039,0.113-0.063,0.153-0.099c0.028-0.019,0.058-0.023,0.07-0.041c3.98-2.255,2.567,5.977,2.192,7.146
				c-1.107,3.52-1.607,7.132-2.988,10.556c-3.427,8.532-6.92,17.439-12.126,25.077c-4.203,6.192-10.492,13.625-17.301,16.957
				c-6.281,3.085-14.739,5.793-20.556-0.097c-5.582-5.635-11.379-12.412-7.314-20.856c3.239-6.719,7.466-13.052,11.703-19.111
				c2.35-3.37,9.876-16.02,11.03-19.027c2.287-6.044,3.175-12.063,4.923-18.149c0.713-2.485,1.249-7.491,3.494-9.106
				c2.574-1.862,6.479-0.629,8.104,1.889c2.123,3.298-1.6,8.717-2.943,11.784c-1.872,4.229-3.805,8.451-5.691,12.682
				c-3.718,8.316-6.493,16.415-11.917,23.826c-3.676,5.016-12.2,15.465-11.219,22.06c1.22,8.19,10.456,10.308,16.588,6.833
				c5.487-3.089,9.104-8.294,12.858-13.199c5.275-6.87,8.965-14.557,11.581-22.8c2.16-6.803,2.645-11.74,8.704-15.905
				C129.428,101.598,129.443,101.596,129.456,101.579z"/>
			<path fill="#F9DF00" d="M137.341,180.666c2.958-4.405,6.02-8.734,8.892-13.203c1.687-2.601,2.952-5.473,4.641-8.058
				c2.992-4.593,5.693-9.494,9.407-13.433c3.469-3.643,8.197-5.993,13.673-5.269c2.351,0.321,3.459,1.514,3.94,4.645
				c-0.368,6.444-1.475,13.456-7.464,18.603c-2.931,2.541-5.931,5.031-8.974,7.437c-0.94,0.75-3.093,2.168-4.184,2.728
				c-0.183,0.104,0,0-0.65,0.035c-0.648,0.051,10.813-10.851,12.423-21.857c1.134-2.426-3.118-4.659-4.561-2.463
				c-2.165,3.281-11.328,19.377-14.987,23.582c-5.031,6.468-9.125,7.55-11.528,8.304c-0.108,0.093-0.617-0.045-0.686-0.202
				C137.188,181.283,137.19,180.887,137.341,180.666z"/>
			<path fill="#F9DF00" d="M86.724,79.651c2.028,6.454-5.383,20.383-1.977,21.858c-4.466-0.295-11.136-2.582-13.144-2.755
				c-6.864-0.625-12.416-3.703-19.175-4.953c-4.232-0.773-9.728-4.088-13.97-6.766c0.569-0.176,1.11-0.638,1.553-1.451
				c1.325-2.469,2.194-5.237,3.403-7.766c1.968-4.09,4.146-8.822,8.085-11.253c1.088-0.681,1.576-0.067,1.67,0.361
				c2.173,8.964-2.74,20.111,9.243,23.878c4.721,1.493,10.944,0.063,15.022-2.557c3.613-2.368,5.087-5.988,7.628-9.096
				C85.699,78.401,86.313,78.325,86.724,79.651z"/>
			<path fill="#4D509B" d="M84.762,101.507l-0.015,0.002c-3.407-1.475,4.005-15.404,1.977-21.858c-0.411-1.326-1.025-1.25-1.66-0.5
				c-2.542,3.108-4.016,6.729-7.628,9.096c-4.078,2.62-10.301,4.05-15.022,2.557c-11.983-3.767-7.07-14.914-9.243-23.878
				c-0.094-0.428-0.583-1.042-1.67-0.361c-3.938,2.432-6.117,7.163-8.085,11.253c-1.209,2.529-2.079,5.296-3.403,7.766
				c-0.443,0.813-0.984,1.275-1.553,1.451c-1.723,0.516-3.695-1.463-3.848-3.621c-0.407-5.292,5.278-14.023,8.756-17.499
				c4.195-4.193,7.987-8.326,13.838-10.097c12.833-3.847,25.895-1.125,32.538,11.123c3.6,6.662,4.715,12.825,3.264,20.285
				c-1.131,5.719-0.867,16.096-8.034,14.357C84.893,101.564,84.829,101.543,84.762,101.507z"/>
		</g>
		<g>
		</g>
	</g>
	<g id="XMLID_15_">
		<g>
			<path fill="#FF98B5" d="M273.124,111.35c1.642,2.531,1.063,5.408-3.441,10.791c-4.12,4.899-8.196,7.641-13.41,10.826
				c-5.705,3.473-11.452,6.967-17.479,9.815c-3.275,1.556-18.534,11.025-20.171,11.711c-1.349,0.567-3.475,1.448-4.187,0.867
				c-1.003-0.796-1.398-2.842-1.346-4.328c0.101-2.913,0.896-5.761,1.041-8.681c0.327-6.103,0.668-12.208,0.556-18.291
				c-0.328-15.216-0.672-28.997,2.437-43.764c1.92-6.157,4.951-9.048,8.31-10.769c2.68-1.359,4.623,0.12,6.082,3.669
				c1.458,3.55,0.938,8.553-0.067,12.561c-1.842,7.396-3.807,13.56-6.224,20.782c-1.073,3.24-2.434,4.342-0.659,5.817
				c1.743,1.464,4.138-2.431,5.706-5.211c3.27-5.794,6.932-20.019,16.617-25.44c3.782-2.149,10.221-2.849,11.202,2.313
				c1.761,9.269,0.111,10.17-2.477,14.094c-0.254,0.754-12.985,15.521-13.793,17.578c-0.821,2.059-0.893,3.016-0.544,3.619
				c0.266,0.449,1.49,0.586,2.702,0.223c1.182-0.359,11.641-8.474,13.593-10.213C262.06,105.357,269.151,105.155,273.124,111.35z"/>
			<path fill="#4D509B" d="M257.571,109.319c-1.952,1.739-12.411,9.854-13.593,10.213c-1.212,0.363-2.437,0.226-2.702-0.223
				c-0.349-0.604-0.277-1.56,0.544-3.619c0.808-2.057,13.539-16.823,13.793-17.578c2.588-3.923,4.237-4.825,2.477-14.094
				c-0.981-5.161-7.42-4.462-11.202-2.313c-9.686,5.422-13.348,19.646-16.617,25.44c-1.568,2.78-3.963,6.675-5.706,5.211
				c-1.774-1.475-0.414-2.577,0.659-5.817c2.417-7.223,4.382-13.386,6.224-20.782c1.005-4.008,1.525-9.011,0.067-12.561
				c-1.459-3.549-3.402-5.029-6.082-3.669c-3.358,1.72-6.39,4.611-8.31,10.769c-3.108,14.767-2.765,28.548-2.437,43.764
				c0.112,6.083-0.229,12.188-0.556,18.291c-0.145,2.92-0.94,5.768-1.041,8.681c-0.053,1.486,0.343,3.532,1.346,4.328
				c0.712,0.581,2.838-0.3,4.187-0.867c1.637-0.686,16.896-10.155,20.171-11.711c6.027-2.849,11.774-6.343,17.479-9.815
				c5.214-3.186,9.29-5.927,13.41-10.826c4.505-5.383,5.083-8.259,3.441-10.791C269.151,105.155,262.06,105.357,257.571,109.319z
				 M276.153,100.971c6.231,2.625,7.062,8.099,6.645,12.98c-0.43,4.898-5.113,10.521-8.262,14.772
				c-3.873,5.228-9.298,8.948-15.406,11.656c-4.251,1.868-8.199,4.438-12.188,6.848c-6.383,3.832-12.523,8.071-19.056,11.621
				c-6.562,3.554-12.136,8.211-17.565,13.229c-3.738,3.47-8.054,6.339-11.792,9.808c-2.614,2.418-5.093,4.922-8.6,5.749
				c-1.237,0.291-3.1-0.027-3.969-0.843c-0.744-0.698-0.862-2.617-0.529-3.765c0.487-1.644,1.439-3.233,2.537-4.571
				c5.72-7.059,9.066-15.41,12.946-23.461c2.576-5.339,3.616-11.152,4.18-17c0.399-4.178,0.552-8.379,0.567-12.575
				c0.007-3.539-0.415-7.09-0.544-10.624c-0.187-5.142,0.758-26.251,2.723-31.394c1.323-3.506,2.063-7.246,3.736-10.545
				c1.702-3.319,4.071-6.355,6.529-9.207c1.252-1.422,5.188-4.082,11.648-3.503c7.75,1.866,11.116,5.116,10.298,12.833
				c-0.484,4.434,2.047,3.813,2.717,3.606c5.346-1.589,15.556-4.71,21.971,3.653c7.099,9.267-2.851,18.343-2.988,19.675
				c-0.023,0.248,0.372,0.753,0.641,0.82C266.3,101.569,272.524,99.438,276.153,100.971z"/>
		</g>
		<g>
		</g>
	</g>
</g>
</svg>
