<?xml version="1.0" encoding="utf-8"?>
<!-- Generator: Adobe Illustrator 16.0.3, SVG Export Plug-In . SVG Version: 6.00 Build 0)  -->
<!DOCTYPE svg PUBLIC "-//W3C//DTD SVG 1.1//EN" "http://www.w3.org/Graphics/SVG/1.1/DTD/svg11.dtd">
<svg version="1.1" id="Layer_1" xmlns="http://www.w3.org/2000/svg" xmlns:xlink="http://www.w3.org/1999/xlink" x="0px" y="0px"
	 width="313.334px" height="347.167px" viewBox="0 0 313.334 347.167" enable-background="new 0 0 313.334 347.167"
	 xml:space="preserve">
<g>
	<g>
		<g id="XMLID_134_">
			<g>
				<path fill="#4D509B" d="M230.454,103.969c0.934,1.673,0.906,4.281-0.374,5.865c-4.311,5.351-11.056,8.038-17.562,10.025
					c-9.294,2.847-24.21,3.923-31.079,2.295c-0.966-0.233-2.006-0.461-2.958-0.326c-0.395,0.061-0.847,1.075-0.916,1.688
					c-0.284,2.185-0.42,4.373-0.586,6.563c-0.777,10.266-3.719,19.772-10.362,27.798c-2.458,2.966-5.184,6.102-9.255,6.857
					c-2.524,0.469-5.213-0.013-7.819,0.004c-5.934,0.061-10.999-2.719-15.294-6.062c-4.547-3.517-8.384-8.155-9.468-14.304
					c-0.527-3.067-1.599-6.092-1.682-9.166c-0.096-2.865-0.211-5.595-1.756-8.063c-0.189-0.325-0.809-0.676-1.129-0.605
					c-3.859,1.005-7.11,0.169-10.912,1.333c-4.844,1.469-9.807,1.437-14.748,1.136c-6.7-0.441-13.295-1.438-19.601-3.984
					c-3.903-1.583-7.625-2.381-10.633-5.176c-1.232-1.146-1.795-2.625-0.727-4.266c1.003-1.532,2.729-2.351,4.298-1.988
					c0.211,0.042,0.424,0.114,0.624,0.202c4.345,1.918,13.814,4.033,15.497,4.15c1.341,0.1,2.447,0.233,2.658-0.835
					c0.313-1.639-0.564-2.235-0.511-6.386c0.08-6.774,4.936-12.524,10.727-12.707c7.917-0.264,10.26,4.036,11.917,12.33
					c0.668,3.353,0.114,4.76,0.116,5.707c0.003,1.896,2.937,1.35,3.043,1.386c0.489,0.183,8.57-1.175,10.089-2.363
					c0.891-0.708,2.961-9.626,3.615-12.744c0.364-1.747,0.35-3.583,0.851-5.281c0.735-2.473,2.703-3.786,4.763-3.58
					c1.732,0.172,3.503,2.133,3.332,4.62c-0.231,3.588-1.146,7.141-1.555,10.728c-0.52,4.425-0.919,8.871-1.199,13.321
					c-0.252,3.885-0.777,7.867-0.265,11.676c0.575,4.22,1.773,8.463,3.463,12.37c2.75,6.415,8.182,8.601,15.01,8.795
					c5.241,0.158,8.289-2.086,11.254-6.129c4.54-6.184,5.824-14.002,5.974-16.013c0.404-5.319,0.881-10.645,1.092-15.963
					c0.178-4.442,0.293-8.924-0.032-13.355c-0.308-4.019-1.321-7.995-1.924-12.004c-0.293-1.991,0.695-3.151,2.697-3.489
					c0.395-0.062,0.792-0.093,1.169-0.197c2.506-0.704,3.911-0.165,4.501,2.394c0.902,4.06,1.457,8.206,2.068,12.333
					c0.262,1.786,0.144,3.632,0.505,5.38c0.175,0.889,0.359,2.814,1.133,3.227c1.315,0.709,13.079,1.515,12.975-1.824
					c-0.131-4.225-2.175-16.99,8.507-18.793c6.43-1.078,11.063,2.595,13.998,9.291c0.708,1.631,1.018,4.568,1.396,6.33
					c0.19,0.903,1.374,1.623,2.166,1.16c2.604-1.512,3.157-2.371,5.625-4.108c2.186-1.552,4.804-1.777,6.559-0.199
					C230.015,103.279,230.262,103.6,230.454,103.969z"/>
				<path fill="#F9DF00" d="M202.645,82.545c15.74-0.031,27.818,18.195,27.81,21.424c-0.192-0.37-0.439-0.69-0.728-0.949
					c-1.755-1.578-4.373-1.353-6.559,0.199c-2.468,1.738-3.021,2.597-5.625,4.108c-0.792,0.463-1.976-0.257-2.166-1.16
					c-0.378-1.762-0.688-4.699-1.396-6.33c-2.936-6.696-7.568-10.368-13.998-9.291c-10.682,1.803-8.638,14.568-8.507,18.793
					c0.104,3.339-11.659,2.533-12.975,1.824C178.501,90.816,185.114,82.586,202.645,82.545z"/>
				<path fill="#4D509B" d="M235.833,177.068c1.82,1.468,0.887,6.638-5.771,6.533c-5.561-0.088-13.358-4.617-16.296-6.352
					c-0.265-0.156-1.122,0.224-1.389,0.6c-2.43,3.319-5.84,5.296-9.564,6.689c-4.242,1.584-8.581,2.879-12.88,4.305
					c-4.531,1.488-6.921,0.865-9.229-2.431c-1.589-2.271-1.212-4.968,1.332-6.119c2.759-1.243,5.727-2.28,8.698-2.711
					c5.446-0.776,10.153-3.034,14.493-6.166c2.254-1.631,1.974-4.022,1.515-6.607c-1.029-5.826-0.625-11.501,2.766-16.689
					c1.873-2.875,6.607-3.121,8.111-0.057c0.639,1.311,0.407,3.24,0.086,4.776c-0.512,2.484-1.746,4.819-2.065,7.304
					c-0.221,1.69,0.211,3.744,1.042,5.248c3.191,5.831,8.067,9.202,14.862,9.725C233.035,175.233,234.631,176.112,235.833,177.068z"
					/>
				<path fill="#FF98B5" d="M59.078,108.567c4.836-11.554,9.41-23.234,14.86-34.511c2.783-5.747,12.293-21.629,14.728-25.245
					c0.689-1.018,2.994-4.786,6.675-4.859c3.165-0.061,8.827,4.995,11.292,5.642c8.006,2.144,13.533-1.143,19.547-5.756
					c1.716-1.322,4.247-1.895,6.234-0.929c2.759,1.349,5.582,2.574,8.461,3.573c2.558,0.876,5.175,0.637,7.668-0.599
					c2.62-1.306,7.256-5.187,10.051-5.603c8.491-1.228,9.046,6.813,15.946,6.246c3.899-0.312,10.316-3.032,13.594-5.383
					c1.777-1.283,3.652-0.989,5.39-0.195c3.671,1.646,7.779,2.087,11.635,1.231c2.459-0.552,3.846,2.343,5.58,3.655
					c5.454,4.125,15.023,3.226,17.743,4.651c7.345,3.87,12.981,16.006,14.45,19.739c2.737,6.993,5.731,13.876,8.44,20.887
					c1.288,3.333,4.292,17.176,5.199,20.554c4.688,17.663,4.685,43.89,4.487,44.943c-0.62,3.175-1.21,6.347-1.904,9.512
					c-0.343,1.643-0.896,3.227-1.33,4.846c-0.849,3.267-1.563,6.553-2.55,9.771c-1.503,4.903-3.219,9.735-4.768,14.628
					c-2.01,6.337-4.428,12.572-8.294,17.932c-5.878,8.157-18.122,23.369-34.007,26.581c-6.048,1.225-12.131,0.897-18.101,0.694
					c-11.184-0.394-37.269,0.644-47.74,3.955c-12.956,4.103-13.349,8.251-26.366,4.747c-11.124-2.989-18.517-3.212-28.811-11.732
					c-0.55-0.4-1.087-0.816-1.612-1.264c-12.482-10.522-20.884-23.711-26.21-38.997c-0.44-1.239-1.979-4.744-4.122-15.413
					c-0.417-2.069-0.777-4.158-1.165-6.23c-0.118,0.01-1.321-11.875-1.753-17.823c-0.611-8.556-0.122-17.065,0.882-25.602
					C54.171,124.051,55.893,116.138,59.078,108.567z M122.05,115.077c-2.248-23.826-20.812-27.612-28.847-26.613
					c-8.036,0.999-12.927,3.908-17.612,9.94c-1.772,2.274-6.622,11.815-7.699,15.188c-1.569-0.363-3.295,0.457-4.298,1.988
					c-1.068,1.641-0.505,3.121,0.727,4.266c3.008,2.795,6.73,3.593,10.633,5.176c6.306,2.546,12.901,3.543,19.601,3.984
					c4.941,0.301,9.904,0.333,14.748-1.136c3.802-1.163,7.053-0.328,10.912-1.333c0.32-0.07,0.94,0.28,1.129,0.605
					c1.545,2.468,1.66,5.199,1.756,8.063c0.083,3.074,1.155,6.099,1.682,9.166c1.084,6.148,4.921,10.787,9.468,14.304
					c4.296,3.343,9.361,6.122,15.294,6.062c2.605-0.017,5.294,0.465,7.819-0.004c4.071-0.756,6.797-3.892,9.255-6.857
					c6.644-8.025,9.585-17.532,10.362-27.798c0.166-2.19,0.302-4.378,0.586-6.563c0.069-0.613,0.521-1.626,0.916-1.688
					c0.952-0.136,1.992,0.092,2.958,0.326c6.869,1.627,21.785,0.551,31.079-2.295c6.506-1.987,13.251-4.674,17.562-10.025
					c1.28-1.583,1.308-4.192,0.374-5.865c0.009-3.229-12.069-21.455-27.81-21.424c-17.53,0.041-24.144,8.271-24.143,28.62
					c-0.773-0.412-0.958-2.337-1.133-3.227c-0.361-1.748-0.243-3.594-0.505-5.38c-0.611-4.127-1.166-8.274-2.068-12.333
					c-0.59-2.559-1.995-3.098-4.501-2.394c-0.377,0.104-0.774,0.136-1.169,0.197c-2.002,0.338-2.99,1.498-2.697,3.489
					c0.603,4.009,1.616,7.986,1.924,12.004c0.325,4.432,0.21,8.913,0.032,13.355c-0.211,5.319-0.688,10.644-1.092,15.963
					c-0.149,2.011-1.434,9.83-5.974,16.013c-2.965,4.043-6.013,6.287-11.254,6.129c-6.828-0.194-12.26-2.38-15.01-8.795
					c-1.69-3.907-2.889-8.15-3.463-12.37c-0.513-3.809,0.013-7.791,0.265-11.676c0.28-4.451,0.68-8.896,1.199-13.321
					c0.409-3.587,1.324-7.14,1.555-10.728c0.171-2.487-1.6-4.448-3.332-4.62c-2.06-0.206-4.028,1.107-4.763,3.58
					c-0.501,1.699-0.487,3.534-0.851,5.281C125.011,105.451,122.941,114.369,122.05,115.077z M230.063,183.601
					c6.657,0.104,7.591-5.065,5.771-6.533c-1.202-0.956-2.798-1.835-4.288-1.952c-6.795-0.522-11.671-3.894-14.862-9.725
					c-0.831-1.504-1.263-3.558-1.042-5.248c0.319-2.484,1.554-4.819,2.065-7.304c0.321-1.536,0.553-3.466-0.086-4.776
					c-1.504-3.064-6.238-2.818-8.111,0.057c-3.391,5.188-3.795,10.863-2.766,16.689c0.459,2.585,0.739,4.977-1.515,6.607
					c-4.34,3.132-9.047,5.39-14.493,6.166c-2.972,0.431-5.939,1.468-8.698,2.711c-2.544,1.151-2.921,3.848-1.332,6.119
					c2.308,3.296,4.697,3.919,9.229,2.431c4.299-1.426,8.638-2.721,12.88-4.305c3.725-1.394,7.135-3.37,9.564-6.689
					c0.267-0.376,1.124-0.756,1.389-0.6C216.704,178.984,224.502,183.513,230.063,183.601z M130.157,190.993
					c1.222-2.497,0.42-5.113-2.274-5.83c-2.921-0.788-6.017-1.355-9.033-1.291c-5.486,0.099-10.508-1.396-15.276-3.798
					c-2.485-1.252-2.603-3.656-2.56-6.267c0.089-5.916-1.2-11.47-5.388-16.052c-2.305-2.525-7.003-2.016-8,1.248
					c-0.421,1.396,0.113,3.264,0.675,4.729c0.899,2.356,2.491,4.48,3.186,6.868c0.488,1.649,0.388,3.73-0.178,5.36
					c-2.225,6.25-6.502,10.354-13.142,11.952c-1.453,0.354-2.887,1.49-3.922,2.624c-1.564,1.739,0.194,6.679,6.736,5.518
					c5.49-0.973,12.454-6.669,15.078-8.849c0.251-0.197,1.159,0.041,1.465,0.356c2.942,2.904,6.61,4.313,10.508,5.098
					c4.439,0.889,8.944,1.476,13.414,2.184C126.158,195.608,128.402,194.599,130.157,190.993z"/>
				<path fill="#FF2184" d="M73.938,74.057c-5.451,11.277-10.024,22.957-14.86,34.511c-3.185,7.571-4.906,15.483-5.867,23.646
					c-1.004,8.537-1.493,17.046-0.882,25.602c0.432,5.948,1.635,17.833,1.753,17.823c0.388,2.072,0.748,4.161,1.165,6.23
					c2.143,10.669,3.682,14.174,4.122,15.413c5.326,15.286,13.728,28.475,26.21,38.997c0.524,0.447,1.062,0.863,1.612,1.264
					c10.293,8.521,17.687,8.743,28.811,11.732c13.017,3.504,13.41-0.645,26.366-4.747c10.472-3.312,36.557-4.349,47.74-3.955
					c5.97,0.203,12.053,0.53,18.101-0.694c15.885-3.212,28.129-18.424,34.007-26.581c3.866-5.359,6.284-11.595,8.294-17.932
					c1.549-4.893,3.265-9.725,4.768-14.628c0.986-3.219,1.701-6.505,2.55-9.771c0.434-1.619,0.987-3.203,1.33-4.846
					c0.694-3.165,1.284-6.337,1.904-9.512c0.197-1.053,0.2-27.28-4.487-44.943c-0.907-3.378-3.911-17.221-5.199-20.554
					c-2.709-7.01-5.703-13.894-8.44-20.887c-1.469-3.733-7.105-15.87-14.45-19.739c-2.72-1.426-12.289-0.527-17.743-4.651
					c-1.734-1.313-3.121-4.208-5.58-3.655c-3.855,0.856-7.964,0.416-11.635-1.231c-1.737-0.794-3.612-1.088-5.39,0.195
					c-3.277,2.351-9.694,5.071-13.594,5.383c-6.9,0.567-7.455-7.474-15.946-6.246c-2.795,0.416-7.431,4.297-10.051,5.603
					c-2.493,1.236-5.11,1.475-7.668,0.599c-2.879-0.999-5.702-2.224-8.461-3.573c-1.988-0.966-4.519-0.394-6.234,0.929
					c-6.014,4.613-11.541,7.899-19.547,5.756c-2.465-0.646-8.127-5.703-11.292-5.642c-3.682,0.073-5.986,3.841-6.675,4.859
					C86.231,52.428,76.721,68.31,73.938,74.057z M102.161,28.687c-2.095,4.359-0.246,9.143,4.265,11.091
					c6.581,2.85,17.456-0.42,17.796-7.822c0.273-6.02-4.202-6.239-3.968-12.937c0.187-5.805,2.003-10.497,9.592-13
					c3.03-0.998,7.416,1.065,8.76,4.912c1.479,4.221,1.361,8.495,0.024,12.69c-0.816,2.568-2.011,5.033-3.115,7.521
					c-1.082,2.397-0.744,4.028,1.76,4.968c8.936,3.402,11.831,0.164,14.309-2.745c0.5-0.588,1.063-1.892,1.058-2.884
					c-0.012-3.287-1.895-7.016-1.77-10.27c0.146-4.099,3.648-9.918,9.69-9.01c8.995,1.368,7.354,9.556,4.975,17.373
					c-0.305,1.002-1.277,4.397,2.532,7.395c8.091,6.357,16.141-1.129,15.814-4.095c-0.327-2.965-3.19-6.734-3.342-9.358
					c-0.212-3.582,2.979-8.665,7.502-9.708c2.442-0.566,5.445,0.319,7.418,2.945c2.803,3.745,4.24,7.821,2.411,12.543
					c-0.526,1.375-1.046,2.838-1.122,4.295c-0.089,1.666,4.335,3.459,5.689,2.062c5.954-6.089,1.152-9.644,1.651-13.224
					c0.368-2.606,3.2-11.082,10.017-10.28c7.999,0.944,7.539,11.851,5.492,15.688c-1.814,3.418-5.517,6.75-5.46,10.241
					c0.027,1.819,0.592,2.574,1.572,2.984c1.425,0.597,6.854,2.932,10.193,1.716c1.222-0.453,2.34-2.394,2.696-4.051
					c0.747-3.244-3.463-6.254-0.21-14.274c0.878-2.173,3.186-4.787,5.337-5.848c2.833-1.426,5.877-0.219,7.268,2.351
					c1.93,3.577,2.289,7.873,1.174,11.517c-1.153,3.721-4.285,4.934-5.636,8.596c-0.219,0.595-1.847,3.199-0.558,5.243
					c2.598,4.146,5.038,6.883,7.834,10.91c6.877,9.875,11.358,20.89,15.278,32.127c2.459,7.03,4.271,14.319,6.022,21.569
					c1.068,4.476,4.322,34.204,4.36,38.377c0.024,2.887,0.153,5.794-0.031,8.666c-0.218,3.572-0.356,7.212-1.175,10.669
					c-2.934,12.57-6.986,24.831-11.696,36.849c-2.779,7.095-6.865,13.404-11.548,19.466c-5.92,7.642-8.716,12.486-19.604,20.022
					c-11.684,6.489-21.061,6.825-31.702,7.825c-6.32,0.595-12.925,0.798-19.085,2.461c-7.844,2.108-15.54,4.754-23.423,6.732
					c-5.647,1.415-12.349,3.729-18.203,2.376c-5.522-1.276-14.977-1.171-31.812-7.968c-4.025-1.633-17.923-7.821-23.404-13.38
					c-5.353-5.451-9.377-12.06-13.941-18.195c-1.792-2.404-3.362-5.003-4.803-7.643c-1.694-3.033-3.148-6.205-4.686-9.325
					c-0.355-0.741-3.14-6.472-6.002-13.559c-0.498-1.219-3.374-14.584-3.627-20.146c-0.073-1.653-0.514-3.276-0.721-4.934
					c-0.344-2.815-0.077-18.342-0.126-18.96c0.298-2.749-0.135-15.184,0.719-18.955c0.326-1.478,1.053-5.534,1.11-6.116
					c0.351-3.02,0.364-6.175,1.292-9.019c1.856-5.672,2.579-10.336,4.664-15.923c1.464-3.908,16.041-41.033,32.833-60.489
					c3.267-3.771,7.39-4.99,7.916-11c0.256-2.908-2.332-5.441-2.869-8.271c-1.186-6.303,2.022-10.81,6.819-14.348
					c3.258-2.408,6.78-0.78,7.937,3.126c1.278,4.311,1.801,8.623,0.741,12.958C104.404,23.783,103.3,26.271,102.161,28.687z"/>
				<path fill="#4D509B" d="M127.883,185.163c2.694,0.717,3.496,3.333,2.274,5.83c-1.755,3.606-4,4.615-8.711,3.852
					c-4.47-0.708-8.975-1.295-13.414-2.184c-3.898-0.784-7.566-2.193-10.508-5.098c-0.307-0.315-1.214-0.554-1.465-0.356
					c-2.625,2.18-9.588,7.876-15.078,8.849c-6.542,1.161-8.3-3.778-6.736-5.518c1.035-1.134,2.469-2.271,3.922-2.624
					c6.64-1.598,10.917-5.702,13.142-11.952c0.565-1.63,0.666-3.711,0.178-5.36c-0.694-2.388-2.286-4.512-3.186-6.868
					c-0.562-1.466-1.096-3.333-0.675-4.729c0.997-3.264,5.695-3.773,8-1.248c4.188,4.582,5.477,10.136,5.388,16.052
					c-0.043,2.61,0.075,5.015,2.56,6.267c4.769,2.402,9.79,3.896,15.276,3.798C121.866,183.807,124.962,184.375,127.883,185.163z"/>
				<path fill="#F9DF00" d="M93.203,88.464c8.036-0.999,26.599,2.787,28.847,26.613c-1.519,1.188-9.6,2.545-10.089,2.363
					c-0.106-0.036-3.04,0.51-3.043-1.386c-0.002-0.947,0.552-2.354-0.116-5.707c-1.656-8.294-4-12.594-11.917-12.33
					c-5.791,0.182-10.647,5.932-10.727,12.707c-0.053,4.151,0.824,4.747,0.511,6.386c-0.211,1.068-1.317,0.935-2.658,0.835
					c-1.683-0.117-11.152-2.232-15.497-4.15c-0.2-0.088-0.413-0.16-0.624-0.202c1.078-3.374,5.927-12.914,7.699-15.188
					C80.276,92.372,85.167,89.462,93.203,88.464z"/>
			</g>
			<g>
			</g>
		</g>
	</g>
	<g id="XMLID_133_">
		<g>
			<path fill="#4D509B" d="M202.725,282.375c2.545,5.249,0.436,12.258-4.427,15.437c-1.52,0.989-2.573,2.698-4.095,3.655
				c-2.411,1.516-4.923,3.078-7.605,3.917c-5.575,1.742-11.179,3.395-15.945,6.867c-3.629,2.646-7.585,5.073-10.438,8.545
				c-5.562,6.766-4.829,17.486-5.698,22.653c0,0-0.162,3.065-2.869,0.229c-2.7-2.835-8.951-11.082-12.725-15.753
				c-1.737-2.143-8.038-9.695-9.476-12.053c-2.401-3.945-4.64-8.002-6.668-12.147c-5.215-10.678-6.538-16.932-6.962-19.522
				c-1.354-8.277-1.032-10.335-0.941-12.408c0.227-5.214,6.903-12.608,6.254-15.536c-0.034-0.175-0.296-10.44,0.009-14.352
				c0.196-2.562,0.943-5.226,1.306-7.754c0.769-5.429,4.198-9.018,8.699-11.779c2.532-1.558,5.063-3.128,7.462-4.879
				c0.634-0.458,1.075-1.77,1.058-2.393c-0.204-6.489-1.522-15.894-1.464-16.728c0.226-2.853,2.551-12.497,11.639-13.757
				c1.184-0.167,11.501-0.27,14.592,0.298c7.036,1.305,10.353,6.249,11.169,7.577c2.353,3.837,1.917,7.022,1.803,10.188
				c-0.163,4.538-0.709,9.062-0.865,13.599c-0.109,3.061,0.92,5.319,4.265,6.604c7.512,2.878,10.039,9.562,11.716,16.701
				c0.8,3.409,2.436,5.448,2.897,8.91c0.466,3.515,0.477,4.23,1.002,6.359c0.532,2.128-0.984,5.031-0.817,5.229
				c2.206,2.75,3.994,5.771,4.484,9.27c0.268,1.952-0.271,4.014-0.438,6.033c-0.031,0.352-0.13,0.767,0.011,1.045
				C200.652,278.424,201.748,280.369,202.725,282.375z M190.713,293.111c2.329-2.041,5.977-4.135,5.57-7.075
				c-0.225-1.646-0.152-6.092-3.91-5.626c-2.449,0.301-7.84,3.048-10.057,4.271c-3.156,1.738-8.401,2.6-7.9-1.085
				c0.351-2.6,1.872-3.807,3.908-4.824c3.566-1.785,7.021-3.818,10.676-5.406c4.944-2.158,3.485-7.98-2.174-6.535
				c-3.139,0.798-5.746,1.921-8.842,2.853c-5.215,1.568-15.791,3.862-16.424,2.288c-0.632-1.567,1.124-3.214,3.248-4.035
				c5.856-2.271,12.083-3.94,15.075-5.745c6.506-3.935,7.601-4.963,6.527-10.73c-0.332-1.763-0.698-4.37-3.515-4.632
				c-2.816-0.268-7.025,0.069-10.501,0.439c-2.778,0.295-31.538,6.649-36.886,9.274c-6.1,3.001-10.453,7.532-11.954,14.006
				c-0.979,4.209-0.396,8.779-0.493,12.168c0.602,3.496,0.815,5.992,1.503,8.344c0.552,1.883,7.699,16.721,11.47,21.681
				c2.933,3.85,7.829,13.251,12.151,15.733c0.303,0.166,1.052,0.08,1.244-0.159c3.067-3.836,0.748-11.28,7.256-17.148
				c2.914-2.627,13.5-8.243,15.726-9.033c1.317-0.467,2.517-1.267,3.831-1.773C181.305,298.422,186.483,296.811,190.713,293.111z
				 M179.95,237.547c2.817,0.031,2.987-0.317,1.805-2.927c-0.329-0.736-0.785-1.43-1.266-2.089
				c-1.885-2.591-4.777-3.228-7.659-3.898c-3.404-0.786-5.169-3.532-4.878-6.963c0.314-3.629,0.436-7.282,0.435-10.92
				c-0.006-2.531-0.34-10.403-0.541-11.763c-0.491-3.42-3.326-4.416-6.058-4.763c-3.143-0.4-6.39-0.212-9.577-0.01
				c-3.167,0.207-5.519,2.454-5.722,5.51c-0.159,2.446-0.064,4.95,0.269,7.384c0.639,4.697,1.59,9.351,2.281,14.037
				c0.274,1.859-0.528,3.43-2.298,4.242c-1.009,0.462-8.086,3.574-10.518,4.913c-2.262,1.24-5.001,3.669-5.279,6.191
				c-0.224,1.971-0.291,9.1-0.199,9.914c0.22,1.923,3.152,0.023,4.629-0.509c0.256-0.086,7.288-2.465,10.617-3.191
				c4.42-0.979,8.963-1.415,13.394-2.349C166.177,238.933,172.945,237.464,179.95,237.547z"/>
			<path fill="#FF98B5" d="M196.283,286.036c0.406,2.94-3.241,5.034-5.57,7.075c-4.229,3.7-9.408,5.312-14.468,7.249
				c-1.314,0.507-2.514,1.307-3.831,1.773c-2.226,0.79-12.813,6.406-15.726,9.033c-6.509,5.868-4.189,13.313-7.256,17.148
				c-0.191,0.239-0.941,0.325-1.244,0.159c-4.322-2.482-9.219-11.884-12.151-15.733c-3.771-4.96-10.918-19.798-11.47-21.681
				c-0.688-2.352-0.901-4.848-1.503-8.344c0.097-3.389-0.486-7.959,0.493-12.168c1.5-6.474,5.854-11.005,11.954-14.006
				c5.348-2.625,34.107-8.979,36.886-9.274c3.476-0.37,7.685-0.707,10.501-0.439c2.816,0.262,3.183,2.869,3.515,4.632
				c1.073,5.768-0.021,6.796-6.527,10.73c-2.992,1.805-9.219,3.475-15.075,5.745c-2.124,0.821-3.88,2.468-3.248,4.035
				c0.633,1.574,11.209-0.72,16.424-2.288c3.096-0.932,5.703-2.055,8.842-2.853c5.659-1.445,7.118,4.377,2.174,6.535
				c-3.654,1.588-7.109,3.621-10.676,5.406c-2.036,1.018-3.558,2.225-3.908,4.824c-0.501,3.685,4.744,2.823,7.9,1.085
				c2.217-1.224,7.607-3.971,10.057-4.271C196.131,279.944,196.059,284.389,196.283,286.036z"/>
			<path fill="#F9DF00" d="M181.755,234.621c1.183,2.609,1.013,2.958-1.805,2.927c-7.005-0.083-13.773,1.386-20.565,2.811
				c-4.431,0.934-8.973,1.37-13.394,2.349c-3.329,0.727-10.36,3.105-10.617,3.191c-1.477,0.532-4.409,2.432-4.629,0.509
				c-0.091-0.814-0.024-7.943,0.199-9.914c0.278-2.522,3.018-4.951,5.279-6.191c2.432-1.339,9.509-4.451,10.518-4.913
				c1.77-0.813,2.572-2.383,2.298-4.242c-0.691-4.687-1.642-9.34-2.281-14.037c-0.333-2.434-0.428-4.938-0.269-7.384
				c0.203-3.056,2.555-5.303,5.722-5.51c3.187-0.202,6.434-0.391,9.577,0.01c2.731,0.347,5.566,1.343,6.058,4.763
				c0.201,1.359,0.535,9.231,0.541,11.763c0.001,3.638-0.12,7.291-0.435,10.92c-0.291,3.431,1.474,6.177,4.878,6.963
				c2.882,0.671,5.774,1.308,7.659,3.898C180.97,233.191,181.426,233.884,181.755,234.621z"/>
		</g>
		<g>
		</g>
	</g>
</g>
</svg>
