<?xml version="1.0" encoding="utf-8"?>
<!-- Generator: Adobe Illustrator 16.0.3, SVG Export Plug-In . SVG Version: 6.00 Build 0)  -->
<!DOCTYPE svg PUBLIC "-//W3C//DTD SVG 1.1//EN" "http://www.w3.org/Graphics/SVG/1.1/DTD/svg11.dtd">
<svg version="1.1" id="Layer_1" xmlns="http://www.w3.org/2000/svg" xmlns:xlink="http://www.w3.org/1999/xlink" x="0px" y="0px"
	 width="286.896px" height="243.822px" viewBox="0 0 286.896 243.822" enable-background="new 0 0 286.896 243.822"
	 xml:space="preserve">
<g>
	<g id="XMLID_2_">
		<g>
			<path fill="#FF2184" d="M223.487,109.351c0.104,8.387,0.415,16.926-0.259,25.308c-0.662,8.15-4.299,16.5-6.86,24.186
				c-2.92,8.762-9.479,28.725-10.207,30.19c-1.591,3.348-2.595,7.05-4.524,10.174c-3.406,5.494-7.52,10.438-12.108,15.055
				c-5.068,5.086-10.547,9.47-17.048,12.512c-5.474,2.568-10.966,5.217-16.628,7.341c-4.638,1.728-9.538,2.822-14.35,3.996
				c-3.783,0.914-7.644,1.824-11.506,2.201c-7.14,0.697-14.243,2.364-21.573,1.168c-3.047-0.491-6.278,0.34-9.371,0.054
				c-4.655-0.436-9.318-1.129-13.906-2.032c-6.409-1.257-12.493-3.508-18.316-6.561c-3.738-1.96-7.954-3.132-11.438-5.435
				c-4.416-2.926-8.28-6.651-12.413-10.031c-0.401-0.337-0.895-0.584-1.334-0.869c-8-4.879-13.666-11.996-18.881-19.576
				c-2.859-4.149-4.619-8.691-6.15-13.45c-1.241-3.826-2.845-7.537-4.206-11.345c-1.258-3.534-2.799-7.025-3.51-10.672
				c-0.894-4.365-0.989-8.896-1.512-13.332c-0.167-1.226-0.855-11.478-0.829-15.401c0-2.455-0.061-4.916,0.14-7.355
				c0.329-4.243,0.543-8.545,1.404-12.699c0.903-4.283,2.538-8.46,3.846-12.681c0.561-1.868,1.042-3.754,1.665-5.616
				c0.493-1.507,6.641-20.234,10.073-26.479c0.984-1.793,5.131-11.53,10.198-17.546c2.292-2.736,4.696-5.335,7.093-7.979
				c1.348-1.497,2.799-2.918,4.127-4.442c0.911-1.051,22.878-21.493,23.835-22.336c1.544-1.404,2.855-3.048,4.523-4.242
				c2.553-1.905,5.215-3.689,8.026-5.19c2.061-1.115,7.233-4.172,12.874-3.365c2.362,0.808,4.308,3.431,6.136,4.958
				c2.626,2.171,4.973,1.852,7.637,0.693c6.422-2.755,6.949-3.414,14.677-1.087c3.336,0.998,6.588,2.969,8.313,6.464
				c0.54,1.063,0.972,2.127,1.497,3.193c0.082,0.141,0.481,0.264,0.656,0.208c5.03-1.557,10.197-2.083,15.227-0.467
				c4.373,1.408,8.266,3.894,11.293,7.53c0.356,0.45,1.118,0.855,1.645,0.807c3.083-0.291,6-0.573,9.245-1.208
				c6.585-1.453,11.654,5.966,12.437,6.917c0.389,0.46,0.947,1.033,1.47,1.062c1.033,0.075,2.06,0.105,3.083,0.121
				c3.962,0.386,8.623,1.782,8.629,1.826c13.009,5.841,15.827,19.238,20.81,29.964C223.643,77.928,223.246,94.107,223.487,109.351z
				 M216.047,112.64c-0.128-13.05,1.303-29.459-4.02-41.645c-3.116-7.207-6.843-14.109-10.347-21.152
				c-2.815-5.696-8.218-9.513-12.336-9.006c-4.125,0.462-2.411,3.577-2.465,5.262c-0.078,2.345-0.796,7.972-2.15,10.553
				c-2.225,4.723-5.585,6.017-11.886,4.773c-2.454-0.504-4.437-2.45-4.511-4.895c-0.111-3.308,0.648-6.501,2.462-9.379
				c1.38-2.203,2.792-4.396,4.2-6.619c1.086-1.717,1.438-3.447,0.167-5.225c-1.469-2.084-3.344-1.667-5.327-0.854
				c-2.73,1.124-4.708,2.485-5.189,5.912c-0.461,3.256-4.416,9.365-9.18,10.761c-3.386,2.151-8.187,0.837-9.506-2.901
				c-1.052-2.97,0.152-5.635,1.817-7.972c1.367-1.881,2.97-3.614,4.594-5.305c1.785-1.836,2.467-3.92,1.632-5.84
				c-1.285-2.996-7.902-6.982-16.024-3.867c-2.221,0.651-0.801,4.145-0.956,6.181c-0.388,5.075-2.56,11.895-8.739,13.821
				c-1.093,0.346-5.52-0.505-6.524-0.798c-3.225-0.969-2.909-1-3.099-4.22c-0.186-3.297,1.548-5.583,3.084-8.069
				c1.082-1.747,2.162-3.509,3.175-5.307c1.685-3.026,0.695-6.188-0.466-8.867c-1.302-3.009-4.85-3.898-8.444-2.327
				c-2.219,0.971-4.334,2.643-5.975,4.428c-1.034,1.145-1.649,3.158-1.61,4.753c0.236,6.096-4.61,14.412-10.303,16.327
				c-1.961,0.658-4.374,0.224-6.537-0.064c-5.22-1.77-3.354-7.263-0.451-11.325c2.271-2.977,4.465-6.063,6.908-8.913
				c3.909-4.166-3.289-8.981-8.671-8.667c-5.96,2.168-11.792,5.507-15.559,10.323c-4.097,5.261-9.183,9.206-13.802,13.721
				C37.762,58.173,34.91,68.617,32.936,71.854c-3.392,5.69-6.327,11.586-8.688,17.748c-1.304,3.427-2.027,7.073-3.15,10.595
				c-2.211,7.07-3.856,14.253-4.382,21.682c-0.131,1.987-0.904,10.52-0.648,12.754c0.65,6.415,1.392,12.831,2.295,19.209
				c0.617,4.452,1.158,9.008,2.54,13.271c2.021,6.195,4.667,12.191,7.179,18.207c3.912,9.376,10.429,16.687,18.325,22.907
				c3.076,2.425,6.009,5.022,9.125,7.41c5.379,4.171,11.77,6.331,17.878,9.051c2.515,1.12,4.911,2.563,7.511,3.335
				c4.338,1.275,8.775,2.399,13.255,3.09c3.933,0.604,8.012,0.652,12.001,0.714c3.394,0.059,6.809-0.053,10.171-0.416
				c5.287-0.543,10.619-1.093,15.829-2.158c12.385-2.546,30.707-4.343,47.355-18.717c7.984-6.907,10.023-13.188,13.871-18.275
				c2.081-2.72,3.482-6.009,5.002-9.117c0.464-0.984,1.107-5.06,4.875-12.225c3.753-7.161,2.919-5.391,5.48-13.076
				c2.425-7.27,6.293-15.501,6.913-23.219C216.267,127.338,216.128,119.948,216.047,112.64z"/>
			<path fill="#4D509B" d="M191.904,133.832c-0.015,0.002-0.015,0.002-0.015,0.002c-0.126-0.026-0.268-0.052-0.408-0.076
				c-2.753-0.566-2.621-12.176-1.965-14.53c0.58-2.146,1.419-11.878-2.191-11.233c-2.796,0.477-6.033,8.233-8.765,10.271
				c-7.537,5.605-20.283,6.345-23.338-4.44c-1.309-4.594-1.526-11.485,0.998-15.734c0.56-0.953-0.397-1.847-1.325-1.526
				c-3.106,1.057-5.212,3.612-7.277,6.024c-3.807,4.44-4.368,9.587-6.96,14.502c-1.439,2.73-3.749,3.09-5.434,2.121
				c-1.864-1.049-2.956-3.769-1.134-6.694c3.14-5.027,4.563-11.141,8.609-15.617c2.916-3.255,7.624-6.869,11.823-8.577
				c7.683-3.096,12.176-4.054,16.835-3.696c4.908,0.398,11.623,2.067,15.228,5.587c9.946,9.652,11.376,21.304,11.071,34.418
				C197.572,127.652,197.009,134.522,191.904,133.832z"/>
			<path fill="#4D509B" d="M181.76,136.883c2.449,2.319,4.216,5.991,4.13,9.404c-0.369,12.377-6.439,21.592-15.644,29.321
				c-7.618,6.396-16.025,11.384-25.229,14.813c-3.497,1.299-31.711,7.329-38.175,7.452c-5.352,0.11-10.793-0.695-16.042-1.836
				c-9.174-2.005-18.261-4.449-27.329-6.973c-6.921-1.928-13.704-4.258-20.542-6.457c-3.315-1.063-4.791-3.191-4.183-5.661
				c0.704-2.85,3.629-4.611,6.858-3.918c2.048,0.442,9.172,2.706,10.707,3.179c2.107,0.632,4.124,1.476,6.178,2.161
				c2.999,0.987,5.974,2.023,9.006,2.822c3.57,0.933,7.232,1.562,10.815,2.478c2.156,0.548,23.703,6.276,39.575-0.509
				c6.644-3.414,7.489-5.522,11.585-12.629c3.617-6.333,7.398-12.584,11.486-18.622c2.95-4.358,6.045-8.876,9.969-12.327
				C160.039,135.115,174.386,129.974,181.76,136.883z M177.507,146.117c-0.481-3.131-1.589-4.323-3.939-4.645
				c-5.491-0.723-10.204,1.626-13.673,5.269c-3.714,3.938-6.416,8.84-9.407,13.433c-1.689,2.585-2.954,5.457-4.642,8.057
				c-2.887,4.472-5.934,8.799-8.907,13.206c-0.135,0.219-0.137,0.615-0.042,0.845c0.069,0.158,0.578,0.296,0.671,0.205
				c2.419-0.756,6.512-1.839,11.528-8.304c3.659-4.205,12.838-20.303,15.003-23.584c1.441-2.197,5.693,0.037,4.545,2.465
				c-1.595,11.004-13.071,21.908-12.408,21.855c0.65-0.036,0.468,0.067,0.65-0.036c1.076-0.557,3.244-1.978,4.185-2.728
				c3.043-2.404,6.042-4.895,8.974-7.436C176.033,159.573,177.139,152.562,177.507,146.117z"/>
			<path fill="#F9DF00" d="M191.889,133.834c-4.183,0.897-13.184-1.788-16.378-2.35c-7.344-1.286-22.808-4.87-22.808-4.87
				s-7.687-1.952-17.458-7.359c-0.002-0.015-0.02-0.028-0.021-0.042c1.685,0.969,3.995,0.61,5.434-2.121
				c2.593-4.915,3.153-10.062,6.96-14.502c2.065-2.412,4.171-4.967,7.277-6.024c0.928-0.321,1.885,0.573,1.325,1.526
				c-2.524,4.25-2.307,11.141-0.998,15.734c3.055,10.785,15.801,10.045,23.338,4.44c2.731-2.038,5.969-9.794,8.765-10.271
				c3.61-0.645,2.771,9.088,2.191,11.233c-0.656,2.354-0.788,13.964,1.965,14.53C191.622,133.782,191.763,133.808,191.889,133.834z"
				/>
			<path fill="#FF98B5" d="M181.76,136.883c-7.373-6.909-21.721-1.769-26.835,2.698c-3.924,3.451-7.019,7.969-9.969,12.327
				c-4.088,6.038-7.869,12.289-11.486,18.622c-4.097,7.106-4.941,9.215-11.585,12.629c-15.872,6.785-37.419,1.057-39.575,0.509
				c-3.583-0.916-7.245-1.545-10.815-2.478c-3.032-0.799-6.007-1.835-9.006-2.822c-2.054-0.686-4.071-1.529-6.178-2.161
				c-1.535-0.473-8.658-2.736-10.707-3.179c-3.229-0.693-6.154,1.068-6.858,3.918c-0.608,2.47,0.868,4.599,4.183,5.661
				c6.839,2.199,13.622,4.529,20.542,6.457c9.068,2.523,18.155,4.968,27.329,6.973c5.248,1.141,10.69,1.946,16.042,1.836
				c6.463-0.123,34.678-6.153,38.175-7.452c9.204-3.429,17.611-8.417,25.229-14.813c9.204-7.729,15.274-16.944,15.644-29.321
				C185.975,142.874,184.209,139.202,181.76,136.883z M132.095,108.957c0.377-1.154,1.792-9.371-2.165-7.166
				c-0.028,0.02-0.07,0.041-0.125,0.08c-0.042,0.021-0.083,0.058-0.125,0.08c-0.042,0.021-0.083,0.058-0.125,0.08
				c-0.028,0.02-0.07,0.041-0.113,0.063c-0.013,0.017-0.028,0.02-0.028,0.02c-0.013,0.017-0.013,0.017-0.013,0.017
				c-0.042,0.021-0.085,0.043-0.14,0.082c-0.083,0.058-0.151,0.114-0.236,0.157c-6.06,4.166-6.544,9.103-8.704,15.905
				c-2.616,8.244-6.306,15.93-11.596,22.802c-3.738,4.902-7.355,10.107-12.843,13.197c-6.132,3.475-15.368,1.357-16.587-6.833
				c-0.982-6.595,7.542-17.045,11.219-22.06c5.423-7.411,8.183-15.508,11.917-23.826c1.872-4.229,3.82-8.453,5.691-12.681
				c1.343-3.067,5.065-8.486,2.942-11.784c-1.64-2.516-5.53-3.752-8.104-1.889c-2.245,1.615-2.781,6.621-3.494,9.106
				c-1.748,6.085-2.636,12.104-4.923,18.148c-1.153,3.008-8.68,15.658-11.044,19.029c-4.222,6.057-8.449,12.39-11.704,19.112
				c-4.065,8.444,1.748,15.219,7.329,20.854c5.803,5.892,14.26,3.184,20.556,0.096c6.794-3.329,13.099-10.765,17.301-16.956
				c5.207-7.638,8.7-16.545,12.126-25.077C130.489,116.09,130.988,112.477,132.095,108.957z M134.09,112.519
				c-1.822,2.925-0.73,5.645,1.134,6.694c0.002,0.015,0.019,0.027,0.021,0.042c9.772,5.407,17.458,7.359,17.458,7.359
				s15.464,3.584,22.808,4.87c3.194,0.562,12.195,3.247,16.378,2.35c0,0,0,0,0.015-0.002c5.104,0.689,5.668-6.181,5.752-9.198
				c0.305-13.114-1.125-24.766-11.071-34.418c-3.604-3.52-10.319-5.189-15.228-5.587c-4.659-0.358-9.152,0.6-16.835,3.696
				c-4.199,1.708-8.907,5.322-11.823,8.577C138.653,101.378,137.23,107.491,134.09,112.519z M128.439,102.731
				c0.043-0.021,0.085-0.043,0.141-0.082C128.524,102.688,128.482,102.709,128.439,102.731z M212.027,70.995
				c5.322,12.186,3.892,28.594,4.02,41.645c0.081,7.308,0.221,14.698-0.372,21.984c-0.62,7.718-4.488,15.949-6.913,23.219
				c-2.562,7.686-1.728,5.915-5.48,13.076c-3.768,7.165-4.411,11.24-4.875,12.225c-1.52,3.108-2.921,6.397-5.002,9.117
				c-3.848,5.087-5.887,11.368-13.871,18.275c-16.648,14.374-34.971,16.171-47.355,18.717c-5.209,1.065-10.542,1.615-15.829,2.158
				c-3.362,0.363-6.777,0.475-10.171,0.416c-3.99-0.062-8.068-0.11-12.001-0.714c-4.479-0.69-8.917-1.814-13.255-3.09
				c-2.601-0.772-4.996-2.215-7.511-3.335c-6.109-2.72-12.5-4.88-17.878-9.051c-3.116-2.388-6.049-4.985-9.125-7.41
				c-7.896-6.221-14.413-13.531-18.325-22.907c-2.512-6.016-5.159-12.012-7.179-18.207c-1.382-4.263-1.922-8.818-2.54-13.271
				c-0.904-6.378-1.646-12.794-2.295-19.209c-0.256-2.234,0.517-10.768,0.648-12.754c0.526-7.429,2.171-14.612,4.382-21.682
				c1.123-3.522,1.846-7.168,3.15-10.595c2.362-6.162,5.296-12.058,8.688-17.748c1.974-3.237,4.826-13.681,27.074-35.614
				c4.62-4.515,9.706-8.46,13.802-13.721c3.767-4.816,9.598-8.154,15.559-10.323c5.382-0.313,12.58,4.501,8.671,8.667
				c-2.443,2.849-4.637,5.936-6.908,8.913c-2.903,4.062-4.769,9.555,0.451,11.325c2.163,0.288,4.576,0.722,6.537,0.064
				c5.693-1.915,10.54-10.231,10.303-16.327c-0.04-1.595,0.576-3.608,1.61-4.753c1.641-1.785,3.756-3.457,5.975-4.428
				c3.594-1.572,7.142-0.682,8.444,2.327c1.162,2.679,2.151,5.841,0.466,8.867c-1.014,1.798-2.093,3.56-3.175,5.307
				c-1.536,2.485-3.27,4.772-3.084,8.069c0.19,3.22-0.125,3.251,3.099,4.22c1.004,0.293,5.431,1.144,6.524,0.798
				c6.179-1.926,8.351-8.746,8.739-13.821c0.154-2.036-1.266-5.53,0.956-6.181c8.122-3.116,14.739,0.871,16.024,3.867
				c0.835,1.919,0.153,4.003-1.632,5.84c-1.624,1.69-3.227,3.423-4.594,5.305c-1.665,2.337-2.869,5.002-1.817,7.972
				c1.319,3.738,6.12,5.052,9.506,2.901c4.764-1.396,8.719-7.505,9.18-10.761c0.481-3.427,2.459-4.789,5.189-5.912
				c1.983-0.813,3.858-1.23,5.327,0.854c1.271,1.778,0.919,3.508-0.167,5.225c-1.408,2.223-2.82,4.416-4.2,6.619
				c-1.813,2.878-2.573,6.071-2.462,9.379c0.074,2.444,2.057,4.391,4.511,4.895c6.301,1.243,9.661-0.05,11.886-4.773
				c1.354-2.581,2.072-8.208,2.15-10.553c0.054-1.686-1.66-4.8,2.465-5.262c4.118-0.506,9.521,3.31,12.336,9.006
				C205.184,56.886,208.911,63.788,212.027,70.995z M92.618,87.994c1.452-7.46,0.321-13.62-3.278-20.282
				C82.698,55.464,69.65,52.74,56.818,56.587c-5.852,1.771-9.644,5.904-13.838,10.097c-3.493,3.479-9.163,12.207-8.771,17.501
				c0.168,2.156,2.14,4.134,3.863,3.619c4.242,2.678,9.723,5.995,13.97,6.765C58.8,95.82,64.337,98.9,71.216,99.523
				c1.994,0.176,8.646,2.449,13.129,2.757c0.064,0.021,0.146,0.055,0.224,0.074C91.737,104.093,91.473,93.716,92.618,87.994z"/>
			<path fill="#4D509B" d="M129.026,102.369c0.085-0.043,0.153-0.099,0.236-0.157c0.042-0.021,0.085-0.043,0.14-0.082
				c0,0,0,0,0.013-0.017c0.042-0.022,0.085-0.043,0.141-0.082c0.042-0.021,0.083-0.058,0.125-0.08
				c0.043-0.022,0.083-0.058,0.125-0.08c0.042-0.022,0.1-0.045,0.125-0.08c3.957-2.206,2.542,6.012,2.165,7.166
				c-1.107,3.52-1.607,7.132-2.988,10.556c-3.427,8.532-6.919,17.439-12.126,25.077c-4.202,6.191-10.507,13.627-17.301,16.956
				c-6.296,3.088-14.753,5.796-20.556-0.096c-5.582-5.636-11.394-12.41-7.329-20.854c3.254-6.722,7.481-13.055,11.704-19.112
				c2.365-3.372,9.891-16.021,11.044-19.029c2.288-6.044,3.176-12.063,4.923-18.148c0.712-2.485,1.249-7.491,3.494-9.106
				c2.575-1.863,6.464-0.627,8.104,1.889c2.123,3.298-1.6,8.717-2.942,11.784c-1.872,4.229-3.82,8.453-5.691,12.681
				c-3.733,8.318-6.493,16.415-11.917,23.826c-3.676,5.015-12.201,15.465-11.219,22.06c1.219,8.19,10.456,10.308,16.587,6.833
				c5.488-3.09,9.105-8.295,12.843-13.197c5.291-6.872,8.98-14.559,11.596-22.802C122.481,111.471,122.966,106.534,129.026,102.369z
				"/>
			<path fill="#4D509B" d="M128.439,102.731c0.043-0.021,0.085-0.043,0.141-0.082C128.524,102.688,128.482,102.709,128.439,102.731z
				"/>
			<path fill="#F9DF00" d="M149.095,174.183c-5.016,6.465-9.109,7.548-11.528,8.304c-0.093,0.091-0.602-0.047-0.671-0.205
				c-0.095-0.229-0.094-0.626,0.042-0.845c2.974-4.407,6.02-8.734,8.907-13.206c1.688-2.6,2.952-5.472,4.642-8.057
				c2.991-4.593,5.693-9.494,9.407-13.433c3.469-3.643,8.182-5.991,13.673-5.269c2.351,0.321,3.458,1.514,3.939,4.645
				c-0.367,6.444-1.474,13.456-7.463,18.603c-2.932,2.541-5.931,5.031-8.974,7.436c-0.94,0.75-3.108,2.171-4.185,2.728
				c-0.183,0.104,0,0-0.65,0.036c-0.663,0.053,10.813-10.852,12.408-21.855c1.148-2.428-3.104-4.662-4.545-2.465
				C161.933,153.88,152.755,169.978,149.095,174.183z"/>
			<path fill="#F9DF00" d="M86.337,80.42c2.013,6.456-5.399,20.385-1.992,21.86c-4.484-0.308-11.136-2.582-13.129-2.757
				C64.337,98.9,58.8,95.82,52.041,94.569c-4.247-0.771-9.728-4.087-13.97-6.765c0.569-0.176,1.11-0.638,1.538-1.449
				c1.34-2.472,2.209-5.239,3.419-7.768c1.968-4.09,4.131-8.819,8.07-11.251c1.103-0.683,1.591-0.069,1.685,0.359
				c2.173,8.964-2.74,20.111,9.243,23.878c4.721,1.493,10.944,0.063,15.022-2.557c3.598-2.366,5.086-5.988,7.613-9.094
				C85.312,79.17,85.926,79.094,86.337,80.42z"/>
			<path fill="#4D509B" d="M92.618,87.994c-1.146,5.722-0.882,16.098-8.049,14.359c-0.079-0.019-0.16-0.053-0.224-0.074
				c-3.407-1.475,4.005-15.404,1.992-21.86c-0.411-1.327-1.025-1.25-1.675-0.498c-2.527,3.106-4.016,6.729-7.613,9.094
				c-4.078,2.62-10.301,4.05-15.022,2.557c-11.983-3.767-7.07-14.915-9.243-23.878c-0.094-0.428-0.582-1.042-1.685-0.359
				c-3.939,2.432-6.102,7.161-8.07,11.251c-1.21,2.529-2.079,5.296-3.419,7.768c-0.428,0.811-0.969,1.273-1.538,1.449
				c-1.723,0.516-3.695-1.463-3.863-3.619c-0.392-5.294,5.278-14.023,8.771-17.501c4.195-4.193,7.987-8.326,13.838-10.097
				c12.832-3.847,25.88-1.123,32.522,11.125C92.939,74.374,94.07,80.534,92.618,87.994z"/>
		</g>
		<g>
		</g>
	</g>
	<g id="XMLID_1_">
		<g>
			<path fill="#F9DF00" d="M272.736,112.119c1.643,2.531,1.064,5.408-3.441,10.791c-4.12,4.898-8.195,7.641-13.409,10.826
				c-5.705,3.473-11.453,6.967-17.479,9.815c-3.291,1.558-18.55,11.027-20.171,11.711c-1.364,0.569-3.49,1.45-4.187,0.867
				c-1.003-0.796-1.399-2.842-1.361-4.326c0.115-2.915,0.911-5.764,1.041-8.681c0.342-6.104,0.684-12.21,0.556-18.291
				c-0.313-15.218-0.657-28.999,2.437-43.764c1.92-6.157,4.951-9.048,8.324-10.771c2.665-1.358,4.624,0.12,6.067,3.671
				c1.474,3.547,0.953,8.551-0.052,12.559c-1.857,7.398-3.807,13.56-6.224,20.782c-1.073,3.24-2.435,4.343-0.659,5.817
				c1.743,1.464,4.137-2.431,5.69-5.208c3.285-5.796,6.947-20.021,16.617-25.44c3.782-2.149,10.235-2.851,11.202,2.313
				c1.776,9.267,0.126,10.168-2.462,14.091c-0.269,0.757-13,15.523-13.792,17.578c-0.837,2.061-0.908,3.017-0.544,3.619
				c0.25,0.451,1.49,0.586,2.702,0.223c1.182-0.359,11.64-8.473,13.577-10.21C261.657,106.128,268.749,105.926,272.736,112.119z"/>
			<path fill="#4D509B" d="M257.169,110.09c-1.938,1.737-12.396,9.852-13.577,10.21c-1.212,0.363-2.452,0.228-2.702-0.223
				c-0.364-0.602-0.293-1.558,0.544-3.619c0.792-2.055,13.523-16.821,13.792-17.578c2.588-3.923,4.238-4.825,2.462-14.091
				c-0.967-5.163-7.42-4.462-11.202-2.313c-9.67,5.42-13.332,19.644-16.617,25.44c-1.554,2.778-3.947,6.672-5.69,5.208
				c-1.775-1.474-0.414-2.577,0.659-5.817c2.417-7.222,4.366-13.384,6.224-20.782c1.005-4.008,1.525-9.011,0.052-12.559
				c-1.443-3.552-3.402-5.029-6.067-3.671c-3.373,1.722-6.404,4.613-8.324,10.771c-3.094,14.765-2.75,28.546-2.437,43.764
				c0.128,6.081-0.214,12.187-0.556,18.291c-0.13,2.917-0.926,5.766-1.041,8.681c-0.038,1.484,0.358,3.53,1.361,4.326
				c0.696,0.583,2.822-0.298,4.187-0.867c1.621-0.684,16.88-10.153,20.171-11.711c6.026-2.849,11.774-6.343,17.479-9.815
				c5.214-3.186,9.289-5.928,13.409-10.826c4.506-5.383,5.084-8.26,3.441-10.791C268.749,105.926,261.657,106.128,257.169,110.09z
				 M275.766,101.74c6.231,2.625,7.062,8.099,6.645,12.979c-0.43,4.898-5.113,10.521-8.263,14.772
				c-3.873,5.229-9.297,8.948-15.405,11.657c-4.267,1.87-8.215,4.44-12.188,6.847c-6.398,3.835-12.523,8.071-19.056,11.621
				c-6.563,3.555-12.137,8.212-17.581,13.231c-3.738,3.47-8.039,6.336-11.777,9.806c-2.629,2.42-5.093,4.921-8.614,5.751
				c-1.223,0.288-3.1-0.027-3.953-0.846c-0.744-0.697-0.862-2.616-0.53-3.764c0.487-1.644,1.44-3.234,2.522-4.569
				c5.735-7.061,9.082-15.413,12.962-23.463c2.575-5.34,3.616-11.152,4.179-17.001c0.4-4.177,0.553-8.378,0.568-12.574
				c0.007-3.539-0.415-7.09-0.545-10.625c-0.186-5.142,0.759-26.251,2.723-31.393c1.323-3.506,2.048-7.244,3.737-10.545
				c1.702-3.318,4.071-6.355,6.514-9.205c1.268-1.424,5.188-4.082,11.663-3.505c7.735,1.868,11.116,5.116,10.298,12.833
				c-0.483,4.434,2.047,3.813,2.718,3.606c5.33-1.586,15.556-4.71,21.955,3.655c7.099,9.267-2.836,18.341-2.973,19.673
				c-0.024,0.248,0.371,0.753,0.641,0.819C265.912,102.338,272.122,100.208,275.766,101.74z"/>
		</g>
		<g>
		</g>
	</g>
</g>
</svg>
