<?xml version="1.0" encoding="utf-8"?>
<!-- Generator: Adobe Illustrator 16.0.3, SVG Export Plug-In . SVG Version: 6.00 Build 0)  -->
<!DOCTYPE svg PUBLIC "-//W3C//DTD SVG 1.1//EN" "http://www.w3.org/Graphics/SVG/1.1/DTD/svg11.dtd">
<svg version="1.1" id="Layer_1" xmlns="http://www.w3.org/2000/svg" xmlns:xlink="http://www.w3.org/1999/xlink" x="0px" y="0px"
	 width="306.508px" height="269.986px" viewBox="-81.566 -59.236 306.508 269.986"
	 enable-background="new -81.566 -59.236 306.508 269.986" xml:space="preserve">
<g>
	<g id="XMLID_1_">
		<g>
			<path fill="#FF98B5" d="M199.59,68.882c-1.769-4.522-6.479-16.701-8.153-20.58c-0.998-2.318-1.781-4.039-2.472-5.366
				c6.947-1.795,12.762-8.983,14.966-16.218c5.613,4.086,8.394,12.514,7.489,18.878c-0.375,8.682-3.818,19.782-11.341,24.498
				c-0.142-0.429-0.288-0.857-0.436-1.306C199.63,68.821,199.61,68.848,199.59,68.882z"/>
			<path fill="#F9DF00" d="M198.096,101.03c0.073,2.6,0.026,5.111-0.054,7.403c-3.938,5.412-7.811,7.75-16.03,4.294
				c-7.945-3.343-9.145-16.266-4.797-23.534c3.511-5.861,8.468-8.079,17.377-5.781c0.751,2.297,1.427,4.609,2.003,6.947
				c0.838,3.423,1.313,6.993,1.501,10.665V101.03z"/>
			<path fill="#F9DF00" d="M194.646,83.425c2.466,5.366,3.27,11.724,3.45,17.599c-0.188-3.672-0.663-7.242-1.501-10.665
				c-0.576-2.338-1.252-4.649-2.003-6.947C194.613,83.412,194.626,83.418,194.646,83.425z"/>
			<path fill="#FF98B5" d="M194.245,23.121c-1.126,4.086-4.006,11.194-9.794,9.083C180.083,27.623,181.744,21.56,194.245,23.121z"/>
			<path fill="#4D509B" d="M116.201,165.333c6.217,1.81,13.459,1.072,17.438,0.463c7.322-1.112,11.543-2.713,17.23-6.605
				c2.619-1.755,12.46-10.524,14.014-12.621c0,0,5.521-6.391,8.508-4.448c0.623,0.402-0.127,3.658-2.633,6.25
				c-2.854,2.961-7.114,8.079-11.837,12.44c-5.453,5.031-8.843,7.442-22.455,10.249c-12.313,2.539-23.681,1.334-26.34-0.649
				C107.465,168.442,108.658,163.136,116.201,165.333z"/>
			<path fill="#FF98B5" d="M164.769-7.708c0.167,5.426-2.961,11.65-7.449,14.745c-0.791,1.146-9.6-1.32-7.557-5.5
				C151.974-2.282,164.755-8.103,164.769-7.708z"/>
			<path fill="#4D509B" d="M163.369,88.302c-2.298,1.46-10.726,3.818-14.711-0.215c-2.352-2.364-2.432-6.906-2.324-10.209
				c0.12-3.805,1.628-5.366,4.877-7.322c2.418-1.454,5.566-2.211,8.307-1.226C172.613,74.033,167.187,85.877,163.369,88.302z"/>
			<path fill="#F9DF00" d="M143.687,72.915c1.206-2.331,4.415-10.27,14.664-8.843c3.216,0.449,5.259,2.941,7,4.756
				c2.854,2.968,4.281,4.77,5.869,4.488c0.629-0.114,1.34-0.402,1.701-1.052c0.422,1.005,0.79,2.07,1.112,3.195
				c1.647,5.714-4.348,17.478-12.982,18.952c-5.152,0.871-8.978,0.864-11.851,0.328c-3.564-3.49-6.291-7.081-7.048-10.524
				c-0.007-0.007,0-0.014,0-0.02C141.396,79.58,142.555,75.085,143.687,72.915z M148.658,88.087
				c3.985,4.033,12.413,1.675,14.711,0.215c3.818-2.425,9.244-14.269-3.852-18.972c-2.74-0.985-5.889-0.228-8.307,1.226
				c-3.249,1.956-4.757,3.517-4.877,7.322C146.226,81.181,146.306,85.723,148.658,88.087z"/>
			<path fill="#4D509B" d="M176.927,116.089c6.277,4.382,12.078,5.547,11.925,9.721c-0.315,8.815-10.732,12.774-24.733,13.317
				c-3.503,0.134-13.109-1.748-16.587-4.743c-1.855-1.594,16.373,0.168,26.629-2.767c7.737-2.211,10.243-4.957,6.149-7.262
				c-4.093-2.317-5.969-3.456-15.159-10.062c-3.558-2.553-10.592-7.583-13.472-10.351c-7.062-6.799-11.382-9.043-13.947-16.606
				c-1.045-3.102-1.414-10.176-0.041-13.579c0.503-1.246,0.362-1.266-0.06-1.38c-2.653-0.723-6.498-2.13-10.25-5.962
				c-2.331-2.378-2.104-5.513,2.66-4.836c3.182,0.456,7.958,2.914,10.645,5.145c0.314,0.255,0.576,0.355,0.771-0.047
				c0.589-1.172,1.38-2.392,2.472-3.523c0.241-0.248,0.181-0.369-0.094-0.65c-2.09-2.117-5.768-5.976-6.772-7.992
				c-1.44-2.86-0.154-5.728,1.272-6.129c1.26-0.362,3.57-0.161,6.264,4.388c1.561,2.646,2.713,5.239,3.43,7.061
				c0.107,0.274,0.269,0.395,0.623,0.254c1.42-0.542,3.082-0.938,5.038-1.112c0.147-0.014,0.375-0.282,0.335-0.409
				c-0.885-2.86-2.338-7.918-2.305-10.149c0.047-3.209,2.029-5.353,3.51-5.239c1.273,0.101,3.698,1.896,3.986,7.168
				c0.174,3.33-0.054,6.384-0.268,8.34c-0.027,0.241-0.101,0.315,0.228,0.348c1.916,0.221,3.497,0.657,4.837,1.233
				c0.261,0.114,0.401,0.04,0.476-0.161c1.111-3.262,2.063-7.295,4.313-10.088c0.804-0.999,2.419-2.727,4.127-2.191
				c1.708,0.536,2.74,1.354,2.224,4.776c-0.817,5.446-2.425,8.106-5.493,11.643c-0.214,0.248-0.214,0.308,0.04,0.636
				c0.583,0.75,1.133,1.521,1.669,2.285c1.889,2.679,2.05,4.22,1.554,5.098c-0.361,0.65-1.072,0.938-1.701,1.052
				c-1.588,0.281-3.015-1.521-5.869-4.488c-1.741-1.815-3.784-4.308-7-4.756c-10.249-1.427-13.458,6.512-14.664,8.843
				c-1.132,2.17-2.291,6.666-1.534,11.281c0,0.006-0.007,0.013,0,0.02c0.757,3.443,3.483,7.034,7.048,10.524
				c4.313,4.214,9.867,8.294,14.67,11.79C168.714,110.054,172.915,113.283,176.927,116.089z"/>
			<path fill="#4D509B" d="M97.149,89.836c4.522-6.042,12.132-6.103,16.781,0.147c3.115,4.173,3.362,11.12-2.606,14.543
				c-3.235,1.855-9.07,2.6-12.513,0C94.972,101.633,94.007,94.023,97.149,89.836z"/>
			<path fill="#FF98B5" d="M109-21.313c1.755,2.847,2.673,6.404,2.666,7.818c0.536,2.606,1.354,7.335-2.927,11.04
				c-6.86,5.928-5.882-9.941-4.342-12.635C105.583-17.288,107.378-19.525,109-21.313z"/>
			<path fill="#F9DF00" d="M90.906,130.165c3.517-5.882,12.152-12.307,21.095-9.981c12.561,3.255,11.757,14.309,10.679,19.467
				c-2.291,11.02-14.102,18.911-25.055,14.303C89.68,150.61,86.558,137.426,90.906,130.165z"/>
			<path fill="#F9DF00" d="M98.811,104.527c3.443,2.6,9.278,1.855,12.513,0c5.969-3.423,5.722-10.37,2.606-14.543
				c-4.649-6.25-12.259-6.19-16.781-0.147C94.007,94.023,94.972,101.633,98.811,104.527z M87.074,101.125
				c-0.074-0.154-0.134-0.315-0.201-0.477c0.563,0.456,1.186,0.59,1.735,0.449c1.454-0.368,1.4-4.803,2.291-8.695
				C91.274,90.76,92.754,80.772,105.737,81c3.256,0.06,6.826,1.286,8.863,2.78c3.329,2.412,5.969,4.328,7.476,3.772
				c0.215-0.074,0.409-0.229,0.576-0.422c0.121,0.221,0.234,0.449,0.349,0.676c2.619,5.34-1.213,17.974-9.452,20.941
				C92.534,116.297,88.179,103.669,87.074,101.125z"/>
			<path fill="#4D509B" d="M76.992,85.395c2.961,0.033,6.424,0.984,9.506,2.539c0.127,0.066,0.456,0.04,0.496-0.034
				c0.596-1.252,1.674-3.53,2.72-4.883c0.121-0.154,0.121-0.321-0.167-0.522c-2.472-1.762-4.361-3.906-5.654-5.634
				c-1.916-2.566-2.532-5.493-1.199-6.143c1.186-0.583,3.872,0.281,5.895,2.539c1.889,2.09,3.664,4.046,4.696,5.681
				c0.074,0.107,0.396,0.174,0.496,0.101c1.454-1.052,3.142-1.956,5.118-2.626c0.114-0.041,0.241-0.315,0.194-0.416
				c-1.38-2.707-3.497-7.101-3.838-9.198c-0.516-3.168,1.052-5.627,2.532-5.768c1.272-0.121,3.383,1.219,4.227,5.111
				c0.643,2.94,1.414,7.181,1.567,9.137c0.027,0.369,0.161,0.295,0.509,0.281c2.15-0.127,4.582-0.161,6.276,0.261
				c0.382,0.094,0.43-0.127,0.477-0.422c0.516-3.396,1.045-6.491,2.479-10.638c0.408-1.212,2.177-3.182,5.171-2.452
				c1.307,0.315,2.097,1.909,1.615,4.716c-0.73,4.22-1.428,5.386-3.209,10.825c-0.181,0.556-0.087,0.891,0.382,1.206
				c1.064,0.697,2.029,1.407,2.947,2.023c3.27,2.224,3.356,4.951,2.425,6.049c-0.167,0.194-0.361,0.348-0.576,0.422
				c-1.507,0.556-4.146-1.36-7.476-3.772c-2.037-1.494-5.607-2.72-8.863-2.78c-12.982-0.228-14.463,9.76-14.838,11.401
				c-0.891,3.893-0.837,8.327-2.291,8.695c-0.549,0.141-1.172,0.007-1.735-0.449c-1.085-0.884-1.943-2.974-1.588-6.679
				c0.047-0.455,0.067-0.395-0.315-0.448c-2.867-0.423-4.24-0.925-9.834-3.457C72.108,88.684,73.187,85.341,76.992,85.395z"/>
			<path fill="#FF98B5" d="M59.527-25.4c9.566,6.264,9.265,9.077,7.992,16.708c-2.057,12.541-12.072,0.442-11.013-9.62
				C56.861-21.695,58-22.345,59.527-25.4z"/>
			<path fill="#FF2184" d="M-16.646,24.28c-8.917,5.5,1.822,10.705,8.447,10.953c10.216,0.375,14.068-7.63,10.39-11.663
				C-0.877,20.207-10.102,20.247-16.646,24.28z M19.97-3.367c5.814-4.797,2.418-17.826-3.946-16.399
				C5.379-17.381,10.859,4.143,19.97-3.367z M191.437,48.302c1.675,3.879,6.385,16.058,8.153,20.58
				c0.02-0.034,0.04-0.061,0.054-0.094c0.147,0.449,0.294,0.877,0.436,1.306c7.522-4.716,10.966-15.816,11.341-24.498
				c0.904-6.364-1.876-14.792-7.489-18.878c-2.204,7.235-8.019,14.423-14.966,16.218C189.656,44.263,190.439,45.984,191.437,48.302z
				 M65.483-32.869c9.191,7.114,14.202,16.915,10.564,28.524C72.878,6.93,63.601,6.527,56.995,2.1
				c-5.634-3.785-8.883-10.35-9.425-16.721c-0.509-5.922,1.293-9.553,4-14.892c-8.414-2.646-17.766-0.717-25.403,3.37
				C35.505-15.633,37.046,3.627,19.695,7.66C-0.964,12.697-5.573-16.135,9.359-27.302c-21.598-8.91-39.477,31.954-34.607,48.266
				c10.196-9.271,44.682-14.175,36.623,10.913C5.862,48.651-17.002,45.141-26.179,35.26c-7.041,13.874-8.501,36.918-3.269,55.809
				l-7.074-4.013c-0.208-1.065-0.416-2.137-0.61-3.189c-2.492-13.572-3.289-28.055,0.074-41.561
				c1.259-5.064,4.87-10.625,5.018-15.093c-8.91-15.314,1.855-39.738,11.877-51.984C-14.59-31.744-6.451-37.666,2.72-38.007
				c8.541-0.342,12.353,6.143,19.795,2.626c10.926-5.165,23.547-7.067,34.956-2.217c9.425-9.546,24.277-14.577,37.487-11.522
				c5.333,1.239,10.356,3.892,14.168,7.852c5.822,6.002,4.717,3.53,13.03,1.42c10.102-2.559,21.068-1.192,30.399,3.376
				c7.872,3.858,15.374,10.296,19.22,18.261c11.536-0.764,24.056,3.062,30.266,13.465c4.771,7.872,0.282,17.116,7.142,21.953
				c7.135,5.024,10.685,13.19,10.759,21.792c0,0,0,0.047,0,0.181c0,0.027,0,0.054,0,0.074c-0.067,11.737-5.701,30.642-19.32,32.443
				c1.635,4.776,2.981,8.427,4.569,13.974c4.829,16.888,0.689,57.779-19.24,91.32c-5.653,7.229-10.356,17.913-28.49,22.314
				c-21.866,5.313-37.106,9.74-91.415-4.776c-10.933-4.414-29.107-10.745-41.38-19.595c-7.577-5.399-13.545-11.274-18.436-17.604
				c0.02-0.014,0.033-0.033,0.047-0.047c4.301-4.676,8.099-8.81,8.099-8.81c1.574-1.902,3.417-3.249,5.54-4.22
				c0.375,0.354,0.623,0.582,0.683,0.636c5.795,5.078,14.51,6.854,16.607,6.807c2.117-0.047,9.613-0.382,12.038-2.525
				c3.597-3.195,7.369-1.923,6.934,1.46c-0.462,3.537-12.273,12.112-30.601,7.242c-3.53-0.932-10.323-6.545-10.109-5.936
				c0.449,1.272,2.479,5.868,10.444,12.547c3.115,2.619,26.427,18.188,47.02,24.364c8.052,2.412,39.859,11.603,71.264,3.905
				c26.16-6.41,30.937-11.033,37.488-25.583c5.888-13.083,17.645-41.701,16.412-66.14v-0.006c-0.181-5.875-0.984-12.232-3.45-17.599
				c-0.02-0.007-0.033-0.013-0.054-0.013c-1.313-4.053-2.826-8.059-4.267-12.085c-0.034-0.081-0.074-0.154-0.101-0.235
				c-0.59-1.614-8.896-18.061-9.841-21.953c-0.396-1.641-1.902-6.136-2.178-8.112c-0.509-0.322-1.018-0.677-1.527-1.079
				c-19.118-15.2,4.047-30.353,19.528-27.868c0.623-13.686-8.95-21.182-21.946-21.149c1.226,15.247-15.066,35.471-30.326,20.519
				c-12.769-12.775,8.139-25.302,17.873-27.981C154.54-27.878,138.831-33.251,125.894-31c-12.781,2.23-5.399,8.487-5.747,18.395
				c-0.389,11.107-7.369,27.466-22.777,15.857c-7.201-5.433-4.917-16.587-0.771-23.581c2.385-4.073,5.426-7.71,8.99-10.813
				c-3.329-5.627-9.077-8.983-15.508-9.787C81.521-41.993,71.927-38.45,65.483-32.869z M184.451,32.205
				c5.788,2.11,8.668-4.997,9.794-9.083C181.744,21.56,180.083,27.623,184.451,32.205z M67.52-8.692
				c1.273-7.63,1.574-10.444-7.992-16.708c-1.527,3.055-2.666,3.705-3.021,7.087C55.448-8.25,65.463,3.848,67.52-8.692z
				 M157.32,7.037c4.488-3.095,7.616-9.318,7.449-14.745c-0.014-0.395-12.795,5.426-15.006,9.245
				C147.72,5.717,156.529,8.182,157.32,7.037z M108.739-2.456c4.28-3.705,3.463-8.434,2.927-11.04
				c0.007-1.414-0.911-4.971-2.666-7.818c-1.621,1.789-3.416,4.026-4.603,6.223C102.856-12.397,101.878,3.473,108.739-2.456z"/>
			<path fill="#FF98B5" d="M58.007,44.008c-4.046,15.816-14.048,7.604-13.96-4.24c0,0.328,0.114-0.094,0.094-0.167
				c0,0,0-0.007-0.007,0c0.563-1.273,1.702-2.217,2.974-2.74C51.516,34.489,57.859,38.261,58.007,44.008z"/>
			<path fill="#FF2184" d="M38.908,100.742c5.292,7.135,13.585,12.099,16.171,20.881c-0.704,0.737-1.822,1.22-3.524,1.307
				c-3.604,0.194-6.384-3.778-10.316-8.086S27.386,98.92,17.907,97.152c-1.534-0.517-12.601-2.144-20.566,3.959
				c-1.212,1.272-1.822,2.666-1.996,4.013l-6.773-3.839c0.181-0.368,0.342-0.771,0.462-1.212c0.663-2.365,1.44-4.67,2.392-6.914
				c4.743-6.538,17.082-8.588,24.244-6.699c8.675,2.292,16.205,8.28,22.978,14.128C38.727,100.655,38.814,100.708,38.908,100.742z"
				/>
			<path fill="#CA447F" d="M44.14,39.601c0.02,0.074-0.094,0.496-0.094,0.167c0.04-0.094,0.067-0.141,0.08-0.161l0.007-0.006
				C44.14,39.594,44.14,39.601,44.14,39.601z"/>
			<path fill="#4D509B" d="M32.926,126.741c0.429,5.018-0.971,14.322-8.836,16.132c-1.487,0.341-2.86,0.783-4.126,1.359
				c-0.02,0-0.034,0.014-0.047,0.021c-2.124,0.971-3.966,2.317-5.54,4.22c0,0-3.798,4.134-8.099,8.81
				c-0.014,0.014-0.027,0.033-0.047,0.047c-5.547,6.029-11.904,12.956-12.052,13.123c-3.49,3.986-6.9,8.046-10.417,12.031
				c-2.833,3.216-5.459,6.699-8.722,9.412c-4.314,3.571-8.816,5.982-15.18,3.437c-3.597-1.439-7.664-1.982-10.403-4.836
				c-3.37-3.53-5.754-7.637-6.371-12.849c-0.609-5.158,0.422-9.875,2.077-14.551c1.065-2.987,2.76-5.734,4.006-8.642
				c0.294-0.71,0.261-1.963-0.201-2.465c-0.482-0.536-7.041-0.269-13.076-2.914c-4.776-2.097-10.296-4.91-10.826-10.679
				c-0.563-6.089,4.455-12.621,11.368-16.285c6.92-3.645,9.137-1.748,9.405-3.383c0.101-0.637-8.769-3.242-9.861-3.577
				c-7.416-2.265-9.801-7.69-11.422-12.266c-1.628-4.569-0.502-9.646,0.482-12.447c3.148-8.91,16.305-19.065,37.132-4.12
				l1.307,0.737l7.074,4.013l10.263,5.814l7.757,4.401l6.773,3.839l0.141,0.08l8.534,4.837c0.429,0.248,0.864,0.476,1.313,0.689
				c6.86,3.243,14.865,1.789,15.703,1.769C30.863,112.278,32.236,118.776,32.926,126.741z M21.745,132.944
				c3.45-2.746,1.802-10.886-2.338-10.792c-3.396,0.074-6.84-0.429-10.162-1.118c-0.375-0.081-0.757-0.161-1.139-0.248
				c-3.872-0.817-7.804-1.755-11.348-3.41c-4.14-1.956-8.132-4.16-12.044-6.511c-2.747-1.655-5.446-3.384-8.133-5.152
				c-3.175-2.083-6.324-4.213-9.486-6.337c-0.241-0.161-0.489-0.335-0.737-0.502c-5.868-4.033-12.534-9.526-19.715-10.002
				c-4.086-0.274-9.593-1.307-10.839,6.612c-0.784,5.084,2.03,8.809,4.877,10.249c6.197,3.142,13.827,5.922,20.405,8.287
				c0.154,0.066,8.052,2.987,8.233,5.225c0.302,3.383-2.331,3.806-5.774,4.448c-17.759,3.296-27.586,2.981-28.009,9.794
				c-0.04,0.496,0.074,2.432,1.494,5.051c1.427,2.633,9.921,6.559,21.028,3.323c2.747-0.798,12.011-4.348,13.344-4.823
				c3.042-1.072,5.861-2.673,7.175-1.059c1.815,2.237,0.857,3.329-1.977,5.681c-6.893,5.714-16.332,17.986-18.61,24.552
				c-0.609,1.742-6.149,16.245,5.721,17.183c3.068,0.234,4.2-1.54,5.661-2.779c6.907-5.862,12.534-12.862,17.538-20.393
				c2.532-3.791,8.3-9.6,11.04-12.272c0.603-0.589,1.065-1.031,1.307-1.259c0.107-0.107,0.174-0.168,0.188-0.182
				c1.199-1.132,5.5-4.166,10.089-7.469c0.636-0.463,1.286-0.925,1.929-1.394c0.636-0.462,1.239-0.838,1.802-1.139
				C16.607,134.707,18.798,135.282,21.745,132.944z"/>
			<path fill="#F9DF00" d="M19.407,122.152c4.14-0.094,5.788,8.046,2.338,10.792c-2.947,2.338-5.138,1.763-8.481,3.564
				c-0.563,0.301-1.166,0.677-1.802,1.139c-0.643,0.469-1.293,0.931-1.929,1.394c-4.589,3.303-8.89,6.337-10.089,7.469
				c-0.014,0.014-0.081,0.074-0.188,0.182c-0.241,0.228-0.704,0.67-1.307,1.259c-2.74,2.673-8.507,8.481-11.04,12.272
				c-5.004,7.53-10.631,14.53-17.538,20.393c-1.46,1.239-2.593,3.014-5.661,2.779c-11.871-0.938-6.331-15.44-5.721-17.183
				c2.278-6.565,11.717-18.838,18.61-24.552c2.834-2.352,3.792-3.443,1.977-5.681c-1.313-1.614-4.133-0.014-7.175,1.059
				c-1.333,0.476-10.598,4.025-13.344,4.823c-11.107,3.235-19.602-0.69-21.028-3.323c-1.42-2.619-1.534-4.555-1.494-5.051
				c0.422-6.813,10.25-6.498,28.009-9.794c3.443-0.643,6.076-1.065,5.774-4.448c-0.181-2.237-8.079-5.158-8.233-5.225
				c-6.579-2.365-14.208-5.146-20.405-8.287c-2.847-1.44-5.661-5.165-4.877-10.249c1.246-7.919,6.753-6.887,10.839-6.612
				c7.182,0.476,13.847,5.969,19.715,10.002c0.248,0.167,0.496,0.341,0.737,0.502c3.162,2.124,6.311,4.254,9.486,6.337
				c2.687,1.769,5.386,3.497,8.133,5.152c3.912,2.351,7.905,4.555,12.044,6.511c3.544,1.655,7.476,2.593,11.348,3.41
				c0.382,0.087,0.764,0.167,1.139,0.248C12.567,121.723,16.011,122.226,19.407,122.152z"/>
			<path fill="#FF98B5" d="M16.024-19.766c6.364-1.427,9.76,11.603,3.946,16.399C10.859,4.143,5.379-17.381,16.024-19.766z"/>
			<path fill="#CA447F" d="M16.212,71.749c-0.322-0.188-0.817-0.255-1.44-0.241C14.665,71.086,16.781,71.079,16.212,71.749z"/>
			<path fill="#FF2184" d="M44.046,39.768c-0.087,11.844,9.914,20.057,13.96,4.24c-0.147-5.748-6.491-9.519-10.899-7.148
				c-1.272,0.523-2.412,1.467-2.974,2.74l-0.007,0.006C44.113,39.627,44.086,39.674,44.046,39.768z M98.683,32.064
				c-1.085,2.773-1.306,8.722-2.425,11.013c-3.269,4.656-7.389,8.32-12.025,11.609c-6.083,4.314-12.614,7.838-19.795,9.841
				c-2.532,0.549-9.54-0.402-11.127,0.69c-3.196,2.164-6.712,3.933-10.363,5.185c-9.875,3.216-19.856,6.411-30.092,4.689
				c0.603-2.412-6.169-0.851-6.484-3.31c3.751,0.201,15.347,2.955,18.536,0.141c-2.66,0.087-5.319,0.026-7.972-0.167
				c-0.154-0.549,3.818-0.75,4.615-0.744c-0.797-2.124-11.689,1.795-12.413-1.186c2.117,0.201,4.234,0.282,6.351,0.235
				c-1.025-0.161-2.03-0.416-3.008-0.757C20.56,71.883,37.615,64.273,44,60.562c-10.076-8.977-13.793-26.615,0.944-32.39
				c18.422-7.315,28.022,13.767,18.657,27.151c9.928-2.66,25.275-19.782,33.307-23.875C98.254,30.765,99.072,31.066,98.683,32.064z"
				/>
			<path fill="#FF98B5" d="M-16.646,24.28c6.545-4.033,15.769-4.073,18.837-0.71c3.678,4.033-0.174,12.038-10.39,11.663
				C-14.825,34.985-25.563,29.78-16.646,24.28z"/>
			<path fill="#FF98B5" d="M16.212,71.749c0.569-0.67-1.547-0.663-1.44-0.241C15.395,71.494,15.89,71.562,16.212,71.749z
				 M53.311,65.217c1.587-1.092,8.595-0.141,11.127-0.69c7.181-2.003,13.713-5.526,19.795-9.841
				c4.636-3.289,8.756-6.954,12.025-11.609c1.119-2.291,1.34-8.24,2.425-11.013c0.389-0.998-0.429-1.299-1.775-0.616
				c-8.032,4.093-23.379,21.216-33.307,23.875c9.365-13.385-0.234-34.466-18.657-27.151C30.206,33.946,33.924,51.585,44,60.562
				c-6.384,3.711-23.44,11.321-31.519,8.742c0.978,0.342,1.983,0.596,3.008,0.757c-2.117,0.047-4.234-0.034-6.351-0.235
				c0.724,2.981,11.616-0.938,12.413,1.186c-0.797-0.007-4.77,0.194-4.615,0.744c2.653,0.194,5.312,0.254,7.972,0.167
				c-3.189,2.813-14.785,0.06-18.536-0.141c0.315,2.458,7.087,0.898,6.484,3.31c10.236,1.722,20.218-1.474,30.092-4.689
				C46.599,69.15,50.115,67.381,53.311,65.217z M127.381,66.417c3.752,3.832,7.597,5.239,10.25,5.962
				c0.422,0.114,0.563,0.134,0.06,1.38c-1.373,3.403-1.004,10.477,0.041,13.579c2.565,7.563,6.886,9.808,13.947,16.606
				c2.88,2.768,9.914,7.798,13.472,10.351c9.19,6.605,11.066,7.744,15.159,10.062c4.094,2.305,1.588,5.051-6.149,7.262
				c-10.256,2.935-28.484,1.173-26.629,2.767c3.478,2.995,13.084,4.877,16.587,4.743c14.001-0.543,24.418-4.502,24.733-13.317
				c0.153-4.174-5.647-5.339-11.925-9.721c-4.013-2.807-8.213-6.035-13.057-9.56c-4.803-3.496-10.356-7.576-14.67-11.79
				c2.873,0.536,6.698,0.543,11.851-0.328c8.635-1.474,14.63-13.237,12.982-18.952c-0.322-1.125-0.69-2.19-1.112-3.195
				c0.496-0.877,0.335-2.418-1.554-5.098c-0.536-0.764-1.086-1.534-1.669-2.285c-0.254-0.328-0.254-0.388-0.04-0.636
				c3.068-3.537,4.676-6.197,5.493-11.643c0.517-3.423-0.516-4.24-2.224-4.776c-1.708-0.536-3.323,1.192-4.127,2.191
				c-2.251,2.793-3.202,6.826-4.313,10.088c-0.074,0.201-0.215,0.275-0.476,0.161c-1.34-0.576-2.921-1.012-4.837-1.233
				c-0.328-0.033-0.255-0.107-0.228-0.348c0.214-1.956,0.441-5.011,0.268-8.34c-0.288-5.272-2.713-7.067-3.986-7.168
				c-1.48-0.114-3.463,2.03-3.51,5.239c-0.033,2.23,1.42,7.289,2.305,10.149c0.04,0.127-0.188,0.395-0.335,0.409
				c-1.956,0.174-3.618,0.569-5.038,1.112c-0.354,0.141-0.516,0.02-0.623-0.254c-0.717-1.822-1.869-4.415-3.43-7.061
				c-2.693-4.548-5.004-4.75-6.264-4.388c-1.427,0.402-2.713,3.269-1.272,6.129c1.005,2.017,4.683,5.875,6.772,7.992
				c0.274,0.281,0.335,0.402,0.094,0.65c-1.092,1.132-1.883,2.351-2.472,3.523c-0.194,0.402-0.456,0.302-0.771,0.047
				c-2.687-2.23-7.463-4.689-10.645-5.145C125.278,60.903,125.05,64.039,127.381,66.417z M110.125,170.412
				c2.659,1.983,14.027,3.188,26.34,0.649c13.612-2.807,17.002-5.218,22.455-10.249c4.723-4.361,8.983-9.479,11.837-12.44
				c2.506-2.592,3.256-5.848,2.633-6.25c-2.987-1.942-8.508,4.448-8.508,4.448c-1.554,2.097-11.395,10.866-14.014,12.621
				c-5.688,3.893-9.908,5.493-17.23,6.605c-3.979,0.609-11.221,1.347-17.438-0.463C108.658,163.136,107.465,168.442,110.125,170.412
				z M90.906,130.165c-4.348,7.262-1.226,20.445,6.719,23.788c10.953,4.608,22.764-3.283,25.055-14.303
				c1.078-5.158,1.882-16.212-10.679-19.467C103.058,117.858,94.422,124.283,90.906,130.165z M75.136,90.064
				c5.594,2.532,6.967,3.034,9.834,3.457c0.382,0.054,0.362-0.007,0.315,0.448c-0.355,3.705,0.502,5.795,1.588,6.679
				c0.067,0.161,0.127,0.322,0.201,0.477c1.105,2.545,5.46,15.173,26.475,7.623c8.239-2.968,12.071-15.602,9.452-20.941
				c-0.114-0.228-0.228-0.455-0.349-0.676c0.932-1.099,0.845-3.825-2.425-6.049c-0.918-0.616-1.883-1.326-2.947-2.023
				c-0.469-0.315-0.563-0.65-0.382-1.206c1.781-5.439,2.479-6.605,3.209-10.825c0.481-2.807-0.309-4.401-1.615-4.716
				c-2.994-0.73-4.763,1.239-5.171,2.452c-1.434,4.147-1.963,7.242-2.479,10.638c-0.047,0.295-0.095,0.516-0.477,0.422
				c-1.694-0.422-4.126-0.388-6.276-0.261c-0.349,0.014-0.482,0.087-0.509-0.281c-0.154-1.956-0.924-6.197-1.567-9.137
				c-0.844-3.892-2.955-5.232-4.227-5.111c-1.48,0.141-3.048,2.599-2.532,5.768c0.341,2.097,2.458,6.491,3.838,9.198
				c0.047,0.101-0.081,0.375-0.194,0.416c-1.976,0.67-3.664,1.574-5.118,2.626c-0.1,0.074-0.422,0.006-0.496-0.101
				c-1.032-1.635-2.807-3.591-4.696-5.681c-2.023-2.258-4.709-3.122-5.895-2.539c-1.333,0.65-0.717,3.577,1.199,6.143
				c1.293,1.728,3.182,3.872,5.654,5.634c0.288,0.201,0.288,0.369,0.167,0.522c-1.045,1.353-2.124,3.631-2.72,4.883
				c-0.041,0.074-0.369,0.101-0.496,0.034c-3.082-1.555-6.545-2.506-9.506-2.539C73.187,85.341,72.108,88.684,75.136,90.064z
				 M190.326,71.327c1.44,4.026,2.954,8.032,4.267,12.085c-8.909-2.298-13.866-0.081-17.377,5.781
				c-4.348,7.269-3.148,20.191,4.797,23.534c8.22,3.456,12.092,1.118,16.03-4.294c0.08-2.292,0.127-4.804,0.054-7.403
				c1.232,24.438-10.524,53.057-16.412,66.14c-6.552,14.55-11.328,19.173-37.488,25.583c-31.404,7.697-63.211-1.493-71.264-3.905
				c-20.593-6.177-43.905-21.745-47.02-24.364c-7.965-6.679-9.995-11.274-10.444-12.547c-0.214-0.609,6.579,5.004,10.109,5.936
				c18.328,4.87,30.139-3.705,30.601-7.242c0.435-3.383-3.336-4.655-6.934-1.46c-2.425,2.144-9.921,2.479-12.038,2.525
				c-2.097,0.047-10.812-1.729-16.607-6.807c-0.06-0.054-0.308-0.281-0.683-0.636c0.013-0.007,0.027-0.021,0.047-0.021
				c1.266-0.576,2.639-1.019,4.126-1.359c7.865-1.81,9.265-11.114,8.836-16.132c-0.69-7.965-2.063-14.463-11.891-14.242
				c-0.837,0.021-8.843,1.475-15.703-1.769c-0.449-0.214-0.884-0.441-1.313-0.689l-8.534-4.837l-0.141-0.08
				c0.174-1.347,0.784-2.74,1.996-4.013c7.965-6.103,19.032-4.476,20.566-3.959c9.479,1.769,19.4,13.384,23.333,17.691
				s6.712,8.28,10.316,8.086c1.702-0.087,2.82-0.569,3.524-1.307c-2.586-8.782-10.879-13.746-16.171-20.881
				c-0.094-0.033-0.181-0.087-0.261-0.153C31.874,94.74,24.344,88.751,15.669,86.46c-7.162-1.889-19.501,0.161-24.244,6.699
				c-0.952,2.244-1.729,4.549-2.392,6.914c-0.121,0.441-0.281,0.844-0.462,1.212l-7.757-4.401l-10.263-5.814
				c-5.232-18.891-3.772-41.936,3.269-55.809c9.177,9.881,32.041,13.391,37.554-3.383c8.059-25.088-26.427-20.184-36.623-10.913
				c-4.87-16.312,13.009-57.176,34.607-48.266c-14.932,11.167-10.323,40,10.336,34.962c17.351-4.033,15.81-23.292,6.471-33.803
				c7.637-4.086,16.989-6.016,25.403-3.37c-2.707,5.339-4.509,8.97-4,14.892C48.112-8.25,51.361-1.686,56.995,2.1
				c6.605,4.428,15.883,4.83,19.052-6.444c3.638-11.609-1.374-21.41-10.564-28.524c6.444-5.581,16.038-9.124,24.599-8.059
				c6.431,0.804,12.179,4.16,15.508,9.787c-3.563,3.102-6.605,6.739-8.99,10.813c-4.146,6.994-6.431,18.147,0.771,23.581
				c15.408,11.609,22.388-4.75,22.777-15.857c0.348-9.908-7.034-16.165,5.747-18.395c12.937-2.251,28.646,3.122,35.914,14.47
				c-9.734,2.68-30.642,15.207-17.873,27.981c15.26,14.952,31.552-5.272,30.326-20.519c12.996-0.033,22.569,7.463,21.946,21.149
				c-15.481-2.485-38.646,12.668-19.528,27.868c0.51,0.402,1.019,0.757,1.527,1.079c0.275,1.976,1.782,6.471,2.178,8.112
				c0.944,3.892,9.251,20.338,9.841,21.953C190.251,71.173,190.292,71.247,190.326,71.327z"/>
		</g>
		<g>
			<path fill="none" stroke="#CA447F" stroke-width="0" stroke-linecap="round" stroke-linejoin="round" d="M11.704,69.009
				c0.254,0.107,0.516,0.201,0.777,0.294"/>
		</g>
	</g>
</g>
</svg>
