<?xml version="1.0" encoding="utf-8"?>
<!-- Generator: Adobe Illustrator 16.0.3, SVG Export Plug-In . SVG Version: 6.00 Build 0)  -->
<!DOCTYPE svg PUBLIC "-//W3C//DTD SVG 1.1//EN" "http://www.w3.org/Graphics/SVG/1.1/DTD/svg11.dtd">
<svg version="1.1" id="Layer_1" xmlns="http://www.w3.org/2000/svg" xmlns:xlink="http://www.w3.org/1999/xlink" x="0px" y="0px"
	 width="313.334px" height="265.333px" viewBox="0 0 313.334 265.333" enable-background="new 0 0 313.334 265.333"
	 xml:space="preserve">
<g>
	<g id="XMLID_14_">
		<g>
			<path fill="#FF98B5" d="M287.142,125.389c-1.769-4.516-6.479-16.694-8.153-20.579c-0.998-2.312-1.781-4.033-2.472-5.366
				c6.947-1.789,12.762-8.977,14.966-16.211c5.613,4.08,8.394,12.513,7.489,18.877c-0.375,8.682-3.818,19.782-11.342,24.498
				c-0.141-0.429-0.288-0.857-0.436-1.313C287.182,125.335,287.161,125.361,287.142,125.389z"/>
			<path fill="#F9DF00" d="M285.594,164.939c-3.939,5.413-7.812,7.751-16.03,4.301c-7.945-3.343-9.145-16.266-4.797-23.54
				c3.51-5.855,8.468-8.079,17.377-5.781c0.75,2.304,1.427,4.615,2.003,6.953c0.838,3.417,1.313,6.987,1.501,10.665
				C285.721,160.143,285.674,162.648,285.594,164.939z"/>
			<path fill="#F9DF00" d="M282.197,139.938c2.465,5.366,3.27,11.724,3.45,17.599c-0.188-3.678-0.663-7.248-1.501-10.665
				c-0.576-2.338-1.253-4.649-2.003-6.953C282.164,139.919,282.177,139.932,282.197,139.938z"/>
			<path fill="#FF98B5" d="M281.795,79.627c-1.125,4.093-4.006,11.201-9.793,9.084C267.634,84.136,269.295,78.074,281.795,79.627z"
				/>
			<path fill="#4D509B" d="M203.752,221.841c6.217,1.809,13.458,1.078,17.438,0.469c7.322-1.112,11.543-2.72,17.229-6.605
				c2.62-1.755,12.461-10.53,14.015-12.621c0,0,5.521-6.391,8.508-4.454c0.623,0.408-0.127,3.664-2.633,6.25
				c-2.854,2.961-7.114,8.079-11.837,12.446c-5.453,5.031-8.843,7.437-22.455,10.243c-12.313,2.539-23.681,1.34-26.341-0.644
				C195.017,224.949,196.209,219.644,203.752,221.841z"/>
			<path fill="#FF98B5" d="M252.32,48.806c0.167,5.426-2.962,11.649-7.45,14.745c-0.79,1.146-9.6-1.32-7.556-5.507
				C239.524,54.232,252.307,48.41,252.32,48.806z"/>
			<path fill="#4D509B" d="M250.92,144.815c-2.298,1.454-10.726,3.818-14.711-0.221c-2.352-2.358-2.432-6.9-2.325-10.203
				c0.121-3.805,1.628-5.372,4.877-7.328c2.419-1.447,5.567-2.204,8.307-1.22C260.164,130.547,254.738,142.391,250.92,144.815z"/>
			<path fill="#F9DF00" d="M236.209,144.595c3.985,4.039,12.413,1.675,14.711,0.221c3.818-2.425,9.244-14.269-3.853-18.972
				c-2.739-0.984-5.888-0.228-8.307,1.22c-3.249,1.956-4.756,3.523-4.877,7.328C233.777,137.694,233.857,142.236,236.209,144.595z
				 M231.238,129.428c1.206-2.331,4.414-10.27,14.664-8.843c3.216,0.449,5.259,2.935,7,4.75c2.854,2.968,4.281,4.776,5.868,4.495
				c0.63-0.114,1.34-0.402,1.702-1.052c0.422,1.005,0.79,2.063,1.112,3.195c1.647,5.714-4.348,17.478-12.983,18.951
				c-5.151,0.871-8.977,0.864-11.851,0.328c-3.563-3.496-6.29-7.087-7.047-10.53c0-0.007,0-0.007,0-0.014
				C228.947,136.087,230.106,131.599,231.238,129.428z"/>
			<path fill="#4D509B" d="M217.592,118.087c3.183,0.462,7.959,2.914,10.646,5.151c0.314,0.248,0.576,0.354,0.771-0.047
				c0.589-1.173,1.38-2.392,2.472-3.53c0.241-0.248,0.181-0.362-0.094-0.644c-2.091-2.123-5.769-5.976-6.772-7.998
				c-1.44-2.854-0.154-5.722,1.272-6.13c1.259-0.355,3.57-0.154,6.264,4.395c1.561,2.64,2.713,5.238,3.43,7.061
				c0.107,0.274,0.268,0.396,0.623,0.248c1.42-0.536,3.081-0.938,5.037-1.105c0.147-0.014,0.376-0.281,0.335-0.415
				c-0.884-2.86-2.338-7.912-2.304-10.143c0.047-3.209,2.029-5.353,3.51-5.245c1.273,0.101,3.698,1.902,3.986,7.168
				c0.174,3.336-0.054,6.391-0.269,8.347c-0.026,0.241-0.101,0.309,0.229,0.349c1.915,0.221,3.496,0.656,4.836,1.232
				c0.262,0.107,0.402,0.04,0.476-0.161c1.112-3.269,2.063-7.295,4.314-10.095c0.804-0.998,2.418-2.727,4.127-2.19
				c1.708,0.542,2.739,1.359,2.224,4.776c-0.817,5.446-2.425,8.105-5.493,11.643c-0.214,0.248-0.214,0.314,0.04,0.643
				c0.583,0.744,1.133,1.515,1.668,2.278c1.89,2.68,2.05,4.227,1.555,5.104c-0.362,0.649-1.072,0.938-1.702,1.052
				c-1.587,0.281-3.014-1.527-5.868-4.495c-1.741-1.815-3.784-4.301-7-4.75c-10.25-1.427-13.458,6.512-14.664,8.843
				c-1.132,2.171-2.291,6.659-1.534,11.281c0,0.007,0,0.007,0,0.014c0.757,3.443,3.483,7.034,7.047,10.53
				c4.314,4.214,9.868,8.287,14.671,11.784c4.844,3.53,9.044,6.759,13.057,9.56c6.277,4.381,12.078,5.553,11.924,9.727
				c-0.314,8.81-10.731,12.769-24.732,13.317c-3.504,0.134-13.109-1.748-16.587-4.749c-1.855-1.588,16.373,0.174,26.629-2.761
				c7.737-2.217,10.242-4.957,6.149-7.268c-4.093-2.312-5.969-3.457-15.159-10.056c-3.558-2.559-10.592-7.59-13.472-10.356
				c-7.062-6.793-11.382-9.037-13.948-16.601c-1.045-3.102-1.413-10.176-0.04-13.585c0.503-1.246,0.362-1.26-0.06-1.38
				c-2.653-0.724-6.498-2.124-10.25-5.956C212.602,120.552,212.829,117.41,217.592,118.087z"/>
			<path fill="#4D509B" d="M184.7,146.35c4.521-6.049,12.132-6.109,16.781,0.147c3.115,4.167,3.362,11.12-2.606,14.537
				c-3.235,1.855-9.07,2.605-12.514,0C182.523,158.146,181.559,150.536,184.7,146.35z"/>
			<path fill="#FF98B5" d="M196.551,35.193c1.755,2.854,2.673,6.404,2.666,7.824c0.536,2.599,1.354,7.329-2.928,11.04
				c-6.859,5.929-5.881-9.941-4.341-12.641C193.134,39.219,194.93,36.989,196.551,35.193z"/>
			<path fill="#F9DF00" d="M178.457,186.678c3.517-5.882,12.151-12.313,21.095-9.988c12.561,3.256,11.757,14.315,10.679,19.474
				c-2.291,11.014-14.102,18.911-25.055,14.303C177.23,207.123,174.109,193.939,178.457,186.678z"/>
			<path fill="#F9DF00" d="M186.361,161.034c3.443,2.605,9.278,1.855,12.514,0c5.969-3.417,5.722-10.37,2.606-14.537
				c-4.649-6.257-12.26-6.196-16.781-0.147C181.559,150.536,182.523,158.146,186.361,161.034z M178.45,148.915
				c0.375-1.647,1.855-11.636,14.838-11.401c3.256,0.054,6.826,1.286,8.863,2.773c3.329,2.418,5.969,4.334,7.476,3.778
				c0.215-0.074,0.409-0.234,0.576-0.429c0.121,0.228,0.234,0.455,0.349,0.677c2.619,5.339-1.213,17.979-9.452,20.947
				c-21.015,7.55-25.369-5.084-26.475-7.63c-0.074-0.147-0.134-0.309-0.201-0.476c0.563,0.462,1.186,0.596,1.735,0.455
				C177.612,157.242,177.559,152.808,178.45,148.915z"/>
			<path fill="#4D509B" d="M180.835,135.45c0.073,0.107,0.396,0.168,0.496,0.101c1.453-1.052,3.142-1.956,5.117-2.626
				c0.114-0.04,0.241-0.321,0.194-0.422c-1.38-2.7-3.496-7.095-3.838-9.191c-0.517-3.175,1.052-5.627,2.532-5.768
				c1.272-0.127,3.383,1.213,4.227,5.111c0.644,2.935,1.414,7.175,1.567,9.131c0.027,0.375,0.161,0.295,0.51,0.288
				c2.15-0.134,4.582-0.161,6.276,0.261c0.382,0.088,0.429-0.127,0.476-0.422c0.517-3.396,1.045-6.491,2.479-10.638
				c0.409-1.213,2.178-3.188,5.172-2.452c1.307,0.309,2.097,1.909,1.614,4.71c-0.729,4.227-1.427,5.386-3.208,10.832
				c-0.182,0.556-0.088,0.891,0.382,1.199c1.064,0.703,2.029,1.413,2.947,2.029c3.269,2.218,3.356,4.944,2.425,6.043
				c-0.167,0.194-0.361,0.354-0.576,0.429c-1.507,0.556-4.146-1.36-7.476-3.778c-2.037-1.487-5.607-2.72-8.863-2.773
				c-12.982-0.234-14.463,9.754-14.838,11.401c-0.892,3.893-0.838,8.327-2.291,8.695c-0.55,0.141-1.173,0.007-1.735-0.455
				c-1.085-0.878-1.942-2.968-1.588-6.679c0.047-0.449,0.067-0.396-0.314-0.442c-2.867-0.429-4.241-0.925-9.834-3.457
				c-3.028-1.38-1.95-4.723,1.855-4.669c2.961,0.033,6.424,0.984,9.506,2.539c0.127,0.061,0.455,0.04,0.496-0.04
				c0.596-1.253,1.675-3.53,2.72-4.884c0.12-0.147,0.12-0.321-0.168-0.522c-2.472-1.762-4.361-3.905-5.653-5.634
				c-1.917-2.56-2.533-5.493-1.199-6.137c1.186-0.589,3.872,0.281,5.895,2.539C178.028,131.859,179.804,133.815,180.835,135.45z"/>
			<path fill="#FF98B5" d="M155.07,47.814c-2.056,12.547-12.071,0.449-11.013-9.613c0.355-3.39,1.494-4.033,3.021-7.087
				C156.645,37.377,156.343,40.191,155.07,47.814z"/>
			<path fill="#CA447F" d="M278.988,104.81c1.675,3.885,6.385,16.063,8.153,20.579c0.02-0.027,0.04-0.054,0.053-0.094
				c0.147,0.455,0.295,0.884,0.436,1.313c7.523-4.716,10.967-15.816,11.342-24.498c0.904-6.364-1.876-14.798-7.489-18.877
				c-2.204,7.235-8.019,14.422-14.966,16.211C277.207,100.776,277.99,102.498,278.988,104.81z M272.002,88.711
				c5.787,2.117,8.668-4.991,9.793-9.084C269.295,78.074,267.634,84.136,272.002,88.711z M144.058,38.201
				c-1.059,10.062,8.957,22.16,11.013,9.613c1.273-7.623,1.575-10.437-7.992-16.7C145.551,34.168,144.413,34.812,144.058,38.201z
				 M79.352,91.746c10.216,0.375,14.068-7.637,10.39-11.663c-3.068-3.37-12.293-3.329-18.838,0.71
				C61.988,86.293,72.727,91.499,79.352,91.746z M107.521,53.146c5.815-4.803,2.418-17.826-3.946-16.399
				C92.931,39.125,98.411,60.656,107.521,53.146z M207.698,43.902c-0.389,11.114-7.369,27.466-22.777,15.856
				c-7.201-5.426-4.917-16.586-0.77-23.574c2.385-4.073,5.426-7.717,8.989-10.819c-3.329-5.62-9.077-8.983-15.508-9.78
				c-8.562-1.072-18.154,2.472-24.599,8.052c9.191,7.114,14.202,16.915,10.564,28.524c-3.168,11.274-12.446,10.879-19.052,6.445
				c-5.634-3.778-8.883-10.343-9.425-16.721c-0.509-5.922,1.293-9.553,3.999-14.885c-8.414-2.653-17.766-0.717-25.402,3.37
				c9.338,10.511,10.879,29.764-6.471,33.803c-20.66,5.031-25.269-23.795-10.337-34.962c-21.597-8.916-39.477,31.954-34.607,48.26
				c10.196-9.265,44.683-14.175,36.624,10.919c-5.513,16.774-28.377,13.257-37.555,3.376c-7.041,13.88-8.501,36.918-3.269,55.816
				l-7.074-4.013c-0.208-1.071-0.415-2.137-0.609-3.188c-2.492-13.572-3.289-28.056,0.074-41.561
				c1.259-5.064,4.87-10.625,5.018-15.093c-8.91-15.321,1.855-39.745,11.877-51.984C72.961,24.77,81.1,18.848,90.271,18.506
				c8.542-0.341,12.353,6.137,19.796,2.626c10.926-5.165,23.547-7.067,34.955-2.224c9.426-9.546,24.277-14.577,37.488-11.516
				c5.332,1.239,10.356,3.892,14.168,7.844c5.821,6.009,4.717,3.53,13.03,1.42c10.102-2.552,21.067-1.192,30.399,3.383
				c7.871,3.859,15.374,10.29,19.22,18.262c11.535-0.764,24.056,3.055,30.266,13.465c4.77,7.871,0.281,17.109,7.142,21.946
				c7.141,5.024,10.685,13.197,10.759,21.798c0,0,0,0.047,0,0.175c0,0.033,0,0.06,0,0.08c-0.067,11.736-5.701,30.635-19.32,32.437
				c1.635,4.776,2.981,8.434,4.568,13.98c4.83,16.882,0.69,57.772-19.239,91.314c-5.654,7.234-10.356,17.913-28.49,22.314
				c-21.866,5.318-37.106,9.74-91.415-4.776c-10.933-4.408-29.107-10.745-41.379-19.595c-7.577-5.399-13.545-11.274-18.436-17.599
				c0.021-0.02,0.034-0.033,0.047-0.047c4.301-4.676,8.099-8.815,8.099-8.815c1.574-1.896,3.417-3.249,5.54-4.214
				c0.375,0.349,0.623,0.576,0.684,0.63c5.794,5.084,14.51,6.859,16.607,6.813c2.117-0.047,9.613-0.382,12.038-2.525
				c3.597-3.195,7.369-1.923,6.933,1.454c-0.462,3.543-12.272,12.118-30.601,7.248c-3.53-0.932-10.323-6.545-10.108-5.936
				c0.449,1.267,2.479,5.868,10.443,12.541c3.115,2.619,26.428,18.188,47.021,24.37c8.052,2.412,39.859,11.597,71.264,3.899
				c26.16-6.404,30.937-11.033,37.487-25.577c5.601-12.439,16.5-38.921,16.5-62.508c0-1.22-0.026-2.432-0.087-3.638
				c-0.181-5.875-0.985-12.232-3.45-17.599c-0.021-0.007-0.033-0.02-0.054-0.02c-1.313-4.047-2.827-8.053-4.267-12.085
				c-0.034-0.074-0.074-0.154-0.101-0.229c-0.59-1.614-8.896-18.066-9.841-21.952c-0.396-1.642-1.903-6.137-2.178-8.119
				c-0.509-0.321-1.018-0.67-1.527-1.072c-19.119-15.207,4.046-30.359,19.527-27.874c0.623-13.68-8.949-21.176-21.945-21.142
				c1.226,15.247-15.066,35.471-30.326,20.519c-12.769-12.775,8.139-25.309,17.872-27.988c-7.268-11.342-22.978-16.721-35.913-14.47
				C200.664,27.744,208.046,34.001,207.698,43.902z M244.87,63.55c4.488-3.095,7.617-9.318,7.45-14.745
				c-0.014-0.396-12.796,5.426-15.006,9.238C235.271,62.23,244.08,64.696,244.87,63.55z M196.289,54.058
				c4.281-3.711,3.464-8.441,2.928-11.04c0.007-1.42-0.911-4.971-2.666-7.824c-1.621,1.795-3.417,4.026-4.603,6.223
				C190.408,44.116,189.43,59.986,196.289,54.058z"/>
			<path fill="#FF98B5" d="M131.691,96.107c0,0-0.006,0-0.013,0.007c0.563-1.267,1.708-2.218,2.981-2.74
				c4.408-2.378,10.752,1.394,10.899,7.147c-4.046,15.816-14.048,7.604-13.961-4.24C131.597,96.616,131.711,96.174,131.691,96.107z"
				/>
			<path fill="#CA447F" d="M78.977,149.666c4.743-6.532,17.083-8.582,24.244-6.699c8.675,2.291,16.205,8.286,22.978,14.135
				c0.081,0.061,0.167,0.114,0.261,0.147c5.292,7.141,13.586,12.099,16.171,20.881c-0.703,0.743-1.822,1.226-3.523,1.313
				c-3.604,0.194-6.384-3.778-10.316-8.092c-3.933-4.308-13.854-15.917-23.333-17.686c-1.534-0.522-12.601-2.15-20.566,3.959
				c-1.213,1.272-1.822,2.666-1.997,4.013l-6.772-3.839c0.181-0.368,0.341-0.776,0.462-1.219
				C77.249,154.221,78.025,151.91,78.977,149.666z"/>
			<path fill="#CA447F" d="M131.691,96.107c0.02,0.066-0.094,0.509-0.094,0.174c0.041-0.094,0.067-0.141,0.081-0.167
				C131.685,96.107,131.691,96.107,131.691,96.107z"/>
			<path fill="#4D509B" d="M92.884,167.237c6.86,3.242,14.865,1.795,15.703,1.769c9.827-0.215,11.201,6.283,11.891,14.242
				c0.429,5.018-0.972,14.322-8.836,16.138c-1.487,0.335-2.861,0.783-4.127,1.359c-0.02,0-0.033,0.014-0.047,0.021
				c-2.124,0.965-3.966,2.317-5.54,4.214c0,0-3.798,4.14-8.099,8.815c-0.013,0.014-0.026,0.027-0.047,0.047
				c-5.546,6.029-11.904,12.956-12.051,13.117c-3.49,3.992-6.9,8.052-10.417,12.031c-2.833,3.222-5.459,6.705-8.722,9.412
				c-4.314,3.577-8.816,5.988-15.18,3.437c-3.598-1.434-7.664-1.977-10.404-4.83c-3.37-3.53-5.754-7.644-6.371-12.849
				c-0.609-5.158,0.422-9.881,2.077-14.557c1.065-2.981,2.76-5.734,4.006-8.636c0.295-0.71,0.261-1.969-0.201-2.465
				c-0.482-0.536-7.041-0.274-13.077-2.914c-4.776-2.097-10.296-4.917-10.825-10.685c-0.563-6.083,4.455-12.621,11.368-16.279
				c6.92-3.65,9.137-1.748,9.405-3.383c0.101-0.643-8.769-3.242-9.861-3.577c-7.416-2.271-9.801-7.69-11.422-12.266
				c-1.628-4.575-0.502-9.653,0.482-12.447c3.148-8.909,16.305-19.071,37.132-4.126l1.306,0.743l7.074,4.013l10.263,5.809
				l7.757,4.407l6.772,3.839l0.141,0.08l8.535,4.837C92,166.802,92.435,167.029,92.884,167.237z M109.296,189.451
				c3.45-2.74,1.802-10.886-2.338-10.792c-3.396,0.08-6.84-0.429-10.163-1.112c-0.375-0.087-0.757-0.161-1.139-0.248
				c-3.872-0.817-7.804-1.755-11.348-3.416c-4.14-1.956-8.132-4.16-12.045-6.505c-2.747-1.661-5.446-3.39-8.132-5.158
				c-3.175-2.077-6.324-4.207-9.486-6.331c-0.241-0.167-0.489-0.335-0.737-0.502c-5.869-4.033-12.534-9.526-19.715-10.002
				c-4.086-0.274-9.593-1.313-10.839,6.612c-0.784,5.084,2.03,8.809,4.877,10.249c6.196,3.136,13.827,5.922,20.405,8.28
				c0.154,0.073,8.052,2.994,8.233,5.231c0.301,3.377-2.332,3.799-5.774,4.448c-17.759,3.296-27.587,2.981-28.009,9.794
				c-0.04,0.496,0.074,2.432,1.494,5.045c1.427,2.633,9.921,6.564,21.028,3.329c2.747-0.804,12.011-4.348,13.345-4.823
				c3.041-1.072,5.861-2.673,7.174-1.059c1.815,2.237,0.857,3.323-1.976,5.681c-6.893,5.708-16.332,17.98-18.61,24.552
				c-0.609,1.735-6.149,16.245,5.721,17.177c3.068,0.234,4.2-1.534,5.661-2.78c6.906-5.861,12.534-12.855,17.538-20.392
				c2.532-3.785,8.3-9.6,11.04-12.272c0.603-0.583,1.065-1.025,1.306-1.253c0.107-0.107,0.174-0.168,0.188-0.188
				c1.199-1.126,5.5-4.16,10.088-7.463c0.637-0.469,1.286-0.925,1.929-1.394c0.637-0.462,1.24-0.844,1.802-1.139
				C104.158,191.213,106.349,191.789,109.296,189.451z"/>
			<path fill="#FF98B5" d="M106.958,178.659c4.14-0.094,5.788,8.052,2.338,10.792c-2.948,2.338-5.138,1.762-8.481,3.57
				c-0.563,0.295-1.166,0.677-1.802,1.139c-0.643,0.469-1.292,0.925-1.929,1.394c-4.589,3.303-8.89,6.337-10.088,7.463
				c-0.014,0.02-0.081,0.08-0.188,0.188c-0.241,0.228-0.703,0.67-1.306,1.253c-2.74,2.673-8.508,8.487-11.04,12.272
				c-5.004,7.536-10.631,14.53-17.538,20.392c-1.46,1.246-2.593,3.015-5.661,2.78c-11.871-0.932-6.331-15.441-5.721-17.177
				c2.278-6.571,11.717-18.844,18.61-24.552c2.833-2.357,3.792-3.443,1.976-5.681c-1.313-1.614-4.133-0.014-7.174,1.059
				c-1.333,0.476-10.598,4.02-13.345,4.823c-11.107,3.235-19.601-0.696-21.028-3.329c-1.42-2.613-1.534-4.549-1.494-5.045
				c0.422-6.813,10.25-6.498,28.009-9.794c3.443-0.649,6.076-1.071,5.774-4.448c-0.181-2.237-8.079-5.158-8.233-5.231
				c-6.578-2.358-14.208-5.145-20.405-8.28c-2.847-1.44-5.661-5.165-4.877-10.249c1.246-7.925,6.752-6.887,10.839-6.612
				c7.182,0.476,13.847,5.969,19.715,10.002c0.248,0.167,0.496,0.335,0.737,0.502c3.162,2.124,6.311,4.254,9.486,6.331
				c2.686,1.769,5.386,3.497,8.132,5.158c3.913,2.345,7.905,4.549,12.045,6.505c3.544,1.661,7.476,2.599,11.348,3.416
				c0.382,0.087,0.764,0.161,1.139,0.248C100.119,178.23,103.562,178.739,106.958,178.659z"/>
			<path fill="#FF98B5" d="M103.575,36.748c6.364-1.427,9.761,11.596,3.946,16.399C98.411,60.656,92.931,39.125,103.575,36.748z"/>
			<path fill="#CA447F" d="M103.763,128.256c-0.322-0.188-0.817-0.248-1.44-0.241C102.215,127.593,104.333,127.586,103.763,128.256z
				"/>
			<path fill="#CA447F" d="M131.597,96.281c-0.087,11.844,9.915,20.057,13.961,4.24c-0.147-5.754-6.491-9.525-10.899-7.147
				c-1.273,0.522-2.418,1.474-2.981,2.74C131.664,96.141,131.638,96.188,131.597,96.281z M186.234,88.578
				c-1.085,2.773-1.307,8.715-2.425,11.013c-3.27,4.655-7.39,8.313-12.025,11.609c-6.083,4.308-12.614,7.831-19.795,9.841
				c-2.532,0.549-9.54-0.402-11.127,0.689c-3.195,2.164-6.712,3.933-10.363,5.186c-9.874,3.209-19.855,6.404-30.092,4.683
				c0.603-2.405-6.17-0.851-6.484-3.303c3.751,0.194,15.347,2.954,18.536,0.141c-2.66,0.087-5.319,0.021-7.972-0.174
				c-0.154-0.543,3.818-0.744,4.616-0.737c-0.797-2.13-11.69,1.789-12.413-1.186c2.117,0.194,4.233,0.281,6.351,0.234
				c-1.025-0.161-2.03-0.422-3.008-0.757c8.079,2.579,25.134-5.031,31.519-8.742c-10.075-8.983-13.793-26.615,0.945-32.39
				c18.422-7.315,28.021,13.76,18.657,27.145c9.928-2.653,25.275-19.782,33.307-23.869C185.806,87.271,186.623,87.58,186.234,88.578
				z"/>
			<path fill="#FF98B5" d="M89.742,80.083c3.678,4.026-0.174,12.038-10.39,11.663c-6.625-0.248-17.364-5.453-8.448-10.953
				C77.449,76.754,86.674,76.713,89.742,80.083z"/>
			<path fill="#FF98B5" d="M103.763,128.256c0.569-0.67-1.548-0.663-1.44-0.241C102.946,128.008,103.441,128.068,103.763,128.256z
				 M112.458,128.437c-3.189,2.813-14.785,0.054-18.536-0.141c0.314,2.452,7.087,0.897,6.484,3.303
				c10.236,1.722,20.218-1.474,30.092-4.683c3.651-1.253,7.168-3.021,10.363-5.186c1.588-1.092,8.595-0.141,11.127-0.689
				c7.181-2.01,13.712-5.533,19.795-9.841c4.636-3.296,8.756-6.954,12.025-11.609c1.118-2.298,1.34-8.24,2.425-11.013
				c0.389-0.998-0.429-1.307-1.775-0.616c-8.032,4.086-23.379,21.215-33.307,23.869c9.365-13.385-0.235-34.46-18.657-27.145
				c-14.738,5.774-11.02,23.406-0.945,32.39c-6.384,3.711-23.439,11.321-31.519,8.742c0.978,0.335,1.983,0.596,3.008,0.757
				c-2.117,0.047-4.234-0.04-6.351-0.234c0.723,2.975,11.616-0.944,12.413,1.186c-0.797-0.007-4.77,0.194-4.616,0.737
				C107.139,128.457,109.799,128.523,112.458,128.437z M214.933,122.93c3.752,3.832,7.597,5.232,10.25,5.956
				c0.422,0.12,0.563,0.134,0.06,1.38c-1.373,3.409-1.005,10.483,0.04,13.585c2.566,7.563,6.887,9.808,13.948,16.601
				c2.88,2.767,9.914,7.798,13.472,10.356c9.19,6.599,11.066,7.744,15.159,10.056c4.093,2.311,1.588,5.051-6.149,7.268
				c-10.256,2.935-28.484,1.173-26.629,2.761c3.478,3.001,13.083,4.883,16.587,4.749c14.001-0.549,24.418-4.508,24.732-13.317
				c0.154-4.174-5.646-5.346-11.924-9.727c-4.013-2.801-8.213-6.029-13.057-9.56c-4.803-3.497-10.356-7.57-14.671-11.784
				c2.874,0.536,6.699,0.543,11.851-0.328c8.636-1.474,14.631-13.237,12.983-18.951c-0.322-1.132-0.69-2.19-1.112-3.195
				c0.495-0.878,0.335-2.425-1.555-5.104c-0.535-0.764-1.085-1.534-1.668-2.278c-0.254-0.328-0.254-0.395-0.04-0.643
				c3.068-3.537,4.676-6.196,5.493-11.643c0.516-3.417-0.516-4.234-2.224-4.776c-1.709-0.536-3.323,1.192-4.127,2.19
				c-2.251,2.8-3.202,6.826-4.314,10.095c-0.073,0.201-0.214,0.269-0.476,0.161c-1.34-0.576-2.921-1.012-4.836-1.232
				c-0.329-0.04-0.255-0.107-0.229-0.349c0.215-1.956,0.442-5.011,0.269-8.347c-0.288-5.266-2.713-7.067-3.986-7.168
				c-1.48-0.107-3.463,2.036-3.51,5.245c-0.034,2.23,1.42,7.282,2.304,10.143c0.041,0.134-0.188,0.401-0.335,0.415
				c-1.956,0.168-3.617,0.569-5.037,1.105c-0.355,0.147-0.516,0.026-0.623-0.248c-0.717-1.822-1.869-4.421-3.43-7.061
				c-2.693-4.549-5.005-4.75-6.264-4.395c-1.427,0.408-2.713,3.275-1.272,6.13c1.004,2.022,4.682,5.875,6.772,7.998
				c0.274,0.281,0.335,0.396,0.094,0.644c-1.092,1.139-1.883,2.357-2.472,3.53c-0.194,0.401-0.456,0.295-0.771,0.047
				c-2.687-2.237-7.463-4.689-10.646-5.151C212.829,117.41,212.602,120.552,214.933,122.93z M203.752,221.841
				c-7.543-2.197-8.735,3.108-6.076,5.084c2.66,1.983,14.028,3.183,26.341,0.644c13.612-2.807,17.002-5.212,22.455-10.243
				c4.723-4.367,8.983-9.485,11.837-12.446c2.506-2.586,3.256-5.842,2.633-6.25c-2.987-1.937-8.508,4.454-8.508,4.454
				c-1.554,2.091-11.395,10.866-14.015,12.621c-5.687,3.886-9.907,5.493-17.229,6.605
				C217.21,222.919,209.969,223.649,203.752,221.841z M177.633,15.585c6.431,0.797,12.179,4.16,15.508,9.78
				c-3.563,3.102-6.604,6.746-8.989,10.819c-4.147,6.987-6.432,18.148,0.77,23.574c15.408,11.609,22.389-4.743,22.777-15.856
				c0.348-9.901-7.034-16.158,5.747-18.396c12.936-2.25,28.646,3.128,35.913,14.47c-9.733,2.679-30.641,15.213-17.872,27.988
				c15.26,14.952,31.552-5.272,30.326-20.519c12.996-0.034,22.568,7.462,21.945,21.142c-15.481-2.485-38.646,12.667-19.527,27.874
				c0.51,0.402,1.019,0.751,1.527,1.072c0.274,1.982,1.782,6.478,2.178,8.119c0.944,3.886,9.251,20.338,9.841,21.952
				c0.026,0.074,0.066,0.154,0.101,0.229c1.439,4.032,2.954,8.038,4.267,12.085c-8.909-2.298-13.867-0.074-17.377,5.781
				c-4.348,7.274-3.148,20.197,4.797,23.54c8.219,3.45,12.091,1.112,16.03-4.301c0.08-2.291,0.127-4.797,0.054-7.402
				c0.061,1.206,0.087,2.418,0.087,3.638c0,23.587-10.899,50.068-16.5,62.508c-6.551,14.544-11.327,19.173-37.487,25.577
				c-31.404,7.697-63.211-1.487-71.264-3.899c-20.593-6.183-43.905-21.751-47.021-24.37c-7.965-6.673-9.995-11.274-10.443-12.541
				c-0.214-0.609,6.578,5.004,10.108,5.936c18.329,4.87,30.139-3.705,30.601-7.248c0.436-3.377-3.336-4.649-6.933-1.454
				c-2.425,2.144-9.921,2.479-12.038,2.525c-2.097,0.047-10.813-1.729-16.607-6.813c-0.061-0.054-0.308-0.281-0.684-0.63
				c0.014-0.007,0.027-0.021,0.047-0.021c1.266-0.576,2.64-1.024,4.127-1.359c7.864-1.815,9.265-11.12,8.836-16.138
				c-0.69-7.959-2.063-14.457-11.891-14.242c-0.837,0.026-8.843,1.474-15.703-1.769c-0.449-0.208-0.884-0.436-1.313-0.684
				l-8.535-4.837l-0.141-0.08c0.174-1.347,0.784-2.74,1.997-4.013c7.965-6.109,19.032-4.481,20.566-3.959
				c9.479,1.769,19.4,13.378,23.333,17.686c3.932,4.313,6.712,8.286,10.316,8.092c1.702-0.087,2.82-0.569,3.523-1.313
				c-2.585-8.782-10.879-13.74-16.171-20.881c-0.094-0.033-0.181-0.087-0.261-0.147c-6.772-5.849-14.302-11.844-22.978-14.135
				c-7.161-1.883-19.5,0.167-24.244,6.699c-0.951,2.244-1.728,4.555-2.392,6.913c-0.121,0.442-0.281,0.851-0.462,1.219l-7.757-4.407
				l-10.263-5.809c-5.232-18.897-3.771-41.936,3.269-55.816c9.178,9.881,32.042,13.398,37.555-3.376
				c8.059-25.095-26.428-20.184-36.624-10.919c-4.87-16.306,13.01-57.176,34.607-48.26c-14.932,11.167-10.323,39.993,10.337,34.962
				c17.35-4.04,15.81-23.292,6.471-33.803c7.637-4.086,16.989-6.022,25.402-3.37c-2.706,5.333-4.508,8.963-3.999,14.885
				c0.542,6.377,3.792,12.942,9.425,16.721c6.605,4.435,15.883,4.83,19.052-6.445c3.638-11.609-1.373-21.41-10.564-28.524
				C159.479,18.057,169.071,14.514,177.633,15.585z M178.457,186.678c-4.348,7.262-1.227,20.445,6.719,23.788
				c10.953,4.608,22.764-3.289,25.055-14.303c1.078-5.158,1.882-16.218-10.679-19.474
				C190.608,174.365,181.974,180.796,178.457,186.678z M186.448,132.925c-1.976,0.67-3.664,1.574-5.117,2.626
				c-0.101,0.067-0.423,0.007-0.496-0.101c-1.031-1.635-2.807-3.591-4.696-5.681c-2.022-2.258-4.709-3.128-5.895-2.539
				c-1.333,0.644-0.717,3.577,1.199,6.137c1.292,1.729,3.182,3.872,5.653,5.634c0.288,0.201,0.288,0.375,0.168,0.522
				c-1.045,1.354-2.124,3.631-2.72,4.884c-0.041,0.08-0.369,0.101-0.496,0.04c-3.082-1.555-6.545-2.506-9.506-2.539
				c-3.805-0.054-4.884,3.289-1.855,4.669c5.593,2.532,6.967,3.028,9.834,3.457c0.382,0.047,0.361-0.007,0.314,0.442
				c-0.354,3.711,0.503,5.801,1.588,6.679c0.067,0.167,0.127,0.328,0.201,0.476c1.105,2.546,5.46,15.18,26.475,7.63
				c8.239-2.968,12.071-15.608,9.452-20.947c-0.114-0.222-0.228-0.449-0.349-0.677c0.932-1.099,0.844-3.825-2.425-6.043
				c-0.918-0.616-1.883-1.326-2.947-2.029c-0.47-0.309-0.563-0.644-0.382-1.199c1.781-5.446,2.479-6.605,3.208-10.832
				c0.482-2.801-0.308-4.401-1.614-4.71c-2.994-0.736-4.763,1.239-5.172,2.452c-1.434,4.146-1.962,7.241-2.479,10.638
				c-0.047,0.295-0.094,0.51-0.476,0.422c-1.694-0.422-4.126-0.395-6.276-0.261c-0.349,0.007-0.482,0.087-0.51-0.288
				c-0.153-1.956-0.924-6.196-1.567-9.131c-0.844-3.898-2.954-5.238-4.227-5.111c-1.48,0.141-3.049,2.593-2.532,5.768
				c0.342,2.097,2.458,6.491,3.838,9.191C186.689,132.604,186.563,132.885,186.448,132.925z"/>
		</g>
		<g>
			<path fill="none" stroke="#CA447F" stroke-width="0" stroke-linecap="round" stroke-linejoin="round" d="M99.254,125.522
				c0.255,0.101,0.516,0.194,0.777,0.295"/>
		</g>
	</g>
</g>
</svg>
