<?xml version="1.0" encoding="UTF-8" standalone="no"?>
<svg width="90px" height="90px" viewBox="0 0 90 90" version="1.1" xmlns="http://www.w3.org/2000/svg" xmlns:xlink="http://www.w3.org/1999/xlink">
    <!-- Generator: Sketch 3.7.2 (28276) - http://www.bohemiancoding.com/sketch -->
    <title>Group</title>
    <desc>Created with Sketch.</desc>
    <defs></defs>
    <g id="Page-1" stroke="none" stroke-width="1" fill="none" fill-rule="evenodd">
        <g id="Brewing-Animation-Film-(1)" stroke="#FFFFFF">
            <g id="Brewing_machines">
                <g id="Group">
                    <circle id="Oval" stroke-width="10" cx="44.8" cy="44.8" r="34"></circle>
                    <path d="M44.8,10.8 L44.8,78.7" id="Shape" stroke-width="3"></path>
                    <path d="M25.3,16.9 L64.2,72.6" id="Shape" stroke-width="3"></path>
                    <path d="M12.8,33.1 L76.7,56.4" id="Shape" stroke-width="3"></path>
                    <path d="M11.9,53.6 L77.6,36" id="Shape" stroke-width="3"></path>
                    <path d="M22.9,70.8 L66.6,18.8" id="Shape" stroke-width="3"></path>
                    <path d="M44.8,6.8 L44.8,0.4" id="Shape" stroke-width="9"></path>
                    <path d="M25.8,11.9 L22.6,6.3" id="Shape" stroke-width="9"></path>
                    <path d="M11.9,25.8 L6.3,22.6" id="Shape" stroke-width="9"></path>
                    <path d="M6.8,44.7 L0.4,44.7" id="Shape" stroke-width="9"></path>
                    <path d="M11.9,63.7 L6.3,66.9" id="Shape" stroke-width="9"></path>
                    <path d="M25.8,77.6 L22.6,83.1" id="Shape" stroke-width="9"></path>
                    <path d="M44.8,82.7 L44.8,89.1" id="Shape" stroke-width="9"></path>
                    <path d="M63.7,77.6 L66.9,83.1" id="Shape" stroke-width="9"></path>
                    <path d="M77.6,63.7 L83.2,66.9" id="Shape" stroke-width="9"></path>
                    <path d="M82.7,44.7 L89.1,44.7" id="Shape" stroke-width="9"></path>
                    <path d="M77.6,25.8 L83.2,22.6" id="Shape" stroke-width="9"></path>
                    <path d="M63.7,11.9 L66.9,6.3" id="Shape" stroke-width="9"></path>
                </g>
            </g>
        </g>
    </g>
</svg>