<?xml version="1.0" encoding="UTF-8" standalone="no"?>
<svg width="45px" height="37px" viewBox="0 0 45 37" version="1.1" xmlns="http://www.w3.org/2000/svg" xmlns:xlink="http://www.w3.org/1999/xlink">
    <g id="Page-1" stroke="none" stroke-width="1" fill="none" fill-rule="evenodd">
        <g id="Mashing_assets" transform="translate(0.000000, -330.000000)" fill="#4998D2">
            <path d="M28.7,359.6 C34.1,369.5 9.9,369.1 14.8,356.7 C15.2,355.7 15,355.3 14.2,356.1 C2.9,366.5 -4.7,346.7 6.2,343.7 C6.9,343.5 7,343.3 6.5,342.7 C-2.4,334.2 13.2,327.2 17.1,334.4 C17.5,335.2 17.7,335.6 18.7,334.4 C26,326 36.9,333.8 32.9,342.2 C32.5,343 32.9,343.1 33.5,342.5 C44.3,334 50.1,351.3 38.3,352.9 C37.2,353 37.2,353.2 38.2,353.7 C50.1,359.2 31.3,372.7 28,359.8 C28,359.4 28.6,359.4 28.7,359.6 L28.7,359.6 Z" id="Shape"></path>
        </g>
    </g>
</svg>