<?xml version="1.0" encoding="UTF-8" standalone="no"?>
<svg width="22px" height="31px" viewBox="0 0 22 31" version="1.1" xmlns="http://www.w3.org/2000/svg" xmlns:xlink="http://www.w3.org/1999/xlink">
    <g id="Page-1" stroke="none" stroke-width="1" fill="none" fill-rule="evenodd">
        <path d="M4.7,4.1 C5.5,4.4 6.3,4.5 7,5 C7.8,5.5 8.2,5.3 8.7,4.5 C9.5,3.1 10.5,1.8 12,1.1 C13.4,0.5 14.4,0.8 15.6,1.7 C17.1,2.8 16.9,4.5 17.6,5.8 C17.9,6.3 18.4,6.7 18.9,7 C19.3,7.3 19.9,7.3 20.2,7.6 C21.7,8.9 21.8,10.6 20.9,12.4 C19.3,15.7 16.8,18.1 14.2,20.5 C13.2,21.5 12.5,22.9 11.6,24.1 C10.4,25.7 9.2,27.3 7.9,28.9 C7.5,29.4 7.1,29.9 6.6,30.4 C6.3,30.6 6,30.7 5.6,30.9 C5.5,30.6 5.2,30.3 5.2,30 C5.2,29 5.4,28 5.3,27 C5.2,25.6 5,24.1 4.8,22.7 C4.6,20.7 3.6,19 2.7,17.2 C1,13.8 -0.2,10.3 1,6.5 C1.7,5.3 3.2,4.3 4.7,4.1 L4.7,4.1 Z" id="Shape" fill="#FF7BAC"></path>
    </g>
</svg>