<?xml version="1.0" encoding="UTF-8" standalone="no"?>
<svg width="13px" height="13px" viewBox="0 0 13 13" version="1.1" xmlns="http://www.w3.org/2000/svg" xmlns:xlink="http://www.w3.org/1999/xlink">
    <g id="Page-1" stroke="none" stroke-width="1" fill="none" fill-rule="evenodd">
        <g id="Mashing_assets" fill="#EEDD34">
            <path d="M12.2656854,9.96568542 C7.76568542,6.16568542 7.66568542,5.66568542 10.5656854,0.565685425 C10.6656854,0.365685425 10.5656854,0.165685425 10.4656854,0.0656854249 C10.2656854,-0.0343145751 10.0656854,-0.0343145751 9.96568542,0.165685425 C6.16568542,4.66568542 5.66568542,4.76568542 0.565685425,1.86568542 C0.365685425,1.76568542 0.165685425,1.76568542 0.0656854249,1.96568542 C-0.0343145751,2.16568542 -0.0343145751,2.36568542 0.165685425,2.56568542 C4.66568542,6.36568542 4.76568542,6.86568542 1.86568542,11.9656854 C1.76568542,12.1656854 1.86568542,12.3656854 1.96568542,12.4656854 C2.16568542,12.5656854 2.36568542,12.5656854 2.46568542,12.3656854 C6.26568542,7.86568542 6.76568542,7.76568542 11.8656854,10.6656854 C12.0656854,10.7656854 12.2656854,10.7656854 12.3656854,10.5656854 C12.4656854,10.2656854 12.4656854,10.0656854 12.2656854,9.96568542 L12.2656854,9.96568542 Z" id="Shape"></path>
        </g>
    </g>
</svg>