<?xml version="1.0" encoding="UTF-8" standalone="no"?>
<svg width="71px" height="97px" viewBox="0 0 71 97" version="1.1" xmlns="http://www.w3.org/2000/svg" xmlns:xlink="http://www.w3.org/1999/xlink">
    <!-- Generator: Sketch 3.6.1 (26313) - http://www.bohemiancoding.com/sketch -->
    <title>label</title>
    <desc>Created with Sketch.</desc>
    <defs></defs>
    <g id="Page-1" stroke="none" stroke-width="1" fill="none" fill-rule="evenodd">
        <g id="label">
            <rect id="Rectangle-path" fill="#FFFFFF" x="0.2" y="0.2" width="70" height="96"></rect>
            <g id="Group" transform="translate(12.000000, 12.000000)" fill="#000000">
                <path d="M11.9,20.3 C10.8,19 10,17.2 9.5,16.3 C9.3,16 9.5,15.7 9.9,15.6 C11.8,15.4 13,19.5 14,19.1 C14.9,18.4 12.8,15.7 13.3,14.3 C13.4,13.9 13.7,14.2 14.2,14.8 C15.3,16.5 16.1,17.8 16.7,19.7 C17.1,20.8 18.1,24.8 18.5,25.5 C18.6,25.7 19,26 19.1,25.8 C19.1,25.3 18.8,22.8 18.6,21.9 C18.2,20 17.3,17.4 16.3,15.6 C15.6,14.4 14.8,12.7 13.3,12.4 C11,11.8 11.7,13.9 12,15.3 C11.2,14.7 8.9,13.4 8.3,14.7 C7.8,15.9 8.7,17.6 9.3,18.6 C8.7,18.4 7.5,17.8 7,18.4 C6.5,19 6.5,20.2 7,20.8 C8.4,22.5 13,25.3 13.7,25.8 C14.6,26.4 15.5,27.1 16.2,27.8 C17.4,29 17.8,29.8 18.7,31.2 C18.8,31.4 19.3,31.9 19.3,31.2 C19.1,28.5 16.4,26.5 14.2,25 C12.8,24 7.5,21.4 7.7,19.3 C7.7,19 8,19.1 8.1,19.1 C9.3,19.5 10.3,20.4 11.4,21 C11.7,21.2 12.1,20.5 11.9,20.3 L11.9,20.3 Z" id="Shape"></path>
                <path d="M31,4.5 C32.3,5.6 30.5,8.2 30.3,9.4 C31.5,8.1 34.3,6.1 35.6,8.3 C36.8,10.4 35,13.3 33.7,14.9 C32.5,16.4 30.9,17.7 29.9,19.4 C29.6,19.8 27.9,22 27.1,27.9 C27.1,28.1 26.6,27.9 26.5,27.7 C26.2,24.6 27.7,20.8 29.2,18.4 C30.2,16.9 31.3,15.5 32.5,14.2 C33.4,13.2 34.9,10.6 34.2,9.2 C33.5,7.6 30.2,10.8 29.8,11.3 C28.9,12.2 28.1,13.2 27.8,13.2 C27.5,13.1 28.1,11.6 28.3,11 C28.5,10.4 29.9,6.5 29.6,6.2 C28.7,6.5 28.1,7.5 26.6,9.6 C26,10.5 25.4,11.2 25.2,11 C24.1,10.1 25.3,7.5 25.5,7 C26.2,5 27.5,3.3 26,2.6 C22.6,2.1 21.5,6.9 21.5,10 C21.5,10.7 22.9,18.6 23.2,20.2 C23.8,23.1 24.4,25.9 23.7,28.7 C23.5,29.4 23.4,30.1 23.2,30.7 C23,31.3 22.6,30.6 22.5,30.3 C22.4,29.6 22.8,28.7 22.9,27.9 C23,27 23.1,26.2 23,25.3 C22.9,22 21.8,18.8 21.2,15.6 C20.6,12.6 19.8,9.4 20.8,6.4 C21.6,4.1 23.3,0.9 26.1,1 C27.2,1 27.6,1.4 27.8,2.5 C27.9,3.3 27.8,4 27.4,4.8 C27.3,5.1 25.5,9.2 25.9,8.8 C26.6,7.7 29.5,3.3 31,4.5 L31,4.5 Z" id="Shape"></path>
                <path d="M30.8,48.2 C29.3,48.1 28.9,48.2 28.1,48.6 C28,48.6 27.7,48.4 28,48.1 C28.9,47 29.3,47.1 30.7,47.1 C32,47.2 33.8,46.9 34.4,45.7 C34,45.3 31.4,44.5 32.8,43.8 C33.2,43.6 34.3,43.9 34.8,43.7 C35.3,43.6 36.3,43.3 36.5,42.8 C37.1,41.4 35,41.7 34.4,41.2 C33.3,40.3 36,40.1 36.7,39.7 C37.1,39.5 37.6,39 37.3,38.6 C36.2,37.4 32.8,39.5 31,41.2 C28,43.9 26.6,48.1 26,47.9 C25.2,47.7 28.3,42.5 29.7,41 C31,39.6 32.5,38.5 34.1,37.8 C35.2,37.3 37.2,36.8 38.1,38 C39.2,39.4 37.5,40.3 36,40.8 C37.3,41.1 37.8,41.9 37.9,42.2 C38.1,42.8 37.5,44.4 35.9,44.6 C35.4,44.7 34.9,44.6 34.8,44.6 C36.2,45 36.8,45.9 34.2,47.2 C34.2,47.3 32.3,48.3 30.8,48.2 L30.8,48.2 Z" id="Shape"></path>
                <path d="M23.6,42.4 C23.1,40.6 25.6,37.3 30.7,35.4 C35.8,33.6 39.7,31.6 38.1,30.7 C36.5,30.6 35.8,31.2 34.5,31.5 C33.6,31.7 32.9,31.4 33.8,30.6 C35.6,29 37.8,27.2 38.9,25 C39.1,24.6 39.4,23.6 38.6,23.7 C37.3,23.9 36.2,24.7 35.1,25.5 C34.1,26.3 33,27.3 32.6,27.3 C32.2,27.3 32.4,26.7 33.1,24.8 C33.8,23.1 34,22.5 34.3,21.4 C34.7,19.8 33.4,20.4 32.9,21 C32.1,22 31.6,23 31.2,24.3 C30.5,26.7 29.9,29.1 28.9,31.3 C28.4,32.4 27.9,33.6 27.3,34.6 C27,35.1 26.6,35.6 26.1,36.1 C25.8,36.4 25.2,36.4 25.5,35.9 C26.6,34 27.9,32 28.6,29.9 C29.4,27.5 29.6,24.9 30.6,22.5 C31.2,21 32.8,18.4 34.7,19.3 C36.8,20.2 34.7,23.4 34.2,24.8 C35.2,24.1 36.6,23 37.7,22.6 C39.2,22.2 40.7,22.9 40.6,24.2 C40.4,26.6 37.6,28.4 36.1,30 C37,29.8 37.9,29.5 38.9,29.9 C39.4,30.1 39.8,30.5 40.2,30.8 C40.7,31.3 39.4,32.8 37.1,33.9 C36.8,34 34.1,35.2 33.6,35.3 C33,35.5 28.8,37.1 26.2,39.3 C24.2,40.6 24.1,43.2 23.6,42.4 L23.6,42.4 Z" id="Shape"></path>
                <path d="M16.2,41.1 C14.9,38.6 13.2,37.5 10.9,36.7 C9.3,36.1 8.2,36.1 8,34.7 C7.9,33.2 10,33.5 11.2,34.3 C11.4,34.4 12.4,35.1 12.7,34.8 C12.8,34.7 12.6,34.1 11.9,33.6 C11,33 10.1,32 10.5,30.7 C10.9,29.3 12.6,29.4 13.5,30.2 C14.5,31.1 15.2,32 16.4,33.8 C18.1,36.4 18,38.3 18.6,40.6 C18.7,41 18.9,41.2 19,41 C19,40.2 18.9,37 18.2,35.3 C17.4,33.3 15.4,29.9 13.5,28.7 C12.5,28 11.1,27.9 10.2,28.7 C8.2,30.4 10.3,32.2 9.7,32.4 C8.8,32.6 6.9,33.1 7.1,34.9 C7.3,37.3 11,37.1 13.3,38.6 C14.5,39.4 15.4,40.8 16.3,42.7 C17.2,44.7 16.6,46.5 16.4,48.1 C16.4,48.3 16.5,49.8 16.8,49.2 C17.8,45.5 17.7,44 16.2,41.1 L16.2,41.1 Z" id="Shape"></path>
                <path d="M21.4,60.3 C21.4,60.2 21.3,60.2 21.2,60.2 L21.2,60.2 L21,60.2 L19.9,61 C19.9,60.9 19.4,59.8 19.4,59.5 C19.4,57.1 19.6,54.8 19.6,52.4 L19.6,44.4 C19.6,44.2 19,43.7 18.9,43.7 C18.8,43.7 18.8,43.8 18.8,43.8 C18.7,44.1 18.6,44.3 18.6,44.7 C18.6,46.2 18.6,51.7 18.5,52.5 C18.4,52.5 18.1,52.4 17.9,52.4 C17,52.4 16.2,52.8 15.8,53.5 C14.3,56.1 14,58.8 14.8,61.3 C15,62 15.5,62.4 16.1,62.4 C16.6,62.4 17,62.2 17.5,61.7 C17.9,61.4 18.1,60.9 18.4,60.5 C18.4,60.4 18.5,60.4 18.5,60.3 C18.5,60.4 18.5,60.4 18.6,60.5 C18.7,60.9 18.9,61.3 19.1,61.7 C19.2,62 19.4,62.2 19.7,62.2 C19.9,62.2 20.1,62.1 20.5,61.9 C20.6,61.8 21.5,61.3 21.6,60.9 C21.6,60.8 21.5,60.6 21.4,60.3 L21.4,60.3 Z M18.3,57.6 C18.4,58.5 17.9,59.4 17.2,60.5 C17.1,60.8 16.8,60.9 16.6,60.9 C16.4,60.9 16.1,60.8 16,60.6 C15.7,60.1 15.5,59.6 15.5,59.1 C15.7,57.6 15.8,56 16.7,54.5 C16.7,54.4 16.8,54.3 16.8,54.3 C17,54 17.1,53.8 17.4,53.8 L17.5,53.8 C18,53.9 18.1,54.2 18.1,54.8 C18.2,54.7 18.2,57 18.3,57.6 L18.3,57.6 Z" id="Shape"></path>
                <path d="M7,55.8 C7,55.1 6.2,52.2 6.2,52.2 C5.8,50.8 5.2,49.6 4.1,49.3 C3.5,49.2 3,49.6 2.5,50.2 C1.5,51.5 0.9,53.1 0.8,55.1 C0.8,55.2 0.7,55.9 0.7,56.2 C0.5,57.9 1.4,59.1 3.2,60.4 C3.5,60.6 3.9,60.7 4.2,60.7 L4.2,60.7 C5.5,60.6 6.3,59.2 6.4,59.2 C7,58.1 7,56 7,55.8 L7,55.8 Z M2.4,52.8 C2.9,51.8 3.1,51.4 3.8,50.7 C4,51 4.1,51.3 4.3,51.6 C4.7,52.3 5.1,53 5.4,53.7 C6.1,55.4 6,56.8 5,58.5 C4.8,58.9 4.3,59.2 4.2,59.2 C3.8,59.2 3,58.9 2.8,58.6 C1.2,56.6 2,53.8 2.4,52.8 L2.4,52.8 Z" id="Shape"></path>
                <path d="M12.8,60.8 L12.7,60.7 C12.7,60.7 12.3,60.6 12.1,60.6 C11.4,60.7 10.9,60.2 10.4,59.5 C10.1,58.9 9.9,58.5 10,56.9 C10.3,57 10.8,57.2 11.1,57.2 C12,57.2 12.5,56.8 12.8,55.9 C13.2,54.6 12.5,52.8 11.4,52.2 C11.1,52 10.7,52 10.3,52 L9.7,52 C9.5,52 9.4,52.3 9.3,52.8 C9.3,52.9 9.1,54.4 8.9,54.8 C8.8,55.1 8.7,55.3 8.2,55.2 C8.1,55.2 8.1,55.3 8.1,55.4 C8.1,55.5 8.1,55.5 8.2,55.6 C8.8,55.8 8.8,56.2 8.8,56.6 L8.8,58.3 C8.8,59.4 9.2,59.7 9.8,60.6 C10.1,61 11,61.8 11.6,61.8 C11.8,61.8 12,61.8 12.3,61.7 C12.5,61.7 12.8,61.1 12.8,61.1 L12.8,60.8 L12.8,60.8 Z M11.3,55.7 L11.1,55.7 C10.9,55.7 10.7,55.6 10.5,55.6 L10.4,55.6 C10.3,55.6 10.1,55.4 10.1,55.3 C10.2,54.7 10.4,53 10.4,52.8 C11.2,53.1 11.7,53.8 11.7,54.8 C11.8,55.2 11.5,55.6 11.3,55.7 L11.3,55.7 Z" id="Shape"></path>
                <path d="M28.7,51.9 C28.5,51.9 28.4,51.9 28.3,52 C28.2,52.1 28.1,52.1 28.1,52.2 C27.5,52.6 25.8,56 25.9,56.4 L25.9,56.6 L25.9,60.5 L25.9,64.9 L25.9,65.7 L25.9,66.2 L25.9,67.9 C25.9,69.4 26,71 26,72.6 C26,72.9 26.1,73.2 26.2,73.4 C26.2,73.5 26.3,73.6 26.3,73.8 C26.3,73.8 26.3,73.9 26.4,73.9 L26.5,73.9 L26.6,73.9 C26.7,73.9 26.8,73.8 26.8,73.8 C26.9,73.8 26.9,73.7 26.9,73.7 L26.9,73.6 C26.9,73.5 27,73.4 27,73.3 L27,71.9 C27,70 27.1,67.9 27.1,66 L27.1,65.6 L27.1,61.8 C27.2,61.9 27.4,61.9 27.5,62 C27.8,62.2 28.2,62.4 28.5,62.4 L28.7,62.4 L28.7,62.4 C29.6,62.4 30.9,61.3 31.3,60.1 C32.3,57.4 31.9,54.9 29.9,52.5 C29.7,52.1 29.1,51.9 28.7,51.9 L28.7,51.9 Z M27.1,60.9 L27.1,57.8 C27.1,56.2 27.7,54.8 28.3,53.7 C28.5,53.3 28.7,53.2 28.9,53.2 C29,53.2 29.2,53.3 29.4,53.5 C30.7,54.9 31.3,57.8 30.3,59.6 C29.8,60.5 29.5,60.7 29,60.7 C28.8,60.7 28.6,60.7 28.4,60.6 L28.2,60.6 C28,60.6 27.8,60.7 27.6,60.7 C27.4,60.8 27.3,60.9 27.1,60.9 L27.1,60.9 L27.1,60.9 Z" id="Shape"></path>
                <path d="M44.6,56.3 C44,55.9 43.3,55.6 42.7,55.2 C42.5,55.1 42.3,55 42.1,54.9 C41.2,54.4 40.7,53.8 40.6,53.1 C40.5,52.4 40.8,51.7 41.5,51 C41.7,51.1 41.7,51.3 41.6,51.5 C41.5,51.9 41.3,52.4 41.7,52.8 C41.8,52.9 41.9,52.9 41.9,52.8 C42.8,52.1 42.7,51.1 41.9,49.7 C41.9,49.7 41.9,49.6 41.8,49.6 L41.7,49.6 C40.6,50 40.2,50.5 39.7,51.7 C39.2,53.2 39.6,55.2 41.3,55.8 C41.8,56 42.2,56.3 42.7,56.7 C42.9,56.8 43,56.9 43.2,57.1 C43.4,57.3 43.6,57.4 43.6,57.6 C43.6,57.8 43.4,57.9 43.3,58 C42.1,58.8 41.1,59.1 39.9,59.1 C39.7,59.1 39.5,59.2 39.3,59.3 C39.2,59.3 39.1,59.4 39.1,59.4 C39,59.4 39,59.5 39,59.6 L39,59.9 C39,60 39,60 39.1,60.1 C39.2,60.2 39.4,60.2 39.5,60.3 C39.8,60.5 40.2,60.6 40.5,60.6 L40.6,60.6 C42.2,60.5 43.6,59.9 44.8,58.8 C45.2,58.4 45.4,58 45.4,57.6 C45.3,57 45,56.6 44.6,56.3 L44.6,56.3 Z" id="Shape"></path>
                <path d="M36.9,53 C36.8,52.6 36.2,52.3 35.9,52.3 C35.8,52.3 35.7,52.4 35.7,52.4 C35.7,52.5 35.7,53 35.8,53.2 C36.6,54.8 36.4,56.5 36.2,58.1 C36.2,58.1 36.2,58.6 36.1,58.7 C36.1,59.3 36,59.6 35.6,59.6 C35.5,59.5 35.2,59.1 35,58.5 C34.4,57 34.4,55.3 34.4,53.6 C34.4,53.4 33.9,52.8 33.9,52.7 C33.9,52.7 33.8,52.6 33.7,52.6 C33.6,52.6 33.6,52.6 33.6,52.7 C33.6,52.8 33.2,53.4 33.2,53.6 C33.2,54.7 33.3,55.8 33.4,56.9 L33.4,57.1 C33.5,58.4 34,59.6 34.9,60.7 C35.3,61.2 35.7,61.4 36,61.4 L36,61.4 C37,61.4 37.2,59.9 37.3,59.7 C37.3,59.3 37.6,56.1 37.5,54.6 C37.4,54.4 37,53.4 36.9,53 L36.9,53 Z" id="Shape"></path>
                <path d="M23.7,53.7 L23.5,53.7 C23,54 22.8,54.2 22.8,54.5 C22.9,55.5 22.9,56.5 22.9,57.5 C22.9,59 22.9,60.6 23.3,62.2 C23.3,62.3 23.4,62.3 23.4,62.3 L23.4,62.3 C23.5,62.3 23.6,62.2 23.6,62.2 C24.2,59.4 24,56.6 23.7,53.8 C23.8,53.8 23.8,53.7 23.7,53.7 L23.7,53.7 Z" id="Shape"></path>
                <path d="M23.6,52.5 C23.6,52.5 24,52.2 24,52.1 L23.6,50.3 C23.6,50.2 23.5,50.2 23.4,50.2 L22.9,50.2 C22.8,50.2 22.7,50.3 22.7,50.4 L22.7,51.9 C22.8,52.1 23.4,52.5 23.6,52.5 L23.6,52.5 Z" id="Shape"></path>
            </g>
        </g>
    </g>
</svg>