<?xml version="1.0" encoding="UTF-8" standalone="no"?>
<svg width="161px" height="152px" viewBox="0 0 161 152" version="1.1" xmlns="http://www.w3.org/2000/svg" xmlns:xlink="http://www.w3.org/1999/xlink">
    <!-- Generator: Sketch 3.6.1 (26313) - http://www.bohemiancoding.com/sketch -->
    <title>Shape</title>
    <desc>Created with Sketch.</desc>
    <defs></defs>
    <g id="Page-1" stroke="none" stroke-width="1" fill="none" fill-rule="evenodd">
        <g id="Botling_assets" transform="translate(-635.000000, -249.000000)" fill="#F9DF00">
            <path d="M795.1,258.2 C786.3,258.2 786.3,249.9 777.5,249.9 C768.7,249.9 768.7,257.8 759.9,257.8 C751.1,257.8 751.1,249.7 742.2,249.7 C733.4,249.7 733.4,257.7 724.5,257.7 C715.7,257.7 715.7,249.7 706.8,249.7 C698,249.7 698,257.7 689.1,257.7 C680.3,257.7 680.3,249.7 671.4,249.7 C662.6,249.7 662.1,257.7 653.2,257.7 C644.4,257.7 644,249.7 635,249.7 L635,400.2 L795,400.2 L795.1,258.2 L795.1,258.2 Z" id="Shape"></path>
        </g>
    </g>
</svg>