<?xml version="1.0" encoding="UTF-8" standalone="no"?>
<svg width="161px" height="152px" viewBox="0 0 161 152" version="1.1" xmlns="http://www.w3.org/2000/svg" xmlns:xlink="http://www.w3.org/1999/xlink">
    <g id="Page-1" stroke="none" stroke-width="1" fill="none" fill-rule="evenodd">
        <g id="Botling_assets" transform="translate(-635.000000, -170.000000)" fill="#FF98B5">
            <path d="M795.1,179.2 C786.3,179.2 786.3,170.9 777.5,170.9 C768.7,170.9 768.7,178.8 759.9,178.8 C751.1,178.8 751.1,170.7 742.2,170.7 C733.4,170.7 733.4,178.7 724.5,178.7 C715.7,178.7 715.7,170.7 706.8,170.7 C698,170.7 698,178.7 689.1,178.7 C680.3,178.7 680.3,170.7 671.4,170.7 C662.6,170.7 662.1,178.7 653.2,178.7 C644.4,178.7 644,170.7 635,170.7 L635,321.2 L795,321.2 L795.1,179.2 L795.1,179.2 Z" id="Shape"></path>
        </g>
    </g>
</svg>