<?xml version="1.0" encoding="UTF-8" standalone="no"?>
<svg width="161px" height="152px" viewBox="0 0 161 152" version="1.1" xmlns="http://www.w3.org/2000/svg" xmlns:xlink="http://www.w3.org/1999/xlink">
    <g id="Page-1" stroke="none" stroke-width="1" fill="none" fill-rule="evenodd">
        <g id="Botling_assets" transform="translate(-635.000000, -318.000000)" fill="#FF8338">
            <path d="M795.1,327.2 C786.3,327.2 786.3,318.9 777.5,318.9 C768.7,318.9 768.7,326.8 759.9,326.8 C751.1,326.8 751.1,318.7 742.2,318.7 C733.4,318.7 733.4,326.7 724.5,326.7 C715.7,326.7 715.7,318.7 706.8,318.7 C698,318.7 698,326.7 689.1,326.7 C680.3,326.7 680.3,318.7 671.4,318.7 C662.6,318.7 662.1,326.7 653.2,326.7 C644.4,326.7 644,318.7 635,318.7 L635,469.2 L795,469.2 L795.1,327.2 L795.1,327.2 Z" id="Shape"></path>
        </g>
    </g>
</svg>