<?xml version="1.0" encoding="UTF-8" standalone="no"?>
<svg width="161px" height="152px" viewBox="0 0 161 152" version="1.1" xmlns="http://www.w3.org/2000/svg" xmlns:xlink="http://www.w3.org/1999/xlink">
    <g id="Page-1" stroke="none" stroke-width="1" fill="none" fill-rule="evenodd">
        <g id="Botling_assets" transform="translate(-635.000000, -78.000000)" fill="#A3D01A">
            <path d="M795.1,87.2 C786.3,87.2 786.3,78.9 777.5,78.9 C768.7,78.9 768.7,86.8 759.9,86.8 C751.1,86.8 751.1,78.7 742.2,78.7 C733.4,78.7 733.4,86.7 724.5,86.7 C715.7,86.7 715.7,78.7 706.8,78.7 C698,78.7 698,86.7 689.1,86.7 C680.3,86.7 680.3,78.7 671.4,78.7 C662.6,78.7 662.1,86.7 653.2,86.7 C644.4,86.7 644,78.7 635,78.7 L635,229.2 L795,229.2 L795.1,87.2 L795.1,87.2 Z" id="Shape"></path>
        </g>
    </g>
</svg>